<?xml version="1.0" encoding="UTF-8" standalone="no"?>
<!-- Created with Inkscape (http://www.inkscape.org/) -->

<svg
   width="210mm"
   height="297mm"
   viewBox="0 0 210 297"
   version="1.1"
   id="svg459"
   xml:space="preserve"
   inkscape:version="1.2.1 (9c6d41e410, 2022-07-14)"
   sodipodi:docname="scanimation1.svg"
   xmlns:inkscape="http://www.inkscape.org/namespaces/inkscape"
   xmlns:sodipodi="http://sodipodi.sourceforge.net/DTD/sodipodi-0.dtd"
   xmlns="http://www.w3.org/2000/svg"
   xmlns:svg="http://www.w3.org/2000/svg"><sodipodi:namedview
     id="namedview461"
     pagecolor="#ffffff"
     bordercolor="#000000"
     borderopacity="0.25"
     inkscape:showpageshadow="2"
     inkscape:pageopacity="0.0"
     inkscape:pagecheckerboard="0"
     inkscape:deskcolor="#d1d1d1"
     inkscape:document-units="mm"
     showgrid="false"
     inkscape:zoom="1"
     inkscape:cx="197"
     inkscape:cy="561"
     inkscape:window-width="2560"
     inkscape:window-height="1494"
     inkscape:window-x="-11"
     inkscape:window-y="-11"
     inkscape:window-maximized="1"
     inkscape:current-layer="layer1" /><defs
     id="defs456" /><g
     inkscape:label="Ebene 1"
     inkscape:groupmode="layer"
     id="layer1"><path
       style="fill:#fe0000;fill-opacity:1;stroke-width:0.264583"
       d="m 99.117401,198.1705 c -0.828753,-0.13174 -1.900315,-0.35294 -2.38125,-0.49157 -0.783612,-0.22587 -0.805729,-0.25666 -0.212967,-0.29642 1.395905,-0.0936 -1.960078,-1.0204 -3.770312,-1.04118 -1.602713,-0.0184 -1.785938,-0.0748 -1.785938,-0.54968 0,-0.47253 0.17697,-0.52935 1.653646,-0.53091 l 1.653646,-0.002 -0.79375,-0.52557 c -0.436562,-0.28912 -1.210469,-0.52725 -1.719792,-0.52917 -0.509322,-0.002 -1.283229,-0.24004 -1.719791,-0.52916 l -0.79375,-0.52568 9.98802,-0.002 c 9.811047,-0.002 9.988017,-0.0111 9.988017,-0.53091 0,-0.52053 -0.17639,-0.52917 -10.806905,-0.52917 -10.470891,0 -10.8218,-0.0165 -11.285799,-0.52917 -0.417777,-0.46164 -0.814908,-0.52916 -3.112023,-0.52916 -2.292371,0 -2.61235,-0.0542 -2.472534,-0.41852 0.08833,-0.23007 0.160599,-0.4682 0.160599,-0.52906 0,-0.0608 5.834062,-0.11065 12.964583,-0.11065 12.788189,0 12.964579,-0.007 12.964579,-0.52917 0,-0.52018 -0.17639,-0.52916 -10.387393,-0.52916 -10.100851,0 -10.396513,-0.0146 -10.717866,-0.52917 -0.240805,-0.38559 -0.617016,-0.52917 -1.386562,-0.52917 -0.58085,0 -1.056091,-0.10167 -1.056091,-0.22594 0,-0.12427 -0.319756,-0.57076 -0.710569,-0.99219 l -0.71057,-0.76624 4.469374,-0.0728 c 4.31635,-0.0703 4.870005,-0.1745 4.885213,-0.9194 0.0022,-0.10914 -1.714331,-0.19843 -3.814577,-0.19843 -3.586256,0 -3.828849,-0.0322 -3.986579,-0.52917 -0.133851,-0.42173 -0.400324,-0.52917 -1.312439,-0.52917 -1.02916,0 -1.465686,-0.28225 -1.465686,-0.94768 0,-0.0609 3.612953,-0.11065 8.028784,-0.11065 7.692766,0 8.048827,0.0221 8.507674,0.52917 0.349213,0.38587 0.814908,0.52916 1.719791,0.52916 0.904886,0 1.370576,0.14329 1.719796,0.52917 0.39608,0.43767 0.8149,0.52917 2.42225,0.52917 1.75361,0 1.94337,0.0506 1.94337,0.51846 0,0.4668 -0.21755,0.52613 -2.18281,0.59531 l -2.18281,0.0769 1.19062,0.37667 c 1.61639,0.51137 4.86779,0.47808 6.35,-0.065 1.0178,-0.37292 2.49096,-0.43681 10.14862,-0.4401 8.0608,-0.003 8.94191,0.0381 8.7974,0.41466 -0.0883,0.23019 -0.1606,0.46831 -0.1606,0.52917 0,0.0609 -0.65066,0.11065 -1.4459,0.11065 -1.17511,0 -1.49894,0.0991 -1.7291,0.52917 -0.15576,0.29104 -0.21529,0.52916 -0.1323,0.52916 0.083,0 0.0235,0.23813 -0.13229,0.52917 -0.19955,0.37286 -0.55399,0.52917 -1.19993,0.52917 -0.74034,0 -0.91673,0.10182 -0.91673,0.52916 0,0.50779 0.17639,0.52917 4.36562,0.52917 4.18924,0 4.36563,0.0214 4.36563,0.52917 0,0.50282 -0.17639,0.52916 -3.54257,0.52916 -3.13447,0 -3.61452,0.06 -4.16719,0.52037 -0.524,0.43654 -0.55003,0.52178 -0.1616,0.52917 0.2837,0.005 0.46302,0.21374 0.46302,0.53796 0,0.47254 -0.17697,0.52936 -1.65364,0.53092 -1.20509,0.001 -1.86896,0.14433 -2.4474,0.52742 l -0.79375,0.52568 1.05834,0.003 1.05833,0.003 -0.79375,0.52568 c -0.74216,0.49152 -1.25376,0.5258 -7.87136,0.52743 -6.90063,0.002 -7.0776,0.015 -7.0776,0.53089 0,0.51306 0.18322,0.5298 6.01927,0.54968 l 6.01927,0.0205 -1.32291,0.48816 c -0.76706,0.28304 -2.10114,0.50073 -3.175,0.51808 -1.01865,0.0165 -2.56646,0.20818 -3.43959,0.42603 -1.92692,0.48079 -7.89886,0.70616 -9.973489,0.37639 z m 13.846789,-14.01171 0.62462,-0.52036 -0.9009,-0.009 c -0.8593,-0.008 -0.88047,-0.0314 -0.45841,-0.49776 0.42672,-0.47152 0.35032,-0.49507 -2.1418,-0.66009 -1.42137,-0.0941 -8.74579,-0.17174 -16.276495,-0.1725 -11.993836,-0.001 -13.692187,-0.0506 -13.692187,-0.39824 0,-0.2248 0.237166,-0.39687 0.546996,-0.39687 0.426591,0 0.510027,-0.11649 0.379046,-0.52917 -0.161204,-0.50791 -0.04755,-0.52917 2.828942,-0.52917 2.710348,0 3.028491,-0.0506 3.327363,-0.52916 0.32014,-0.51263 0.617016,-0.52917 9.49736,-0.52917 9.150135,0 9.166015,10e-4 8.688005,0.52917 -0.44302,0.48952 -0.81491,0.52916 -4.96411,0.52916 -3.981229,0 -4.467171,0.047 -4.324618,0.41852 0.08833,0.23018 0.160599,0.4683 0.160599,0.52916 0,0.0609 3.980569,0.11066 8.845709,0.11066 8.61334,0 8.85013,-0.0139 9.01367,-0.52917 0.16293,-0.51338 0.40032,-0.52917 7.95533,-0.52917 7.61098,0 7.78737,0.012 7.78737,0.52917 0,0.35278 0.17639,0.52917 0.52917,0.52917 0.29398,0 0.52917,0.17638 0.52917,0.39687 0,0.33162 -0.61993,0.40598 -3.77031,0.45225 -3.16405,0.0465 -3.35313,0.0693 -1.1759,0.14205 2.43915,0.0815 2.58455,0.11776 2.42957,0.60608 -0.11701,0.36867 -0.0418,0.51941 0.25916,0.51941 0.34202,0 0.36925,0.10232 0.14081,0.52917 -0.27372,0.51145 -0.55399,0.52917 -8.373,0.52917 -8.07951,0 -8.089,-5.3e-4 -7.46516,-0.52037 z m -5.32851,-5.30047 c 0,-0.4971 0.17639,-0.52916 2.91121,-0.52916 h 2.9112 l 0.4585,-1.05834 c 0.40071,-0.92492 0.56738,-1.05833 1.32213,-1.05833 0.68724,0 0.86363,-0.10808 0.86363,-0.52917 0,-0.5161 0.17639,-0.52916 7.14375,-0.52916 6.96736,0 7.14375,0.0131 7.14375,0.52916 0,0.38806 -0.17639,0.52917 -0.66146,0.52917 -0.48507,0 -0.66146,0.14111 -0.66146,0.52917 0,0.29104 -0.11104,0.52916 -0.24675,0.52916 -0.13572,0 -0.32233,0.23813 -0.4147,0.52917 -0.15505,0.48851 -0.40033,0.52917 -3.19283,0.52917 -2.84849,0 -3.02488,0.0308 -3.02488,0.52916 0,0.51634 -0.17639,0.52917 -7.27604,0.52917 -7.09966,0 -7.27605,-0.0128 -7.27605,-0.52917 z m -25.135412,-1.05833 c 0,-0.51652 0.176389,-0.52917 7.377475,-0.52917 7.154958,0 7.381648,0.016 7.515854,0.52917 0.135982,0.51999 0.0081,0.52917 -7.377474,0.52917 -7.339466,0 -7.515855,-0.0124 -7.515855,-0.52917 z m -1.852083,-2.11667 c 0,-0.51527 0.176389,-0.52916 6.716016,-0.52916 6.4935,0 6.720601,-0.0175 6.854396,-0.52917 0.135645,-0.51871 0.0081,-0.52917 -6.451433,-0.52917 -6.413424,0 -6.589813,-0.0142 -6.589813,-0.52916 0,-0.51701 0.176389,-0.52917 7.672917,-0.52917 7.496527,0 7.672916,0.0122 7.672916,0.52917 0,0.5132 0.176389,0.52916 5.849136,0.52916 5.22495,0 5.83201,0.0447 5.68855,0.41852 -0.0883,0.23018 -0.1606,0.4683 -0.1606,0.52916 0,0.0609 -2.91703,0.11066 -6.48229,0.11066 -6.305907,0 -6.482296,0.0144 -6.482296,0.52916 0,0.5161 -0.176389,0.52917 -7.143749,0.52917 -6.967361,0 -7.14375,-0.0131 -7.14375,-0.52917 z m 35.983335,-2.11666 c 0,-0.29105 -0.11906,-0.52917 -0.26459,-0.52917 -0.14552,0 -0.26458,-0.23813 -0.26458,-0.52917 0,-0.52398 -0.17639,-0.52916 -17.991666,-0.52916 -17.815277,0 -17.991666,-0.005 -17.991666,-0.52917 0,-0.5239 0.176389,-0.52917 17.727083,-0.52917 17.550689,0 17.727079,-0.005 17.727079,-0.52916 0,-0.51955 -0.17639,-0.52917 -9.6983,-0.52917 -9.681534,0 -9.697466,-8e-4 -9.219404,-0.52917 0.448243,-0.4953 0.814908,-0.52916 5.729554,-0.52916 5.07426,0 5.25065,-0.0178 5.25065,-0.52917 0,-0.50303 0.17639,-0.52917 3.57188,-0.52917 3.39548,0 3.57187,-0.0261 3.57187,-0.52916 0,-0.35278 0.17639,-0.52917 0.52917,-0.52917 0.35278,0 0.52917,-0.17639 0.52917,-0.52917 0,-0.29104 -0.16014,-0.52916 -0.35587,-0.52916 -0.19573,0 -0.57137,0.23812 -0.83476,0.52916 -0.46092,0.50931 -0.81491,0.52917 -9.43371,0.52917 -8.778439,0 -8.954828,0.0104 -8.954828,0.52917 0,0.51678 -0.17639,0.52916 -7.540625,0.52916 -7.364236,0 -7.540625,-0.0124 -7.540625,-0.52916 0,-0.5051 0.176389,-0.52917 3.877466,-0.52917 3.860706,0 3.875394,-0.002 3.398575,-0.52917 -0.417333,-0.46115 -0.814908,-0.52916 -3.093024,-0.52916 -2.532146,0 -2.605253,-0.0166 -2.330933,-0.52917 0.272404,-0.509 0.553989,-0.52917 7.386783,-0.52917 6.881067,0 7.107917,-0.0166 7.241962,-0.52916 0.136341,-0.52137 0.0081,-0.52917 -8.700391,-0.52917 -8.662382,0 -8.838771,-0.0106 -8.838771,-0.52917 0,-0.51157 0.186938,-0.53022 5.622396,-0.56081 l 5.622395,-0.0316 -3.751003,-0.56366 c -3.479259,-0.52283 -3.72633,-0.59721 -3.410415,-1.02669 0.308695,-0.41966 0.963467,-0.46302 6.992149,-0.46302 3.658359,0 6.651561,0.0952 6.651561,0.21167 0,0.51574 -0.728556,0.84666 -1.863993,0.84666 -0.892974,0 -1.359926,0.14468 -1.707882,0.52917 -0.475576,0.5255 -0.46213,0.52917 1.943368,0.52917 2.391013,0 2.727244,0.11834 2.104757,0.74083 -0.246944,0.24694 1.18806,0.3175 6.457518,0.3175 6.64476,0 6.77236,0.0102 6.63665,0.52917 -0.13348,0.51041 -0.3609,0.52916 -6.41652,0.52916 -5.942115,0 -6.303765,0.0283 -6.757023,0.52917 -0.477855,0.52802 -0.462131,0.52917 7.276043,0.52917 7.73817,0 7.75389,-0.001 7.27604,-0.52917 -0.47786,-0.52804 -0.46213,-0.52917 7.3495,-0.52917 7.59601,0 7.83337,0.0157 7.99633,0.52917 0.13468,0.42432 0.40033,0.52917 1.34075,0.52917 0.9964,0 1.17279,0.0796 1.17279,0.52916 0,0.29398 -0.17639,0.52917 -0.39687,0.52917 -0.22049,0 -0.39687,0.23518 -0.39687,0.52917 0,0.50483 -0.17639,0.52916 -3.83646,0.52916 -3.66007,0 -3.83646,0.0243 -3.83646,0.52917 0,0.49333 -0.17639,0.52917 -2.60483,0.52917 -2.26881,0 -2.6666,0.0683 -3.08371,0.52916 -0.47777,0.52793 -0.46213,0.52917 6.70586,0.52917 7.00837,0 7.18476,0.013 7.18476,0.52917 0,0.29104 0.11906,0.52916 0.26459,0.52916 0.14699,0 0.26458,0.70556 0.26458,1.5875 v 1.5875 h -7.14375 c -6.96736,0 -7.14375,-0.0131 -7.14375,-0.52916 z m -2.41305,-11.1125 -0.59481,-1.05834 h -2.20024 c -2.02385,0 -2.20024,-0.0424 -2.20024,-0.52916 0,-0.5101 -0.17639,-0.52917 -4.89479,-0.52917 -4.7184,0 -4.894789,-0.0191 -4.894789,-0.52917 0,-0.5054 0.176389,-0.52916 3.927739,-0.52916 3.59173,0 3.96872,-0.0453 4.40664,-0.52917 0.27157,-0.30009 0.3466,-0.52917 0.1733,-0.52917 -0.16808,0 -0.3056,-0.23812 -0.3056,-0.52916 0,-0.50397 0.17639,-0.52917 3.70417,-0.52917 3.52778,0 3.70417,-0.0252 3.70417,-0.52917 0,-0.45138 -0.17639,-0.52916 -1.19994,-0.52916 -1.11794,0 -1.18058,-0.0362 -0.91673,-0.52917 0.28051,-0.52413 0.20121,-0.52917 -8.33437,-0.52917 -8.535592,0 -8.614886,0.005 -8.334379,0.52917 0.192009,0.35877 0.195007,0.52917 0.0093,0.52917 -0.15064,0 -0.273891,0.23812 -0.273891,0.52916 0,0.51679 -0.176389,0.52917 -7.540625,0.52917 -7.364236,0 -7.540625,-0.0124 -7.540625,-0.52917 0,-0.29104 0.167447,-0.52916 0.372105,-0.52916 0.241842,0 0.323662,-0.18525 0.233724,-0.52917 -0.134659,-0.51494 -0.0077,-0.52922 4.721125,-0.53091 l 4.859504,-0.002 -0.79375,-0.52568 -0.79375,-0.52568 6.274545,-0.002 c 6.002827,-0.002 6.286807,-0.0245 6.557747,-0.5308 0.27569,-0.51514 0.20121,-0.52916 -2.809824,-0.52916 -3.076265,0 -3.090429,-0.003 -2.614135,-0.52917 0.470435,-0.51983 0.46213,-0.52917 -0.47033,-0.52917 -0.716846,0 -0.990334,0.12955 -1.11717,0.52917 -0.16267,0.51253 -0.400323,0.52917 -7.558454,0.52917 -7.214115,0 -7.390504,-0.0126 -7.390504,-0.52917 0,-0.47037 0.176389,-0.52917 1.5875,-0.52917 1.411111,0 1.5875,-0.0588 1.5875,-0.52916 0,-0.50443 0.176389,-0.52917 3.772814,-0.52917 3.486268,0 3.797913,-0.0402 4.103283,-0.52917 0.31615,-0.50623 0.617016,-0.52916 6.942812,-0.52916 3.636788,0 6.612338,0.0953 6.612338,0.21166 0,0.11642 -0.14287,0.35454 -0.3175,0.52917 -0.24694,0.24694 0.22343,0.3175 2.11667,0.3175 2.25778,0 2.43417,-0.0384 2.43417,-0.52917 0,-0.42042 -0.17672,-0.52937 -0.8599,-0.53015 l -0.8599,-0.001 0.8663,-0.52818 c 0.73717,-0.44939 1.33394,-0.52811 4.00403,-0.52811 2.91523,0 3.14756,-0.0375 3.27613,-0.52916 0.13396,-0.51226 0.008,-0.52917 -3.93789,-0.52917 -3.89988,0 -4.07627,-0.0229 -4.07627,-0.52917 0,-0.50203 0.17639,-0.52916 3.43958,-0.52916 h 3.43958 v -1.05834 c 0,-0.58208 -0.12708,-1.05833 -0.28241,-1.05833 -0.16201,0 -0.21081,-0.22561 -0.11446,-0.52917 0.16136,-0.50841 0.0475,-0.52916 -2.9019,-0.52916 -2.98786,0 -3.06228,-0.0141 -2.78664,-0.52917 0.27205,-0.50834 0.55399,-0.52917 7.16236,-0.52917 6.79718,0 6.87579,0.006 6.59597,0.52917 -0.27525,0.51431 -0.20121,0.52917 2.63652,0.52917 2.74334,0 2.91973,0.032 2.91973,0.52916 0,0.42927 0.17639,0.52917 0.93434,0.52917 0.92684,0 1.66626,0.76473 0.96534,0.99837 -0.1717,0.0572 -0.31218,0.33226 -0.31218,0.61118 0,0.47472 -0.22816,0.50712 -3.57188,0.50712 -3.39548,0 -3.57187,0.0261 -3.57187,0.52916 0,0.50699 0.17639,0.52917 4.20856,0.52917 4.0783,0 4.20428,0.0164 4.07018,0.52917 -0.12713,0.48616 -0.36089,0.52916 -2.87633,0.52916 -2.46717,0 -2.76597,0.0523 -3.02116,0.52917 -0.15576,0.29104 -0.45761,0.52917 -0.67077,0.52917 -0.21316,0 -0.38756,0.23812 -0.38756,0.52916 0,0.31601 -0.17639,0.52917 -0.43789,0.52917 -0.39378,0 -0.38965,0.0533 0.041,0.52917 0.47178,0.5213 0.46213,0.52916 -0.64976,0.52916 h -1.12865 l 0.62462,0.52037 0.62463,0.52036 -3.09955,0.009 c -2.82383,0.008 -3.12473,0.0559 -3.38275,0.53796 -0.27414,0.51225 -0.2004,0.52936 2.3058,0.53505 l 2.589,0.006 -0.66146,0.5174 -0.66146,0.5174 5.62239,0.006 c 5.44405,0.006 5.6224,0.0227 5.6224,0.53505 0,0.29398 -0.17639,0.52917 -0.39687,0.52917 -0.22049,0 -0.39688,0.23518 -0.39688,0.52916 0,0.50565 -0.17639,0.52917 -3.96875,0.52917 -3.79236,0 -3.96875,0.0235 -3.96875,0.52917 0,0.47877 0.17639,0.52916 1.85208,0.52916 1.01865,0 1.85209,0.0952 1.85209,0.21167 0,0.44765 -0.66774,0.84667 -1.41684,0.84667 -0.76508,0 -0.77158,0.0114 -0.30295,0.52916 0.46481,0.51362 0.46212,0.52917 -0.0913,0.52917 -0.39379,0 -0.57018,0.1637 -0.57018,0.52917 0,0.49857 0.17639,0.52916 3.05101,0.52916 2.55342,0 3.07752,0.0691 3.21356,0.42358 0.0894,0.23297 0.009,0.51861 -0.17915,0.63476 -0.18793,0.11614 -0.26855,0.40179 -0.17915,0.63475 0.14664,0.38216 -0.55964,0.42359 -7.22056,0.42359 h -7.3831 z M 88.850268,147.10832 c 0,-0.50303 -0.176389,-0.52916 -3.571875,-0.52916 -3.395486,0 -3.571875,-0.0261 -3.571875,-0.52917 0,-0.41157 -0.176389,-0.52917 -0.79375,-0.52917 -0.617361,0 -0.79375,-0.11759 -0.79375,-0.52916 0,-0.46392 0.176389,-0.52917 1.430438,-0.52917 1.300176,0 1.417837,-0.0482 1.292058,-0.52917 -0.135772,-0.51919 -0.0081,-0.52916 6.771645,-0.52916 6.733636,0 6.910025,0.0135 6.910025,0.52916 0,0.44098 -0.176389,0.52917 -1.058333,0.52917 -0.881944,0 -1.058333,0.0882 -1.058333,0.52917 0,0.4491 0.176389,0.52916 1.165854,0.52916 1.035593,0 1.150394,0.0591 1.027475,0.52917 -0.132819,0.5079 -0.0081,0.52917 3.10316,0.52917 h 3.241543 l -0.67273,0.52916 c -0.63044,0.49591 -1.07336,0.52917 -7.047139,0.52917 -6.198024,0 -6.374413,-0.0146 -6.374413,-0.52917 z m -6.775182,-5.18101 c 0.08833,-0.23018 0.160599,-0.46831 0.160599,-0.52917 0,-0.0609 0.706351,-0.11065 1.56967,-0.11065 1.337298,0 1.594534,-0.0783 1.737621,-0.52917 0.161779,-0.50972 0.400324,-0.52916 6.490812,-0.52916 6.052072,0 6.33499,-0.0227 6.606063,-0.52917 0.271998,-0.50823 0.553991,-0.52917 7.128289,-0.52917 6.71482,0 6.84245,-0.0101 6.70671,-0.52916 -0.12633,-0.48307 -0.008,-0.52917 1.35699,-0.52917 1.41339,0 1.47985,-0.029 1.21218,-0.52917 -0.27382,-0.51164 -0.55399,-0.52916 -8.45815,-0.52916 -7.94257,0 -8.179717,0.015 -8.342894,0.52916 -0.131315,0.41374 -0.400324,0.52917 -1.233225,0.52917 -0.842758,0 -1.094179,0.11053 -1.203654,0.52917 -0.133969,0.51229 -0.360896,0.52916 -7.118979,0.52916 -6.210849,0 -6.9806,-0.0465 -6.9806,-0.42164 0,-0.23191 0.234182,-0.48289 0.520404,-0.55774 0.286222,-0.0748 0.591902,-0.36135 0.679288,-0.63668 0.150254,-0.47341 0.520795,-0.50092 6.821783,-0.50649 6.205473,-0.005 6.708311,-0.0414 7.324358,-0.52328 0.661334,-0.5173 0.660195,-0.5174 -6.050129,-0.52328 -6.579908,-0.006 -6.708873,-0.0163 -6.573208,-0.53505 0.123041,-0.47051 0.0081,-0.52917 -1.036784,-0.52917 -1.093175,0 -1.155405,-0.0369 -0.891962,-0.52917 0.155761,-0.29104 0.44372,-0.52916 0.639908,-0.52916 0.19619,0 0.418979,-0.23813 0.495088,-0.52917 0.126846,-0.48506 0.0081,-0.52917 -1.42435,-0.52917 -1.38634,0 -1.562729,-0.0597 -1.562729,-0.52916 0,-0.49658 0.176389,-0.52917 2.864296,-0.52917 2.651917,0 2.906952,-0.0454 3.439583,-0.61237 0.316408,-0.3368 0.575287,-0.81305 0.575287,-1.05833 0,-0.40944 0.732511,-0.44597 8.942917,-0.44597 8.803532,0 9.577912,-0.0684 9.577912,-0.84666 0,-0.11642 -4.4095,-0.21167 -9.798888,-0.21167 -9.716904,0 -9.796523,-0.004 -9.515691,-0.52917 0.188391,-0.35201 0.553991,-0.52916 1.092056,-0.52916 0.44487,0 1.111581,-0.23813 1.48158,-0.52917 0.642616,-0.50548 1.073358,-0.52917 9.62357,-0.52917 8.680053,0 8.959413,-0.016 9.234043,-0.52916 0.28044,-0.52401 0.1999,-0.52926 -8.258919,-0.53797 -8.52985,-0.009 -8.541224,-0.01 -7.917497,-0.52917 l 0.624624,-0.52036 -0.756916,-0.0169 -0.756916,-0.0169 0.859896,-0.42795 c 0.472943,-0.23538 0.859896,-0.51619 0.859896,-0.62402 0,-0.10783 0.446484,-0.35412 0.992187,-0.54731 0.883787,-0.31287 0.211706,-0.36641 -6.151562,-0.49006 -3.929063,-0.0764 4.107656,-0.13784 17.859377,-0.13665 13.75172,0.001 21.66937,0.0438 17.59479,0.0946 l -7.40833,0.0924 1.05833,0.4876 1.05833,0.4876 -0.92604,0.0214 -0.92604,0.0214 0.79375,0.52568 c 0.43656,0.28912 0.98605,0.52646 1.22109,0.52742 0.23504,9.6e-4 0.73007,0.23987 1.10007,0.53091 0.45091,0.35469 1.07335,0.52917 1.88776,0.52917 1.03865,0 1.21504,0.0768 1.21504,0.52917 0,0.40516 0.17639,0.52916 0.75274,0.52916 0.41672,0 0.96652,0.23622 1.23163,0.52917 0.47239,0.52198 0.46213,0.52917 -0.75498,0.52917 -1.16764,0 -1.21614,0.0284 -0.90341,0.52916 0.18176,0.29104 0.48043,0.52917 0.66371,0.52917 0.18327,0 0.33323,0.23812 0.33323,0.52917 0,0.48507 0.17639,0.52916 2.11666,0.52916 1.94028,0 2.11667,0.0441 2.11667,0.52917 0,0.36173 -0.17639,0.52917 -0.55748,0.52917 -0.39964,0 -0.512,0.11849 -0.39687,0.41851 0.0883,0.23018 0.1606,0.46831 0.1606,0.52917 0,0.0609 0.7739,0.11065 1.71979,0.11065 1.5434,0 1.71979,0.0543 1.71979,0.52917 0,0.47808 -0.17639,0.52916 -1.82731,0.52916 -1.69705,0 -1.81745,0.0377 -1.68893,0.52917 0.0761,0.29104 0.0121,0.52917 -0.14235,0.52917 -0.17239,0 -0.23149,0.40844 -0.15316,1.05833 l 0.12757,1.05833 h -2.25895 c -2.08256,0 -2.25895,0.0413 -2.25895,0.52917 0,0.50625 0.17639,0.52917 4.07273,0.52917 3.46973,0 4.09651,0.062 4.23334,0.41851 0.0883,0.23018 0.1606,0.46831 0.1606,0.52917 0,0.0609 -0.77391,0.11065 -1.7198,0.11065 -1.5434,0 -1.71979,0.0543 -1.71979,0.52917 0,0.47877 -0.17639,0.52916 -1.85208,0.52916 -1.67569,0 -1.85208,0.0504 -1.85208,0.52917 0,0.5215 -0.17639,0.52917 -12.17084,0.52917 -11.994442,0 -12.170831,0.008 -12.170831,0.52916 0,0.43833 -0.176389,0.52917 -1.027475,0.52917 -0.804959,0 -1.057443,0.1146 -1.165855,0.52917 -0.134253,0.51338 -0.360896,0.52916 -7.599791,0.52916 -6.695128,0 -7.444917,-0.043 -7.300811,-0.41851 z m 29.264764,-6.14315 c 0,-0.37667 -0.62204,-0.84667 -1.12056,-0.84667 -0.26705,0 -0.80551,-0.20836 -1.19657,-0.46302 l -0.711,-0.46302 1.31563,-0.13229 1.31563,-0.1323 -0.96603,-0.46302 c -0.78018,-0.37394 -1.6895,-0.46302 -4.72648,-0.46302 -3.96353,0 -4.55032,0.14711 -6.580155,1.6496 l -0.630993,0.46707 h 1.135021 c 1.118267,0 1.127947,0.008 0.656133,0.52917 -0.47755,0.52768 -0.46213,0.52916 5.515244,0.52916 3.29677,0 5.99413,-0.0953 5.99413,-0.21166 z m -6.87917,-14.88067 c 1.8895,-0.2612 5.07359,-0.26171 6.74688,-0.001 0.89522,0.13944 -0.21678,0.20544 -3.43958,0.20415 -3.28084,-0.001 -4.30977,-0.0645 -3.3073,-0.20306 z"
       id="path4894" /><path
       style="fill:#ff1515;fill-opacity:1;stroke-width:0.264583"
       d="m 169.60506,192.77241 c 0,-0.34769 -1.70509,-0.39687 -13.75833,-0.39687 -12.92834,0 -13.7581,-0.0279 -13.75429,-0.46302 0.009,-1.06779 0.23315,-1.11132 6.09363,-1.18521 l 5.67628,-0.0716 -1.05834,-0.66146 -1.05833,-0.66146 9.72344,-0.0694 9.72344,-0.0694 v -0.79049 -0.79049 h -9.90386 -9.90386 l -0.5652,-0.79375 -0.5652,-0.79375 h 9.67531 9.67531 v -0.79375 -0.79375 h -12.7 c -6.98501,0 -12.70001,-0.0539 -12.70001,-0.11984 0,-0.46121 0.68358,-1.46766 0.99682,-1.46766 0.25895,0 0.32257,-0.14973 0.19673,-0.46302 -0.10229,-0.25466 -0.24893,-0.61733 -0.32586,-0.80592 -0.11362,-0.27851 1.71685,-0.31905 9.74882,-0.21594 5.43879,0.0698 10.65453,0.20603 11.59053,0.30268 1.03699,0.10707 2.30318,0.0481 3.24115,-0.15094 1.44159,-0.30593 1.53932,-0.37477 1.53932,-1.08426 0,-0.66122 0.0985,-0.7576 0.77455,-0.7576 0.52955,0 0.95592,-0.23014 1.34798,-0.72761 l 0.57344,-0.7276 -2.14174,-0.0768 -2.14173,-0.0768 v -0.78305 -0.78305 h 7.27604 7.27604 v 0.79375 0.79375 h 2.38125 c 1.30969,0 2.38125,0.0518 2.38125,0.11507 0,0.0633 -0.11611,0.42047 -0.25803,0.79375 -0.23401,0.61549 -0.39414,0.67868 -1.71979,0.67868 -1.44779,0 -1.46176,0.008 -1.46176,0.79375 v 0.79375 h 2.11667 c 1.16416,0 2.11666,0.0637 2.11666,0.1416 0,0.0779 -0.19228,0.43507 -0.4273,0.79375 l -0.42731,0.65215 h 2.01481 2.0148 v 0.79375 0.79375 h -4.36562 -4.36563 v 0.79375 c 0,0.43656 0.12717,0.79375 0.2826,0.79375 0.15543,0 0.0283,0.35719 -0.2826,0.79375 l -0.5652,0.79375 h 0.94406 c 0.87257,0 0.94406,0.0601 0.94406,0.79375 0,0.78101 -0.0223,0.79377 -1.38906,0.79488 -1.09962,7.9e-4 -1.63716,0.16606 -2.57969,0.79262 l -1.19063,0.79148 6.28386,0.001 6.28385,0.001 v 0.79375 0.79375 h -4.36562 c -3.70417,0 -4.36563,0.0601 -4.36563,0.39687 0,0.34316 -0.98483,0.39688 -7.27604,0.39688 -6.2912,0 -7.27604,-0.0537 -7.27604,-0.39688 z m -23.50545,-13.77078 c -0.16888,-0.37065 -0.30706,-0.72784 -0.30706,-0.79375 0,-0.0659 3.43043,-0.11984 7.62316,-0.11984 h 7.62317 l 0.58684,0.79375 0.58685,0.79375 h -7.90295 -7.90296 z m 2.86794,-3.29484 0.5652,-0.79375 h -3.41572 -3.41572 l -0.30646,-1.02289 c -0.54859,-1.83104 -0.44326,-2.15211 0.70605,-2.15211 0.97451,0 1.00813,-0.0298 0.89601,-0.79375 l -0.1165,-0.79375 h 7.40529 7.4053 l 0.15875,0.79375 0.15875,0.79375 h 8.44242 8.44242 l 0.15954,-0.59531 c 0.0877,-0.32743 0.16116,-0.68461 0.16315,-0.79375 0.002,-0.10914 -1.48467,-0.19844 -3.30368,-0.19844 h -3.30729 v -0.79375 -0.79375 h -7.19325 -7.19325 l 0.76046,-0.79375 0.76046,-0.79375 h 9.65729 9.65729 l -0.76046,0.79375 -0.76046,0.79375 h 4.812 4.812 v 0.79375 0.79375 h 3.43297 3.43297 l -0.15875,0.79375 c -0.15586,0.77932 -0.13891,0.79375 0.93266,0.79375 1.03628,0 1.0914,0.0401 1.0914,0.79375 0,0.43656 -0.11906,0.79375 -0.26458,0.79375 -0.14552,0 -0.26458,0.35719 -0.26458,0.79375 v 0.79375 h -7.69394 -7.69394 l 0.17433,-0.79375 0.17434,-0.79375 h -10.23834 -10.23834 l 0.15954,0.59531 c 0.0877,0.32742 0.16116,0.68461 0.16315,0.79375 0.002,0.10914 2.40714,0.19844 5.34478,0.19844 h 5.34117 l -0.76046,0.79375 -0.76046,0.79375 h -8.96435 -8.96436 z m 28.57501,-9.525 v -0.79375 h -17.72708 -17.72709 v -0.79375 c 0,-0.61736 0.11759,-0.79375 0.52916,-0.79375 0.41158,0 0.52917,-0.17639 0.52917,-0.79375 v -0.79375 h 7.54063 7.54063 v 0.79375 0.79375 h -1.75677 c -1.36283,0 -1.83559,0.10383 -2.10825,0.46302 -0.19332,0.25466 -0.35527,0.55232 -0.3599,0.66146 -0.005,0.10914 3.86111,0.19844 8.59054,0.19844 h 8.59896 v -0.66146 -0.66146 h 2.77813 2.77812 v -0.79375 -0.79375 h -3.57187 -3.57188 v -0.79375 -0.79375 h -3.2245 -3.2245 l 0.75438,-0.78741 0.75438,-0.7874 4.25606,-0.0725 4.25606,-0.0725 -1.45521,-0.72502 c -0.80037,-0.39876 -1.24685,-0.72619 -0.99219,-0.72761 0.3375,-0.002 0.46302,-0.21775 0.46302,-0.79633 v -0.79375 h 2.91042 2.91041 v -0.79375 -0.79375 h -3.70416 -3.70417 v -0.79375 c 0,-0.72222 0.079,-0.79375 0.87654,-0.79375 0.62855,0 1.09169,-0.22457 1.637,-0.79375 l 0.76046,-0.79375 h -5.50653 -5.50653 l 0.15875,-0.79375 0.15875,-0.79375 h -5.70113 -5.70114 l 0.57272,-0.72761 0.57272,-0.7276 -4.38997,-0.0725 -4.38998,-0.0726 v -0.78735 -0.78735 h 3.83646 3.83646 v -0.79375 -0.79375 h 4.91041 c 2.70072,0 4.8496,0.0984 4.77528,0.21864 -0.0743,0.12025 -0.61712,0.43598 -1.20624,0.70164 -0.94231,0.42492 -1.07111,0.58953 -1.07111,1.36886 v 0.88586 h 3.58989 3.58989 l -0.5652,0.79375 -0.5652,0.79375 h 3.4576 3.4576 v -0.79375 -0.79375 h 2.77813 2.77812 v -0.79375 -0.79375 h -3.57187 -3.57188 v -0.79375 -0.79375 h 3.81057 3.81058 l 0.2767,-0.79375 0.27671,-0.79375 h -2.6625 -2.6625 l 0.4273,-0.65215 c 0.58976,-0.90008 0.56596,-0.93535 -0.63103,-0.93535 -0.99953,0 -1.05833,-0.0441 -1.05833,-0.79375 v -0.79375 h 2.5444 c 2.50952,0 2.54221,-0.008 2.38486,-0.59531 -0.0877,-0.32742 -0.16116,-0.68461 -0.16315,-0.79375 -0.002,-0.10914 -3.79972,-0.19844 -8.43942,-0.19844 h -8.43581 l -0.15953,0.59531 c -0.0877,0.32742 -0.16117,0.68461 -0.16315,0.79375 -0.002,0.10914 2.6834,0.19844 5.96753,0.19844 h 5.97114 l -0.5652,0.79375 -0.5652,0.79375 h -6.627 -6.627 l 0.42731,-0.65215 c 0.23502,-0.35868 0.4273,-0.71587 0.4273,-0.79375 0,-0.0779 -2.99045,-0.1416 -6.64544,-0.1416 h -6.64545 l 0.15954,-0.59531 c 0.0877,-0.32742 0.16116,-0.68461 0.16315,-0.79375 0.002,-0.10914 1.4919,-0.19844 3.31091,-0.19844 h 3.30729 v -0.79375 -0.79375 h -3.39376 -3.39376 l 0.1165,-0.79375 c 0.0861,-0.58627 0.0109,-0.79375 -0.28753,-0.79375 -0.31151,0 -0.35949,-0.16661 -0.20955,-0.7276 l 0.19448,-0.72761 7.05377,-0.0705 7.05379,-0.0705 -0.25968,0.683 c -0.35382,0.93062 -0.36468,0.91313 0.56715,0.91313 0.77758,0 0.81737,0.0473 0.66807,0.79375 l -0.15875,0.79375 h 9.76009 9.76008 l -0.19358,-0.7276 c -0.18118,-0.68102 -0.29713,-0.73262 -1.81084,-0.8059 -1.55215,-0.0752 -1.62418,-0.10977 -1.78894,-0.8599 l -0.17166,-0.7816 h -6.347 -6.34699 l 0.5652,-0.79375 0.5652,-0.79375 h 5.55625 5.55625 l -0.5652,-0.79375 -0.5652,-0.79375 h -5.26573 -5.26573 l -0.58685,0.79375 -0.58684,0.79375 h -7.49087 c -4.11998,0 -7.49087,-0.0518 -7.49087,-0.11507 0,-0.0633 0.11611,-0.42047 0.25803,-0.79375 l 0.25804,-0.67868 h 7.33452 7.33451 l 1.05018,-0.7276 1.05018,-0.72761 -8.40501,-0.0699 c -7.31224,-0.0608 -8.38433,-0.12101 -8.24586,-0.46302 0.0875,-0.21622 0.23143,-0.57171 0.31976,-0.79 0.10309,-0.25475 0.008,-0.39687 -0.26459,-0.39687 -0.53139,0 -0.53112,-0.12152 0.002,-0.93535 l 0.42731,-0.65215 h 9.99331 9.99331 l 0.42731,-0.65215 c 0.23501,-0.35868 0.4273,-0.71587 0.4273,-0.79375 0,-0.0779 -3.9967,-0.1416 -8.88156,-0.1416 h -8.88156 l 0.5652,-0.79375 0.5652,-0.79375 h 9.05307 9.05306 l 0.46667,-0.79002 0.46668,-0.79001 -8.41328,-0.0699 -8.41327,-0.0699 1.32292,-0.71529 1.32291,-0.71528 -1.05833,-0.0326 -1.05833,-0.0326 1.5875,-0.77264 1.5875,-0.77264 7.57437,-8.3e-4 c 6.4093,-6.9e-4 7.62504,-0.0619 7.90375,-0.3977 0.49376,-0.59494 12.7,-0.59494 12.7,0 0,0.33696 -0.68905,0.39876 -4.56406,0.40936 l -4.56407,0.0125 1.45521,0.76879 c 0.86293,0.45588 1.88596,0.77638 2.51354,0.78745 0.62244,0.011 1.60321,0.31579 2.38125,0.74008 1.05169,0.57352 1.34083,0.87828 1.41026,1.48647 0.0491,0.42978 -0.0639,0.85847 -0.25766,0.97825 -0.26531,0.16398 -0.19845,0.36918 0.28952,0.88861 0.34898,0.37146 0.79234,0.67539 0.98525,0.67539 0.21334,0 0.35076,0.31097 0.35076,0.79375 0,0.52302 0.13305,0.79375 0.39008,0.79375 0.21455,0 0.57479,0.35719 0.80054,0.79375 0.38629,0.74699 0.50319,0.79375 1.98438,0.79375 1.48119,0 1.59809,0.0468 1.98437,0.79375 l 0.41047,0.79375 h -3.44638 -3.44638 v 0.79375 0.79375 h 2.12322 c 2.03568,0 2.13385,0.028 2.38125,0.67868 0.14192,0.37328 0.25803,0.73047 0.25803,0.79375 0,0.0633 -0.7739,0.11507 -1.71979,0.11507 h -1.71979 v 0.79375 0.79375 h 1.85208 1.85209 v 0.79375 0.79375 h 1.85208 1.85208 v 0.79375 0.79375 h -4.36562 -4.36563 v 0.79375 0.79375 h 3.30729 c 2.67866,0 3.3073,0.0713 3.3073,0.37523 0,0.20638 0.0723,0.56357 0.1606,0.79375 0.14022,0.36542 -0.19544,0.41852 -2.64584,0.41852 h -2.80643 v 0.79375 c 0,0.77611 0.0294,0.79375 1.32292,0.79375 0.7276,0 1.32291,0.0518 1.32291,0.11507 0,0.0633 -0.11611,0.42047 -0.25803,0.79375 l -0.25804,0.67868 h 2.48412 2.4841 l -0.19429,0.7276 -0.19429,0.72761 -4.01616,0.073 -4.01616,0.073 v 0.78686 0.78686 h 3.83646 3.83646 v 0.79375 0.79375 h -3.175 -3.175 v 0.79375 0.79375 l -1.78594,0.001 c -1.54045,0.001 -1.94959,0.10992 -2.97656,0.79262 l -1.19063,0.79148 4.96094,0.001 c 2.72852,5.3e-4 4.96094,0.0551 4.96094,0.12097 0,0.0659 -0.13817,0.4231 -0.30705,0.79375 -0.29533,0.64817 -0.39637,0.67391 -2.64584,0.67391 l -2.33878,1.5e-4 v 0.79375 0.79375 h 3.96875 3.96875 v 0.79375 0.79375 h -3.30729 -3.30729 v 0.79375 c 0,0.78444 0.0168,0.79375 1.436,0.79375 1.25113,0 1.50985,0.0937 2.00955,0.7276 l 0.57354,0.72761 -2.78057,0.13229 c -2.64683,0.12593 -2.80803,0.16728 -3.35166,0.85989 l -0.5711,0.72761 h 0.68066 c 0.5799,0 0.68066,0.1175 0.68066,0.79375 v 0.79375 h 3.83646 3.83646 v 0.79375 0.79375 h -3.175 -3.175 v 0.66146 0.66146 l 3.77031,0.004 c 2.26591,0.002 3.62406,0.0967 3.40377,0.23619 -0.24264,0.15367 -0.30801,0.46532 -0.19339,0.92199 l 0.17314,0.68986 h -7.54566 -7.54567 z m -16.49985,-8.33438 c 0.11203,-0.29192 0.54711,-0.39092 1.64535,-0.37437 l 1.49304,0.0225 -1.45521,0.36317 c -1.8517,0.46211 -1.8648,0.46202 -1.68318,-0.0113 z m -15.14829,-1.04902 c 0.23501,-0.35868 0.4273,-0.71587 0.4273,-0.79375 0,-0.0779 -0.77391,-0.1416 -1.71979,-0.1416 h -1.71979 v -0.79375 -0.79375 h 7.54062 7.54063 v 0.79375 c 0,0.73075 0.0735,0.79375 0.92605,0.79375 1.05746,0 1.08175,0.0455 0.49873,0.93535 l -0.4273,0.65215 h -6.74688 -6.74688 z"
       id="path676" /><path
       style="fill:#000000;stroke-width:0.264583"
       d="m 142.08125,193.93956 v -3.175 h 25.40001 25.4 v 3.175 3.175 h -25.4 -25.40001 z m 0,-7.9375 v -3.175 h 25.40001 25.4 v 3.175 3.175 h -25.4 -25.40001 z m 0,-7.9375 v -3.175 h 25.40001 25.4 v 3.175 3.175 h -25.4 -25.40001 z m 0,-7.9375 v -3.175 h 25.40001 25.4 v 3.175 3.175 h -25.4 -25.40001 z m 0,-7.9375 v -3.175 h 25.40001 25.4 v 3.175 3.175 h -25.4 -25.40001 z m 0,-7.9375 v -3.175 h 25.40001 25.4 v 3.175 3.175 h -25.4 -25.40001 z m 0,-7.9375 v -3.175 h 25.40001 25.4 v 3.175 3.175 h -25.4 -25.40001 z m 0,-7.9375 v -3.175 h 25.40001 25.4 v 3.175 3.175 h -25.4 -25.40001 z m 0,-7.9375 v -3.175 h 25.40001 25.4 v 3.175 3.175 h -25.4 -25.40001 z m 0,-7.9375 v -3.175 h 25.40001 25.4 v 3.175 3.175 h -25.4 -25.40001 z"
       id="path642" /><path
       style="fill:#000000;stroke-width:0.264583"
       d="m 79.6,196.84995 v -4.7625 h 25.4 25.4 v 4.7625 4.7625 H 105 79.6 Z m 0,-10.58333 v -4.7625 h 25.4 25.4 v 4.7625 4.76249 H 105 79.6 Z m 0,-10.58334 v -4.7625 h 25.4 25.4 v 4.7625 4.7625 H 105 79.6 Z m 0,-10.58333 v -4.7625 h 25.4 25.4 v 4.7625 4.7625 H 105 79.6 Z m 0,-10.58333 v -4.7625 h 25.4 25.4 v 4.7625 4.7625 H 105 79.6 Z m 0,-10.58334 v -4.7625 h 25.4 25.4 v 4.7625 4.7625 H 105 79.6 Z m 0,-10.58333 v -4.7625 h 25.4 25.4 v 4.7625 4.7625 H 105 79.6 Z m 0,-7.67292 v -1.85207 h 25.4 25.4 v 1.85207 1.85209 H 105 79.6 Z"
       id="path4892" /><path
       style="fill:#ff0101;fill-opacity:1;stroke-width:0.264583"
       d="m 36.568607,199.8987 c -1.872012,-0.27263 -2.372852,-0.44254 -1.461218,-0.49572 0.50787,-0.0296 0.385,-0.1257 -0.529167,-0.41375 -0.681461,-0.21472 -2.290262,-0.37688 -3.762008,-0.37917 -2.175938,-0.003 -2.547963,-0.0651 -2.419089,-0.4009 0.118708,-0.30934 0.656619,-0.39894 2.439092,-0.40625 2.116791,-0.009 2.237622,-0.0375 1.625338,-0.3875 -0.363802,-0.20796 -1.018645,-0.38656 -1.455208,-0.39687 -0.436562,-0.0103 -1.091406,-0.18891 -1.455208,-0.39688 -0.583399,-0.3335 0.39234,-0.37923 8.268229,-0.38749 7.756943,-0.008 8.929687,-0.0615 8.929687,-0.40626 0,-0.3457 -1.27522,-0.39687 -9.889478,-0.39687 -8.467868,0 -9.936826,-0.0571 -10.218855,-0.39688 -0.265771,-0.32023 -1.089528,-0.39687 -4.26573,-0.39687 -3.322592,0 -3.936353,-0.0619 -3.936353,-0.39688 0,-0.34753 1.660995,-0.39687 13.361458,-0.39687 11.700463,0 13.361458,-0.0493 13.361458,-0.39688 0,-0.3453 -1.216423,-0.39687 -9.360311,-0.39687 -7.997498,0 -9.408267,-0.0578 -9.689688,-0.39688 -0.208408,-0.25111 -0.792166,-0.39687 -1.589468,-0.39687 -1.047336,0 -1.332236,-0.11011 -1.687394,-0.65215 -0.235018,-0.35868 -0.427305,-0.71587 -0.427305,-0.79375 0,-0.0779 1.488281,-0.1416 3.307292,-0.1416 2.763425,0 3.307291,-0.0653 3.307291,-0.39688 0,-0.32502 -0.456594,-0.39687 -2.521845,-0.39687 -1.997565,0 -2.553507,-0.0825 -2.674141,-0.39688 -0.106019,-0.27628 -0.537071,-0.39687 -1.418597,-0.39687 -0.881526,0 -1.312578,-0.1206 -1.418597,-0.39688 -0.134098,-0.34945 1.398149,-0.39687 12.823384,-0.39687 12.218596,0 12.969984,-0.027 12.878044,-0.46302 -0.05518,-0.2617 0.137702,-0.60275 0.443621,-0.78437 0.437579,-0.2598 -0.421679,-0.32136 -4.485827,-0.32136 -4.489893,0 -4.956401,0.0404 -4.365625,0.37812 0.583003,0.33328 -0.441406,0.37924 -8.636797,0.3875 -8.026898,0.008 -9.319078,-0.0449 -9.45055,-0.3875 -0.113509,-0.29579 0.04053,-0.39687 0.604843,-0.39687 0.428937,0 0.823155,-0.17204 0.909434,-0.39688 0.132183,-0.34446 1.690812,-0.39687 11.802266,-0.39687 10.17914,0 11.64997,-0.0501 11.64997,-0.39688 0,-0.3175 0.396875,-0.39687 1.984375,-0.39687 1.124479,0 1.998708,-0.11465 2.017448,-0.26458 0.13462,-1.07696 0.44586,-1.32292 1.674027,-1.32292 0.775216,0 1.196041,-0.12857 1.298998,-0.39688 0.130463,-0.33998 1.237588,-0.39687 7.723272,-0.39687 5.938398,0 7.547525,0.0713 7.462218,0.33073 -0.05982,0.1819 -0.606015,0.36736 -1.213773,0.41214 -0.915683,0.0675 -1.173991,0.2148 -1.507585,0.8599 -0.397497,0.76867 -0.430814,0.77848 -2.644733,0.77848 -1.816645,0 -2.242164,0.0753 -2.242164,0.39687 0,0.33675 0.661458,0.39688 4.365625,0.39688 3.704167,0 4.365625,0.0601 4.365625,0.39687 0,0.3002 -0.324302,0.39688 -1.331219,0.39688 -0.939234,0 -1.376066,0.11686 -1.483516,0.39687 -0.118637,0.30916 -0.643112,0.39688 -2.372948,0.39688 -1.797523,0 -2.22065,0.0756 -2.22065,0.39687 0,0.30572 0.341677,0.39688 1.487604,0.39688 1.292317,0 1.444365,0.0521 1.158229,0.39687 -0.279175,0.33639 -0.218683,0.39688 0.396875,0.39688 0.613119,0 0.675328,0.0614 0.399344,0.3939 -0.277718,0.33463 -1.921481,0.4043 -10.924466,0.46302 -8.19313,0.0534 -10.622561,0.14416 -10.707747,0.39985 -0.08691,0.26087 2.100394,0.33073 10.3546,0.33073 9.193331,0 10.446284,0.0482 10.312492,0.39687 -0.111027,0.28934 -0.566015,0.39688 -1.679091,0.39688 -1.034375,0 -1.633027,0.128 -1.856173,0.39687 -0.264541,0.31876 -0.260501,0.39688 0.02053,0.39688 0.27214,0 0.279339,0.0706 0.0324,0.3175 -0.174625,0.17462 -0.3175,0.53181 -0.3175,0.79375 0,0.43937 0.338079,0.47625 4.365625,0.47625 3.704166,0 4.365625,0.0601 4.365625,0.39687 0,0.3375 -0.685237,0.39688 -4.579639,0.39688 -3.617105,0 -4.687583,0.0816 -5.093229,0.38846 -0.472874,0.35766 -0.403466,0.38913 0.875472,0.39688 1.054595,0.006 1.389062,0.10397 1.389062,0.40528 0,0.32636 -0.481885,0.39855 -2.711979,0.40626 -1.850879,0.006 -2.922002,0.12943 -3.373437,0.38749 -0.657974,0.37614 -0.655966,0.37818 0.381299,0.3875 0.974362,0.009 1.00907,0.0349 0.529166,0.39784 -0.418025,0.31618 -1.707462,0.39003 -6.929736,0.39688 -5.523122,0.007 -6.416156,0.0636 -6.416156,0.40528 0,0.33882 0.764456,0.39933 5.225521,0.41365 3.978417,0.0128 5.067659,0.0848 4.564062,0.3018 -0.363802,0.15677 -1.911615,0.37959 -3.439583,0.49515 -1.527969,0.11556 -3.552031,0.33455 -4.497917,0.48663 -2.01013,0.32319 -5.551123,0.3197 -7.799198,-0.008 z M 21.444736,184.71541 c -0.08495,-0.22136 -0.478275,-0.39687 -0.88943,-0.39687 -0.411156,0 -0.804484,-0.17551 -0.889431,-0.39688 -0.08376,-0.21828 -0.334625,-0.39687 -0.557474,-0.39687 -0.222848,0 -0.405179,-0.17859 -0.405179,-0.39688 0,-0.34075 0.823148,-0.39687 5.820834,-0.39687 4.997685,0 5.820833,-0.0561 5.820833,-0.39688 0,-0.33887 -0.735877,-0.39687 -5.035387,-0.39687 -4.231824,0 -5.059691,-0.0633 -5.187683,-0.39688 -0.09825,-0.25604 -0.507631,-0.39687 -1.153638,-0.39687 -0.821693,0 -1.028508,-0.10824 -1.152759,-0.60329 -0.08328,-0.33181 -0.0823,-0.86759 0.0022,-1.19063 0.151179,-0.5781 0.225339,-0.58733 4.720545,-0.58733 3.736734,0 4.626829,-0.0721 4.896329,-0.39688 0.280558,-0.33805 1.618695,-0.39687 9.02823,-0.39687 7.555925,0 8.698853,-0.0521 8.698853,-0.39688 0,-0.33161 0.543867,-0.39687 3.307292,-0.39687 2.763424,0 3.307291,-0.0653 3.307291,-0.39688 0,-0.21828 0.119063,-0.39687 0.264584,-0.39687 0.14552,0 0.264583,-0.17859 0.264583,-0.39688 0,-0.24694 0.249883,-0.39687 0.661458,-0.39687 0.411576,0 0.661459,-0.14993 0.661459,-0.39688 0,-0.34297 0.970139,-0.39687 7.143749,-0.39687 6.173611,0 7.14375,0.0539 7.14375,0.39687 0,0.21829 -0.178593,0.39688 -0.396875,0.39688 -0.218281,0 -0.396875,0.1177 -0.396875,0.26156 0,0.14386 -0.205054,0.50104 -0.455676,0.79375 -0.410612,0.47956 -0.776941,0.53219 -3.704166,0.53219 -2.711159,0 -3.248491,0.0656 -3.248491,0.39687 0,0.34215 -0.907743,0.39688 -6.582187,0.39688 -5.528054,0 -6.634935,0.0636 -6.911563,0.39687 -0.277301,0.33413 -1.415356,0.39688 -7.198195,0.39688 -5.377429,0 -6.844895,0.0718 -6.758637,0.33073 0.08508,0.25537 2.442766,0.34651 10.347908,0.39999 8.934331,0.0604 10.257266,0.0183 10.391216,-0.33073 0.131959,-0.34388 1.202955,-0.39999 7.634949,-0.39999 h 7.481459 l 0.159536,0.59531 c 0.233553,0.8715 0.217659,0.91716 -0.372967,1.07161 -0.430763,0.11265 -0.505098,0.27913 -0.368192,0.82461 l 0.17154,0.68347 h -7.296422 c -6.377004,0 -7.27723,-0.05 -7.144126,-0.39688 0.107114,-0.27913 -0.02148,-0.39687 -0.433485,-0.39687 -0.411994,0 -0.5406,-0.11775 -0.433486,-0.39688 0.133702,-0.34842 -1.056992,-0.39687 -9.752972,-0.39687 -8.69598,0 -9.886675,0.0485 -9.752972,0.39687 0.10362,0.27003 0.52644,0.39688 1.322916,0.39688 0.796477,0 1.219297,0.12685 1.322917,0.39687 0.126534,0.32975 0.863596,0.39688 4.357321,0.39688 3.561412,0 4.205026,0.0608 4.205026,0.39687 0,0.33886 -0.734954,0.39688 -5.027083,0.39688 -2.764896,0 -5.027084,0.0518 -5.027084,0.11507 0,0.0633 0.113408,0.41335 0.252018,0.77792 0.205438,0.54034 0.458371,0.67801 1.368499,0.74483 0.614064,0.0451 1.165422,0.2308 1.225239,0.4127 0.08534,0.2595 -1.55028,0.33073 -7.594511,0.33073 -6.603274,0 -7.725016,-0.0567 -7.855564,-0.39688 z m -1.947764,-7.9375 c 0,-0.34332 0.999537,-0.39687 7.408333,-0.39687 6.408797,0 7.408334,0.0536 7.408334,0.39687 0,0.34333 -0.999537,0.39688 -7.408334,0.39688 -6.408796,0 -7.408333,-0.0536 -7.408333,-0.39688 z m -1.322916,-1.5875 c 0,-0.34275 0.952294,-0.39687 6.98315,-0.39687 5.96317,0 7.005396,-0.058 7.135446,-0.39688 0.13301,-0.34661 -0.734535,-0.39687 -6.850859,-0.39687 -6.048637,0 -7.003154,-0.0541 -7.003154,-0.39688 0,-0.34381 1.043634,-0.39687 7.805208,-0.39687 6.761574,0 7.805208,0.0531 7.805208,0.39687 0,0.34132 0.854996,0.39688 6.107465,0.39688 4.768312,0 6.083321,0.0725 5.99735,0.33073 -0.08345,0.25064 -1.75464,0.34783 -6.901215,0.40134 -5.794046,0.0602 -6.7911,0.12823 -6.7911,0.46302 0,0.33714 -1.00628,0.39241 -7.143749,0.39241 -6.173611,0 -7.14375,-0.0539 -7.14375,-0.39688 z m 35.983332,-1.5875 c 0,-0.21828 -0.119062,-0.39687 -0.264583,-0.39687 -0.145521,0 -0.264583,-0.17859 -0.264583,-0.39688 0,-0.34888 -2.175463,-0.39687 -17.991667,-0.39687 -15.816203,0 -17.991666,-0.048 -17.991666,-0.39688 0,-0.3488 2.131366,-0.39687 17.594791,-0.39687 15.463425,0 17.594792,-0.0481 17.594792,-0.39688 0,-0.345 -1.201714,-0.39797 -9.194271,-0.40528 -8.142147,-0.007 -9.135499,-0.0529 -8.68068,-0.39688 0.408154,-0.30871 1.50807,-0.38846 5.357812,-0.38846 4.129585,0 4.844222,-0.0585 4.844222,-0.39688 0,-0.33317 0.573265,-0.39687 3.571875,-0.39687 2.99861,0 3.571875,-0.0637 3.571875,-0.39688 0,-0.22048 0.235185,-0.39687 0.529167,-0.39687 0.293981,0 0.529166,-0.17639 0.529166,-0.39688 0,-0.21828 -0.223546,-0.39687 -0.496771,-0.39687 -0.273222,0 -0.644988,0.17859 -0.826145,0.39687 -0.280919,0.33849 -1.648093,0.39688 -9.292814,0.39688 -7.79111,0 -8.963436,0.0519 -8.963436,0.39687 0,0.3435 -1.014236,0.39688 -7.540625,0.39688 -6.526389,0 -7.540625,-0.0534 -7.540625,-0.39688 0,-0.33468 0.606262,-0.39687 3.868855,-0.39687 3.408984,0 3.829704,-0.0472 3.539479,-0.39688 -0.254368,-0.30649 -0.959687,-0.39687 -3.097154,-0.39687 -2.096567,0 -2.74107,-0.0802 -2.65765,-0.33073 0.0837,-0.25137 1.828454,-0.34761 7.271396,-0.40108 6.042606,-0.0594 7.184807,-0.13169 7.311951,-0.46302 0.131345,-0.34228 -0.968741,-0.39267 -8.572264,-0.39267 -7.577341,0 -8.722946,-0.0521 -8.722946,-0.39688 0,-0.34498 1.175003,-0.39687 8.987529,-0.39687 7.880213,0 8.968766,0.0489 8.835234,0.39687 -0.132927,0.34641 0.708283,0.39688 6.614583,0.39688 5.9063,0 6.747511,0.0505 6.614585,0.39687 -0.129585,0.3377 -1.109882,0.39688 -6.573884,0.39688 -5.385299,0 -6.474741,0.064 -6.750964,0.39687 -0.291523,0.35127 0.574612,0.39688 7.536535,0.39688 6.883219,0 7.846887,-0.0496 7.713617,-0.39688 -0.133205,-0.34712 0.804886,-0.39687 7.484012,-0.39687 6.543749,0 7.658094,0.0568 7.7886,0.39687 0.100523,0.26197 0.514884,0.39688 1.218933,0.39688 0.771731,0 1.066636,0.10973 1.066636,0.39687 0,0.21829 -0.178594,0.39688 -0.396875,0.39688 -0.218282,0 -0.396875,0.17859 -0.396875,0.39687 0,0.33454 -0.602663,0.39688 -3.836459,0.39688 -3.233795,0 -3.836458,0.0623 -3.836458,0.39687 0,0.32298 -0.437372,0.39688 -2.348854,0.39688 -1.765088,0 -2.430711,0.0986 -2.678229,0.39687 -0.291264,0.35096 0.424476,0.39688 6.185313,0.39688 6.16191,0 6.543341,0.0286 7.043853,0.52917 0.352777,0.35277 0.529167,0.88194 0.529167,1.5875 v 1.05833 h -7.14375 c -6.17361,0 -7.14375,-0.0539 -7.14375,-0.39688 z m -1.852083,-8.33437 -0.328782,-0.79375 h -2.613734 c -2.025028,0 -2.613734,-0.0809 -2.613734,-0.35918 0,-0.52135 -2.467168,-0.71574 -6.584521,-0.51879 -3.11859,0.14917 -3.469645,0.12167 -3.469645,-0.27178 0,-0.38271 0.395162,-0.43775 3.142603,-0.43775 2.470646,0 3.213031,-0.0849 3.47198,-0.39688 0.181157,-0.21828 0.671986,-0.39687 1.090729,-0.39687 0.500369,0 0.761354,-0.13604 0.761354,-0.39688 0,-0.33387 0.587962,-0.39687 3.704167,-0.39687 3.116204,0 3.704166,-0.063 3.704166,-0.39687 0,-0.324 -0.44659,-0.39688 -2.431819,-0.39688 -2.195023,0 -2.381809,-0.0378 -1.91823,-0.38846 0.456102,-0.34498 -0.223017,-0.3894 -6.067243,-0.39688 -5.820236,-0.007 -6.542766,0.0375 -6.251457,0.38847 0.285488,0.34399 0.148787,0.39687 -1.025937,0.39687 -1.028334,0 -1.355313,0.0958 -1.355313,0.39688 0,0.34349 -1.014236,0.39687 -7.540625,0.39687 -6.526389,0 -7.540625,-0.0534 -7.540625,-0.39687 0,-0.2765 0.27836,-0.39688 0.917738,-0.39688 0.707065,0 0.882777,-0.0911 0.765442,-0.39687 -0.130874,-0.34106 0.365247,-0.39688 3.527262,-0.39688 2.591272,0 3.777152,-0.0978 4.009531,-0.33073 0.23094,-0.23147 1.84835,-0.37043 5.389166,-0.46302 3.71558,-0.0972 5.088343,-0.22013 5.168951,-0.46302 0.08655,-0.26081 -2.076255,-0.33073 -10.231042,-0.33073 -9.015432,0 -10.340798,-0.0509 -10.340798,-0.39687 0,-0.29987 0.32338,-0.39688 1.322917,-0.39688 0.999537,0 1.322916,-0.097 1.322916,-0.39687 0,-0.32729 0.48147,-0.39688 2.745728,-0.39688 2.117869,0 2.821047,-0.0907 3.075106,-0.39687 0.273982,-0.33013 1.280616,-0.39688 5.985521,-0.39688 4.851295,0 5.656145,-0.0565 5.656145,-0.39687 0,-0.3417 0.878345,-0.39688 6.317603,-0.39688 5.292869,0 6.37103,-0.0644 6.64698,-0.39687 0.289422,-0.34874 -0.0276,-0.39688 -2.613438,-0.39688 -2.439445,0 -2.942812,-0.0679 -2.942812,-0.39687 0,-0.33335 0.576694,-0.39688 3.602733,-0.39688 h 3.602734 l -0.159536,-0.59531 c -0.08775,-0.32742 -0.161166,-0.68461 -0.163153,-0.79375 -0.0021,-0.10914 -1.224002,-0.20266 -2.71559,-0.20782 -2.485509,-0.009 -2.656743,-0.0409 -2.050521,-0.38749 0.604395,-0.34551 0.413649,-0.37894 -2.21112,-0.3875 -2.386833,-0.008 -2.847895,-0.0737 -2.726609,-0.38977 0.09474,-0.24688 -0.05784,-0.41426 -0.434714,-0.47688 -0.319375,-0.0531 0.193224,-0.22391 1.139109,-0.37964 1.624299,-0.26744 1.484734,-0.28623 -2.513541,-0.33837 -3.82383,-0.0499 -4.156552,-0.0904 -3.439583,-0.41865 l 0.79375,-0.36345 -1.12448,-0.0119 c -0.828451,-0.009 -1.124479,0.0925 -1.124479,0.38494 0,0.29398 -0.30868,0.39687 -1.190625,0.39687 -0.881944,0 -1.190625,0.10289 -1.190625,0.39688 0,0.34332 -0.999537,0.39687 -7.408333,0.39687 -6.408796,0 -7.408333,-0.0536 -7.408333,-0.39687 0,-0.31208 0.367477,-0.39688 1.719792,-0.39688 1.352314,0 1.719791,-0.0848 1.719791,-0.39687 0,-0.33811 0.706478,-0.39688 4.770804,-0.39688 3.996639,0 4.795517,-0.0644 4.923099,-0.39687 0.129867,-0.33843 1.146478,-0.39688 6.90326,-0.39688 5.970859,0 6.712904,0.0459 6.421587,0.39688 -0.283721,0.34186 -0.178186,0.39687 0.761354,0.39687 0.793147,0 1.090729,-0.10828 1.090729,-0.39687 0,-0.29255 0.305536,-0.39688 1.162317,-0.39688 0.789096,0 1.21122,-0.12744 1.314614,-0.39687 0.118904,-0.30987 0.647176,-0.39688 2.409558,-0.39688 1.830065,0 2.257261,-0.0751 2.257261,-0.39687 0,-0.33675 -0.661458,-0.39688 -4.365625,-0.39688 -3.704167,0 -4.365625,-0.0601 -4.365625,-0.39687 0,-0.33073 0.529167,-0.39688 3.175,-0.39688 3.341838,0 3.351554,-0.004 3.199331,-1.23682 -0.02109,-0.17093 0.08385,-0.38631 0.233236,-0.47863 0.744714,-0.46026 0.04261,-0.6658 -2.274338,-0.6658 -2.233059,0 -2.505461,-0.0488 -2.216562,-0.39687 0.2521,-0.30377 0.942538,-0.39688 2.942812,-0.39688 2.146668,0 2.613438,-0.0709 2.613438,-0.39687 0,-0.34266 0.858549,-0.39195 6.283854,-0.36078 l 6.283854,0.0361 -2.645834,0.32154 c -1.455208,0.17684 -2.381678,0.33919 -2.058823,0.36077 0.405323,0.0271 0.539872,0.16207 0.434713,0.43611 -0.128106,0.33383 0.209436,0.39687 2.124969,0.39687 1.847848,0 2.277266,0.0748 2.277266,0.39688 0,0.24694 0.249883,0.39687 0.661459,0.39687 0.411575,0 0.661458,0.14993 0.661458,0.39688 0,0.21828 -0.119062,0.39687 -0.264583,0.39687 -0.145521,0 -0.264584,0.17859 -0.264584,0.39688 0,0.33161 -0.543867,0.39687 -3.307291,0.39687 -2.763425,0 -3.307292,0.0653 -3.307292,0.39688 0,0.33674 0.661458,0.39687 4.365625,0.39687 3.704167,0 4.365625,0.0601 4.365625,0.39688 0,0.32165 -0.426273,0.39687 -2.248958,0.39687 -1.822686,0 -2.248959,0.0752 -2.248959,0.39688 0,0.30467 -0.338079,0.39687 -1.455208,0.39687 -1.117129,0 -1.455208,0.0922 -1.455208,0.39688 0,0.33365 -0.600618,0.39877 -3.770313,0.4088 -3.411497,0.0108 -3.694773,0.0465 -2.976562,0.37539 0.724977,0.33196 0.484267,0.36838 -2.778125,0.42029 -2.985357,0.0475 -3.354647,0.0947 -2.248958,0.28755 0.727604,0.12689 2.593382,0.30448 4.146174,0.39464 2.241058,0.13014 2.794473,0.23895 2.683671,0.5277 -0.114249,0.29773 0.519737,0.36375 3.492995,0.36375 3.198958,0 3.593261,0.0474 3.303201,0.39688 -0.289052,0.34828 -0.0049,0.39687 2.320547,0.39687 2.111409,0 2.680872,0.0806 2.802218,0.39688 0.09277,0.24175 5.29e-4,0.39687 -0.236276,0.39687 -0.213714,0 -0.388572,0.17859 -0.388572,0.39688 0,0.33453 -0.602663,0.39687 -3.836459,0.39687 -3.233795,0 -3.836458,0.0623 -3.836458,0.39688 0,0.33255 0.561015,0.39687 3.461631,0.39687 2.651559,0 3.435903,0.0774 3.351681,0.33073 -0.08026,0.24142 -1.222055,0.35037 -4.228446,0.40346 -3.241398,0.0572 -4.187479,0.15584 -4.442413,0.46302 -0.27995,0.33732 -0.08609,0.39029 1.428277,0.39029 1.381111,0 1.752187,0.084 1.752187,0.39688 0,0.30371 0.334933,0.39687 1.4269,0.39687 1.024282,0 1.469875,0.11199 1.579198,0.39688 0.109701,0.28587 -0.02806,0.39687 -0.492557,0.39687 -0.464497,0 -0.602257,0.111 -0.492556,0.39688 0.132395,0.34501 -0.573767,0.39687 -5.403953,0.39687 -4.694814,0 -5.579861,0.0615 -5.708547,0.39688 -0.129823,0.33832 0.287946,0.39687 2.831542,0.39687 2.213975,0 3.116345,0.10023 3.497424,0.38846 0.406969,0.30781 1.516028,0.39021 5.342236,0.39688 4.112001,0.007 4.828646,0.0673 4.828646,0.40529 0,0.21828 -0.178594,0.39687 -0.396875,0.39687 -0.218281,0 -0.396875,0.17859 -0.396875,0.39688 0,0.33513 -0.61736,0.39687 -3.96875,0.39687 -3.35139,0 -3.96875,0.0617 -3.96875,0.39687 0,0.29357 0.307758,0.39688 1.182323,0.39688 0.942247,0 1.151395,0.0806 1.030025,0.39687 -0.114517,0.29843 0.0446,0.39688 0.641453,0.39688 0.461481,0 0.857502,0.16613 0.946047,0.39687 0.12278,0.31997 -0.102476,0.39688 -1.162317,0.39688 -0.992156,0 -1.314614,0.0974 -1.314614,0.39687 0,0.33162 0.543867,0.39688 3.307291,0.39688 2.763425,0 3.307292,0.0653 3.307292,0.39687 0,0.21829 -0.1318,0.39688 -0.292891,0.39688 -0.161089,0 -0.224359,0.17859 -0.140594,0.39687 0.133125,0.34693 -0.775068,0.39688 -7.215635,0.39688 h -7.367931 z m -5.55625,-9.12812 c 0,-0.33224 -0.554966,-0.39688 -3.407186,-0.39688 -2.705832,0 -3.474988,0.0817 -3.736564,0.39688 -0.290135,0.34959 0.115796,0.39687 3.407187,0.39687 3.145,0 3.736563,-0.0628 3.736563,-0.39687 z M 20.7225,164.08237 c 0.132075,-0.34419 1.113793,-0.40133 6.89462,-0.40133 5.274832,0 6.716671,0.0719 6.630501,0.33073 -0.08345,0.25063 -1.753314,0.34783 -6.89462,0.40133 -5.974193,0.0622 -6.766112,0.0227 -6.630501,-0.33073 z m 5.653639,-10.3232 c 0,-0.33454 -0.602662,-0.39688 -3.836458,-0.39688 -3.233797,0 -3.836459,-0.0623 -3.836459,-0.39687 0,-0.21829 -0.178593,-0.39688 -0.396875,-0.39688 -0.218281,0 -0.396875,-0.17859 -0.396875,-0.39687 0,-0.32373 0.444118,-0.39688 2.409558,-0.39688 2.033126,0 2.385765,-0.062 2.257262,-0.39687 -0.133245,-0.34724 0.798163,-0.39571 7.446172,-0.3875 6.088673,0.008 7.729896,0.0845 8.259925,0.3875 0.599814,0.34288 0.347074,0.37899 -2.71198,0.38749 -2.818055,0.008 -3.373437,0.0747 -3.373437,0.40626 0,0.26458 0.264583,0.39687 0.79375,0.39687 0.529167,0 0.79375,0.13229 0.79375,0.39688 0,0.27444 -0.275692,0.39687 -0.89373,0.39687 -0.491551,0 -1.321164,0.17859 -1.843585,0.39688 -0.538749,0.2251 -1.755134,0.39687 -2.810437,0.39687 -1.477461,0 -1.860581,-0.0817 -1.860581,-0.39687 z m 2.913092,-7.11566 c -2.293521,-0.24186 -2.790769,-0.37308 -2.863671,-0.7557 -0.07839,-0.4114 -0.454785,-0.46302 -3.376113,-0.46302 -2.746181,0 -3.287891,-0.0654 -3.287891,-0.39687 0,-0.27719 -0.279283,-0.39688 -0.926042,-0.39688 -0.646759,0 -0.926042,-0.11969 -0.926042,-0.39687 0,-0.28664 0.293982,-0.39688 1.058334,-0.39688 0.764351,0 1.058333,-0.11024 1.058333,-0.39687 0,-0.34261 0.940741,-0.39688 6.879166,-0.39688 5.938426,0 6.879167,0.0543 6.879167,0.39688 0,0.26458 -0.264583,0.39687 -0.79375,0.39687 -0.529167,0 -0.79375,0.13229 -0.79375,0.39688 0,0.29398 0.308681,0.39687 1.190625,0.39687 0.881944,0 1.190625,0.10289 1.190625,0.39688 0,0.33823 0.711174,0.39687 4.81307,0.39687 4.288765,0 4.757123,0.0423 4.299479,0.38846 -0.405709,0.30686 -1.500083,0.39023 -5.209945,0.39688 -3.994408,0.007 -4.696354,0.0677 -4.696354,0.40529 0,0.45874 -0.388395,0.46117 -4.495241,0.0281 z m -9.198198,-4.72445 c 0.06449,-0.19569 0.694027,-0.36429 1.541877,-0.41294 0.901215,-0.0517 1.51196,-0.22351 1.645996,-0.46302 0.17651,-0.31541 1.341296,-0.38081 6.78215,-0.38081 5.516367,0 6.621821,-0.0636 6.898416,-0.39687 0.275929,-0.33248 1.353189,-0.39688 6.638676,-0.39688 5.499563,0 6.289754,-0.0509 6.157005,-0.39687 -0.12341,-0.3216 0.110141,-0.39688 1.231326,-0.39688 1.199885,0 1.339882,-0.0527 1.054243,-0.39687 -0.278805,-0.33594 -1.497502,-0.39688 -7.9375,-0.39688 -6.439997,0 -7.658695,0.0609 -7.9375,0.39688 -0.186211,0.22437 -0.763003,0.39687 -1.327006,0.39687 -0.642706,0 -1.051811,0.1412 -1.149924,0.39688 -0.130079,0.33897 -1.176345,0.39687 -7.172058,0.39687 -6.063399,0 -7.019762,-0.0541 -7.019762,-0.39687 0,-0.22049 0.235185,-0.39688 0.529167,-0.39688 0.293981,0 0.529167,-0.17639 0.529167,-0.39687 0,-0.34268 0.966529,-0.39803 7.077604,-0.40529 5.803938,-0.007 7.170028,-0.0783 7.591194,-0.39688 0.455774,-0.34473 -0.269695,-0.38846 -6.444453,-0.38846 -6.076226,0 -6.938743,-0.0503 -6.805749,-0.39687 0.121273,-0.31604 -0.08685,-0.39688 -1.021721,-0.39688 -0.89818,0 -1.140586,-0.0871 -1.031727,-0.3708 0.07826,-0.20394 0.372179,-0.43092 0.653154,-0.5044 1.064932,-0.27848 0.489796,-0.7123 -0.944344,-0.7123 -1.11713,0 -1.455208,-0.0922 -1.455208,-0.39687 0,-0.326 0.46677,-0.39688 2.613436,-0.39688 2.000276,0 2.690715,-0.0931 2.942814,-0.39687 0.181157,-0.21829 0.493392,-0.39688 0.693855,-0.39688 0.200463,0 0.364478,-0.17699 0.364478,-0.39331 0,-0.33871 1.21807,-0.40298 8.775428,-0.46302 6.734882,-0.0535 8.801044,-0.14662 8.88559,-0.40044 0.08683,-0.26068 -2.002738,-0.33073 -9.866158,-0.33073 -8.837841,0 -9.938733,-0.0453 -9.646943,-0.39687 0.181157,-0.21829 0.597876,-0.39688 0.926041,-0.39688 0.328166,0 0.744885,-0.17859 0.926042,-0.39687 0.281382,-0.33905 1.688591,-0.39688 9.657291,-0.39688 7.968701,0 9.37591,-0.0578 9.657292,-0.39687 0.29169,-0.35147 -0.707359,-0.39688 -8.73125,-0.39688 -8.023891,0 -9.022939,-0.0454 -8.73125,-0.39687 0.280634,-0.33815 0.208988,-0.39688 -0.484136,-0.39688 h -0.813513 l 0.674786,-0.7276 0.674787,-0.72761 -4.259295,-0.0727 c -3.545011,-0.0605 -4.259295,-0.13815 -4.259295,-0.46302 0,-0.33327 0.9571,-0.39169 6.548437,-0.39969 5.178284,-0.007 6.686837,-0.0885 7.209896,-0.3875 0.602052,-0.34417 0.382248,-0.37897 -2.447396,-0.3875 -2.58287,-0.008 -3.108854,-0.0765 -3.108854,-0.40626 0,-0.34614 1.348715,-0.39687 10.550936,-0.39687 9.055831,0 10.597611,-0.0562 10.880313,-0.39688 0.291407,-0.35112 -0.535995,-0.39891 -7.177498,-0.41457 -6.878168,-0.0162 -7.40716,-0.0491 -6.316251,-0.39286 1.748381,-0.55091 14.207431,-0.5425 16.031387,0.0108 0.938776,0.28479 2.600695,0.3948 5.995175,0.39687 3.996875,0.002 4.696354,0.062 4.696354,0.39974 0,0.31971 0.411575,0.39688 2.116666,0.39688 1.705092,0 2.116667,0.0772 2.116667,0.39687 0,0.33477 -0.60828,0.39688 -3.887028,0.39688 -3.474532,0 -3.832524,0.0412 -3.373437,0.38846 0.405709,0.30686 1.500084,0.39023 5.209944,0.39688 3.994409,0.007 4.696354,0.0677 4.696354,0.40529 0,0.33732 -0.679757,0.39687 -4.530312,0.39687 -3.996946,0 -4.491535,0.0467 -4.200937,0.39688 0.28127,0.33891 0.203983,0.39687 -0.529167,0.39687 -0.73315,0 -0.810437,0.058 -0.529167,0.39688 0.181158,0.21828 0.483412,0.39687 0.671679,0.39687 0.188265,0 0.500407,0.35719 0.693648,0.79375 0.339447,0.76686 0.410805,0.79375 2.106448,0.79375 1.237308,0 1.852271,0.11709 2.084475,0.39688 0.285639,0.34417 0.145643,0.39687 -1.054243,0.39687 -1.121185,0 -1.354735,0.0753 -1.231326,0.39688 0.08376,0.21828 0.03697,0.39687 -0.103983,0.39687 -0.140955,0 -0.256281,0.17859 -0.256281,0.39688 0,0.3197 0.411575,0.39687 2.116666,0.39687 1.649754,0 2.116667,0.0827 2.116667,0.37483 0,0.20615 -0.140142,0.42154 -0.311428,0.47863 -0.171286,0.0571 -0.22379,0.24561 -0.116676,0.41893 0.112893,0.18266 0.813454,0.31511 1.66674,0.31511 1.278438,0 1.428682,0.0522 1.142614,0.39688 -0.219514,0.26449 -0.81339,0.39687 -1.780495,0.39687 -1.181182,0 -1.422789,0.0738 -1.298824,0.39688 0.08859,0.23086 0.0043,0.39687 -0.20157,0.39687 -0.237331,0 -0.323432,0.26139 -0.261448,0.79375 l 0.09242,0.79375 H 61.95743 c -1.818092,0 -2.243791,0.0753 -2.243791,0.39688 0,0.3357 0.632061,0.39687 4.101042,0.39687 3.468981,0 4.101041,0.0612 4.101041,0.39688 0,0.30868 -0.352777,0.39687 -1.5875,0.39687 -1.234723,0 -1.5875,0.0882 -1.5875,0.39688 0,0.31498 -0.382174,0.39687 -1.852083,0.39687 -1.469908,0 -1.852083,0.0819 -1.852083,0.39688 0,0.34696 -1.514004,0.39687 -12.038542,0.39687 -10.524537,0 -12.038541,0.0499 -12.038541,0.39688 0,0.27479 -0.276137,0.39687 -0.897734,0.39687 -0.55391,0 -0.956062,0.152 -1.05003,0.39688 -0.130376,0.33975 -1.222891,0.39687 -7.590981,0.39687 -5.832688,0 -7.415154,-0.0714 -7.329694,-0.33073 z m 28.510105,-4.82864 c -0.181157,-0.21829 -0.582689,-0.40067 -0.892291,-0.40529 -0.309605,-0.005 -0.794033,-0.18323 -1.076508,-0.39688 -0.474191,-0.35866 -0.413303,-0.3891 0.79375,-0.39687 1.207053,-0.008 1.267942,-0.0382 0.79375,-0.39688 -0.408162,-0.30872 -1.508164,-0.38846 -5.358592,-0.38846 h -4.845003 l -1.25599,0.78872 -1.25599,0.78873 1.156876,0.005 c 0.998064,0.004 1.11166,0.0595 0.827499,0.40191 -0.291101,0.35075 0.35458,0.39687 5.556249,0.39687 5.201669,0 5.84735,-0.0461 5.55625,-0.39687 z"
       id="path7114" /><path
       style="fill:#000000;stroke-width:0.264583"
       d="m 17.761604,199.12677 v -3.57187 h 25.4 25.400002 v 3.57187 3.57187 h -25.400002 -25.4 z m 0,-7.9375 v -3.57187 h 25.4 25.400002 v 3.57187 3.57188 h -25.400002 -25.4 z m 0,-7.9375 v -3.57187 h 25.4 25.400002 v 3.57187 3.57188 h -25.400002 -25.4 z m 0,-7.9375 v -3.57187 h 25.4 25.400002 v 3.57187 3.57188 h -25.400002 -25.4 z m 0,-7.9375 v -3.57187 h 25.4 25.400002 v 3.57187 3.57188 h -25.400002 -25.4 z m 0,-7.9375 v -3.57187 h 25.4 25.400002 v 3.57187 3.57188 h -25.400002 -25.4 z m 0,-7.9375 v -3.57187 h 25.4 25.400002 v 3.57187 3.57188 h -25.400002 -25.4 z m 0,-7.93749 v -3.57188 h 25.4 25.400002 v 3.57188 3.57187 h -25.400002 -25.4 z m 0,-7.9375 v -3.57188 h 25.4 25.400002 v 3.57188 3.57187 h -25.400002 -25.4 z m 0,-7.54063 v -3.175 h 25.4 25.400002 v 3.175 3.175 h -25.400002 -25.4 z"
       id="path7854" /></g></svg>
