  0
SECTION
  2
HEADER
  9
$ACADVER
  1
AC1014
  9
$HANDSEED
  5
FFFF
  9
$MEASUREMENT
 70
     1
  0
ENDSEC
  0
SECTION
  2
TABLES
  0
TABLE
  2
VPORT
  5
8
330
0
100
AcDbSymbolTable
 70
     4
  0
VPORT
  5
2E
330
8
100
AcDbSymbolTableRecord
100
AcDbViewportTableRecord
  2
*ACTIVE
 70
     0
 10
0.0
 20
0.0
 11
1.0
 21
1.0
 12
210.0
 22
148.5
 13
0.0
 23
0.0
 14
10.0
 24
10.0
 15
10.0
 25
10.0
 16
0.0
 26
0.0
 36
1.0
 17
0.0
 27
0.0
 37
0.0
 40
341.0
 41
1.24
 42
50.0
 43
0.0
 44
0.0
 50
0.0
 51
0.0
 71
     0
 72
   100
 73
     1
 74
     3
 75
     0
 76
     0
 77
     0
 78
     0
  0
ENDTAB
  0
TABLE
  2
LTYPE
  5
5
330
0
100
AcDbSymbolTable
 70
     1
  0
LTYPE
  5
14
330
5
100
AcDbSymbolTableRecord
100
AcDbLinetypeTableRecord
  2
BYBLOCK
 70
     0
  3

 72
    65
 73
     0
 40
0.0
  0
LTYPE
  5
15
330
5
100
AcDbSymbolTableRecord
100
AcDbLinetypeTableRecord
  2
BYLAYER
 70
     0
  3

 72
    65
 73
     0
 40
0.0
  0
LTYPE
  5
16
330
5
100
AcDbSymbolTableRecord
100
AcDbLinetypeTableRecord
  2
CONTINUOUS
 70
     0
  3
Solid line
 72
    65
 73
     0
 40
0.0
  0
ENDTAB
  0
TABLE
  2
LAYER
  5
2
100
AcDbSymbolTable
 70
2
  0
LAYER
  5
50
100
AcDbSymbolTableRecord
100
AcDbLayerTableRecord
  2
0
 70
0
  6
CONTINUOUS
  0
LAYER
  5
51
100
AcDbSymbolTableRecord
100
AcDbLayerTableRecord
  2
Ebene_1
 70
0
  6
CONTINUOUS
  0
ENDTAB
  0
TABLE
  2
STYLE
  5
3
330
0
100
AcDbSymbolTable
 70
     1
  0
STYLE
  5
11
330
3
100
AcDbSymbolTableRecord
100
AcDbTextStyleTableRecord
  2
STANDARD
 70
     0
 40
0.0
 41
1.0
 50
0.0
 71
     0
 42
2.5
  3
txt
  4

  0
ENDTAB
  0
TABLE
  2
VIEW
  5
6
330
0
100
AcDbSymbolTable
 70
     0
  0
ENDTAB
  0
TABLE
  2
UCS
  5
7
330
0
100
AcDbSymbolTable
 70
     0
  0
ENDTAB
  0
TABLE
  2
APPID
  5
9
330
0
100
AcDbSymbolTable
 70
     2
  0
APPID
  5
12
330
9
100
AcDbSymbolTableRecord
100
AcDbRegAppTableRecord
  2
ACAD
 70
     0
  0
ENDTAB
  0
TABLE
  2
DIMSTYLE
  5
A
330
0
100
AcDbSymbolTable
 70
     1
  0
DIMSTYLE
105
27
330
A
100
AcDbSymbolTableRecord
100
AcDbDimStyleTableRecord
  2
ISO-25
 70
     0
  3

  4

  5

  6

  7

 40
1.0
 41
2.5
 42
0.625
 43
3.75
 44
1.25
 45
0.0
 46
0.0
 47
0.0
 48
0.0
140
2.5
141
2.5
142
0.0
143
0.03937007874016
144
1.0
145
0.0
146
1.0
147
0.625
 71
     0
 72
     0
 73
     0
 74
     0
 75
     0
 76
     0
 77
     1
 78
     8
170
     0
171
     3
172
     1
173
     0
174
     0
175
     0
176
     0
177
     0
178
     0
270
     2
271
     2
272
     2
273
     2
274
     3
340
11
275
     0
280
     0
281
     0
282
     0
283
     0
284
     8
285
     0
286
     0
287
     3
288
     0
  0
ENDTAB
  0
TABLE
  2
BLOCK_RECORD
  5
1
330
0
100
AcDbSymbolTable
 70
     1
  0
BLOCK_RECORD
  5
1F
330
1
100
AcDbSymbolTableRecord
100
AcDbBlockTableRecord
  2
*MODEL_SPACE
  0
BLOCK_RECORD
  5
1B
330
1
100
AcDbSymbolTableRecord
100
AcDbBlockTableRecord
  2
*PAPER_SPACE
  0
ENDTAB
  0
ENDSEC
  0
SECTION
  2
BLOCKS
  0
BLOCK
  5
20
330
1F
100
AcDbEntity
  8
0
100
AcDbBlockBegin
  2
*MODEL_SPACE
 70
     0
 10
0.0
 20
0.0
 30
0.0
  3
*MODEL_SPACE
  1

  0
ENDBLK
  5
21
330
1F
100
AcDbEntity
  8
0
100
AcDbBlockEnd
  0
BLOCK
  5
1C
330
1B
100
AcDbEntity
 67
     1
  8
0
100
AcDbBlockBegin
  2
*PAPER_SPACE
  1

  0
ENDBLK
  5
1D
330
1B
100
AcDbEntity
 67
     1
  8
0
100
AcDbBlockEnd
  0
ENDSEC
  0
SECTION
  2
ENTITIES
  0
SPLINE
  5
100
100
AcDbEntity
  8
Ebene_1
 62
7
100
AcDbSpline
 70
8
 71
3
 72
8
 73
4
 74
0
 40
0
 40
0
 40
0
 40
0
 40
1
 40
1
 40
1
 40
1
 10
105.937720
 20
241.081449
 30
0.0
 10
61.784188
 20
241.081427
 30
0.0
 10
25.990684
 20
205.287922
 30
0.0
 10
25.990662
 20
161.134390
 30
0.0
  0
SPLINE
  5
101
100
AcDbEntity
  8
Ebene_1
 62
7
100
AcDbSpline
 70
8
 71
3
 72
8
 73
4
 74
0
 40
0
 40
0
 40
0
 40
0
 40
1
 40
1
 40
1
 40
1
 10
25.990662
 20
161.134390
 30
0.0
 10
25.990683
 20
116.980857
 30
0.0
 10
61.784187
 20
81.187352
 30
0.0
 10
105.937720
 20
81.187330
 30
0.0
  0
SPLINE
  5
102
100
AcDbEntity
  8
Ebene_1
 62
7
100
AcDbSpline
 70
8
 71
3
 72
8
 73
4
 74
0
 40
0
 40
0
 40
0
 40
0
 40
1
 40
1
 40
1
 40
1
 10
105.937720
 20
81.187330
 30
0.0
 10
150.091253
 20
81.187351
 30
0.0
 10
185.884759
 20
116.980857
 30
0.0
 10
185.884780
 20
161.134390
 30
0.0
  0
SPLINE
  5
103
100
AcDbEntity
  8
Ebene_1
 62
7
100
AcDbSpline
 70
8
 71
3
 72
8
 73
4
 74
0
 40
0
 40
0
 40
0
 40
0
 40
1
 40
1
 40
1
 40
1
 10
185.884780
 20
161.134390
 30
0.0
 10
185.884758
 20
205.287923
 30
0.0
 10
150.091253
 20
241.081428
 30
0.0
 10
105.937720
 20
241.081449
 30
0.0
  0
LINE
  5
104
100
AcDbEntity
  8
Ebene_1
 62
7
100
AcDbLine
 10
105.937720
 20
241.081449
 30
0.0
 11
105.937720
 21
241.081449
 31
0.0
  0
SPLINE
  5
105
100
AcDbEntity
  8
Ebene_1
 62
7
100
AcDbSpline
 70
8
 71
3
 72
8
 73
4
 74
0
 40
0
 40
0
 40
0
 40
0
 40
1
 40
1
 40
1
 40
1
 10
105.937720
 20
235.085433
 30
0.0
 10
146.779747
 20
235.085419
 30
0.0
 10
179.888748
 20
201.976417
 30
0.0
 10
179.888760
 20
161.134390
 30
0.0
  0
LINE
  5
106
100
AcDbEntity
  8
Ebene_1
 62
7
100
AcDbLine
 10
179.888760
 20
161.134390
 30
0.0
 11
120.937320
 21
161.134390
 31
0.0
  0
SPLINE
  5
107
100
AcDbEntity
  8
Ebene_1
 62
7
100
AcDbSpline
 70
8
 71
3
 72
8
 73
4
 74
0
 40
0
 40
0
 40
0
 40
0
 40
1
 40
1
 40
1
 40
1
 10
120.937320
 20
161.134390
 30
0.0
 10
120.937463
 20
169.418584
 30
0.0
 10
114.221914
 20
176.134366
 30
0.0
 10
105.937720
 20
176.134510
 30
0.0
  0
SPLINE
  5
108
100
AcDbEntity
  8
Ebene_1
 62
7
100
AcDbSpline
 70
8
 71
3
 72
8
 73
4
 74
0
 40
0
 40
0
 40
0
 40
0
 40
1
 40
1
 40
1
 40
1
 10
105.937720
 20
176.134510
 30
0.0
 10
101.959420
 20
176.134578
 30
0.0
 10
98.144042
 20
174.554235
 30
0.0
 10
95.330959
 20
171.741152
 30
0.0
  0
SPLINE
  5
109
100
AcDbEntity
  8
Ebene_1
 62
7
100
AcDbSpline
 70
8
 71
3
 72
8
 73
4
 74
0
 40
0
 40
0
 40
0
 40
0
 40
1
 40
1
 40
1
 40
1
 10
95.330959
 20
171.741152
 30
0.0
 10
92.517876
 20
168.928069
 30
0.0
 10
90.937533
 20
165.112690
 30
0.0
 10
90.937602
 20
161.134390
 30
0.0
  0
SPLINE
  5
10a
100
AcDbEntity
  8
Ebene_1
 62
7
100
AcDbSpline
 70
8
 71
3
 72
8
 73
4
 74
0
 40
0
 40
0
 40
0
 40
0
 40
1
 40
1
 40
1
 40
1
 10
90.937602
 20
161.134390
 30
0.0
 10
90.940108
 20
161.047203
 30
0.0
 10
90.943375
 20
160.960040
 30
0.0
 10
90.947402
 20
160.872910
 30
0.0
  0
LINE
  5
10b
100
AcDbEntity
  8
Ebene_1
 62
7
100
AcDbLine
 10
90.947402
 20
160.872910
 30
0.0
 11
32.037303
 21
159.844550
 31
0.0
  0
SPLINE
  5
10c
100
AcDbEntity
  8
Ebene_1
 62
7
100
AcDbSpline
 70
8
 71
3
 72
8
 73
4
 74
0
 40
0
 40
0
 40
0
 40
0
 40
1
 40
1
 40
1
 40
1
 10
32.037303
 20
159.844550
 30
0.0
 10
32.016671
 20
160.274341
 30
0.0
 10
31.999790
 20
160.704304
 30
0.0
 10
31.986663
 20
161.134390
 30
0.0
  0
SPLINE
  5
10d
100
AcDbEntity
  8
Ebene_1
 62
7
100
AcDbSpline
 70
8
 71
3
 72
8
 73
4
 74
0
 40
0
 40
0
 40
0
 40
0
 40
1
 40
1
 40
1
 40
1
 10
31.986663
 20
161.134390
 30
0.0
 10
31.986675
 20
201.976416
 30
0.0
 10
65.095674
 20
235.085418
 30
0.0
 10
105.937700
 20
235.085433
 30
0.0
  0
LINE
  5
10e
100
AcDbEntity
  8
Ebene_1
 62
7
100
AcDbLine
 10
105.937700
 20
235.085433
 30
0.0
 11
105.937720
 21
235.085433
 31
0.0
  0
LINE
  5
10f
100
AcDbEntity
  8
Ebene_1
 62
7
100
AcDbLine
 10
120.874280
 20
159.827490
 30
0.0
 11
179.584900
 21
154.690860
 31
0.0
  0
SPLINE
  5
110
100
AcDbEntity
  8
Ebene_1
 62
7
100
AcDbSpline
 70
8
 71
3
 72
8
 73
4
 74
0
 40
0
 40
0
 40
0
 40
0
 40
1
 40
1
 40
1
 40
1
 10
179.584900
 20
154.690860
 30
0.0
 10
179.538155
 20
154.263408
 30
0.0
 10
179.487684
 20
153.836372
 30
0.0
 10
179.433490
 20
153.409800
 30
0.0
  0
LINE
  5
111
100
AcDbEntity
  8
Ebene_1
 62
7
100
AcDbLine
 10
179.433490
 20
153.409800
 30
0.0
 11
120.845340
 21
159.567560
 31
0.0
  0
SPLINE
  5
112
100
AcDbEntity
  8
Ebene_1
 62
7
100
AcDbSpline
 70
8
 71
3
 72
8
 73
4
 74
0
 40
0
 40
0
 40
0
 40
0
 40
1
 40
1
 40
1
 40
1
 10
120.845340
 20
159.567560
 30
0.0
 10
120.855729
 20
159.654118
 30
0.0
 10
120.865362
 20
159.740764
 30
0.0
 10
120.874240
 20
159.827490
 30
0.0
  0
LINE
  5
113
100
AcDbEntity
  8
Ebene_1
 62
7
100
AcDbLine
 10
120.874240
 20
159.827490
 30
0.0
 11
120.874280
 21
159.827490
 31
0.0
  0
SPLINE
  5
114
100
AcDbEntity
  8
Ebene_1
 62
7
100
AcDbSpline
 70
8
 71
3
 72
8
 73
4
 74
0
 40
0
 40
0
 40
0
 40
0
 40
1
 40
1
 40
1
 40
1
 10
91.030103
 20
159.567560
 30
0.0
 10
91.039164
 20
159.480833
 30
0.0
 10
91.048981
 20
159.394186
 30
0.0
 10
91.059553
 20
159.307630
 30
0.0
  0
LINE
  5
115
100
AcDbEntity
  8
Ebene_1
 62
7
100
AcDbLine
 10
91.059553
 20
159.307630
 30
0.0
 11
32.593871
 21
152.128740
 31
0.0
  0
SPLINE
  5
116
100
AcDbEntity
  8
Ebene_1
 62
7
100
AcDbSpline
 70
8
 71
3
 72
8
 73
4
 74
0
 40
0
 40
0
 40
0
 40
0
 40
1
 40
1
 40
1
 40
1
 10
32.593871
 20
152.128740
 30
0.0
 10
32.539504
 20
152.555310
 30
0.0
 10
32.488859
 20
152.982346
 30
0.0
 10
32.441942
 20
153.409800
 30
0.0
  0
LINE
  5
117
100
AcDbEntity
  8
Ebene_1
 62
7
100
AcDbLine
 10
32.441942
 20
153.409800
 30
0.0
 11
91.030103
 21
159.567560
 31
0.0
  0
LINE
  5
118
100
AcDbEntity
  8
Ebene_1
 62
7
100
AcDbLine
 10
120.652070
 20
158.274100
 30
0.0
 11
178.474890
 21
147.034480
 31
0.0
  0
SPLINE
  5
119
100
AcDbEntity
  8
Ebene_1
 62
7
100
AcDbSpline
 70
8
 71
3
 72
8
 73
4
 74
0
 40
0
 40
0
 40
0
 40
0
 40
1
 40
1
 40
1
 40
1
 10
178.474890
 20
147.034480
 30
0.0
 10
178.394679
 20
146.612247
 30
0.0
 10
178.310790
 20
146.190721
 30
0.0
 10
178.223230
 20
145.769950
 30
0.0
  0
LINE
  5
11a
100
AcDbEntity
  8
Ebene_1
 62
7
100
AcDbLine
 10
178.223230
 20
145.769950
 30
0.0
 11
120.603490
 21
158.017270
 31
0.0
  0
SPLINE
  5
11b
100
AcDbEntity
  8
Ebene_1
 62
7
100
AcDbSpline
 70
8
 71
3
 72
8
 73
4
 74
0
 40
0
 40
0
 40
0
 40
0
 40
1
 40
1
 40
1
 40
1
 10
120.603490
 20
158.017270
 30
0.0
 10
120.620436
 20
158.102737
 30
0.0
 10
120.636636
 20
158.188350
 30
0.0
 10
120.652090
 20
158.274100
 30
0.0
  0
LINE
  5
11c
100
AcDbEntity
  8
Ebene_1
 62
7
100
AcDbLine
 10
120.652090
 20
158.274100
 30
0.0
 11
120.652070
 21
158.274100
 31
0.0
  0
SPLINE
  5
11d
100
AcDbEntity
  8
Ebene_1
 62
7
100
AcDbSpline
 70
8
 71
3
 72
8
 73
4
 74
0
 40
0
 40
0
 40
0
 40
0
 40
1
 40
1
 40
1
 40
1
 10
91.271948
 20
158.017270
 30
0.0
 10
91.288427
 20
157.931511
 30
0.0
 10
91.305654
 20
157.845898
 30
0.0
 10
91.323628
 20
157.760440
 30
0.0
  0
LINE
  5
11e
100
AcDbEntity
  8
Ebene_1
 62
7
100
AcDbLine
 10
91.323628
 20
157.760440
 30
0.0
 11
33.903877
 21
144.503880
 31
0.0
  0
SPLINE
  5
11f
100
AcDbEntity
  8
Ebene_1
 62
7
100
AcDbSpline
 70
8
 71
3
 72
8
 73
4
 74
0
 40
0
 40
0
 40
0
 40
0
 40
1
 40
1
 40
1
 40
1
 10
33.903877
 20
144.503880
 30
0.0
 10
33.816307
 20
144.925163
 30
0.0
 10
33.732415
 20
145.347203
 30
0.0
 10
33.652212
 20
145.769950
 30
0.0
  0
LINE
  5
120
100
AcDbEntity
  8
Ebene_1
 62
7
100
AcDbLine
 10
33.652212
 20
145.769950
 30
0.0
 11
91.271948
 21
158.017270
 31
0.0
  0
LINE
  5
121
100
AcDbEntity
  8
Ebene_1
 62
7
100
AcDbLine
 10
120.281030
 20
156.749130
 30
0.0
 11
176.619710
 21
139.524860
 31
0.0
  0
SPLINE
  5
122
100
AcDbEntity
  8
Ebene_1
 62
7
100
AcDbSpline
 70
8
 71
3
 72
8
 73
4
 74
0
 40
0
 40
0
 40
0
 40
0
 40
1
 40
1
 40
1
 40
1
 10
176.619710
 20
139.524860
 30
0.0
 10
176.506536
 20
139.109749
 30
0.0
 10
176.389742
 20
138.695633
 30
0.0
 10
176.269340
 20
138.282560
 30
0.0
  0
LINE
  5
123
100
AcDbEntity
  8
Ebene_1
 62
7
100
AcDbLine
 10
176.269340
 20
138.282560
 30
0.0
 11
120.197310
 21
156.501080
 31
0.0
  0
SPLINE
  5
124
100
AcDbEntity
  8
Ebene_1
 62
7
100
AcDbSpline
 70
8
 71
3
 72
8
 73
4
 74
0
 40
0
 40
0
 40
0
 40
0
 40
1
 40
1
 40
1
 40
1
 10
120.197310
 20
156.501080
 30
0.0
 10
120.225931
 20
156.583518
 30
0.0
 10
120.253832
 20
156.666205
 30
0.0
 10
120.281010
 20
156.749130
 30
0.0
  0
LINE
  5
125
100
AcDbEntity
  8
Ebene_1
 62
7
100
AcDbLine
 10
120.281010
 20
156.749130
 30
0.0
 11
120.281030
 21
156.749130
 31
0.0
  0
SPLINE
  5
126
100
AcDbEntity
  8
Ebene_1
 62
7
100
AcDbSpline
 70
8
 71
3
 72
8
 73
4
 74
0
 40
0
 40
0
 40
0
 40
0
 40
1
 40
1
 40
1
 40
1
 10
91.678125
 20
156.501080
 30
0.0
 10
91.706346
 20
156.418492
 30
0.0
 10
91.735287
 20
156.336153
 30
0.0
 10
91.764945
 20
156.254070
 30
0.0
  0
LINE
  5
127
100
AcDbEntity
  8
Ebene_1
 62
7
100
AcDbLine
 10
91.764945
 20
156.254070
 30
0.0
 11
36.052580
 21
137.071260
 31
0.0
  0
SPLINE
  5
128
100
AcDbEntity
  8
Ebene_1
 62
7
100
AcDbSpline
 70
8
 71
3
 72
8
 73
4
 74
0
 40
0
 40
0
 40
0
 40
0
 40
1
 40
1
 40
1
 40
1
 10
36.052580
 20
137.071260
 30
0.0
 10
35.900230
 20
137.473720
 30
0.0
 10
35.751396
 20
137.877502
 30
0.0
 10
35.606095
 20
138.282560
 30
0.0
  0
LINE
  5
129
100
AcDbEntity
  8
Ebene_1
 62
7
100
AcDbLine
 10
35.606095
 20
138.282560
 30
0.0
 11
91.678125
 21
156.501080
 31
0.0
  0
LINE
  5
12a
100
AcDbEntity
  8
Ebene_1
 62
7
100
AcDbLine
 10
119.736360
 20
155.277380
 30
0.0
 11
173.989380
 21
132.248300
 31
0.0
  0
SPLINE
  5
12b
100
AcDbEntity
  8
Ebene_1
 62
7
100
AcDbSpline
 70
8
 71
3
 72
8
 73
4
 74
0
 40
0
 40
0
 40
0
 40
0
 40
1
 40
1
 40
1
 40
1
 10
173.989380
 20
132.248300
 30
0.0
 10
173.812613
 20
131.856062
 30
0.0
 10
173.632426
 20
131.465374
 30
0.0
 10
173.448840
 20
131.076280
 30
0.0
  0
LINE
  5
12c
100
AcDbEntity
  8
Ebene_1
 62
7
100
AcDbLine
 10
173.448840
 20
131.076280
 30
0.0
 11
119.631460
 21
155.037610
 31
0.0
  0
SPLINE
  5
12d
100
AcDbEntity
  8
Ebene_1
 62
7
100
AcDbSpline
 70
8
 71
3
 72
8
 73
4
 74
0
 40
0
 40
0
 40
0
 40
0
 40
1
 40
1
 40
1
 40
1
 10
119.631460
 20
155.037610
 30
0.0
 10
119.667123
 20
155.117227
 30
0.0
 10
119.702091
 20
155.197153
 30
0.0
 10
119.736360
 20
155.277380
 30
0.0
  0
LINE
  5
12e
100
AcDbEntity
  8
Ebene_1
 62
7
100
AcDbLine
 10
119.736360
 20
155.277380
 30
0.0
 11
119.736360
 21
155.277380
 31
0.0
  0
SPLINE
  5
12f
100
AcDbEntity
  8
Ebene_1
 62
7
100
AcDbSpline
 70
8
 71
3
 72
8
 73
4
 74
0
 40
0
 40
0
 40
0
 40
0
 40
1
 40
1
 40
1
 40
1
 10
92.243982
 20
155.037610
 30
0.0
 10
92.278080
 20
154.957382
 30
0.0
 10
92.312877
 20
154.877452
 30
0.0
 10
92.348368
 20
154.797830
 30
0.0
  0
LINE
  5
130
100
AcDbEntity
  8
Ebene_1
 62
7
100
AcDbLine
 10
92.348368
 20
154.797830
 30
0.0
 11
38.966097
 21
129.905290
 31
0.0
  0
SPLINE
  5
131
100
AcDbEntity
  8
Ebene_1
 62
7
100
AcDbSpline
 70
8
 71
3
 72
8
 73
4
 74
0
 40
0
 40
0
 40
0
 40
0
 40
1
 40
1
 40
1
 40
1
 10
38.966097
 20
129.905290
 30
0.0
 10
38.782691
 20
130.294043
 30
0.0
 10
38.602678
 20
130.684388
 30
0.0
 10
38.426078
 20
131.076280
 30
0.0
  0
LINE
  5
132
100
AcDbEntity
  8
Ebene_1
 62
7
100
AcDbLine
 10
38.426078
 20
131.076280
 30
0.0
 11
92.243982
 21
155.037610
 31
0.0
  0
LINE
  5
133
100
AcDbEntity
  8
Ebene_1
 62
7
100
AcDbLine
 10
119.050610
 20
153.866100
 30
0.0
 11
170.567370
 21
125.309190
 31
0.0
  0
SPLINE
  5
134
100
AcDbEntity
  8
Ebene_1
 62
7
100
AcDbSpline
 70
8
 71
3
 72
8
 73
4
 74
0
 40
0
 40
0
 40
0
 40
0
 40
1
 40
1
 40
1
 40
1
 10
170.567370
 20
125.309190
 30
0.0
 10
170.360663
 20
124.932367
 30
0.0
 10
170.150675
 20
124.557352
 30
0.0
 10
169.937430
 20
124.184190
 30
0.0
  0
LINE
  5
135
100
AcDbEntity
  8
Ebene_1
 62
7
100
AcDbLine
 10
169.937430
 20
124.184190
 30
0.0
 11
118.928140
 21
153.634590
 31
0.0
  0
SPLINE
  5
136
100
AcDbEntity
  8
Ebene_1
 62
7
100
AcDbSpline
 70
8
 71
3
 72
8
 73
4
 74
0
 40
0
 40
0
 40
0
 40
0
 40
1
 40
1
 40
1
 40
1
 10
118.928140
 20
153.634590
 30
0.0
 10
118.969636
 20
153.711402
 30
0.0
 10
119.010461
 20
153.788575
 30
0.0
 10
119.050610
 20
153.866100
 30
0.0
  0
LINE
  5
137
100
AcDbEntity
  8
Ebene_1
 62
7
100
AcDbLine
 10
119.050610
 20
153.866100
 30
0.0
 11
119.050610
 21
153.866100
 31
0.0
  0
SPLINE
  5
138
100
AcDbEntity
  8
Ebene_1
 62
7
100
AcDbSpline
 70
8
 71
3
 72
8
 73
4
 74
0
 40
0
 40
0
 40
0
 40
0
 40
1
 40
1
 40
1
 40
1
 10
92.947298
 20
153.634590
 30
0.0
 10
92.993161
 20
153.560289
 30
0.0
 10
93.039672
 20
153.486389
 30
0.0
 10
93.086825
 20
153.412900
 30
0.0
  0
LINE
  5
139
100
AcDbEntity
  8
Ebene_1
 62
7
100
AcDbLine
 10
93.086825
 20
153.412900
 30
0.0
 11
42.568461
 21
123.058160
 31
0.0
  0
SPLINE
  5
13a
100
AcDbEntity
  8
Ebene_1
 62
7
100
AcDbSpline
 70
8
 71
3
 72
8
 73
4
 74
0
 40
0
 40
0
 40
0
 40
0
 40
1
 40
1
 40
1
 40
1
 10
42.568461
 20
123.058160
 30
0.0
 10
42.355039
 20
123.431663
 30
0.0
 10
42.144881
 20
123.807020
 30
0.0
 10
41.938009
 20
124.184190
 30
0.0
  0
LINE
  5
13b
100
AcDbEntity
  8
Ebene_1
 62
7
100
AcDbLine
 10
41.938009
 20
124.184190
 30
0.0
 11
92.947298
 21
153.634590
 31
0.0
  0
LINE
  5
13c
100
AcDbEntity
  8
Ebene_1
 62
7
100
AcDbLine
 10
118.220170
 20
152.533880
 30
0.0
 11
166.482340
 21
118.740080
 31
0.0
  0
SPLINE
  5
13d
100
AcDbEntity
  8
Ebene_1
 62
7
100
AcDbSpline
 70
8
 71
3
 72
8
 73
4
 74
0
 40
0
 40
0
 40
0
 40
0
 40
1
 40
1
 40
1
 40
1
 10
166.482340
 20
118.740080
 30
0.0
 10
166.246547
 20
118.380403
 30
0.0
 10
166.007622
 20
118.022789
 30
0.0
 10
165.765590
 20
117.667280
 30
0.0
  0
LINE
  5
13e
100
AcDbEntity
  8
Ebene_1
 62
7
100
AcDbLine
 10
165.765590
 20
117.667280
 30
0.0
 11
118.064630
 21
152.323560
 31
0.0
  0
SPLINE
  5
13f
100
AcDbEntity
  8
Ebene_1
 62
7
100
AcDbSpline
 70
8
 71
3
 72
8
 73
4
 74
0
 40
0
 40
0
 40
0
 40
0
 40
1
 40
1
 40
1
 40
1
 10
118.064630
 20
152.323560
 30
0.0
 10
118.117087
 20
152.393213
 30
0.0
 10
118.168936
 20
152.463323
 30
0.0
 10
118.220170
 20
152.533880
 30
0.0
  0
LINE
  5
140
100
AcDbEntity
  8
Ebene_1
 62
7
100
AcDbLine
 10
118.220170
 20
152.533880
 30
0.0
 11
118.220170
 21
152.533880
 31
0.0
  0
SPLINE
  5
141
100
AcDbEntity
  8
Ebene_1
 62
7
100
AcDbSpline
 70
8
 71
3
 72
8
 73
4
 74
0
 40
0
 40
0
 40
0
 40
0
 40
1
 40
1
 40
1
 40
1
 10
93.810811
 20
152.323560
 30
0.0
 10
93.861876
 20
152.253005
 30
0.0
 10
93.913555
 20
152.182895
 30
0.0
 10
93.965841
 20
152.113240
 30
0.0
  0
LINE
  5
142
100
AcDbEntity
  8
Ebene_1
 62
7
100
AcDbLine
 10
93.965841
 20
152.113240
 30
0.0
 11
46.909281
 21
116.653390
 31
0.0
  0
SPLINE
  5
143
100
AcDbEntity
  8
Ebene_1
 62
7
100
AcDbSpline
 70
8
 71
3
 72
8
 73
4
 74
0
 40
0
 40
0
 40
0
 40
0
 40
1
 40
1
 40
1
 40
1
 10
46.909281
 20
116.653390
 30
0.0
 10
46.639860
 20
116.988848
 30
0.0
 10
46.373372
 20
117.326651
 30
0.0
 10
46.109847
 20
117.666760
 30
0.0
  0
LINE
  5
144
100
AcDbEntity
  8
Ebene_1
 62
7
100
AcDbLine
 10
46.109847
 20
117.666760
 30
0.0
 11
46.109847
 21
117.667280
 31
0.0
  0
LINE
  5
145
100
AcDbEntity
  8
Ebene_1
 62
7
100
AcDbLine
 10
46.109847
 20
117.667280
 30
0.0
 11
93.810811
 21
152.323560
 31
0.0
  0
LINE
  5
146
100
AcDbEntity
  8
Ebene_1
 62
7
100
AcDbLine
 10
117.250720
 20
151.300370
 30
0.0
 11
161.732250
 21
112.632960
 31
0.0
  0
SPLINE
  5
147
100
AcDbEntity
  8
Ebene_1
 62
7
100
AcDbSpline
 70
8
 71
3
 72
8
 73
4
 74
0
 40
0
 40
0
 40
0
 40
0
 40
1
 40
1
 40
1
 40
1
 10
161.732250
 20
112.632960
 30
0.0
 10
161.443209
 20
112.314678
 30
0.0
 10
161.151398
 20
111.998923
 30
0.0
 10
160.856850
 20
111.685730
 30
0.0
  0
LINE
  5
148
100
AcDbEntity
  8
Ebene_1
 62
7
100
AcDbLine
 10
160.856850
 20
111.685730
 30
0.0
 11
117.079680
 21
151.101930
 31
0.0
  0
SPLINE
  5
149
100
AcDbEntity
  8
Ebene_1
 62
7
100
AcDbSpline
 70
8
 71
3
 72
8
 73
4
 74
0
 40
0
 40
0
 40
0
 40
0
 40
1
 40
1
 40
1
 40
1
 10
117.079680
 20
151.101930
 30
0.0
 10
117.137270
 20
151.167578
 30
0.0
 10
117.194285
 20
151.233727
 30
0.0
 10
117.250720
 20
151.300370
 30
0.0
  0
LINE
  5
14a
100
AcDbEntity
  8
Ebene_1
 62
7
100
AcDbLine
 10
117.250720
 20
151.300370
 30
0.0
 11
117.250720
 21
151.300370
 31
0.0
  0
SPLINE
  5
14b
100
AcDbEntity
  8
Ebene_1
 62
7
100
AcDbSpline
 70
8
 71
3
 72
8
 73
4
 74
0
 40
0
 40
0
 40
0
 40
0
 40
1
 40
1
 40
1
 40
1
 10
94.795764
 20
151.101930
 30
0.0
 10
94.852725
 20
151.035973
 30
0.0
 10
94.910261
 20
150.970514
 30
0.0
 10
94.968363
 20
150.905560
 30
0.0
  0
LINE
  5
14c
100
AcDbEntity
  8
Ebene_1
 62
7
100
AcDbLine
 10
94.968363
 20
150.905560
 30
0.0
 11
51.894507
 21
110.738500
 31
0.0
  0
SPLINE
  5
14d
100
AcDbEntity
  8
Ebene_1
 62
7
100
AcDbSpline
 70
8
 71
3
 72
8
 73
4
 74
0
 40
0
 40
0
 40
0
 40
0
 40
1
 40
1
 40
1
 40
1
 10
51.894507
 20
110.738500
 30
0.0
 10
51.599786
 20
111.051690
 30
0.0
 10
51.307803
 20
111.367446
 30
0.0
 10
51.018591
 20
111.685730
 30
0.0
  0
LINE
  5
14e
100
AcDbEntity
  8
Ebene_1
 62
7
100
AcDbLine
 10
51.018591
 20
111.685730
 30
0.0
 11
94.795764
 21
151.101930
 31
0.0
  0
LINE
  5
14f
100
AcDbEntity
  8
Ebene_1
 62
7
100
AcDbLine
 10
116.166550
 20
150.165030
 30
0.0
 11
156.333610
 21
107.091180
 31
0.0
  0
SPLINE
  5
150
100
AcDbEntity
  8
Ebene_1
 62
7
100
AcDbSpline
 70
8
 71
3
 72
8
 73
4
 74
0
 40
0
 40
0
 40
0
 40
0
 40
1
 40
1
 40
1
 40
1
 10
156.333610
 20
107.091180
 30
0.0
 10
156.020420
 20
106.796458
 30
0.0
 10
155.704664
 20
106.504474
 30
0.0
 10
155.386380
 20
106.215260
 30
0.0
  0
LINE
  5
151
100
AcDbEntity
  8
Ebene_1
 62
7
100
AcDbLine
 10
155.386380
 20
106.215260
 30
0.0
 11
115.970180
 21
149.992440
 31
0.0
  0
SPLINE
  5
152
100
AcDbEntity
  8
Ebene_1
 62
7
100
AcDbSpline
 70
8
 71
3
 72
8
 73
4
 74
0
 40
0
 40
0
 40
0
 40
0
 40
1
 40
1
 40
1
 40
1
 10
115.970180
 20
149.992440
 30
0.0
 10
116.036137
 20
150.049398
 30
0.0
 10
116.101596
 20
150.106931
 30
0.0
 10
116.166550
 20
150.165030
 30
0.0
  0
LINE
  5
153
100
AcDbEntity
  8
Ebene_1
 62
7
100
AcDbLine
 10
116.166550
 20
150.165030
 30
0.0
 11
116.166550
 21
150.165030
 31
0.0
  0
SPLINE
  5
154
100
AcDbEntity
  8
Ebene_1
 62
7
100
AcDbSpline
 70
8
 71
3
 72
8
 73
4
 74
0
 40
0
 40
0
 40
0
 40
0
 40
1
 40
1
 40
1
 40
1
 10
95.905257
 20
149.992440
 30
0.0
 10
95.970904
 20
149.934847
 30
0.0
 10
96.037052
 20
149.877828
 30
0.0
 10
96.103695
 20
149.821390
 30
0.0
  0
LINE
  5
155
100
AcDbEntity
  8
Ebene_1
 62
7
100
AcDbLine
 10
96.103695
 20
149.821390
 30
0.0
 11
57.436287
 21
105.339860
 31
0.0
  0
SPLINE
  5
156
100
AcDbEntity
  8
Ebene_1
 62
7
100
AcDbSpline
 70
8
 71
3
 72
8
 73
4
 74
0
 40
0
 40
0
 40
0
 40
0
 40
1
 40
1
 40
1
 40
1
 10
57.436287
 20
105.339860
 30
0.0
 10
57.118005
 20
105.628901
 30
0.0
 10
56.802250
 20
105.920712
 30
0.0
 10
56.489058
 20
106.215260
 30
0.0
  0
LINE
  5
157
100
AcDbEntity
  8
Ebene_1
 62
7
100
AcDbLine
 10
56.489058
 20
106.215260
 30
0.0
 11
95.905257
 21
149.992440
 31
0.0
  0
LINE
  5
158
100
AcDbEntity
  8
Ebene_1
 62
7
100
AcDbLine
 10
114.958870
 20
149.162510
 30
0.0
 11
150.418730
 21
102.105950
 31
0.0
  0
SPLINE
  5
159
100
AcDbEntity
  8
Ebene_1
 62
7
100
AcDbSpline
 70
8
 71
3
 72
8
 73
4
 74
0
 40
0
 40
0
 40
0
 40
0
 40
1
 40
1
 40
1
 40
1
 10
150.418730
 20
102.105950
 30
0.0
 10
150.083269
 20
101.836530
 30
0.0
 10
149.745462
 20
101.570044
 30
0.0
 10
149.405350
 20
101.306520
 30
0.0
  0
LINE
  5
15a
100
AcDbEntity
  8
Ebene_1
 62
7
100
AcDbLine
 10
149.405350
 20
101.306520
 30
0.0
 11
149.404830
 21
101.306520
 31
0.0
  0
LINE
  5
15b
100
AcDbEntity
  8
Ebene_1
 62
7
100
AcDbLine
 10
149.404830
 20
101.306520
 30
0.0
 11
114.748550
 21
149.007480
 31
0.0
  0
SPLINE
  5
15c
100
AcDbEntity
  8
Ebene_1
 62
7
100
AcDbSpline
 70
8
 71
3
 72
8
 73
4
 74
0
 40
0
 40
0
 40
0
 40
0
 40
1
 40
1
 40
1
 40
1
 10
114.748550
 20
149.007480
 30
0.0
 10
114.819105
 20
149.058545
 30
0.0
 10
114.889215
 20
149.110224
 30
0.0
 10
114.958870
 20
149.162510
 30
0.0
  0
LINE
  5
15d
100
AcDbEntity
  8
Ebene_1
 62
7
100
AcDbLine
 10
114.958870
 20
149.162510
 30
0.0
 11
114.958870
 21
149.162510
 31
0.0
  0
SPLINE
  5
15e
100
AcDbEntity
  8
Ebene_1
 62
7
100
AcDbSpline
 70
8
 71
3
 72
8
 73
4
 74
0
 40
0
 40
0
 40
0
 40
0
 40
1
 40
1
 40
1
 40
1
 10
97.126888
 20
149.007480
 30
0.0
 10
97.196542
 20
148.955023
 30
0.0
 10
97.266653
 20
148.903174
 30
0.0
 10
97.337211
 20
148.851940
 30
0.0
  0
LINE
  5
15f
100
AcDbEntity
  8
Ebene_1
 62
7
100
AcDbLine
 10
97.337211
 20
148.851940
 30
0.0
 11
63.543408
 21
100.589770
 31
0.0
  0
SPLINE
  5
160
100
AcDbEntity
  8
Ebene_1
 62
7
100
AcDbSpline
 70
8
 71
3
 72
8
 73
4
 74
0
 40
0
 40
0
 40
0
 40
0
 40
1
 40
1
 40
1
 40
1
 10
63.543408
 20
100.589770
 30
0.0
 10
63.183730
 20
100.825563
 30
0.0
 10
62.826115
 20
101.064488
 30
0.0
 10
62.470605
 20
101.306520
 30
0.0
  0
LINE
  5
161
100
AcDbEntity
  8
Ebene_1
 62
7
100
AcDbLine
 10
62.470605
 20
101.306520
 30
0.0
 11
97.126888
 21
149.007480
 31
0.0
  0
LINE
  5
162
100
AcDbEntity
  8
Ebene_1
 62
7
100
AcDbLine
 10
113.659210
 20
148.283500
 30
0.0
 11
144.013950
 21
97.765130
 31
0.0
  0
SPLINE
  5
163
100
AcDbEntity
  8
Ebene_1
 62
7
100
AcDbSpline
 70
8
 71
3
 72
8
 73
4
 74
0
 40
0
 40
0
 40
0
 40
0
 40
1
 40
1
 40
1
 40
1
 10
144.013950
 20
97.765130
 30
0.0
 10
143.640447
 20
97.551709
 30
0.0
 10
143.265090
 20
97.341551
 30
0.0
 10
142.887920
 20
97.134680
 30
0.0
  0
LINE
  5
164
100
AcDbEntity
  8
Ebene_1
 62
7
100
AcDbLine
 10
142.887920
 20
97.134680
 30
0.0
 11
113.437520
 21
148.143970
 31
0.0
  0
SPLINE
  5
165
100
AcDbEntity
  8
Ebene_1
 62
7
100
AcDbSpline
 70
8
 71
3
 72
8
 73
4
 74
0
 40
0
 40
0
 40
0
 40
0
 40
1
 40
1
 40
1
 40
1
 10
113.437520
 20
148.143970
 30
0.0
 10
113.511821
 20
148.189834
 30
0.0
 10
113.585721
 20
148.236346
 30
0.0
 10
113.659210
 20
148.283500
 30
0.0
  0
LINE
  5
166
100
AcDbEntity
  8
Ebene_1
 62
7
100
AcDbLine
 10
113.659210
 20
148.283500
 30
0.0
 11
113.659210
 21
148.283500
 31
0.0
  0
SPLINE
  5
167
100
AcDbEntity
  8
Ebene_1
 62
7
100
AcDbSpline
 70
8
 71
3
 72
8
 73
4
 74
0
 40
0
 40
0
 40
0
 40
0
 40
1
 40
1
 40
1
 40
1
 10
98.437919
 20
148.143970
 30
0.0
 10
98.514731
 20
148.102474
 30
0.0
 10
98.591905
 20
148.061649
 30
0.0
 10
98.669430
 20
148.021500
 30
0.0
  0
LINE
  5
168
100
AcDbEntity
  8
Ebene_1
 62
7
100
AcDbLine
 10
98.669430
 20
148.021500
 30
0.0
 11
70.112516
 21
96.504740
 31
0.0
  0
SPLINE
  5
169
100
AcDbEntity
  8
Ebene_1
 62
7
100
AcDbSpline
 70
8
 71
3
 72
8
 73
4
 74
0
 40
0
 40
0
 40
0
 40
0
 40
1
 40
1
 40
1
 40
1
 10
70.112516
 20
96.504740
 30
0.0
 10
69.735694
 20
96.711447
 30
0.0
 10
69.360681
 20
96.921435
 30
0.0
 10
68.987520
 20
97.134680
 30
0.0
  0
LINE
  5
16a
100
AcDbEntity
  8
Ebene_1
 62
7
100
AcDbLine
 10
68.987520
 20
97.134680
 30
0.0
 11
98.437919
 21
148.143970
 31
0.0
  0
LINE
  5
16b
100
AcDbEntity
  8
Ebene_1
 62
7
100
AcDbLine
 10
112.274280
 20
147.545040
 30
0.0
 11
137.166820
 21
94.162770
 31
0.0
  0
SPLINE
  5
16c
100
AcDbEntity
  8
Ebene_1
 62
7
100
AcDbSpline
 70
8
 71
3
 72
8
 73
4
 74
0
 40
0
 40
0
 40
0
 40
0
 40
1
 40
1
 40
1
 40
1
 10
137.166820
 20
94.162770
 30
0.0
 10
136.778067
 20
93.979364
 30
0.0
 10
136.387722
 20
93.799350
 30
0.0
 10
135.995830
 20
93.622750
 30
0.0
  0
LINE
  5
16d
100
AcDbEntity
  8
Ebene_1
 62
7
100
AcDbLine
 10
135.995830
 20
93.622750
 30
0.0
 11
112.034510
 21
147.440650
 31
0.0
  0
SPLINE
  5
16e
100
AcDbEntity
  8
Ebene_1
 62
7
100
AcDbSpline
 70
8
 71
3
 72
8
 73
4
 74
0
 40
0
 40
0
 40
0
 40
0
 40
1
 40
1
 40
1
 40
1
 10
112.034510
 20
147.440650
 30
0.0
 10
112.114735
 20
147.474749
 30
0.0
 10
112.194662
 20
147.509547
 30
0.0
 10
112.274280
 20
147.545040
 30
0.0
  0
LINE
  5
16f
100
AcDbEntity
  8
Ebene_1
 62
7
100
AcDbLine
 10
112.274280
 20
147.545040
 30
0.0
 11
112.274280
 21
147.545040
 31
0.0
  0
SPLINE
  5
170
100
AcDbEntity
  8
Ebene_1
 62
7
100
AcDbSpline
 70
8
 71
3
 72
8
 73
4
 74
0
 40
0
 40
0
 40
0
 40
0
 40
1
 40
1
 40
1
 40
1
 10
99.840934
 20
147.440650
 30
0.0
 10
99.920553
 20
147.404987
 30
0.0
 10
100.000481
 20
147.370019
 30
0.0
 10
100.080710
 20
147.335750
 30
0.0
  0
LINE
  5
171
100
AcDbEntity
  8
Ebene_1
 62
7
100
AcDbLine
 10
100.080710
 20
147.335750
 30
0.0
 11
77.051628
 21
93.082730
 31
0.0
  0
SPLINE
  5
172
100
AcDbEntity
  8
Ebene_1
 62
7
100
AcDbSpline
 70
8
 71
3
 72
8
 73
4
 74
0
 40
0
 40
0
 40
0
 40
0
 40
1
 40
1
 40
1
 40
1
 10
77.051628
 20
93.082730
 30
0.0
 10
76.659389
 20
93.259497
 30
0.0
 10
76.268700
 20
93.439684
 30
0.0
 10
75.879606
 20
93.623270
 30
0.0
  0
LINE
  5
173
100
AcDbEntity
  8
Ebene_1
 62
7
100
AcDbLine
 10
75.879606
 20
93.623270
 30
0.0
 11
99.840934
 21
147.440650
 31
0.0
  0
LINE
  5
174
100
AcDbEntity
  8
Ebene_1
 62
7
100
AcDbLine
 10
110.818040
 20
146.961610
 30
0.0
 11
130.000850
 21
91.249250
 31
0.0
  0
SPLINE
  5
175
100
AcDbEntity
  8
Ebene_1
 62
7
100
AcDbSpline
 70
8
 71
3
 72
8
 73
4
 74
0
 40
0
 40
0
 40
0
 40
0
 40
1
 40
1
 40
1
 40
1
 10
130.000850
 20
91.249250
 30
0.0
 10
129.598390
 20
91.096902
 30
0.0
 10
129.194608
 20
90.948069
 30
0.0
 10
128.789550
 20
90.802770
 30
0.0
  0
LINE
  5
176
100
AcDbEntity
  8
Ebene_1
 62
7
100
AcDbLine
 10
128.789550
 20
90.802770
 30
0.0
 11
110.571030
 21
146.874800
 31
0.0
  0
SPLINE
  5
177
100
AcDbEntity
  8
Ebene_1
 62
7
100
AcDbSpline
 70
8
 71
3
 72
8
 73
4
 74
0
 40
0
 40
0
 40
0
 40
0
 40
1
 40
1
 40
1
 40
1
 10
110.571030
 20
146.874800
 30
0.0
 10
110.653618
 20
146.903014
 30
0.0
 10
110.735957
 20
146.931949
 30
0.0
 10
110.818040
 20
146.961600
 30
0.0
  0
LINE
  5
178
100
AcDbEntity
  8
Ebene_1
 62
7
100
AcDbLine
 10
110.818040
 20
146.961600
 30
0.0
 11
110.818040
 21
146.961610
 31
0.0
  0
SPLINE
  5
179
100
AcDbEntity
  8
Ebene_1
 62
7
100
AcDbSpline
 70
8
 71
3
 72
8
 73
4
 74
0
 40
0
 40
0
 40
0
 40
0
 40
1
 40
1
 40
1
 40
1
 10
101.304410
 20
146.874810
 30
0.0
 10
101.386848
 20
146.846189
 30
0.0
 10
101.469535
 20
146.818288
 30
0.0
 10
101.552460
 20
146.791110
 30
0.0
  0
LINE
  5
17a
100
AcDbEntity
  8
Ebene_1
 62
7
100
AcDbLine
 10
101.552460
 20
146.791110
 30
0.0
 11
84.328186
 21
90.452400
 31
0.0
  0
SPLINE
  5
17b
100
AcDbEntity
  8
Ebene_1
 62
7
100
AcDbSpline
 70
8
 71
3
 72
8
 73
4
 74
0
 40
0
 40
0
 40
0
 40
0
 40
1
 40
1
 40
1
 40
1
 10
84.328186
 20
90.452400
 30
0.0
 10
83.913074
 20
90.565574
 30
0.0
 10
83.498958
 20
90.682368
 30
0.0
 10
83.085885
 20
90.802770
 30
0.0
  0
LINE
  5
17c
100
AcDbEntity
  8
Ebene_1
 62
7
100
AcDbLine
 10
83.085885
 20
90.802770
 30
0.0
 11
101.304410
 21
146.874810
 31
0.0
  0
LINE
  5
17d
100
AcDbEntity
  8
Ebene_1
 62
7
100
AcDbLine
 10
109.311670
 20
146.520310
 30
0.0
 11
122.568230
 21
89.100560
 31
0.0
  0
SPLINE
  5
17e
100
AcDbEntity
  8
Ebene_1
 62
7
100
AcDbSpline
 70
8
 71
3
 72
8
 73
4
 74
0
 40
0
 40
0
 40
0
 40
0
 40
1
 40
1
 40
1
 40
1
 10
122.568230
 20
89.100560
 30
0.0
 10
122.146947
 20
89.012988
 30
0.0
 10
121.724907
 20
88.929095
 30
0.0
 10
121.302160
 20
88.848890
 30
0.0
  0
LINE
  5
17f
100
AcDbEntity
  8
Ebene_1
 62
7
100
AcDbLine
 10
121.302160
 20
88.848890
 30
0.0
 11
109.054840
 21
146.468630
 31
0.0
  0
SPLINE
  5
180
100
AcDbEntity
  8
Ebene_1
 62
7
100
AcDbSpline
 70
8
 71
3
 72
8
 73
4
 74
0
 40
0
 40
0
 40
0
 40
0
 40
1
 40
1
 40
1
 40
1
 10
109.054840
 20
146.468630
 30
0.0
 10
109.140599
 20
146.485115
 30
0.0
 10
109.226212
 20
146.502349
 30
0.0
 10
109.311670
 20
146.520330
 30
0.0
  0
LINE
  5
181
100
AcDbEntity
  8
Ebene_1
 62
7
100
AcDbLine
 10
109.311670
 20
146.520330
 30
0.0
 11
109.311670
 21
146.520310
 31
0.0
  0
SPLINE
  5
182
100
AcDbEntity
  8
Ebene_1
 62
7
100
AcDbSpline
 70
8
 71
3
 72
8
 73
4
 74
0
 40
0
 40
0
 40
0
 40
0
 40
1
 40
1
 40
1
 40
1
 10
102.820600
 20
146.468610
 30
0.0
 10
102.906067
 20
146.451664
 30
0.0
 10
102.991680
 20
146.435464
 30
0.0
 10
103.077430
 20
146.420010
 30
0.0
  0
LINE
  5
183
100
AcDbEntity
  8
Ebene_1
 62
7
100
AcDbLine
 10
103.077430
 20
146.420010
 30
0.0
 11
91.837805
 21
88.597190
 31
0.0
  0
SPLINE
  5
184
100
AcDbEntity
  8
Ebene_1
 62
7
100
AcDbSpline
 70
8
 71
3
 72
8
 73
4
 74
0
 40
0
 40
0
 40
0
 40
0
 40
1
 40
1
 40
1
 40
1
 10
91.837805
 20
88.597190
 30
0.0
 10
91.415574
 20
88.677401
 30
0.0
 10
90.994051
 20
88.761290
 30
0.0
 10
90.573283
 20
88.848850
 30
0.0
  0
LINE
  5
185
100
AcDbEntity
  8
Ebene_1
 62
7
100
AcDbLine
 10
90.573283
 20
88.848850
 30
0.0
 11
102.820600
 21
146.468610
 31
0.0
  0
LINE
  5
186
100
AcDbEntity
  8
Ebene_1
 62
7
100
AcDbLine
 10
107.764480
 20
146.256220
 30
0.0
 11
114.943370
 21
87.790540
 31
0.0
  0
SPLINE
  5
187
100
AcDbEntity
  8
Ebene_1
 62
7
100
AcDbSpline
 70
8
 71
3
 72
8
 73
4
 74
0
 40
0
 40
0
 40
0
 40
0
 40
1
 40
1
 40
1
 40
1
 10
114.943370
 20
87.790540
 30
0.0
 10
114.516800
 20
87.736173
 30
0.0
 10
114.089764
 20
87.685528
 30
0.0
 10
113.662310
 20
87.638610
 30
0.0
  0
LINE
  5
188
100
AcDbEntity
  8
Ebene_1
 62
7
100
AcDbLine
 10
113.662310
 20
87.638610
 30
0.0
 11
107.504550
 21
146.226760
 31
0.0
  0
SPLINE
  5
189
100
AcDbEntity
  8
Ebene_1
 62
7
100
AcDbSpline
 70
8
 71
3
 72
8
 73
4
 74
0
 40
0
 40
0
 40
0
 40
0
 40
1
 40
1
 40
1
 40
1
 10
107.504550
 20
146.226760
 30
0.0
 10
107.591277
 20
146.235838
 30
0.0
 10
107.677924
 20
146.245671
 30
0.0
 10
107.764480
 20
146.256260
 30
0.0
  0
LINE
  5
18a
100
AcDbEntity
  8
Ebene_1
 62
7
100
AcDbLine
 10
107.764480
 20
146.256260
 30
0.0
 11
107.764480
 21
146.256220
 31
0.0
  0
SPLINE
  5
18b
100
AcDbEntity
  8
Ebene_1
 62
7
100
AcDbSpline
 70
8
 71
3
 72
8
 73
4
 74
0
 40
0
 40
0
 40
0
 40
0
 40
1
 40
1
 40
1
 40
1
 10
104.370890
 20
146.226720
 30
0.0
 10
104.457448
 20
146.216331
 30
0.0
 10
104.544094
 20
146.206698
 30
0.0
 10
104.630820
 20
146.197820
 30
0.0
  0
LINE
  5
18c
100
AcDbEntity
  8
Ebene_1
 62
7
100
AcDbLine
 10
104.630820
 20
146.197820
 30
0.0
 11
99.494185
 21
87.487190
 31
0.0
  0
SPLINE
  5
18d
100
AcDbEntity
  8
Ebene_1
 62
7
100
AcDbSpline
 70
8
 71
3
 72
8
 73
4
 74
0
 40
0
 40
0
 40
0
 40
0
 40
1
 40
1
 40
1
 40
1
 10
99.494185
 20
87.487190
 30
0.0
 10
99.066561
 20
87.533932
 30
0.0
 10
98.639353
 20
87.584404
 30
0.0
 10
98.212610
 20
87.638600
 30
0.0
  0
LINE
  5
18e
100
AcDbEntity
  8
Ebene_1
 62
7
100
AcDbLine
 10
98.212610
 20
87.638600
 30
0.0
 11
104.370890
 21
146.226720
 31
0.0
  0
LINE
  5
18f
100
AcDbEntity
  8
Ebene_1
 62
7
100
AcDbLine
 10
106.199200
 20
146.144520
 30
0.0
 11
107.227560
 21
87.233900
 31
0.0
  0
SPLINE
  5
190
100
AcDbEntity
  8
Ebene_1
 62
7
100
AcDbSpline
 70
8
 71
3
 72
8
 73
4
 74
0
 40
0
 40
0
 40
0
 40
0
 40
1
 40
1
 40
1
 40
1
 10
107.227560
 20
87.233900
 30
0.0
 10
106.797769
 20
87.213281
 30
0.0
 10
106.367806
 20
87.196414
 30
0.0
 10
105.937720
 20
87.183300
 30
0.0
  0
LINE
  5
191
100
AcDbEntity
  8
Ebene_1
 62
7
100
AcDbLine
 10
105.937720
 20
87.183300
 30
0.0
 11
105.937720
 21
146.134740
 31
0.0
  0
SPLINE
  5
192
100
AcDbEntity
  8
Ebene_1
 62
7
100
AcDbSpline
 70
8
 71
3
 72
8
 73
4
 74
0
 40
0
 40
0
 40
0
 40
0
 40
1
 40
1
 40
1
 40
1
 10
105.937720
 20
146.134740
 30
0.0
 10
106.024907
 20
146.137313
 30
0.0
 10
106.112071
 20
146.140646
 30
0.0
 10
106.199200
 20
146.144740
 30
0.0
  0
LINE
  5
193
100
AcDbEntity
  8
Ebene_1
 62
7
100
AcDbLine
 10
106.199200
 20
146.144740
 30
0.0
 11
106.199200
 21
146.144520
 31
0.0
  0
ENDSEC
  0
SECTION
  2
OBJECTS
  0
DICTIONARY
  5
C
330
0
100
AcDbDictionary
  3
ACAD_GROUP
350
D
  3
ACAD_MLINESTYLE
350
17
  0
DICTIONARY
  5
D
330
C
100
AcDbDictionary
  0
DICTIONARY
  5
1A
330
C
100
AcDbDictionary
  0
DICTIONARY
  5
17
330
C
100
AcDbDictionary
  3
STANDARD
350
18
  0
DICTIONARY
  5
19
330
C
100
AcDbDictionary
  0
ENDSEC
  0
EOF
