<?xml version="1.0" encoding="UTF-8" standalone="no"?>
<!-- Created with Inkscape (http://www.inkscape.org/) -->

<svg
   width="210mm"
   height="297mm"
   viewBox="0 0 210 297"
   version="1.1"
   id="svg2083"
   inkscape:version="1.2.1 (9c6d41e410, 2022-07-14)"
   sodipodi:docname="circular scanimation 0-9 - two sectors_export.svg"
   xmlns:inkscape="http://www.inkscape.org/namespaces/inkscape"
   xmlns:sodipodi="http://sodipodi.sourceforge.net/DTD/sodipodi-0.dtd"
   xmlns="http://www.w3.org/2000/svg"
   xmlns:svg="http://www.w3.org/2000/svg">
  <sodipodi:namedview
     id="namedview2085"
     pagecolor="#ffffff"
     bordercolor="#000000"
     borderopacity="0.25"
     inkscape:showpageshadow="2"
     inkscape:pageopacity="0.0"
     inkscape:pagecheckerboard="0"
     inkscape:deskcolor="#d1d1d1"
     inkscape:document-units="mm"
     showgrid="false"
     inkscape:zoom="1.1849519"
     inkscape:cx="209.71315"
     inkscape:cy="506.34967"
     inkscape:window-width="2560"
     inkscape:window-height="1494"
     inkscape:window-x="-11"
     inkscape:window-y="-11"
     inkscape:window-maximized="1"
     inkscape:current-layer="layer1" />
  <defs
     id="defs2080">
    <inkscape:path-effect
       effect="copy_rotate"
       starting_point="109.39309,148.30427"
       origin="105,148.30427"
       id="path-effect717"
       is_visible="true"
       lpeversion="1.2"
       lpesatellites=""
       method="normal"
       num_copies="30"
       starting_angle="-85.2"
       rotation_angle="6"
       gap="-0.01"
       copies_to_360="false"
       mirror_copies="false"
       split_items="false"
       link_styles="false" />
    <inkscape:path-effect
       effect="copy_rotate"
       starting_point="109.39309,148.30427"
       origin="105,148.30427"
       id="path-effect710"
       is_visible="true"
       lpeversion="1.2"
       lpesatellites=""
       method="normal"
       num_copies="30"
       starting_angle="-85.2"
       rotation_angle="6"
       gap="-0.01"
       copies_to_360="false"
       mirror_copies="false"
       split_items="false"
       link_styles="false" />
    <inkscape:path-effect
       effect="copy_rotate"
       starting_point="109.39309,148.30427"
       origin="105,148.30427"
       id="path-effect703"
       is_visible="true"
       lpeversion="1.2"
       lpesatellites=""
       method="normal"
       num_copies="30"
       starting_angle="-85.2"
       rotation_angle="6"
       gap="-0.01"
       copies_to_360="false"
       mirror_copies="false"
       split_items="false"
       link_styles="false" />
    <inkscape:path-effect
       effect="copy_rotate"
       starting_point="109.39309,148.30427"
       origin="105,148.30427"
       id="path-effect696"
       is_visible="true"
       lpeversion="1.2"
       lpesatellites=""
       method="normal"
       num_copies="30"
       starting_angle="-85.2"
       rotation_angle="6"
       gap="-0.01"
       copies_to_360="false"
       mirror_copies="false"
       split_items="false"
       link_styles="false" />
    <inkscape:path-effect
       effect="copy_rotate"
       starting_point="109.39309,148.30427"
       origin="105,148.30427"
       id="path-effect689"
       is_visible="true"
       lpeversion="1.2"
       lpesatellites=""
       method="normal"
       num_copies="30"
       starting_angle="-85.2"
       rotation_angle="6"
       gap="-0.01"
       copies_to_360="false"
       mirror_copies="false"
       split_items="false"
       link_styles="false" />
    <inkscape:path-effect
       effect="copy_rotate"
       starting_point="109.39309,148.30427"
       origin="105,148.30427"
       id="path-effect615"
       is_visible="true"
       lpeversion="1.2"
       lpesatellites=""
       method="normal"
       num_copies="60"
       starting_angle="-85.2"
       rotation_angle="6"
       gap="-0.01"
       copies_to_360="true"
       mirror_copies="false"
       split_items="false"
       link_styles="false" />
    <inkscape:path-effect
       effect="copy_rotate"
       starting_point="109.39309,148.30427"
       origin="105,148.30427"
       id="path-effect609"
       is_visible="true"
       lpeversion="1.2"
       lpesatellites=""
       method="normal"
       num_copies="60"
       starting_angle="-85.2"
       rotation_angle="6"
       gap="-0.01"
       copies_to_360="true"
       mirror_copies="false"
       split_items="false"
       link_styles="false" />
    <inkscape:path-effect
       effect="copy_rotate"
       starting_point="109.39309,148.30427"
       origin="105,148.30427"
       id="path-effect603"
       is_visible="true"
       lpeversion="1.2"
       lpesatellites=""
       method="normal"
       num_copies="60"
       starting_angle="-85.2"
       rotation_angle="6"
       gap="-0.01"
       copies_to_360="true"
       mirror_copies="false"
       split_items="false"
       link_styles="false" />
    <inkscape:path-effect
       effect="copy_rotate"
       starting_point="109.39309,148.30427"
       origin="105,148.30427"
       id="path-effect597"
       is_visible="true"
       lpeversion="1.2"
       lpesatellites=""
       method="normal"
       num_copies="60"
       starting_angle="-85.2"
       rotation_angle="6"
       gap="-0.01"
       copies_to_360="true"
       mirror_copies="false"
       split_items="false"
       link_styles="false" />
    <inkscape:path-effect
       effect="copy_rotate"
       starting_point="109.39309,148.30427"
       origin="105,148.30427"
       id="path-effect587"
       is_visible="true"
       lpeversion="1.2"
       lpesatellites=""
       method="normal"
       num_copies="60"
       starting_angle="-85.2"
       rotation_angle="12"
       gap="-0.01"
       copies_to_360="true"
       mirror_copies="false"
       split_items="false"
       link_styles="false" />
    <inkscape:path-effect
       effect="copy_rotate"
       starting_point="109.39309,148.30427"
       origin="105,148.30427"
       id="path-effect581"
       is_visible="true"
       lpeversion="1.2"
       lpesatellites=""
       method="normal"
       num_copies="30"
       starting_angle="-85.2"
       rotation_angle="6"
       gap="-0.01"
       copies_to_360="false"
       mirror_copies="false"
       split_items="false"
       link_styles="false" />
    <inkscape:path-effect
       effect="copy_rotate"
       starting_point="109.39309,148.30427"
       origin="105,148.30427"
       id="path-effect575"
       is_visible="true"
       lpeversion="1.2"
       lpesatellites=""
       method="normal"
       num_copies="30"
       starting_angle="-85.2"
       rotation_angle="6"
       gap="-0.01"
       copies_to_360="false"
       mirror_copies="false"
       split_items="false"
       link_styles="false" />
    <inkscape:path-effect
       effect="copy_rotate"
       starting_point="109.39309,148.30427"
       origin="105,148.30427"
       id="path-effect569"
       is_visible="true"
       lpeversion="1.2"
       lpesatellites=""
       method="normal"
       num_copies="30"
       starting_angle="-85.2"
       rotation_angle="6"
       gap="-0.01"
       copies_to_360="false"
       mirror_copies="false"
       split_items="false"
       link_styles="false" />
    <inkscape:path-effect
       effect="copy_rotate"
       starting_point="109.39309,148.30427"
       origin="105,148.30427"
       id="path-effect562"
       is_visible="true"
       lpeversion="1.2"
       lpesatellites=""
       method="normal"
       num_copies="30"
       starting_angle="-85.2"
       rotation_angle="6"
       gap="-0.01"
       copies_to_360="false"
       mirror_copies="false"
       split_items="false"
       link_styles="false" />
    <inkscape:path-effect
       effect="copy_rotate"
       starting_point="109.39309,148.30427"
       origin="105,148.30427"
       id="path-effect1284"
       is_visible="true"
       lpeversion="1.2"
       lpesatellites=""
       method="normal"
       num_copies="30"
       starting_angle="-85.2"
       rotation_angle="6"
       gap="-0.01"
       copies_to_360="false"
       mirror_copies="false"
       split_items="false"
       link_styles="false" />
    <inkscape:path-effect
       effect="copy_rotate"
       starting_point="109.94069,148.30428"
       origin="105,148.30428"
       id="path-effect2022"
       is_visible="true"
       lpeversion="1.2"
       lpesatellites=""
       method="normal"
       num_copies="60"
       starting_angle="0"
       rotation_angle="6"
       gap="-0.01"
       copies_to_360="true"
       mirror_copies="false"
       split_items="false"
       link_styles="false" />
    <inkscape:path-effect
       effect="copy_rotate"
       starting_point="109.94069,148.30428"
       origin="105,148.30428"
       id="path-effect2015"
       is_visible="true"
       lpeversion="1.2"
       lpesatellites=""
       method="normal"
       num_copies="60"
       starting_angle="0"
       rotation_angle="6"
       gap="-0.01"
       copies_to_360="true"
       mirror_copies="false"
       split_items="false"
       link_styles="false" />
    <inkscape:path-effect
       effect="copy_rotate"
       starting_point="109.94069,148.30428"
       origin="105,148.30428"
       id="path-effect2008"
       is_visible="true"
       lpeversion="1.2"
       lpesatellites=""
       method="normal"
       num_copies="60"
       starting_angle="0"
       rotation_angle="6"
       gap="-0.01"
       copies_to_360="true"
       mirror_copies="false"
       split_items="false"
       link_styles="false" />
    <inkscape:path-effect
       effect="copy_rotate"
       starting_point="109.94069,148.30428"
       origin="105,148.30428"
       id="path-effect2001"
       is_visible="true"
       lpeversion="1.2"
       lpesatellites=""
       method="normal"
       num_copies="60"
       starting_angle="0"
       rotation_angle="6"
       gap="-0.01"
       copies_to_360="true"
       mirror_copies="false"
       split_items="false"
       link_styles="false" />
    <inkscape:path-effect
       effect="copy_rotate"
       starting_point="109.94069,148.30428"
       origin="105,148.30428"
       id="path-effect1994"
       is_visible="true"
       lpeversion="1.2"
       lpesatellites=""
       method="normal"
       num_copies="60"
       starting_angle="0"
       rotation_angle="6"
       gap="-0.01"
       copies_to_360="true"
       mirror_copies="false"
       split_items="false"
       link_styles="false" />
    <inkscape:path-effect
       effect="copy_rotate"
       starting_point="109.94069,148.30428"
       origin="105,148.30428"
       id="path-effect1987"
       is_visible="true"
       lpeversion="1.2"
       lpesatellites=""
       method="normal"
       num_copies="60"
       starting_angle="0"
       rotation_angle="6"
       gap="-0.01"
       copies_to_360="true"
       mirror_copies="false"
       split_items="false"
       link_styles="false" />
    <inkscape:path-effect
       effect="copy_rotate"
       starting_point="109.94069,148.30428"
       origin="105,148.30428"
       id="path-effect1980"
       is_visible="true"
       lpeversion="1.2"
       lpesatellites=""
       method="normal"
       num_copies="60"
       starting_angle="0"
       rotation_angle="6"
       gap="-0.01"
       copies_to_360="true"
       mirror_copies="false"
       split_items="false"
       link_styles="false" />
    <inkscape:path-effect
       effect="copy_rotate"
       starting_point="109.94069,148.30428"
       origin="105,148.30428"
       id="path-effect1973"
       is_visible="true"
       lpeversion="1.2"
       lpesatellites=""
       method="normal"
       num_copies="60"
       starting_angle="0"
       rotation_angle="6"
       gap="-0.01"
       copies_to_360="true"
       mirror_copies="false"
       split_items="false"
       link_styles="false" />
    <inkscape:path-effect
       effect="copy_rotate"
       starting_point="109.94069,148.30428"
       origin="105,148.30428"
       id="path-effect1925"
       is_visible="true"
       lpeversion="1.2"
       lpesatellites=""
       method="normal"
       num_copies="60"
       starting_angle="0"
       rotation_angle="6"
       gap="-0.01"
       copies_to_360="true"
       mirror_copies="false"
       split_items="false"
       link_styles="false" />
    <inkscape:path-effect
       effect="copy_rotate"
       starting_point="109.94069,148.30428"
       origin="105,148.30428"
       id="path-effect1918"
       is_visible="true"
       lpeversion="1.2"
       lpesatellites=""
       method="normal"
       num_copies="60"
       starting_angle="0"
       rotation_angle="6"
       gap="-0.01"
       copies_to_360="true"
       mirror_copies="false"
       split_items="false"
       link_styles="false" />
    <inkscape:path-effect
       effect="copy_rotate"
       starting_point="109.94069,148.30428"
       origin="105,148.30428"
       id="path-effect1822"
       is_visible="true"
       lpeversion="1.2"
       lpesatellites=""
       method="normal"
       num_copies="60"
       starting_angle="0"
       rotation_angle="6"
       gap="-0.01"
       copies_to_360="true"
       mirror_copies="false"
       split_items="false"
       link_styles="false" />
    <inkscape:path-effect
       effect="copy_rotate"
       starting_point="109.94069,148.30428"
       origin="105,148.30428"
       id="path-effect1546"
       is_visible="true"
       lpeversion="1.2"
       lpesatellites=""
       method="normal"
       num_copies="60"
       starting_angle="0"
       rotation_angle="60"
       gap="-0.01"
       copies_to_360="true"
       mirror_copies="false"
       split_items="false"
       link_styles="false" />
    <inkscape:path-effect
       effect="copy_rotate"
       starting_point="107.47309,148.30428"
       origin="105,148.30428"
       id="path-effect1542"
       is_visible="true"
       lpeversion="1.2"
       lpesatellites=""
       method="normal"
       num_copies="120"
       starting_angle="0"
       rotation_angle="360"
       gap="-0.01"
       copies_to_360="true"
       mirror_copies="false"
       split_items="false"
       link_styles="false" />
    <inkscape:path-effect
       effect="copy_rotate"
       starting_point="108.49799,148.30428"
       origin="105,148.30428"
       id="path-effect998"
       is_visible="true"
       lpeversion="1.2"
       lpesatellites=""
       method="normal"
       num_copies="60"
       starting_angle="0"
       rotation_angle="60"
       gap="-0.01"
       copies_to_360="true"
       mirror_copies="false"
       split_items="false"
       link_styles="false" />
    <inkscape:path-effect
       effect="copy_rotate"
       starting_point="114.6624,121.32478"
       origin="111.67686,121.32478"
       id="path-effect996"
       is_visible="true"
       lpeversion="1.2"
       lpesatellites=""
       method="normal"
       num_copies="6"
       starting_angle="0"
       rotation_angle="60"
       gap="-0.01"
       copies_to_360="true"
       mirror_copies="false"
       split_items="false"
       link_styles="false" />
    <inkscape:path-effect
       effect="copy_rotate"
       starting_point="106.64906,148.30428"
       origin="105,148.30428"
       id="path-effect993"
       is_visible="false"
       lpeversion="1.2"
       lpesatellites=""
       method="normal"
       num_copies="60"
       starting_angle="0"
       rotation_angle="6"
       gap="-0.01"
       copies_to_360="true"
       mirror_copies="false"
       split_items="false"
       link_styles="false" />
    <inkscape:path-effect
       effect="bend_path"
       id="path-effect1196"
       is_visible="true"
       lpeversion="1"
       bendpath="#path989"
       prop_scale="1.4"
       scale_y_rel="false"
       vertical="false"
       hide_knot="false" />
    <inkscape:path-effect
       effect="bend_path"
       id="path-effect1054"
       is_visible="true"
       lpeversion="1"
       bendpath="M0,0 L1,0"
       prop_scale="1.4"
       scale_y_rel="false"
       vertical="false"
       hide_knot="false" />
    <inkscape:path-effect
       effect="copy_rotate"
       starting_point="107.70906,148.30428"
       origin="105,148.30428"
       id="path-effect4657"
       is_visible="true"
       lpeversion="1.2"
       lpesatellites=""
       method="normal"
       num_copies="59"
       starting_angle="0"
       rotation_angle="6"
       gap="-0.01"
       copies_to_360="true"
       mirror_copies="false"
       split_items="false"
       link_styles="false" />
    <inkscape:path-effect
       effect="copy_rotate"
       starting_point="107.70906,148.30428"
       origin="105,148.30428"
       id="path-effect4651"
       is_visible="false"
       lpeversion="1.2"
       lpesatellites=""
       method="normal"
       num_copies="60"
       starting_angle="0"
       rotation_angle="60"
       gap="-0.01"
       copies_to_360="true"
       mirror_copies="false"
       split_items="false"
       link_styles="false" />
    <clipPath
       clipPathUnits="userSpaceOnUse"
       id="clipPath1221">
      <path
         style="display:inline;fill:#000000;fill-opacity:1;stroke:#000000;stroke-width:0.1"
         d="M 105,148.30427 110.41811,43.444159 105,43.304274 M 105,148.30427 99.241468,43.462303 93.839183,43.89912 M 105,148.30427 88.130072,44.668348 82.804823,45.676918 M 105,148.30427 77.209819,47.04863 72.021943,48.617525 M 105,148.30427 66.60444,50.576178 61.612718,52.687623 m 43.387272,95.616647 -48.565892,-93.093244 -4.73901,2.63007 M 104.99999,148.30427 46.814027,60.900657 42.381424,64.019553 M 104.99999,148.30427 37.853226,67.580605 33.777253,71.15299 m 71.222737,77.15128 -75.346765,-73.129084 -3.67316,3.985395 M 104.99999,148.30427 22.306933,83.598348 19.078204,87.951598 M 104.99999,148.30428 15.897587,92.754654 13.149871,97.426436 M 104.99999,148.30428 10.497807,102.54036 8.2622368,107.47774 M 104.99999,148.30428 6.1687739,112.84459 4.4706802,117.99162 M 104.99999,148.30428 2.9595385,123.55059 1.818161,128.84896 M 104.99999,148.30428 0.90646222,134.53706 0.33473328,139.92674 M 104.99999,148.30428 0.03280735,145.67952 l 0.0043975,5.41991 M 104.99999,148.30428 0.3484727,156.85172 0.9289468,162.24046 M 104.99999,148.30428 1.8498817,167.92707 2.9998554,173.22358 M 104.99999,148.30428 4.5200227,178.78009 l 1.7064437,5.14427 m 98.7735236,-35.62008 -96.671348,40.98353 2.243579,4.93374 m 94.427769,-45.91726 -91.767404,51.02687 2.755294,4.66732 m 89.01211,-55.69419 -85.823698,60.49207 3.23579,4.34801 m 82.587908,-64.84008 -78.907575,69.27187 3.679623,3.97943 m 75.227952,-73.2513 -71.097398,77.2668 4.081765,3.56576 m 67.015633,-80.83256 -62.481658,84.38626 4.437658,3.1117 M 105,148.30429 l -53.157987,90.54959 4.743272,2.62237 M 105,148.30429 l -43.232004,95.68695 4.995141,2.10334 M 105,148.30429 l -32.816185,99.74015 5.190414,1.56047 M 105,148.30429 82.971454,250.96754 l 5.326878,0.99992 M 105,148.30429 94.008685,252.72742 l 5.402986,0.42805 M 105,148.30429 l 0.17045,104.99986 5.41788,-0.14868 M 105,148.30429 l 11.33029,104.38689 5.37138,-0.72372 M 105,148.30429 l 22.36175,102.59118 5.26402,-1.29056 M 105,148.30429 l 33.13984,99.63308 5.09702,-1.84279 M 105,148.30429 l 43.54244,95.54609 4.87228,-2.37413 m -48.41471,-93.17196 53.45169,90.37652 4.59231,-2.87856 m -58.044,-87.49796 62.75531,84.18295 4.26032,-3.35039 m -67.01563,-80.83256 71.34789,77.03556 3.88006,-3.78426 m -75.22795,-73.2513 79.13207,69.01532 3.45584,-4.17524 m -82.58791,-64.84008 86.01965,60.21311 2.99246,-4.51892 m -89.01211,-55.6942 91.93259,50.72867 2.49518,-4.8114 m -94.42777,-45.91727 96.8039,40.66945 1.96962,-5.04937 m -98.77352,-35.62008 100.57838,30.14942 1.42175,-5.23012 m -102.00013,-24.9193 103.21327,19.28779 0.85777,-5.35161 m -104.07104,-13.93618 104.67872,8.20762 0.28407,-5.41247 m -104.96279,-2.79515 104.95811,-2.96554 -0.29285,-5.412 m -104.66526,8.37754 104.04828,-14.10511 -0.86645,-5.35021 m -103.18183,19.45532 101.95955,-25.08485 -1.43024,-5.22781 m -100.52931,30.31266 98.71557,-35.78038 -1.97782,-5.04616 m -96.73775,40.82654 94.3531,-46.0705 -2.50298,-4.807344 m -91.85012,50.877834 88.92158,-55.838613 -2.99979,-4.514059 m -85.92179,60.352672 82.48254,-64.974062 -3.46261,-4.169627 m -79.01993,69.143689 75.10894,-73.373328 -3.8862,-3.777952 m -71.22274,77.15128 66.88432,-80.941246 -4.26575,-3.343471 m -62.61857,84.284717 57.90188,-87.592066 -4.59698,-2.871108 M 105,148.30427 153.2634,55.053837 148.38728,52.687623 M 105,148.30427 l 38.07806,-97.852236 -5.1,-1.834509 M 105,148.30427 132.46129,46.958937 127.19518,45.676918 M 105,148.30427 121.53336,44.614122 116.16082,43.89912"
         id="path1223"
         transform="rotate(-32.629983,104.99775,148.30491)"
         inkscape:label="base layer"
         inkscape:original-d="M 105,148.30427 110.41811,43.444159 105,43.304274"
         inkscape:path-effect="#path-effect4657"
         class="UnoptimicedTransforms" />
    </clipPath>
  </defs>
  <g
     inkscape:label="Ebene 1"
     inkscape:groupmode="layer"
     id="layer1">
    <g
       id="g4172"
       inkscape:label="base layer">
      <g
         id="g45517"
         inkscape:label="upper numbers">
        <path
           id="text45039"
           style="font-weight:bold;font-size:77.457px;font-family:Arial;-inkscape-font-specification:'Arial, Bold';fill:#000000;stroke-width:0.154914"
           inkscape:label="0"
           d="M 105.9372 63.214229 L 105.9372 72.026611 L 105.93772 72.026611 C 106.40209 72.026611 106.84606 72.082949 107.27097 72.191459 L 107.45752 63.273657 C 106.96073 63.237912 106.45639 63.214229 105.93772 63.214229 L 105.9372 63.214229 z M 99.918966 64.178512 C 99.420045 64.354942 98.936287 64.555401 98.467891 64.780542 L 99.92465 78.638094 C 99.996044 78.291518 100.07081 77.96332 100.15099 77.661926 C 100.3598 76.864652 100.60082 76.160878 100.87395 75.549394 L 99.918966 64.178512 z M 113.40548 64.795528 L 111.95286 78.614323 C 112.22327 79.784877 112.4299 81.348975 112.57401 83.306543 L 114.81366 65.578426 C 114.36057 65.290816 113.89075 65.030555 113.40548 64.795528 z M 93.207747 69.114644 C 92.817699 69.626048 92.448113 70.170087 92.101355 70.751237 L 102.4661 119.51415 C 102.58883 119.53727 102.71103 119.56129 102.83507 119.58185 L 100.06573 105.0649 C 100.05661 105.03178 100.04688 105.00222 100.03782 104.96879 C 99.855901 104.29008 99.700036 103.44914 99.568599 102.45783 L 93.207747 69.114644 z M 119.7715 70.760022 L 109.40366 119.53534 C 109.52821 119.51325 109.65482 119.49431 109.7778 119.46971 L 120.76317 72.636393 C 120.45492 71.974303 120.12462 71.347741 119.7715 70.760022 z M 88.946509 79.568787 C 88.779519 80.414287 88.635441 81.296749 88.509843 82.208936 L 100.46725 119.01082 C 100.6088 119.05675 100.75112 119.10053 100.89462 119.1426 L 88.946509 79.568787 z M 123.36198 82.217204 L 111.39113 119.05992 C 111.54072 119.01355 111.68704 118.96163 111.834 118.91109 L 123.66429 84.939518 C 123.58182 84.001832 123.48209 83.092496 123.36198 82.217204 z M 87.951221 93.057886 C 87.965912 93.93886 87.992995 94.79519 88.031836 95.628788 L 97.967664 117.94526 C 98.154703 118.04578 98.343445 118.14267 98.534554 118.23516 L 87.951221 93.057886 z M 123.8374 95.641191 L 113.86333 118.04344 C 114.07194 117.93378 114.27548 117.81592 114.47777 117.69618 L 123.65809 98.186772 C 123.73199 97.361135 123.79302 96.514792 123.8374 95.641191 z M 89.333049 105.64213 C 89.592882 106.70817 89.889605 107.70098 90.221883 108.62489 L 93.583952 114.44831 C 94.008716 114.92304 94.449281 115.36707 94.905835 115.77898 L 89.333049 105.64213 z M 121.19519 109.41813 L 118.37779 114.29742 C 118.41597 114.25036 118.45625 114.20658 118.49406 114.15892 C 119.54749 112.8275 120.44739 111.24622 121.19519 109.41813 z M 109.21039 109.93437 C 109.01797 110.07769 108.82195 110.21023 108.61973 110.32505 L 107.62754 119.7622 C 107.74244 119.75306 107.85851 119.74586 107.97222 119.73481 L 109.21039 109.93437 z M 103.2552 110.32453 L 104.24635 119.75651 C 104.35975 119.7662 104.47404 119.77414 104.58845 119.78184 L 103.81744 110.59842 C 103.62641 110.51782 103.4382 110.42847 103.2552 110.32453 z M 106.4581 110.99529 C 106.28712 111.01044 106.11391 111.0201 105.93772 111.0201 L 105.9372 111.0201 L 105.9372 119.83248 L 105.93772 119.83248 C 106.05106 119.83248 106.16081 119.82641 106.2731 119.82473 L 106.4581 110.99529 z " />
        <path
           id="text45463"
           style="font-weight:bold;font-size:77.457px;font-family:Arial;-inkscape-font-specification:'Arial, Bold';fill:#000000;stroke-width:0.154914"
           inkscape:label="1"
           d="M 115.05344 63.687069 L 108.01925 119.35964 L 108.37168 119.35964 L 116.59237 63.687069 L 115.05344 63.687069 z M 108.90136 65.125741 C 108.47121 66.056641 107.95877 66.954064 107.36192 67.817049 L 107.11439 79.647852 C 107.23914 79.534423 107.36518 79.42264 107.48853 79.307304 L 107.48853 98.833761 L 108.90136 65.125741 z M 101.99481 73.178996 C 101.57579 73.490341 101.16079 73.788585 100.74992 74.072481 L 101.56589 83.788684 C 101.92152 83.573423 102.27352 83.353091 102.62061 83.126192 L 101.99481 73.178996 z M 95.959517 76.85164 C 95.561797 77.033518 95.168438 77.200912 94.779744 77.352384 L 96.495402 86.347184 C 96.830997 86.208575 97.163867 86.066351 97.493274 85.919303 L 95.959517 76.85164 z M 118.11579 83.921493 L 109.80363 119.35964 L 110.17002 119.35964 L 118.11579 88.413208 L 118.11579 83.921493 z M 118.11579 100.87343 L 111.67794 119.35964 L 112.06809 119.35964 L 118.11579 103.09758 L 118.11579 100.87343 z M 118.11579 109.96435 L 113.69487 119.35964 L 114.12068 119.35964 L 118.11579 111.31207 L 118.11579 109.96435 z M 118.11579 115.73557 L 115.92109 119.35964 L 116.39858 119.35964 L 118.11579 116.65386 L 118.11579 115.73557 z " />
        <path
           id="text45467"
           style="font-weight:bold;font-size:77.457px;font-family:Arial;-inkscape-font-specification:'Arial, Bold';fill:#000000;stroke-width:0.154914"
           inkscape:label="2"
           d="M 108.95872 63.755282 L 108.58459 72.671533 C 109.04704 72.762199 109.48115 72.889508 109.88838 73.052389 L 110.46302 63.911861 C 109.97203 63.84652 109.4728 63.791575 108.95872 63.755282 z M 102.92602 63.999194 C 102.41861 64.080433 101.92159 64.177311 101.43515 64.290649 L 102.04287 73.947424 C 102.43266 73.641847 102.8549 73.384097 103.31049 73.175378 L 102.92602 63.999194 z M 116.30556 65.63372 L 111.03715 101.30906 C 111.33442 101.03458 111.5958 100.79027 111.91565 100.49671 L 117.68119 66.410933 C 117.23996 66.130052 116.78138 65.871089 116.30556 65.63372 z M 95.720256 66.653813 C 95.300898 66.920656 94.892895 67.204128 94.497074 67.506991 C 94.461682 67.534071 94.428809 67.564286 94.393722 67.59174 L 96.646297 80.910307 L 97.843123 81.029679 L 95.720256 66.653813 z M 122.49847 71.341899 L 116.01876 96.580151 C 116.46836 96.127366 116.88214 95.699396 117.25848 95.297542 L 123.43381 73.18158 C 123.16933 72.546571 122.85593 71.934165 122.49847 71.341899 z M 90.002775 73.784644 C 89.720594 74.520208 89.472519 75.296809 89.262252 76.120418 L 90.425488 80.288123 L 91.705514 80.41628 L 90.002775 73.784644 z M 108.84194 89.679797 C 108.52846 90.004628 108.18684 90.351564 107.82908 90.710742 L 107.23428 104.89541 C 107.46385 104.67117 107.65944 104.47606 107.92726 104.21948 L 108.84194 89.679797 z M 104.19312 94.235075 C 103.92546 94.487742 103.64951 94.7471 103.36837 95.010221 L 104.20656 108.33344 C 104.37844 108.08796 104.56077 107.84105 104.7533 107.5924 L 104.19312 94.235075 z M 100.33238 97.886532 C 100.09641 98.115383 99.861009 98.343502 99.632678 98.568144 L 103.14926 119.35964 L 103.50324 119.35964 L 100.33238 97.886532 z M 97.041622 101.19796 C 96.836214 101.41398 96.638794 101.62521 96.441659 101.83668 L 101.33438 119.35964 L 101.70439 119.35964 L 97.041622 101.19796 z M 94.218022 104.33265 C 94.041715 104.54097 93.870997 104.74565 93.704358 104.94863 L 99.409953 119.35964 L 99.806311 119.35964 L 94.218022 104.33265 z M 91.823853 107.4136 C 91.675841 107.62655 91.536159 107.83544 91.401656 108.04095 L 97.319124 119.35964 L 97.753723 119.35964 L 91.823853 107.4136 z M 104.27891 109.48841 L 104.90006 119.35964 L 105.24629 119.35964 L 104.83288 109.48841 L 104.27891 109.48841 z M 107.04205 109.48841 L 106.62863 119.35964 L 106.97435 119.35964 L 107.5955 109.48841 L 107.04205 109.48841 z M 109.82896 109.48841 L 108.37116 119.35964 L 108.72566 119.35964 L 110.39481 109.48841 L 109.82896 109.48841 z M 112.70423 109.48841 L 110.1695 119.35964 L 110.54002 119.35964 L 113.29593 109.48841 L 112.70423 109.48841 z M 115.73919 109.48841 L 112.06809 119.35964 L 112.46394 119.35964 L 116.37222 109.48841 L 115.73919 109.48841 z M 119.02116 109.48841 L 114.12068 119.35964 L 114.5558 119.35964 L 119.71672 109.48841 L 119.02116 109.48841 z M 122.66383 109.48841 L 116.3991 119.35964 L 116.89002 119.35964 L 123.44828 109.48841 L 122.66383 109.48841 z M 89.921126 110.60772 C 89.811689 110.82374 89.705213 111.04068 89.602283 111.25833 L 94.984383 119.35964 L 95.475309 119.35964 L 89.921126 110.60772 z M 124.56449 112.3425 L 119.00307 119.35964 L 119.57461 119.35964 L 124.56449 113.32797 L 124.56449 112.3425 z M 88.531547 113.88452 C 88.456207 114.10339 88.384155 114.32297 88.315023 114.5434 L 92.299276 119.35964 L 92.871334 119.35964 L 88.531547 113.88452 z M 124.56449 116.82336 L 122.0804 119.35964 L 122.7708 119.35964 L 124.56449 117.60316 L 124.56449 116.82336 z M 87.646847 117.16753 C 87.604162 117.38316 87.564532 117.59954 87.527474 117.81658 L 89.103088 119.35964 L 89.793486 119.35964 L 87.646847 117.16753 z " />
        <path
           id="text45471"
           style="font-weight:bold;font-size:77.457px;font-family:Arial;-inkscape-font-specification:'Arial, Bold';fill:#000000;stroke-width:0.154914"
           inkscape:label="3"
           d="M 104.41637 63.23645 C 103.90196 63.258337 103.39636 63.297994 102.89915 63.354272 L 103.26967 72.191976 C 103.6948 72.074798 104.13802 72.000874 104.5993 71.969767 L 104.41637 63.23645 z M 110.46871 63.821427 L 109.83206 73.944324 C 110.35779 74.563433 110.73172 75.285919 110.95292 76.112667 L 111.94717 64.273596 C 111.46752 64.101717 110.97447 63.95129 110.46871 63.821427 z M 96.989945 65.019287 C 96.501524 65.251048 96.03501 65.501063 95.589514 65.768595 L 97.584224 79.274748 L 98.10874 79.364148 C 98.197564 78.588962 98.338673 77.873739 98.530937 77.217509 L 96.989945 65.019287 z M 117.4626 67.703361 L 112.48306 97.143424 C 112.70947 97.593161 112.89735 98.072303 113.0453 98.582613 L 114.81263 89.315995 C 114.5077 89.230993 114.19766 89.152067 113.87987 89.083968 C 114.26025 88.87665 114.62533 88.663653 114.97851 88.446281 L 118.68526 69.015942 C 118.45632 68.74315 118.21863 68.472742 117.96489 68.206689 C 117.80087 68.033478 117.63222 67.867558 117.4626 67.703361 z M 90.683354 70.809631 C 90.34575 71.417569 90.033645 72.075929 89.74646 72.784705 L 91.131388 78.178691 L 92.465157 78.405033 L 90.683354 70.809631 z M 121.71712 79.327458 L 120.9921 81.923682 C 121.33593 81.096118 121.57804 80.230712 121.71712 79.327458 z M 110.51935 81.281344 C 110.20734 81.93476 109.78716 82.526844 109.25845 83.057463 L 108.59854 93.547778 C 108.89291 93.660953 109.17801 93.796953 109.45533 93.952405 L 110.51935 81.281344 z M 104.8737 85.088346 C 104.53394 85.139004 104.18045 85.176143 103.81434 85.199967 L 104.15178 93.241854 C 104.458 93.198112 104.75614 93.162565 105.04268 93.138501 L 104.8737 85.088346 z M 118.47597 90.936051 L 110.55501 119.30538 C 110.6918 119.27377 110.82636 119.23805 110.9617 119.20358 L 119.31726 91.529297 C 119.04547 91.320168 118.76526 91.1222 118.47597 90.936051 z M 122.2313 94.690344 L 112.74454 118.65167 C 112.91236 118.59002 113.0794 118.52697 113.24477 118.46047 L 122.81938 95.683049 C 122.63921 95.34403 122.44319 95.013084 122.2313 94.690344 z M 124.28699 100.74631 L 115.6472 117.27243 C 115.90577 117.11881 116.16099 116.95828 116.41253 116.7908 L 124.35417 102.34517 C 124.35434 102.3117 124.35623 102.27898 124.35623 102.24544 C 124.35623 101.73383 124.33159 101.23503 124.28699 100.74631 z M 97.806433 102.92653 L 97.494824 102.96426 L 101.73798 119.48986 C 101.86428 119.51227 101.98913 119.53738 102.11676 119.55756 L 99.285413 107.48388 C 98.526637 106.26057 98.033379 104.7421 97.806433 102.92653 z M 94.608695 103.31462 L 93.872306 103.40402 L 99.67712 119.01289 C 99.82199 119.05539 99.970044 119.09256 100.11689 119.13175 L 94.608695 103.31462 z M 90.844584 103.77093 L 90.063236 103.86601 L 97.091748 118.02484 C 97.284383 118.11645 97.479409 118.20427 97.676208 118.2889 L 90.844584 103.77093 z M 87.779138 105.86227 C 87.937785 106.67122 88.143129 107.4501 88.393571 108.20063 L 92.718888 115.01675 C 92.897737 115.18734 93.079876 115.35572 93.267692 115.5206 C 93.501871 115.72439 93.741647 115.91882 93.984444 116.10816 L 87.779138 105.86227 z M 111.1374 108.5851 C 110.91014 108.8346 110.67453 109.06438 110.43099 109.2755 L 108.67709 119.64541 C 108.79871 119.62942 108.91773 119.60817 109.03831 119.59012 L 111.1374 108.5851 z M 102.14725 110.17932 L 103.55802 119.73171 C 103.67419 119.7422 103.78861 119.75601 103.9058 119.76478 L 102.72965 110.45424 C 102.53162 110.37146 102.33732 110.28033 102.14725 110.17932 z M 108.05335 110.64699 C 107.87632 110.70614 107.69584 110.75752 107.51282 110.80254 L 106.94696 119.79889 C 107.0608 119.7931 107.17348 119.78464 107.28647 119.77719 L 108.05335 110.64699 z M 104.89541 110.98444 L 105.26541 119.82369 C 105.37751 119.8258 105.48885 119.82926 105.60182 119.8299 L 105.41682 111.01441 C 105.24098 111.00931 105.06665 111.00009 104.89541 110.98444 z " />
        <path
           id="text45475"
           style="font-weight:bold;font-size:77.457px;font-family:Arial;-inkscape-font-specification:'Arial, Bold';fill:#000000;stroke-width:0.154914"
           inkscape:label="4"
           d="M 111.99626 63.687069 L 108.25851 108.20218 L 108.69879 108.20218 L 108.69879 109.57367 L 113.52175 63.687069 L 111.99626 63.687069 z M 118.98602 67.442912 L 109.08171 119.35964 L 109.44138 119.35964 L 118.98602 74.45437 L 118.98602 67.442912 z M 105.9372 69.722359 L 104.59362 71.689164 L 104.88455 85.58289 L 105.9372 84.017611 L 105.9372 69.722359 z M 99.914315 78.538875 L 98.888021 80.041109 L 100.42539 92.211426 L 101.22586 91.021318 L 99.914315 78.538875 z M 95.217961 85.413908 L 94.392171 86.62262 L 96.9238 97.416793 L 97.566138 96.462329 L 95.217961 85.413908 z M 91.377368 91.03527 L 90.685421 92.048128 L 96.310917 108.20218 L 96.955322 108.20218 L 91.377368 91.03527 z M 118.98602 92.625871 L 110.91468 119.35964 L 111.29398 119.35964 L 118.98602 95.685632 L 118.98602 92.625871 z M 88.114001 95.812756 L 87.513521 96.691772 L 92.929728 108.20218 L 93.629944 108.20218 L 88.114001 95.812756 z M 97.262797 98.860632 L 99.453361 108.20218 L 100.06159 108.20218 L 98.076184 98.860632 L 97.262797 98.860632 z M 101.26514 98.860632 L 102.44543 108.20218 L 103.03195 108.20218 L 102.0501 98.860632 L 101.26514 98.860632 z M 105.16257 98.860632 L 105.35843 108.20218 L 105.9372 108.20218 L 105.9372 98.860632 L 105.16257 98.860632 z M 121.48406 98.860632 L 112.86753 119.35964 L 113.27681 119.35964 L 122.40338 98.860632 L 121.48406 98.860632 z M 125.86932 99.58927 L 121.13421 108.20218 L 121.89695 108.20218 L 125.86932 101.32198 L 125.86932 99.58927 z M 86.00612 101.32301 L 86.00612 102.9348 L 89.196106 108.20218 L 89.97797 108.20218 L 86.00612 101.32301 z M 125.86932 107.16659 L 125.14947 108.20218 L 125.86932 108.20218 L 125.86932 107.16659 z M 118.98602 112.10995 L 115.00022 119.35964 L 115.45549 119.35964 L 118.98602 113.24477 L 118.98602 112.10995 z M 118.98602 117.07037 L 117.3949 119.35964 L 117.91425 119.35964 L 118.98602 117.88428 L 118.98602 117.07037 z " />
      </g>
      <g
         id="g45559"
         inkscape:label="lower numbers">
        <path
           id="text45510"
           style="font-weight:bold;font-size:77.1997px;font-family:Arial;-inkscape-font-specification:'Arial, Bold';fill:#000000;stroke:#000000;stroke-width:0.1544;stroke-opacity:1"
           inkscape:label="5"
           d="M 95.477893 153.11572 L 93.423238 156.50879 L 93.139535 158.01103 L 95.965719 153.11572 L 95.477893 153.11572 z M 97.81005 153.11572 L 91.554618 166.41 L 90.984627 169.42842 L 98.24775 153.11572 L 97.81005 153.11572 z M 99.9231 153.11572 L 89.846712 182.05245 L 90.875073 182.20128 L 100.32566 153.11572 L 99.9231 153.11572 z M 101.8868 153.11572 L 94.927022 182.78781 L 95.929028 182.93302 L 102.26663 153.11572 L 101.8868 153.11572 z M 103.75594 153.11572 L 102.5033 163.02984 L 103.08053 163.02984 L 104.12233 153.11572 L 103.75594 153.11572 z M 105.57547 153.11572 L 105.36825 163.02984 L 105.93772 163.02984 L 105.93772 153.11572 L 105.57547 153.11572 z M 107.38776 153.11572 L 108.22027 163.02984 L 108.79491 163.02984 L 107.75311 153.11572 L 107.38776 153.11572 z M 109.23209 153.11572 L 111.12345 163.02984 L 111.71566 163.02984 L 109.60881 153.11572 L 109.23209 153.11572 z M 111.15239 153.11572 L 114.14549 163.02984 L 114.77077 163.02984 L 111.54978 153.11572 L 111.15239 153.11572 z M 113.19826 153.11572 L 117.36545 163.02984 L 118.04137 163.02984 L 113.62769 153.11572 L 113.19826 153.11572 z M 115.43275 153.11572 L 120.88306 163.02984 L 121.63289 163.02984 L 115.9092 153.11572 L 115.43275 153.11572 z M 117.94164 153.11572 L 122.0711 159.05747 L 122.0711 158.0503 L 118.48631 153.11572 L 117.94164 153.11572 z M 120.84534 153.11572 L 122.0711 154.53579 L 122.0711 153.76219 L 121.48871 153.11572 L 120.84534 153.11572 z M 108.86364 170.68622 L 109.66462 180.22983 C 110.02209 180.4539 110.36218 180.71015 110.68368 181.00032 L 109.60623 170.74875 C 109.36103 170.72261 109.1131 170.70221 108.86364 170.68622 z M 105.93772 170.7441 C 105.69274 170.77208 105.44839 170.80601 105.20443 170.8459 L 105.03132 179.09863 C 105.15732 179.09393 105.283 179.08778 105.4101 179.08778 C 105.58871 179.08778 105.76411 179.09359 105.93772 179.10276 L 105.93772 170.7441 z M 112.71715 171.38592 L 118.8098 203.32402 C 119.21975 202.90334 119.61481 202.45643 119.99578 201.98509 L 113.55328 171.67479 C 113.27775 171.57087 112.99928 171.47409 112.71715 171.38592 z M 102.17361 171.65671 C 101.906 171.7568 101.63897 171.86422 101.37262 171.97917 L 100.29207 180.5342 C 100.62204 180.33509 100.95706 180.15672 101.29666 179.99883 L 102.17361 171.65671 z M 117.39594 173.79559 L 123.74542 194.82687 C 123.97771 194.00824 124.15706 193.17023 124.28492 192.31281 L 118.58656 174.77331 C 118.19886 174.42523 117.8021 174.09961 117.39594 173.79559 z M 93.844401 192.73966 L 92.561275 192.87247 L 90.50507 201.63937 C 90.859405 202.12697 91.244806 202.59227 91.654871 203.03929 L 93.844401 192.73966 z M 98.492179 194.78398 L 96.964107 206.87988 C 97.432725 207.09078 97.915151 207.2812 98.411047 207.45245 L 99.531909 196.78747 C 99.108214 196.18361 98.760892 195.51644 98.492179 194.78398 z M 112.26188 196.01439 C 111.99052 196.52587 111.68044 196.9917 111.32809 197.40759 C 111.26173 197.48483 111.19367 197.55797 111.12603 197.63186 L 111.96423 207.6111 C 112.46237 207.44805 112.94834 207.26358 113.42253 207.05868 L 112.26188 196.01439 z M 104.59362 200.00226 L 104.41482 208.53714 C 104.80425 208.55407 105.19763 208.56556 105.59872 208.56556 C 105.71251 208.56556 105.82482 208.56298 105.93772 208.56143 L 105.93772 200.07823 C 105.86238 200.08034 105.78753 200.08391 105.71138 200.08391 C 105.32986 200.08391 104.95755 200.05599 104.59362 200.00226 z " />
        <path
           id="text45521"
           style="font-weight:bold;font-size:77.1997px;font-family:Arial;-inkscape-font-specification:'Arial, Bold';fill:#000000;stroke:#000000;stroke-width:0.1544;stroke-opacity:1"
           inkscape:label="6"
           d="M 107.34694 152.62996 C 107.22891 152.63167 107.11113 152.63423 106.99399 152.63771 L 107.54227 161.35243 C 107.72719 161.36388 107.90761 161.38267 108.08436 161.4072 L 107.34694 152.62996 z M 108.78096 152.65683 L 110.40256 162.24333 C 110.638 162.39697 110.8612 162.5706 111.07229 162.76319 L 109.14838 152.67647 C 109.02698 152.66804 108.90368 152.66311 108.78096 152.65683 z M 105.58425 152.72349 C 105.46514 152.7347 105.34686 152.74755 105.22872 152.7607 L 104.85406 161.69659 C 105.03353 161.63433 105.21486 161.57785 105.39977 161.53174 L 105.58425 152.72349 z M 110.6842 152.84493 L 114.73046 167.33759 L 115.42293 167.26111 L 111.09193 152.91573 C 110.95633 152.89165 110.82167 152.86598 110.6842 152.84493 z M 103.77403 152.97619 C 103.64809 152.99967 103.52206 153.02269 103.39731 153.04854 L 101.80826 163.81067 C 102.03004 163.56167 102.25798 163.33117 102.49245 163.11976 L 103.77403 152.97619 z M 112.86029 153.32914 L 118.25273 166.94898 L 118.9793 166.86888 L 113.35277 153.48417 C 113.19023 153.42991 113.02602 153.37825 112.86029 153.32914 z M 101.80774 153.45317 C 101.66518 153.49623 101.52332 153.54058 101.38244 153.58701 L 90.049284 197.72333 C 90.330876 198.41239 90.636476 199.06472 90.964473 199.68239 L 101.80774 153.45317 z M 99.49987 154.33063 C 99.320231 154.41407 99.142628 154.50152 98.966052 154.59108 L 87.593103 185.17268 C 87.644615 186.11632 87.713882 187.03236 87.803943 187.9167 L 99.49987 154.33063 z M 115.69423 154.50633 L 121.98377 166.53764 L 122.76408 166.45186 L 116.43527 154.94041 C 116.19333 154.78745 115.94553 154.64412 115.69423 154.50633 z M 96.344507 156.23077 C 96.047051 156.45533 95.754517 156.69009 95.467558 156.93564 L 88.178597 171.61898 C 88.037357 172.49411 87.918988 173.40344 87.820996 174.34388 L 96.344507 156.23077 z M 108.29365 172.22721 C 108.2712 172.22721 108.24939 172.22866 108.22699 172.22876 L 108.73755 180.34713 C 109.0726 180.45401 109.39627 180.58782 109.70855 180.74917 L 108.99438 172.24375 C 108.76227 172.23418 108.5294 172.22721 108.29365 172.22721 z M 105.16774 172.59463 C 104.90435 172.65882 104.64433 172.73098 104.38794 172.81219 L 104.06497 180.52593 C 104.36979 180.39922 104.6842 180.29747 105.00806 180.21949 L 105.16774 172.59463 z M 112.17145 172.7016 L 117.71219 205.46084 C 118.15629 205.11044 118.58623 204.73446 119.00204 204.33275 L 113.01429 172.94293 C 112.73672 172.85368 112.45538 172.77415 112.17145 172.7016 z M 101.05688 174.48134 C 100.73883 174.70835 100.42806 174.95381 100.12412 175.21514 L 95.675814 205.34199 C 96.11663 205.69567 96.569324 206.0238 97.033354 206.32694 L 101.05688 174.48134 z M 116.82336 174.83326 L 123.21987 197.74297 C 123.49178 196.96876 123.71954 196.16442 123.89631 195.32606 L 117.97161 175.70349 C 117.59694 175.39219 117.21396 175.10269 116.82336 174.83326 z M 111.22525 198.8106 C 110.82591 199.14946 110.40156 199.42946 109.95194 199.65035 L 110.52142 208.70199 C 111.0338 208.60473 111.53617 208.48883 112.02624 208.35111 L 111.22525 198.8106 z M 103.2924 198.95943 L 102.88416 208.69941 C 103.38236 208.79788 103.89003 208.87604 104.40706 208.9335 L 104.59982 199.72838 C 104.15054 199.52751 103.71459 199.27167 103.2924 198.95943 z " />
        <path
           id="text45525"
           style="font-weight:bold;font-size:77.1997px;font-family:Arial;-inkscape-font-specification:'Arial, Bold';fill:#000000;stroke:#000000;stroke-width:0.1544;stroke-opacity:1"
           inkscape:label="7"
           d="M 87.82513 153.58701 L 87.82513 154.34045 L 88.56307 153.58701 L 87.82513 153.58701 z M 91.260063 153.58701 L 87.82513 157.73921 L 87.82513 158.69729 L 91.875529 153.58701 L 91.260063 153.58701 z M 94.150326 153.58701 L 87.82513 163.10684 L 87.82513 163.42568 L 88.433879 163.42568 L 94.677942 153.58701 L 94.150326 153.58701 z M 96.6618 153.58701 L 91.518445 163.42568 L 92.246049 163.42568 L 97.129989 153.58701 L 96.6618 153.58701 z M 98.912826 153.58701 L 95.017456 163.42568 L 95.679948 163.42568 L 99.339156 153.58701 L 98.912826 153.58701 z M 100.98402 153.58701 L 98.236898 163.42568 L 98.855981 163.42568 L 101.38244 153.58701 L 100.98402 153.58701 z M 102.93687 153.58701 L 101.27237 163.42568 L 101.8651 163.42568 L 103.31772 153.58701 L 102.93687 153.58701 z M 104.82099 153.58701 L 104.20243 163.42568 L 104.78172 163.42568 L 105.1941 153.58701 L 104.82099 153.58701 z M 106.68134 153.58701 L 107.09372 163.42568 L 107.67301 163.42568 L 107.05393 153.58701 L 106.68134 153.58701 z M 108.55771 153.58701 L 110.01034 163.42568 L 110.60255 163.42568 L 108.93857 153.58701 L 108.55771 153.58701 z M 110.493 153.58701 L 115.47357 172.98427 C 115.6619 172.65753 115.84993 172.33615 116.03788 172.01896 L 110.89194 153.58701 L 110.493 153.58701 z M 112.53628 153.58701 L 118.14111 168.65844 C 118.30671 168.40863 118.47242 168.16279 118.63772 167.9205 L 112.96261 153.58701 L 112.53628 153.58701 z M 114.74493 153.58701 L 120.5482 165.27828 C 120.70373 165.0763 120.85905 164.87872 121.01432 164.68349 L 115.21312 153.58701 L 114.74493 153.58701 z M 117.1975 153.58701 L 122.86123 162.51204 C 123.01617 162.34291 123.17114 162.17878 123.32581 162.01647 L 117.72563 153.58701 L 117.1975 153.58701 z M 120.00043 153.58701 L 124.05031 158.69677 L 124.05031 157.73869 L 120.61589 153.58701 L 120.00043 153.58701 z M 123.3134 153.58701 L 124.05031 154.33942 L 124.05031 153.58701 L 123.3134 153.58701 z M 110.83716 164.81475 C 110.66275 165.04514 110.49016 165.27721 110.31833 165.50979 L 112.31718 179.0485 C 112.53996 178.56767 112.76879 178.08982 113.00189 177.61396 L 110.83716 164.81475 z M 108.01201 168.81657 C 107.79295 169.14931 107.57561 169.48326 107.36141 169.82013 L 108.21355 190.14912 C 108.5081 189.10729 108.82344 188.07537 109.15975 187.0537 L 108.01201 168.81657 z M 104.29234 175.10146 C 103.97192 175.70623 103.65888 176.31735 103.35235 176.9339 L 101.39174 208.09427 L 102.90948 208.09427 L 104.29234 175.10146 z M 97.666907 191.85237 C 96.180966 197.33987 95.373997 202.75413 95.251034 208.09427 L 95.268087 208.09427 L 97.666907 191.85237 z " />
        <path
           id="text45529"
           style="font-weight:bold;font-size:77.1997px;font-family:Arial;-inkscape-font-specification:'Arial, Bold';fill:#000000;stroke:#000000;stroke-width:0.1544;stroke-opacity:1"
           inkscape:label="8"
           d="M 106.28912 152.61549 L 106.46534 161.03462 C 106.64556 161.04676 106.82249 161.06408 106.99554 161.08733 L 106.64104 152.62118 C 106.52514 152.61768 106.40623 152.61761 106.28912 152.61549 z M 104.88197 152.62066 C 104.76274 152.62409 104.64541 152.62975 104.52747 152.63461 L 103.804 161.25424 C 103.98041 161.20954 104.16109 161.1707 104.34609 161.13848 L 104.88197 152.62066 z M 108.06731 152.70489 L 109.21556 161.79323 C 109.42715 161.90874 109.63087 162.03646 109.82585 162.1777 L 108.43162 152.7359 C 108.31146 152.72403 108.18893 152.71509 108.06731 152.70489 z M 103.08156 152.7328 C 102.95641 152.74485 102.83203 152.75773 102.70846 152.77155 L 100.73804 163.10271 C 100.82217 163.00728 100.90853 162.9131 100.99952 162.8221 C 101.14121 162.68042 101.28926 162.54821 101.44239 162.42316 L 103.08156 152.7328 z M 109.94729 152.93847 L 115.77071 177.76848 C 116.04957 177.62034 116.31977 177.46477 116.58203 177.30236 L 110.34365 153.00461 C 110.21359 152.98029 110.07932 152.96056 109.94729 152.93847 z M 101.14835 152.99841 C 101.00763 153.02429 100.87128 153.05471 100.73287 153.08316 L 93.691439 176.40577 C 93.937788 176.59147 94.194813 176.77081 94.462451 176.94424 L 101.14835 152.99841 z M 112.05363 153.40562 L 119.50743 174.81104 C 119.72668 174.55387 119.93434 174.28657 120.13169 174.01057 L 112.52181 153.54825 C 112.36696 153.49942 112.21183 153.45064 112.05363 153.40562 z M 98.928845 153.54618 C 98.759408 153.59919 98.592464 153.65507 98.427067 153.71258 L 90.493184 172.58585 C 90.651946 172.90406 90.823236 173.21841 91.010465 173.52791 C 91.011908 173.53022 91.013672 173.53232 91.015116 173.53463 L 98.928845 153.54618 z M 114.66897 154.39988 L 121.98118 169.93898 C 122.08248 169.51693 122.1623 169.08569 122.21993 168.64552 L 115.31493 154.73526 C 115.10369 154.61874 114.88863 154.50681 114.66897 154.39988 z M 96.040649 154.77453 C 95.78158 154.91889 95.527636 155.06894 95.281523 155.22773 L 89.174919 166.33558 C 89.169738 166.50826 89.16355 166.6807 89.16355 166.85597 C 89.16355 167.1939 89.177112 167.52743 89.201274 167.85797 L 96.040649 154.77453 z M 119.67383 158.52572 L 121.05773 160.81086 C 120.68044 160.00789 120.21877 159.24631 119.67383 158.52572 z M 99.453361 169.8377 L 92.857898 204.41336 C 93.124802 204.65307 93.398874 204.88876 93.686788 205.11616 C 93.842294 205.23893 94.00151 205.35619 94.160661 205.47325 L 99.961857 171.17663 C 99.748028 170.76522 99.578102 170.31924 99.453361 169.8377 z M 111.2392 171.74714 C 111.0425 172.03271 110.82162 172.30012 110.57413 172.54761 L 112.31252 186.30697 C 113.18797 187.69414 113.62769 189.38901 113.62769 191.39504 C 113.62769 192.48941 113.52926 193.48924 113.33417 194.39537 L 114.96094 207.27004 C 115.44662 207.03681 115.91618 206.78012 116.37119 206.50161 L 111.2392 171.74714 z M 102.75445 173.75219 L 101.91161 183.78826 C 102.23733 183.59187 102.58416 183.42416 102.95289 183.28649 L 103.53528 174.02814 C 103.2651 173.95098 103.00426 173.86024 102.75445 173.75219 z M 107.54279 174.14028 C 107.28501 174.19537 107.01797 174.23675 106.74284 174.26637 L 106.92267 182.86171 C 107.26361 182.90175 107.59521 182.96085 107.91589 183.04206 L 107.54279 174.14028 z M 116.02703 178.86092 L 121.37709 201.67193 C 121.75286 201.10525 122.08611 200.51355 122.38426 199.90149 L 117.13497 179.4552 C 116.77901 179.2468 116.40978 179.04888 116.02703 178.86092 z M 93.550362 180.21174 C 93.070739 180.56192 92.622451 180.93314 92.205741 181.32588 L 87.987911 195.29609 C 88.127035 196.21212 88.331518 197.08951 88.603894 197.92745 L 93.550362 180.21174 z M 100.68739 198.36722 L 99.858504 208.23845 C 100.34769 208.37759 100.84826 208.49904 101.3597 208.60329 L 101.94003 199.3868 C 101.49895 199.09986 101.08129 198.75992 100.68739 198.36722 z M 108.63213 200.13197 C 108.20499 200.28345 107.75828 200.3944 107.29164 200.46425 L 107.47096 209.04202 C 107.99131 209.01749 108.50158 208.97818 109.00058 208.92213 L 108.63213 200.13197 z " />
        <path
           id="text45533"
           style="font-weight:bold;font-size:77.1997px;font-family:Arial;-inkscape-font-specification:'Arial, Bold';fill:#000000;stroke:#000000;stroke-width:0.1544;stroke-opacity:1"
           inkscape:label="9"
           d="M 104.52902 152.62118 C 104.41034 152.62473 104.29066 152.62659 104.17297 152.63203 L 103.23556 161.55293 C 103.41609 161.5116 103.60028 161.47917 103.78746 161.45371 L 104.52902 152.62118 z M 105.93772 152.62479 L 105.93772 161.509 C 106.11991 161.54465 106.2999 161.58831 106.47774 161.64026 L 106.28912 152.63616 C 106.17305 152.63013 106.0547 152.62887 105.93772 152.62479 z M 102.71208 152.75398 C 102.5859 152.76886 102.45876 152.78173 102.33381 152.79894 L 100.07399 163.43033 C 100.30805 163.17789 100.55255 162.95018 100.80625 162.74459 L 102.71208 152.75398 z M 107.71591 152.76174 L 108.77734 162.86241 C 108.99676 163.03799 109.21226 163.22897 109.4233 163.43602 L 108.08126 152.81238 C 107.95986 152.79459 107.83838 152.7772 107.71591 152.76174 z M 100.73029 153.09195 C 100.58484 153.12526 100.4419 153.1632 100.29827 153.19995 L 90.739164 182.61934 C 90.982556 182.96535 91.238921 183.30318 91.50966 183.63169 L 100.73029 153.09195 z M 109.60623 153.10332 L 119.78959 201.01254 C 120.15494 200.47256 120.49716 199.89816 120.81898 199.29274 L 110.00982 153.2046 C 109.87592 153.16937 109.74158 153.13543 109.60623 153.10332 z M 111.76269 153.77098 L 123.6524 190.36357 C 123.79351 189.52397 123.9131 188.65195 124.01362 187.75133 L 112.24896 153.96786 C 112.08802 153.89969 111.926 153.83402 111.76269 153.77098 z M 98.384692 153.81128 C 98.200761 153.88262 98.019061 153.95786 97.838472 154.03556 L 87.977059 176.18511 C 88.085335 176.6914 88.211588 177.18652 88.355847 177.66978 L 98.384692 153.81128 z M 114.53616 155.15694 L 124.31231 177.1158 C 124.27159 176.2237 124.21167 175.36233 124.13764 174.52216 L 115.24723 155.62823 C 115.0132 155.46475 114.77633 155.30714 114.53616 155.15694 z M 95.117192 155.52694 C 94.792513 155.74861 94.476721 155.98695 94.165312 156.23387 L 87.808077 167.24612 C 87.698667 167.90179 87.616078 168.57516 87.562614 169.2677 L 95.117192 155.52694 z M 97.973865 173.31139 L 95.087219 186.89247 C 95.413492 187.11371 95.743945 187.32338 96.08044 187.51569 L 98.344385 175.65078 C 98.171826 174.93666 98.047685 174.15774 97.973865 173.31139 z M 111.26556 178.02066 C 111.03812 178.43186 110.77949 178.80932 110.4899 179.15392 L 111.29915 186.85319 C 111.63354 186.59634 111.95849 186.31796 112.27635 186.02275 L 111.26556 178.02066 z M 101.25739 180.3709 L 100.33754 189.12489 C 100.70266 189.19969 101.07389 189.25652 101.44859 189.30421 L 102.15139 180.93418 C 101.84203 180.77303 101.54421 180.58515 101.25739 180.3709 z M 106.89373 181.48246 C 106.58405 181.55687 106.26562 181.60948 105.93772 181.63904 L 105.93772 189.21894 C 106.3151 189.15176 106.68671 189.07211 107.05031 188.97296 L 106.89373 181.48246 z M 112.83652 190.45711 C 112.61614 191.80103 112.35437 192.98284 112.05001 193.99849 L 113.40031 206.84577 C 113.87799 206.58405 114.34433 206.29942 114.79868 205.99156 L 112.83652 190.45711 z M 94.7229 194.6336 L 93.410836 194.77829 L 91.591309 203.34056 C 91.960054 203.8596 92.356877 204.34534 92.784001 204.79525 L 94.7229 194.6336 z M 99.510722 196.99211 L 98.329399 208.23018 C 98.81183 208.38649 99.311487 208.51885 99.825431 208.63171 L 100.65742 198.72379 C 100.19368 198.25605 99.811526 197.6788 99.510722 196.99211 z M 107.27924 199.89736 C 106.84849 200.06626 106.40071 200.18267 105.93772 200.25238 L 105.93772 209.0043 C 106.45624 208.96361 106.96601 208.90533 107.46631 208.8286 L 107.27924 199.89736 z " />
      </g>
      <circle
         style="fill:none;stroke:#000000;stroke-width:0.0985353;stroke-opacity:1"
         id="path45725"
         cx="105.93768"
         cy="135.86559"
         r="74.450729" />
    </g>
    <path
       id="path45029"
       style="display:inline;fill:#000000;stroke-width:0.0625568"
       d="m 105.93772,55.920101 a 79.924416,79.924416 0 0 0 -79.924838,79.924319 79.924416,79.924416 0 0 0 79.924838,79.92484 79.924416,79.924416 0 0 0 79.92432,-79.92484 79.924416,79.924416 0 0 0 -79.92432,-79.924319 z m 0,5.494755 a 74.429611,74.429611 0 0 1 74.42957,74.429564 74.429611,74.429611 0 0 1 -0.061,1.55805 l -59.38087,-1.24386 a 15,15 0 0 0 0.0119,-0.31419 15,15 0 0 0 -14.9996,-14.9996 15,15 0 0 0 -15.000118,14.9996 H 31.507638 A 74.429611,74.429611 0 0 1 105.93772,61.414856 Z M 90.994446,137.09913 a 15,15 0 0 0 0.03514,0.31212 l -59.063579,6.20841 a 74.429611,74.429611 0 0 1 -0.182934,-1.54823 z m 29.850894,0.31212 59.06358,6.20841 a 74.429611,74.429611 0 0 1 -0.18294,1.54667 l -58.91578,-7.44295 a 15,15 0 0 0 0.0351,-0.31213 z m -29.631786,1.24179 a 15,15 0 0 0 0.05839,0.3085 l -58.087927,12.34705 a 74.429611,74.429611 0 0 1 -0.303857,-1.52755 z m 29.389936,0.3085 58.08741,12.34705 a 74.429611,74.429611 0 0 1 -0.30437,1.52859 l -57.84815,-13.56816 a 15,15 0 0 0 0.0651,-0.30748 z m -29.023033,1.2175 a 15,15 0 0 0 0.09715,0.29869 l -56.527299,18.36684 a 74.429611,74.429611 0 0 1 -0.42323,-1.50017 z m 28.616853,0.29869 56.5273,18.36684 a 74.429611,74.429611 0 0 1 -0.5395,1.46296 l -56.09167,-19.53369 a 15,15 0 0 0 0.10387,-0.29611 z m -28.079419,1.17616 a 15,15 0 0 0 0.125574,0.28783 l -54.254569,24.15564 a 74.429611,74.429611 0 0 1 -0.652157,-1.41542 z m 27.513569,0.28783 54.25405,24.15564 a 74.429611,74.429611 0 0 1 -0.65216,1.41438 l -53.72747,-25.28218 a 15,15 0 0 0 0.12558,-0.28784 z m -26.83144,1.125 a 15,15 0 0 0 0.147278,0.27802 L 41.523564,173.0344 a 74.429611,74.429611 0 0 1 -0.761194,-1.35961 z m 26.1276,0.2775 51.42374,29.69018 a 74.429611,74.429611 0 0 1 -0.76171,1.35961 l -50.82894,-30.78365 a 15,15 0 0 0 0.16691,-0.26614 z m -25.303877,1.05885 a 15,15 0 0 0 0.186552,0.2527 l -48.087504,34.9374 a 74.429611,74.429611 0 0 1 -0.866097,-1.29604 z m 24.441397,0.25218 48.08751,34.93792 a 74.429611,74.429611 0 0 1 -0.96532,1.22422 l -47.30874,-35.90944 a 15,15 0 0 0 0.18655,-0.2527 z m -23.475048,0.98392 a 15,15 0 0 0 0.205155,0.23823 l -44.131673,39.73608 a 74.429611,74.429611 0 0 1 -1.057816,-1.14464 z m 22.490098,0.23771 44.13116,39.7366 a 74.429611,74.429611 0 0 1 -1.05678,1.14411 l -43.28418,-40.64713 a 15,15 0 0 0 0.2098,-0.23358 z m -21.40851,0.90021 a 15,15 0 0 0 0.233577,0.2098 l -39.736592,44.13219 a 74.429611,74.429611 0 0 1 -1.144117,-1.05781 z m 20.2985,0.20929 39.73608,44.13219 a 74.429611,74.429611 0 0 1 -1.14463,1.05781 l -38.82968,-44.98485 a 15,15 0 0 0 0.23823,-0.20515 z m -19.09599,0.79891 a 15,15 0 0 0 0.252698,0.18656 l -34.937919,48.0875 a 74.429611,74.429611 0 0 1 -1.224215,-0.9648 z m 17.87436,0.18604 34.9374,48.08854 a 74.429611,74.429611 0 0 1 -1.29604,0.86558 l -33.89406,-48.76757 a 15,15 0 0 0 0.2527,-0.18655 z m -16.576765,0.6966 a 15,15 0 0 0 0.265617,0.16691 l -29.689144,51.42322 a 74.429611,74.429611 0 0 1 -1.360123,-0.76119 z m 15.265735,0.16691 29.68914,51.42374 a 74.429611,74.429611 0 0 1 -1.35909,0.76119 L 113.16002,148.9816 a 15,15 0 0 0 0.2775,-0.14676 z m -13.88494,0.57826 a 15,15 0 0 0 0.287837,0.12558 l -24.155631,54.25405 a 74.429611,74.429611 0 0 1 -1.414384,-0.65216 z m 12.48244,0.12558 24.15512,54.25405 a 74.429611,74.429611 0 0 1 -1.41542,0.65216 l -23.02754,-54.78064 a 15,15 0 0 0 0.28784,-0.12557 z m -11.02672,0.46147 a 15,15 0 0 0 0.29611,0.10387 l -18.366837,56.5273 a 74.429611,74.429611 0 0 1 -1.462443,-0.53951 z m 9.56273,0.10387 18.36632,56.5273 a 74.429611,74.429611 0 0 1 -1.50017,0.42323 l -17.16484,-56.85338 a 15,15 0 0 0 0.29869,-0.0971 z m -8.05791,0.34106 a 15,15 0 0 0 0.30748,0.0651 L 90.473547,208.5976 a 74.429611,74.429611 0 0 1 -1.529105,-0.30385 z m 6.54172,0.0651 12.34654,58.08741 a 74.429611,74.429611 0 0 1 -1.52756,0.30386 l -11.12749,-58.33287 a 15,15 0 0 0 0.30851,-0.0584 z m -4.99608,0.20723 a 15,15 0 0 0 0.31213,0.0351 l -6.208406,59.06306 a 74.429611,74.429611 0 0 1 -1.546159,-0.18294 z m 3.44579,0.0351 6.20789,59.06306 a 74.429611,74.429611 0 0 1 -1.54771,0.18293 l -4.97231,-59.21085 a 15,15 0 0 0 0.31213,-0.0351 z m -1.88102,0.0801 a 15,15 0 0 0 0.31419,0.0119 v 59.42945 a 74.429611,74.429611 0 0 1 -1.55804,-0.061 z"
       inkscape:label="reveal layer" />
  </g>
</svg>
