<?xml version="1.0" encoding="UTF-8" standalone="no"?>
<!-- Created with Inkscape (http://www.inkscape.org/) -->

<svg
   width="210mm"
   height="297mm"
   viewBox="0 0 210 297"
   version="1.1"
   id="svg2083"
   inkscape:version="1.2.1 (9c6d41e410, 2022-07-14)"
   sodipodi:docname="circular scanimation 0-5_export.svg"
   xmlns:inkscape="http://www.inkscape.org/namespaces/inkscape"
   xmlns:sodipodi="http://sodipodi.sourceforge.net/DTD/sodipodi-0.dtd"
   xmlns="http://www.w3.org/2000/svg"
   xmlns:svg="http://www.w3.org/2000/svg">
  <sodipodi:namedview
     id="namedview2085"
     pagecolor="#ffffff"
     bordercolor="#000000"
     borderopacity="0.25"
     inkscape:showpageshadow="2"
     inkscape:pageopacity="0.0"
     inkscape:pagecheckerboard="0"
     inkscape:deskcolor="#d1d1d1"
     inkscape:document-units="mm"
     showgrid="false"
     inkscape:zoom="1.1849519"
     inkscape:cx="449.38533"
     inkscape:cy="557.82855"
     inkscape:window-width="2560"
     inkscape:window-height="1494"
     inkscape:window-x="-11"
     inkscape:window-y="-11"
     inkscape:window-maximized="1"
     inkscape:current-layer="layer1" />
  <defs
     id="defs2080">
    <inkscape:path-effect
       effect="copy_rotate"
       starting_point="109.94069,148.30428"
       origin="105,148.30428"
       id="path-effect44407"
       is_visible="true"
       lpeversion="1.2"
       lpesatellites=""
       method="normal"
       num_copies="60"
       starting_angle="0"
       rotation_angle="6"
       gap="-0.01"
       copies_to_360="true"
       mirror_copies="false"
       split_items="false"
       link_styles="false" />
    <inkscape:path-effect
       effect="copy_rotate"
       starting_point="109.94069,148.30428"
       origin="105,148.30428"
       id="path-effect44401"
       is_visible="true"
       lpeversion="1.2"
       lpesatellites=""
       method="normal"
       num_copies="60"
       starting_angle="0"
       rotation_angle="6"
       gap="-0.01"
       copies_to_360="true"
       mirror_copies="false"
       split_items="false"
       link_styles="false" />
    <inkscape:path-effect
       effect="copy_rotate"
       starting_point="109.94069,148.30428"
       origin="105,148.30428"
       id="path-effect44390"
       is_visible="true"
       lpeversion="1.2"
       lpesatellites=""
       method="normal"
       num_copies="60"
       starting_angle="0"
       rotation_angle="6"
       gap="-0.01"
       copies_to_360="true"
       mirror_copies="false"
       split_items="false"
       link_styles="false" />
    <inkscape:path-effect
       effect="copy_rotate"
       starting_point="109.94069,148.30428"
       origin="105,148.30428"
       id="path-effect44384"
       is_visible="true"
       lpeversion="1.2"
       lpesatellites=""
       method="normal"
       num_copies="60"
       starting_angle="0"
       rotation_angle="6"
       gap="-0.01"
       copies_to_360="true"
       mirror_copies="false"
       split_items="false"
       link_styles="false" />
    <inkscape:path-effect
       effect="copy_rotate"
       starting_point="109.94069,148.30428"
       origin="105,148.30428"
       id="path-effect44378"
       is_visible="true"
       lpeversion="1.2"
       lpesatellites=""
       method="normal"
       num_copies="60"
       starting_angle="0"
       rotation_angle="6"
       gap="-0.01"
       copies_to_360="true"
       mirror_copies="false"
       split_items="false"
       link_styles="false" />
    <inkscape:path-effect
       effect="copy_rotate"
       starting_point="109.94069,148.30428"
       origin="105,148.30428"
       id="path-effect44372"
       is_visible="true"
       lpeversion="1.2"
       lpesatellites=""
       method="normal"
       num_copies="60"
       starting_angle="0"
       rotation_angle="6"
       gap="-0.01"
       copies_to_360="true"
       mirror_copies="false"
       split_items="false"
       link_styles="false" />
    <inkscape:path-effect
       effect="copy_rotate"
       starting_point="109.94069,148.30428"
       origin="105,148.30428"
       id="path-effect44231"
       is_visible="true"
       lpeversion="1.2"
       lpesatellites=""
       method="normal"
       num_copies="60"
       starting_angle="0"
       rotation_angle="6"
       gap="-0.01"
       copies_to_360="true"
       mirror_copies="false"
       split_items="false"
       link_styles="false" />
    <inkscape:path-effect
       effect="copy_rotate"
       starting_point="109.94069,148.30428"
       origin="105,148.30428"
       id="path-effect44225"
       is_visible="false"
       lpeversion="1.2"
       lpesatellites=""
       method="normal"
       num_copies="60"
       starting_angle="0"
       rotation_angle="6"
       gap="-0.01"
       copies_to_360="true"
       mirror_copies="false"
       split_items="false"
       link_styles="false" />
    <inkscape:path-effect
       effect="copy_rotate"
       starting_point="109.94069,148.30428"
       origin="105,148.30428"
       id="path-effect2022"
       is_visible="false"
       lpeversion="1.2"
       lpesatellites=""
       method="normal"
       num_copies="60"
       starting_angle="0"
       rotation_angle="6"
       gap="-0.01"
       copies_to_360="true"
       mirror_copies="false"
       split_items="false"
       link_styles="false" />
    <inkscape:path-effect
       effect="copy_rotate"
       starting_point="109.94069,148.30428"
       origin="105,148.30428"
       id="path-effect2015"
       is_visible="true"
       lpeversion="1.2"
       lpesatellites=""
       method="normal"
       num_copies="60"
       starting_angle="0"
       rotation_angle="6"
       gap="-0.01"
       copies_to_360="true"
       mirror_copies="false"
       split_items="false"
       link_styles="false" />
    <inkscape:path-effect
       effect="copy_rotate"
       starting_point="109.94069,148.30428"
       origin="105,148.30428"
       id="path-effect2008"
       is_visible="true"
       lpeversion="1.2"
       lpesatellites=""
       method="normal"
       num_copies="60"
       starting_angle="0"
       rotation_angle="6"
       gap="-0.01"
       copies_to_360="true"
       mirror_copies="false"
       split_items="false"
       link_styles="false" />
    <inkscape:path-effect
       effect="copy_rotate"
       starting_point="109.94069,148.30428"
       origin="105,148.30428"
       id="path-effect2001"
       is_visible="true"
       lpeversion="1.2"
       lpesatellites=""
       method="normal"
       num_copies="60"
       starting_angle="0"
       rotation_angle="6"
       gap="-0.01"
       copies_to_360="true"
       mirror_copies="false"
       split_items="false"
       link_styles="false" />
    <inkscape:path-effect
       effect="copy_rotate"
       starting_point="109.94069,148.30428"
       origin="105,148.30428"
       id="path-effect1994"
       is_visible="true"
       lpeversion="1.2"
       lpesatellites=""
       method="normal"
       num_copies="60"
       starting_angle="0"
       rotation_angle="6"
       gap="-0.01"
       copies_to_360="true"
       mirror_copies="false"
       split_items="false"
       link_styles="false" />
    <inkscape:path-effect
       effect="copy_rotate"
       starting_point="109.94069,148.30428"
       origin="105,148.30428"
       id="path-effect1987"
       is_visible="true"
       lpeversion="1.2"
       lpesatellites=""
       method="normal"
       num_copies="60"
       starting_angle="0"
       rotation_angle="6"
       gap="-0.01"
       copies_to_360="true"
       mirror_copies="false"
       split_items="false"
       link_styles="false" />
    <inkscape:path-effect
       effect="copy_rotate"
       starting_point="109.94069,148.30428"
       origin="105,148.30428"
       id="path-effect1980"
       is_visible="true"
       lpeversion="1.2"
       lpesatellites=""
       method="normal"
       num_copies="60"
       starting_angle="0"
       rotation_angle="6"
       gap="-0.01"
       copies_to_360="true"
       mirror_copies="false"
       split_items="false"
       link_styles="false" />
    <inkscape:path-effect
       effect="copy_rotate"
       starting_point="109.94069,148.30428"
       origin="105,148.30428"
       id="path-effect1973"
       is_visible="true"
       lpeversion="1.2"
       lpesatellites=""
       method="normal"
       num_copies="60"
       starting_angle="0"
       rotation_angle="6"
       gap="-0.01"
       copies_to_360="true"
       mirror_copies="false"
       split_items="false"
       link_styles="false" />
    <inkscape:path-effect
       effect="copy_rotate"
       starting_point="109.94069,148.30428"
       origin="105,148.30428"
       id="path-effect1925"
       is_visible="true"
       lpeversion="1.2"
       lpesatellites=""
       method="normal"
       num_copies="60"
       starting_angle="0"
       rotation_angle="6"
       gap="-0.01"
       copies_to_360="true"
       mirror_copies="false"
       split_items="false"
       link_styles="false" />
    <inkscape:path-effect
       effect="copy_rotate"
       starting_point="109.94069,148.30428"
       origin="105,148.30428"
       id="path-effect1918"
       is_visible="true"
       lpeversion="1.2"
       lpesatellites=""
       method="normal"
       num_copies="60"
       starting_angle="0"
       rotation_angle="6"
       gap="-0.01"
       copies_to_360="true"
       mirror_copies="false"
       split_items="false"
       link_styles="false" />
    <inkscape:path-effect
       effect="copy_rotate"
       starting_point="109.94069,148.30428"
       origin="105,148.30428"
       id="path-effect1822"
       is_visible="true"
       lpeversion="1.2"
       lpesatellites=""
       method="normal"
       num_copies="60"
       starting_angle="0"
       rotation_angle="6"
       gap="-0.01"
       copies_to_360="true"
       mirror_copies="false"
       split_items="false"
       link_styles="false" />
    <inkscape:path-effect
       effect="copy_rotate"
       starting_point="109.94069,148.30428"
       origin="105,148.30428"
       id="path-effect1546"
       is_visible="true"
       lpeversion="1.2"
       lpesatellites=""
       method="normal"
       num_copies="60"
       starting_angle="0"
       rotation_angle="60"
       gap="-0.01"
       copies_to_360="true"
       mirror_copies="false"
       split_items="false"
       link_styles="false" />
    <inkscape:path-effect
       effect="copy_rotate"
       starting_point="107.47309,148.30428"
       origin="105,148.30428"
       id="path-effect1542"
       is_visible="true"
       lpeversion="1.2"
       lpesatellites=""
       method="normal"
       num_copies="120"
       starting_angle="0"
       rotation_angle="360"
       gap="-0.01"
       copies_to_360="true"
       mirror_copies="false"
       split_items="false"
       link_styles="false" />
    <inkscape:path-effect
       effect="copy_rotate"
       starting_point="108.49799,148.30428"
       origin="105,148.30428"
       id="path-effect998"
       is_visible="true"
       lpeversion="1.2"
       lpesatellites=""
       method="normal"
       num_copies="60"
       starting_angle="0"
       rotation_angle="60"
       gap="-0.01"
       copies_to_360="true"
       mirror_copies="false"
       split_items="false"
       link_styles="false" />
    <inkscape:path-effect
       effect="copy_rotate"
       starting_point="114.6624,121.32478"
       origin="111.67686,121.32478"
       id="path-effect996"
       is_visible="true"
       lpeversion="1.2"
       lpesatellites=""
       method="normal"
       num_copies="6"
       starting_angle="0"
       rotation_angle="60"
       gap="-0.01"
       copies_to_360="true"
       mirror_copies="false"
       split_items="false"
       link_styles="false" />
    <inkscape:path-effect
       effect="copy_rotate"
       starting_point="106.64906,148.30428"
       origin="105,148.30428"
       id="path-effect993"
       is_visible="false"
       lpeversion="1.2"
       lpesatellites=""
       method="normal"
       num_copies="60"
       starting_angle="0"
       rotation_angle="6"
       gap="-0.01"
       copies_to_360="true"
       mirror_copies="false"
       split_items="false"
       link_styles="false" />
    <inkscape:path-effect
       effect="bend_path"
       id="path-effect1196"
       is_visible="true"
       lpeversion="1"
       bendpath="#path989"
       prop_scale="1.4"
       scale_y_rel="false"
       vertical="false"
       hide_knot="false" />
    <inkscape:path-effect
       effect="bend_path"
       id="path-effect1054"
       is_visible="true"
       lpeversion="1"
       bendpath="M0,0 L1,0"
       prop_scale="1.4"
       scale_y_rel="false"
       vertical="false"
       hide_knot="false" />
    <inkscape:path-effect
       effect="copy_rotate"
       starting_point="107.70906,148.30428"
       origin="105,148.30428"
       id="path-effect4657"
       is_visible="true"
       lpeversion="1.2"
       lpesatellites=""
       method="normal"
       num_copies="59"
       starting_angle="0"
       rotation_angle="6"
       gap="-0.01"
       copies_to_360="true"
       mirror_copies="false"
       split_items="false"
       link_styles="false" />
    <inkscape:path-effect
       effect="copy_rotate"
       starting_point="107.70906,148.30428"
       origin="105,148.30428"
       id="path-effect4651"
       is_visible="false"
       lpeversion="1.2"
       lpesatellites=""
       method="normal"
       num_copies="60"
       starting_angle="0"
       rotation_angle="60"
       gap="-0.01"
       copies_to_360="true"
       mirror_copies="false"
       split_items="false"
       link_styles="false" />
    <clipPath
       clipPathUnits="userSpaceOnUse"
       id="clipPath1221">
      <path
         style="display:inline;fill:#000000;fill-opacity:1;stroke:#000000;stroke-width:0.1"
         d="M 105,148.30427 110.41811,43.444159 105,43.304274 M 105,148.30427 99.241468,43.462303 93.839183,43.89912 M 105,148.30427 88.130072,44.668348 82.804823,45.676918 M 105,148.30427 77.209819,47.04863 72.021943,48.617525 M 105,148.30427 66.60444,50.576178 61.612718,52.687623 m 43.387272,95.616647 -48.565892,-93.093244 -4.73901,2.63007 M 104.99999,148.30427 46.814027,60.900657 42.381424,64.019553 M 104.99999,148.30427 37.853226,67.580605 33.777253,71.15299 m 71.222737,77.15128 -75.346765,-73.129084 -3.67316,3.985395 M 104.99999,148.30427 22.306933,83.598348 19.078204,87.951598 M 104.99999,148.30428 15.897587,92.754654 13.149871,97.426436 M 104.99999,148.30428 10.497807,102.54036 8.2622368,107.47774 M 104.99999,148.30428 6.1687739,112.84459 4.4706802,117.99162 M 104.99999,148.30428 2.9595385,123.55059 1.818161,128.84896 M 104.99999,148.30428 0.90646222,134.53706 0.33473328,139.92674 M 104.99999,148.30428 0.03280735,145.67952 l 0.0043975,5.41991 M 104.99999,148.30428 0.3484727,156.85172 0.9289468,162.24046 M 104.99999,148.30428 1.8498817,167.92707 2.9998554,173.22358 M 104.99999,148.30428 4.5200227,178.78009 l 1.7064437,5.14427 m 98.7735236,-35.62008 -96.671348,40.98353 2.243579,4.93374 m 94.427769,-45.91726 -91.767404,51.02687 2.755294,4.66732 m 89.01211,-55.69419 -85.823698,60.49207 3.23579,4.34801 m 82.587908,-64.84008 -78.907575,69.27187 3.679623,3.97943 m 75.227952,-73.2513 -71.097398,77.2668 4.081765,3.56576 m 67.015633,-80.83256 -62.481658,84.38626 4.437658,3.1117 M 105,148.30429 l -53.157987,90.54959 4.743272,2.62237 M 105,148.30429 l -43.232004,95.68695 4.995141,2.10334 M 105,148.30429 l -32.816185,99.74015 5.190414,1.56047 M 105,148.30429 82.971454,250.96754 l 5.326878,0.99992 M 105,148.30429 94.008685,252.72742 l 5.402986,0.42805 M 105,148.30429 l 0.17045,104.99986 5.41788,-0.14868 M 105,148.30429 l 11.33029,104.38689 5.37138,-0.72372 M 105,148.30429 l 22.36175,102.59118 5.26402,-1.29056 M 105,148.30429 l 33.13984,99.63308 5.09702,-1.84279 M 105,148.30429 l 43.54244,95.54609 4.87228,-2.37413 m -48.41471,-93.17196 53.45169,90.37652 4.59231,-2.87856 m -58.044,-87.49796 62.75531,84.18295 4.26032,-3.35039 m -67.01563,-80.83256 71.34789,77.03556 3.88006,-3.78426 m -75.22795,-73.2513 79.13207,69.01532 3.45584,-4.17524 m -82.58791,-64.84008 86.01965,60.21311 2.99246,-4.51892 m -89.01211,-55.6942 91.93259,50.72867 2.49518,-4.8114 m -94.42777,-45.91727 96.8039,40.66945 1.96962,-5.04937 m -98.77352,-35.62008 100.57838,30.14942 1.42175,-5.23012 m -102.00013,-24.9193 103.21327,19.28779 0.85777,-5.35161 m -104.07104,-13.93618 104.67872,8.20762 0.28407,-5.41247 m -104.96279,-2.79515 104.95811,-2.96554 -0.29285,-5.412 m -104.66526,8.37754 104.04828,-14.10511 -0.86645,-5.35021 m -103.18183,19.45532 101.95955,-25.08485 -1.43024,-5.22781 m -100.52931,30.31266 98.71557,-35.78038 -1.97782,-5.04616 m -96.73775,40.82654 94.3531,-46.0705 -2.50298,-4.807344 m -91.85012,50.877834 88.92158,-55.838613 -2.99979,-4.514059 m -85.92179,60.352672 82.48254,-64.974062 -3.46261,-4.169627 m -79.01993,69.143689 75.10894,-73.373328 -3.8862,-3.777952 m -71.22274,77.15128 66.88432,-80.941246 -4.26575,-3.343471 m -62.61857,84.284717 57.90188,-87.592066 -4.59698,-2.871108 M 105,148.30427 153.2634,55.053837 148.38728,52.687623 M 105,148.30427 l 38.07806,-97.852236 -5.1,-1.834509 M 105,148.30427 132.46129,46.958937 127.19518,45.676918 M 105,148.30427 121.53336,44.614122 116.16082,43.89912"
         id="path1223"
         transform="rotate(-32.629983,104.99775,148.30491)"
         inkscape:label="base layer"
         inkscape:original-d="M 105,148.30427 110.41811,43.444159 105,43.304274"
         inkscape:path-effect="#path-effect4657"
         class="UnoptimicedTransforms" />
    </clipPath>
  </defs>
  <g
     inkscape:label="Ebene 1"
     inkscape:groupmode="layer"
     id="layer1">
    <g
       id="g440"
       inkscape:label="numbers"
       transform="matrix(0.81290382,0,0,0.81290382,6.7819389,10.121523)"
       style="display:inline">
      <path
         id="text44287"
         style="font-weight:bold;font-size:239.91px;font-family:Arial;-inkscape-font-specification:'Arial, Bold';display:inline;fill:#000000;stroke-width:0.342406"
         inkscape:label="0"
         d="m 116.20849,71.487369 c -0.3665,0 -0.73042,0.0046 -1.09193,0.01254 l 0.34001,19.489792 c 0.24854,-0.01462 0.49851,-0.02471 0.75192,-0.02471 z m 5.44634,0.320092 -1.72768,19.746823 c 0.2431,0.08138 0.48364,0.169785 0.72058,0.268095 l 2.08834,-19.868517 c -0.35775,-0.05329 -0.71789,-0.102271 -1.08124,-0.146401 z m -11.97391,0.140869 c -0.36209,0.05331 -0.72091,0.111468 -1.07718,0.174059 l 2.45674,20.00828 c 0.23339,-0.114032 0.46906,-0.220984 0.70804,-0.318247 z m 18.36762,1.19813 -4.04428,20.807033 c 0.20478,0.180052 0.40567,0.377405 0.60367,0.588923 l 4.47649,-21.061483 c -0.34208,-0.116811 -0.6875,-0.227944 -1.03588,-0.334473 z m -24.7204,0.31419 c -0.34492,0.116708 -0.68713,0.238006 -1.02555,0.365081 l 4.91237,21.277213 c 0.18819,-0.226165 0.3794,-0.443839 0.57639,-0.644607 z m 30.73354,2.202656 -6.95608,22.752287 c 0.13421,0.285108 0.26586,0.581853 0.39569,0.887257 l 7.50628,-23.101511 c -0.31203,-0.184677 -0.6272,-0.364217 -0.94589,-0.538033 z m -36.664078,0.501156 c -0.312609,0.183978 -0.622019,0.373063 -0.927822,0.567904 l 8.02182,23.297324 c 0.11863,-0.31201 0.24083,-0.613526 0.36582,-0.907168 z m 42.027088,3.200174 -10.37236,24.435344 c 0.0661,0.23375 0.13271,0.46673 0.1973,0.70767 0.0144,0.0533 0.0281,0.10992 0.0424,0.1641 l 10.94616,-24.585433 c -0.2681,-0.245548 -0.53896,-0.486654 -0.8135,-0.721681 z m -47.265077,0.678535 c -0.266582,0.243959 -0.529862,0.493095 -0.789902,0.747494 l 11.549829,24.768715 c 0.064,-0.31031 0.12898,-0.61475 0.19619,-0.90864 z m 51.769217,4.006671 -13.7949,24.886348 c 0.0394,0.26231 0.0779,0.52889 0.11542,0.80244 l 14.34069,-24.838776 c -0.1796,-0.238432 -0.36047,-0.474421 -0.54431,-0.705823 -0.0385,-0.0488 -0.0782,-0.09567 -0.1169,-0.144189 z m -56.119212,0.819772 c -0.213352,0.286806 -0.423236,0.578995 -0.630594,0.875458 l 14.930336,24.847998 c 0.0331,-0.26459 0.0676,-0.5211 0.10215,-0.7781 z m 59.681522,4.512622 -16.82397,24.026754 c 0.0209,0.22162 0.0434,0.43455 0.0634,0.66157 L 147.9919,90.312271 c -0.16466,-0.313782 -0.33105,-0.624671 -0.50079,-0.930035 z M 84.421003,90.30637 c -0.161072,0.30843 -0.319503,0.621146 -0.475711,0.93741 l 17.730398,23.52891 c 0.0183,-0.21411 0.0362,-0.43099 0.0553,-0.64128 z m 65.722687,4.71397 -19.18556,22.07044 c 0.012,0.18309 0.025,0.35977 0.0365,0.54577 l 19.51525,-21.673638 c -0.11998,-0.317549 -0.24228,-0.631544 -0.36619,-0.942572 z m -68.236583,0.942572 c -0.117361,0.310685 -0.234522,0.621398 -0.348117,0.938148 l 19.86409,21.30192 c 0.0109,-0.17496 0.0204,-0.35746 0.0317,-0.53028 z m 70.154553,4.661598 -20.93021,19.51819 c 0.007,0.15083 0.0133,0.30811 0.0203,0.4606 l 21.17137,-19.06277 c -0.0855,-0.30803 -0.17296,-0.61292 -0.26145,-0.91602 z m -71.969263,0.91455 c -0.0838,0.30118 -0.16799,0.60175 -0.248919,0.90754 l 21.424352,18.62393 c 0.007,-0.14948 0.0145,-0.29738 0.0218,-0.44548 z m 73.331483,4.47538 -22.18586,16.7185 c 0.005,0.13113 0.009,0.26381 0.0136,0.39605 l 22.35476,-16.24205 c -0.0601,-0.29211 -0.12021,-0.58414 -0.18255,-0.8725 z m -74.618486,0.86882 c -0.05902,0.28605 -0.116865,0.57407 -0.173689,0.86365 l 22.535445,15.77925 c 0.005,-0.12983 0.01,-0.25648 0.0147,-0.38536 z m 75.572496,4.24047 -23.0698,13.86164 c 0.003,0.11587 0.006,0.23331 0.009,0.34997 l 23.18849,-13.38778 c -0.0418,-0.27577 -0.084,-0.55098 -0.12759,-0.82383 z m -76.474504,0.81903 c -0.04111,0.27043 -0.08155,0.54217 -0.120956,0.81535 l 23.31872,12.92608 c 0.003,-0.11502 0.006,-0.22825 0.01,-0.34258 z m 77.137554,4.00779 -23.68565,11.04462 c 0.002,0.10426 0.004,0.21191 0.006,0.31677 l 23.7653,-10.58108 c -0.0284,-0.26013 -0.0554,-0.52249 -0.0852,-0.78031 z m -77.759298,0.77662 c -0.02814,0.25711 -0.05695,0.51288 -0.08371,0.77221 l 23.858958,10.12749 c 0.002,-0.10392 0.004,-0.2086 0.006,-0.31198 z m 78.204398,3.8068 -24.09866,8.29767 c 0.001,0.0969 0.002,0.19613 0.004,0.29353 l 24.15324,-7.84776 c -0.0187,-0.24914 -0.0384,-0.49622 -0.0583,-0.74344 z m -78.623319,0.74012 c -0.01834,0.24506 -0.03516,0.49211 -0.05237,0.73901 l 24.215929,7.4034 c 0.001,-0.0956 0.002,-0.195 0.003,-0.29022 z m 78.909859,3.65007 -24.36751,5.62557 c 8.5e-4,0.0931 0.002,0.18414 0.003,0.27768 l 24.40217,-5.18673 c -0.0112,-0.24101 -0.0254,-0.47715 -0.0376,-0.71652 z m -79.172422,0.71505 c -0.01084,0.23618 -0.01926,0.47655 -0.02913,0.7143 l 24.436822,4.75011 c 7.8e-4,-0.0932 0.002,-0.183 0.003,-0.27584 z m 79.335042,3.54128 -24.51869,3.01026 c 4.2e-4,0.0888 7.5e-4,0.17966 0.001,0.26883 l 24.53676,-2.5788 c -0.005,-0.23538 -0.0131,-0.46637 -0.0192,-0.70029 z m -79.475543,0.69992 c -0.0049,0.23154 -0.0078,0.46625 -0.0118,0.69919 l 24.551143,2.14807 c 3.3e-4,-0.0893 7.1e-4,-0.17912 0.001,-0.26809 z m 79.536023,3.48339 -24.57401,0.42888 c 7e-5,0.0899 0.001,0.1753 0.001,0.26551 h 24.57659 c -5e-5,-0.23344 -0.003,-0.46229 -0.004,-0.69439 z m -79.576956,0.69439 c 2.16e-4,0.23326 0.0024,0.46255 0.0033,0.69439 l 24.572896,-0.42887 c -4e-5,-0.0757 -7.4e-4,-0.14751 -7.4e-4,-0.22348 0,-0.0143 0,-0.0278 0,-0.042 z m 54.999626,1.33052 c -3.1e-4,0.0894 -7.3e-4,0.17901 -0.001,0.26809 l 24.53787,2.5788 c 0.005,-0.23124 0.007,-0.46655 0.0114,-0.69918 z m -30.41898,0.26809 -24.537501,2.5788 c 0.0048,0.23577 0.01245,0.46645 0.01807,0.70066 l 24.520161,-3.01062 c -4e-4,-0.0889 -4e-4,-0.17954 -7.3e-4,-0.26884 z m 30.41123,1.35634 c -7.4e-4,0.0933 -0.002,0.18289 -0.003,0.27583 l 24.40438,5.18711 c 0.011,-0.23592 0.0188,-0.47685 0.0288,-0.71431 z m -30.40238,0.27583 -24.412487,5.18932 c 0.01033,0.24133 0.02306,0.47806 0.0343,0.71762 l 24.381137,-5.62888 c -8.2e-4,-0.0934 -0.002,-0.18428 -0.003,-0.27806 z m 30.38358,1.41128 c -10e-4,0.0957 -0.002,0.19491 -0.003,0.29022 l 24.15767,7.84924 c 0.0185,-0.24526 0.0365,-0.49117 0.0538,-0.73827 z m -30.36625,0.29133 -24.184955,7.85809 c 0.01726,0.24978 0.03515,0.49795 0.05347,0.74565 l 24.134435,-8.3102 c -10e-4,-0.0959 -0.002,-0.19721 -0.003,-0.29354 z m 30.33638,1.49905 c -0.002,0.10392 -0.004,0.2082 -0.006,0.3116 l 23.77047,10.58329 c 0.0282,-0.25684 0.0565,-0.51313 0.0833,-0.7722 z m -30.30688,0.31418 -23.828355,10.60911 c 0.02644,0.26193 0.05265,0.52499 0.08039,0.78437 l 23.753495,-11.07633 c -0.002,-0.10456 -0.004,-0.212 -0.005,-0.31715 z m 30.263,1.62886 c -0.003,0.11517 -0.006,0.22809 -0.01,0.34258 l 23.19555,13.39184 c 0.0411,-0.27056 0.0819,-0.54166 0.12132,-0.81498 z m -30.21986,0.34848 -23.291421,13.44752 c 0.0392,0.27797 0.07788,0.55686 0.118743,0.83157 l 23.181538,-13.92913 c -0.003,-0.11607 -0.006,-0.23309 -0.009,-0.34996 z m 30.15459,1.80992 c -0.005,0.13015 -0.01,0.25653 -0.0147,0.38573 l 22.36471,16.24905 c 0.059,-0.28604 0.11691,-0.57371 0.17369,-0.86328 z m -30.09005,0.39753 -22.50595,16.35157 c 0.05718,0.2954 0.112846,0.59358 0.172215,0.88468 l 22.347375,-16.84019 c -0.005,-0.13136 -0.009,-0.26359 -0.0136,-0.39606 z m 29.98974,2.0592 c -0.007,0.14981 -0.0142,0.29743 -0.0214,0.44584 l 21.1865,19.07604 c 0.0836,-0.30102 0.16741,-0.60189 0.24818,-0.90754 z m -29.89091,0.4676 -21.372723,19.24456 c 0.08332,0.31328 0.170343,0.61932 0.256662,0.92672 l 21.136711,-19.71031 c -0.007,-0.15132 -0.0138,-0.30799 -0.0207,-0.46097 z m 29.7364,2.40142 c -0.0109,0.17535 -0.0204,0.35748 -0.0317,0.53066 l 19.53884,21.70019 c 0.11722,-0.31088 0.23465,-0.62154 0.34812,-0.93852 z m -29.58152,0.56827 -19.742026,21.92625 c 0.11958,0.32147 0.240314,0.64055 0.363975,0.95401 l 19.414561,-22.33374 c -0.0119,-0.18381 -0.0251,-0.35983 -0.0365,-0.54652 z m 29.32965,2.86423 c -0.0183,0.21431 -0.0362,0.43048 -0.0553,0.64092 l 17.30373,23.81655 c 0.1609,-0.30853 0.3193,-0.62135 0.47535,-0.93778 z m -29.06782,0.7073 -17.461196,24.03302 c 0.168647,0.31289 0.340315,0.61939 0.514432,0.92156 l 17.009084,-24.29153 c -0.0206,-0.22196 -0.0426,-0.43579 -0.0623,-0.66305 z m 28.63414,3.47343 c -0.0331,0.26453 -0.0675,0.522 -0.10214,0.77884 l 14.39747,24.93687 c 0.21324,-0.28675 0.42332,-0.5786 0.63059,-0.87508 z m -28.15843,0.87029 -14.415903,24.96933 c 0.226212,0.27555 0.454612,0.54655 0.685172,0.81351 l 13.843941,-24.9756 c -0.0388,-0.2629 -0.0762,-0.53336 -0.11321,-0.80724 z m 27.34641,4.16119 c -0.0643,0.30999 -0.12938,0.61388 -0.19693,0.90717 l 10.95428,24.60388 c 0.26664,-0.24402 0.5298,-0.49341 0.7899,-0.74787 z m -26.40236,0.9422 -10.90486,24.49288 c 0.271616,0.23853 0.545365,0.4724 0.821986,0.70103 l 10.322574,-24.31845 c -0.0568,-0.20035 -0.11432,-0.39843 -0.17001,-0.60404 -0.0236,-0.0882 -0.0465,-0.18085 -0.0697,-0.27142 z m 24.82882,4.58564 c -0.11832,0.31246 -0.24043,0.61449 -0.36508,0.90902 l 7.45761,22.9529 c 0.31266,-0.18401 0.62234,-0.37304 0.92819,-0.56791 z m -23.03734,0.80392 -7.446917,22.91971 c 0.312079,0.18403 0.627365,0.3616 0.944785,0.53508 l 6.897082,-22.56016 c -0.13401,-0.28706 -0.26511,-0.58705 -0.39495,-0.89463 z m 20.3221,4.15971 c -0.18758,0.23006 -0.37859,0.45113 -0.57491,0.65641 l 4.45214,20.94568 c 0.34505,-0.11674 0.68737,-0.23795 1.02592,-0.36507 z m -17.42911,0.64608 -4.4326,20.85387 c 0.34159,0.11983 0.68569,0.23462 1.03255,0.34406 l 4.00593,-20.60938 c -0.20502,-0.18132 -0.40745,-0.37477 -0.60588,-0.58855 z m 13.57842,2.31919 c -0.23387,0.11092 -0.47002,0.21481 -0.7095,0.30939 l 2.08501,19.83975 c 0.36209,-0.0533 0.7209,-0.11183 1.07717,-0.17442 z m -9.59499,0.30939 -2.08206,19.80841 c 0.35766,0.056 0.71761,0.10771 1.08012,0.15415 l 1.72399,-19.70626 c -0.24325,-0.0778 -0.48433,-0.16241 -0.72205,-0.2563 z m 5.19448,0.79913 c -0.24842,0.0142 -0.49863,0.0236 -0.75192,0.0236 v 19.47763 c 0.36662,0 0.73067,-0.004 1.09229,-0.0122 z" />
      <path
         id="text44341"
         style="font-weight:bold;font-size:239.91px;font-family:Arial;-inkscape-font-specification:'Arial, Bold';display:inline;fill:#000000;stroke-width:0.342406"
         inkscape:label="1"
         d="m 129.28614,72.53246 -9.64994,45.39948 v 1.27962 l 10.77689,-46.6791 z m 6.91366,0 -16.5636,50.97637 v 0.59482 l 17.75768,-51.57119 z m 6.92622,1.067954 -23.48982,52.758996 v 0.34811 l 23.48982,-50.373793 z m -19.50897,0.120218 c -0.41832,1.057171 -0.8831,2.095294 -1.39431,3.114621 l -3.23963,30.824267 c 0.17611,-0.16107 0.35175,-0.32288 0.5266,-0.48567 z m -6.54638,10.95206 c -0.28102,0.338339 -0.56852,0.674286 -0.86218,1.007476 v 24.401792 c 0.14214,-0.11841 0.28344,-0.23789 0.42482,-0.35734 z m 26.05535,2.763183 -23.48982,40.685515 v 0.23232 l 23.48982,-39.093167 z m -30.8062,2.174629 c -0.23557,0.213253 -0.47431,0.425275 -0.71578,0.636126 l 2.28047,21.69834 c 0.12193,-0.094 0.24295,-0.1892 0.36435,-0.28395 z m -4.09665,3.365751 c -0.21525,0.162826 -0.42994,0.323505 -0.64423,0.483087 l 4.25411,20.014548 c 0.10955,-0.0789 0.21906,-0.15799 0.3282,-0.23749 z m -3.74816,2.703812 c -0.20093,0.137807 -0.40252,0.277457 -0.60257,0.412284 l 6.07547,18.698049 c 0.10207,-0.0691 0.20508,-0.13693 0.30681,-0.20652 z m 38.65101,1.329411 -23.48982,32.331052 v 0.1689 l 23.48982,-31.171647 z m -42.22253,0.991619 c -0.19645,0.120407 -0.39301,0.241779 -0.58856,0.35918 l 7.84002,17.609073 c 0.0985,-0.0628 0.1976,-0.12481 0.29575,-0.18808 z m -3.551246,2.039653 c -0.200857,0.10732 -0.400855,0.21279 -0.600724,0.31677 l 9.64367,16.70376 c 0.098,-0.059 0.19587,-0.11799 0.29354,-0.17738 z m -3.694693,1.81103 c -0.215043,0.0956 -0.429663,0.19014 -0.643501,0.28174 l 11.60183,15.96879 c 0.10029,-0.0569 0.19982,-0.11488 0.29981,-0.17221 z m -4.063461,1.59013 c -0.100797,0.0339 -0.202616,0.0715 -0.303129,0.10436 v 0.61695 l 13.470009,14.96021 c 0.1058,-0.0564 0.21056,-0.11423 0.31604,-0.17111 z m 53.53193,0.72131 -23.48982,26.08817 v 0.13092 l 23.48982,-25.18949 z m -53.835059,4.79399 v 0.86403 l 11.474609,10.33179 c 0.1153,-0.0575 0.22948,-0.11643 0.34443,-0.17443 z m 53.835059,0.86439 -23.48982,21.15037 v 0.10657 l 23.48982,-20.41946 z m -53.835059,3.95284 v 0.72721 l 9.248718,6.71933 c 0.130762,-0.0604 0.261319,-0.12113 0.391632,-0.18217 z m 53.835059,0.72721 -23.48982,17.06625 v 0.0903 l 23.48982,-16.44778 z m -53.835059,3.38272 v 0.63317 l 6.662175,3.84626 c 0.154997,-0.0654 0.309517,-0.13141 0.463911,-0.19766 z m 53.835059,0.63317 -23.48982,13.56184 v 0.0789 l 23.48982,-13.02086 z m -53.835059,2.98887 v 0.56754 l 3.492239,1.55473 c 0.194848,-0.0734 0.389451,-0.14703 0.583393,-0.22163 z m 53.835059,0.56754 -23.48982,10.45828 v 0.0712 l 23.48982,-9.97077 z m -53.835059,2.71598 v 0.073 c 0.03591,-0.0119 0.07143,-0.0242 0.107313,-0.0362 z m 53.835059,0.52218 -23.48982,7.6324 v 0.0656 l 23.48982,-7.1814 z m 0,3.02464 -23.48982,4.99275 v 0.0623 l 23.48982,-4.56572 z m 0,2.89225 -23.48982,2.46891 v 0.0605 l 23.48982,-2.05514 z m -23.48982,2.82919 v 0.0597 l 23.48982,0.41007 v -0.46981 z m 0,0.36028 v 0.0605 l 23.48982,2.88451 v -0.47608 z m 0,0.36841 v 0.0627 l 23.48982,5.42311 v -0.49305 z m 0,0.38499 v 0.0667 l 23.48982,8.0882 v -0.52254 z m 0,0.41229 v 0.0723 L 143.12602,146.61 v -0.56717 z m 0,0.45284 v 0.0808 l 23.48982,14.11425 v -0.63281 z m 0,0.51149 v 0.0925 l 23.48982,17.7009 v -0.72684 z m 0,0.59593 v 0.11026 l 23.48982,21.90448 v -0.86439 z m 0,0.72057 v 0.13645 l 23.48982,27.02189 v -1.07017 z m 0,0.91086 v 0.17774 l 23.48982,33.54689 v -1.39358 z m 0,1.21914 v 0.24708 l 23.48982,42.37632 v -1.93752 z m 0,1.76198 v 0.37652 l 22.68886,53.4508 h 0.80096 v -1.06833 z m 0,2.85058 v 0.66194 l 15.38281,50.3148 h 1.18079 z m 0,5.57689 v 1.5079 l 8.53183,43.89195 h 1.11811 z m 0,16.48618 v 6.56629 l 1.9552,22.34738 h 1.08382 z" />
      <path
         id="text44345"
         style="font-weight:bold;font-size:239.91px;font-family:Arial;-inkscape-font-specification:'Arial, Bold';display:inline;fill:#000000;stroke-width:0.342406"
         inkscape:label="2"
         d="m 118.35731,72.533566 c -0.3604,8.39e-4 -0.7185,0.0049 -1.07497,0.0118 l -0.34,19.486472 c 0.24187,-0.01013 0.48756,-0.01443 0.73459,-0.01696 z m 5.37885,0.217205 -2.39552,19.511917 c 0.24485,0.03811 0.48569,0.08192 0.7239,0.1287 l 2.74585,-19.537731 c -0.35543,-0.03755 -0.71354,-0.07195 -1.07423,-0.102886 z m -11.80465,0.141238 c -0.35651,0.04017 -0.71108,0.08323 -1.06316,0.130176 l 1.72178,19.677494 c 0.23467,-0.06644 0.47237,-0.128297 0.71357,-0.185122 z m 18.21054,0.814979 -4.56905,19.790706 c 0.22652,0.103427 0.44884,0.212143 0.6671,0.32636 l 4.95478,-19.871835 c -0.34804,-0.0854 -0.69867,-0.167547 -1.05283,-0.245231 z m -24.52091,0.306447 c -0.3464,0.08594 -0.6903,0.175402 -1.03181,0.268832 l 3.93734,20.256092 c 0.21043,-0.138536 0.42496,-0.271122 0.64313,-0.39827 z m 30.72175,1.570585 -7.04164,20.450434 c 0.0811,0.07862 0.16148,0.158042 0.24081,0.238962 0.10407,0.102029 0.20545,0.206292 0.30571,0.311609 l 7.49411,-20.589459 c -0.32941,-0.141853 -0.66265,-0.278409 -0.99899,-0.411546 z m -36.781722,0.417447 c -0.32711,0.135969 -0.652035,0.27569 -0.973918,0.419658 l 6.5213,21.329947 c 0.16332,-0.221707 0.3316,-0.435761 0.50485,-0.641658 z m 42.551852,2.505045 -9.98073,21.403329 c 0.12306,0.255919 0.239,0.518209 0.34848,0.785849 l 10.53278,-21.595092 c -0.29692,-0.202163 -0.59619,-0.401259 -0.90053,-0.594086 z m -48.189956,0.393476 c -0.297921,0.185719 -0.593908,0.374426 -0.88652,0.568272 l 9.733646,22.93114 c 0.0975,-0.2889 0.19938,-0.57087 0.30534,-0.84633 z m 53.271956,3.588488 -13.59098,22.618794 c 0.0403,0.31073 0.0746,0.62671 0.10252,0.9481 l 14.25475,-22.812025 c -0.25059,-0.253778 -0.50569,-0.505691 -0.76629,-0.754869 z m -58.299747,0.200241 c -0.256252,0.238853 -0.50675,0.484588 -0.754501,0.73385 l 13.424288,24.218513 c 0.0424,-0.29381 0.0892,-0.58022 0.13718,-0.86513 z m 62.527307,4.639478 -17.78166,23.596405 c -0.0421,0.33787 -0.0928,0.67603 -0.1512,1.01448 l 18.54317,-23.733953 c -0.19746,-0.295069 -0.4019,-0.586893 -0.61031,-0.876932 z m -66.630964,0.152301 c -0.197646,0.288417 -0.390997,0.582246 -0.580811,0.880251 l 15.881755,22.681483 0.63429,0.0634 z m 69.816754,5.399142 -22.66969,24.309972 c -0.1484,0.35576 -0.30591,0.71195 -0.47202,1.06832 l 23.55805,-24.394786 c -0.13295,-0.330503 -0.27212,-0.658184 -0.41634,-0.983506 z m -72.86389,0.106205 c -0.139319,0.31498 -0.275471,0.633571 -0.408227,0.956586 l 14.494083,16.673501 0.77257,0.0774 z m -2.067685,5.794093 c -0.09005,0.319235 -0.176914,0.642127 -0.261826,0.967651 l 11.082972,10.335103 0.98535,0.0985 z m 76.908175,0.17959 -28.18093,24.497304 c -0.25177,0.33599 -0.54104,0.70101 -0.85223,1.08307 l 29.24078,-24.53566 c -0.0643,-0.350464 -0.13273,-0.699118 -0.20762,-1.044714 z m -78.190015,5.555504 c -0.05302,0.3088 -0.104643,0.61904 -0.153777,0.93261 l 5.216601,3.93107 1.333099,0.1335 z m 78.957795,0.73385 -33.50706,23.4618 c -0.16906,0.17931 -0.33508,0.35626 -0.51111,0.54098 l 34.04066,-22.96101 c -0.003,-0.34935 -0.0104,-0.69658 -0.0225,-1.04177 z m -0.22974,6.13004 -35.58065,19.72286 c -0.0828,0.0843 -0.16272,0.16623 -0.2467,0.25149 l 35.7086,-18.98642 c 0.0434,-0.32835 0.0829,-0.65769 0.11875,-0.98793 z m -1.03071,5.74984 -35.73147,15.16709 c -0.0472,0.0474 -0.0944,0.0943 -0.14198,0.14197 l 35.6319,-14.39599 c 0.084,-0.30352 0.16446,-0.60781 0.24155,-0.91307 z m -1.70187,5.25606 -34.73691,10.62017 c -0.0301,0.0299 -0.0631,0.0621 -0.0933,0.0922 l 34.49795,-9.89221 c 0.10629,-0.25593 0.21149,-0.5117 0.31161,-0.76631 0.007,-0.0179 0.0135,-0.036 0.0207,-0.0538 z m -2.13554,4.66676 -33.08482,6.43097 c -0.0217,0.0214 -0.0439,0.0434 -0.0656,0.0649 l 32.76732,-5.7775 c 0.12959,-0.23994 0.25866,-0.47952 0.38315,-0.71837 z m -2.32656,4.05646 -31.1097,2.72188 c -0.0167,0.0165 -0.033,0.0329 -0.0498,0.0494 l 30.76563,-2.1514 c 0.13234,-0.20681 0.26512,-0.41386 0.39385,-0.6199 z m -31.38222,2.99109 c -0.0135,0.0133 -0.0263,0.0261 -0.0398,0.0394 l 28.70681,1.00232 c 0.1287,-0.17867 0.25408,-0.35661 0.38019,-0.53472 z m -0.22162,0.21904 c -0.0114,0.0112 -0.0218,0.0216 -0.0332,0.0328 l 26.69074,3.75111 c 0.008,-0.0102 0.0171,-0.0212 0.0251,-0.0314 0.11428,-0.14546 0.22442,-0.29004 0.33705,-0.43514 z m -0.18845,0.18512 c -0.009,0.009 -0.0194,0.0192 -0.0288,0.0284 l 24.69313,6.15659 c 0.12089,-0.13581 0.24613,-0.27444 0.3625,-0.40712 z m -0.16558,0.16152 c -0.008,0.008 -0.0174,0.0168 -0.0258,0.0251 l 22.75229,8.28144 c 0.1161,-0.12223 0.22976,-0.24266 0.34295,-0.36287 z m -0.14898,0.1453 c -0.008,0.008 -0.0158,0.0156 -0.0236,0.0232 l 20.90218,10.19461 c 0.10799,-0.10912 0.22106,-0.22155 0.3271,-0.32931 z m -0.13792,0.1346 c -0.007,0.007 -0.0148,0.0143 -0.0221,0.0214 l 19.13541,11.95696 c 0.1043,-0.10237 0.20955,-0.20513 0.31235,-0.30646 z m -0.13017,0.12685 c -0.007,0.007 -0.0143,0.0138 -0.0214,0.0207 l 17.42616,13.61457 c 0.10242,-0.0983 0.20158,-0.19425 0.30276,-0.2917 z m -0.12612,0.12317 c -0.007,0.007 -0.014,0.0135 -0.021,0.0203 l 15.7479,15.20728 c 0.0992,-0.0935 0.20168,-0.18933 0.29981,-0.28211 z m -0.12501,0.1217 c -0.007,0.007 -0.014,0.0135 -0.021,0.0203 l 14.07,16.76791 c 0.0995,-0.0924 0.20346,-0.18776 0.30202,-0.27953 z m -0.12649,0.12317 c -0.007,0.007 -0.0142,0.014 -0.0214,0.021 l 12.36851,18.33702 c 0.0358,-0.0328 0.067,-0.0615 0.10288,-0.0944 0.0712,-0.0653 0.13461,-0.12524 0.2054,-0.19028 z m -0.13092,0.1276 c -0.008,0.007 -0.0148,0.0147 -0.0225,0.0221 l 10.60837,19.95075 c 0.10455,-0.0965 0.21541,-0.19862 0.3212,-0.29612 z m -0.13828,0.13533 c -0.008,0.008 -0.0161,0.0153 -0.0243,0.0232 l 8.75236,21.66258 c 0.11331,-0.1053 0.22718,-0.21076 0.34221,-0.31751 z m -0.15046,0.1464 c -0.009,0.009 -0.0174,0.0173 -0.0266,0.0262 l 6.74662,23.52855 c 0.12451,-0.11687 0.24686,-0.23203 0.37394,-0.35107 z m -0.16779,0.163 c -0.01,0.01 -0.0204,0.0196 -0.0302,0.0291 l 4.51963,25.63053 c 0.13617,-0.12993 0.28005,-0.26667 0.42039,-0.40012 z m -0.19249,0.18549 c -0.0115,0.0112 -0.0239,0.0228 -0.0354,0.0339 l 1.96553,28.1057 c 0.16576,-0.16366 0.31306,-0.31163 0.48936,-0.4842 z m -0.22865,0.21979 c -0.014,0.0135 -0.0284,0.0277 -0.0424,0.0413 l -1.09413,31.33244 c 0.15469,-0.1816 0.30805,-0.36307 0.46759,-0.54542 0.0411,-0.0456 0.0902,-0.0981 0.1335,-0.14566 z m -0.28173,0.27177 c -0.0179,0.0173 -0.0359,0.0347 -0.0538,0.052 l -8.27,58.8433 h 1.09266 l 2.67873,-21.81857 h -0.59998 c 0.23543,-0.40666 0.48866,-0.81576 0.75081,-1.22652 z m -0.36545,0.35218 c -0.0244,0.0235 -0.0482,0.0462 -0.0726,0.0697 l -14.5789,58.47343 h 1.13581 z m -0.50669,0.48788 c -0.034,0.0326 -0.0702,0.0669 -0.10436,0.0996 l -21.093935,57.95568 h 1.208455 z m -0.76188,0.72648 c -0.0558,0.0532 -0.11206,0.10659 -0.16815,0.16004 l -27.882969,57.16873 h 1.318349 z m -1.3176,1.25233 c -0.10446,0.0989 -0.21321,0.20129 -0.31862,0.30092 l -34.852324,55.77552 h 1.477287 z m -2.85206,2.68058 c -0.20275,0.18936 -0.39672,0.37209 -0.60257,0.56385 -0.0801,0.0743 -0.15552,0.14603 -0.23527,0.22016 l -31.393277,40.18213 c -0.363489,1.03499 -0.695561,2.07753 -0.996045,3.12826 z m 4.74015,31.57729 -0.76188,21.81857 h 1.07459 l 0.38094,-21.81857 z m 4.1634,0 1.52559,21.81857 h 1.08049 l -1.90911,-21.81857 z m 4.22498,0 3.84699,21.81857 h 1.11074 l -4.24121,-21.81857 z m 4.38392,0 6.25653,21.81857 h 1.16826 l -6.67066,-21.81857 z m 4.65718,0 8.81542,21.81857 h 1.25824 l -9.26163,-21.81857 z m 5.06983,0 11.60147,21.81857 h 1.39063 l -12.09451,-21.81857 z m 5.67019,0 14.38788,21.33069 v -2.24027 l -13.36712,-19.09042 z m 6.53569,0 7.85219,9.35787 v -1.70371 l -6.65369,-7.65416 z m 7.79983,0 0.0524,0.0505 v -0.0505 z" />
      <path
         id="text44349"
         style="font-weight:bold;font-size:239.91px;font-family:Arial;-inkscape-font-specification:'Arial, Bold';display:inline;fill:#000000;stroke-width:0.342406"
         inkscape:label="3"
         d="m 112.93161,71.533097 c -0.36573,0.01494 -0.72938,0.03437 -1.09118,0.05716 l 1.34637,19.253041 c 0.2492,-0.0178 0.50088,-0.02974 0.75487,-0.03614 z m 5.45851,0.06343 -0.68185,19.515236 c 0.25119,0.04972 0.49901,0.104648 0.74233,0.166314 l 1.02703,-19.597104 c -0.36016,-0.03192 -0.72239,-0.06051 -1.08751,-0.08445 z m -11.97096,0.653458 c -0.35929,0.06638 -0.7167,0.136607 -1.07164,0.211673 l 3.41922,19.39133 c 0.23543,-0.09621 0.47371,-0.185792 0.71467,-0.268832 z m 18.44175,0.2456 -2.85058,20.2808 c 0.22659,0.141203 0.44975,0.287286 0.66636,0.443628 l 3.24332,-20.47809 c -0.35006,-0.0868 -0.70343,-0.168559 -1.0591,-0.246338 z m -24.7595,1.449998 c -0.342509,0.122689 -0.682463,0.250161 -1.020378,0.382044 l 5.731028,19.986154 c 0.20123,-0.17483 0.40509,-0.343068 0.61179,-0.504844 z m 30.97399,0.484931 -5.44746,21.848435 c 0.17303,0.258548 0.33789,0.522581 0.49047,0.795065 l 5.95229,-22.213518 c -0.32868,-0.148313 -0.66054,-0.29146 -0.9953,-0.429984 z m -36.904892,2.216668 c -0.316885,0.178409 -0.629105,0.360709 -0.936672,0.546884 l 8.443694,20.898487 c 0.14447,-0.246507 0.2925,-0.488923 0.44732,-0.723524 z m 42.633342,0.826042 -9.0754,24.934296 c 0.047,0.45695 0.0774,0.92527 0.09,1.40574 l 9.87637,-25.728987 c -0.2938,-0.208766 -0.59099,-0.412196 -0.89095,-0.611049 z m -47.948404,2.90184 c -0.273158,0.237922 -0.541811,0.479588 -0.804653,0.726106 l 11.636125,21.88457 c 0.07844,-0.29327 0.161542,-0.58139 0.248919,-0.86439 z M 141.8228,81.541478 116.20849,134.05819 142.57914,82.303354 C 142.33,82.044617 142.07771,81.790927 141.8228,81.541478 Z m -25.61431,52.516712 30.39613,-46.805962 c -0.19508,-0.292071 -0.39707,-0.582195 -0.60404,-0.871031 z m 0,0 33.34259,-41.174496 c -0.12802,-0.329902 -0.26323,-0.657953 -0.40454,-0.984243 z m 0,0 34.94194,-34.941568 c -0.048,-0.359252 -0.10114,-0.717262 -0.163,-1.072748 z m 0,0 35.05773,-28.38929 c 0.0357,-0.36344 0.0635,-0.72979 0.0848,-1.09856 z m 0,0 33.49231,-21.74997 c 0.14201,-0.36592 0.27258,-0.73603 0.39679,-1.10853 z m 0,0 29.65859,-15.11177 c 0.285,-0.36006 0.55606,-0.7252 0.81903,-1.0934 z m 0,0 23.01928,-8.83643 c 0.4453,-0.32575 0.88088,-0.655 1.30175,-0.98978 z m 0,0 18.92225,-5.0702 c -0.22108,-0.0566 -0.44377,-0.11139 -0.66784,-0.1641 z m 0,0 23.16641,-3.66925 c -0.24014,-0.0988 -0.4832,-0.194 -0.72757,-0.28727 z m 0,0 27.49723,-1.44115 c -0.23425,-0.1476 -0.4716,-0.29094 -0.71098,-0.43182 z m 0,0 31.51497,1.65171 c -0.20914,-0.19463 -0.4208,-0.38593 -0.63538,-0.57343 z m 0,0 34.99467,5.54259 c -0.17692,-0.23564 -0.35769,-0.46923 -0.54283,-0.70066 z m 0,0 37.79104,10.12602 c -0.13063,-0.27026 -0.26513,-0.53853 -0.40454,-0.80429 z m 0,0 39.66807,15.2272 c -0.0776,-0.29541 -0.16081,-0.58819 -0.24707,-0.87915 z m 0,0 40.58742,20.68018 c -0.0257,-0.31114 -0.0551,-0.62048 -0.0889,-0.92746 z m 0,0 40.62503,26.38208 c 0.0202,-0.32043 0.0369,-0.64242 0.0498,-0.9658 z m 0,0 5.245,4.24711 c 0.11493,0.0381 0.22915,0.0778 0.34295,0.11874 z m 0,0 3.86212,3.86212 c 0.0605,0.0137 0.12085,0.028 0.18106,0.0424 z m 0,0 2.98887,3.69101 c 0.0417,0.007 0.0838,0.013 0.12538,0.0203 z m 0,0 2.33468,3.59513 c 0.0332,0.004 0.0661,0.009 0.0992,0.0133 z m 0,0 1.80328,3.53907 c 0.0274,0.002 0.0549,0.004 0.0822,0.007 z m 0,0 1.34527,3.50441 c 0.0241,0.002 0.0482,0.003 0.0723,0.004 z m 0,0 0.93335,3.48339 c 0.0221,8.5e-4 0.0443,0.002 0.0664,0.003 z m 0,0 0.5502,3.4727 c 0.0207,3.4e-4 0.0416,3.1e-4 0.0623,7.3e-4 z m 0,0 0.1818,3.47012 c 0.0201,-6e-5 0.0408,-7.4e-4 0.0608,-7.5e-4 z m 0,0 -0.18217,3.47454 c 0.0204,-3.7e-4 0.0405,-4.2e-4 0.0609,-7.4e-4 z m 0,0 -0.55168,3.48413 c 0.0207,-6.8e-4 0.0417,-0.002 0.0623,-0.002 z m 0,0 -0.93741,3.49851 c 0.022,-0.001 0.044,-0.002 0.066,-0.003 z m 0,0 -1.35191,3.52211 c 0.024,-0.001 0.0476,-0.003 0.0716,-0.004 z m 0,0 -1.81139,3.55493 c 0.0268,-0.002 0.0537,-0.004 0.0804,-0.006 z m 0,0 -2.33836,3.60103 c 0.0313,-0.003 0.0629,-0.007 0.094,-0.01 z m 0,0 -2.97006,3.66777 c 0.0382,-0.004 0.077,-0.009 0.11505,-0.0136 z m 0,0 -3.76882,3.76882 c 0.0497,-0.007 0.0995,-0.0136 0.14899,-0.0203 z m 0,0 -4.85963,3.93513 c 0.0707,-0.0118 0.14181,-0.0241 0.21204,-0.0354 z m 0,0 -6.54454,4.25006 c 0.11664,-0.024 0.23333,-0.0483 0.34886,-0.0712 z m 0,0 -9.93131,5.06025 c 0.27649,-0.0747 0.55076,-0.14742 0.82199,-0.21684 z m 0,0 -10.36424,3.97828 -0.0299,0.22126 z m 0,0 -10.19535,2.73184 -0.0269,0.19951 z m 0,0 -10.04083,1.5905 -0.0251,0.18438 z m 0,0 -9.89591,0.51849 -0.0236,0.17517 z m 0,0 -9.75614,-0.51148 -0.0232,0.17 z m 0,0 -9.61933,-1.52338 -0.0229,0.16816 z m 0,0 -9.48178,-2.54044 -0.0229,0.17074 z m 0,0 -9.34017,-3.58553 -0.024,0.17737 z m 0,0 -9.19156,-4.68336 -0.0255,0.18807 z m 0,0 -9.03151,-5.86526 -0.0277,0.2043 z m 0,0 -8.85487,-7.17071 -0.031,0.22827 z m 0,0 -8.65389,-8.65389 -0.0358,0.26256 z m 0,0 -8.41825,-10.39559 -0.0424,0.31272 z m 0,0 -8.13061,-12.52006 -0.0527,0.38794 z m 0,0 -7.087,-13.90884 c -0.10265,-4.7e-4 -0.20666,-0.002 -0.31013,-0.003 z m 0,0 -5.35194,-13.9424 c -0.0924,0.004 -0.18196,0.0114 -0.2751,0.0148 z m 0,0 -3.76476,-14.05045 c -0.0856,0.008 -0.17074,0.0168 -0.25703,0.0243 z m 0,0 -2.25502,-14.23742 c -0.0828,0.0127 -0.16545,0.0253 -0.24892,0.0373 z m 0,0 -0.76077,-14.51399 c -0.0833,0.0182 -0.16633,0.0368 -0.2504,0.0542 z m 0,0 0.78142,-14.91153 c -0.0874,0.0262 -0.17492,0.0523 -0.2633,0.0774 z m 0,0 2.45526,-15.50156 c -0.0972,0.0397 -0.19451,0.0794 -0.29317,0.11764 z m 0,0 4.40974,-16.45704 c -0.11742,0.0679 -0.23616,0.13467 -0.35623,0.19988 z m 0,0 7.08626,-18.45982 c -0.15699,0.1505 -0.31684,0.29923 -0.48199,0.4451 -0.0224,0.0195 -0.0456,0.0382 -0.0682,0.0575 z M 84.46083,85.170898 c -0.147059,0.202406 -0.29422,0.404825 -0.436253,0.611419 -0.06335,0.09267 -0.124288,0.189948 -0.186966,0.283952 l 14.136377,20.958231 0.762982,0.1298 z m -3.257333,5.659861 c -0.148833,0.324029 -0.294988,0.653193 -0.438466,0.987932 l 12.019644,14.324449 0.949211,0.16115 z m -2.256127,5.966308 c -0.100861,0.326326 -0.198754,0.658305 -0.295752,0.992356 l 7.479365,7.223067 1.243119,0.21131 z m -1.514532,5.860843 c -0.06024,0.28126 -0.121585,0.56059 -0.179591,0.84632 l 1.549566,0.2633 z m 51.994532,41.72802 c 0.18511,0.26367 0.3628,0.53305 0.53287,0.80833 l 26.06015,21.10279 c 0.0711,-0.32407 0.13758,-0.65012 0.20024,-0.97761 z m 2.30148,4.66013 c 0.0818,0.25148 0.15953,0.50637 0.23233,0.76482 l 22.2681,22.26809 c 0.12757,-0.31408 0.25101,-0.62997 0.36951,-0.94773 z m 0.96175,4.65459 c 0.0274,0.26365 0.0511,0.52977 0.0712,0.79913 l 18.66891,23.05467 c 0.18266,-0.29261 0.36045,-0.58728 0.53398,-0.88357 z m 0.0992,4.9404 c -0.0166,0.2883 -0.0368,0.57395 -0.0612,0.85628 l 14.97643,23.06131 c 0.23075,-0.264 0.45756,-0.52977 0.67964,-0.79727 z m -36.452406,0.85148 -0.803916,0.0974 -14.902309,18.40267 c 0.178214,0.30342 0.360322,0.6045 0.547253,0.90238 z m -5.31285,0.64461 -1.01817,0.12354 -12.073854,12.07385 c 0.12253,0.32479 0.249165,0.64694 0.379832,0.96655 z m -6.891917,0.836 -1.365919,0.16594 -6.551175,5.30511 c 0.07046,0.33103 0.144081,0.65994 0.22163,0.98646 z m 14.412584,0.28469 -14.227094,21.90817 c 0.230452,0.26987 0.464089,0.53775 0.703242,0.80207 l 13.686479,-21.903 c -0.05671,-0.26629 -0.112025,-0.53416 -0.162627,-0.80724 z m 33.459849,2.50947 c -0.0738,0.28022 -0.15287,0.5566 -0.23638,0.82936 l 11.42372,22.42039 c 0.26928,-0.22972 0.5366,-0.46343 0.8017,-0.7014 z m -32.11495,2.31734 -11.002949,21.59509 c 0.276859,0.22979 0.557548,0.45354 0.839686,0.67448 l 10.483723,-21.49516 c -0.11063,-0.25387 -0.217825,-0.51163 -0.32046,-0.77441 z m 30.22354,2.38925 c -0.13588,0.23967 -0.27658,0.47542 -0.42261,0.7073 l 8.29545,21.61021 c 0.30659,-0.18608 0.61099,-0.37624 0.91307,-0.57122 z m -27.86895,1.96148 -8.034732,20.93131 c 0.313768,0.17899 0.63073,0.35268 0.949947,0.52255 l 7.575615,-20.81441 c -0.16811,-0.20819 -0.33152,-0.42146 -0.49083,-0.63945 z m 24.93613,1.88847 c -0.18774,0.1906 -0.37795,0.37494 -0.57048,0.55426 l 5.57246,20.7967 c 0.33621,-0.13326 0.66994,-0.27146 1.00158,-0.41376 z m -21.6268,1.49831 -5.42938,20.26273 c 0.34057,0.12235 0.68376,0.24048 1.0296,0.35401 l 5.02521,-20.15616 c -0.21103,-0.14774 -0.41939,-0.30143 -0.62543,-0.46058 z m 17.9074,1.36887 c -0.22449,0.1256 -0.45186,0.24454 -0.68148,0.35807 l 3.17141,20.02266 c 0.35556,-0.078 0.70939,-0.15973 1.06058,-0.24634 z m -13.90811,0.88762 -3.12199,19.71105 c 0.35585,0.0672 0.71391,0.13079 1.07459,0.18992 l 2.76134,-19.64763 c -0.24041,-0.0787 -0.47848,-0.16327 -0.71394,-0.25334 z m 9.6433,0.70988 c -0.24473,0.0518 -0.49214,0.0976 -0.74159,0.13828 l 1.02554,19.56945 c 0.36464,-0.0262 0.72725,-0.0563 1.08787,-0.0904 z m -5.24278,0.29022 -1.02075,19.47614 c 0.36163,0.0186 0.72564,0.0335 1.09155,0.045 l 0.68001,-19.47135 c -0.25217,-0.012 -0.50298,-0.0278 -0.75081,-0.0498 z" />
      <path
         id="text44353"
         style="font-weight:bold;font-size:239.91px;font-family:Arial;-inkscape-font-specification:'Arial, Bold';display:inline;fill:#000000;stroke-width:0.342406"
         inkscape:label="4"
         d="m 125.9532,72.53246 -6.30742,39.8248 0.52771,-0.78474 6.8838,-39.04006 z m 6.74109,0 -10.38304,38.7502 v 1.49279 l 11.5395,-40.24299 z m 7.13198,0 -17.51502,45.62775 v 0.79322 l 18.75557,-46.42097 z m 5.22251,4.924168 -22.73753,44.624332 v 0.49967 l 22.73753,-42.763146 z m -25.08623,2.919172 -1.01891,1.490931 -1.79221,34.198499 0.35181,-0.52292 z m -5.35488,7.838546 -0.74455,1.089711 1.53887,29.362103 0.25556,-0.3802 z m 30.44111,1.433772 -22.73753,35.012742 v 0.34959 l 22.73753,-33.709879 z m -34.45701,4.444768 -0.57896,0.847431 4.06863,25.688803 0.19839,-0.29465 z m 34.45701,4.350733 -22.73753,28.078421 v 0.2633 l 22.73753,-27.097496 z m -37.64206,0.31161 -0.47239,0.691441 6.09501,22.74676 0.16115,-0.2397 z m -2.64075,3.865431 -0.40012,0.58598 7.78803,20.28854 0.13607,-0.20282 z m 40.28281,2.59761 -22.73753,22.73717 v 0.20946 l 22.73753,-21.95759 z m -42.55258,0.72536 -0.35107,0.5137 9.25314,18.16038 0.11948,-0.17701 z m -2.01385,2.94757 -0.3164,0.46354 10.56043,16.26197 0.10768,-0.15968 z m 44.56643,1.81287 -22.73753,18.41225 v 0.17406 l 22.73753,-17.7647 z m -46.402527,0.87509 -0.293171,0.42925 11.759298,14.52137 0.0992,-0.14751 z m -1.717355,2.51426 -0.278052,0.40712 12.885514,12.88552 0.094,-0.13976 z m 48.119882,1.23575 -22.73753,14.76586 v 0.14973 l 22.73753,-14.20792 z m -49.764591,1.17158 -0.26957,0.39495 13.968951,11.31198 0.0911,-0.13534 z m -1.610412,2.35753 -0.267726,0.392 15.035069,9.76389 0.0904,-0.13423 z m 51.375003,0.50522 -22.73753,11.58523 v 0.13313 l 22.73753,-11.08998 z m -52.987628,1.85527 -0.271414,0.39753 16.107072,8.20695 0.0915,-0.1357 z m 52.987628,1.76862 -22.73753,8.72801 v 0.12169 l 22.73753,-8.2759 z m -54.638237,0.64793 -0.281739,0.41191 17.209696,6.60612 0.0948,-0.1405 z m -1.728419,2.52975 -0.298702,0.43735 18.369098,4.92196 0.10031,-0.14898 z m 56.366656,0.16557 -22.73753,6.09243 v 0.11358 l 22.73753,-5.66908 z m -58.219718,2.54709 -0.324885,0.47571 19.618493,3.10724 0.10878,-0.16152 z m 58.219718,0.61253 -22.73753,3.60139 v 0.10878 l 22.73753,-3.19537 z m -60.257902,2.37118 -0.362868,0.53102 21.00027,1.10078 0.12132,-0.18033 z m 60.257902,0.68517 -22.73753,1.19186 v 0.10658 l 22.73753,-0.79397 z m -22.73753,1.8313 v 0.10694 l 22.73753,1.59014 v -0.50522 z m -17.53127,0.0793 -22.294275,0.77847 -0.417815,0.61179 22.5727,-1.18301 z m 17.53127,0.56754 v 0.10952 l 22.73753,4.00925 v -0.51738 z m 0,0.66857 v 0.11469 l 22.73753,6.51983 v -0.54172 z m -18.42811,0.097 -24.089077,3.38566 -0.497837,0.72869 24.421334,-3.86801 z m 18.42811,0.61068 v 0.1228 l 22.73753,9.18677 v -0.58155 z m 0,0.76667 v 0.13534 l 22.73753,12.08971 v -0.63982 z m -19.51193,0.2338 -26.267016,6.54933 -0.618056,0.90422 26.680412,-7.14895 z m 19.51193,0.6199 v 0.15304 l 37.95182,25.59918 v -1.10594 z m 0,0.97871 v 0.17886 l 37.8316,31.7447 h 0.12022 v -1.19075 z m -20.88116,0.43699 -29.033526,10.56744 -0.242281,0.35475 v 0.60994 l 29.009187,-11.1357 z m 20.88116,0.72389 v 0.21684 l 29.4978,30.54584 h 1.26488 z m 0,1.43341 v 0.2751 l 22.73753,29.10248 v -0.0483 h 1.01264 z m -22.712099,0.56495 -27.444868,13.38593 v 0.95954 l 27.074256,-13.7949 z m 22.712099,1.29622 v 0.36914 l 22.73753,36.38751 v -1.74391 z m 0,2.5799 v 0.53509 l 22.73753,46.61899 v -2.52938 z m -25.355432,0.0531 -24.801535,15.49787 v 1.08086 l 24.237318,-15.73978 z m 25.355432,3.86801 v 0.31899 H 122.111 l 16.49133,45.30876 h 1.22394 z m -26.860009,0.31899 -23.296958,18.20168 v 1.25529 l 24.027489,-19.45697 z m 3.963895,0 -21.381574,20.64809 h 1.309866 l 20.647724,-20.64809 z m 3.185424,0 -17.325858,20.64809 h 1.080861 L 103.0759,150.27554 Z m 2.66915,0 -13.927289,20.64809 h 0.92561 l 13.408799,-20.64809 z m 2.31586,0 -10.978607,20.64809 h 0.817928 l 10.520599,-20.64809 z m 2.07064,0 -8.34229,20.64809 h 0.74344 l 7.92595,-20.64809 z m 1.90211,0 -5.92095,20.64809 h 0.69328 l 5.53264,-20.64809 z m 1.79074,0 -3.64085,20.64809 h 0.66157 l 3.27024,-20.64809 z m 1.72546,0 -1.44372,20.64809 h 0.64571 l 1.08197,-20.64809 z m 1.7004,0 0.72094,20.64809 h 0.64461 l -1.08197,-20.64809 z m 1.71293,0 2.90184,20.64809 h 0.65788 l -3.2706,-20.64809 z m 1.76419,0 11.29686,45.30876 h 1.14539 l -12.14023,-45.30877 z m 26.45694,0 13.55409,7.20685 v -0.97724 l -12.22616,-6.22961 z m 9.6385,0 3.91559,1.58202 v -0.88837 l -1.80697,-0.69365 z m -34.03623,22.31345 v 4.89135 l 2.5445,18.10396 h 1.09782 z" />
      <path
         id="text44365"
         style="font-weight:bold;font-size:239.91px;font-family:Arial;-inkscape-font-specification:'Arial, Bold';display:inline;fill:#000000;stroke-width:0.342406"
         inkscape:label="5"
         d="m 93.830134,72.574131 11.939996,32.804549 0.19102,-1.08123 -10.923298,-31.723319 z m 7.048646,0 6.25505,25.086961 0.29133,-1.648395 -5.41131,-23.438566 z m 6.68872,0 3.08992,21.985617 h 0.70139 l -2.69938,-21.985617 z m 6.49402,0 0.76777,21.985617 h 0.6896 l -0.38352,-21.985617 z m 6.44645,0 -1.5374,21.985617 h 0.69365 l 1.9235,-21.985617 z m 6.54195,0 -3.8765,21.985617 h 0.71284 l 4.27365,-21.985617 z m 6.78903,0 -6.30447,21.985617 h 0.75007 l 6.72192,-21.985617 z m 7.2109,0 -8.8829,21.985617 h 0.8076 l 9.33244,-21.985617 z m 7.85035,0 -11.68997,21.985617 h 0.89279 l 12.18707,-21.985617 z m -59.697743,3.569311 -0.346274,1.834256 15.969897,32.742972 0.13755,-0.77737 z m 62.784703,4.870696 -9.13661,13.54561 h 1.01522 l 8.12139,-11.598511 z m -64.647353,4.998659 -0.267358,1.417915 17.048171,27.282978 0.10547,-0.59741 z m 64.647353,5.406517 -2.63522,3.140434 h 1.19223 l 1.44299,-1.660197 z m -66.116528,2.379296 -0.217204,1.150557 27.575782,35.295953 c 0.0335,-0.003 0.0672,-0.004 0.10067,-0.007 z m -1.21288,6.42543 -0.183278,0.97243 28.111236,29.10987 c 0.0379,-0.004 0.076,-0.007 0.11395,-0.0111 z m -1.038821,5.5046 -0.160046,0.84928 28.392235,23.82393 c 0.0431,-0.006 0.0863,-0.0127 0.12944,-0.0188 z m -0.918603,4.86701 -0.144188,0.76372 28.44423,19.18593 c 0.0503,-0.009 0.10046,-0.0193 0.15083,-0.0284 z m 37.495292,0.85186 -3.3156,18.8013 c 0.0226,0.002 0.0453,0.004 0.0678,0.006 l 3.65487,-18.80204 c -0.13561,-0.002 -0.27097,-0.004 -0.40712,-0.005 z m -2.01348,0.052 c -0.1327,0.007 -0.26533,0.0158 -0.3979,0.0247 l -1.30728,18.69399 c 0.0223,0.001 0.0448,0.003 0.0671,0.004 z m 4.48644,0.0302 -5.37923,18.75852 c 0.0231,0.002 0.0463,0.005 0.0693,0.007 l 5.72919,-18.73825 c -0.13932,-0.0103 -0.27937,-0.0188 -0.41929,-0.0277 z m -6.85024,0.18328 c -0.12956,0.0163 -0.2589,0.0353 -0.38832,0.0531 l 0.6435,18.42922 c 0.0226,0.001 0.0449,0.003 0.0675,0.004 z m 9.39327,0.0616 -7.50002,18.56308 c 0.0241,0.003 0.0482,0.006 0.0723,0.009 l 7.85919,-18.51551 c -0.14329,-0.0203 -0.28749,-0.0381 -0.43145,-0.0568 z m -11.70066,0.31235 c -0.1266,0.0249 -0.25336,0.0485 -0.37984,0.0749 l 2.53234,18.01878 c 0.0232,6.4e-4 0.0462,0.002 0.0693,0.003 z m 14.31486,0.12243 -9.6717,18.18989 c 0.0254,0.004 0.0506,0.008 0.076,0.0118 L 128.268,112.30267 c -0.14704,-0.032 -0.29436,-0.0631 -0.44215,-0.0933 z m -16.56951,0.39827 c -0.12379,0.033 -0.24769,0.0641 -0.37135,0.0985 l 4.35478,17.4671 c 0.024,2.2e-4 0.048,4.6e-4 0.0719,7.4e-4 z m 19.24603,0.25888 -11.87803,17.61018 c 0.0272,0.005 0.0544,0.01 0.0815,0.0148 l 12.24828,-17.49223 c -0.15007,-0.0454 -0.30083,-0.0893 -0.45174,-0.13275 z m -21.45201,0.40306 c -0.12094,0.0406 -0.24167,0.0838 -0.3625,0.12575 l 6.10718,16.77898 c 0.0253,-2.7e-4 0.0506,-9.2e-4 0.076,-0.001 z m 24.1761,0.5078 -14.0947,16.79741 c 0.0296,0.006 0.0593,0.0122 0.0889,0.0184 l 14.46458,-16.63954 c -0.15208,-0.0606 -0.30574,-0.11785 -0.45875,-0.17627 z m -26.33819,0.29317 c -0.1186,0.0481 -0.23701,0.0996 -0.35549,0.14898 l 7.78581,15.964 c 0.0272,-8.7e-4 0.0542,-0.003 0.0815,-0.003 z m 29.0881,0.89795 -16.28925,15.7302 c 0.0328,0.008 0.0661,0.0151 0.0988,0.0232 l 16.6488,-15.52476 c -0.15241,-0.0772 -0.30497,-0.15387 -0.45838,-0.22864 z m -31.21442,0.0395 c -0.11714,0.0556 -0.23404,0.11306 -0.35107,0.17 l 9.38996,15.02732 c 0.03,-0.002 0.0603,-0.002 0.0904,-0.004 z m -22.896842,0.0133 -0.133126,0.70545 28.269068,15.03102 c 0.059,-0.0141 0.1179,-0.0285 0.17701,-0.042 z m 56.858592,1.44631 -18.42037,14.39157 c 0.0363,0.0102 0.0722,0.0213 0.10842,0.0317 l 18.76848,-14.143 c -0.1515,-0.095 -0.30395,-0.1878 -0.45653,-0.28026 z m 2.7182,1.82319 -20.45007,12.77857 c 0.0413,0.0136 0.0831,0.026 0.12427,0.0398 h 3.7e-4 l 20.77238,-12.48098 c -0.14865,-0.11336 -0.29719,-0.22674 -0.44695,-0.33742 z m -60.356001,0.85886 -0.12575,0.66747 27.863791,11.25741 c 0.07,-0.021 0.14007,-0.0413 0.2102,-0.0616 z m 63.017401,1.3036 -22.33484,10.89306 c 0.0468,0.018 0.0939,0.0354 0.1405,0.0538 l 22.63318,-10.55374 c -0.14541,-0.13302 -0.29225,-0.26291 -0.43884,-0.39311 z m 2.58875,2.50984 -24.04556,8.75199 c 0.0527,0.024 0.1058,0.0473 0.15821,0.0719 l 24.30996,-8.3703 c -0.13939,-0.1521 -0.28038,-0.30326 -0.42261,-0.45359 z m -66.350325,0.12981 -0.121695,0.64571 27.21992,7.80536 c 0.0815,-0.0307 0.16277,-0.0622 0.24449,-0.0918 z m 68.819235,2.74953 -25.52728,6.36458 c 0.0583,0.0317 0.11617,0.0642 0.17406,0.0966 l 25.74559,-5.94344 c -0.12949,-0.1734 -0.25967,-0.34636 -0.39237,-0.51776 z m -69.546079,1.10262 -0.120587,0.63945 26.329716,4.64279 c 0.0948,-0.0446 0.18956,-0.0893 0.28468,-0.13238 z m 71.806269,2.16431 -26.69112,3.75111 c 0.0639,0.0418 0.12656,0.0856 0.18992,0.12833 l 26.85411,-3.29753 c -0.1154,-0.19531 -0.23399,-0.3888 -0.35291,-0.58191 z m -72.532374,1.68379 -0.122431,0.64682 25.206815,1.76272 c 0.10721,-0.0627 0.21426,-0.12583 0.32193,-0.1866 z m 74.507124,1.96665 -27.47769,0.95953 c 0.0693,0.0549 0.13831,0.10979 0.20688,0.16595 l 27.56841,-0.48124 c -0.097,-0.21609 -0.19682,-0.43052 -0.2976,-0.64424 z m -51.13715,1.54182 -24.111568,0.42114 -0.126487,0.66894 23.878875,-0.83379 c 0.11949,-0.0865 0.23909,-0.17236 0.35918,-0.25629 z m 24.92138,0.52402 c 0.0715,0.0692 0.14214,0.14014 0.21279,0.21093 l 27.85863,2.43756 c -0.0754,-0.23473 -0.15083,-0.46948 -0.23012,-0.70176 z m -27.16349,1.22062 -13.160618,1.61594 1.82688,0.26441 10.944684,-1.53813 c 0.129419,-0.11525 0.258883,-0.23017 0.389054,-0.34222 z m 28.46967,0.17701 c 0.074,0.0867 0.14642,0.1754 0.21869,0.26404 l 27.69968,5.38402 c -0.0523,-0.25292 -0.10743,-0.50409 -0.16373,-0.7545 z m 1.27336,1.72068 c 0.0677,0.1053 0.1349,0.21112 0.20061,0.31862 l 27.16756,8.30614 c -0.028,-0.26837 -0.0561,-0.53659 -0.0881,-0.80244 z m -32.155886,0.4097 -2.301485,0.53139 0.97945,0.14161 0.904589,-0.22569 c 0.138685,-0.1511 0.277833,-0.30018 0.417446,-0.44731 z m 33.283946,1.63549 c 0.0579,0.1232 0.11499,0.24689 0.17074,0.37245 l 26.35517,11.18734 c -0.004,-0.28455 -0.01,-0.56763 -0.0173,-0.84965 z m 0.93704,2.37228 c 0.0462,0.14098 0.0903,0.28396 0.13423,0.42741 l 25.26288,14.00362 c 0.0266,-0.29534 0.0507,-0.59141 0.0719,-0.88873 z m 0.72021,2.71599 c 0.0336,0.1609 0.0657,0.32398 0.097,0.48751 l 23.76899,16.64326 c 0.0641,-0.3021 0.12491,-0.60537 0.1829,-0.90975 z m 0.48272,3.09396 c 0.02,0.18425 0.039,0.36938 0.0564,0.55648 l 21.79091,18.94253 c 0.10641,-0.30117 0.21004,-0.6035 0.30976,-0.90717 z m 0.222,3.53355 c 0.005,0.2111 0.008,0.42373 0.01,0.63797 l 19.29915,20.69566 c 0.15051,-0.29274 0.29715,-0.58712 0.44067,-0.88247 z m -0.0749,4.06899 c -0.0146,0.24683 -0.0312,0.49137 -0.0494,0.73385 l 16.33387,21.67585 c 0.19321,-0.27798 0.38321,-0.55725 0.56939,-0.83784 z m -34.771936,3.73894 -0.01918,0.002 -15.394615,21.98598 c 0.219269,0.27359 0.44451,0.54315 0.672265,0.81056 l 14.853263,-22.02065 c -0.03961,-0.25721 -0.07857,-0.51518 -0.111737,-0.77774 z m -3.891247,0.40307 -0.858125,0.0889 -14.137114,16.26307 c 0.166309,0.30625 0.335811,0.61024 0.510376,0.91049 z m 38.136583,0.45137 c -0.0479,0.26921 -0.0992,0.53431 -0.15267,0.79691 l 13.12337,21.84069 c 0.23277,-0.25383 0.46419,-0.50993 0.69255,-0.77146 z m -43.826314,0.13792 -1.095612,0.11358 -10.70019,9.97815 c 0.112126,0.32403 0.227446,0.64571 0.347011,0.96432 z m -7.451339,0.77183 -1.486507,0.15378 -4.420798,3.33146 c 0.06393,0.32662 0.131489,0.6504 0.201717,0.97244 z m 18.08552,3.00363 -12.079754,21.79237 c 0.136271,0.11946 0.271637,0.23946 0.410071,0.35734 0.131844,0.11228 0.265735,0.2217 0.399007,0.3319 l 11.540614,-21.70425 c -0.09474,-0.25517 -0.183725,-0.51512 -0.269938,-0.77736 z m 31.919143,0.87398 c -0.0976,0.26358 -0.198,0.52382 -0.30313,0.77847 l 9.95675,21.35243 c 0.27446,-0.2173 0.54617,-0.43973 0.81572,-0.66562 z m -29.86547,3.53243 -8.978042,21.15073 c 0.30508,0.18311 0.612248,0.36299 0.923397,0.53729 l 8.494215,-21.02423 c -0.15101,-0.21753 -0.29756,-0.4388 -0.43957,-0.66379 z m 27.61451,0.85629 c -0.15352,0.22114 -0.31218,0.43651 -0.47424,0.64756 l 7.08884,20.58725 c 0.31098,-0.16862 0.61975,-0.34092 0.92561,-0.51849 z m -24.60646,2.75323 -6.219285,20.34275 c 0.332475,0.1273 0.668131,0.25022 1.006369,0.36914 l 5.792986,-20.20299 c -0.19511,-0.16425 -0.38833,-0.33435 -0.58007,-0.5089 z m 21.40628,0.72869 c -0.19999,0.16832 -0.40228,0.33064 -0.60662,0.48751 l 4.57346,19.80951 c 0.33778,-0.1138 0.6725,-0.23293 1.00527,-0.35549 z m -17.66291,1.91833 -3.79205,19.5086 c 0.3484,0.0742 0.69959,0.14433 1.0532,0.21093 l 3.41812,-19.38506 c -0.22835,-0.10566 -0.45469,-0.21729 -0.67927,-0.33447 z m 13.7665,0.5196 c -0.23123,0.10053 -0.46453,0.1961 -0.70029,0.28468 l 2.34831,19.12508 c 0.35336,-0.06 0.7045,-0.12367 1.05321,-0.19176 z m -9.52603,0.9658 -1.65651,18.93368 c 0.35498,0.028 0.71208,0.0527 1.07164,0.0741 l 1.3202,-18.88317 c -0.24689,-0.0363 -0.4921,-0.0772 -0.73533,-0.12464 z m 5.19337,0.18992 c -0.24542,0.0285 -0.49281,0.052 -0.74234,0.0697 l 0.32858,18.81936 c 0.35907,-0.0121 0.71671,-0.0271 1.07164,-0.0465 z" />
      <circle
         style="fill:none;stroke:#000000;stroke-width:0.14989"
         id="path442"
         cx="116.20866"
         cy="134.05823"
         r="74.429825" />
    </g>
    <path
       id="path44403"
       style="display:inline;fill:#000000;fill-opacity:1;stroke:#000000;stroke-width:0.0580097;stroke-dasharray:none;stroke-opacity:1"
       inkscape:label="moire"
       d="m 101.24808,54.126929 a 64.970863,64.970863 0 0 0 -64.970708,64.971231 64.970863,64.970863 0 0 0 64.970708,64.97071 64.970863,64.970863 0 0 0 64.97123,-64.97071 64.970863,64.970863 0 0 0 -64.97123,-64.971231 z m 0,4.466911 v 5.16e-4 50.513714 a 9.9899406,9.9899406 0 0 0 -0.17415,0.007 l -0.88108,-50.479609 a 60.504116,60.504116 0 0 1 1.05523,-0.04134 z m 5.27203,0.24908 a 60.504116,60.504116 0 0 1 1.04852,0.124023 l -5.27617,50.195907 a 9.9899406,9.9899406 0 0 0 -0.17363,-0.016 z m -11.592054,0.124023 5.276684,50.202617 a 9.9899406,9.9899406 0 0 0 -0.1726,0.0196 L 93.880575,59.09045 a 60.504116,60.504116 0 0 1 1.047481,-0.123507 z m 17.856274,0.783932 a 60.504116,60.504116 0 0 1 1.03456,0.206189 l -10.49393,49.369596 a 9.9899406,9.9899406 0 0 0 -0.17053,-0.0341 z m -24.106539,0.206189 10.49445,49.373726 a 9.9899406,9.9899406 0 0 0 -0.171049,0.0346 L 87.642196,60.163253 a 60.504116,60.504116 0 0 1 1.035595,-0.206189 z m 30.250869,1.311031 a 60.504116,60.504116 0 0 1 1.01647,0.287321 l -15.6099,48.042024 a 9.9899406,9.9899406 0 0 0 -0.16639,-0.0522 z m -36.37711,0.287321 15.610934,48.045644 a 9.9899406,9.9899406 0 0 0 -0.164848,0.0579 L 81.560913,61.920768 a 60.504116,60.504116 0 0 1 0.990637,-0.365352 z m 42.33023,1.865002 a 60.504116,60.504116 0 0 1 0.95912,0.442351 l -20.5295,46.109851 a 9.9899406,9.9899406 0 0 0 -0.1602,-0.0698 z m -48.225994,0.442351 20.531563,46.115011 a 9.9899406,9.9899406 0 0 0 -0.15968,0.0698 L 75.697705,64.304602 a 60.504116,60.504116 0 0 1 0.958081,-0.441833 z m 53.903174,2.357478 a 60.504116,60.504116 0 0 1 0.92087,0.515731 l -25.23722,43.711032 a 9.9899406,9.9899406 0 0 0 -0.15141,-0.0858 z m -59.541589,0.515214 25.236185,43.711029 a 9.9899406,9.9899406 0 0 0 -0.147794,0.093 L 70.09598,67.251709 a 60.504116,60.504116 0 0 1 0.921391,-0.516248 z m 64.915929,2.826701 a 60.504116,60.504116 0 0 1 0.8785,0.587045 l -29.69224,40.867273 a 9.9899406,9.9899406 0 0 0 -0.14159,-0.10129 z m -70.24842,0.587045 29.695345,40.872443 a 9.9899406,9.9899406 0 0 0 -0.140044,0.10283 L 64.855473,70.802913 a 60.504116,60.504116 0 0 1 0.829407,-0.653706 z m 75.24554,3.29954 a 60.504116,60.504116 0 0 1 0.77514,0.716235 l -33.77313,37.509858 a 9.9899406,9.9899406 0 0 0 -0.13074,-0.11576 z m -80.139299,0.716752 33.7752,37.511921 a 9.9899406,9.9899406 0 0 0 -0.130225,0.11472 L 60.015975,74.881734 a 60.504116,60.504116 0 0 1 0.775146,-0.716235 z m 84.673389,3.700032 a 60.504116,60.504116 0 0 1 0.71623,0.775147 L 108.6714,112.41381 a 9.9899406,9.9899406 0 0 0 -0.11679,-0.12867 z m -89.148568,0.775147 37.511923,33.775712 a 9.9899406,9.9899406 0 0 0 -0.114205,0.1323 L 55.59919,79.415824 a 60.504116,60.504116 0 0 1 0.716752,-0.775146 z m 93.227388,4.064351 a 60.504116,60.504116 0 0 1 0.6537,0.829407 l -40.86675,29.691724 a 9.9899406,9.9899406 0 0 0 -0.10387,-0.14056 z M 52.299133,83.534436 93.171574,113.2303 a 9.9899406,9.9899406 0 0 0 -0.103353,0.14004 L 51.712606,84.412419 a 60.504116,60.504116 0 0 1 0.586527,-0.877983 z m 100.795917,4.4111 a 60.504116,60.504116 0 0 1 0.51573,0.920874 l -43.71103,25.23722 a 9.9899406,9.9899406 0 0 0 -0.0884,-0.1509 z m -104.209145,0.920874 43.711027,25.2367 v 5.2e-4 a 9.9899406,9.9899406 0 0 0 -0.08165,0.154 L 48.370174,89.787284 a 60.504116,60.504116 0 0 1 0.515731,-0.920874 z m 107.156245,4.680852 a 60.504116,60.504116 0 0 1 0.44184,0.958081 l -46.10985,20.529497 a 9.9899406,9.9899406 0 0 0 -0.0718,-0.15813 z M 46.013212,94.505343 92.128227,115.03742 a 9.9899406,9.9899406 0 0 0 -0.06976,0.15968 L 45.570862,95.464457 a 60.504116,60.504116 0 0 1 0.44235,-0.959114 z M 158.42547,99.41047 a 60.504116,60.504116 0 0 1 0.36587,0.99064 l -48.04254,15.6099 a 9.9899406,9.9899406 0 0 0 -0.0548,-0.16485 z m -114.720127,0.99064 48.046679,15.61093 a 9.9899406,9.9899406 0 0 0 -0.05581,0.16536 L 43.418538,101.4181 a 60.504116,60.504116 0 0 1 0.286805,-1.01699 z m 116.478157,5.09013 a 60.504116,60.504116 0 0 1 0.20671,1.03611 l -49.37063,10.49341 a 9.9899406,9.9899406 0 0 0 -0.0377,-0.16949 z m -118.076509,1.03611 49.374247,10.49496 a 9.9899406,9.9899406 0 0 0 -0.03256,0.17157 l -49.54788,-9.63197 a 60.504116,60.504116 0 0 1 0.206189,-1.03456 z m 119.149319,5.20278 a 60.504116,60.504116 0 0 1 0.12402,1.04748 l -50.19694,5.27617 a 9.9899406,9.9899406 0 0 0 -0.0202,-0.17312 z m -120.13944,1.04748 50.203137,5.27668 a 9.9899406,9.9899406 0 0 0 -0.01964,0.17364 l -50.307523,-4.4018 a 60.504116,60.504116 0 0 1 0.124023,-1.04852 z m 120.59419,5.2648 a 60.504116,60.504116 0 0 1 0.0419,1.05575 h -50.51475 a 9.9899406,9.9899406 0 0 0 -0.002,-0.17415 z m -120.966777,1.05575 h 50.514229 a 9.9899406,9.9899406 0 0 0 0.0067,0.17415 l -50.479606,0.88108 a 60.504116,60.504116 0 0 1 -0.04134,-1.05523 z m 70.452027,0.87023 50.30753,4.40128 a 60.504116,60.504116 0 0 1 -0.12403,1.04851 l -50.20313,-5.27668 a 9.9899406,9.9899406 0 0 0 0.0196,-0.17311 z m -19.876303,0.17311 a 9.9899406,9.9899406 0 0 0 0.01964,0.17312 l -50.09875,6.15156 a 60.504116,60.504116 0 0 1 -0.124024,-1.048 z m 19.727993,0.86145 49.54788,9.63094 a 60.504116,60.504116 0 0 1 -0.20567,1.03456 L 111.01596,121.174 a 9.9899406,9.9899406 0 0 0 0.032,-0.17105 z M 91.481238,121.174 a 9.9899406,9.9899406 0 0 0 0.03462,0.17105 L 42.31318,132.70456 a 60.504116,60.504116 0 0 1 -0.206189,-1.03611 z m 19.319232,0.84491 48.27768,14.75982 a 60.504116,60.504116 0 0 1 -0.28681,1.01596 l -48.04616,-15.61093 a 9.9899406,9.9899406 0 0 0 0.0553,-0.16485 z m -19.048964,0.16485 a 9.9899406,9.9899406 0 0 0 0.05788,0.16433 l -47.738688,16.43775 a 60.504116,60.504116 0 0 1 -0.365352,-0.99063 60.504116,60.504116 0 0 1 0,-5.2e-4 z m 18.686714,0.81545 46.4876,19.73213 a 60.504116,60.504116 0 0 1 -0.44183,0.95911 l -46.11553,-20.53156 a 9.9899406,9.9899406 0 0 0 0.0698,-0.15968 z m -18.309993,0.15968 a 9.9899406,9.9899406 0 0 0 0.06976,0.15968 l -45.743461,21.32997 a 60.504116,60.504116 0 0 1 -0.441834,-0.95809 z m 17.853173,0.7798 44.14511,24.47034 a 60.504116,60.504116 0 0 1 -0.51573,0.92036 l -43.71103,-25.23671 a 9.9899406,9.9899406 0 0 0 0.0816,-0.15399 z m -17.383951,0.15451 a 9.9899406,9.9899406 0 0 0 0.0925,0.14728 l -43.288314,26.00978 a 60.504116,60.504116 0 0 1 -0.515731,-0.92087 z m 16.831011,0.73226 41.35613,28.95792 a 60.504116,60.504116 0 0 1 -0.58704,0.8785 l -40.87244,-29.69586 a 9.9899406,9.9899406 0 0 0 0.10335,-0.14056 z m -16.256886,0.14056 a 9.9899406,9.9899406 0 0 0 0.10387,0.14056 l -40.322087,30.38419 a 60.504116,60.504116 0 0 1 -0.654224,-0.82889 z m 15.610936,0.68212 38.1155,33.13183 a 60.504116,60.504116 0 0 1 -0.71675,0.77567 l -37.51192,-33.77572 a 9.9899406,9.9899406 0 0 0 0.11317,-0.13178 z m -14.955162,0.13178 a 9.9899406,9.9899406 0 0 0 0.115238,0.13074 l -36.910925,34.42012 a 60.504116,60.504116 0 0 1 -0.716235,-0.77514 z m 14.233752,0.62373 34.41961,36.91093 a 60.504116,60.504116 0 0 1 -0.77463,0.71623 l -33.77623,-37.51192 a 9.9899406,9.9899406 0 0 0 0.13125,-0.11524 z m -13.494779,0.11473 a 9.9899406,9.9899406 0 0 0 0.132291,0.11368 l -33.132344,38.11551 a 60.504116,60.504116 0 0 1 -0.775663,-0.71676 z m 12.690179,0.55293 30.38471,40.32157 a 60.504116,60.504116 0 0 1 -0.82941,0.65423 l -29.69534,-40.87244 a 9.9899406,9.9899406 0 0 0 0.14004,-0.10336 z m -11.876275,0.10336 a 9.9899406,9.9899406 0 0 0 0.14056,0.10335 l -28.957923,41.35613 a 60.504116,60.504116 0 0 1 -0.877982,-0.58704 z m 11.010185,0.48214 26.01029,43.28779 a 60.504116,60.504116 0 0 1 -0.92087,0.51574 l -25.2367,-43.71103 a 9.9899406,9.9899406 0 0 0 0.14728,-0.0925 z m -10.136854,0.0925 a 9.9899406,9.9899406 0 0 0 0.153996,0.0817 l -24.469824,44.14511 a 60.504116,60.504116 0 0 1 -0.920357,-0.51573 z m 9.214424,0.39946 21.331,45.74294 a 60.504116,60.504116 0 0 1 -0.95808,0.44183 l -20.5326,-46.11553 a 9.9899406,9.9899406 0 0 0 0.15968,-0.0692 z m -8.280631,0.0692 a 9.9899406,9.9899406 0 0 0 0.160197,0.0698 l -19.732645,46.4876 a 60.504116,60.504116 0 0 1 -0.959115,-0.44184 z m 7.310661,0.31936 16.43828,47.73818 a 60.504116,60.504116 0 0 1 -0.99116,0.36586 L 104.3342,128.59473 a 9.9899406,9.9899406 0 0 0 0.16381,-0.0574 z m -6.335526,0.0574 a 9.9899406,9.9899406 0 0 0 0.165364,0.0558 L 83.568026,176.9277 a 60.504116,60.504116 0 0 1 -1.016476,-0.28629 z m 5.333006,0.23617 11.35951,49.20268 a 60.504116,60.504116 0 0 1 -1.03559,0.20619 l -10.49548,-49.37425 a 9.9899406,9.9899406 0 0 0 0.17156,-0.0346 z m -4.323249,0.0346 a 9.9899406,9.9899406 0 0 0 0.171566,0.032 l -9.631453,49.54788 a 60.504116,60.504116 0 0 1 -1.034563,-0.20567 z m 3.292819,0.14108 6.15157,50.09926 a 60.504116,60.504116 0 0 1 -1.048,0.12403 l -5.27668,-50.20366 a 9.9899406,9.9899406 0 0 0 0.17311,-0.0196 z m -2.26032,0.0196 a 9.9899406,9.9899406 0 0 0 0.17311,0.0196 l -4.401279,50.30804 a 60.504116,60.504116 0 0 1 -1.048515,-0.12402 z m 1.21749,0.0548 0.8816,50.47961 a 60.504116,60.504116 0 0 1 -1.05575,0.0419 v -50.51474 a 9.9899406,9.9899406 0 0 0 5.2e-4,0 9.9899406,9.9899406 0 0 0 0.17363,-0.007 z" />
  </g>
</svg>
