  0
SECTION
  2
HEADER
  9
$ACADVER
  1
AC1014
  9
$HANDSEED
  5
FFFF
  9
$MEASUREMENT
 70
     1
  0
ENDSEC
  0
SECTION
  2
TABLES
  0
TABLE
  2
VPORT
  5
8
330
0
100
AcDbSymbolTable
 70
     4
  0
VPORT
  5
2E
330
8
100
AcDbSymbolTableRecord
100
AcDbViewportTableRecord
  2
*ACTIVE
 70
     0
 10
0.0
 20
0.0
 11
1.0
 21
1.0
 12
210.0
 22
148.5
 13
0.0
 23
0.0
 14
10.0
 24
10.0
 15
10.0
 25
10.0
 16
0.0
 26
0.0
 36
1.0
 17
0.0
 27
0.0
 37
0.0
 40
341.0
 41
1.24
 42
50.0
 43
0.0
 44
0.0
 50
0.0
 51
0.0
 71
     0
 72
   100
 73
     1
 74
     3
 75
     0
 76
     0
 77
     0
 78
     0
  0
ENDTAB
  0
TABLE
  2
LTYPE
  5
5
330
0
100
AcDbSymbolTable
 70
     1
  0
LTYPE
  5
14
330
5
100
AcDbSymbolTableRecord
100
AcDbLinetypeTableRecord
  2
BYBLOCK
 70
     0
  3

 72
    65
 73
     0
 40
0.0
  0
LTYPE
  5
15
330
5
100
AcDbSymbolTableRecord
100
AcDbLinetypeTableRecord
  2
BYLAYER
 70
     0
  3

 72
    65
 73
     0
 40
0.0
  0
LTYPE
  5
16
330
5
100
AcDbSymbolTableRecord
100
AcDbLinetypeTableRecord
  2
CONTINUOUS
 70
     0
  3
Solid line
 72
    65
 73
     0
 40
0.0
  0
ENDTAB
  0
TABLE
  2
LAYER
  5
2
100
AcDbSymbolTable
 70
2
  0
LAYER
  5
50
100
AcDbSymbolTableRecord
100
AcDbLayerTableRecord
  2
0
 70
0
  6
CONTINUOUS
  0
LAYER
  5
51
100
AcDbSymbolTableRecord
100
AcDbLayerTableRecord
  2
Ebene_1
 70
0
  6
CONTINUOUS
  0
ENDTAB
  0
TABLE
  2
STYLE
  5
3
330
0
100
AcDbSymbolTable
 70
     1
  0
STYLE
  5
11
330
3
100
AcDbSymbolTableRecord
100
AcDbTextStyleTableRecord
  2
STANDARD
 70
     0
 40
0.0
 41
1.0
 50
0.0
 71
     0
 42
2.5
  3
txt
  4

  0
ENDTAB
  0
TABLE
  2
VIEW
  5
6
330
0
100
AcDbSymbolTable
 70
     0
  0
ENDTAB
  0
TABLE
  2
UCS
  5
7
330
0
100
AcDbSymbolTable
 70
     0
  0
ENDTAB
  0
TABLE
  2
APPID
  5
9
330
0
100
AcDbSymbolTable
 70
     2
  0
APPID
  5
12
330
9
100
AcDbSymbolTableRecord
100
AcDbRegAppTableRecord
  2
ACAD
 70
     0
  0
ENDTAB
  0
TABLE
  2
DIMSTYLE
  5
A
330
0
100
AcDbSymbolTable
 70
     1
  0
DIMSTYLE
105
27
330
A
100
AcDbSymbolTableRecord
100
AcDbDimStyleTableRecord
  2
ISO-25
 70
     0
  3

  4

  5

  6

  7

 40
1.0
 41
2.5
 42
0.625
 43
3.75
 44
1.25
 45
0.0
 46
0.0
 47
0.0
 48
0.0
140
2.5
141
2.5
142
0.0
143
0.03937007874016
144
1.0
145
0.0
146
1.0
147
0.625
 71
     0
 72
     0
 73
     0
 74
     0
 75
     0
 76
     0
 77
     1
 78
     8
170
     0
171
     3
172
     1
173
     0
174
     0
175
     0
176
     0
177
     0
178
     0
270
     2
271
     2
272
     2
273
     2
274
     3
340
11
275
     0
280
     0
281
     0
282
     0
283
     0
284
     8
285
     0
286
     0
287
     3
288
     0
  0
ENDTAB
  0
TABLE
  2
BLOCK_RECORD
  5
1
330
0
100
AcDbSymbolTable
 70
     1
  0
BLOCK_RECORD
  5
1F
330
1
100
AcDbSymbolTableRecord
100
AcDbBlockTableRecord
  2
*MODEL_SPACE
  0
BLOCK_RECORD
  5
1B
330
1
100
AcDbSymbolTableRecord
100
AcDbBlockTableRecord
  2
*PAPER_SPACE
  0
ENDTAB
  0
ENDSEC
  0
SECTION
  2
BLOCKS
  0
BLOCK
  5
20
330
1F
100
AcDbEntity
  8
0
100
AcDbBlockBegin
  2
*MODEL_SPACE
 70
     0
 10
0.0
 20
0.0
 30
0.0
  3
*MODEL_SPACE
  1

  0
ENDBLK
  5
21
330
1F
100
AcDbEntity
  8
0
100
AcDbBlockEnd
  0
BLOCK
  5
1C
330
1B
100
AcDbEntity
 67
     1
  8
0
100
AcDbBlockBegin
  2
*PAPER_SPACE
  1

  0
ENDBLK
  5
1D
330
1B
100
AcDbEntity
 67
     1
  8
0
100
AcDbBlockEnd
  0
ENDSEC
  0
SECTION
  2
ENTITIES
  0
LINE
  5
100
100
AcDbEntity
  8
Ebene_1
 62
7
100
AcDbLine
 10
94.996785
 20
145.508993
 30
0.0
 11
92.771082
 21
142.330883
 31
0.0
  0
LINE
  5
101
100
AcDbEntity
  8
Ebene_1
 62
7
100
AcDbLine
 10
92.771082
 20
142.330883
 30
0.0
 11
92.583496
 21
141.336113
 31
0.0
  0
LINE
  5
102
100
AcDbEntity
  8
Ebene_1
 62
7
100
AcDbLine
 10
92.583496
 20
141.336113
 30
0.0
 11
95.398311
 21
145.508993
 31
0.0
  0
LINE
  5
103
100
AcDbEntity
  8
Ebene_1
 62
7
100
AcDbLine
 10
95.398311
 20
145.508993
 30
0.0
 11
94.996785
 21
145.508993
 31
0.0
  0
LINE
  5
104
100
AcDbEntity
  8
Ebene_1
 62
7
100
AcDbLine
 10
97.276233
 20
145.508993
 30
0.0
 11
91.354631
 21
134.826433
 31
0.0
  0
LINE
  5
105
100
AcDbEntity
  8
Ebene_1
 62
7
100
AcDbLine
 10
91.354631
 20
134.826433
 30
0.0
 11
91.027519
 21
133.092693
 31
0.0
  0
LINE
  5
106
100
AcDbEntity
  8
Ebene_1
 62
7
100
AcDbLine
 10
91.027519
 20
133.092693
 30
0.0
 11
97.629700
 21
145.508993
 31
0.0
  0
LINE
  5
107
100
AcDbEntity
  8
Ebene_1
 62
7
100
AcDbLine
 10
97.629700
 20
145.508993
 30
0.0
 11
97.276233
 21
145.508993
 31
0.0
  0
LINE
  5
108
100
AcDbEntity
  8
Ebene_1
 62
7
100
AcDbLine
 10
99.305050
 20
145.508993
 30
0.0
 11
88.619914
 21
120.336883
 31
0.0
  0
LINE
  5
109
100
AcDbEntity
  8
Ebene_1
 62
7
100
AcDbLine
 10
88.619914
 20
120.336883
 30
0.0
 11
87.927966
 21
116.669403
 31
0.0
  0
LINE
  5
10a
100
AcDbEntity
  8
Ebene_1
 62
7
100
AcDbLine
 10
87.927966
 20
116.669403
 30
0.0
 11
87.970346
 21
116.663403
 31
0.0
  0
LINE
  5
10b
100
AcDbEntity
  8
Ebene_1
 62
7
100
AcDbLine
 10
87.970346
 20
116.663403
 30
0.0
 11
99.624415
 21
145.509193
 31
0.0
  0
LINE
  5
10c
100
AcDbEntity
  8
Ebene_1
 62
7
100
AcDbLine
 10
99.624415
 20
145.509193
 30
0.0
 11
99.305050
 21
145.508993
 31
0.0
  0
LINE
  5
10d
100
AcDbEntity
  8
Ebene_1
 62
7
100
AcDbLine
 10
101.160750
 20
145.508993
 30
0.0
 11
92.156649
 21
116.057553
 31
0.0
  0
LINE
  5
10e
100
AcDbEntity
  8
Ebene_1
 62
7
100
AcDbLine
 10
92.156649
 20
116.057553
 30
0.0
 11
92.978304
 21
115.938703
 31
0.0
  0
LINE
  5
10f
100
AcDbEntity
  8
Ebene_1
 62
7
100
AcDbLine
 10
92.978304
 20
115.938703
 30
0.0
 11
101.457370
 21
145.508993
 31
0.0
  0
LINE
  5
110
100
AcDbEntity
  8
Ebene_1
 62
7
100
AcDbLine
 10
101.457370
 20
145.508993
 30
0.0
 11
101.160750
 21
145.508993
 31
0.0
  0
LINE
  5
111
100
AcDbEntity
  8
Ebene_1
 62
7
100
AcDbLine
 10
102.900700
 20
145.508993
 30
0.0
 11
97.181665
 21
116.088043
 31
0.0
  0
SPLINE
  5
112
100
AcDbEntity
  8
Ebene_1
 62
7
100
AcDbSpline
 70
8
 71
3
 72
8
 73
4
 74
0
 40
0
 40
0
 40
0
 40
0
 40
1
 40
1
 40
1
 40
1
 10
97.181665
 20
116.088043
 30
0.0
 10
97.499267
 20
116.404283
 30
0.0
 10
97.822094
 20
116.698373
 30
0.0
 10
98.150081
 20
116.970163
 30
0.0
  0
LINE
  5
113
100
AcDbEntity
  8
Ebene_1
 62
7
100
AcDbLine
 10
98.150081
 20
116.970163
 30
0.0
 11
99.771171
 21
126.162363
 31
0.0
  0
SPLINE
  5
114
100
AcDbEntity
  8
Ebene_1
 62
7
100
AcDbSpline
 70
8
 71
3
 72
8
 73
4
 74
0
 40
0
 40
0
 40
0
 40
0
 40
1
 40
1
 40
1
 40
1
 10
99.771171
 20
126.162363
 30
0.0
 10
99.767071
 20
126.160363
 30
0.0
 10
99.762871
 20
126.158363
 30
0.0
 10
99.758771
 20
126.156363
 30
0.0
  0
LINE
  5
115
100
AcDbEntity
  8
Ebene_1
 62
7
100
AcDbLine
 10
99.758771
 20
126.156363
 30
0.0
 11
101.421720
 21
135.568193
 31
0.0
  0
LINE
  5
116
100
AcDbEntity
  8
Ebene_1
 62
7
100
AcDbLine
 10
101.421720
 20
135.568193
 30
0.0
 11
101.429720
 21
135.568193
 31
0.0
  0
LINE
  5
117
100
AcDbEntity
  8
Ebene_1
 62
7
100
AcDbLine
 10
101.429720
 20
135.568193
 30
0.0
 11
103.182580
 21
145.508673
 31
0.0
  0
LINE
  5
118
100
AcDbEntity
  8
Ebene_1
 62
7
100
AcDbLine
 10
103.182580
 20
145.508673
 30
0.0
 11
102.900700
 21
145.508993
 31
0.0
  0
LINE
  5
119
100
AcDbEntity
  8
Ebene_1
 62
7
100
AcDbLine
 10
104.570880
 20
145.508993
 30
0.0
 11
103.701160
 21
135.568513
 31
0.0
  0
LINE
  5
11a
100
AcDbEntity
  8
Ebene_1
 62
7
100
AcDbLine
 10
103.701160
 20
135.568513
 30
0.0
 11
104.149720
 21
135.568513
 31
0.0
  0
LINE
  5
11b
100
AcDbEntity
  8
Ebene_1
 62
7
100
AcDbLine
 10
104.149720
 20
135.568513
 30
0.0
 11
104.845280
 21
145.508993
 31
0.0
  0
LINE
  5
11c
100
AcDbEntity
  8
Ebene_1
 62
7
100
AcDbLine
 10
104.845280
 20
145.508993
 30
0.0
 11
104.570880
 21
145.508993
 31
0.0
  0
LINE
  5
11d
100
AcDbEntity
  8
Ebene_1
 62
7
100
AcDbLine
 10
106.210570
 20
145.508993
 30
0.0
 11
106.383690
 21
135.568513
 31
0.0
  0
LINE
  5
11e
100
AcDbEntity
  8
Ebene_1
 62
7
100
AcDbLine
 10
106.383690
 20
135.568513
 30
0.0
 11
106.830690
 21
135.568513
 31
0.0
  0
LINE
  5
11f
100
AcDbEntity
  8
Ebene_1
 62
7
100
AcDbLine
 10
106.830690
 20
135.568513
 30
0.0
 11
106.483420
 21
145.508993
 31
0.0
  0
LINE
  5
120
100
AcDbEntity
  8
Ebene_1
 62
7
100
AcDbLine
 10
106.483420
 20
145.508993
 30
0.0
 11
106.210570
 21
145.508993
 31
0.0
  0
LINE
  5
121
100
AcDbEntity
  8
Ebene_1
 62
7
100
AcDbLine
 10
107.856470
 20
145.508993
 30
0.0
 11
109.077060
 21
135.568513
 31
0.0
  0
LINE
  5
122
100
AcDbEntity
  8
Ebene_1
 62
7
100
AcDbLine
 10
109.077060
 20
135.568513
 30
0.0
 11
109.530780
 21
135.568513
 31
0.0
  0
LINE
  5
123
100
AcDbEntity
  8
Ebene_1
 62
7
100
AcDbLine
 10
109.530780
 20
135.568513
 30
0.0
 11
108.133970
 21
145.508993
 31
0.0
  0
LINE
  5
124
100
AcDbEntity
  8
Ebene_1
 62
7
100
AcDbLine
 10
108.133970
 20
145.508993
 30
0.0
 11
107.856470
 21
145.508993
 31
0.0
  0
LINE
  5
125
100
AcDbEntity
  8
Ebene_1
 62
7
100
AcDbLine
 10
109.545250
 20
145.508993
 30
0.0
 11
111.840200
 21
135.568513
 31
0.0
  0
LINE
  5
126
100
AcDbEntity
  8
Ebene_1
 62
7
100
AcDbLine
 10
111.840200
 20
135.568513
 30
0.0
 11
112.312010
 21
135.568513
 31
0.0
  0
LINE
  5
127
100
AcDbEntity
  8
Ebene_1
 62
7
100
AcDbLine
 10
112.312010
 20
135.568513
 30
0.0
 11
109.833610
 21
145.508993
 31
0.0
  0
LINE
  5
128
100
AcDbEntity
  8
Ebene_1
 62
7
100
AcDbLine
 10
109.833610
 20
145.508993
 30
0.0
 11
109.545250
 21
145.508993
 31
0.0
  0
LINE
  5
129
100
AcDbEntity
  8
Ebene_1
 62
7
100
AcDbLine
 10
111.317750
 20
145.508993
 30
0.0
 11
114.740800
 21
135.568513
 31
0.0
  0
LINE
  5
12a
100
AcDbEntity
  8
Ebene_1
 62
7
100
AcDbLine
 10
114.740800
 20
135.568513
 30
0.0
 11
115.243090
 21
135.568513
 31
0.0
  0
LINE
  5
12b
100
AcDbEntity
  8
Ebene_1
 62
7
100
AcDbLine
 10
115.243090
 20
135.568513
 30
0.0
 11
111.624710
 21
145.508993
 31
0.0
  0
LINE
  5
12c
100
AcDbEntity
  8
Ebene_1
 62
7
100
AcDbLine
 10
111.624710
 20
145.508993
 30
0.0
 11
111.317750
 21
145.508993
 31
0.0
  0
LINE
  5
12d
100
AcDbEntity
  8
Ebene_1
 62
7
100
AcDbLine
 10
113.224100
 20
145.508993
 30
0.0
 11
117.859470
 21
135.568513
 31
0.0
  0
LINE
  5
12e
100
AcDbEntity
  8
Ebene_1
 62
7
100
AcDbLine
 10
117.859470
 20
135.568513
 30
0.0
 11
118.406730
 21
135.568513
 31
0.0
  0
LINE
  5
12f
100
AcDbEntity
  8
Ebene_1
 62
7
100
AcDbLine
 10
118.406730
 20
135.568513
 30
0.0
 11
113.558440
 21
145.508993
 31
0.0
  0
LINE
  5
130
100
AcDbEntity
  8
Ebene_1
 62
7
100
AcDbLine
 10
113.558440
 20
145.508993
 30
0.0
 11
113.224100
 21
145.508993
 31
0.0
  0
LINE
  5
131
100
AcDbEntity
  8
Ebene_1
 62
7
100
AcDbLine
 10
115.326290
 20
145.508993
 30
0.0
 11
121.299060
 21
135.568513
 31
0.0
  0
LINE
  5
132
100
AcDbEntity
  8
Ebene_1
 62
7
100
AcDbLine
 10
121.299060
 20
135.568513
 30
0.0
 11
121.454090
 21
135.568513
 31
0.0
  0
LINE
  5
133
100
AcDbEntity
  8
Ebene_1
 62
7
100
AcDbLine
 10
121.454090
 20
135.568513
 30
0.0
 11
121.454090
 21
136.302833
 31
0.0
  0
LINE
  5
134
100
AcDbEntity
  8
Ebene_1
 62
7
100
AcDbLine
 10
121.454090
 20
136.302833
 30
0.0
 11
115.701460
 21
145.508993
 31
0.0
  0
LINE
  5
135
100
AcDbEntity
  8
Ebene_1
 62
7
100
AcDbLine
 10
115.701460
 20
145.508993
 30
0.0
 11
115.326290
 21
145.508993
 31
0.0
  0
LINE
  5
136
100
AcDbEntity
  8
Ebene_1
 62
7
100
AcDbLine
 10
117.712190
 20
145.508993
 30
0.0
 11
121.454090
 21
140.543403
 31
0.0
  0
LINE
  5
137
100
AcDbEntity
  8
Ebene_1
 62
7
100
AcDbLine
 10
121.454090
 20
140.543403
 30
0.0
 11
121.454090
 21
141.274623
 31
0.0
  0
LINE
  5
138
100
AcDbEntity
  8
Ebene_1
 62
7
100
AcDbLine
 10
121.454090
 20
141.274623
 30
0.0
 11
118.145760
 21
145.508993
 31
0.0
  0
LINE
  5
139
100
AcDbEntity
  8
Ebene_1
 62
7
100
AcDbLine
 10
118.145760
 20
145.508993
 30
0.0
 11
117.712190
 21
145.508993
 31
0.0
  0
LINE
  5
13a
100
AcDbEntity
  8
Ebene_1
 62
7
100
AcDbLine
 10
120.508410
 20
145.508993
 30
0.0
 11
121.454090
 21
144.495093
 31
0.0
  0
LINE
  5
13b
100
AcDbEntity
  8
Ebene_1
 62
7
100
AcDbLine
 10
121.454090
 20
144.495093
 30
0.0
 11
121.454090
 21
145.066633
 31
0.0
  0
LINE
  5
13c
100
AcDbEntity
  8
Ebene_1
 62
7
100
AcDbLine
 10
121.454090
 20
145.066633
 30
0.0
 11
121.026720
 21
145.508993
 31
0.0
  0
LINE
  5
13d
100
AcDbEntity
  8
Ebene_1
 62
7
100
AcDbLine
 10
121.026720
 20
145.508993
 30
0.0
 11
120.508410
 21
145.508993
 31
0.0
  0
SPLINE
  5
13e
100
AcDbEntity
  8
Ebene_1
 62
7
100
AcDbSpline
 70
8
 71
3
 72
8
 73
4
 74
0
 40
0
 40
0
 40
0
 40
0
 40
1
 40
1
 40
1
 40
1
 10
107.015690
 20
127.933313
 30
0.0
 10
106.849410
 20
127.933313
 30
0.0
 10
106.683350
 20
127.930313
 30
0.0
 10
106.517530
 20
127.924313
 30
0.0
  0
LINE
  5
13f
100
AcDbEntity
  8
Ebene_1
 62
7
100
AcDbLine
 10
106.517530
 20
127.924313
 30
0.0
 11
106.668420
 21
119.266963
 31
0.0
  0
SPLINE
  5
140
100
AcDbEntity
  8
Ebene_1
 62
7
100
AcDbSpline
 70
8
 71
3
 72
8
 73
4
 74
0
 40
0
 40
0
 40
0
 40
0
 40
1
 40
1
 40
1
 40
1
 10
106.668420
 20
119.266963
 30
0.0
 10
106.920710
 20
119.212263
 30
0.0
 10
107.167010
 20
119.146573
 30
0.0
 10
107.406880
 20
119.069043
 30
0.0
  0
LINE
  5
141
100
AcDbEntity
  8
Ebene_1
 62
7
100
AcDbLine
 10
107.406880
 20
119.069043
 30
0.0
 11
107.097340
 21
127.931033
 31
0.0
  0
SPLINE
  5
142
100
AcDbEntity
  8
Ebene_1
 62
7
100
AcDbSpline
 70
8
 71
3
 72
8
 73
4
 74
0
 40
0
 40
0
 40
0
 40
0
 40
1
 40
1
 40
1
 40
1
 10
107.097340
 20
127.931033
 30
0.0
 10
107.069940
 20
127.931143
 30
0.0
 10
107.043140
 20
127.933033
 30
0.0
 10
107.015740
 20
127.933033
 30
0.0
  0
LINE
  5
143
100
AcDbEntity
  8
Ebene_1
 62
7
100
AcDbLine
 10
107.015740
 20
127.933033
 30
0.0
 11
107.015690
 21
127.933313
 31
0.0
  0
LINE
  5
144
100
AcDbEntity
  8
Ebene_1
 62
7
100
AcDbLine
 10
110.046000
 20
127.674933
 30
0.0
 11
111.505860
 21
115.787803
 31
0.0
  0
SPLINE
  5
145
100
AcDbEntity
  8
Ebene_1
 62
7
100
AcDbSpline
 70
8
 71
3
 72
8
 73
4
 74
0
 40
0
 40
0
 40
0
 40
0
 40
1
 40
1
 40
1
 40
1
 10
111.505860
 20
115.787803
 30
0.0
 10
112.492990
 20
114.162113
 30
0.0
 10
112.987940
 20
111.987183
 30
0.0
 10
112.987940
 20
109.261073
 30
0.0
  0
SPLINE
  5
146
100
AcDbEntity
  8
Ebene_1
 62
7
100
AcDbSpline
 70
8
 71
3
 72
8
 73
4
 74
0
 40
0
 40
0
 40
0
 40
0
 40
1
 40
1
 40
1
 40
1
 10
112.987940
 20
109.261073
 30
0.0
 10
112.987940
 20
108.032083
 30
0.0
 10
112.897640
 20
106.910043
 30
0.0
 10
112.721280
 20
105.889183
 30
0.0
  0
LINE
  5
147
100
AcDbEntity
  8
Ebene_1
 62
7
100
AcDbLine
 10
112.721280
 20
105.889183
 30
0.0
 11
114.399220
 21
92.222833
 31
0.0
  0
SPLINE
  5
148
100
AcDbEntity
  8
Ebene_1
 62
7
100
AcDbSpline
 70
8
 71
3
 72
8
 73
4
 74
0
 40
0
 40
0
 40
0
 40
0
 40
1
 40
1
 40
1
 40
1
 10
114.399220
 20
92.222833
 30
0.0
 10
114.783280
 20
92.441233
 30
0.0
 10
115.157330
 20
92.676833
 30
0.0
 10
115.523700
 20
92.926153
 30
0.0
  0
LINE
  5
149
100
AcDbEntity
  8
Ebene_1
 62
7
100
AcDbLine
 10
115.523700
 20
92.926153
 30
0.0
 11
110.656810
 21
127.557633
 31
0.0
  0
SPLINE
  5
14a
100
AcDbEntity
  8
Ebene_1
 62
7
100
AcDbSpline
 70
8
 71
3
 72
8
 73
4
 74
0
 40
0
 40
0
 40
0
 40
0
 40
1
 40
1
 40
1
 40
1
 10
110.656810
 20
127.557633
 30
0.0
 10
110.454800
 20
127.600633
 30
0.0
 10
110.251140
 20
127.639433
 30
0.0
 10
110.046000
 20
127.674933
 30
0.0
  0
LINE
  5
14b
100
AcDbEntity
  8
Ebene_1
 62
7
100
AcDbLine
 10
110.046000
 20
127.674933
 30
0.0
 11
110.046000
 21
127.674933
 31
0.0
  0
SPLINE
  5
14c
100
AcDbEntity
  8
Ebene_1
 62
7
100
AcDbSpline
 70
8
 71
3
 72
8
 73
4
 74
0
 40
0
 40
0
 40
0
 40
0
 40
1
 40
1
 40
1
 40
1
 10
103.589030
 20
127.544193
 30
0.0
 10
103.387590
 20
127.498193
 30
0.0
 10
103.186700
 20
127.448493
 30
0.0
 10
102.985960
 20
127.394333
 30
0.0
  0
LINE
  5
14d
100
AcDbEntity
  8
Ebene_1
 62
7
100
AcDbLine
 10
102.985960
 20
127.394333
 30
0.0
 11
102.264040
 21
119.146253
 31
0.0
  0
SPLINE
  5
14e
100
AcDbEntity
  8
Ebene_1
 62
7
100
AcDbSpline
 70
8
 71
3
 72
8
 73
4
 74
0
 40
0
 40
0
 40
0
 40
0
 40
1
 40
1
 40
1
 40
1
 10
102.264040
 20
119.146253
 30
0.0
 10
102.511710
 20
119.211253
 30
0.0
 10
102.761000
 20
119.268703
 30
0.0
 10
103.013350
 20
119.313683
 30
0.0
  0
LINE
  5
14f
100
AcDbEntity
  8
Ebene_1
 62
7
100
AcDbLine
 10
103.013350
 20
119.313683
 30
0.0
 11
103.589030
 21
127.544193
 31
0.0
  0
LINE
  5
150
100
AcDbEntity
  8
Ebene_1
 62
7
100
AcDbLine
 10
113.941880
 20
126.465193
 30
0.0
 11
120.503760
 21
98.042113
 31
0.0
  0
SPLINE
  5
151
100
AcDbEntity
  8
Ebene_1
 62
7
100
AcDbSpline
 70
8
 71
3
 72
8
 73
4
 74
0
 40
0
 40
0
 40
0
 40
0
 40
1
 40
1
 40
1
 40
1
 10
120.503760
 20
98.042113
 30
0.0
 10
120.799390
 20
98.482493
 30
0.0
 10
121.076540
 20
98.929483
 30
0.0
 10
121.333680
 20
99.384153
 30
0.0
  0
LINE
  5
152
100
AcDbEntity
  8
Ebene_1
 62
7
100
AcDbLine
 10
121.333680
 20
99.384153
 30
0.0
 11
114.672070
 21
126.102933
 31
0.0
  0
SPLINE
  5
153
100
AcDbEntity
  8
Ebene_1
 62
7
100
AcDbSpline
 70
8
 71
3
 72
8
 73
4
 74
0
 40
0
 40
0
 40
0
 40
0
 40
1
 40
1
 40
1
 40
1
 10
114.672070
 20
126.102933
 30
0.0
 10
114.431460
 20
126.230353
 30
0.0
 10
114.188080
 20
126.351113
 30
0.0
 10
113.941880
 20
126.465193
 30
0.0
  0
LINE
  5
154
100
AcDbEntity
  8
Ebene_1
 62
7
100
AcDbLine
 10
113.941880
 20
126.465193
 30
0.0
 11
113.941880
 21
126.465193
 31
0.0
  0
LINE
  5
155
100
AcDbEntity
  8
Ebene_1
 62
7
100
AcDbLine
 10
119.226830
 20
122.540883
 30
0.0
 11
123.902510
 21
108.961353
 31
0.0
  0
SPLINE
  5
156
100
AcDbEntity
  8
Ebene_1
 62
7
100
AcDbSpline
 70
8
 71
3
 72
8
 73
4
 74
0
 40
0
 40
0
 40
0
 40
0
 40
1
 40
1
 40
1
 40
1
 10
123.902510
 20
108.961353
 30
0.0
 10
123.905510
 20
109.124103
 30
0.0
 10
123.911510
 20
109.286183
 30
0.0
 10
123.911510
 20
109.450203
 30
0.0
  0
SPLINE
  5
157
100
AcDbEntity
  8
Ebene_1
 62
7
100
AcDbSpline
 70
8
 71
3
 72
8
 73
4
 74
0
 40
0
 40
0
 40
0
 40
0
 40
1
 40
1
 40
1
 40
1
 10
123.911510
 20
109.450203
 30
0.0
 10
123.911510
 20
110.382693
 30
0.0
 10
123.860010
 20
111.283373
 30
0.0
 10
123.764750
 20
112.156503
 30
0.0
  0
LINE
  5
158
100
AcDbEntity
  8
Ebene_1
 62
7
100
AcDbLine
 10
123.764750
 20
112.156503
 30
0.0
 11
120.601120
 21
120.847963
 31
0.0
  0
SPLINE
  5
159
100
AcDbEntity
  8
Ebene_1
 62
7
100
AcDbSpline
 70
8
 71
3
 72
8
 73
4
 74
0
 40
0
 40
0
 40
0
 40
0
 40
1
 40
1
 40
1
 40
1
 10
120.601120
 20
120.847963
 30
0.0
 10
120.183440
 20
121.437403
 30
0.0
 10
119.723820
 20
122.000723
 30
0.0
 10
119.227040
 20
122.540883
 30
0.0
  0
LINE
  5
15a
100
AcDbEntity
  8
Ebene_1
 62
7
100
AcDbLine
 10
119.227040
 20
122.540883
 30
0.0
 11
119.226830
 21
122.540883
 31
0.0
  0
LINE
  5
15b
100
AcDbEntity
  8
Ebene_1
 62
7
100
AcDbLine
 10
96.232886
 20
106.096923
 30
0.0
 11
95.218994
 21
105.992023
 31
0.0
  0
LINE
  5
15c
100
AcDbEntity
  8
Ebene_1
 62
7
100
AcDbLine
 10
95.218994
 20
105.992023
 30
0.0
 11
92.829993
 21
93.701813
 31
0.0
  0
SPLINE
  5
15d
100
AcDbEntity
  8
Ebene_1
 62
7
100
AcDbSpline
 70
8
 71
3
 72
8
 73
4
 74
0
 40
0
 40
0
 40
0
 40
0
 40
1
 40
1
 40
1
 40
1
 10
92.829993
 20
93.701813
 30
0.0
 10
93.178974
 20
93.423503
 30
0.0
 10
93.538400
 20
93.160363
 30
0.0
 10
93.908480
 20
92.912713
 30
0.0
  0
LINE
  5
15e
100
AcDbEntity
  8
Ebene_1
 62
7
100
AcDbLine
 10
93.908480
 20
92.912713
 30
0.0
 11
96.232886
 21
106.096923
 31
0.0
  0
LINE
  5
15f
100
AcDbEntity
  8
Ebene_1
 62
7
100
AcDbLine
 10
89.970219
 20
105.448383
 30
0.0
 11
88.878296
 21
105.335213
 31
0.0
  0
LINE
  5
160
100
AcDbEntity
  8
Ebene_1
 62
7
100
AcDbLine
 10
88.878296
 20
105.335213
 30
0.0
 11
87.587419
 21
101.112733
 31
0.0
  0
SPLINE
  5
161
100
AcDbEntity
  8
Ebene_1
 62
7
100
AcDbSpline
 70
8
 71
3
 72
8
 73
4
 74
0
 40
0
 40
0
 40
0
 40
0
 40
1
 40
1
 40
1
 40
1
 10
87.587419
 20
101.112733
 30
0.0
 10
87.785528
 20
100.548313
 30
0.0
 10
88.008828
 20
100.002443
 30
0.0
 10
88.257145
 20
99.474593
 30
0.0
  0
LINE
  5
162
100
AcDbEntity
  8
Ebene_1
 62
7
100
AcDbLine
 10
88.257145
 20
99.474593
 30
0.0
 11
89.970219
 21
105.448383
 31
0.0
  0
LINE
  5
163
100
AcDbEntity
  8
Ebene_1
 62
7
100
AcDbLine
 10
100.582490
 20
99.926753
 30
0.0
 11
99.753601
 21
90.451883
 31
0.0
  0
SPLINE
  5
164
100
AcDbEntity
  8
Ebene_1
 62
7
100
AcDbSpline
 70
8
 71
3
 72
8
 73
4
 74
0
 40
0
 40
0
 40
0
 40
0
 40
1
 40
1
 40
1
 40
1
 10
99.753601
 20
90.451883
 30
0.0
 10
100.154120
 20
90.361983
 30
0.0
 10
100.562890
 20
90.284213
 30
0.0
 10
100.978850
 20
90.216753
 30
0.0
  0
LINE
  5
165
100
AcDbEntity
  8
Ebene_1
 62
7
100
AcDbLine
 10
100.978850
 20
90.216753
 30
0.0
 11
101.611370
 21
99.262713
 31
0.0
  0
SPLINE
  5
166
100
AcDbEntity
  8
Ebene_1
 62
7
100
AcDbSpline
 70
8
 71
3
 72
8
 73
4
 74
0
 40
0
 40
0
 40
0
 40
0
 40
1
 40
1
 40
1
 40
1
 10
101.611370
 20
99.262713
 30
0.0
 10
101.257970
 20
99.452183
 30
0.0
 10
100.915100
 20
99.673763
 30
0.0
 10
100.582490
 20
99.926753
 30
0.0
  0
LINE
  5
167
100
AcDbEntity
  8
Ebene_1
 62
7
100
AcDbLine
 10
100.582490
 20
99.926753
 30
0.0
 11
100.582490
 21
99.926753
 31
0.0
  0
SPLINE
  5
168
100
AcDbEntity
  8
Ebene_1
 62
7
100
AcDbSpline
 70
8
 71
3
 72
8
 73
4
 74
0
 40
0
 40
0
 40
0
 40
0
 40
1
 40
1
 40
1
 40
1
 10
108.105030
 20
99.077193
 30
0.0
 10
107.757350
 20
98.912633
 30
0.0
 10
107.398540
 20
98.778483
 30
0.0
 10
107.027580
 20
98.675153
 30
0.0
  0
LINE
  5
169
100
AcDbEntity
  8
Ebene_1
 62
7
100
AcDbLine
 10
107.027580
 20
98.675153
 30
0.0
 11
107.178990
 21
90.015213
 31
0.0
  0
SPLINE
  5
16a
100
AcDbEntity
  8
Ebene_1
 62
7
100
AcDbSpline
 70
8
 71
3
 72
8
 73
4
 74
0
 40
0
 40
0
 40
0
 40
0
 40
1
 40
1
 40
1
 40
1
 10
107.178990
 20
90.015213
 30
0.0
 10
107.597690
 20
90.055713
 30
0.0
 10
108.010230
 20
90.107513
 30
0.0
 10
108.415600
 20
90.171283
 30
0.0
  0
LINE
  5
16b
100
AcDbEntity
  8
Ebene_1
 62
7
100
AcDbLine
 10
108.415600
 20
90.171283
 30
0.0
 11
108.105030
 21
99.077193
 31
0.0
  0
LINE
  5
16c
100
AcDbEntity
  8
Ebene_1
 62
7
100
AcDbLine
 10
109.828960
 20
145.528113
 30
0.0
 11
118.317330
 21
111.482643
 31
0.0
  0
LINE
  5
16d
100
AcDbEntity
  8
Ebene_1
 62
7
100
AcDbLine
 10
118.317330
 20
111.482643
 30
0.0
 11
118.317330
 21
114.932563
 31
0.0
  0
LINE
  5
16e
100
AcDbEntity
  8
Ebene_1
 62
7
100
AcDbLine
 10
118.317330
 20
114.932563
 30
0.0
 11
110.119380
 21
145.528113
 31
0.0
  0
LINE
  5
16f
100
AcDbEntity
  8
Ebene_1
 62
7
100
AcDbLine
 10
110.119380
 20
145.528113
 30
0.0
 11
109.828960
 21
145.528113
 31
0.0
  0
LINE
  5
170
100
AcDbEntity
  8
Ebene_1
 62
7
100
AcDbLine
 10
111.617990
 20
145.528113
 30
0.0
 11
118.317330
 21
127.121483
 31
0.0
  0
LINE
  5
171
100
AcDbEntity
  8
Ebene_1
 62
7
100
AcDbLine
 10
118.317330
 20
127.121483
 30
0.0
 11
118.317330
 21
128.884163
 31
0.0
  0
LINE
  5
172
100
AcDbEntity
  8
Ebene_1
 62
7
100
AcDbLine
 10
118.317330
 20
128.884163
 30
0.0
 11
111.928570
 21
145.528113
 31
0.0
  0
LINE
  5
173
100
AcDbEntity
  8
Ebene_1
 62
7
100
AcDbLine
 10
111.928570
 20
145.528113
 30
0.0
 11
111.617990
 21
145.528113
 31
0.0
  0
LINE
  5
174
100
AcDbEntity
  8
Ebene_1
 62
7
100
AcDbLine
 10
113.549140
 20
145.528113
 30
0.0
 11
118.317330
 21
135.752473
 31
0.0
  0
LINE
  5
175
100
AcDbEntity
  8
Ebene_1
 62
7
100
AcDbLine
 10
118.317330
 20
135.752473
 30
0.0
 11
118.317330
 21
136.838203
 31
0.0
  0
LINE
  5
176
100
AcDbEntity
  8
Ebene_1
 62
7
100
AcDbLine
 10
118.317330
 20
136.838203
 30
0.0
 11
113.889690
 21
145.528113
 31
0.0
  0
LINE
  5
177
100
AcDbEntity
  8
Ebene_1
 62
7
100
AcDbLine
 10
113.889690
 20
145.528113
 30
0.0
 11
113.549140
 21
145.528113
 31
0.0
  0
LINE
  5
178
100
AcDbEntity
  8
Ebene_1
 62
7
100
AcDbLine
 10
115.689580
 20
145.528113
 30
0.0
 11
118.317330
 21
141.322683
 31
0.0
  0
LINE
  5
179
100
AcDbEntity
  8
Ebene_1
 62
7
100
AcDbLine
 10
118.317330
 20
141.322683
 30
0.0
 11
118.317330
 21
142.071473
 31
0.0
  0
LINE
  5
17a
100
AcDbEntity
  8
Ebene_1
 62
7
100
AcDbLine
 10
118.317330
 20
142.071473
 30
0.0
 11
116.072500
 21
145.528113
 31
0.0
  0
LINE
  5
17b
100
AcDbEntity
  8
Ebene_1
 62
7
100
AcDbLine
 10
116.072500
 20
145.528113
 30
0.0
 11
115.689580
 21
145.528113
 31
0.0
  0
LINE
  5
17c
100
AcDbEntity
  8
Ebene_1
 62
7
100
AcDbLine
 10
118.130770
 20
145.528113
 30
0.0
 11
118.317330
 21
145.289363
 31
0.0
  0
LINE
  5
17d
100
AcDbEntity
  8
Ebene_1
 62
7
100
AcDbLine
 10
118.317330
 20
145.289363
 30
0.0
 11
118.317330
 21
145.528113
 31
0.0
  0
LINE
  5
17e
100
AcDbEntity
  8
Ebene_1
 62
7
100
AcDbLine
 10
118.317330
 20
145.528113
 30
0.0
 11
118.130770
 21
145.528113
 31
0.0
  0
LINE
  5
17f
100
AcDbEntity
  8
Ebene_1
 62
7
100
AcDbLine
 10
108.595440
 20
144.354533
 30
0.0
 11
108.346870
 21
143.991253
 31
0.0
  0
LINE
  5
180
100
AcDbEntity
  8
Ebene_1
 62
7
100
AcDbLine
 10
108.346870
 20
143.991253
 30
0.0
 11
115.950550
 21
89.890163
 31
0.0
  0
LINE
  5
181
100
AcDbEntity
  8
Ebene_1
 62
7
100
AcDbLine
 10
115.950550
 20
89.890163
 30
0.0
 11
117.221790
 21
89.890163
 31
0.0
  0
LINE
  5
182
100
AcDbEntity
  8
Ebene_1
 62
7
100
AcDbLine
 10
117.221790
 20
89.890163
 30
0.0
 11
108.595440
 21
144.354533
 31
0.0
  0
LINE
  5
183
100
AcDbEntity
  8
Ebene_1
 62
7
100
AcDbLine
 10
106.943860
 20
141.937113
 30
0.0
 11
106.624500
 21
141.469443
 31
0.0
  0
LINE
  5
184
100
AcDbEntity
  8
Ebene_1
 62
7
100
AcDbLine
 10
106.624500
 20
141.469443
 30
0.0
 11
107.097860
 21
127.917813
 31
0.0
  0
LINE
  5
185
100
AcDbEntity
  8
Ebene_1
 62
7
100
AcDbLine
 10
107.097860
 20
127.917813
 30
0.0
 11
107.636320
 21
128.718803
 31
0.0
  0
LINE
  5
186
100
AcDbEntity
  8
Ebene_1
 62
7
100
AcDbLine
 10
107.636320
 20
128.718803
 30
0.0
 11
106.943860
 21
141.937113
 31
0.0
  0
LINE
  5
187
100
AcDbEntity
  8
Ebene_1
 62
7
100
AcDbLine
 10
104.764660
 20
138.747123
 30
0.0
 11
104.327480
 21
138.107373
 31
0.0
  0
LINE
  5
188
100
AcDbEntity
  8
Ebene_1
 62
7
100
AcDbLine
 10
104.327480
 20
138.107373
 30
0.0
 11
103.210750
 21
122.139353
 31
0.0
  0
LINE
  5
189
100
AcDbEntity
  8
Ebene_1
 62
7
100
AcDbLine
 10
103.210750
 20
122.139353
 30
0.0
 11
103.951790
 21
123.240583
 31
0.0
  0
LINE
  5
18a
100
AcDbEntity
  8
Ebene_1
 62
7
100
AcDbLine
 10
103.951790
 20
123.240583
 30
0.0
 11
104.764660
 21
138.747123
 31
0.0
  0
LINE
  5
18b
100
AcDbEntity
  8
Ebene_1
 62
7
100
AcDbLine
 10
101.675450
 20
134.225443
 30
0.0
 11
101.024840
 21
133.273043
 31
0.0
  0
LINE
  5
18c
100
AcDbEntity
  8
Ebene_1
 62
7
100
AcDbLine
 10
101.024840
 20
133.273043
 30
0.0
 11
97.587842
 21
113.779143
 31
0.0
  0
LINE
  5
18d
100
AcDbEntity
  8
Ebene_1
 62
7
100
AcDbLine
 10
97.587842
 20
113.779143
 30
0.0
 11
98.698885
 21
115.431753
 31
0.0
  0
LINE
  5
18e
100
AcDbEntity
  8
Ebene_1
 62
7
100
AcDbLine
 10
98.698885
 20
115.431753
 30
0.0
 11
101.675450
 21
134.225443
 31
0.0
  0
LINE
  5
18f
100
AcDbEntity
  8
Ebene_1
 62
7
100
AcDbLine
 10
96.825098
 20
127.125093
 30
0.0
 11
95.723356
 21
125.512273
 31
0.0
  0
LINE
  5
190
100
AcDbEntity
  8
Ebene_1
 62
7
100
AcDbLine
 10
95.723356
 20
125.512273
 30
0.0
 11
88.706213
 21
101.040383
 31
0.0
  0
LINE
  5
191
100
AcDbEntity
  8
Ebene_1
 62
7
100
AcDbLine
 10
88.706213
 20
101.040383
 30
0.0
 11
89.835860
 21
101.040383
 31
0.0
  0
LINE
  5
192
100
AcDbEntity
  8
Ebene_1
 62
7
100
AcDbLine
 10
89.835860
 20
101.040383
 30
0.0
 11
96.825098
 21
127.125093
 31
0.0
  0
LINE
  5
193
100
AcDbEntity
  8
Ebene_1
 62
7
100
AcDbLine
 10
108.036300
 20
121.090843
 30
0.0
 11
108.036300
 21
110.376253
 31
0.0
  0
LINE
  5
194
100
AcDbEntity
  8
Ebene_1
 62
7
100
AcDbLine
 10
108.036300
 20
110.376253
 30
0.0
 11
107.710220
 21
110.376253
 31
0.0
  0
LINE
  5
195
100
AcDbEntity
  8
Ebene_1
 62
7
100
AcDbLine
 10
107.710220
 20
110.376253
 30
0.0
 11
108.036300
 21
101.040383
 31
0.0
  0
LINE
  5
196
100
AcDbEntity
  8
Ebene_1
 62
7
100
AcDbLine
 10
108.036300
 20
101.040383
 30
0.0
 11
108.036300
 21
101.038383
 31
0.0
  0
LINE
  5
197
100
AcDbEntity
  8
Ebene_1
 62
7
100
AcDbLine
 10
108.036300
 20
101.038383
 30
0.0
 11
108.425420
 21
89.889713
 31
0.0
  0
LINE
  5
198
100
AcDbEntity
  8
Ebene_1
 62
7
100
AcDbLine
 10
108.425420
 20
89.889713
 30
0.0
 11
109.671340
 21
89.889713
 31
0.0
  0
LINE
  5
199
100
AcDbEntity
  8
Ebene_1
 62
7
100
AcDbLine
 10
109.671340
 20
89.889713
 30
0.0
 11
108.036300
 21
121.090843
 31
0.0
  0
LINE
  5
19a
100
AcDbEntity
  8
Ebene_1
 62
7
100
AcDbLine
 10
87.826681
 20
113.952773
 30
0.0
 11
85.497624
 21
110.543683
 31
0.0
  0
LINE
  5
19b
100
AcDbEntity
  8
Ebene_1
 62
7
100
AcDbLine
 10
85.497624
 20
110.543683
 30
0.0
 11
85.357581
 21
110.196933
 31
0.0
  0
LINE
  5
19c
100
AcDbEntity
  8
Ebene_1
 62
7
100
AcDbLine
 10
85.357581
 20
110.196933
 30
0.0
 11
85.357581
 21
107.520613
 31
0.0
  0
LINE
  5
19d
100
AcDbEntity
  8
Ebene_1
 62
7
100
AcDbLine
 10
85.357581
 20
107.520613
 30
0.0
 11
87.826681
 21
113.952773
 31
0.0
  0
LINE
  5
19e
100
AcDbEntity
  8
Ebene_1
 62
7
100
AcDbLine
 10
96.987362
 20
110.376253
 30
0.0
 11
95.341467
 21
101.040383
 31
0.0
  0
LINE
  5
19f
100
AcDbEntity
  8
Ebene_1
 62
7
100
AcDbLine
 10
95.341467
 20
101.040383
 30
0.0
 11
96.419438
 21
101.040383
 31
0.0
  0
LINE
  5
1a0
100
AcDbEntity
  8
Ebene_1
 62
7
100
AcDbLine
 10
96.419438
 20
101.040383
 30
0.0
 11
97.898417
 21
110.376253
 31
0.0
  0
LINE
  5
1a1
100
AcDbEntity
  8
Ebene_1
 62
7
100
AcDbLine
 10
97.898417
 20
110.376253
 30
0.0
 11
96.987362
 21
110.376253
 31
0.0
  0
LINE
  5
1a2
100
AcDbEntity
  8
Ebene_1
 62
7
100
AcDbLine
 10
102.388070
 20
110.376253
 30
0.0
 11
101.735390
 21
101.040383
 31
0.0
  0
LINE
  5
1a3
100
AcDbEntity
  8
Ebene_1
 62
7
100
AcDbLine
 10
101.735390
 20
101.040383
 30
0.0
 11
102.788560
 21
101.040383
 31
0.0
  0
LINE
  5
1a4
100
AcDbEntity
  8
Ebene_1
 62
7
100
AcDbLine
 10
102.788560
 20
101.040383
 30
0.0
 11
103.277420
 21
110.376253
 31
0.0
  0
LINE
  5
1a5
100
AcDbEntity
  8
Ebene_1
 62
7
100
AcDbLine
 10
103.277420
 20
110.376253
 30
0.0
 11
102.388070
 21
110.376253
 31
0.0
  0
LINE
  5
1a6
100
AcDbEntity
  8
Ebene_1
 62
7
100
AcDbLine
 10
118.593280
 20
110.376253
 30
0.0
 11
120.920780
 21
101.040383
 31
0.0
  0
LINE
  5
1a7
100
AcDbEntity
  8
Ebene_1
 62
7
100
AcDbLine
 10
120.920780
 20
101.040383
 30
0.0
 11
122.039580
 21
101.040383
 31
0.0
  0
LINE
  5
1a8
100
AcDbEntity
  8
Ebene_1
 62
7
100
AcDbLine
 10
122.039580
 20
101.040383
 30
0.0
 11
119.538440
 21
110.376253
 31
0.0
  0
LINE
  5
1a9
100
AcDbEntity
  8
Ebene_1
 62
7
100
AcDbLine
 10
119.538440
 20
110.376253
 30
0.0
 11
118.593280
 21
110.376253
 31
0.0
  0
LINE
  5
1aa
100
AcDbEntity
  8
Ebene_1
 62
7
100
AcDbLine
 10
124.412040
 20
110.376253
 30
0.0
 11
125.196490
 21
108.221343
 31
0.0
  0
LINE
  5
1ab
100
AcDbEntity
  8
Ebene_1
 62
7
100
AcDbLine
 10
125.196490
 20
108.221343
 30
0.0
 11
125.196490
 21
110.376253
 31
0.0
  0
LINE
  5
1ac
100
AcDbEntity
  8
Ebene_1
 62
7
100
AcDbLine
 10
125.196490
 20
110.376253
 30
0.0
 11
124.412040
 21
110.376253
 31
0.0
  0
LINE
  5
1ad
100
AcDbEntity
  8
Ebene_1
 62
7
100
AcDbLine
 10
105.143970
 20
145.992163
 30
0.0
 11
104.686630
 21
137.264533
 31
0.0
  0
SPLINE
  5
1ae
100
AcDbEntity
  8
Ebene_1
 62
7
100
AcDbSpline
 70
8
 71
3
 72
8
 73
4
 74
0
 40
0
 40
0
 40
0
 40
0
 40
1
 40
1
 40
1
 40
1
 10
104.686630
 20
137.264533
 30
0.0
 10
104.827560
 20
137.260533
 30
0.0
 10
104.967180
 20
137.254533
 30
0.0
 10
105.103660
 20
137.244333
 30
0.0
  0
LINE
  5
1af
100
AcDbEntity
  8
Ebene_1
 62
7
100
AcDbLine
 10
105.103660
 20
137.244333
 30
0.0
 11
105.408550
 21
145.986953
 31
0.0
  0
SPLINE
  5
1b0
100
AcDbEntity
  8
Ebene_1
 62
7
100
AcDbSpline
 70
8
 71
3
 72
8
 73
4
 74
0
 40
0
 40
0
 40
0
 40
0
 40
1
 40
1
 40
1
 40
1
 10
105.408550
 20
145.986953
 30
0.0
 10
105.320850
 20
145.988953
 30
0.0
 10
105.232320
 20
145.990953
 30
0.0
 10
105.143970
 20
145.991953
 30
0.0
  0
LINE
  5
1b1
100
AcDbEntity
  8
Ebene_1
 62
7
100
AcDbLine
 10
105.143970
 20
145.991953
 30
0.0
 11
105.143970
 21
145.992163
 31
0.0
  0
SPLINE
  5
1b2
100
AcDbEntity
  8
Ebene_1
 62
7
100
AcDbSpline
 70
8
 71
3
 72
8
 73
4
 74
0
 40
0
 40
0
 40
0
 40
0
 40
1
 40
1
 40
1
 40
1
 10
103.808130
 20
145.980263
 30
0.0
 10
103.717230
 20
145.976263
 30
0.0
 10
103.626190
 20
145.972263
 30
0.0
 10
103.535800
 20
145.967863
 30
0.0
  0
LINE
  5
1b3
100
AcDbEntity
  8
Ebene_1
 62
7
100
AcDbLine
 10
103.535800
 20
145.967863
 30
0.0
 11
102.092990
 21
136.860923
 31
0.0
  0
SPLINE
  5
1b4
100
AcDbEntity
  8
Ebene_1
 62
7
100
AcDbSpline
 70
8
 71
3
 72
8
 73
4
 74
0
 40
0
 40
0
 40
0
 40
0
 40
1
 40
1
 40
1
 40
1
 10
102.092990
 20
136.860923
 30
0.0
 10
102.242250
 20
136.916523
 30
0.0
 10
102.393700
 20
136.967643
 30
0.0
 10
102.547750
 20
137.011823
 30
0.0
  0
LINE
  5
1b5
100
AcDbEntity
  8
Ebene_1
 62
7
100
AcDbLine
 10
102.547750
 20
137.011823
 30
0.0
 11
103.808130
 21
145.980263
 31
0.0
  0
LINE
  5
1b6
100
AcDbEntity
  8
Ebene_1
 62
7
100
AcDbLine
 10
106.735600
 20
145.914163
 30
0.0
 11
107.216190
 21
136.736943
 31
0.0
  0
SPLINE
  5
1b7
100
AcDbEntity
  8
Ebene_1
 62
7
100
AcDbSpline
 70
8
 71
3
 72
8
 73
4
 74
0
 40
0
 40
0
 40
0
 40
0
 40
1
 40
1
 40
1
 40
1
 10
107.216190
 20
136.736943
 30
0.0
 10
107.368250
 20
136.670043
 30
0.0
 10
107.515310
 20
136.595763
 30
0.0
 10
107.659060
 20
136.516283
 30
0.0
  0
LINE
  5
1b8
100
AcDbEntity
  8
Ebene_1
 62
7
100
AcDbLine
 10
107.659060
 20
136.516283
 30
0.0
 11
107.003800
 21
145.885743
 31
0.0
  0
SPLINE
  5
1b9
100
AcDbEntity
  8
Ebene_1
 62
7
100
AcDbSpline
 70
8
 71
3
 72
8
 73
4
 74
0
 40
0
 40
0
 40
0
 40
0
 40
1
 40
1
 40
1
 40
1
 10
107.003800
 20
145.885743
 30
0.0
 10
106.914100
 20
145.894743
 30
0.0
 10
106.826000
 20
145.906243
 30
0.0
 10
106.735600
 20
145.914143
 30
0.0
  0
LINE
  5
1ba
100
AcDbEntity
  8
Ebene_1
 62
7
100
AcDbLine
 10
106.735600
 20
145.914143
 30
0.0
 11
106.735600
 21
145.914163
 31
0.0
  0
SPLINE
  5
1bb
100
AcDbEntity
  8
Ebene_1
 62
7
100
AcDbSpline
 70
8
 71
3
 72
8
 73
4
 74
0
 40
0
 40
0
 40
0
 40
0
 40
1
 40
1
 40
1
 40
1
 10
102.126070
 20
145.847463
 30
0.0
 10
102.027570
 20
145.835763
 30
0.0
 10
101.929340
 20
145.823863
 30
0.0
 10
101.831510
 20
145.810763
 30
0.0
  0
LINE
  5
1bc
100
AcDbEntity
  8
Ebene_1
 62
7
100
AcDbLine
 10
101.831510
 20
145.810763
 30
0.0
 11
98.616720
 21
133.811493
 31
0.0
  0
SPLINE
  5
1bd
100
AcDbEntity
  8
Ebene_1
 62
7
100
AcDbSpline
 70
8
 71
3
 72
8
 73
4
 74
0
 40
0
 40
0
 40
0
 40
0
 40
1
 40
1
 40
1
 40
1
 10
98.616720
 20
133.811493
 30
0.0
 10
98.850200
 20
134.233153
 30
0.0
 10
99.115522
 20
134.617943
 30
0.0
 10
99.413053
 20
134.965943
 30
0.0
  0
LINE
  5
1be
100
AcDbEntity
  8
Ebene_1
 62
7
100
AcDbLine
 10
99.413053
 20
134.965943
 30
0.0
 11
102.126070
 21
145.847463
 31
0.0
  0
LINE
  5
1bf
100
AcDbEntity
  8
Ebene_1
 62
7
100
AcDbLine
 10
108.382010
 20
145.701733
 30
0.0
 11
116.706570
 21
93.144733
 31
0.0
  0
SPLINE
  5
1c0
100
AcDbEntity
  8
Ebene_1
 62
7
100
AcDbSpline
 70
8
 71
3
 72
8
 73
4
 74
0
 40
0
 40
0
 40
0
 40
0
 40
1
 40
1
 40
1
 40
1
 10
116.706570
 20
93.144733
 30
0.0
 10
117.069170
 20
93.422123
 30
0.0
 10
117.424760
 20
93.712763
 30
0.0
 10
117.771620
 20
94.021163
 30
0.0
  0
LINE
  5
1c1
100
AcDbEntity
  8
Ebene_1
 62
7
100
AcDbLine
 10
117.771620
 20
94.021163
 30
0.0
 11
108.668300
 21
145.647983
 31
0.0
  0
SPLINE
  5
1c2
100
AcDbEntity
  8
Ebene_1
 62
7
100
AcDbSpline
 70
8
 71
3
 72
8
 73
4
 74
0
 40
0
 40
0
 40
0
 40
0
 40
1
 40
1
 40
1
 40
1
 10
108.668300
 20
145.647983
 30
0.0
 10
108.573000
 20
145.665983
 30
0.0
 10
108.478230
 20
145.685183
 30
0.0
 10
108.382010
 20
145.701783
 30
0.0
  0
LINE
  5
1c3
100
AcDbEntity
  8
Ebene_1
 62
7
100
AcDbLine
 10
108.382010
 20
145.701783
 30
0.0
 11
108.382010
 21
145.701733
 31
0.0
  0
SPLINE
  5
1c4
100
AcDbEntity
  8
Ebene_1
 62
7
100
AcDbSpline
 70
8
 71
3
 72
8
 73
4
 74
0
 40
0
 40
0
 40
0
 40
0
 40
1
 40
1
 40
1
 40
1
 10
100.260550
 20
145.536363
 30
0.0
 10
100.147060
 20
145.511663
 30
0.0
 10
100.033540
 20
145.486563
 30
0.0
 10
99.921033
 20
145.459863
 30
0.0
  0
LINE
  5
1c5
100
AcDbEntity
  8
Ebene_1
 62
7
100
AcDbLine
 10
99.921033
 20
145.459863
 30
0.0
 11
94.148258
 21
130.422023
 31
0.0
  0
LINE
  5
1c6
100
AcDbEntity
  8
Ebene_1
 62
7
100
AcDbLine
 10
94.148258
 20
130.422023
 30
0.0
 11
94.723934
 21
130.324323
 31
0.0
  0
LINE
  5
1c7
100
AcDbEntity
  8
Ebene_1
 62
7
100
AcDbLine
 10
94.723934
 20
130.324323
 30
0.0
 11
100.260550
 21
145.536363
 31
0.0
  0
LINE
  5
1c8
100
AcDbEntity
  8
Ebene_1
 62
7
100
AcDbLine
 10
110.180870
 20
145.298143
 30
0.0
 11
116.363440
 21
122.223573
 31
0.0
  0
SPLINE
  5
1c9
100
AcDbEntity
  8
Ebene_1
 62
7
100
AcDbSpline
 70
8
 71
3
 72
8
 73
4
 74
0
 40
0
 40
0
 40
0
 40
0
 40
1
 40
1
 40
1
 40
1
 10
116.363440
 20
122.223573
 30
0.0
 10
116.566400
 20
122.387213
 30
0.0
 10
116.761880
 20
122.553893
 30
0.0
 10
116.952030
 20
122.722253
 30
0.0
  0
LINE
  5
1ca
100
AcDbEntity
  8
Ebene_1
 62
7
100
AcDbLine
 10
116.952030
 20
122.722253
 30
0.0
 11
110.507470
 21
145.197373
 31
0.0
  0
SPLINE
  5
1cb
100
AcDbEntity
  8
Ebene_1
 62
7
100
AcDbSpline
 70
8
 71
3
 72
8
 73
4
 74
0
 40
0
 40
0
 40
0
 40
0
 40
1
 40
1
 40
1
 40
1
 10
110.507470
 20
145.197373
 30
0.0
 10
110.398280
 20
145.230473
 30
0.0
 10
110.291340
 20
145.267073
 30
0.0
 10
110.180870
 20
145.298143
 30
0.0
  0
LINE
  5
1cc
100
AcDbEntity
  8
Ebene_1
 62
7
100
AcDbLine
 10
110.180870
 20
145.298143
 30
0.0
 11
110.180870
 21
145.298143
 31
0.0
  0
SPLINE
  5
1cd
100
AcDbEntity
  8
Ebene_1
 62
7
100
AcDbSpline
 70
8
 71
3
 72
8
 73
4
 74
0
 40
0
 40
0
 40
0
 40
0
 40
1
 40
1
 40
1
 40
1
 10
98.018306
 20
144.897643
 30
0.0
 10
97.871671
 20
144.845343
 30
0.0
 10
97.726415
 20
144.790873
 30
0.0
 10
97.581641
 20
144.734863
 30
0.0
  0
LINE
  5
1ce
100
AcDbEntity
  8
Ebene_1
 62
7
100
AcDbLine
 10
97.581641
 20
144.734863
 30
0.0
 11
90.596537
 21
131.025623
 31
0.0
  0
LINE
  5
1cf
100
AcDbEntity
  8
Ebene_1
 62
7
100
AcDbLine
 10
90.596537
 20
131.025623
 30
0.0
 11
91.202185
 21
130.922793
 31
0.0
  0
LINE
  5
1d0
100
AcDbEntity
  8
Ebene_1
 62
7
100
AcDbLine
 10
91.202185
 20
130.922793
 30
0.0
 11
98.018306
 21
144.897643
 31
0.0
  0
LINE
  5
1d1
100
AcDbEntity
  8
Ebene_1
 62
7
100
AcDbLine
 10
112.310460
 20
144.532813
 30
0.0
 11
119.523970
 21
125.740673
 31
0.0
  0
SPLINE
  5
1d2
100
AcDbEntity
  8
Ebene_1
 62
7
100
AcDbSpline
 70
8
 71
3
 72
8
 73
4
 74
0
 40
0
 40
0
 40
0
 40
0
 40
1
 40
1
 40
1
 40
1
 10
119.523970
 20
125.740673
 30
0.0
 10
119.672380
 20
125.983033
 30
0.0
 10
119.810900
 20
126.228923
 30
0.0
 10
119.939450
 20
126.478613
 30
0.0
  0
LINE
  5
1d3
100
AcDbEntity
  8
Ebene_1
 62
7
100
AcDbLine
 10
119.939450
 20
126.478613
 30
0.0
 11
112.720250
 21
144.346773
 31
0.0
  0
SPLINE
  5
1d4
100
AcDbEntity
  8
Ebene_1
 62
7
100
AcDbSpline
 70
8
 71
3
 72
8
 73
4
 74
0
 40
0
 40
0
 40
0
 40
0
 40
1
 40
1
 40
1
 40
1
 10
112.720250
 20
144.346773
 30
0.0
 10
112.585000
 20
144.410973
 30
0.0
 10
112.448040
 20
144.472323
 30
0.0
 10
112.310460
 20
144.532813
 30
0.0
  0
LINE
  5
1d5
100
AcDbEntity
  8
Ebene_1
 62
7
100
AcDbLine
 10
112.310460
 20
144.532813
 30
0.0
 11
112.310460
 21
144.532813
 31
0.0
  0
SPLINE
  5
1d6
100
AcDbEntity
  8
Ebene_1
 62
7
100
AcDbSpline
 70
8
 71
3
 72
8
 73
4
 74
0
 40
0
 40
0
 40
0
 40
0
 40
1
 40
1
 40
1
 40
1
 10
94.856742
 20
143.400583
 30
0.0
 10
94.597950
 20
143.243053
 30
0.0
 10
94.346398
 20
143.079403
 30
0.0
 10
94.102266
 20
142.909653
 30
0.0
  0
LINE
  5
1d7
100
AcDbEntity
  8
Ebene_1
 62
7
100
AcDbLine
 10
94.102266
 20
142.909653
 30
0.0
 11
88.224072
 21
133.857493
 31
0.0
  0
SPLINE
  5
1d8
100
AcDbEntity
  8
Ebene_1
 62
7
100
AcDbSpline
 70
8
 71
3
 72
8
 73
4
 74
0
 40
0
 40
0
 40
0
 40
0
 40
1
 40
1
 40
1
 40
1
 10
88.224072
 20
133.857493
 30
0.0
 10
88.066094
 20
133.294183
 30
0.0
 10
87.923246
 20
132.700843
 30
0.0
 10
87.788957
 20
132.090163
 30
0.0
  0
LINE
  5
1d9
100
AcDbEntity
  8
Ebene_1
 62
7
100
AcDbLine
 10
87.788957
 20
132.090163
 30
0.0
 11
94.856742
 21
143.400583
 31
0.0
  0
LINE
  5
1da
100
AcDbEntity
  8
Ebene_1
 62
7
100
AcDbLine
 10
115.275650
 20
142.807333
 30
0.0
 11
121.176070
 21
131.227683
 31
0.0
  0
SPLINE
  5
1db
100
AcDbEntity
  8
Ebene_1
 62
7
100
AcDbSpline
 70
8
 71
3
 72
8
 73
4
 74
0
 40
0
 40
0
 40
0
 40
0
 40
1
 40
1
 40
1
 40
1
 10
121.176070
 20
131.227683
 30
0.0
 10
121.184070
 20
131.413373
 30
0.0
 10
121.189470
 20
131.599713
 30
0.0
 10
121.189470
 20
131.788373
 30
0.0
  0
SPLINE
  5
1dc
100
AcDbEntity
  8
Ebene_1
 62
7
100
AcDbSpline
 70
8
 71
3
 72
8
 73
4
 74
0
 40
0
 40
0
 40
0
 40
0
 40
1
 40
1
 40
1
 40
1
 10
121.189470
 20
131.788373
 30
0.0
 10
121.189470
 20
132.022583
 30
0.0
 10
121.182470
 20
132.255083
 30
0.0
 10
121.170370
 20
132.486003
 30
0.0
  0
LINE
  5
1dd
100
AcDbEntity
  8
Ebene_1
 62
7
100
AcDbLine
 10
121.170370
 20
132.486003
 30
0.0
 11
115.976890
 21
142.252843
 31
0.0
  0
SPLINE
  5
1de
100
AcDbEntity
  8
Ebene_1
 62
7
100
AcDbSpline
 70
8
 71
3
 72
8
 73
4
 74
0
 40
0
 40
0
 40
0
 40
0
 40
1
 40
1
 40
1
 40
1
 10
115.976890
 20
142.252843
 30
0.0
 10
115.747940
 20
142.445433
 30
0.0
 10
115.513820
 20
142.629603
 30
0.0
 10
115.275640
 20
142.807333
 30
0.0
  0
LINE
  5
1df
100
AcDbEntity
  8
Ebene_1
 62
7
100
AcDbLine
 10
115.275640
 20
142.807333
 30
0.0
 11
115.275650
 21
142.807333
 31
0.0
  0
SPLINE
  5
1e0
100
AcDbEntity
  8
Ebene_1
 62
7
100
AcDbSpline
 70
8
 71
3
 72
8
 73
4
 74
0
 40
0
 40
0
 40
0
 40
0
 40
1
 40
1
 40
1
 40
1
 10
108.395970
 20
125.977873
 30
0.0
 10
108.351570
 20
125.936673
 30
0.0
 10
108.308870
 20
125.894773
 30
0.0
 10
108.263160
 20
125.854363
 30
0.0
  0
SPLINE
  5
1e1
100
AcDbEntity
  8
Ebene_1
 62
7
100
AcDbSpline
 70
8
 71
3
 72
8
 73
4
 74
0
 40
0
 40
0
 40
0
 40
0
 40
1
 40
1
 40
1
 40
1
 10
108.263160
 20
125.854363
 30
0.0
 10
108.117500
 20
125.728123
 30
0.0
 10
107.963600
 20
125.610133
 30
0.0
 10
107.805310
 20
125.496763
 30
0.0
  0
LINE
  5
1e2
100
AcDbEntity
  8
Ebene_1
 62
7
100
AcDbLine
 10
107.805310
 20
125.496763
 30
0.0
 11
108.328270
 21
115.519073
 31
0.0
  0
SPLINE
  5
1e3
100
AcDbEntity
  8
Ebene_1
 62
7
100
AcDbSpline
 70
8
 71
3
 72
8
 73
4
 74
0
 40
0
 40
0
 40
0
 40
0
 40
1
 40
1
 40
1
 40
1
 10
108.328270
 20
115.519073
 30
0.0
 10
108.613840
 20
115.387353
 30
0.0
 10
108.891110
 20
115.234923
 30
0.0
 10
109.159750
 20
115.061223
 30
0.0
  0
LINE
  5
1e4
100
AcDbEntity
  8
Ebene_1
 62
7
100
AcDbLine
 10
109.159750
 20
115.061223
 30
0.0
 11
108.395970
 21
125.977873
 31
0.0
  0
SPLINE
  5
1e5
100
AcDbEntity
  8
Ebene_1
 62
7
100
AcDbSpline
 70
8
 71
3
 72
8
 73
4
 74
0
 40
0
 40
0
 40
0
 40
0
 40
1
 40
1
 40
1
 40
1
 10
104.648390
 20
124.213123
 30
0.0
 10
104.437270
 20
124.173023
 30
0.0
 10
104.219290
 20
124.140323
 30
0.0
 10
103.997270
 20
124.111313
 30
0.0
  0
LINE
  5
1e6
100
AcDbEntity
  8
Ebene_1
 62
7
100
AcDbLine
 10
103.997270
 20
124.111313
 30
0.0
 11
103.572490
 21
116.003283
 31
0.0
  0
SPLINE
  5
1e7
100
AcDbEntity
  8
Ebene_1
 62
7
100
AcDbSpline
 70
8
 71
3
 72
8
 73
4
 74
0
 40
0
 40
0
 40
0
 40
0
 40
1
 40
1
 40
1
 40
1
 10
103.572490
 20
116.003283
 30
0.0
 10
103.843870
 20
116.040783
 30
0.0
 10
104.108950
 20
116.071883
 30
0.0
 10
104.364690
 20
116.093683
 30
0.0
  0
LINE
  5
1e8
100
AcDbEntity
  8
Ebene_1
 62
7
100
AcDbLine
 10
104.364690
 20
116.093683
 30
0.0
 11
104.648390
 21
124.213123
 31
0.0
  0
LINE
  5
1e9
100
AcDbEntity
  8
Ebene_1
 62
7
100
AcDbLine
 10
117.339090
 20
118.582453
 30
0.0
 11
122.290730
 21
100.103483
 31
0.0
  0
SPLINE
  5
1ea
100
AcDbEntity
  8
Ebene_1
 62
7
100
AcDbSpline
 70
8
 71
3
 72
8
 73
4
 74
0
 40
0
 40
0
 40
0
 40
0
 40
1
 40
1
 40
1
 40
1
 10
122.290730
 20
100.103483
 30
0.0
 10
122.539580
 20
100.669633
 30
0.0
 10
122.757710
 20
101.248203
 30
0.0
 10
122.939780
 20
101.841363
 30
0.0
  0
LINE
  5
1eb
100
AcDbEntity
  8
Ebene_1
 62
7
100
AcDbLine
 10
122.939780
 20
101.841363
 30
0.0
 11
118.321460
 21
117.947353
 31
0.0
  0
SPLINE
  5
1ec
100
AcDbEntity
  8
Ebene_1
 62
7
100
AcDbSpline
 70
8
 71
3
 72
8
 73
4
 74
0
 40
0
 40
0
 40
0
 40
0
 40
1
 40
1
 40
1
 40
1
 10
118.321460
 20
117.947353
 30
0.0
 10
118.005450
 20
118.174113
 30
0.0
 10
117.677600
 20
118.385253
 30
0.0
 10
117.339090
 20
118.582453
 30
0.0
  0
LINE
  5
1ed
100
AcDbEntity
  8
Ebene_1
 62
7
100
AcDbLine
 10
117.339090
 20
118.582453
 30
0.0
 11
117.339090
 21
118.582453
 31
0.0
  0
LINE
  5
1ee
100
AcDbEntity
  8
Ebene_1
 62
7
100
AcDbLine
 10
97.199235
 20
105.964113
 30
0.0
 11
94.988000
 21
92.002173
 31
0.0
  0
SPLINE
  5
1ef
100
AcDbEntity
  8
Ebene_1
 62
7
100
AcDbSpline
 70
8
 71
3
 72
8
 73
4
 74
0
 40
0
 40
0
 40
0
 40
0
 40
1
 40
1
 40
1
 40
1
 10
94.988000
 20
92.002173
 30
0.0
 10
95.361142
 20
91.777283
 30
0.0
 10
95.742472
 20
91.566183
 30
0.0
 10
96.133150
 20
91.370693
 30
0.0
  0
LINE
  5
1f0
100
AcDbEntity
  8
Ebene_1
 62
7
100
AcDbLine
 10
96.133150
 20
91.370693
 30
0.0
 11
97.827104
 21
103.424223
 31
0.0
  0
SPLINE
  5
1f1
100
AcDbEntity
  8
Ebene_1
 62
7
100
AcDbSpline
 70
8
 71
3
 72
8
 73
4
 74
0
 40
0
 40
0
 40
0
 40
0
 40
1
 40
1
 40
1
 40
1
 10
97.827104
 20
103.424223
 30
0.0
 10
97.545627
 20
104.190293
 30
0.0
 10
97.335738
 20
105.036593
 30
0.0
 10
97.199235
 20
105.964113
 30
0.0
  0
LINE
  5
1f2
100
AcDbEntity
  8
Ebene_1
 62
7
100
AcDbLine
 10
97.199235
 20
105.964113
 30
0.0
 11
97.199235
 21
105.964113
 31
0.0
  0
LINE
  5
1f3
100
AcDbEntity
  8
Ebene_1
 62
7
100
AcDbLine
 10
92.116858
 20
105.702633
 30
0.0
 11
91.050256
 21
105.572923
 31
0.0
  0
LINE
  5
1f4
100
AcDbEntity
  8
Ebene_1
 62
7
100
AcDbLine
 10
91.050256
 20
105.572923
 30
0.0
 11
89.046761
 21
98.095343
 31
0.0
  0
SPLINE
  5
1f5
100
AcDbEntity
  8
Ebene_1
 62
7
100
AcDbSpline
 70
8
 71
3
 72
8
 73
4
 74
0
 40
0
 40
0
 40
0
 40
0
 40
1
 40
1
 40
1
 40
1
 10
89.046761
 20
98.095343
 30
0.0
 10
89.305362
 20
97.636583
 30
0.0
 10
89.585314
 20
97.191353
 30
0.0
 10
89.887020
 20
96.760023
 30
0.0
  0
LINE
  5
1f6
100
AcDbEntity
  8
Ebene_1
 62
7
100
AcDbLine
 10
89.887020
 20
96.760023
 30
0.0
 11
92.116858
 21
105.702633
 31
0.0
  0
SPLINE
  5
1f7
100
AcDbEntity
  8
Ebene_1
 62
7
100
AcDbSpline
 70
8
 71
3
 72
8
 73
4
 74
0
 40
0
 40
0
 40
0
 40
0
 40
1
 40
1
 40
1
 40
1
 10
110.187590
 20
100.358773
 30
0.0
 10
109.863430
 20
100.035093
 30
0.0
 10
109.523440
 20
99.748863
 30
0.0
 10
109.168010
 20
99.498873
 30
0.0
  0
LINE
  5
1f8
100
AcDbEntity
  8
Ebene_1
 62
7
100
AcDbLine
 10
109.168010
 20
99.498873
 30
0.0
 11
109.671340
 21
89.894813
 31
0.0
  0
SPLINE
  5
1f9
100
AcDbEntity
  8
Ebene_1
 62
7
100
AcDbSpline
 70
8
 71
3
 72
8
 73
4
 74
0
 40
0
 40
0
 40
0
 40
0
 40
1
 40
1
 40
1
 40
1
 10
109.671340
 20
89.894813
 30
0.0
 10
110.086980
 20
89.985713
 30
0.0
 10
110.495230
 20
90.091493
 30
0.0
 10
110.897620
 20
90.208483
 30
0.0
  0
LINE
  5
1fa
100
AcDbEntity
  8
Ebene_1
 62
7
100
AcDbLine
 10
110.897620
 20
90.208483
 30
0.0
 11
110.187590
 21
100.358773
 31
0.0
  0
LINE
  5
1fb
100
AcDbEntity
  8
Ebene_1
 62
7
100
AcDbLine
 10
102.659370
 20
98.574903
 30
0.0
 11
102.188590
 21
89.591983
 31
0.0
  0
SPLINE
  5
1fc
100
AcDbEntity
  8
Ebene_1
 62
7
100
AcDbSpline
 70
8
 71
3
 72
8
 73
4
 74
0
 40
0
 40
0
 40
0
 40
0
 40
1
 40
1
 40
1
 40
1
 10
102.188590
 20
89.591983
 30
0.0
 10
102.597540
 20
89.541783
 30
0.0
 10
103.013470
 20
89.502883
 30
0.0
 10
103.435550
 20
89.474683
 30
0.0
  0
LINE
  5
1fd
100
AcDbEntity
  8
Ebene_1
 62
7
100
AcDbLine
 10
103.435550
 20
89.474683
 30
0.0
 11
103.744060
 21
98.321683
 31
0.0
  0
SPLINE
  5
1fe
100
AcDbEntity
  8
Ebene_1
 62
7
100
AcDbSpline
 70
8
 71
3
 72
8
 73
4
 74
0
 40
0
 40
0
 40
0
 40
0
 40
1
 40
1
 40
1
 40
1
 10
103.744060
 20
98.321683
 30
0.0
 10
103.370960
 20
98.379583
 30
0.0
 10
103.009420
 20
98.464213
 30
0.0
 10
102.659370
 20
98.574903
 30
0.0
  0
LINE
  5
1ff
100
AcDbEntity
  8
Ebene_1
 62
7
100
AcDbLine
 10
102.659370
 20
98.574903
 30
0.0
 11
102.659370
 21
98.574903
 31
0.0
  0
SPLINE
  5
200
100
AcDbEntity
  8
Ebene_1
 62
7
100
AcDbSpline
 70
8
 71
3
 72
8
 73
4
 74
0
 40
0
 40
0
 40
0
 40
0
 40
1
 40
1
 40
1
 40
1
 10
105.665380
 20
145.517773
 30
0.0
 10
105.574680
 20
145.515773
 30
0.0
 10
105.482160
 20
145.515773
 30
0.0
 10
105.392020
 20
145.512773
 30
0.0
  0
LINE
  5
201
100
AcDbEntity
  8
Ebene_1
 62
7
100
AcDbLine
 10
105.392020
 20
145.512773
 30
0.0
 11
105.083510
 21
136.673523
 31
0.0
  0
SPLINE
  5
202
100
AcDbEntity
  8
Ebene_1
 62
7
100
AcDbSpline
 70
8
 71
3
 72
8
 73
4
 74
0
 40
0
 40
0
 40
0
 40
0
 40
1
 40
1
 40
1
 40
1
 10
105.083510
 20
136.673523
 30
0.0
 10
105.224080
 20
136.687123
 30
0.0
 10
105.366680
 20
136.697523
 30
0.0
 10
105.511390
 20
136.705023
 30
0.0
  0
LINE
  5
203
100
AcDbEntity
  8
Ebene_1
 62
7
100
AcDbLine
 10
105.511390
 20
136.705023
 30
0.0
 11
105.665380
 21
145.517773
 31
0.0
  0
LINE
  5
204
100
AcDbEntity
  8
Ebene_1
 62
7
100
AcDbLine
 10
107.029640
 20
145.515773
 30
0.0
 11
107.653380
 21
136.598493
 31
0.0
  0
SPLINE
  5
205
100
AcDbEntity
  8
Ebene_1
 62
7
100
AcDbSpline
 70
8
 71
3
 72
8
 73
4
 74
0
 40
0
 40
0
 40
0
 40
0
 40
1
 40
1
 40
1
 40
1
 10
107.653380
 20
136.598493
 30
0.0
 10
107.802370
 20
136.574293
 30
0.0
 10
107.948080
 20
136.545593
 30
0.0
 10
108.091590
 20
136.514293
 30
0.0
  0
LINE
  5
206
100
AcDbEntity
  8
Ebene_1
 62
7
100
AcDbLine
 10
108.091590
 20
136.514293
 30
0.0
 11
107.304560
 21
145.511153
 31
0.0
  0
SPLINE
  5
207
100
AcDbEntity
  8
Ebene_1
 62
7
100
AcDbSpline
 70
8
 71
3
 72
8
 73
4
 74
0
 40
0
 40
0
 40
0
 40
0
 40
1
 40
1
 40
1
 40
1
 10
107.304560
 20
145.511153
 30
0.0
 10
107.214060
 20
145.514153
 30
0.0
 10
107.120790
 20
145.513153
 30
0.0
 10
107.029640
 20
145.516153
 30
0.0
  0
LINE
  5
208
100
AcDbEntity
  8
Ebene_1
 62
7
100
AcDbLine
 10
107.029640
 20
145.516153
 30
0.0
 11
107.029640
 21
145.515773
 31
0.0
  0
SPLINE
  5
209
100
AcDbEntity
  8
Ebene_1
 62
7
100
AcDbSpline
 70
8
 71
3
 72
8
 73
4
 74
0
 40
0
 40
0
 40
0
 40
0
 40
1
 40
1
 40
1
 40
1
 10
104.009160
 20
145.428473
 30
0.0
 10
103.915160
 20
145.420473
 30
0.0
 10
103.820320
 20
145.413773
 30
0.0
 10
103.727000
 20
145.404673
 30
0.0
  0
LINE
  5
20a
100
AcDbEntity
  8
Ebene_1
 62
7
100
AcDbLine
 10
103.727000
 20
145.404673
 30
0.0
 11
102.394270
 21
135.921533
 31
0.0
  0
SPLINE
  5
20b
100
AcDbEntity
  8
Ebene_1
 62
7
100
AcDbSpline
 70
8
 71
3
 72
8
 73
4
 74
0
 40
0
 40
0
 40
0
 40
0
 40
1
 40
1
 40
1
 40
1
 10
102.394270
 20
135.921533
 30
0.0
 10
102.548160
 20
136.000433
 30
0.0
 10
102.706820
 20
136.072383
 30
0.0
 10
102.868660
 20
136.139603
 30
0.0
  0
LINE
  5
20c
100
AcDbEntity
  8
Ebene_1
 62
7
100
AcDbLine
 10
102.868660
 20
136.139603
 30
0.0
 11
104.009160
 21
145.428473
 31
0.0
  0
LINE
  5
20d
100
AcDbEntity
  8
Ebene_1
 62
7
100
AcDbLine
 10
108.708090
 20
145.423473
 30
0.0
 11
110.456310
 21
135.509353
 31
0.0
  0
SPLINE
  5
20e
100
AcDbEntity
  8
Ebene_1
 62
7
100
AcDbSpline
 70
8
 71
3
 72
8
 73
4
 74
0
 40
0
 40
0
 40
0
 40
0
 40
1
 40
1
 40
1
 40
1
 10
110.456310
 20
135.509353
 30
0.0
 10
110.646530
 20
135.377023
 30
0.0
 10
110.828380
 20
135.233943
 30
0.0
 10
111.002010
 20
135.079923
 30
0.0
  0
LINE
  5
20f
100
AcDbEntity
  8
Ebene_1
 62
7
100
AcDbLine
 10
111.002010
 20
135.079923
 30
0.0
 11
108.996960
 21
145.397123
 31
0.0
  0
SPLINE
  5
210
100
AcDbEntity
  8
Ebene_1
 62
7
100
AcDbSpline
 70
8
 71
3
 72
8
 73
4
 74
0
 40
0
 40
0
 40
0
 40
0
 40
1
 40
1
 40
1
 40
1
 10
108.996960
 20
145.397123
 30
0.0
 10
108.901260
 20
145.406123
 30
0.0
 10
108.804640
 20
145.415123
 30
0.0
 10
108.708090
 20
145.423523
 30
0.0
  0
LINE
  5
211
100
AcDbEntity
  8
Ebene_1
 62
7
100
AcDbLine
 10
108.708090
 20
145.423523
 30
0.0
 11
108.708090
 21
145.423473
 31
0.0
  0
SPLINE
  5
212
100
AcDbEntity
  8
Ebene_1
 62
7
100
AcDbSpline
 70
8
 71
3
 72
8
 73
4
 74
0
 40
0
 40
0
 40
0
 40
0
 40
1
 40
1
 40
1
 40
1
 10
102.262490
 20
145.215733
 30
0.0
 10
102.160600
 20
145.199433
 30
0.0
 10
102.057610
 20
145.184833
 30
0.0
 10
101.956570
 20
145.167133
 30
0.0
  0
LINE
  5
213
100
AcDbEntity
  8
Ebene_1
 62
7
100
AcDbLine
 10
101.956570
 20
145.167133
 30
0.0
 11
97.712382
 21
128.143883
 31
0.0
  0
LINE
  5
214
100
AcDbEntity
  8
Ebene_1
 62
7
100
AcDbLine
 10
97.712382
 20
128.143883
 30
0.0
 11
98.307178
 21
128.084483
 31
0.0
  0
LINE
  5
215
100
AcDbEntity
  8
Ebene_1
 62
7
100
AcDbLine
 10
98.307178
 20
128.084483
 30
0.0
 11
98.637390
 21
129.513333
 31
0.0
  0
SPLINE
  5
216
100
AcDbEntity
  8
Ebene_1
 62
7
100
AcDbSpline
 70
8
 71
3
 72
8
 73
4
 74
0
 40
0
 40
0
 40
0
 40
0
 40
1
 40
1
 40
1
 40
1
 10
98.637390
 20
129.513333
 30
0.0
 10
98.772011
 20
130.501593
 30
0.0
 10
98.974472
 20
131.381183
 30
0.0
 10
99.246139
 20
132.151413
 30
0.0
  0
LINE
  5
217
100
AcDbEntity
  8
Ebene_1
 62
7
100
AcDbLine
 10
99.246139
 20
132.151413
 30
0.0
 11
102.262490
 21
145.215733
 31
0.0
  0
LINE
  5
218
100
AcDbEntity
  8
Ebene_1
 62
7
100
AcDbLine
 10
110.507470
 20
145.198633
 30
0.0
 11
118.742620
 21
116.477393
 31
0.0
  0
SPLINE
  5
219
100
AcDbEntity
  8
Ebene_1
 62
7
100
AcDbSpline
 70
8
 71
3
 72
8
 73
4
 74
0
 40
0
 40
0
 40
0
 40
0
 40
1
 40
1
 40
1
 40
1
 10
118.742620
 20
116.477393
 30
0.0
 10
118.949070
 20
116.749983
 30
0.0
 10
119.148710
 20
117.020983
 30
0.0
 10
119.342070
 20
117.290773
 30
0.0
  0
LINE
  5
21a
100
AcDbEntity
  8
Ebene_1
 62
7
100
AcDbLine
 10
119.342070
 20
117.290773
 30
0.0
 11
110.826830
 21
145.143343
 31
0.0
  0
SPLINE
  5
21b
100
AcDbEntity
  8
Ebene_1
 62
7
100
AcDbSpline
 70
8
 71
3
 72
8
 73
4
 74
0
 40
0
 40
0
 40
0
 40
0
 40
1
 40
1
 40
1
 40
1
 10
110.826830
 20
145.143343
 30
0.0
 10
110.721010
 20
145.162543
 30
0.0
 10
110.614430
 20
145.180943
 30
0.0
 10
110.507470
 20
145.198643
 30
0.0
  0
LINE
  5
21c
100
AcDbEntity
  8
Ebene_1
 62
7
100
AcDbLine
 10
110.507470
 20
145.198643
 30
0.0
 11
110.507470
 21
145.198633
 31
0.0
  0
SPLINE
  5
21d
100
AcDbEntity
  8
Ebene_1
 62
7
100
AcDbSpline
 70
8
 71
3
 72
8
 73
4
 74
0
 40
0
 40
0
 40
0
 40
0
 40
1
 40
1
 40
1
 40
1
 10
100.318420
 20
144.815193
 30
0.0
 10
100.198590
 20
144.784393
 30
0.0
 10
100.080900
 20
144.750393
 30
0.0
 10
99.962374
 20
144.717493
 30
0.0
  0
LINE
  5
21e
100
AcDbEntity
  8
Ebene_1
 62
7
100
AcDbLine
 10
99.962374
 20
144.717493
 30
0.0
 11
94.062992
 21
128.508663
 31
0.0
  0
LINE
  5
21f
100
AcDbEntity
  8
Ebene_1
 62
7
100
AcDbLine
 10
94.062992
 20
128.508663
 30
0.0
 11
94.682593
 21
128.446663
 31
0.0
  0
LINE
  5
220
100
AcDbEntity
  8
Ebene_1
 62
7
100
AcDbLine
 10
94.682593
 20
128.446663
 30
0.0
 11
100.318420
 21
144.815193
 31
0.0
  0
LINE
  5
221
100
AcDbEntity
  8
Ebene_1
 62
7
100
AcDbLine
 10
112.556950
 20
144.751593
 30
0.0
 11
121.920210
 21
121.576263
 31
0.0
  0
SPLINE
  5
222
100
AcDbEntity
  8
Ebene_1
 62
7
100
AcDbSpline
 70
8
 71
3
 72
8
 73
4
 74
0
 40
0
 40
0
 40
0
 40
0
 40
1
 40
1
 40
1
 40
1
 10
121.920210
 20
121.576263
 30
0.0
 10
122.068950
 20
121.886413
 30
0.0
 10
122.207920
 20
122.194243
 30
0.0
 10
122.337240
 20
122.500233
 30
0.0
  0
LINE
  5
223
100
AcDbEntity
  8
Ebene_1
 62
7
100
AcDbLine
 10
122.337240
 20
122.500233
 30
0.0
 11
112.937290
 21
144.644623
 31
0.0
  0
SPLINE
  5
224
100
AcDbEntity
  8
Ebene_1
 62
7
100
AcDbSpline
 70
8
 71
3
 72
8
 73
4
 74
0
 40
0
 40
0
 40
0
 40
0
 40
1
 40
1
 40
1
 40
1
 10
112.937290
 20
144.644623
 30
0.0
 10
112.811870
 20
144.681923
 30
0.0
 10
112.684260
 20
144.716623
 30
0.0
 10
112.556950
 20
144.751593
 30
0.0
  0
LINE
  5
225
100
AcDbEntity
  8
Ebene_1
 62
7
100
AcDbLine
 10
112.556950
 20
144.751593
 30
0.0
 11
112.556950
 21
144.751593
 31
0.0
  0
SPLINE
  5
226
100
AcDbEntity
  8
Ebene_1
 62
7
100
AcDbSpline
 70
8
 71
3
 72
8
 73
4
 74
0
 40
0
 40
0
 40
0
 40
0
 40
1
 40
1
 40
1
 40
1
 10
97.971281
 20
144.050343
 30
0.0
 10
97.815301
 20
143.987943
 30
0.0
 10
97.662687
 20
143.920373
 30
0.0
 10
97.509294
 20
143.853973
 30
0.0
  0
LINE
  5
227
100
AcDbEntity
  8
Ebene_1
 62
7
100
AcDbLine
 10
97.509294
 20
143.853973
 30
0.0
 11
90.212581
 21
128.893643
 31
0.0
  0
LINE
  5
228
100
AcDbEntity
  8
Ebene_1
 62
7
100
AcDbLine
 10
90.212581
 20
128.893643
 30
0.0
 11
90.873006
 21
128.827543
 31
0.0
  0
LINE
  5
229
100
AcDbEntity
  8
Ebene_1
 62
7
100
AcDbLine
 10
90.873006
 20
128.827543
 30
0.0
 11
97.971281
 21
144.050343
 31
0.0
  0
LINE
  5
22a
100
AcDbEntity
  8
Ebene_1
 62
7
100
AcDbLine
 10
115.141810
 20
143.824003
 30
0.0
 11
123.737150
 21
127.658063
 31
0.0
  0
SPLINE
  5
22b
100
AcDbEntity
  8
Ebene_1
 62
7
100
AcDbSpline
 70
8
 71
3
 72
8
 73
4
 74
0
 40
0
 40
0
 40
0
 40
0
 40
1
 40
1
 40
1
 40
1
 10
123.737150
 20
127.658063
 30
0.0
 10
123.785250
 20
128.044373
 30
0.0
 10
123.821650
 20
128.433853
 30
0.0
 10
123.846700
 20
128.825953
 30
0.0
  0
LINE
  5
22c
100
AcDbEntity
  8
Ebene_1
 62
7
100
AcDbLine
 10
123.846700
 20
128.825953
 30
0.0
 11
115.677180
 21
143.563553
 31
0.0
  0
SPLINE
  5
22d
100
AcDbEntity
  8
Ebene_1
 62
7
100
AcDbSpline
 70
8
 71
3
 72
8
 73
4
 74
0
 40
0
 40
0
 40
0
 40
0
 40
1
 40
1
 40
1
 40
1
 10
115.677180
 20
143.563553
 30
0.0
 10
115.500350
 20
143.652353
 30
0.0
 10
115.323430
 20
143.741213
 30
0.0
 10
115.141810
 20
143.824003
 30
0.0
  0
LINE
  5
22e
100
AcDbEntity
  8
Ebene_1
 62
7
100
AcDbLine
 10
115.141810
 20
143.824003
 30
0.0
 11
115.141810
 21
143.824003
 31
0.0
  0
SPLINE
  5
22f
100
AcDbEntity
  8
Ebene_1
 62
7
100
AcDbSpline
 70
8
 71
3
 72
8
 73
4
 74
0
 40
0
 40
0
 40
0
 40
0
 40
1
 40
1
 40
1
 40
1
 10
94.589058
 20
142.247353
 30
0.0
 10
94.336519
 20
142.074603
 30
0.0
 10
94.086985
 20
141.896833
 30
0.0
 10
93.843368
 20
141.710433
 30
0.0
  0
SPLINE
  5
230
100
AcDbEntity
  8
Ebene_1
 62
7
100
AcDbSpline
 70
8
 71
3
 72
8
 73
4
 74
0
 40
0
 40
0
 40
0
 40
0
 40
1
 40
1
 40
1
 40
1
 10
93.843368
 20
141.710433
 30
0.0
 10
93.813118
 20
141.687333
 30
0.0
 10
93.785028
 20
141.661533
 30
0.0
 10
93.754998
 20
141.638033
 30
0.0
  0
LINE
  5
231
100
AcDbEntity
  8
Ebene_1
 62
7
100
AcDbLine
 10
93.754998
 20
141.638033
 30
0.0
 11
88.760471
 21
133.645243
 31
0.0
  0
SPLINE
  5
232
100
AcDbEntity
  8
Ebene_1
 62
7
100
AcDbSpline
 70
8
 71
3
 72
8
 73
4
 74
0
 40
0
 40
0
 40
0
 40
0
 40
1
 40
1
 40
1
 40
1
 10
88.760471
 20
133.645243
 30
0.0
 10
88.595596
 20
133.059693
 30
0.0
 10
88.449469
 20
132.450773
 30
0.0
 10
88.322771
 20
131.818483
 30
0.0
  0
LINE
  5
233
100
AcDbEntity
  8
Ebene_1
 62
7
100
AcDbLine
 10
88.322771
 20
131.818483
 30
0.0
 11
94.589058
 21
142.247353
 31
0.0
  0
LINE
  5
234
100
AcDbEntity
  8
Ebene_1
 62
7
100
AcDbLine
 10
119.972010
 20
140.328093
 30
0.0
 11
122.565650
 21
136.482333
 31
0.0
  0
SPLINE
  5
235
100
AcDbEntity
  8
Ebene_1
 62
7
100
AcDbSpline
 70
8
 71
3
 72
8
 73
4
 74
0
 40
0
 40
0
 40
0
 40
0
 40
1
 40
1
 40
1
 40
1
 10
122.565650
 20
136.482333
 30
0.0
 10
121.930080
 20
137.869523
 30
0.0
 10
121.065960
 20
139.151613
 30
0.0
 10
119.972010
 20
140.328093
 30
0.0
  0
LINE
  5
236
100
AcDbEntity
  8
Ebene_1
 62
7
100
AcDbLine
 10
119.972010
 20
140.328093
 30
0.0
 11
119.972010
 21
140.328093
 31
0.0
  0
SPLINE
  5
237
100
AcDbEntity
  8
Ebene_1
 62
7
100
AcDbSpline
 70
8
 71
3
 72
8
 73
4
 74
0
 40
0
 40
0
 40
0
 40
0
 40
1
 40
1
 40
1
 40
1
 10
112.721800
 20
126.234373
 30
0.0
 10
112.599920
 20
125.859803
 30
0.0
 10
112.455880
 20
125.484423
 30
0.0
 10
112.290300
 20
125.108343
 30
0.0
  0
LINE
  5
238
100
AcDbEntity
  8
Ebene_1
 62
7
100
AcDbLine
 10
112.290300
 20
125.108343
 30
0.0
 11
114.615230
 21
111.922073
 31
0.0
  0
SPLINE
  5
239
100
AcDbEntity
  8
Ebene_1
 62
7
100
AcDbSpline
 70
8
 71
3
 72
8
 73
4
 74
0
 40
0
 40
0
 40
0
 40
0
 40
1
 40
1
 40
1
 40
1
 10
114.615230
 20
111.922073
 30
0.0
 10
114.875870
 20
112.178113
 30
0.0
 10
115.119610
 20
112.422103
 30
0.0
 10
115.359370
 20
112.663623
 30
0.0
  0
LINE
  5
23a
100
AcDbEntity
  8
Ebene_1
 62
7
100
AcDbLine
 10
115.359370
 20
112.663623
 30
0.0
 11
112.721800
 21
126.234373
 31
0.0
  0
SPLINE
  5
23b
100
AcDbEntity
  8
Ebene_1
 62
7
100
AcDbSpline
 70
8
 71
3
 72
8
 73
4
 74
0
 40
0
 40
0
 40
0
 40
0
 40
1
 40
1
 40
1
 40
1
 10
109.456370
 20
120.918423
 30
0.0
 10
109.251060
 20
120.690833
 30
0.0
 10
109.036390
 20
120.455893
 30
0.0
 10
108.800080
 20
120.204253
 30
0.0
  0
LINE
  5
23c
100
AcDbEntity
  8
Ebene_1
 62
7
100
AcDbLine
 10
108.800080
 20
120.204253
 30
0.0
 11
109.701830
 21
107.308913
 31
0.0
  0
SPLINE
  5
23d
100
AcDbEntity
  8
Ebene_1
 62
7
100
AcDbSpline
 70
8
 71
3
 72
8
 73
4
 74
0
 40
0
 40
0
 40
0
 40
0
 40
1
 40
1
 40
1
 40
1
 10
109.701830
 20
107.308913
 30
0.0
 10
109.980460
 20
107.567523
 30
0.0
 10
110.275190
 20
107.839613
 30
0.0
 10
110.576200
 20
108.117133
 30
0.0
  0
LINE
  5
23e
100
AcDbEntity
  8
Ebene_1
 62
7
100
AcDbLine
 10
110.576200
 20
108.117133
 30
0.0
 11
109.456370
 21
120.918423
 31
0.0
  0
SPLINE
  5
23f
100
AcDbEntity
  8
Ebene_1
 62
7
100
AcDbSpline
 70
8
 71
3
 72
8
 73
4
 74
0
 40
0
 40
0
 40
0
 40
0
 40
1
 40
1
 40
1
 40
1
 10
105.159470
 20
116.549183
 30
0.0
 10
104.899790
 20
116.298763
 30
0.0
 10
104.629470
 20
116.039923
 30
0.0
 10
104.353840
 20
115.777133
 30
0.0
  0
LINE
  5
240
100
AcDbEntity
  8
Ebene_1
 62
7
100
AcDbLine
 10
104.353840
 20
115.777133
 30
0.0
 11
103.849480
 21
101.333053
 31
0.0
  0
SPLINE
  5
241
100
AcDbEntity
  8
Ebene_1
 62
7
100
AcDbSpline
 70
8
 71
3
 72
8
 73
4
 74
0
 40
0
 40
0
 40
0
 40
0
 40
1
 40
1
 40
1
 40
1
 10
103.849480
 20
101.333053
 30
0.0
 10
104.173900
 20
101.769713
 30
0.0
 10
104.528290
 20
102.210953
 30
0.0
 10
104.917110
 20
102.657523
 30
0.0
  0
LINE
  5
242
100
AcDbEntity
  8
Ebene_1
 62
7
100
AcDbLine
 10
104.917110
 20
102.657523
 30
0.0
 11
105.159470
 21
116.549183
 31
0.0
  0
SPLINE
  5
243
100
AcDbEntity
  8
Ebene_1
 62
7
100
AcDbSpline
 70
8
 71
3
 72
8
 73
4
 74
0
 40
0
 40
0
 40
0
 40
0
 40
1
 40
1
 40
1
 40
1
 10
99.845068
 20
111.515893
 30
0.0
 10
99.496255
 20
111.178733
 30
0.0
 10
99.156316
 20
110.846123
 30
0.0
 10
98.823942
 20
110.518023
 30
0.0
  0
LINE
  5
244
100
AcDbEntity
  8
Ebene_1
 62
7
100
AcDbLine
 10
98.823942
 20
110.518023
 30
0.0
 11
95.924894
 21
89.890343
 31
0.0
  0
LINE
  5
245
100
AcDbEntity
  8
Ebene_1
 62
7
100
AcDbLine
 10
95.924894
 20
89.890343
 30
0.0
 11
97.189933
 21
89.890343
 31
0.0
  0
LINE
  5
246
100
AcDbEntity
  8
Ebene_1
 62
7
100
AcDbLine
 10
97.189933
 20
89.890343
 30
0.0
 11
99.845068
 21
111.515893
 31
0.0
  0
SPLINE
  5
247
100
AcDbEntity
  8
Ebene_1
 62
7
100
AcDbSpline
 70
8
 71
3
 72
8
 73
4
 74
0
 40
0
 40
0
 40
0
 40
0
 40
1
 40
1
 40
1
 40
1
 10
92.721472
 20
103.888973
 30
0.0
 10
92.128177
 20
103.150403
 30
0.0
 10
91.600304
 20
102.447563
 30
0.0
 10
91.139657
 20
101.782123
 30
0.0
  0
LINE
  5
248
100
AcDbEntity
  8
Ebene_1
 62
7
100
AcDbLine
 10
91.139657
 20
101.782123
 30
0.0
 11
88.174463
 21
89.890343
 31
0.0
  0
LINE
  5
249
100
AcDbEntity
  8
Ebene_1
 62
7
100
AcDbLine
 10
88.174463
 20
89.890343
 30
0.0
 11
89.489628
 21
89.890343
 31
0.0
  0
LINE
  5
24a
100
AcDbEntity
  8
Ebene_1
 62
7
100
AcDbLine
 10
89.489628
 20
89.890343
 30
0.0
 11
92.721472
 21
103.888973
 31
0.0
  0
LINE
  5
24b
100
AcDbEntity
  8
Ebene_1
 62
7
100
AcDbLine
 10
103.794180
 20
99.755373
 30
0.0
 11
103.450020
 21
89.890343
 31
0.0
  0
LINE
  5
24c
100
AcDbEntity
  8
Ebene_1
 62
7
100
AcDbLine
 10
103.450020
 20
89.890343
 30
0.0
 11
104.694380
 21
89.890343
 31
0.0
  0
LINE
  5
24d
100
AcDbEntity
  8
Ebene_1
 62
7
100
AcDbLine
 10
104.694380
 20
89.890343
 30
0.0
 11
104.866470
 21
99.755373
 31
0.0
  0
LINE
  5
24e
100
AcDbEntity
  8
Ebene_1
 62
7
100
AcDbLine
 10
104.866470
 20
99.755373
 30
0.0
 11
103.794180
 21
99.755373
 31
0.0
  0
LINE
  5
24f
100
AcDbEntity
  8
Ebene_1
 62
7
100
AcDbLine
 10
110.229960
 20
99.755373
 30
0.0
 11
110.919840
 21
89.890343
 31
0.0
  0
LINE
  5
250
100
AcDbEntity
  8
Ebene_1
 62
7
100
AcDbLine
 10
110.919840
 20
89.890343
 30
0.0
 11
112.170930
 21
89.890343
 31
0.0
  0
LINE
  5
251
100
AcDbEntity
  8
Ebene_1
 62
7
100
AcDbLine
 10
112.170930
 20
89.890343
 30
0.0
 11
111.307930
 21
99.755373
 31
0.0
  0
LINE
  5
252
100
AcDbEntity
  8
Ebene_1
 62
7
100
AcDbLine
 10
111.307930
 20
99.755373
 30
0.0
 11
110.229960
 21
99.755373
 31
0.0
  0
LINE
  5
253
100
AcDbEntity
  8
Ebene_1
 62
7
100
AcDbLine
 10
116.760830
 20
99.755373
 30
0.0
 11
118.500260
 21
89.890343
 31
0.0
  0
LINE
  5
254
100
AcDbEntity
  8
Ebene_1
 62
7
100
AcDbLine
 10
118.500260
 20
89.890343
 30
0.0
 11
119.785970
 21
89.890343
 31
0.0
  0
LINE
  5
255
100
AcDbEntity
  8
Ebene_1
 62
7
100
AcDbLine
 10
119.785970
 20
89.890343
 30
0.0
 11
117.868770
 21
99.755373
 31
0.0
  0
LINE
  5
256
100
AcDbEntity
  8
Ebene_1
 62
7
100
AcDbLine
 10
117.868770
 20
99.755373
 30
0.0
 11
116.760830
 21
99.755373
 31
0.0
  0
LINE
  5
257
100
AcDbEntity
  8
Ebene_1
 62
7
100
AcDbLine
 10
123.537680
 20
99.755373
 30
0.0
 11
123.892180
 21
98.519273
 31
0.0
  0
LINE
  5
258
100
AcDbEntity
  8
Ebene_1
 62
7
100
AcDbLine
 10
123.892180
 20
98.519273
 30
0.0
 11
123.892180
 21
99.755373
 31
0.0
  0
LINE
  5
259
100
AcDbEntity
  8
Ebene_1
 62
7
100
AcDbLine
 10
123.892180
 20
99.755373
 30
0.0
 11
123.537680
 21
99.755373
 31
0.0
  0
LINE
  5
25a
100
AcDbEntity
  8
Ebene_1
 62
7
100
AcDbLine
 10
108.971130
 20
145.528113
 30
0.0
 11
117.447610
 21
101.920953
 31
0.0
  0
LINE
  5
25b
100
AcDbEntity
  8
Ebene_1
 62
7
100
AcDbLine
 10
117.447610
 20
101.920953
 30
0.0
 11
117.447610
 21
106.984203
 31
0.0
  0
LINE
  5
25c
100
AcDbEntity
  8
Ebene_1
 62
7
100
AcDbLine
 10
117.447610
 20
106.984203
 30
0.0
 11
109.254830
 21
145.528113
 31
0.0
  0
LINE
  5
25d
100
AcDbEntity
  8
Ebene_1
 62
7
100
AcDbLine
 10
109.254830
 20
145.528113
 30
0.0
 11
108.971130
 21
145.528113
 31
0.0
  0
LINE
  5
25e
100
AcDbEntity
  8
Ebene_1
 62
7
100
AcDbLine
 10
110.709000
 20
145.528113
 30
0.0
 11
117.447610
 21
123.487073
 31
0.0
  0
LINE
  5
25f
100
AcDbEntity
  8
Ebene_1
 62
7
100
AcDbLine
 10
117.447610
 20
123.487073
 30
0.0
 11
117.447610
 21
125.710193
 31
0.0
  0
LINE
  5
260
100
AcDbEntity
  8
Ebene_1
 62
7
100
AcDbLine
 10
117.447610
 20
125.710193
 30
0.0
 11
111.008210
 21
145.528113
 31
0.0
  0
LINE
  5
261
100
AcDbEntity
  8
Ebene_1
 62
7
100
AcDbLine
 10
111.008210
 20
145.528113
 30
0.0
 11
110.709000
 21
145.528113
 31
0.0
  0
LINE
  5
262
100
AcDbEntity
  8
Ebene_1
 62
7
100
AcDbLine
 10
112.562120
 20
145.528113
 30
0.0
 11
117.447610
 21
134.018733
 31
0.0
  0
LINE
  5
263
100
AcDbEntity
  8
Ebene_1
 62
7
100
AcDbLine
 10
117.447610
 20
134.018733
 30
0.0
 11
117.447610
 21
135.282743
 31
0.0
  0
LINE
  5
264
100
AcDbEntity
  8
Ebene_1
 62
7
100
AcDbLine
 10
117.447610
 20
135.282743
 30
0.0
 11
112.886130
 21
145.528113
 31
0.0
  0
LINE
  5
265
100
AcDbEntity
  8
Ebene_1
 62
7
100
AcDbLine
 10
112.886130
 20
145.528113
 30
0.0
 11
112.562120
 21
145.528113
 31
0.0
  0
LINE
  5
266
100
AcDbEntity
  8
Ebene_1
 62
7
100
AcDbLine
 10
114.588350
 20
145.528113
 30
0.0
 11
117.447610
 21
140.370283
 31
0.0
  0
LINE
  5
267
100
AcDbEntity
  8
Ebene_1
 62
7
100
AcDbLine
 10
117.447610
 20
140.370283
 30
0.0
 11
117.447610
 21
141.198653
 31
0.0
  0
LINE
  5
268
100
AcDbEntity
  8
Ebene_1
 62
7
100
AcDbLine
 10
117.447610
 20
141.198653
 30
0.0
 11
114.948020
 21
145.528113
 31
0.0
  0
LINE
  5
269
100
AcDbEntity
  8
Ebene_1
 62
7
100
AcDbLine
 10
114.948020
 20
145.528113
 30
0.0
 11
114.588350
 21
145.528113
 31
0.0
  0
LINE
  5
26a
100
AcDbEntity
  8
Ebene_1
 62
7
100
AcDbLine
 10
116.865220
 20
145.528113
 30
0.0
 11
117.447610
 21
144.696633
 31
0.0
  0
LINE
  5
26b
100
AcDbEntity
  8
Ebene_1
 62
7
100
AcDbLine
 10
117.447610
 20
144.696633
 30
0.0
 11
117.447610
 21
145.292463
 31
0.0
  0
LINE
  5
26c
100
AcDbEntity
  8
Ebene_1
 62
7
100
AcDbLine
 10
117.447610
 20
145.292463
 30
0.0
 11
117.276560
 21
145.528113
 31
0.0
  0
LINE
  5
26d
100
AcDbEntity
  8
Ebene_1
 62
7
100
AcDbLine
 10
117.276560
 20
145.528113
 30
0.0
 11
116.865220
 21
145.528113
 31
0.0
  0
SPLINE
  5
26e
100
AcDbEntity
  8
Ebene_1
 62
7
100
AcDbSpline
 70
8
 71
3
 72
8
 73
4
 74
0
 40
0
 40
0
 40
0
 40
0
 40
1
 40
1
 40
1
 40
1
 10
107.818230
 20
143.240913
 30
0.0
 10
107.730530
 20
143.075183
 30
0.0
 10
107.639620
 20
142.910873
 30
0.0
 10
107.546410
 20
142.747403
 30
0.0
  0
LINE
  5
26f
100
AcDbEntity
  8
Ebene_1
 62
7
100
AcDbLine
 10
107.546410
 20
142.747403
 30
0.0
 11
112.170930
 21
89.890163
 31
0.0
  0
LINE
  5
270
100
AcDbEntity
  8
Ebene_1
 62
7
100
AcDbLine
 10
112.170930
 20
89.890163
 30
0.0
 11
113.425630
 21
89.890163
 31
0.0
  0
LINE
  5
271
100
AcDbEntity
  8
Ebene_1
 62
7
100
AcDbLine
 10
113.425630
 20
89.890163
 30
0.0
 11
107.818230
 21
143.240913
 31
0.0
  0
SPLINE
  5
272
100
AcDbEntity
  8
Ebene_1
 62
7
100
AcDbSpline
 70
8
 71
3
 72
8
 73
4
 74
0
 40
0
 40
0
 40
0
 40
0
 40
1
 40
1
 40
1
 40
1
 10
105.937720
 20
140.374933
 30
0.0
 10
105.817310
 20
140.223403
 30
0.0
 10
105.693620
 20
140.073093
 30
0.0
 10
105.567720
 20
139.923803
 30
0.0
  0
LINE
  5
273
100
AcDbEntity
  8
Ebene_1
 62
7
100
AcDbLine
 10
105.567720
 20
139.923803
 30
0.0
 11
105.370310
 21
128.628363
 31
0.0
  0
SPLINE
  5
274
100
AcDbEntity
  8
Ebene_1
 62
7
100
AcDbSpline
 70
8
 71
3
 72
8
 73
4
 74
0
 40
0
 40
0
 40
0
 40
0
 40
1
 40
1
 40
1
 40
1
 10
105.370310
 20
128.628363
 30
0.0
 10
105.561130
 20
128.788423
 30
0.0
 10
105.749980
 20
128.951943
 30
0.0
 10
105.937720
 20
129.116193
 30
0.0
  0
LINE
  5
275
100
AcDbEntity
  8
Ebene_1
 62
7
100
AcDbLine
 10
105.937720
 20
129.116193
 30
0.0
 11
105.937720
 21
140.374933
 31
0.0
  0
SPLINE
  5
276
100
AcDbEntity
  8
Ebene_1
 62
7
100
AcDbSpline
 70
8
 71
3
 72
8
 73
4
 74
0
 40
0
 40
0
 40
0
 40
0
 40
1
 40
1
 40
1
 40
1
 10
103.482570
 20
137.776123
 30
0.0
 10
103.331100
 20
137.639543
 30
0.0
 10
103.176380
 20
137.504353
 30
0.0
 10
103.019550
 20
137.369953
 30
0.0
  0
LINE
  5
277
100
AcDbEntity
  8
Ebene_1
 62
7
100
AcDbLine
 10
103.019550
 20
137.369953
 30
0.0
 11
101.608270
 21
125.873493
 31
0.0
  0
SPLINE
  5
278
100
AcDbEntity
  8
Ebene_1
 62
7
100
AcDbSpline
 70
8
 71
3
 72
8
 73
4
 74
0
 40
0
 40
0
 40
0
 40
0
 40
1
 40
1
 40
1
 40
1
 10
101.608270
 20
125.873493
 30
0.0
 10
101.832670
 20
126.016453
 30
0.0
 10
102.056580
 20
126.160343
 30
0.0
 10
102.277480
 20
126.308093
 30
0.0
  0
LINE
  5
279
100
AcDbEntity
  8
Ebene_1
 62
7
100
AcDbLine
 10
102.277480
 20
126.308093
 30
0.0
 11
103.482570
 21
137.776123
 31
0.0
  0
SPLINE
  5
27a
100
AcDbEntity
  8
Ebene_1
 62
7
100
AcDbSpline
 70
8
 71
3
 72
8
 73
4
 74
0
 40
0
 40
0
 40
0
 40
0
 40
1
 40
1
 40
1
 40
1
 10
100.470870
 20
135.415033
 30
0.0
 10
100.283040
 20
135.282213
 30
0.0
 10
100.094770
 20
135.147893
 30
0.0
 10
99.908630
 20
135.020743
 30
0.0
  0
LINE
  5
27b
100
AcDbEntity
  8
Ebene_1
 62
7
100
AcDbLine
 10
99.908630
 20
135.020743
 30
0.0
 11
97.248844
 21
123.497933
 31
0.0
  0
SPLINE
  5
27c
100
AcDbEntity
  8
Ebene_1
 62
7
100
AcDbSpline
 70
8
 71
3
 72
8
 73
4
 74
0
 40
0
 40
0
 40
0
 40
0
 40
1
 40
1
 40
1
 40
1
 10
97.248844
 20
123.497933
 30
0.0
 10
97.505905
 20
123.616373
 30
0.0
 10
97.761459
 20
123.736513
 30
0.0
 10
98.014689
 20
123.860183
 30
0.0
  0
LINE
  5
27d
100
AcDbEntity
  8
Ebene_1
 62
7
100
AcDbLine
 10
98.014689
 20
123.860183
 30
0.0
 11
100.470870
 21
135.415033
 31
0.0
  0
SPLINE
  5
27e
100
AcDbEntity
  8
Ebene_1
 62
7
100
AcDbSpline
 70
8
 71
3
 72
8
 73
4
 74
0
 40
0
 40
0
 40
0
 40
0
 40
1
 40
1
 40
1
 40
1
 10
96.841117
 20
133.137133
 30
0.0
 10
96.619125
 20
133.017513
 30
0.0
 10
96.398477
 20
132.903633
 30
0.0
 10
96.179142
 20
132.792973
 30
0.0
  0
LINE
  5
27f
100
AcDbEntity
  8
Ebene_1
 62
7
100
AcDbLine
 10
96.179142
 20
132.792973
 30
0.0
 11
93.106462
 21
123.869483
 31
0.0
  0
LINE
  5
280
100
AcDbEntity
  8
Ebene_1
 62
7
100
AcDbLine
 10
93.106462
 20
123.869483
 30
0.0
 11
93.106462
 21
121.866503
 31
0.0
  0
SPLINE
  5
281
100
AcDbEntity
  8
Ebene_1
 62
7
100
AcDbSpline
 70
8
 71
3
 72
8
 73
4
 74
0
 40
0
 40
0
 40
0
 40
0
 40
1
 40
1
 40
1
 40
1
 10
93.106462
 20
121.866503
 30
0.0
 10
93.133882
 20
121.875503
 30
0.0
 10
93.160732
 20
121.885303
 30
0.0
 10
93.188112
 20
121.894403
 30
0.0
  0
LINE
  5
282
100
AcDbEntity
  8
Ebene_1
 62
7
100
AcDbLine
 10
93.188112
 20
121.894403
 30
0.0
 11
96.841117
 21
133.137133
 31
0.0
  0
SPLINE
  5
283
100
AcDbEntity
  8
Ebene_1
 62
7
100
AcDbSpline
 70
8
 71
3
 72
8
 73
4
 74
0
 40
0
 40
0
 40
0
 40
0
 40
1
 40
1
 40
1
 40
1
 10
104.612220
 20
145.985443
 30
0.0
 10
104.523520
 20
145.982443
 30
0.0
 10
104.433040
 20
145.983443
 30
0.0
 10
104.345050
 20
145.979443
 30
0.0
  0
LINE
  5
284
100
AcDbEntity
  8
Ebene_1
 62
7
100
AcDbLine
 10
104.345050
 20
145.979443
 30
0.0
 11
103.385420
 21
136.853383
 31
0.0
  0
SPLINE
  5
285
100
AcDbEntity
  8
Ebene_1
 62
7
100
AcDbSpline
 70
8
 71
3
 72
8
 73
4
 74
0
 40
0
 40
0
 40
0
 40
0
 40
1
 40
1
 40
1
 40
1
 10
103.385420
 20
136.853383
 30
0.0
 10
103.530050
 20
136.908183
 30
0.0
 10
103.677130
 20
136.956113
 30
0.0
 10
103.826220
 20
136.997563
 30
0.0
  0
LINE
  5
286
100
AcDbEntity
  8
Ebene_1
 62
7
100
AcDbLine
 10
103.826220
 20
136.997563
 30
0.0
 11
104.612220
 21
145.985443
 31
0.0
  0
LINE
  5
287
100
AcDbEntity
  8
Ebene_1
 62
7
100
AcDbLine
 10
105.937720
 20
145.985443
 30
0.0
 11
105.937720
 21
137.150323
 31
0.0
  0
SPLINE
  5
288
100
AcDbEntity
  8
Ebene_1
 62
7
100
AcDbSpline
 70
8
 71
3
 72
8
 73
4
 74
0
 40
0
 40
0
 40
0
 40
0
 40
1
 40
1
 40
1
 40
1
 10
105.937720
 20
137.150323
 30
0.0
 10
106.079460
 20
137.133523
 30
0.0
 10
106.219590
 20
137.112023
 30
0.0
 10
106.357330
 20
137.084223
 30
0.0
  0
LINE
  5
289
100
AcDbEntity
  8
Ebene_1
 62
7
100
AcDbLine
 10
106.357330
 20
137.084223
 30
0.0
 11
106.202300
 21
145.979803
 31
0.0
  0
SPLINE
  5
28a
100
AcDbEntity
  8
Ebene_1
 62
7
100
AcDbSpline
 70
8
 71
3
 72
8
 73
4
 74
0
 40
0
 40
0
 40
0
 40
0
 40
1
 40
1
 40
1
 40
1
 10
106.202300
 20
145.979803
 30
0.0
 10
106.115200
 20
145.983803
 30
0.0
 10
106.025500
 20
145.982803
 30
0.0
 10
105.937720
 20
145.985803
 30
0.0
  0
LINE
  5
28b
100
AcDbEntity
  8
Ebene_1
 62
7
100
AcDbLine
 10
105.937720
 20
145.985803
 30
0.0
 11
105.937720
 21
145.985443
 31
0.0
  0
LINE
  5
28c
100
AcDbEntity
  8
Ebene_1
 62
7
100
AcDbLine
 10
107.541760
 20
145.873823
 30
0.0
 11
108.576840
 21
136.025843
 31
0.0
  0
SPLINE
  5
28d
100
AcDbEntity
  8
Ebene_1
 62
7
100
AcDbSpline
 70
8
 71
3
 72
8
 73
4
 74
0
 40
0
 40
0
 40
0
 40
0
 40
1
 40
1
 40
1
 40
1
 10
108.576840
 20
136.025843
 30
0.0
 10
108.610540
 20
135.998543
 30
0.0
 10
108.645340
 20
135.974443
 30
0.0
 10
108.678640
 20
135.946243
 30
0.0
  0
SPLINE
  5
28e
100
AcDbEntity
  8
Ebene_1
 62
7
100
AcDbSpline
 70
8
 71
3
 72
8
 73
4
 74
0
 40
0
 40
0
 40
0
 40
0
 40
1
 40
1
 40
1
 40
1
 10
108.678640
 20
135.946243
 30
0.0
 10
108.814280
 20
135.837733
 30
0.0
 10
108.946780
 20
135.713383
 30
0.0
 10
109.076030
 20
135.575203
 30
0.0
  0
LINE
  5
28f
100
AcDbEntity
  8
Ebene_1
 62
7
100
AcDbLine
 10
109.076030
 20
135.575203
 30
0.0
 11
107.815640
 21
145.841243
 31
0.0
  0
SPLINE
  5
290
100
AcDbEntity
  8
Ebene_1
 62
7
100
AcDbSpline
 70
8
 71
3
 72
8
 73
4
 74
0
 40
0
 40
0
 40
0
 40
0
 40
1
 40
1
 40
1
 40
1
 10
107.815640
 20
145.841243
 30
0.0
 10
107.724640
 20
145.852643
 30
0.0
 10
107.633480
 20
145.863643
 30
0.0
 10
107.541760
 20
145.873843
 30
0.0
  0
LINE
  5
291
100
AcDbEntity
  8
Ebene_1
 62
7
100
AcDbLine
 10
107.541760
 20
145.873843
 30
0.0
 11
107.541760
 21
145.873823
 31
0.0
  0
SPLINE
  5
292
100
AcDbEntity
  8
Ebene_1
 62
7
100
AcDbSpline
 70
8
 71
3
 72
8
 73
4
 74
0
 40
0
 40
0
 40
0
 40
0
 40
1
 40
1
 40
1
 40
1
 10
102.970980
 20
145.870823
 30
0.0
 10
102.875680
 20
145.860223
 30
0.0
 10
102.780660
 20
145.849223
 30
0.0
 10
102.686240
 20
145.837223
 30
0.0
  0
LINE
  5
293
100
AcDbEntity
  8
Ebene_1
 62
7
100
AcDbLine
 10
102.686240
 20
145.837223
 30
0.0
 11
99.974776
 21
133.081413
 31
0.0
  0
SPLINE
  5
294
100
AcDbEntity
  8
Ebene_1
 62
7
100
AcDbSpline
 70
8
 71
3
 72
8
 73
4
 74
0
 40
0
 40
0
 40
0
 40
0
 40
1
 40
1
 40
1
 40
1
 10
99.974776
 20
133.081413
 30
0.0
 10
100.224430
 20
133.740273
 30
0.0
 10
100.504450
 20
134.310463
 30
0.0
 10
100.816590
 20
134.788803
 30
0.0
  0
LINE
  5
295
100
AcDbEntity
  8
Ebene_1
 62
7
100
AcDbLine
 10
100.816590
 20
134.788803
 30
0.0
 11
102.970980
 21
145.870823
 31
0.0
  0
LINE
  5
296
100
AcDbEntity
  8
Ebene_1
 62
7
100
AcDbLine
 10
109.238290
 20
145.605723
 30
0.0
 11
119.451110
 21
97.559563
 31
0.0
  0
SPLINE
  5
297
100
AcDbEntity
  8
Ebene_1
 62
7
100
AcDbSpline
 70
8
 71
3
 72
8
 73
4
 74
0
 40
0
 40
0
 40
0
 40
0
 40
1
 40
1
 40
1
 40
1
 10
119.451110
 20
97.559563
 30
0.0
 10
119.730900
 20
98.070133
 30
0.0
 10
119.995310
 20
98.605613
 30
0.0
 10
120.244340
 20
99.166183
 30
0.0
  0
LINE
  5
298
100
AcDbEntity
  8
Ebene_1
 62
7
100
AcDbLine
 10
120.244340
 20
99.166183
 30
0.0
 11
109.538530
 21
145.536993
 31
0.0
  0
SPLINE
  5
299
100
AcDbEntity
  8
Ebene_1
 62
7
100
AcDbSpline
 70
8
 71
3
 72
8
 73
4
 74
0
 40
0
 40
0
 40
0
 40
0
 40
1
 40
1
 40
1
 40
1
 10
109.538530
 20
145.536993
 30
0.0
 10
109.438490
 20
145.559993
 30
0.0
 10
109.339400
 20
145.584493
 30
0.0
 10
109.238290
 20
145.605693
 30
0.0
  0
LINE
  5
29a
100
AcDbEntity
  8
Ebene_1
 62
7
100
AcDbLine
 10
109.238290
 20
145.605693
 30
0.0
 11
109.238290
 21
145.605723
 31
0.0
  0
SPLINE
  5
29b
100
AcDbEntity
  8
Ebene_1
 62
7
100
AcDbSpline
 70
8
 71
3
 72
8
 73
4
 74
0
 40
0
 40
0
 40
0
 40
0
 40
1
 40
1
 40
1
 40
1
 10
101.182450
 20
145.580423
 30
0.0
 10
101.074510
 20
145.557023
 30
0.0
 10
100.967220
 20
145.532923
 30
0.0
 10
100.860510
 20
145.507523
 30
0.0
  0
LINE
  5
29c
100
AcDbEntity
  8
Ebene_1
 62
7
100
AcDbLine
 10
100.860510
 20
145.507523
 30
0.0
 11
88.129504
 21
106.325943
 31
0.0
  0
SPLINE
  5
29d
100
AcDbEntity
  8
Ebene_1
 62
7
100
AcDbSpline
 70
8
 71
3
 72
8
 73
4
 74
0
 40
0
 40
0
 40
0
 40
0
 40
1
 40
1
 40
1
 40
1
 10
88.129504
 20
106.325943
 30
0.0
 10
88.253310
 20
105.600073
 30
0.0
 10
88.386545
 20
104.892763
 30
0.0
 10
88.537748
 20
104.220643
 30
0.0
  0
LINE
  5
29e
100
AcDbEntity
  8
Ebene_1
 62
7
100
AcDbLine
 10
88.537748
 20
104.220643
 30
0.0
 11
101.182450
 21
145.580423
 31
0.0
  0
LINE
  5
29f
100
AcDbEntity
  8
Ebene_1
 62
7
100
AcDbLine
 10
111.156010
 20
145.074513
 30
0.0
 11
122.797160
 21
109.245693
 31
0.0
  0
SPLINE
  5
2a0
100
AcDbEntity
  8
Ebene_1
 62
7
100
AcDbSpline
 70
8
 71
3
 72
8
 73
4
 74
0
 40
0
 40
0
 40
0
 40
0
 40
1
 40
1
 40
1
 40
1
 10
122.797160
 20
109.245693
 30
0.0
 10
122.886160
 20
109.978863
 30
0.0
 10
122.962010
 20
110.733053
 30
0.0
 10
123.025570
 20
111.507563
 30
0.0
  0
LINE
  5
2a1
100
AcDbEntity
  8
Ebene_1
 62
7
100
AcDbLine
 10
123.025570
 20
111.507563
 30
0.0
 11
111.510510
 21
144.949333
 31
0.0
  0
SPLINE
  5
2a2
100
AcDbEntity
  8
Ebene_1
 62
7
100
AcDbSpline
 70
8
 71
3
 72
8
 73
4
 74
0
 40
0
 40
0
 40
0
 40
0
 40
1
 40
1
 40
1
 40
1
 10
111.510510
 20
144.949333
 30
0.0
 10
111.393640
 20
144.993133
 30
0.0
 10
111.274550
 20
145.033333
 30
0.0
 10
111.156010
 20
145.074393
 30
0.0
  0
LINE
  5
2a3
100
AcDbEntity
  8
Ebene_1
 62
7
100
AcDbLine
 10
111.156010
 20
145.074393
 30
0.0
 11
111.156010
 21
145.074513
 31
0.0
  0
SPLINE
  5
2a4
100
AcDbEntity
  8
Ebene_1
 62
7
100
AcDbSpline
 70
8
 71
3
 72
8
 73
4
 74
0
 40
0
 40
0
 40
0
 40
0
 40
1
 40
1
 40
1
 40
1
 10
99.077673
 20
144.972703
 30
0.0
 10
98.941076
 20
144.922403
 30
0.0
 10
98.806287
 20
144.869123
 30
0.0
 10
98.672013
 20
144.815093
 30
0.0
  0
LINE
  5
2a5
100
AcDbEntity
  8
Ebene_1
 62
7
100
AcDbLine
 10
98.672013
 20
144.815093
 30
0.0
 11
87.301648
 21
119.278033
 31
0.0
  0
SPLINE
  5
2a6
100
AcDbEntity
  8
Ebene_1
 62
7
100
AcDbSpline
 70
8
 71
3
 72
8
 73
4
 74
0
 40
0
 40
0
 40
0
 40
0
 40
1
 40
1
 40
1
 40
1
 10
87.301648
 20
119.278033
 30
0.0
 10
87.293348
 20
118.791163
 30
0.0
 10
87.285628
 20
118.304013
 30
0.0
 10
87.285628
 20
117.803703
 30
0.0
  0
SPLINE
  5
2a7
100
AcDbEntity
  8
Ebene_1
 62
7
100
AcDbSpline
 70
8
 71
3
 72
8
 73
4
 74
0
 40
0
 40
0
 40
0
 40
0
 40
1
 40
1
 40
1
 40
1
 10
87.285628
 20
117.803703
 30
0.0
 10
87.285628
 20
117.600723
 30
0.0
 10
87.290128
 20
117.406943
 30
0.0
 10
87.291328
 20
117.206323
 30
0.0
  0
LINE
  5
2a8
100
AcDbEntity
  8
Ebene_1
 62
7
100
AcDbLine
 10
87.291328
 20
117.206323
 30
0.0
 11
99.077673
 21
144.972703
 31
0.0
  0
LINE
  5
2a9
100
AcDbEntity
  8
Ebene_1
 62
7
100
AcDbLine
 10
113.574980
 20
143.980523
 30
0.0
 11
123.122720
 21
122.536353
 31
0.0
  0
SPLINE
  5
2aa
100
AcDbEntity
  8
Ebene_1
 62
7
100
AcDbSpline
 70
8
 71
3
 72
8
 73
4
 74
0
 40
0
 40
0
 40
0
 40
0
 40
1
 40
1
 40
1
 40
1
 10
123.122720
 20
122.536353
 30
0.0
 10
123.079420
 20
123.246733
 30
0.0
 10
123.027820
 20
123.943163
 30
0.0
 10
122.964590
 20
124.620463
 30
0.0
  0
LINE
  5
2ab
100
AcDbEntity
  8
Ebene_1
 62
7
100
AcDbLine
 10
122.964590
 20
124.620463
 30
0.0
 11
114.073660
 21
143.686483
 31
0.0
  0
SPLINE
  5
2ac
100
AcDbEntity
  8
Ebene_1
 62
7
100
AcDbSpline
 70
8
 71
3
 72
8
 73
4
 74
0
 40
0
 40
0
 40
0
 40
0
 40
1
 40
1
 40
1
 40
1
 10
114.073660
 20
143.686483
 30
0.0
 10
113.910110
 20
143.788843
 30
0.0
 10
113.742690
 20
143.884953
 30
0.0
 10
113.574980
 20
143.980523
 30
0.0
  0
LINE
  5
2ad
100
AcDbEntity
  8
Ebene_1
 62
7
100
AcDbLine
 10
113.574980
 20
143.980523
 30
0.0
 11
113.574980
 21
143.980523
 31
0.0
  0
SPLINE
  5
2ae
100
AcDbEntity
  8
Ebene_1
 62
7
100
AcDbSpline
 70
8
 71
3
 72
8
 73
4
 74
0
 40
0
 40
0
 40
0
 40
0
 40
1
 40
1
 40
1
 40
1
 10
96.163123
 20
143.500443
 30
0.0
 10
95.930237
 20
143.346633
 30
0.0
 10
95.701864
 20
143.185833
 30
0.0
 10
95.477893
 20
143.017783
 30
0.0
  0
LINE
  5
2af
100
AcDbEntity
  8
Ebene_1
 62
7
100
AcDbLine
 10
95.477893
 20
143.017783
 30
0.0
 11
88.617330
 21
131.135313
 31
0.0
  0
SPLINE
  5
2b0
100
AcDbEntity
  8
Ebene_1
 62
7
100
AcDbSpline
 70
8
 71
3
 72
8
 73
4
 74
0
 40
0
 40
0
 40
0
 40
0
 40
1
 40
1
 40
1
 40
1
 10
88.617330
 20
131.135313
 30
0.0
 10
88.462936
 20
130.486513
 30
0.0
 10
88.321635
 20
129.816643
 30
0.0
 10
88.194100
 20
129.124583
 30
0.0
  0
LINE
  5
2b1
100
AcDbEntity
  8
Ebene_1
 62
7
100
AcDbLine
 10
88.194100
 20
129.124583
 30
0.0
 11
96.163123
 21
143.500443
 31
0.0
  0
LINE
  5
2b2
100
AcDbEntity
  8
Ebene_1
 62
7
100
AcDbLine
 10
118.442380
 20
139.475883
 30
0.0
 11
120.015930
 21
136.749953
 31
0.0
  0
SPLINE
  5
2b3
100
AcDbEntity
  8
Ebene_1
 62
7
100
AcDbSpline
 70
8
 71
3
 72
8
 73
4
 74
0
 40
0
 40
0
 40
0
 40
0
 40
1
 40
1
 40
1
 40
1
 10
120.015930
 20
136.749953
 30
0.0
 10
119.543020
 20
137.744173
 30
0.0
 10
119.018470
 20
138.652653
 30
0.0
 10
118.442380
 20
139.475883
 30
0.0
  0
LINE
  5
2b4
100
AcDbEntity
  8
Ebene_1
 62
7
100
AcDbLine
 10
118.442380
 20
139.475883
 30
0.0
 11
118.442380
 21
139.475883
 31
0.0
  0
LINE
  5
2b5
100
AcDbEntity
  8
Ebene_1
 62
7
100
AcDbLine
 10
98.825492
 20
127.673503
 30
0.0
 11
92.060531
 21
95.847543
 31
0.0
  0
SPLINE
  5
2b6
100
AcDbEntity
  8
Ebene_1
 62
7
100
AcDbSpline
 70
8
 71
3
 72
8
 73
4
 74
0
 40
0
 40
0
 40
0
 40
0
 40
1
 40
1
 40
1
 40
1
 10
92.060531
 20
95.847543
 30
0.0
 10
92.119131
 20
95.770243
 30
0.0
 10
92.177070
 20
95.691713
 30
0.0
 10
92.236747
 20
95.616543
 30
0.0
  0
SPLINE
  5
2b7
100
AcDbEntity
  8
Ebene_1
 62
7
100
AcDbSpline
 70
8
 71
3
 72
8
 73
4
 74
0
 40
0
 40
0
 40
0
 40
0
 40
1
 40
1
 40
1
 40
1
 10
92.236747
 20
95.616543
 30
0.0
 10
92.492066
 20
95.296913
 30
0.0
 10
92.755949
 20
94.993683
 30
0.0
 10
93.023779
 20
94.698773
 30
0.0
  0
LINE
  5
2b8
100
AcDbEntity
  8
Ebene_1
 62
7
100
AcDbLine
 10
93.023779
 20
94.698773
 30
0.0
 11
98.493213
 21
122.834523
 31
0.0
  0
SPLINE
  5
2b9
100
AcDbEntity
  8
Ebene_1
 62
7
100
AcDbSpline
 70
8
 71
3
 72
8
 73
4
 74
0
 40
0
 40
0
 40
0
 40
0
 40
1
 40
1
 40
1
 40
1
 10
98.493213
 20
122.834523
 30
0.0
 10
98.564063
 20
124.652753
 30
0.0
 10
98.672312
 20
126.278313
 30
0.0
 10
98.825492
 20
127.673503
 30
0.0
  0
LINE
  5
2ba
100
AcDbEntity
  8
Ebene_1
 62
7
100
AcDbLine
 10
98.825492
 20
127.673503
 30
0.0
 11
98.825492
 21
127.673503
 31
0.0
  0
SPLINE
  5
2bb
100
AcDbEntity
  8
Ebene_1
 62
7
100
AcDbSpline
 70
8
 71
3
 72
8
 73
4
 74
0
 40
0
 40
0
 40
0
 40
0
 40
1
 40
1
 40
1
 40
1
 10
112.020040
 20
111.597483
 30
0.0
 10
111.933040
 20
109.827083
 30
0.0
 10
111.806200
 20
108.263263
 30
0.0
 10
111.634010
 20
106.933683
 30
0.0
  0
LINE
  5
2bc
100
AcDbEntity
  8
Ebene_1
 62
7
100
AcDbLine
 10
111.634010
 20
106.933683
 30
0.0
 11
113.282490
 21
91.252473
 31
0.0
  0
SPLINE
  5
2bd
100
AcDbEntity
  8
Ebene_1
 62
7
100
AcDbSpline
 70
8
 71
3
 72
8
 73
4
 74
0
 40
0
 40
0
 40
0
 40
0
 40
1
 40
1
 40
1
 40
1
 10
113.282490
 20
91.252473
 30
0.0
 10
113.678270
 20
91.464033
 30
0.0
 10
114.060500
 20
91.696753
 30
0.0
 10
114.433330
 20
91.944933
 30
0.0
  0
LINE
  5
2be
100
AcDbEntity
  8
Ebene_1
 62
7
100
AcDbLine
 10
114.433330
 20
91.944933
 30
0.0
 11
112.020040
 21
111.597483
 31
0.0
  0
LINE
  5
2bf
100
AcDbEntity
  8
Ebene_1
 62
7
100
AcDbLine
 10
99.814062
 20
102.871913
 30
0.0
 11
98.536104
 21
90.715553
 31
0.0
  0
SPLINE
  5
2c0
100
AcDbEntity
  8
Ebene_1
 62
7
100
AcDbSpline
 70
8
 71
3
 72
8
 73
4
 74
0
 40
0
 40
0
 40
0
 40
0
 40
1
 40
1
 40
1
 40
1
 10
98.536104
 20
90.715553
 30
0.0
 10
98.928325
 20
90.548463
 30
0.0
 10
99.328494
 20
90.397133
 30
0.0
 10
99.737065
 20
90.262353
 30
0.0
  0
LINE
  5
2c1
100
AcDbEntity
  8
Ebene_1
 62
7
100
AcDbLine
 10
99.737065
 20
90.262353
 30
0.0
 11
100.669310
 21
100.918553
 31
0.0
  0
SPLINE
  5
2c2
100
AcDbEntity
  8
Ebene_1
 62
7
100
AcDbSpline
 70
8
 71
3
 72
8
 73
4
 74
0
 40
0
 40
0
 40
0
 40
0
 40
1
 40
1
 40
1
 40
1
 10
100.669310
 20
100.918553
 30
0.0
 10
100.362460
 20
101.463053
 30
0.0
 10
100.077490
 20
102.113613
 30
0.0
 10
99.814062
 20
102.871913
 30
0.0
  0
LINE
  5
2c3
100
AcDbEntity
  8
Ebene_1
 62
7
100
AcDbLine
 10
99.814062
 20
102.871913
 30
0.0
 11
99.814062
 21
102.871913
 31
0.0
  0
SPLINE
  5
2c4
100
AcDbEntity
  8
Ebene_1
 62
7
100
AcDbSpline
 70
8
 71
3
 72
8
 73
4
 74
0
 40
0
 40
0
 40
0
 40
0
 40
1
 40
1
 40
1
 40
1
 10
107.030680
 20
98.505773
 30
0.0
 10
106.679570
 20
98.387853
 30
0.0
 10
106.314570
 20
98.309033
 30
0.0
 10
105.937720
 20
98.265993
 30
0.0
  0
LINE
  5
2c5
100
AcDbEntity
  8
Ebene_1
 62
7
100
AcDbLine
 10
105.937720
 20
98.265993
 30
0.0
 11
105.937720
 21
89.432943
 31
0.0
  0
SPLINE
  5
2c6
100
AcDbEntity
  8
Ebene_1
 62
7
100
AcDbSpline
 70
8
 71
3
 72
8
 73
4
 74
0
 40
0
 40
0
 40
0
 40
0
 40
1
 40
1
 40
1
 40
1
 10
105.937720
 20
89.432943
 30
0.0
 10
106.361190
 20
89.445543
 30
0.0
 10
106.779610
 20
89.466143
 30
0.0
 10
107.187770
 20
89.503243
 30
0.0
  0
LINE
  5
2c7
100
AcDbEntity
  8
Ebene_1
 62
7
100
AcDbLine
 10
107.187770
 20
89.503243
 30
0.0
 11
107.030680
 21
98.505773
 31
0.0
  0
SPLINE
  5
2c8
100
AcDbEntity
  8
Ebene_1
 62
7
100
AcDbSpline
 70
8
 71
3
 72
8
 73
4
 74
0
 40
0
 40
0
 40
0
 40
0
 40
1
 40
1
 40
1
 40
1
 10
105.937720
 20
235.085435
 30
0.0
 10
76.027318
 20
235.085435
 30
0.0
 10
49.062088
 20
217.067844
 30
0.0
 10
37.615872
 20
189.434236
 30
0.0
  0
SPLINE
  5
2c9
100
AcDbEntity
  8
Ebene_1
 62
7
100
AcDbSpline
 70
8
 71
3
 72
8
 73
4
 74
0
 40
0
 40
0
 40
0
 40
0
 40
1
 40
1
 40
1
 40
1
 10
37.615872
 20
189.434236
 30
0.0
 10
26.169657
 20
161.800628
 30
0.0
 10
32.496594
 20
129.992969
 30
0.0
 10
53.646442
 20
108.843122
 30
0.0
  0
SPLINE
  5
2ca
100
AcDbEntity
  8
Ebene_1
 62
7
100
AcDbSpline
 70
8
 71
3
 72
8
 73
4
 74
0
 40
0
 40
0
 40
0
 40
0
 40
1
 40
1
 40
1
 40
1
 10
53.646442
 20
108.843122
 30
0.0
 10
74.796289
 20
87.693274
 30
0.0
 10
106.603948
 20
81.366337
 30
0.0
 10
134.237556
 20
92.812552
 30
0.0
  0
SPLINE
  5
2cb
100
AcDbEntity
  8
Ebene_1
 62
7
100
AcDbSpline
 70
8
 71
3
 72
8
 73
4
 74
0
 40
0
 40
0
 40
0
 40
0
 40
1
 40
1
 40
1
 40
1
 10
134.237556
 20
92.812552
 30
0.0
 10
161.871164
 20
104.258768
 30
0.0
 10
179.888755
 20
131.223998
 30
0.0
 10
179.888755
 20
161.134400
 30
0.0
  0
SPLINE
  5
2cc
100
AcDbEntity
  8
Ebene_1
 62
7
100
AcDbSpline
 70
8
 71
3
 72
8
 73
4
 74
0
 40
0
 40
0
 40
0
 40
0
 40
1
 40
1
 40
1
 40
1
 10
179.888755
 20
161.134400
 30
0.0
 10
179.888755
 20
201.976429
 30
0.0
 10
146.779749
 20
235.085435
 30
0.0
 10
105.937720
 20
235.085435
 30
0.0
  0
LINE
  5
2cd
100
AcDbEntity
  8
Ebene_1
 62
7
100
AcDbLine
 10
105.937720
 20
235.085435
 30
0.0
 11
105.937720
 21
235.085435
 31
0.0
  0
ENDSEC
  0
SECTION
  2
OBJECTS
  0
DICTIONARY
  5
C
330
0
100
AcDbDictionary
  3
ACAD_GROUP
350
D
  3
ACAD_MLINESTYLE
350
17
  0
DICTIONARY
  5
D
330
C
100
AcDbDictionary
  0
DICTIONARY
  5
1A
330
C
100
AcDbDictionary
  0
DICTIONARY
  5
17
330
C
100
AcDbDictionary
  3
STANDARD
350
18
  0
DICTIONARY
  5
19
330
C
100
AcDbDictionary
  0
ENDSEC
  0
EOF
