  0
SECTION
  2
HEADER
  9
$ACADVER
  1
AC1014
  9
$HANDSEED
  5
FFFF
  9
$MEASUREMENT
 70
     1
  0
ENDSEC
  0
SECTION
  2
TABLES
  0
TABLE
  2
VPORT
  5
8
330
0
100
AcDbSymbolTable
 70
     4
  0
VPORT
  5
2E
330
8
100
AcDbSymbolTableRecord
100
AcDbViewportTableRecord
  2
*ACTIVE
 70
     0
 10
0.0
 20
0.0
 11
1.0
 21
1.0
 12
210.0
 22
148.5
 13
0.0
 23
0.0
 14
10.0
 24
10.0
 15
10.0
 25
10.0
 16
0.0
 26
0.0
 36
1.0
 17
0.0
 27
0.0
 37
0.0
 40
341.0
 41
1.24
 42
50.0
 43
0.0
 44
0.0
 50
0.0
 51
0.0
 71
     0
 72
   100
 73
     1
 74
     3
 75
     0
 76
     0
 77
     0
 78
     0
  0
ENDTAB
  0
TABLE
  2
LTYPE
  5
5
330
0
100
AcDbSymbolTable
 70
     1
  0
LTYPE
  5
14
330
5
100
AcDbSymbolTableRecord
100
AcDbLinetypeTableRecord
  2
BYBLOCK
 70
     0
  3

 72
    65
 73
     0
 40
0.0
  0
LTYPE
  5
15
330
5
100
AcDbSymbolTableRecord
100
AcDbLinetypeTableRecord
  2
BYLAYER
 70
     0
  3

 72
    65
 73
     0
 40
0.0
  0
LTYPE
  5
16
330
5
100
AcDbSymbolTableRecord
100
AcDbLinetypeTableRecord
  2
CONTINUOUS
 70
     0
  3
Solid line
 72
    65
 73
     0
 40
0.0
  0
ENDTAB
  0
TABLE
  2
LAYER
  5
2
100
AcDbSymbolTable
 70
2
  0
LAYER
  5
50
100
AcDbSymbolTableRecord
100
AcDbLayerTableRecord
  2
0
 70
0
  6
CONTINUOUS
  0
LAYER
  5
51
100
AcDbSymbolTableRecord
100
AcDbLayerTableRecord
  2
Ebene_1
 70
0
  6
CONTINUOUS
  0
ENDTAB
  0
TABLE
  2
STYLE
  5
3
330
0
100
AcDbSymbolTable
 70
     1
  0
STYLE
  5
11
330
3
100
AcDbSymbolTableRecord
100
AcDbTextStyleTableRecord
  2
STANDARD
 70
     0
 40
0.0
 41
1.0
 50
0.0
 71
     0
 42
2.5
  3
txt
  4

  0
ENDTAB
  0
TABLE
  2
VIEW
  5
6
330
0
100
AcDbSymbolTable
 70
     0
  0
ENDTAB
  0
TABLE
  2
UCS
  5
7
330
0
100
AcDbSymbolTable
 70
     0
  0
ENDTAB
  0
TABLE
  2
APPID
  5
9
330
0
100
AcDbSymbolTable
 70
     2
  0
APPID
  5
12
330
9
100
AcDbSymbolTableRecord
100
AcDbRegAppTableRecord
  2
ACAD
 70
     0
  0
ENDTAB
  0
TABLE
  2
DIMSTYLE
  5
A
330
0
100
AcDbSymbolTable
 70
     1
  0
DIMSTYLE
105
27
330
A
100
AcDbSymbolTableRecord
100
AcDbDimStyleTableRecord
  2
ISO-25
 70
     0
  3

  4

  5

  6

  7

 40
1.0
 41
2.5
 42
0.625
 43
3.75
 44
1.25
 45
0.0
 46
0.0
 47
0.0
 48
0.0
140
2.5
141
2.5
142
0.0
143
0.03937007874016
144
1.0
145
0.0
146
1.0
147
0.625
 71
     0
 72
     0
 73
     0
 74
     0
 75
     0
 76
     0
 77
     1
 78
     8
170
     0
171
     3
172
     1
173
     0
174
     0
175
     0
176
     0
177
     0
178
     0
270
     2
271
     2
272
     2
273
     2
274
     3
340
11
275
     0
280
     0
281
     0
282
     0
283
     0
284
     8
285
     0
286
     0
287
     3
288
     0
  0
ENDTAB
  0
TABLE
  2
BLOCK_RECORD
  5
1
330
0
100
AcDbSymbolTable
 70
     1
  0
BLOCK_RECORD
  5
1F
330
1
100
AcDbSymbolTableRecord
100
AcDbBlockTableRecord
  2
*MODEL_SPACE
  0
BLOCK_RECORD
  5
1B
330
1
100
AcDbSymbolTableRecord
100
AcDbBlockTableRecord
  2
*PAPER_SPACE
  0
ENDTAB
  0
ENDSEC
  0
SECTION
  2
BLOCKS
  0
BLOCK
  5
20
330
1F
100
AcDbEntity
  8
0
100
AcDbBlockBegin
  2
*MODEL_SPACE
 70
     0
 10
0.0
 20
0.0
 30
0.0
  3
*MODEL_SPACE
  1

  0
ENDBLK
  5
21
330
1F
100
AcDbEntity
  8
0
100
AcDbBlockEnd
  0
BLOCK
  5
1C
330
1B
100
AcDbEntity
 67
     1
  8
0
100
AcDbBlockBegin
  2
*PAPER_SPACE
  1

  0
ENDBLK
  5
1D
330
1B
100
AcDbEntity
 67
     1
  8
0
100
AcDbBlockEnd
  0
ENDSEC
  0
SECTION
  2
ENTITIES
  0
SPLINE
  5
100
100
AcDbEntity
  8
Ebene_1
 62
7
100
AcDbSpline
 70
8
 71
3
 72
8
 73
4
 74
0
 40
0
 40
0
 40
0
 40
0
 40
1
 40
1
 40
1
 40
1
 10
109.693563
 20
250.472091
 30
0.0
 10
92.470750
 20
250.472113
 30
0.0
 10
75.953332
 20
243.630387
 30
0.0
 10
63.774964
 20
231.452019
 30
0.0
  0
SPLINE
  5
101
100
AcDbEntity
  8
Ebene_1
 62
7
100
AcDbSpline
 70
8
 71
3
 72
8
 73
4
 74
0
 40
0
 40
0
 40
0
 40
0
 40
1
 40
1
 40
1
 40
1
 10
63.774964
 20
231.452019
 30
0.0
 10
51.596596
 20
219.273651
 30
0.0
 10
44.754869
 20
202.756234
 30
0.0
 10
44.754891
 20
185.533420
 30
0.0
  0
SPLINE
  5
102
100
AcDbEntity
  8
Ebene_1
 62
7
100
AcDbSpline
 70
8
 71
3
 72
8
 73
4
 74
0
 40
0
 40
0
 40
0
 40
0
 40
1
 40
1
 40
1
 40
1
 10
44.754891
 20
185.533420
 30
0.0
 10
44.754868
 20
168.310607
 30
0.0
 10
51.596594
 20
151.793188
 30
0.0
 10
63.774962
 20
139.614819
 30
0.0
  0
SPLINE
  5
103
100
AcDbEntity
  8
Ebene_1
 62
7
100
AcDbSpline
 70
8
 71
3
 72
8
 73
4
 74
0
 40
0
 40
0
 40
0
 40
0
 40
1
 40
1
 40
1
 40
1
 10
63.774962
 20
139.614819
 30
0.0
 10
75.953331
 20
127.436451
 30
0.0
 10
92.470749
 20
120.594724
 30
0.0
 10
109.693563
 20
120.594746
 30
0.0
  0
SPLINE
  5
104
100
AcDbEntity
  8
Ebene_1
 62
7
100
AcDbSpline
 70
8
 71
3
 72
8
 73
4
 74
0
 40
0
 40
0
 40
0
 40
0
 40
1
 40
1
 40
1
 40
1
 10
109.693563
 20
120.594746
 30
0.0
 10
126.916377
 20
120.594724
 30
0.0
 10
143.433796
 20
127.436450
 30
0.0
 10
155.612165
 20
139.614819
 30
0.0
  0
SPLINE
  5
105
100
AcDbEntity
  8
Ebene_1
 62
7
100
AcDbSpline
 70
8
 71
3
 72
8
 73
4
 74
0
 40
0
 40
0
 40
0
 40
0
 40
1
 40
1
 40
1
 40
1
 10
155.612165
 20
139.614819
 30
0.0
 10
167.790533
 20
151.793187
 30
0.0
 10
174.632260
 20
168.310606
 30
0.0
 10
174.632237
 20
185.533420
 30
0.0
  0
SPLINE
  5
106
100
AcDbEntity
  8
Ebene_1
 62
7
100
AcDbSpline
 70
8
 71
3
 72
8
 73
4
 74
0
 40
0
 40
0
 40
0
 40
0
 40
1
 40
1
 40
1
 40
1
 10
174.632237
 20
185.533420
 30
0.0
 10
174.632259
 20
202.756234
 30
0.0
 10
167.790532
 20
219.273652
 30
0.0
 10
155.612163
 20
231.452020
 30
0.0
  0
SPLINE
  5
107
100
AcDbEntity
  8
Ebene_1
 62
7
100
AcDbSpline
 70
8
 71
3
 72
8
 73
4
 74
0
 40
0
 40
0
 40
0
 40
0
 40
1
 40
1
 40
1
 40
1
 10
155.612163
 20
231.452020
 30
0.0
 10
143.433795
 20
243.630388
 30
0.0
 10
126.916376
 20
250.472113
 30
0.0
 10
109.693563
 20
250.472091
 30
0.0
  0
LINE
  5
108
100
AcDbEntity
  8
Ebene_1
 62
7
100
AcDbLine
 10
109.693563
 20
250.472091
 30
0.0
 11
109.693563
 21
250.472091
 31
0.0
  0
LINE
  5
109
100
AcDbEntity
  8
Ebene_1
 62
7
100
AcDbLine
 10
109.693563
 20
244.977335
 30
0.0
 11
109.693563
 21
190.528462
 31
0.0
  0
SPLINE
  5
10a
100
AcDbEntity
  8
Ebene_1
 62
7
100
AcDbSpline
 70
8
 71
3
 72
8
 73
4
 74
0
 40
0
 40
0
 40
0
 40
0
 40
1
 40
1
 40
1
 40
1
 10
109.693563
 20
190.528462
 30
0.0
 10
109.676166
 20
190.527792
 30
0.0
 10
109.658773
 20
190.527031
 30
0.0
 10
109.641384
 20
190.526179
 30
0.0
  0
LINE
  5
10b
100
AcDbEntity
  8
Ebene_1
 62
7
100
AcDbLine
 10
109.641384
 20
190.526179
 30
0.0
 11
109.071391
 21
244.952831
 31
0.0
  0
SPLINE
  5
10c
100
AcDbEntity
  8
Ebene_1
 62
7
100
AcDbSpline
 70
8
 71
3
 72
8
 73
4
 74
0
 40
0
 40
0
 40
0
 40
0
 40
1
 40
1
 40
1
 40
1
 10
109.071391
 20
244.952831
 30
0.0
 10
109.278742
 20
244.962012
 30
0.0
 10
109.486139
 20
244.970107
 30
0.0
 10
109.693574
 20
244.977116
 30
0.0
  0
LINE
  5
10d
100
AcDbEntity
  8
Ebene_1
 62
7
100
AcDbLine
 10
109.693574
 20
244.977116
 30
0.0
 11
109.693563
 21
244.977335
 31
0.0
  0
SPLINE
  5
10e
100
AcDbEntity
  8
Ebene_1
 62
7
100
AcDbSpline
 70
8
 71
3
 72
8
 73
4
 74
0
 40
0
 40
0
 40
0
 40
0
 40
1
 40
1
 40
1
 40
1
 10
115.287022
 20
244.708101
 30
0.0
 10
115.493827
 20
244.689892
 30
0.0
 10
115.700535
 20
244.670599
 30
0.0
 10
115.907138
 20
244.650224
 30
0.0
  0
LINE
  5
10f
100
AcDbEntity
  8
Ebene_1
 62
7
100
AcDbLine
 10
115.907138
 20
244.650224
 30
0.0
 11
110.215492
 21
190.501077
 31
0.0
  0
SPLINE
  5
110
100
AcDbEntity
  8
Ebene_1
 62
7
100
AcDbSpline
 70
8
 71
3
 72
8
 73
4
 74
0
 40
0
 40
0
 40
0
 40
0
 40
1
 40
1
 40
1
 40
1
 10
110.215492
 20
190.501077
 30
0.0
 10
110.198279
 20
190.502879
 30
0.0
 10
110.181057
 20
190.504592
 30
0.0
 10
110.163827
 20
190.506215
 30
0.0
  0
LINE
  5
111
100
AcDbEntity
  8
Ebene_1
 62
7
100
AcDbLine
 10
110.163827
 20
190.506215
 30
0.0
 11
115.287022
 21
244.708101
 31
0.0
  0
LINE
  5
112
100
AcDbEntity
  8
Ebene_1
 62
7
100
AcDbLine
 10
103.484122
 20
244.610950
 30
0.0
 11
109.171634
 21
190.497971
 31
0.0
  0
SPLINE
  5
113
100
AcDbEntity
  8
Ebene_1
 62
7
100
AcDbSpline
 70
8
 71
3
 72
8
 73
4
 74
0
 40
0
 40
0
 40
0
 40
0
 40
1
 40
1
 40
1
 40
1
 10
109.171634
 20
190.497971
 30
0.0
 10
109.154402
 20
190.496158
 30
0.0
 10
109.137180
 20
190.494255
 30
0.0
 10
109.119968
 20
190.492262
 30
0.0
  0
LINE
  5
114
100
AcDbEntity
  8
Ebene_1
 62
7
100
AcDbLine
 10
109.119968
 20
190.492262
 30
0.0
 11
102.866073
 21
244.538086
 31
0.0
  0
SPLINE
  5
115
100
AcDbEntity
  8
Ebene_1
 62
7
100
AcDbSpline
 70
8
 71
3
 72
8
 73
4
 74
0
 40
0
 40
0
 40
0
 40
0
 40
1
 40
1
 40
1
 40
1
 10
102.866073
 20
244.538086
 30
0.0
 10
103.071961
 20
244.563452
 30
0.0
 10
103.277980
 20
244.587740
 30
0.0
 10
103.484122
 20
244.610950
 30
0.0
  0
LINE
  5
116
100
AcDbEntity
  8
Ebene_1
 62
7
100
AcDbLine
 10
103.484122
 20
244.610950
 30
0.0
 11
103.484122
 21
244.610950
 31
0.0
  0
SPLINE
  5
117
100
AcDbEntity
  8
Ebene_1
 62
7
100
AcDbSpline
 70
8
 71
3
 72
8
 73
4
 74
0
 40
0
 40
0
 40
0
 40
0
 40
1
 40
1
 40
1
 40
1
 10
121.442201
 20
243.799630
 30
0.0
 10
121.645676
 20
243.759525
 30
0.0
 10
121.848940
 20
243.718355
 30
0.0
 10
122.051984
 20
243.676123
 30
0.0
  0
LINE
  5
118
100
AcDbEntity
  8
Ebene_1
 62
7
100
AcDbLine
 10
122.051984
 20
243.676123
 30
0.0
 11
110.732261
 21
190.419423
 31
0.0
  0
SPLINE
  5
119
100
AcDbEntity
  8
Ebene_1
 62
7
100
AcDbSpline
 70
8
 71
3
 72
8
 73
4
 74
0
 40
0
 40
0
 40
0
 40
0
 40
1
 40
1
 40
1
 40
1
 10
110.732261
 20
190.419423
 30
0.0
 10
110.715228
 20
190.422956
 30
0.0
 10
110.698177
 20
190.426400
 30
0.0
 10
110.681109
 20
190.429756
 30
0.0
  0
LINE
  5
11a
100
AcDbEntity
  8
Ebene_1
 62
7
100
AcDbLine
 10
110.681109
 20
190.429756
 30
0.0
 11
121.442201
 21
243.799630
 31
0.0
  0
LINE
  5
11b
100
AcDbEntity
  8
Ebene_1
 62
7
100
AcDbLine
 10
97.342895
 20
243.638399
 30
0.0
 11
108.655385
 21
190.417356
 31
0.0
  0
SPLINE
  5
11c
100
AcDbEntity
  8
Ebene_1
 62
7
100
AcDbSpline
 70
8
 71
3
 72
8
 73
4
 74
0
 40
0
 40
0
 40
0
 40
0
 40
1
 40
1
 40
1
 40
1
 10
108.655385
 20
190.417356
 30
0.0
 10
108.638317
 20
190.414172
 30
0.0
 10
108.621266
 20
190.410899
 30
0.0
 10
108.604233
 20
190.407537
 30
0.0
  0
LINE
  5
11d
100
AcDbEntity
  8
Ebene_1
 62
7
100
AcDbLine
 10
108.604233
 20
190.407537
 30
0.0
 11
96.732597
 21
243.517477
 31
0.0
  0
SPLINE
  5
11e
100
AcDbEntity
  8
Ebene_1
 62
7
100
AcDbSpline
 70
8
 71
3
 72
8
 73
4
 74
0
 40
0
 40
0
 40
0
 40
0
 40
1
 40
1
 40
1
 40
1
 10
96.732597
 20
243.517477
 30
0.0
 10
96.935817
 20
243.558849
 30
0.0
 10
97.139253
 20
243.599157
 30
0.0
 10
97.342895
 20
243.638399
 30
0.0
  0
LINE
  5
11f
100
AcDbEntity
  8
Ebene_1
 62
7
100
AcDbLine
 10
97.342895
 20
243.638399
 30
0.0
 11
97.342895
 21
243.638399
 31
0.0
  0
SPLINE
  5
120
100
AcDbEntity
  8
Ebene_1
 62
7
100
AcDbSpline
 70
8
 71
3
 72
8
 73
4
 74
0
 40
0
 40
0
 40
0
 40
0
 40
1
 40
1
 40
1
 40
1
 10
127.468188
 20
242.252438
 30
0.0
 10
127.666262
 20
242.190944
 30
0.0
 10
127.864013
 20
242.128415
 30
0.0
 10
128.061433
 20
242.064852
 30
0.0
  0
LINE
  5
121
100
AcDbEntity
  8
Ebene_1
 62
7
100
AcDbLine
 10
128.061433
 20
242.064852
 30
0.0
 11
111.237137
 21
190.284031
 31
0.0
  0
SPLINE
  5
122
100
AcDbEntity
  8
Ebene_1
 62
7
100
AcDbSpline
 70
8
 71
3
 72
8
 73
4
 74
0
 40
0
 40
0
 40
0
 40
0
 40
1
 40
1
 40
1
 40
1
 10
111.237137
 20
190.284031
 30
0.0
 10
111.220629
 20
190.289464
 30
0.0
 10
111.204092
 20
190.294812
 30
0.0
 10
111.187527
 20
190.300073
 30
0.0
  0
LINE
  5
123
100
AcDbEntity
  8
Ebene_1
 62
7
100
AcDbLine
 10
111.187527
 20
190.300073
 30
0.0
 11
127.468188
 21
242.252438
 31
0.0
  0
LINE
  5
124
100
AcDbEntity
  8
Ebene_1
 62
7
100
AcDbLine
 10
91.324141
 20
242.067953
 30
0.0
 11
91.324658
 21
242.067953
 31
0.0
  0
LINE
  5
125
100
AcDbEntity
  8
Ebene_1
 62
7
100
AcDbLine
 10
91.324658
 20
242.067953
 30
0.0
 11
108.150502
 21
190.281964
 31
0.0
  0
SPLINE
  5
126
100
AcDbEntity
  8
Ebene_1
 62
7
100
AcDbSpline
 70
8
 71
3
 72
8
 73
4
 74
0
 40
0
 40
0
 40
0
 40
0
 40
1
 40
1
 40
1
 40
1
 10
108.150502
 20
190.281964
 30
0.0
 10
108.134107
 20
190.276359
 30
0.0
 10
108.117741
 20
190.270670
 30
0.0
 10
108.101406
 20
190.264895
 30
0.0
  0
LINE
  5
127
100
AcDbEntity
  8
Ebene_1
 62
7
100
AcDbLine
 10
108.101406
 20
190.264895
 30
0.0
 11
90.739681
 21
241.852461
 31
0.0
  0
SPLINE
  5
128
100
AcDbEntity
  8
Ebene_1
 62
7
100
AcDbSpline
 70
8
 71
3
 72
8
 73
4
 74
0
 40
0
 40
0
 40
0
 40
0
 40
1
 40
1
 40
1
 40
1
 10
90.739681
 20
241.852461
 30
0.0
 10
90.934123
 20
241.925312
 30
0.0
 10
91.128946
 20
241.997143
 30
0.0
 10
91.324141
 20
242.067953
 30
0.0
  0
LINE
  5
129
100
AcDbEntity
  8
Ebene_1
 62
7
100
AcDbLine
 10
91.324141
 20
242.067953
 30
0.0
 11
91.324141
 21
242.067953
 31
0.0
  0
SPLINE
  5
12a
100
AcDbEntity
  8
Ebene_1
 62
7
100
AcDbSpline
 70
8
 71
3
 72
8
 73
4
 74
0
 40
0
 40
0
 40
0
 40
0
 40
1
 40
1
 40
1
 40
1
 10
133.299873
 20
240.084094
 30
0.0
 10
133.490305
 20
240.001890
 30
0.0
 10
133.680305
 20
239.918690
 30
0.0
 10
133.869865
 20
239.834497
 30
0.0
  0
LINE
  5
12b
100
AcDbEntity
  8
Ebene_1
 62
7
100
AcDbLine
 10
133.869865
 20
239.834497
 30
0.0
 11
111.725481
 21
190.096962
 31
0.0
  0
SPLINE
  5
12c
100
AcDbEntity
  8
Ebene_1
 62
7
100
AcDbSpline
 70
8
 71
3
 72
8
 73
4
 74
0
 40
0
 40
0
 40
0
 40
0
 40
1
 40
1
 40
1
 40
1
 10
111.725481
 20
190.096962
 30
0.0
 10
111.709495
 20
190.103935
 30
0.0
 10
111.693471
 20
190.110823
 30
0.0
 10
111.677412
 20
190.117628
 30
0.0
  0
LINE
  5
12d
100
AcDbEntity
  8
Ebene_1
 62
7
100
AcDbLine
 10
111.677412
 20
190.117628
 30
0.0
 11
133.299873
 21
240.084094
 31
0.0
  0
LINE
  5
12e
100
AcDbEntity
  8
Ebene_1
 62
7
100
AcDbLine
 10
85.532247
 20
239.800907
 30
0.0
 11
107.663197
 21
190.093862
 31
0.0
  0
SPLINE
  5
12f
100
AcDbEntity
  8
Ebene_1
 62
7
100
AcDbSpline
 70
8
 71
3
 72
8
 73
4
 74
0
 40
0
 40
0
 40
0
 40
0
 40
1
 40
1
 40
1
 40
1
 10
107.663197
 20
190.093862
 30
0.0
 10
107.647137
 20
190.086886
 30
0.0
 10
107.631114
 20
190.079826
 30
0.0
 10
107.615128
 20
190.072682
 30
0.0
  0
LINE
  5
130
100
AcDbEntity
  8
Ebene_1
 62
7
100
AcDbLine
 10
107.615128
 20
190.072682
 30
0.0
 11
84.966906
 21
239.540458
 31
0.0
  0
SPLINE
  5
131
100
AcDbEntity
  8
Ebene_1
 62
7
100
AcDbSpline
 70
8
 71
3
 72
8
 73
4
 74
0
 40
0
 40
0
 40
0
 40
0
 40
1
 40
1
 40
1
 40
1
 10
84.966906
 20
239.540458
 30
0.0
 10
85.154897
 20
239.628261
 30
0.0
 10
85.343347
 20
239.715078
 30
0.0
 10
85.532247
 20
239.800907
 30
0.0
  0
LINE
  5
132
100
AcDbEntity
  8
Ebene_1
 62
7
100
AcDbLine
 10
85.532247
 20
239.800907
 30
0.0
 11
85.532247
 21
239.800907
 31
0.0
  0
SPLINE
  5
133
100
AcDbEntity
  8
Ebene_1
 62
7
100
AcDbSpline
 70
8
 71
3
 72
8
 73
4
 74
0
 40
0
 40
0
 40
0
 40
0
 40
1
 40
1
 40
1
 40
1
 10
138.872660
 20
237.318372
 30
0.0
 10
139.053376
 20
237.216308
 30
0.0
 10
139.233557
 20
237.113298
 30
0.0
 10
139.413195
 20
237.009347
 30
0.0
  0
LINE
  5
134
100
AcDbEntity
  8
Ebene_1
 62
7
100
AcDbLine
 10
139.413195
 20
237.009347
 30
0.0
 11
112.191087
 21
189.859255
 31
0.0
  0
SPLINE
  5
135
100
AcDbEntity
  8
Ebene_1
 62
7
100
AcDbSpline
 70
8
 71
3
 72
8
 73
4
 74
0
 40
0
 40
0
 40
0
 40
0
 40
1
 40
1
 40
1
 40
1
 10
112.191087
 20
189.859255
 30
0.0
 10
112.175966
 20
189.868127
 30
0.0
 10
112.160800
 20
189.876919
 30
0.0
 10
112.145587
 20
189.885630
 30
0.0
  0
LINE
  5
136
100
AcDbEntity
  8
Ebene_1
 62
7
100
AcDbLine
 10
112.145587
 20
189.885630
 30
0.0
 11
138.872660
 21
237.318372
 31
0.0
  0
LINE
  5
137
100
AcDbEntity
  8
Ebene_1
 62
7
100
AcDbLine
 10
79.992017
 20
236.977824
 30
0.0
 11
107.196039
 21
189.859255
 31
0.0
  0
SPLINE
  5
138
100
AcDbEntity
  8
Ebene_1
 62
7
100
AcDbSpline
 70
8
 71
3
 72
8
 73
4
 74
0
 40
0
 40
0
 40
0
 40
0
 40
1
 40
1
 40
1
 40
1
 10
107.196039
 20
189.859255
 30
0.0
 10
107.181185
 20
189.850028
 30
0.0
 10
107.166380
 20
189.840722
 30
0.0
 10
107.151624
 20
189.831339
 30
0.0
  0
LINE
  5
139
100
AcDbEntity
  8
Ebene_1
 62
7
100
AcDbLine
 10
107.151624
 20
189.831339
 30
0.0
 11
79.448897
 21
236.673967
 31
0.0
  0
SPLINE
  5
13a
100
AcDbEntity
  8
Ebene_1
 62
7
100
AcDbSpline
 70
8
 71
3
 72
8
 73
4
 74
0
 40
0
 40
0
 40
0
 40
0
 40
1
 40
1
 40
1
 40
1
 10
79.448897
 20
236.673967
 30
0.0
 10
79.629406
 20
236.776199
 30
0.0
 10
79.810448
 20
236.877487
 30
0.0
 10
79.992017
 20
236.977824
 30
0.0
  0
LINE
  5
13b
100
AcDbEntity
  8
Ebene_1
 62
7
100
AcDbLine
 10
79.992017
 20
236.977824
 30
0.0
 11
79.992017
 21
236.977824
 31
0.0
  0
SPLINE
  5
13c
100
AcDbEntity
  8
Ebene_1
 62
7
100
AcDbSpline
 70
8
 71
3
 72
8
 73
4
 74
0
 40
0
 40
0
 40
0
 40
0
 40
1
 40
1
 40
1
 40
1
 10
144.126086
 20
233.984725
 30
0.0
 10
144.294842
 20
233.864166
 30
0.0
 10
144.462965
 20
233.742724
 30
0.0
 10
144.630449
 20
233.620406
 30
0.0
  0
LINE
  5
13d
100
AcDbEntity
  8
Ebene_1
 62
7
100
AcDbLine
 10
144.630449
 20
233.620406
 30
0.0
 11
112.629301
 21
189.574513
 31
0.0
  0
SPLINE
  5
13e
100
AcDbEntity
  8
Ebene_1
 62
7
100
AcDbSpline
 70
8
 71
3
 72
8
 73
4
 74
0
 40
0
 40
0
 40
0
 40
0
 40
1
 40
1
 40
1
 40
1
 10
112.629301
 20
189.574513
 30
0.0
 10
112.615234
 20
189.584749
 30
0.0
 10
112.601114
 20
189.594911
 30
0.0
 10
112.586941
 20
189.604999
 30
0.0
  0
LINE
  5
13f
100
AcDbEntity
  8
Ebene_1
 62
7
100
AcDbLine
 10
112.586941
 20
189.604999
 30
0.0
 11
144.126086
 21
233.984725
 31
0.0
  0
LINE
  5
140
100
AcDbEntity
  8
Ebene_1
 62
7
100
AcDbLine
 10
74.753060
 20
233.624540
 30
0.0
 11
106.759375
 21
189.571933
 31
0.0
  0
SPLINE
  5
141
100
AcDbEntity
  8
Ebene_1
 62
7
100
AcDbSpline
 70
8
 71
3
 72
8
 73
4
 74
0
 40
0
 40
0
 40
0
 40
0
 40
1
 40
1
 40
1
 40
1
 10
106.759375
 20
189.571933
 30
0.0
 10
106.745197
 20
189.561674
 30
0.0
 10
106.731073
 20
189.551341
 30
0.0
 10
106.717003
 20
189.540933
 30
0.0
  0
LINE
  5
142
100
AcDbEntity
  8
Ebene_1
 62
7
100
AcDbLine
 10
106.717003
 20
189.540933
 30
0.0
 11
74.264201
 21
233.239034
 31
0.0
  0
SPLINE
  5
143
100
AcDbEntity
  8
Ebene_1
 62
7
100
AcDbSpline
 70
8
 71
3
 72
8
 73
4
 74
0
 40
0
 40
0
 40
0
 40
0
 40
1
 40
1
 40
1
 40
1
 10
74.264201
 20
233.239034
 30
0.0
 10
74.426480
 20
233.368388
 30
0.0
 10
74.589435
 20
233.496892
 30
0.0
 10
74.753060
 20
233.624540
 30
0.0
  0
LINE
  5
144
100
AcDbEntity
  8
Ebene_1
 62
7
100
AcDbLine
 10
74.753060
 20
233.624540
 30
0.0
 11
74.753060
 21
233.624540
 31
0.0
  0
SPLINE
  5
145
100
AcDbEntity
  8
Ebene_1
 62
7
100
AcDbSpline
 70
8
 71
3
 72
8
 73
4
 74
0
 40
0
 40
0
 40
0
 40
0
 40
1
 40
1
 40
1
 40
1
 10
149.002789
 20
230.121395
 30
0.0
 10
149.157857
 20
229.983367
 30
0.0
 10
149.312200
 20
229.844528
 30
0.0
 10
149.465814
 20
229.704883
 30
0.0
  0
LINE
  5
146
100
AcDbEntity
  8
Ebene_1
 62
7
100
AcDbLine
 10
149.465814
 20
229.704883
 30
0.0
 11
113.035996
 21
189.245339
 31
0.0
  0
SPLINE
  5
147
100
AcDbEntity
  8
Ebene_1
 62
7
100
AcDbSpline
 70
8
 71
3
 72
8
 73
4
 74
0
 40
0
 40
0
 40
0
 40
0
 40
1
 40
1
 40
1
 40
1
 10
113.035996
 20
189.245339
 30
0.0
 10
113.022966
 20
189.257130
 30
0.0
 10
113.009873
 20
189.268852
 30
0.0
 10
112.996719
 20
189.280505
 30
0.0
  0
LINE
  5
148
100
AcDbEntity
  8
Ebene_1
 62
7
100
AcDbLine
 10
112.996719
 20
189.280505
 30
0.0
 11
149.002789
 21
230.121395
 31
0.0
  0
LINE
  5
149
100
AcDbEntity
  8
Ebene_1
 62
7
100
AcDbLine
 10
69.945084
 20
229.678528
 30
0.0
 11
106.352682
 21
189.243786
 31
0.0
  0
SPLINE
  5
14a
100
AcDbEntity
  8
Ebene_1
 62
7
100
AcDbSpline
 70
8
 71
3
 72
8
 73
4
 74
0
 40
0
 40
0
 40
0
 40
0
 40
1
 40
1
 40
1
 40
1
 10
106.352682
 20
189.243786
 30
0.0
 10
106.339359
 20
189.232495
 30
0.0
 10
106.326095
 20
189.221134
 30
0.0
 10
106.312891
 20
189.209704
 30
0.0
  0
LINE
  5
14b
100
AcDbEntity
  8
Ebene_1
 62
7
100
AcDbLine
 10
106.312891
 20
189.209704
 30
0.0
 11
69.488265
 21
229.256331
 31
0.0
  0
SPLINE
  5
14c
100
AcDbEntity
  8
Ebene_1
 62
7
100
AcDbSpline
 70
8
 71
3
 72
8
 73
4
 74
0
 40
0
 40
0
 40
0
 40
0
 40
1
 40
1
 40
1
 40
1
 10
69.488265
 20
229.256331
 30
0.0
 10
69.639801
 20
229.397859
 30
0.0
 10
69.792076
 20
229.538593
 30
0.0
 10
69.945084
 20
229.678528
 30
0.0
  0
LINE
  5
14d
100
AcDbEntity
  8
Ebene_1
 62
7
100
AcDbLine
 10
69.945084
 20
229.678528
 30
0.0
 11
69.945084
 21
229.678528
 31
0.0
  0
SPLINE
  5
14e
100
AcDbEntity
  8
Ebene_1
 62
7
100
AcDbSpline
 70
8
 71
3
 72
8
 73
4
 74
0
 40
0
 40
0
 40
0
 40
0
 40
1
 40
1
 40
1
 40
1
 10
153.449030
 20
225.768689
 30
0.0
 10
153.588502
 20
225.615076
 30
0.0
 10
153.727169
 20
225.460733
 30
0.0
 10
153.865025
 20
225.305668
 30
0.0
  0
LINE
  5
14f
100
AcDbEntity
  8
Ebene_1
 62
7
100
AcDbLine
 10
153.865025
 20
225.305668
 30
0.0
 11
113.405481
 21
188.875848
 31
0.0
  0
SPLINE
  5
150
100
AcDbEntity
  8
Ebene_1
 62
7
100
AcDbSpline
 70
8
 71
3
 72
8
 73
4
 74
0
 40
0
 40
0
 40
0
 40
0
 40
1
 40
1
 40
1
 40
1
 10
113.405481
 20
188.875848
 30
0.0
 10
113.393846
 20
188.888830
 30
0.0
 10
113.382142
 20
188.901752
 30
0.0
 10
113.370371
 20
188.914611
 30
0.0
  0
LINE
  5
151
100
AcDbEntity
  8
Ebene_1
 62
7
100
AcDbLine
 10
113.370371
 20
188.914611
 30
0.0
 11
153.449030
 21
225.768689
 31
0.0
  0
LINE
  5
152
100
AcDbEntity
  8
Ebene_1
 62
7
100
AcDbLine
 10
65.548454
 20
225.281897
 30
0.0
 11
105.983195
 21
188.874301
 31
0.0
  0
SPLINE
  5
153
100
AcDbEntity
  8
Ebene_1
 62
7
100
AcDbSpline
 70
8
 71
3
 72
8
 73
4
 74
0
 40
0
 40
0
 40
0
 40
0
 40
1
 40
1
 40
1
 40
1
 10
105.983195
 20
188.874301
 30
0.0
 10
105.971585
 20
188.861269
 30
0.0
 10
105.960043
 20
188.848177
 30
0.0
 10
105.948571
 20
188.835024
 30
0.0
  0
LINE
  5
154
100
AcDbEntity
  8
Ebene_1
 62
7
100
AcDbLine
 10
105.948571
 20
188.835024
 30
0.0
 11
65.125740
 21
224.825077
 31
0.0
  0
SPLINE
  5
155
100
AcDbEntity
  8
Ebene_1
 62
7
100
AcDbSpline
 70
8
 71
3
 72
8
 73
4
 74
0
 40
0
 40
0
 40
0
 40
0
 40
1
 40
1
 40
1
 40
1
 10
65.125740
 20
224.825077
 30
0.0
 10
65.265847
 20
224.978087
 30
0.0
 10
65.406753
 20
225.130363
 30
0.0
 10
65.548454
 20
225.281897
 30
0.0
  0
LINE
  5
156
100
AcDbEntity
  8
Ebene_1
 62
7
100
AcDbLine
 10
65.548454
 20
225.281897
 30
0.0
 11
65.548454
 21
225.281897
 31
0.0
  0
SPLINE
  5
157
100
AcDbEntity
  8
Ebene_1
 62
7
100
AcDbSpline
 70
8
 71
3
 72
8
 73
4
 74
0
 40
0
 40
0
 40
0
 40
0
 40
1
 40
1
 40
1
 40
1
 10
157.416232
 20
220.975700
 30
0.0
 10
157.538552
 20
220.808044
 30
0.0
 10
157.659993
 20
220.639749
 30
0.0
 10
157.780550
 20
220.470821
 30
0.0
  0
LINE
  5
158
100
AcDbEntity
  8
Ebene_1
 62
7
100
AcDbLine
 10
157.780550
 20
220.470821
 30
0.0
 11
113.734661
 21
188.469158
 31
0.0
  0
SPLINE
  5
159
100
AcDbEntity
  8
Ebene_1
 62
7
100
AcDbSpline
 70
8
 71
3
 72
8
 73
4
 74
0
 40
0
 40
0
 40
0
 40
0
 40
1
 40
1
 40
1
 40
1
 10
113.734661
 20
188.469158
 30
0.0
 10
113.724402
 20
188.483333
 30
0.0
 10
113.714069
 20
188.497453
 30
0.0
 10
113.703662
 20
188.511518
 30
0.0
  0
LINE
  5
15a
100
AcDbEntity
  8
Ebene_1
 62
7
100
AcDbLine
 10
113.703662
 20
188.511518
 30
0.0
 11
157.416232
 21
220.975700
 31
0.0
  0
LINE
  5
15b
100
AcDbEntity
  8
Ebene_1
 62
7
100
AcDbLine
 10
61.602441
 20
220.473922
 30
0.0
 11
105.655049
 21
188.467606
 31
0.0
  0
SPLINE
  5
15c
100
AcDbEntity
  8
Ebene_1
 62
7
100
AcDbSpline
 70
8
 71
3
 72
8
 73
4
 74
0
 40
0
 40
0
 40
0
 40
0
 40
1
 40
1
 40
1
 40
1
 10
105.655049
 20
188.467606
 30
0.0
 10
105.644642
 20
188.453711
 30
0.0
 10
105.634307
 20
188.439762
 30
0.0
 10
105.624044
 20
188.425759
 30
0.0
  0
LINE
  5
15d
100
AcDbEntity
  8
Ebene_1
 62
7
100
AcDbLine
 10
105.624044
 20
188.425759
 30
0.0
 11
61.256209
 21
219.955607
 31
0.0
  0
SPLINE
  5
15e
100
AcDbEntity
  8
Ebene_1
 62
7
100
AcDbSpline
 70
8
 71
3
 72
8
 73
4
 74
0
 40
0
 40
0
 40
0
 40
0
 40
1
 40
1
 40
1
 40
1
 10
61.256209
 20
219.955607
 30
0.0
 10
61.370713
 20
220.128983
 30
0.0
 10
61.486126
 20
220.301757
 30
0.0
 10
61.602441
 20
220.473922
 30
0.0
  0
LINE
  5
15f
100
AcDbEntity
  8
Ebene_1
 62
7
100
AcDbLine
 10
61.602441
 20
220.473922
 30
0.0
 11
61.602441
 21
220.473922
 31
0.0
  0
SPLINE
  5
160
100
AcDbEntity
  8
Ebene_1
 62
7
100
AcDbSpline
 70
8
 71
3
 72
8
 73
4
 74
0
 40
0
 40
0
 40
0
 40
0
 40
1
 40
1
 40
1
 40
1
 10
160.858914
 20
215.792037
 30
0.0
 10
160.963378
 20
215.612918
 30
0.0
 10
161.066904
 20
215.433254
 30
0.0
 10
161.169488
 20
215.253052
 30
0.0
  0
LINE
  5
161
100
AcDbEntity
  8
Ebene_1
 62
7
100
AcDbLine
 10
161.169488
 20
215.253052
 30
0.0
 11
114.018878
 21
188.030939
 31
0.0
  0
SPLINE
  5
162
100
AcDbEntity
  8
Ebene_1
 62
7
100
AcDbSpline
 70
8
 71
3
 72
8
 73
4
 74
0
 40
0
 40
0
 40
0
 40
0
 40
1
 40
1
 40
1
 40
1
 10
114.018878
 20
188.030939
 30
0.0
 10
114.010336
 20
188.045979
 30
0.0
 10
114.001715
 20
188.060974
 30
0.0
 10
113.993017
 20
188.075925
 30
0.0
  0
LINE
  5
163
100
AcDbEntity
  8
Ebene_1
 62
7
100
AcDbLine
 10
113.993017
 20
188.075925
 30
0.0
 11
160.858914
 21
215.792037
 31
0.0
  0
LINE
  5
164
100
AcDbEntity
  8
Ebene_1
 62
7
100
AcDbLine
 10
58.249158
 20
215.234965
 30
0.0
 11
105.367729
 21
188.030939
 31
0.0
  0
SPLINE
  5
165
100
AcDbEntity
  8
Ebene_1
 62
7
100
AcDbSpline
 70
8
 71
3
 72
8
 73
4
 74
0
 40
0
 40
0
 40
0
 40
0
 40
1
 40
1
 40
1
 40
1
 10
105.367729
 20
188.030939
 30
0.0
 10
105.359552
 20
188.015472
 30
0.0
 10
105.351457
 20
187.999963
 30
0.0
 10
105.343443
 20
187.984411
 30
0.0
  0
LINE
  5
166
100
AcDbEntity
  8
Ebene_1
 62
7
100
AcDbLine
 10
105.343443
 20
187.984411
 30
0.0
 11
57.944784
 21
214.692362
 31
0.0
  0
SPLINE
  5
167
100
AcDbEntity
  8
Ebene_1
 62
7
100
AcDbSpline
 70
8
 71
3
 72
8
 73
4
 74
0
 40
0
 40
0
 40
0
 40
0
 40
1
 40
1
 40
1
 40
1
 10
57.944784
 20
214.692362
 30
0.0
 10
58.045295
 20
214.873760
 30
0.0
 10
58.146754
 20
215.054630
 30
0.0
 10
58.249158
 20
215.234965
 30
0.0
  0
LINE
  5
168
100
AcDbEntity
  8
Ebene_1
 62
7
100
AcDbLine
 10
58.249158
 20
215.234965
 30
0.0
 11
58.249158
 21
215.234965
 31
0.0
  0
SPLINE
  5
169
100
AcDbEntity
  8
Ebene_1
 62
7
100
AcDbSpline
 70
8
 71
3
 72
8
 73
4
 74
0
 40
0
 40
0
 40
0
 40
0
 40
1
 40
1
 40
1
 40
1
 10
163.739875
 20
210.278163
 30
0.0
 10
163.825789
 20
210.089129
 30
0.0
 10
163.910711
 20
209.899646
 30
0.0
 10
163.994640
 20
209.709723
 30
0.0
  0
LINE
  5
16a
100
AcDbEntity
  8
Ebene_1
 62
7
100
AcDbLine
 10
163.994640
 20
209.709723
 30
0.0
 11
114.256590
 21
187.564819
 31
0.0
  0
SPLINE
  5
16b
100
AcDbEntity
  8
Ebene_1
 62
7
100
AcDbSpline
 70
8
 71
3
 72
8
 73
4
 74
0
 40
0
 40
0
 40
0
 40
0
 40
1
 40
1
 40
1
 40
1
 10
114.256590
 20
187.564819
 30
0.0
 10
114.249444
 20
187.580880
 30
0.0
 10
114.242213
 20
187.596904
 30
0.0
 10
114.234897
 20
187.612888
 30
0.0
  0
LINE
  5
16c
100
AcDbEntity
  8
Ebene_1
 62
7
100
AcDbLine
 10
114.234897
 20
187.612888
 30
0.0
 11
163.739875
 21
210.278163
 31
0.0
  0
LINE
  5
16d
100
AcDbEntity
  8
Ebene_1
 62
7
100
AcDbLine
 10
55.426074
 20
209.694737
 30
0.0
 11
105.133118
 21
187.563786
 31
0.0
  0
SPLINE
  5
16e
100
AcDbEntity
  8
Ebene_1
 62
7
100
AcDbSpline
 70
8
 71
3
 72
8
 73
4
 74
0
 40
0
 40
0
 40
0
 40
0
 40
1
 40
1
 40
1
 40
1
 10
105.133118
 20
187.563786
 30
0.0
 10
105.126143
 20
187.547799
 30
0.0
 10
105.119253
 20
187.531776
 30
0.0
 10
105.112446
 20
187.515717
 30
0.0
  0
LINE
  5
16f
100
AcDbEntity
  8
Ebene_1
 62
7
100
AcDbLine
 10
105.112446
 20
187.515717
 30
0.0
 11
55.165625
 21
209.129911
 31
0.0
  0
SPLINE
  5
170
100
AcDbEntity
  8
Ebene_1
 62
7
100
AcDbSpline
 70
8
 71
3
 72
8
 73
4
 74
0
 40
0
 40
0
 40
0
 40
0
 40
1
 40
1
 40
1
 40
1
 10
55.165625
 20
209.129911
 30
0.0
 10
55.251456
 20
209.318639
 30
0.0
 10
55.338273
 20
209.506917
 30
0.0
 10
55.426074
 20
209.694737
 30
0.0
  0
LINE
  5
171
100
AcDbEntity
  8
Ebene_1
 62
7
100
AcDbLine
 10
55.426074
 20
209.694737
 30
0.0
 11
55.426074
 21
209.694737
 31
0.0
  0
SPLINE
  5
172
100
AcDbEntity
  8
Ebene_1
 62
7
100
AcDbSpline
 70
8
 71
3
 72
8
 73
4
 74
0
 40
0
 40
0
 40
0
 40
0
 40
1
 40
1
 40
1
 40
1
 10
166.029658
 20
204.492468
 30
0.0
 10
166.095801
 20
204.295751
 30
0.0
 10
166.160914
 20
204.098689
 30
0.0
 10
166.224993
 20
203.901290
 30
0.0
  0
LINE
  5
173
100
AcDbEntity
  8
Ebene_1
 62
7
100
AcDbLine
 10
166.224993
 20
203.901290
 30
0.0
 11
114.444179
 21
187.076995
 31
0.0
  0
SPLINE
  5
174
100
AcDbEntity
  8
Ebene_1
 62
7
100
AcDbSpline
 70
8
 71
3
 72
8
 73
4
 74
0
 40
0
 40
0
 40
0
 40
0
 40
1
 40
1
 40
1
 40
1
 10
114.444179
 20
187.076995
 30
0.0
 10
114.438747
 20
187.093561
 30
0.0
 10
114.433228
 20
187.110097
 30
0.0
 10
114.427623
 20
187.126605
 30
0.0
  0
LINE
  5
175
100
AcDbEntity
  8
Ebene_1
 62
7
100
AcDbLine
 10
114.427623
 20
187.126605
 30
0.0
 11
166.029658
 21
204.492468
 31
0.0
  0
LINE
  5
176
100
AcDbEntity
  8
Ebene_1
 62
7
100
AcDbLine
 10
53.159029
 20
203.902324
 30
0.0
 11
104.945015
 21
187.076475
 31
0.0
  0
SPLINE
  5
177
100
AcDbEntity
  8
Ebene_1
 62
7
100
AcDbSpline
 70
8
 71
3
 72
8
 73
4
 74
0
 40
0
 40
0
 40
0
 40
0
 40
1
 40
1
 40
1
 40
1
 10
104.945015
 20
187.076475
 30
0.0
 10
104.939071
 20
187.059970
 30
0.0
 10
104.933213
 20
187.043433
 30
0.0
 10
104.927443
 20
187.026865
 30
0.0
  0
LINE
  5
178
100
AcDbEntity
  8
Ebene_1
 62
7
100
AcDbLine
 10
104.927443
 20
187.026865
 30
0.0
 11
52.990047
 21
203.303393
 31
0.0
  0
SPLINE
  5
179
100
AcDbEntity
  8
Ebene_1
 62
7
100
AcDbSpline
 70
8
 71
3
 72
8
 73
4
 74
0
 40
0
 40
0
 40
0
 40
0
 40
1
 40
1
 40
1
 40
1
 10
52.990047
 20
203.303393
 30
0.0
 10
53.045329
 20
203.503330
 30
0.0
 10
53.101657
 20
203.702976
 30
0.0
 10
53.159029
 20
203.902324
 30
0.0
  0
LINE
  5
17a
100
AcDbEntity
  8
Ebene_1
 62
7
100
AcDbLine
 10
53.159029
 20
203.902324
 30
0.0
 11
53.159029
 21
203.902324
 31
0.0
  0
SPLINE
  5
17b
100
AcDbEntity
  8
Ebene_1
 62
7
100
AcDbSpline
 70
8
 71
3
 72
8
 73
4
 74
0
 40
0
 40
0
 40
0
 40
0
 40
1
 40
1
 40
1
 40
1
 10
167.701911
 20
198.500067
 30
0.0
 10
167.747759
 20
198.297559
 30
0.0
 10
167.792546
 20
198.094813
 30
0.0
 10
167.836270
 20
197.891836
 30
0.0
  0
LINE
  5
17c
100
AcDbEntity
  8
Ebene_1
 62
7
100
AcDbLine
 10
167.836270
 20
197.891836
 30
0.0
 11
114.579571
 21
186.572112
 31
0.0
  0
SPLINE
  5
17d
100
AcDbEntity
  8
Ebene_1
 62
7
100
AcDbSpline
 70
8
 71
3
 72
8
 73
4
 74
0
 40
0
 40
0
 40
0
 40
0
 40
1
 40
1
 40
1
 40
1
 10
114.579571
 20
186.572112
 30
0.0
 10
114.575873
 20
186.589183
 30
0.0
 10
114.572086
 20
186.606234
 30
0.0
 10
114.568210
 20
186.623264
 30
0.0
  0
LINE
  5
17e
100
AcDbEntity
  8
Ebene_1
 62
7
100
AcDbLine
 10
114.568210
 20
186.623264
 30
0.0
 11
167.701911
 21
198.500067
 31
0.0
  0
LINE
  5
17f
100
AcDbEntity
  8
Ebene_1
 62
7
100
AcDbLine
 10
51.588582
 20
197.884083
 30
0.0
 11
104.809623
 21
186.571599
 31
0.0
  0
SPLINE
  5
180
100
AcDbEntity
  8
Ebene_1
 62
7
100
AcDbSpline
 70
8
 71
3
 72
8
 73
4
 74
0
 40
0
 40
0
 40
0
 40
0
 40
1
 40
1
 40
1
 40
1
 10
104.809623
 20
186.571599
 30
0.0
 10
104.806261
 20
186.554565
 30
0.0
 10
104.802988
 20
186.537515
 30
0.0
 10
104.799804
 20
186.520447
 30
0.0
  0
LINE
  5
181
100
AcDbEntity
  8
Ebene_1
 62
7
100
AcDbLine
 10
104.799804
 20
186.520447
 30
0.0
 11
51.467143
 21
197.274306
 31
0.0
  0
SPLINE
  5
182
100
AcDbEntity
  8
Ebene_1
 62
7
100
AcDbSpline
 70
8
 71
3
 72
8
 73
4
 74
0
 40
0
 40
0
 40
0
 40
0
 40
1
 40
1
 40
1
 40
1
 10
51.467143
 20
197.274306
 30
0.0
 10
51.506559
 20
197.477775
 30
0.0
 10
51.547040
 20
197.681037
 30
0.0
 10
51.588582
 20
197.884083
 30
0.0
  0
LINE
  5
183
100
AcDbEntity
  8
Ebene_1
 62
7
100
AcDbLine
 10
51.588582
 20
197.884083
 30
0.0
 11
51.588582
 21
197.884083
 31
0.0
  0
SPLINE
  5
184
100
AcDbEntity
  8
Ebene_1
 62
7
100
AcDbSpline
 70
8
 71
3
 72
8
 73
4
 74
0
 40
0
 40
0
 40
0
 40
0
 40
1
 40
1
 40
1
 40
1
 10
168.739056
 20
192.365046
 30
0.0
 10
168.763904
 20
192.159155
 30
0.0
 10
168.787674
 20
191.953135
 30
0.0
 10
168.810365
 20
191.746996
 30
0.0
  0
LINE
  5
185
100
AcDbEntity
  8
Ebene_1
 62
7
100
AcDbLine
 10
168.810365
 20
191.746996
 30
0.0
 11
114.661219
 21
186.055350
 31
0.0
  0
SPLINE
  5
186
100
AcDbEntity
  8
Ebene_1
 62
7
100
AcDbSpline
 70
8
 71
3
 72
8
 73
4
 74
0
 40
0
 40
0
 40
0
 40
0
 40
1
 40
1
 40
1
 40
1
 10
114.661219
 20
186.055350
 30
0.0
 10
114.659237
 20
186.072754
 30
0.0
 10
114.657162
 20
186.090147
 30
0.0
 10
114.654997
 20
186.107529
 30
0.0
  0
LINE
  5
187
100
AcDbEntity
  8
Ebene_1
 62
7
100
AcDbLine
 10
114.654997
 20
186.107529
 30
0.0
 11
168.739056
 21
192.365046
 31
0.0
  0
LINE
  5
188
100
AcDbEntity
  8
Ebene_1
 62
7
100
AcDbLine
 10
50.616032
 20
191.742857
 30
0.0
 11
104.728491
 21
186.055350
 31
0.0
  0
SPLINE
  5
189
100
AcDbEntity
  8
Ebene_1
 62
7
100
AcDbSpline
 70
8
 71
3
 72
8
 73
4
 74
0
 40
0
 40
0
 40
0
 40
0
 40
1
 40
1
 40
1
 40
1
 10
104.728491
 20
186.055350
 30
0.0
 10
104.726497
 20
186.037967
 30
0.0
 10
104.724594
 20
186.020573
 30
0.0
 10
104.722782
 20
186.003171
 30
0.0
  0
LINE
  5
18a
100
AcDbEntity
  8
Ebene_1
 62
7
100
AcDbLine
 10
104.722782
 20
186.003171
 30
0.0
 11
50.542651
 21
191.124807
 31
0.0
  0
SPLINE
  5
18b
100
AcDbEntity
  8
Ebene_1
 62
7
100
AcDbSpline
 70
8
 71
3
 72
8
 73
4
 74
0
 40
0
 40
0
 40
0
 40
0
 40
1
 40
1
 40
1
 40
1
 10
50.542651
 20
191.124807
 30
0.0
 10
50.566033
 20
191.330950
 30
0.0
 10
50.590493
 20
191.536970
 30
0.0
 10
50.616032
 20
191.742857
 30
0.0
  0
LINE
  5
18c
100
AcDbEntity
  8
Ebene_1
 62
7
100
AcDbLine
 10
50.616032
 20
191.742857
 30
0.0
 11
50.616032
 21
191.742857
 31
0.0
  0
SPLINE
  5
18d
100
AcDbEntity
  8
Ebene_1
 62
7
100
AcDbSpline
 70
8
 71
3
 72
8
 73
4
 74
0
 40
0
 40
0
 40
0
 40
0
 40
1
 40
1
 40
1
 40
1
 10
169.129213
 20
186.156117
 30
0.0
 10
169.133059
 20
185.948568
 30
0.0
 10
169.135818
 20
185.740999
 30
0.0
 10
169.137490
 20
185.533420
 30
0.0
  0
LINE
  5
18e
100
AcDbEntity
  8
Ebene_1
 62
7
100
AcDbLine
 10
169.137490
 20
185.533420
 30
0.0
 11
114.688616
 21
185.533420
 31
0.0
  0
SPLINE
  5
18f
100
AcDbEntity
  8
Ebene_1
 62
7
100
AcDbSpline
 70
8
 71
3
 72
8
 73
4
 74
0
 40
0
 40
0
 40
0
 40
0
 40
1
 40
1
 40
1
 40
1
 10
114.688616
 20
185.533420
 30
0.0
 10
114.688536
 20
185.550814
 30
0.0
 10
114.688365
 20
185.568208
 30
0.0
 10
114.688102
 20
185.585600
 30
0.0
  0
LINE
  5
190
100
AcDbEntity
  8
Ebene_1
 62
7
100
AcDbLine
 10
114.688102
 20
185.585600
 30
0.0
 11
169.129213
 21
186.156117
 31
0.0
  0
LINE
  5
191
100
AcDbEntity
  8
Ebene_1
 62
7
100
AcDbLine
 10
50.249646
 20
185.533420
 30
0.0
 11
104.698002
 21
185.533420
 31
0.0
  0
SPLINE
  5
192
100
AcDbEntity
  8
Ebene_1
 62
7
100
AcDbSpline
 70
8
 71
3
 72
8
 73
4
 74
0
 40
0
 40
0
 40
0
 40
0
 40
1
 40
1
 40
1
 40
1
 10
104.698002
 20
185.533420
 30
0.0
 10
104.698596
 20
185.516024
 30
0.0
 10
104.699281
 20
185.498631
 30
0.0
 10
104.700057
 20
185.481241
 30
0.0
  0
LINE
  5
193
100
AcDbEntity
  8
Ebene_1
 62
7
100
AcDbLine
 10
104.700057
 20
185.481241
 30
0.0
 11
50.273934
 21
184.911232
 31
0.0
  0
SPLINE
  5
194
100
AcDbEntity
  8
Ebene_1
 62
7
100
AcDbSpline
 70
8
 71
3
 72
8
 73
4
 74
0
 40
0
 40
0
 40
0
 40
0
 40
1
 40
1
 40
1
 40
1
 10
50.273934
 20
184.911232
 30
0.0
 10
50.264752
 20
185.118584
 30
0.0
 10
50.256656
 20
185.325983
 30
0.0
 10
50.249646
 20
185.533420
 30
0.0
  0
LINE
  5
195
100
AcDbEntity
  8
Ebene_1
 62
7
100
AcDbLine
 10
50.249646
 20
185.533420
 30
0.0
 11
50.249646
 21
185.533420
 31
0.0
  0
LINE
  5
196
100
AcDbEntity
  8
Ebene_1
 62
7
100
AcDbLine
 10
114.663800
 20
185.063682
 30
0.0
 11
168.868248
 21
179.939962
 31
0.0
  0
SPLINE
  5
197
100
AcDbEntity
  8
Ebene_1
 62
7
100
AcDbSpline
 70
8
 71
3
 72
8
 73
4
 74
0
 40
0
 40
0
 40
0
 40
0
 40
1
 40
1
 40
1
 40
1
 10
168.868248
 20
179.939962
 30
0.0
 10
168.850037
 20
179.733156
 30
0.0
 10
168.830742
 20
179.526448
 30
0.0
 10
168.810365
 20
179.319845
 30
0.0
  0
LINE
  5
198
100
AcDbEntity
  8
Ebene_1
 62
7
100
AcDbLine
 10
168.810365
 20
179.319845
 30
0.0
 11
114.658119
 21
185.011485
 31
0.0
  0
SPLINE
  5
199
100
AcDbEntity
  8
Ebene_1
 62
7
100
AcDbSpline
 70
8
 71
3
 72
8
 73
4
 74
0
 40
0
 40
0
 40
0
 40
0
 40
1
 40
1
 40
1
 40
1
 10
114.658119
 20
185.011485
 30
0.0
 10
114.660114
 20
185.028868
 30
0.0
 10
114.662017
 20
185.046262
 30
0.0
 10
114.663828
 20
185.063665
 30
0.0
  0
LINE
  5
19a
100
AcDbEntity
  8
Ebene_1
 62
7
100
AcDbLine
 10
114.663828
 20
185.063665
 30
0.0
 11
114.663800
 21
185.063682
 31
0.0
  0
SPLINE
  5
19b
100
AcDbEntity
  8
Ebene_1
 62
7
100
AcDbSpline
 70
8
 71
3
 72
8
 73
4
 74
0
 40
0
 40
0
 40
0
 40
0
 40
1
 40
1
 40
1
 40
1
 10
104.728491
 20
185.011503
 30
0.0
 10
104.730468
 20
184.994270
 30
0.0
 10
104.732535
 20
184.977048
 30
0.0
 10
104.734691
 20
184.959837
 30
0.0
  0
LINE
  5
19c
100
AcDbEntity
  8
Ebene_1
 62
7
100
AcDbLine
 10
104.734691
 20
184.959837
 30
0.0
 11
50.688896
 21
178.706448
 31
0.0
  0
SPLINE
  5
19d
100
AcDbEntity
  8
Ebene_1
 62
7
100
AcDbSpline
 70
8
 71
3
 72
8
 73
4
 74
0
 40
0
 40
0
 40
0
 40
0
 40
1
 40
1
 40
1
 40
1
 10
50.688896
 20
178.706448
 30
0.0
 10
50.663531
 20
178.912163
 30
0.0
 10
50.639243
 20
179.118009
 30
0.0
 10
50.616032
 20
179.323978
 30
0.0
  0
LINE
  5
19e
100
AcDbEntity
  8
Ebene_1
 62
7
100
AcDbLine
 10
50.616032
 20
179.323978
 30
0.0
 11
104.728491
 21
185.011503
 31
0.0
  0
LINE
  5
19f
100
AcDbEntity
  8
Ebene_1
 62
7
100
AcDbLine
 10
114.587323
 20
184.546931
 30
0.0
 11
167.959776
 21
173.784800
 31
0.0
  0
SPLINE
  5
1a0
100
AcDbEntity
  8
Ebene_1
 62
7
100
AcDbSpline
 70
8
 71
3
 72
8
 73
4
 74
0
 40
0
 40
0
 40
0
 40
0
 40
1
 40
1
 40
1
 40
1
 10
167.959776
 20
173.784800
 30
0.0
 10
167.919671
 20
173.581324
 30
0.0
 10
167.878502
 20
173.378060
 30
0.0
 10
167.836270
 20
173.175016
 30
0.0
  0
LINE
  5
1a1
100
AcDbEntity
  8
Ebene_1
 62
7
100
AcDbLine
 10
167.836270
 20
173.175016
 30
0.0
 11
114.577504
 21
184.495254
 31
0.0
  0
SPLINE
  5
1a2
100
AcDbEntity
  8
Ebene_1
 62
7
100
AcDbSpline
 70
8
 71
3
 72
8
 73
4
 74
0
 40
0
 40
0
 40
0
 40
0
 40
1
 40
1
 40
1
 40
1
 10
114.577504
 20
184.495254
 30
0.0
 10
114.580868
 20
184.512458
 30
0.0
 10
114.584141
 20
184.529680
 30
0.0
 10
114.587323
 20
184.546919
 30
0.0
  0
LINE
  5
1a3
100
AcDbEntity
  8
Ebene_1
 62
7
100
AcDbLine
 10
114.587323
 20
184.546919
 30
0.0
 11
114.587323
 21
184.546931
 31
0.0
  0
SPLINE
  5
1a4
100
AcDbEntity
  8
Ebene_1
 62
7
100
AcDbSpline
 70
8
 71
3
 72
8
 73
4
 74
0
 40
0
 40
0
 40
0
 40
0
 40
1
 40
1
 40
1
 40
1
 10
104.809623
 20
184.495265
 30
0.0
 10
104.812807
 20
184.478198
 30
0.0
 10
104.816081
 20
184.461147
 30
0.0
 10
104.819443
 20
184.444113
 30
0.0
  0
LINE
  5
1a5
100
AcDbEntity
  8
Ebene_1
 62
7
100
AcDbLine
 10
104.819443
 20
184.444113
 30
0.0
 11
51.709505
 21
172.572455
 31
0.0
  0
SPLINE
  5
1a6
100
AcDbEntity
  8
Ebene_1
 62
7
100
AcDbSpline
 70
8
 71
3
 72
8
 73
4
 74
0
 40
0
 40
0
 40
0
 40
0
 40
1
 40
1
 40
1
 40
1
 10
51.709505
 20
172.572455
 30
0.0
 10
51.668133
 20
172.775675
 30
0.0
 10
51.627825
 20
172.979110
 30
0.0
 10
51.588582
 20
173.182752
 30
0.0
  0
LINE
  5
1a7
100
AcDbEntity
  8
Ebene_1
 62
7
100
AcDbLine
 10
51.588582
 20
173.182752
 30
0.0
 11
104.809623
 21
184.495265
 31
0.0
  0
LINE
  5
1a8
100
AcDbEntity
  8
Ebene_1
 62
7
100
AcDbLine
 10
114.459678
 20
184.039998
 30
0.0
 11
166.412582
 21
167.758824
 31
0.0
  0
SPLINE
  5
1a9
100
AcDbEntity
  8
Ebene_1
 62
7
100
AcDbSpline
 70
8
 71
3
 72
8
 73
4
 74
0
 40
0
 40
0
 40
0
 40
0
 40
1
 40
1
 40
1
 40
1
 10
166.412582
 20
167.758824
 30
0.0
 10
166.351088
 20
167.560748
 30
0.0
 10
166.288557
 20
167.362995
 30
0.0
 10
166.224993
 20
167.165574
 30
0.0
  0
LINE
  5
1aa
100
AcDbEntity
  8
Ebene_1
 62
7
100
AcDbLine
 10
166.224993
 20
167.165574
 30
0.0
 11
114.442112
 21
183.990388
 31
0.0
  0
SPLINE
  5
1ab
100
AcDbEntity
  8
Ebene_1
 62
7
100
AcDbSpline
 70
8
 71
3
 72
8
 73
4
 74
0
 40
0
 40
0
 40
0
 40
0
 40
1
 40
1
 40
1
 40
1
 10
114.442112
 20
183.990388
 30
0.0
 10
114.448060
 20
184.006894
 30
0.0
 10
114.453922
 20
184.023431
 30
0.0
 10
114.459696
 20
184.039998
 30
0.0
  0
LINE
  5
1ac
100
AcDbEntity
  8
Ebene_1
 62
7
100
AcDbLine
 10
114.459696
 20
184.039998
 30
0.0
 11
114.459678
 21
184.039998
 31
0.0
  0
SPLINE
  5
1ad
100
AcDbEntity
  8
Ebene_1
 62
7
100
AcDbSpline
 70
8
 71
3
 72
8
 73
4
 74
0
 40
0
 40
0
 40
0
 40
0
 40
1
 40
1
 40
1
 40
1
 10
104.945015
 20
183.990388
 30
0.0
 10
104.950614
 20
183.973993
 30
0.0
 10
104.956298
 20
183.957628
 30
0.0
 10
104.962068
 20
183.941292
 30
0.0
  0
LINE
  5
1ae
100
AcDbEntity
  8
Ebene_1
 62
7
100
AcDbLine
 10
104.962068
 20
183.941292
 30
0.0
 11
53.374520
 21
166.580053
 31
0.0
  0
SPLINE
  5
1af
100
AcDbEntity
  8
Ebene_1
 62
7
100
AcDbSpline
 70
8
 71
3
 72
8
 73
4
 74
0
 40
0
 40
0
 40
0
 40
0
 40
1
 40
1
 40
1
 40
1
 10
53.374520
 20
166.580053
 30
0.0
 10
53.301671
 20
166.774324
 30
0.0
 10
53.229840
 20
166.968975
 30
0.0
 10
53.159029
 20
167.163998
 30
0.0
  0
LINE
  5
1b0
100
AcDbEntity
  8
Ebene_1
 62
7
100
AcDbLine
 10
53.159029
 20
167.163998
 30
0.0
 11
53.159029
 21
167.164512
 31
0.0
  0
LINE
  5
1b1
100
AcDbEntity
  8
Ebene_1
 62
7
100
AcDbLine
 10
53.159029
 20
167.164512
 30
0.0
 11
104.945015
 21
183.990388
 31
0.0
  0
LINE
  5
1b2
100
AcDbEntity
  8
Ebene_1
 62
7
100
AcDbLine
 10
114.274676
 20
183.551141
 30
0.0
 11
164.244238
 21
161.927139
 31
0.0
  0
SPLINE
  5
1b3
100
AcDbEntity
  8
Ebene_1
 62
7
100
AcDbSpline
 70
8
 71
3
 72
8
 73
4
 74
0
 40
0
 40
0
 40
0
 40
0
 40
1
 40
1
 40
1
 40
1
 10
164.244238
 20
161.927139
 30
0.0
 10
164.162033
 20
161.736707
 30
0.0
 10
164.078833
 20
161.546707
 30
0.0
 10
163.994640
 20
161.357146
 30
0.0
  0
LINE
  5
1b4
100
AcDbEntity
  8
Ebene_1
 62
7
100
AcDbLine
 10
163.994640
 20
161.357146
 30
0.0
 11
114.254010
 21
183.503078
 31
0.0
  0
SPLINE
  5
1b5
100
AcDbEntity
  8
Ebene_1
 62
7
100
AcDbSpline
 70
8
 71
3
 72
8
 73
4
 74
0
 40
0
 40
0
 40
0
 40
0
 40
1
 40
1
 40
1
 40
1
 10
114.254010
 20
183.503078
 30
0.0
 10
114.260983
 20
183.519064
 30
0.0
 10
114.267871
 20
183.535088
 30
0.0
 10
114.274676
 20
183.551146
 30
0.0
  0
LINE
  5
1b6
100
AcDbEntity
  8
Ebene_1
 62
7
100
AcDbLine
 10
114.274676
 20
183.551146
 30
0.0
 11
114.274676
 21
183.551141
 31
0.0
  0
SPLINE
  5
1b7
100
AcDbEntity
  8
Ebene_1
 62
7
100
AcDbSpline
 70
8
 71
3
 72
8
 73
4
 74
0
 40
0
 40
0
 40
0
 40
0
 40
1
 40
1
 40
1
 40
1
 10
105.133118
 20
183.503072
 30
0.0
 10
105.140095
 20
183.487012
 30
0.0
 10
105.147157
 20
183.470989
 30
0.0
 10
105.154304
 20
183.455003
 30
0.0
  0
LINE
  5
1b8
100
AcDbEntity
  8
Ebene_1
 62
7
100
AcDbLine
 10
105.154304
 20
183.455003
 30
0.0
 11
55.686522
 21
160.807289
 31
0.0
  0
SPLINE
  5
1b9
100
AcDbEntity
  8
Ebene_1
 62
7
100
AcDbSpline
 70
8
 71
3
 72
8
 73
4
 74
0
 40
0
 40
0
 40
0
 40
0
 40
1
 40
1
 40
1
 40
1
 10
55.686522
 20
160.807289
 30
0.0
 10
55.598721
 20
160.995109
 30
0.0
 10
55.511903
 20
161.183387
 30
0.0
 10
55.426072
 20
161.372115
 30
0.0
  0
LINE
  5
1ba
100
AcDbEntity
  8
Ebene_1
 62
7
100
AcDbLine
 10
55.426072
 20
161.372115
 30
0.0
 11
105.133118
 21
183.503072
 31
0.0
  0
LINE
  5
1bb
100
AcDbEntity
  8
Ebene_1
 62
7
100
AcDbLine
 10
114.043683
 20
183.081910
 30
0.0
 11
161.477997
 21
156.353827
 31
0.0
  0
SPLINE
  5
1bc
100
AcDbEntity
  8
Ebene_1
 62
7
100
AcDbSpline
 70
8
 71
3
 72
8
 73
4
 74
0
 40
0
 40
0
 40
0
 40
0
 40
1
 40
1
 40
1
 40
1
 10
161.477997
 20
156.353827
 30
0.0
 10
161.376103
 20
156.173283
 30
0.0
 10
161.273266
 20
155.993274
 30
0.0
 10
161.169488
 20
155.813806
 30
0.0
  0
LINE
  5
1bd
100
AcDbEntity
  8
Ebene_1
 62
7
100
AcDbLine
 10
161.169488
 20
155.813806
 30
0.0
 11
114.019398
 21
183.035897
 31
0.0
  0
SPLINE
  5
1be
100
AcDbEntity
  8
Ebene_1
 62
7
100
AcDbSpline
 70
8
 71
3
 72
8
 73
4
 74
0
 40
0
 40
0
 40
0
 40
0
 40
1
 40
1
 40
1
 40
1
 10
114.019398
 20
183.035897
 30
0.0
 10
114.027565
 20
183.051192
 30
0.0
 10
114.035653
 20
183.066530
 30
0.0
 10
114.043660
 20
183.081910
 30
0.0
  0
LINE
  5
1bf
100
AcDbEntity
  8
Ebene_1
 62
7
100
AcDbLine
 10
114.043660
 20
183.081910
 30
0.0
 11
114.043683
 21
183.081910
 31
0.0
  0
SPLINE
  5
1c0
100
AcDbEntity
  8
Ebene_1
 62
7
100
AcDbSpline
 70
8
 71
3
 72
8
 73
4
 74
0
 40
0
 40
0
 40
0
 40
0
 40
1
 40
1
 40
1
 40
1
 10
105.367729
 20
183.035897
 30
0.0
 10
105.376952
 20
183.021043
 30
0.0
 10
105.386254
 20
183.006238
 30
0.0
 10
105.395634
 20
182.991481
 30
0.0
  0
LINE
  5
1c1
100
AcDbEntity
  8
Ebene_1
 62
7
100
AcDbLine
 10
105.395634
 20
182.991481
 30
0.0
 11
58.553014
 21
155.289296
 31
0.0
  0
SPLINE
  5
1c2
100
AcDbEntity
  8
Ebene_1
 62
7
100
AcDbSpline
 70
8
 71
3
 72
8
 73
4
 74
0
 40
0
 40
0
 40
0
 40
0
 40
1
 40
1
 40
1
 40
1
 10
58.553014
 20
155.289296
 30
0.0
 10
58.450783
 20
155.469634
 30
0.0
 10
58.349496
 20
155.650506
 30
0.0
 10
58.249157
 20
155.831903
 30
0.0
  0
LINE
  5
1c3
100
AcDbEntity
  8
Ebene_1
 62
7
100
AcDbLine
 10
58.249157
 20
155.831903
 30
0.0
 11
105.367729
 21
183.035897
 31
0.0
  0
LINE
  5
1c4
100
AcDbEntity
  8
Ebene_1
 62
7
100
AcDbLine
 10
113.763080
 20
182.641087
 30
0.0
 11
158.144869
 21
151.100897
 31
0.0
  0
SPLINE
  5
1c5
100
AcDbEntity
  8
Ebene_1
 62
7
100
AcDbSpline
 70
8
 71
3
 72
8
 73
4
 74
0
 40
0
 40
0
 40
0
 40
0
 40
1
 40
1
 40
1
 40
1
 10
158.144869
 20
151.100897
 30
0.0
 10
158.024312
 20
150.931968
 30
0.0
 10
157.902870
 20
150.763672
 30
0.0
 10
157.780550
 20
150.596015
 30
0.0
  0
LINE
  5
1c6
100
AcDbEntity
  8
Ebene_1
 62
7
100
AcDbLine
 10
157.780550
 20
150.596015
 30
0.0
 11
113.732075
 21
182.599230
 31
0.0
  0
SPLINE
  5
1c7
100
AcDbEntity
  8
Ebene_1
 62
7
100
AcDbSpline
 70
8
 71
3
 72
8
 73
4
 74
0
 40
0
 40
0
 40
0
 40
0
 40
1
 40
1
 40
1
 40
1
 10
113.732075
 20
182.599230
 30
0.0
 10
113.742481
 20
182.613124
 30
0.0
 10
113.752814
 20
182.627073
 30
0.0
 10
113.763074
 20
182.641076
 30
0.0
  0
LINE
  5
1c8
100
AcDbEntity
  8
Ebene_1
 62
7
100
AcDbLine
 10
113.763074
 20
182.641076
 30
0.0
 11
113.763080
 21
182.641087
 31
0.0
  0
SPLINE
  5
1c9
100
AcDbEntity
  8
Ebene_1
 62
7
100
AcDbSpline
 70
8
 71
3
 72
8
 73
4
 74
0
 40
0
 40
0
 40
0
 40
0
 40
1
 40
1
 40
1
 40
1
 10
105.655049
 20
182.599241
 30
0.0
 10
105.665312
 20
182.585238
 30
0.0
 10
105.675647
 20
182.571290
 30
0.0
 10
105.686054
 20
182.557395
 30
0.0
  0
LINE
  5
1ca
100
AcDbEntity
  8
Ebene_1
 62
7
100
AcDbLine
 10
105.686054
 20
182.557395
 30
0.0
 11
61.987430
 21
150.104080
 31
0.0
  0
SPLINE
  5
1cb
100
AcDbEntity
  8
Ebene_1
 62
7
100
AcDbSpline
 70
8
 71
3
 72
8
 73
4
 74
0
 40
0
 40
0
 40
0
 40
0
 40
1
 40
1
 40
1
 40
1
 10
61.987430
 20
150.104080
 30
0.0
 10
61.858248
 20
150.266360
 30
0.0
 10
61.729916
 20
150.429314
 30
0.0
 10
61.602440
 20
150.592937
 30
0.0
  0
LINE
  5
1cc
100
AcDbEntity
  8
Ebene_1
 62
7
100
AcDbLine
 10
61.602440
 20
150.592937
 30
0.0
 11
105.655049
 21
182.599241
 31
0.0
  0
LINE
  5
1cd
100
AcDbEntity
  8
Ebene_1
 62
7
100
AcDbLine
 10
113.438039
 20
182.232342
 30
0.0
 11
154.281539
 21
146.224200
 31
0.0
  0
SPLINE
  5
1ce
100
AcDbEntity
  8
Ebene_1
 62
7
100
AcDbSpline
 70
8
 71
3
 72
8
 73
4
 74
0
 40
0
 40
0
 40
0
 40
0
 40
1
 40
1
 40
1
 40
1
 10
154.281539
 20
146.224200
 30
0.0
 10
154.143511
 20
146.069134
 30
0.0
 10
154.004671
 20
145.914792
 30
0.0
 10
153.865025
 20
145.761181
 30
0.0
  0
LINE
  5
1cf
100
AcDbEntity
  8
Ebene_1
 62
7
100
AcDbLine
 10
153.865025
 20
145.761181
 30
0.0
 11
113.403928
 21
182.192551
 31
0.0
  0
SPLINE
  5
1d0
100
AcDbEntity
  8
Ebene_1
 62
7
100
AcDbSpline
 70
8
 71
3
 72
8
 73
4
 74
0
 40
0
 40
0
 40
0
 40
0
 40
1
 40
1
 40
1
 40
1
 10
113.403928
 20
182.192551
 30
0.0
 10
113.415358
 20
182.205755
 30
0.0
 10
113.426719
 20
182.219019
 30
0.0
 10
113.438010
 20
182.232342
 30
0.0
  0
LINE
  5
1d1
100
AcDbEntity
  8
Ebene_1
 62
7
100
AcDbLine
 10
113.438010
 20
182.232342
 30
0.0
 11
113.438039
 21
182.232342
 31
0.0
  0
SPLINE
  5
1d2
100
AcDbEntity
  8
Ebene_1
 62
7
100
AcDbSpline
 70
8
 71
3
 72
8
 73
4
 74
0
 40
0
 40
0
 40
0
 40
0
 40
1
 40
1
 40
1
 40
1
 10
105.983195
 20
182.192551
 30
0.0
 10
105.994494
 20
182.179228
 30
0.0
 10
106.005862
 20
182.165964
 30
0.0
 10
106.017300
 20
182.152760
 30
0.0
  0
LINE
  5
1d3
100
AcDbEntity
  8
Ebene_1
 62
7
100
AcDbLine
 10
106.017300
 20
182.152760
 30
0.0
 11
65.970649
 21
145.328133
 31
0.0
  0
SPLINE
  5
1d4
100
AcDbEntity
  8
Ebene_1
 62
7
100
AcDbSpline
 70
8
 71
3
 72
8
 73
4
 74
0
 40
0
 40
0
 40
0
 40
0
 40
1
 40
1
 40
1
 40
1
 10
65.970649
 20
145.328133
 30
0.0
 10
65.829121
 20
145.479669
 30
0.0
 10
65.688387
 20
145.631944
 30
0.0
 10
65.548452
 20
145.784953
 30
0.0
  0
LINE
  5
1d5
100
AcDbEntity
  8
Ebene_1
 62
7
100
AcDbLine
 10
65.548452
 20
145.784953
 30
0.0
 11
105.983195
 21
182.192551
 31
0.0
  0
LINE
  5
1d6
100
AcDbEntity
  8
Ebene_1
 62
7
100
AcDbLine
 10
113.074234
 20
181.857171
 30
0.0
 11
149.928833
 21
141.777959
 31
0.0
  0
SPLINE
  5
1d7
100
AcDbEntity
  8
Ebene_1
 62
7
100
AcDbSpline
 70
8
 71
3
 72
8
 73
4
 74
0
 40
0
 40
0
 40
0
 40
0
 40
1
 40
1
 40
1
 40
1
 10
149.928833
 20
141.777959
 30
0.0
 10
149.775220
 20
141.638487
 30
0.0
 10
149.620878
 20
141.499820
 30
0.0
 10
149.465814
 20
141.361964
 30
0.0
  0
LINE
  5
1d8
100
AcDbEntity
  8
Ebene_1
 62
7
100
AcDbLine
 10
149.465814
 20
141.361964
 30
0.0
 11
113.034443
 21
181.823061
 31
0.0
  0
SPLINE
  5
1d9
100
AcDbEntity
  8
Ebene_1
 62
7
100
AcDbSpline
 70
8
 71
3
 72
8
 73
4
 74
0
 40
0
 40
0
 40
0
 40
0
 40
1
 40
1
 40
1
 40
1
 10
113.034443
 20
181.823061
 30
0.0
 10
113.047767
 20
181.834371
 30
0.0
 10
113.061031
 20
181.845751
 30
0.0
 10
113.074234
 20
181.857200
 30
0.0
  0
LINE
  5
1da
100
AcDbEntity
  8
Ebene_1
 62
7
100
AcDbLine
 10
113.074234
 20
181.857200
 30
0.0
 11
113.074234
 21
181.857171
 31
0.0
  0
SPLINE
  5
1db
100
AcDbEntity
  8
Ebene_1
 62
7
100
AcDbSpline
 70
8
 71
3
 72
8
 73
4
 74
0
 40
0
 40
0
 40
0
 40
0
 40
1
 40
1
 40
1
 40
1
 10
106.352682
 20
181.823032
 30
0.0
 10
106.365713
 20
181.811603
 30
0.0
 10
106.378804
 20
181.800243
 30
0.0
 10
106.391953
 20
181.788950
 30
0.0
  0
LINE
  5
1dc
100
AcDbEntity
  8
Ebene_1
 62
7
100
AcDbLine
 10
106.391953
 20
181.788950
 30
0.0
 11
70.401902
 21
140.966121
 31
0.0
  0
SPLINE
  5
1dd
100
AcDbEntity
  8
Ebene_1
 62
7
100
AcDbSpline
 70
8
 71
3
 72
8
 73
4
 74
0
 40
0
 40
0
 40
0
 40
0
 40
1
 40
1
 40
1
 40
1
 10
70.401902
 20
140.966121
 30
0.0
 10
70.248893
 20
141.106055
 30
0.0
 10
70.096618
 20
141.246789
 30
0.0
 10
69.945082
 20
141.388316
 30
0.0
  0
LINE
  5
1de
100
AcDbEntity
  8
Ebene_1
 62
7
100
AcDbLine
 10
69.945082
 20
141.388316
 30
0.0
 11
106.352682
 21
181.823032
 31
0.0
  0
LINE
  5
1df
100
AcDbEntity
  8
Ebene_1
 62
7
100
AcDbLine
 10
112.669611
 20
181.525896
 30
0.0
 11
145.135326
 21
137.810734
 31
0.0
  0
SPLINE
  5
1e0
100
AcDbEntity
  8
Ebene_1
 62
7
100
AcDbSpline
 70
8
 71
3
 72
8
 73
4
 74
0
 40
0
 40
0
 40
0
 40
0
 40
1
 40
1
 40
1
 40
1
 10
145.135326
 20
137.810734
 30
0.0
 10
144.967671
 20
137.688414
 30
0.0
 10
144.799376
 20
137.566973
 30
0.0
 10
144.630449
 20
137.446416
 30
0.0
  0
LINE
  5
1e1
100
AcDbEntity
  8
Ebene_1
 62
7
100
AcDbLine
 10
144.630449
 20
137.446416
 30
0.0
 11
112.627748
 21
181.494891
 31
0.0
  0
SPLINE
  5
1e2
100
AcDbEntity
  8
Ebene_1
 62
7
100
AcDbSpline
 70
8
 71
3
 72
8
 73
4
 74
0
 40
0
 40
0
 40
0
 40
0
 40
1
 40
1
 40
1
 40
1
 10
112.627748
 20
181.494891
 30
0.0
 10
112.641750
 20
181.505151
 30
0.0
 10
112.655699
 20
181.515485
 30
0.0
 10
112.669594
 20
181.525890
 30
0.0
  0
LINE
  5
1e3
100
AcDbEntity
  8
Ebene_1
 62
7
100
AcDbLine
 10
112.669594
 20
181.525890
 30
0.0
 11
112.669611
 21
181.525896
 31
0.0
  0
SPLINE
  5
1e4
100
AcDbEntity
  8
Ebene_1
 62
7
100
AcDbSpline
 70
8
 71
3
 72
8
 73
4
 74
0
 40
0
 40
0
 40
0
 40
0
 40
1
 40
1
 40
1
 40
1
 10
106.759375
 20
181.494897
 30
0.0
 10
106.773273
 20
181.484491
 30
0.0
 10
106.787226
 20
181.474158
 30
0.0
 10
106.801232
 20
181.463898
 30
0.0
  0
LINE
  5
1e5
100
AcDbEntity
  8
Ebene_1
 62
7
100
AcDbLine
 10
106.801232
 20
181.463898
 30
0.0
 11
75.271374
 21
137.096067
 31
0.0
  0
SPLINE
  5
1e6
100
AcDbEntity
  8
Ebene_1
 62
7
100
AcDbSpline
 70
8
 71
3
 72
8
 73
4
 74
0
 40
0
 40
0
 40
0
 40
0
 40
1
 40
1
 40
1
 40
1
 10
75.271374
 20
137.096067
 30
0.0
 10
75.097998
 20
137.210571
 30
0.0
 10
74.925224
 20
137.325984
 30
0.0
 10
74.753059
 20
137.442300
 30
0.0
  0
LINE
  5
1e7
100
AcDbEntity
  8
Ebene_1
 62
7
100
AcDbLine
 10
74.753059
 20
137.442300
 30
0.0
 11
106.759375
 21
181.494897
 31
0.0
  0
LINE
  5
1e8
100
AcDbEntity
  8
Ebene_1
 62
7
100
AcDbLine
 10
112.235525
 20
181.235479
 30
0.0
 11
139.952182
 21
134.368053
 31
0.0
  0
SPLINE
  5
1e9
100
AcDbEntity
  8
Ebene_1
 62
7
100
AcDbSpline
 70
8
 71
3
 72
8
 73
4
 74
0
 40
0
 40
0
 40
0
 40
0
 40
1
 40
1
 40
1
 40
1
 10
139.952182
 20
134.368053
 30
0.0
 10
139.773062
 20
134.263588
 30
0.0
 10
139.593397
 20
134.160062
 30
0.0
 10
139.413195
 20
134.057478
 30
0.0
  0
LINE
  5
1ea
100
AcDbEntity
  8
Ebene_1
 62
7
100
AcDbLine
 10
139.413195
 20
134.057478
 30
0.0
 11
112.191087
 21
181.207574
 31
0.0
  0
SPLINE
  5
1eb
100
AcDbEntity
  8
Ebene_1
 62
7
100
AcDbSpline
 70
8
 71
3
 72
8
 73
4
 74
0
 40
0
 40
0
 40
0
 40
0
 40
1
 40
1
 40
1
 40
1
 10
112.191087
 20
181.207574
 30
0.0
 10
112.205940
 20
181.216802
 30
0.0
 10
112.220746
 20
181.226107
 30
0.0
 10
112.235502
 20
181.235491
 30
0.0
  0
LINE
  5
1ec
100
AcDbEntity
  8
Ebene_1
 62
7
100
AcDbLine
 10
112.235502
 20
181.235491
 30
0.0
 11
112.235525
 21
181.235479
 31
0.0
  0
SPLINE
  5
1ed
100
AcDbEntity
  8
Ebene_1
 62
7
100
AcDbSpline
 70
8
 71
3
 72
8
 73
4
 74
0
 40
0
 40
0
 40
0
 40
0
 40
1
 40
1
 40
1
 40
1
 10
107.196039
 20
181.207563
 30
0.0
 10
107.211335
 20
181.199395
 30
0.0
 10
107.226673
 20
181.191308
 30
0.0
 10
107.242053
 20
181.183300
 30
0.0
  0
LINE
  5
1ee
100
AcDbEntity
  8
Ebene_1
 62
7
100
AcDbLine
 10
107.242053
 20
181.183300
 30
0.0
 11
80.534619
 21
133.785158
 31
0.0
  0
SPLINE
  5
1ef
100
AcDbEntity
  8
Ebene_1
 62
7
100
AcDbSpline
 70
8
 71
3
 72
8
 73
4
 74
0
 40
0
 40
0
 40
0
 40
0
 40
1
 40
1
 40
1
 40
1
 10
80.534619
 20
133.785158
 30
0.0
 10
80.353223
 20
133.885496
 30
0.0
 10
80.172353
 20
133.986783
 30
0.0
 10
79.992017
 20
134.089014
 30
0.0
  0
LINE
  5
1f0
100
AcDbEntity
  8
Ebene_1
 62
7
100
AcDbLine
 10
79.992017
 20
134.089014
 30
0.0
 11
107.196039
 21
181.207563
 31
0.0
  0
LINE
  5
1f1
100
AcDbEntity
  8
Ebene_1
 62
7
100
AcDbLine
 10
111.771992
 20
180.994136
 30
0.0
 11
134.437791
 21
131.487080
 31
0.0
  0
SPLINE
  5
1f2
100
AcDbEntity
  8
Ebene_1
 62
7
100
AcDbSpline
 70
8
 71
3
 72
8
 73
4
 74
0
 40
0
 40
0
 40
0
 40
0
 40
1
 40
1
 40
1
 40
1
 10
134.437791
 20
131.487080
 30
0.0
 10
134.248928
 20
131.401168
 30
0.0
 10
134.059617
 20
131.316245
 30
0.0
 10
133.869865
 20
131.232315
 30
0.0
  0
LINE
  5
1f3
100
AcDbEntity
  8
Ebene_1
 62
7
100
AcDbLine
 10
133.869865
 20
131.232315
 30
0.0
 11
111.723928
 21
180.972950
 31
0.0
  0
SPLINE
  5
1f4
100
AcDbEntity
  8
Ebene_1
 62
7
100
AcDbSpline
 70
8
 71
3
 72
8
 73
4
 74
0
 40
0
 40
0
 40
0
 40
0
 40
1
 40
1
 40
1
 40
1
 10
111.723928
 20
180.972950
 30
0.0
 10
111.739988
 20
180.979926
 30
0.0
 10
111.756012
 20
180.986986
 30
0.0
 10
111.771997
 20
180.994130
 30
0.0
  0
LINE
  5
1f5
100
AcDbEntity
  8
Ebene_1
 62
7
100
AcDbLine
 10
111.771997
 20
180.994130
 30
0.0
 11
111.771992
 21
180.994136
 31
0.0
  0
SPLINE
  5
1f6
100
AcDbEntity
  8
Ebene_1
 62
7
100
AcDbSpline
 70
8
 71
3
 72
8
 73
4
 74
0
 40
0
 40
0
 40
0
 40
0
 40
1
 40
1
 40
1
 40
1
 10
107.663197
 20
180.972956
 30
0.0
 10
107.679184
 20
180.965983
 30
0.0
 10
107.695207
 20
180.959095
 30
0.0
 10
107.711266
 20
180.952290
 30
0.0
  0
LINE
  5
1f7
100
AcDbEntity
  8
Ebene_1
 62
7
100
AcDbLine
 10
107.711266
 20
180.952290
 30
0.0
 11
86.097082
 21
131.005467
 31
0.0
  0
SPLINE
  5
1f8
100
AcDbEntity
  8
Ebene_1
 62
7
100
AcDbSpline
 70
8
 71
3
 72
8
 73
4
 74
0
 40
0
 40
0
 40
0
 40
0
 40
1
 40
1
 40
1
 40
1
 10
86.097082
 20
131.005467
 30
0.0
 10
85.908354
 20
131.091298
 30
0.0
 10
85.720077
 20
131.178116
 30
0.0
 10
85.532258
 20
131.265918
 30
0.0
  0
LINE
  5
1f9
100
AcDbEntity
  8
Ebene_1
 62
7
100
AcDbLine
 10
85.532258
 20
131.265918
 30
0.0
 11
107.663197
 21
180.972956
 31
0.0
  0
LINE
  5
1fa
100
AcDbEntity
  8
Ebene_1
 62
7
100
AcDbLine
 10
111.285714
 20
180.801906
 30
0.0
 11
128.652611
 21
129.197308
 31
0.0
  0
SPLINE
  5
1fb
100
AcDbEntity
  8
Ebene_1
 62
7
100
AcDbSpline
 70
8
 71
3
 72
8
 73
4
 74
0
 40
0
 40
0
 40
0
 40
0
 40
1
 40
1
 40
1
 40
1
 10
128.652611
 20
129.197308
 30
0.0
 10
128.455894
 20
129.131163
 30
0.0
 10
128.258832
 20
129.066048
 30
0.0
 10
128.061433
 20
129.001967
 30
0.0
  0
LINE
  5
1fc
100
AcDbEntity
  8
Ebene_1
 62
7
100
AcDbLine
 10
128.061433
 20
129.001967
 30
0.0
 11
111.236624
 21
180.784871
 31
0.0
  0
SPLINE
  5
1fd
100
AcDbEntity
  8
Ebene_1
 62
7
100
AcDbSpline
 70
8
 71
3
 72
8
 73
4
 74
0
 40
0
 40
0
 40
0
 40
0
 40
1
 40
1
 40
1
 40
1
 10
111.236624
 20
180.784871
 30
0.0
 10
111.253019
 20
180.790476
 30
0.0
 10
111.269384
 20
180.796166
 30
0.0
 10
111.285720
 20
180.801941
 30
0.0
  0
LINE
  5
1fe
100
AcDbEntity
  8
Ebene_1
 62
7
100
AcDbLine
 10
111.285720
 20
180.801941
 30
0.0
 11
111.285714
 21
180.801906
 31
0.0
  0
SPLINE
  5
1ff
100
AcDbEntity
  8
Ebene_1
 62
7
100
AcDbSpline
 70
8
 71
3
 72
8
 73
4
 74
0
 40
0
 40
0
 40
0
 40
0
 40
1
 40
1
 40
1
 40
1
 10
108.150502
 20
180.784837
 30
0.0
 10
108.167008
 20
180.778889
 30
0.0
 10
108.183545
 20
180.773027
 30
0.0
 10
108.200112
 20
180.767253
 30
0.0
  0
LINE
  5
200
100
AcDbEntity
  8
Ebene_1
 62
7
100
AcDbLine
 10
108.200112
 20
180.767253
 30
0.0
 11
91.923588
 21
128.829856
 31
0.0
  0
SPLINE
  5
201
100
AcDbEntity
  8
Ebene_1
 62
7
100
AcDbSpline
 70
8
 71
3
 72
8
 73
4
 74
0
 40
0
 40
0
 40
0
 40
0
 40
1
 40
1
 40
1
 40
1
 10
91.923588
 20
128.829856
 30
0.0
 10
91.723651
 20
128.885138
 30
0.0
 10
91.524005
 20
128.941466
 30
0.0
 10
91.324658
 20
128.998839
 30
0.0
  0
LINE
  5
202
100
AcDbEntity
  8
Ebene_1
 62
7
100
AcDbLine
 10
91.324658
 20
128.998839
 30
0.0
 11
108.150502
 21
180.784837
 31
0.0
  0
LINE
  5
203
100
AcDbEntity
  8
Ebene_1
 62
7
100
AcDbLine
 10
110.782904
 20
180.659264
 30
0.0
 11
122.660215
 21
127.525038
 31
0.0
  0
SPLINE
  5
204
100
AcDbEntity
  8
Ebene_1
 62
7
100
AcDbSpline
 70
8
 71
3
 72
8
 73
4
 74
0
 40
0
 40
0
 40
0
 40
0
 40
1
 40
1
 40
1
 40
1
 10
122.660215
 20
127.525038
 30
0.0
 10
122.457707
 20
127.479190
 30
0.0
 10
122.254961
 20
127.434403
 30
0.0
 10
122.051984
 20
127.390680
 30
0.0
  0
LINE
  5
205
100
AcDbEntity
  8
Ebene_1
 62
7
100
AcDbLine
 10
122.051984
 20
127.390680
 30
0.0
 11
110.731741
 21
180.649445
 31
0.0
  0
SPLINE
  5
206
100
AcDbEntity
  8
Ebene_1
 62
7
100
AcDbSpline
 70
8
 71
3
 72
8
 73
4
 74
0
 40
0
 40
0
 40
0
 40
0
 40
1
 40
1
 40
1
 40
1
 10
110.731741
 20
180.649445
 30
0.0
 10
110.748809
 20
180.652629
 30
0.0
 10
110.765859
 20
180.655902
 30
0.0
 10
110.782893
 20
180.659264
 30
0.0
  0
LINE
  5
207
100
AcDbEntity
  8
Ebene_1
 62
7
100
AcDbLine
 10
110.782893
 20
180.659264
 30
0.0
 11
110.782904
 21
180.659264
 31
0.0
  0
SPLINE
  5
208
100
AcDbEntity
  8
Ebene_1
 62
7
100
AcDbSpline
 70
8
 71
3
 72
8
 73
4
 74
0
 40
0
 40
0
 40
0
 40
0
 40
1
 40
1
 40
1
 40
1
 10
108.655385
 20
180.649445
 30
0.0
 10
108.672589
 20
180.646081
 30
0.0
 10
108.689811
 20
180.642808
 30
0.0
 10
108.707050
 20
180.639626
 30
0.0
  0
LINE
  5
209
100
AcDbEntity
  8
Ebene_1
 62
7
100
AcDbLine
 10
108.707050
 20
180.639626
 30
0.0
 11
97.952677
 21
127.306999
 31
0.0
  0
SPLINE
  5
20a
100
AcDbEntity
  8
Ebene_1
 62
7
100
AcDbSpline
 70
8
 71
3
 72
8
 73
4
 74
0
 40
0
 40
0
 40
0
 40
0
 40
1
 40
1
 40
1
 40
1
 10
97.952677
 20
127.306999
 30
0.0
 10
97.749206
 20
127.346415
 30
0.0
 10
97.545943
 20
127.386896
 30
0.0
 10
97.342895
 20
127.428438
 30
0.0
  0
LINE
  5
20b
100
AcDbEntity
  8
Ebene_1
 62
7
100
AcDbLine
 10
97.342895
 20
127.428438
 30
0.0
 11
108.655385
 21
180.649445
 31
0.0
  0
LINE
  5
20c
100
AcDbEntity
  8
Ebene_1
 62
7
100
AcDbLine
 10
110.267169
 20
180.575030
 30
0.0
 11
116.525188
 21
126.487893
 31
0.0
  0
SPLINE
  5
20d
100
AcDbEntity
  8
Ebene_1
 62
7
100
AcDbSpline
 70
8
 71
3
 72
8
 73
4
 74
0
 40
0
 40
0
 40
0
 40
0
 40
1
 40
1
 40
1
 40
1
 10
116.525188
 20
126.487893
 30
0.0
 10
116.319297
 20
126.463044
 30
0.0
 10
116.113278
 20
126.439271
 30
0.0
 10
115.907138
 20
126.416578
 30
0.0
  0
LINE
  5
20e
100
AcDbEntity
  8
Ebene_1
 62
7
100
AcDbLine
 10
115.907138
 20
126.416578
 30
0.0
 11
110.215492
 21
180.568830
 31
0.0
  0
SPLINE
  5
20f
100
AcDbEntity
  8
Ebene_1
 62
7
100
AcDbSpline
 70
8
 71
3
 72
8
 73
4
 74
0
 40
0
 40
0
 40
0
 40
0
 40
1
 40
1
 40
1
 40
1
 10
110.215492
 20
180.568830
 30
0.0
 10
110.232725
 20
180.570814
 30
0.0
 10
110.249947
 20
180.572888
 30
0.0
 10
110.267158
 20
180.575052
 30
0.0
  0
LINE
  5
210
100
AcDbEntity
  8
Ebene_1
 62
7
100
AcDbLine
 10
110.267158
 20
180.575052
 30
0.0
 11
110.267169
 21
180.575030
 31
0.0
  0
SPLINE
  5
211
100
AcDbEntity
  8
Ebene_1
 62
7
100
AcDbSpline
 70
8
 71
3
 72
8
 73
4
 74
0
 40
0
 40
0
 40
0
 40
0
 40
1
 40
1
 40
1
 40
1
 10
109.171634
 20
180.568807
 30
0.0
 10
109.189017
 20
180.566813
 30
0.0
 10
109.206410
 20
180.564910
 30
0.0
 10
109.223813
 20
180.563098
 30
0.0
  0
LINE
  5
212
100
AcDbEntity
  8
Ebene_1
 62
7
100
AcDbLine
 10
109.223813
 20
180.563098
 30
0.0
 11
104.102161
 21
126.382427
 31
0.0
  0
SPLINE
  5
213
100
AcDbEntity
  8
Ebene_1
 62
7
100
AcDbSpline
 70
8
 71
3
 72
8
 73
4
 74
0
 40
0
 40
0
 40
0
 40
0
 40
1
 40
1
 40
1
 40
1
 10
104.102161
 20
126.382427
 30
0.0
 10
103.896018
 20
126.405809
 30
0.0
 10
103.689998
 20
126.430270
 30
0.0
 10
103.484111
 20
126.455809
 30
0.0
  0
LINE
  5
214
100
AcDbEntity
  8
Ebene_1
 62
7
100
AcDbLine
 10
103.484111
 20
126.455809
 30
0.0
 11
109.171634
 21
180.568807
 31
0.0
  0
LINE
  5
215
100
AcDbEntity
  8
Ebene_1
 62
7
100
AcDbLine
 10
109.745753
 20
180.540377
 30
0.0
 11
110.316265
 21
126.097708
 31
0.0
  0
SPLINE
  5
216
100
AcDbEntity
  8
Ebene_1
 62
7
100
AcDbSpline
 70
8
 71
3
 72
8
 73
4
 74
0
 40
0
 40
0
 40
0
 40
0
 40
1
 40
1
 40
1
 40
1
 10
110.316265
 20
126.097708
 30
0.0
 10
110.108714
 20
126.093861
 30
0.0
 10
109.901143
 20
126.091102
 30
0.0
 10
109.693563
 20
126.089430
 30
0.0
  0
LINE
  5
217
100
AcDbEntity
  8
Ebene_1
 62
7
100
AcDbLine
 10
109.693563
 20
126.089430
 30
0.0
 11
109.693563
 21
180.538373
 31
0.0
  0
SPLINE
  5
218
100
AcDbEntity
  8
Ebene_1
 62
7
100
AcDbSpline
 70
8
 71
3
 72
8
 73
4
 74
0
 40
0
 40
0
 40
0
 40
0
 40
1
 40
1
 40
1
 40
1
 10
109.693563
 20
180.538373
 30
0.0
 10
109.710960
 20
180.539043
 30
0.0
 10
109.728353
 20
180.539804
 30
0.0
 10
109.745742
 20
180.540656
 30
0.0
  0
LINE
  5
219
100
AcDbEntity
  8
Ebene_1
 62
7
100
AcDbLine
 10
109.745742
 20
180.540656
 30
0.0
 11
109.745753
 21
180.540377
 31
0.0
  0
ENDSEC
  0
SECTION
  2
OBJECTS
  0
DICTIONARY
  5
C
330
0
100
AcDbDictionary
  3
ACAD_GROUP
350
D
  3
ACAD_MLINESTYLE
350
17
  0
DICTIONARY
  5
D
330
C
100
AcDbDictionary
  0
DICTIONARY
  5
1A
330
C
100
AcDbDictionary
  0
DICTIONARY
  5
17
330
C
100
AcDbDictionary
  3
STANDARD
350
18
  0
DICTIONARY
  5
19
330
C
100
AcDbDictionary
  0
ENDSEC
  0
EOF
