  0
SECTION
  2
HEADER
  9
$ACADVER
  1
AC1014
  9
$HANDSEED
  5
FFFF
  9
$MEASUREMENT
 70
     1
  0
ENDSEC
  0
SECTION
  2
TABLES
  0
TABLE
  2
VPORT
  5
8
330
0
100
AcDbSymbolTable
 70
     4
  0
VPORT
  5
2E
330
8
100
AcDbSymbolTableRecord
100
AcDbViewportTableRecord
  2
*ACTIVE
 70
     0
 10
0.0
 20
0.0
 11
1.0
 21
1.0
 12
210.0
 22
148.5
 13
0.0
 23
0.0
 14
10.0
 24
10.0
 15
10.0
 25
10.0
 16
0.0
 26
0.0
 36
1.0
 17
0.0
 27
0.0
 37
0.0
 40
341.0
 41
1.24
 42
50.0
 43
0.0
 44
0.0
 50
0.0
 51
0.0
 71
     0
 72
   100
 73
     1
 74
     3
 75
     0
 76
     0
 77
     0
 78
     0
  0
ENDTAB
  0
TABLE
  2
LTYPE
  5
5
330
0
100
AcDbSymbolTable
 70
     1
  0
LTYPE
  5
14
330
5
100
AcDbSymbolTableRecord
100
AcDbLinetypeTableRecord
  2
BYBLOCK
 70
     0
  3

 72
    65
 73
     0
 40
0.0
  0
LTYPE
  5
15
330
5
100
AcDbSymbolTableRecord
100
AcDbLinetypeTableRecord
  2
BYLAYER
 70
     0
  3

 72
    65
 73
     0
 40
0.0
  0
LTYPE
  5
16
330
5
100
AcDbSymbolTableRecord
100
AcDbLinetypeTableRecord
  2
CONTINUOUS
 70
     0
  3
Solid line
 72
    65
 73
     0
 40
0.0
  0
ENDTAB
  0
TABLE
  2
LAYER
  5
2
100
AcDbSymbolTable
 70
2
  0
LAYER
  5
50
100
AcDbSymbolTableRecord
100
AcDbLayerTableRecord
  2
0
 70
0
  6
CONTINUOUS
  0
LAYER
  5
51
100
AcDbSymbolTableRecord
100
AcDbLayerTableRecord
  2
Ebene_1
 70
0
  6
CONTINUOUS
  0
ENDTAB
  0
TABLE
  2
STYLE
  5
3
330
0
100
AcDbSymbolTable
 70
     1
  0
STYLE
  5
11
330
3
100
AcDbSymbolTableRecord
100
AcDbTextStyleTableRecord
  2
STANDARD
 70
     0
 40
0.0
 41
1.0
 50
0.0
 71
     0
 42
2.5
  3
txt
  4

  0
ENDTAB
  0
TABLE
  2
VIEW
  5
6
330
0
100
AcDbSymbolTable
 70
     0
  0
ENDTAB
  0
TABLE
  2
UCS
  5
7
330
0
100
AcDbSymbolTable
 70
     0
  0
ENDTAB
  0
TABLE
  2
APPID
  5
9
330
0
100
AcDbSymbolTable
 70
     2
  0
APPID
  5
12
330
9
100
AcDbSymbolTableRecord
100
AcDbRegAppTableRecord
  2
ACAD
 70
     0
  0
ENDTAB
  0
TABLE
  2
DIMSTYLE
  5
A
330
0
100
AcDbSymbolTable
 70
     1
  0
DIMSTYLE
105
27
330
A
100
AcDbSymbolTableRecord
100
AcDbDimStyleTableRecord
  2
ISO-25
 70
     0
  3

  4

  5

  6

  7

 40
1.0
 41
2.5
 42
0.625
 43
3.75
 44
1.25
 45
0.0
 46
0.0
 47
0.0
 48
0.0
140
2.5
141
2.5
142
0.0
143
0.03937007874016
144
1.0
145
0.0
146
1.0
147
0.625
 71
     0
 72
     0
 73
     0
 74
     0
 75
     0
 76
     0
 77
     1
 78
     8
170
     0
171
     3
172
     1
173
     0
174
     0
175
     0
176
     0
177
     0
178
     0
270
     2
271
     2
272
     2
273
     2
274
     3
340
11
275
     0
280
     0
281
     0
282
     0
283
     0
284
     8
285
     0
286
     0
287
     3
288
     0
  0
ENDTAB
  0
TABLE
  2
BLOCK_RECORD
  5
1
330
0
100
AcDbSymbolTable
 70
     1
  0
BLOCK_RECORD
  5
1F
330
1
100
AcDbSymbolTableRecord
100
AcDbBlockTableRecord
  2
*MODEL_SPACE
  0
BLOCK_RECORD
  5
1B
330
1
100
AcDbSymbolTableRecord
100
AcDbBlockTableRecord
  2
*PAPER_SPACE
  0
ENDTAB
  0
ENDSEC
  0
SECTION
  2
BLOCKS
  0
BLOCK
  5
20
330
1F
100
AcDbEntity
  8
0
100
AcDbBlockBegin
  2
*MODEL_SPACE
 70
     0
 10
0.0
 20
0.0
 30
0.0
  3
*MODEL_SPACE
  1

  0
ENDBLK
  5
21
330
1F
100
AcDbEntity
  8
0
100
AcDbBlockEnd
  0
BLOCK
  5
1C
330
1B
100
AcDbEntity
 67
     1
  8
0
100
AcDbBlockBegin
  2
*PAPER_SPACE
  1

  0
ENDBLK
  5
1D
330
1B
100
AcDbEntity
 67
     1
  8
0
100
AcDbBlockEnd
  0
ENDSEC
  0
SECTION
  2
ENTITIES
  0
SPLINE
  5
100
100
AcDbEntity
  8
Ebene_1
 62
7
100
AcDbSpline
 70
8
 71
3
 72
8
 73
4
 74
0
 40
0
 40
0
 40
0
 40
0
 40
1
 40
1
 40
1
 40
1
 10
101.248080
 20
242.873071
 30
0.0
 10
84.016699
 20
242.873030
 30
0.0
 10
67.491090
 20
236.027836
 30
0.0
 10
55.306712
 20
223.843361
 30
0.0
  0
SPLINE
  5
101
100
AcDbEntity
  8
Ebene_1
 62
7
100
AcDbSpline
 70
8
 71
3
 72
8
 73
4
 74
0
 40
0
 40
0
 40
0
 40
0
 40
1
 40
1
 40
1
 40
1
 10
55.306712
 20
223.843361
 30
0.0
 10
43.122335
 20
211.658885
 30
0.0
 10
36.277274
 20
195.133221
 30
0.0
 10
36.277372
 20
177.901840
 30
0.0
  0
SPLINE
  5
102
100
AcDbEntity
  8
Ebene_1
 62
7
100
AcDbSpline
 70
8
 71
3
 72
8
 73
4
 74
0
 40
0
 40
0
 40
0
 40
0
 40
1
 40
1
 40
1
 40
1
 10
36.277372
 20
177.901840
 30
0.0
 10
36.277456
 20
142.019543
 30
0.0
 10
65.365783
 20
112.931216
 30
0.0
 10
101.248080
 20
112.931130
 30
0.0
  0
SPLINE
  5
103
100
AcDbEntity
  8
Ebene_1
 62
7
100
AcDbSpline
 70
8
 71
3
 72
8
 73
4
 74
0
 40
0
 40
0
 40
0
 40
0
 40
1
 40
1
 40
1
 40
1
 10
101.248080
 20
112.931130
 30
0.0
 10
118.479461
 20
112.931033
 30
0.0
 10
135.005126
 20
119.776094
 30
0.0
 10
147.189601
 20
131.960471
 30
0.0
  0
SPLINE
  5
104
100
AcDbEntity
  8
Ebene_1
 62
7
100
AcDbSpline
 70
8
 71
3
 72
8
 73
4
 74
0
 40
0
 40
0
 40
0
 40
0
 40
1
 40
1
 40
1
 40
1
 10
147.189601
 20
131.960471
 30
0.0
 10
159.374076
 20
144.144849
 30
0.0
 10
166.219269
 20
160.670459
 30
0.0
 10
166.219310
 20
177.901840
 30
0.0
  0
SPLINE
  5
105
100
AcDbEntity
  8
Ebene_1
 62
7
100
AcDbSpline
 70
8
 71
3
 72
8
 73
4
 74
0
 40
0
 40
0
 40
0
 40
0
 40
1
 40
1
 40
1
 40
1
 10
166.219310
 20
177.901840
 30
0.0
 10
166.219408
 20
195.133312
 30
0.0
 10
159.374275
 20
211.659055
 30
0.0
 10
147.189785
 20
223.843545
 30
0.0
  0
SPLINE
  5
106
100
AcDbEntity
  8
Ebene_1
 62
7
100
AcDbSpline
 70
8
 71
3
 72
8
 73
4
 74
0
 40
0
 40
0
 40
0
 40
0
 40
1
 40
1
 40
1
 40
1
 10
147.189785
 20
223.843545
 30
0.0
 10
135.005295
 20
236.028036
 30
0.0
 10
118.479552
 20
242.873168
 30
0.0
 10
101.248080
 20
242.873071
 30
0.0
  0
LINE
  5
107
100
AcDbEntity
  8
Ebene_1
 62
7
100
AcDbLine
 10
101.248080
 20
242.873071
 30
0.0
 11
101.248080
 21
242.873071
 31
0.0
  0
LINE
  5
108
100
AcDbEntity
  8
Ebene_1
 62
7
100
AcDbLine
 10
101.248080
 20
238.406160
 30
0.0
 11
101.248080
 21
238.405644
 31
0.0
  0
LINE
  5
109
100
AcDbEntity
  8
Ebene_1
 62
7
100
AcDbLine
 10
101.248080
 20
238.405644
 30
0.0
 11
101.248080
 21
187.891930
 31
0.0
  0
SPLINE
  5
10a
100
AcDbEntity
  8
Ebene_1
 62
7
100
AcDbSpline
 70
8
 71
3
 72
8
 73
4
 74
0
 40
0
 40
0
 40
0
 40
0
 40
1
 40
1
 40
1
 40
1
 10
101.248080
 20
187.891930
 30
0.0
 10
101.190011
 20
187.890103
 30
0.0
 10
101.131959
 20
187.887770
 30
0.0
 10
101.073930
 20
187.884930
 30
0.0
  0
LINE
  5
10b
100
AcDbEntity
  8
Ebene_1
 62
7
100
AcDbLine
 10
101.073930
 20
187.884930
 30
0.0
 11
100.192850
 21
238.364539
 31
0.0
  0
SPLINE
  5
10c
100
AcDbEntity
  8
Ebene_1
 62
7
100
AcDbSpline
 70
8
 71
3
 72
8
 73
4
 74
0
 40
0
 40
0
 40
0
 40
0
 40
1
 40
1
 40
1
 40
1
 10
100.192850
 20
238.364539
 30
0.0
 10
100.544466
 20
238.381388
 30
0.0
 10
100.896223
 20
238.395169
 30
0.0
 10
101.248080
 20
238.405879
 30
0.0
  0
LINE
  5
10d
100
AcDbEntity
  8
Ebene_1
 62
7
100
AcDbLine
 10
101.248080
 20
238.405879
 30
0.0
 11
101.248080
 21
238.406160
 31
0.0
  0
SPLINE
  5
10e
100
AcDbEntity
  8
Ebene_1
 62
7
100
AcDbSpline
 70
8
 71
3
 72
8
 73
4
 74
0
 40
0
 40
0
 40
0
 40
0
 40
1
 40
1
 40
1
 40
1
 10
106.520110
 20
238.157080
 30
0.0
 10
106.869971
 20
238.118789
 30
0.0
 10
107.219491
 20
238.077447
 30
0.0
 10
107.568630
 20
238.033057
 30
0.0
  0
LINE
  5
10f
100
AcDbEntity
  8
Ebene_1
 62
7
100
AcDbLine
 10
107.568630
 20
238.033057
 30
0.0
 11
102.292460
 21
187.837150
 31
0.0
  0
SPLINE
  5
110
100
AcDbEntity
  8
Ebene_1
 62
7
100
AcDbSpline
 70
8
 71
3
 72
8
 73
4
 74
0
 40
0
 40
0
 40
0
 40
0
 40
1
 40
1
 40
1
 40
1
 10
102.292460
 20
187.837150
 30
0.0
 10
102.234631
 20
187.842988
 30
0.0
 10
102.176752
 20
187.848322
 30
0.0
 10
102.118830
 20
187.853150
 30
0.0
  0
LINE
  5
111
100
AcDbEntity
  8
Ebene_1
 62
7
100
AcDbLine
 10
102.118830
 20
187.853150
 30
0.0
 11
106.520110
 21
238.157080
 31
0.0
  0
LINE
  5
112
100
AcDbEntity
  8
Ebene_1
 62
7
100
AcDbLine
 10
94.928056
 20
238.033057
 30
0.0
 11
100.204740
 21
187.830440
 31
0.0
  0
SPLINE
  5
113
100
AcDbEntity
  8
Ebene_1
 62
7
100
AcDbSpline
 70
8
 71
3
 72
8
 73
4
 74
0
 40
0
 40
0
 40
0
 40
0
 40
1
 40
1
 40
1
 40
1
 10
100.204740
 20
187.830440
 30
0.0
 10
100.147151
 20
187.824407
 30
0.0
 10
100.089615
 20
187.817873
 30
0.0
 10
100.032140
 20
187.810840
 30
0.0
  0
LINE
  5
114
100
AcDbEntity
  8
Ebene_1
 62
7
100
AcDbLine
 10
100.032140
 20
187.810840
 30
0.0
 11
93.880575
 21
237.909550
 31
0.0
  0
SPLINE
  5
115
100
AcDbEntity
  8
Ebene_1
 62
7
100
AcDbSpline
 70
8
 71
3
 72
8
 73
4
 74
0
 40
0
 40
0
 40
0
 40
0
 40
1
 40
1
 40
1
 40
1
 10
93.880575
 20
237.909550
 30
0.0
 10
94.229370
 20
237.953762
 30
0.0
 10
94.578543
 20
237.994932
 30
0.0
 10
94.928056
 20
238.033057
 30
0.0
  0
LINE
  5
116
100
AcDbEntity
  8
Ebene_1
 62
7
100
AcDbLine
 10
94.928056
 20
238.033057
 30
0.0
 11
94.928056
 21
238.033057
 31
0.0
  0
SPLINE
  5
117
100
AcDbEntity
  8
Ebene_1
 62
7
100
AcDbSpline
 70
8
 71
3
 72
8
 73
4
 74
0
 40
0
 40
0
 40
0
 40
0
 40
1
 40
1
 40
1
 40
1
 10
112.784330
 20
237.249125
 30
0.0
 10
113.129776
 20
237.183403
 30
0.0
 10
113.474642
 20
237.114671
 30
0.0
 10
113.818890
 20
237.042936
 30
0.0
  0
LINE
  5
118
100
AcDbEntity
  8
Ebene_1
 62
7
100
AcDbLine
 10
113.818890
 20
237.042936
 30
0.0
 11
103.324960
 21
187.673340
 31
0.0
  0
SPLINE
  5
119
100
AcDbEntity
  8
Ebene_1
 62
7
100
AcDbSpline
 70
8
 71
3
 72
8
 73
4
 74
0
 40
0
 40
0
 40
0
 40
0
 40
1
 40
1
 40
1
 40
1
 10
103.324960
 20
187.673340
 30
0.0
 10
103.268217
 20
187.685201
 30
0.0
 10
103.211371
 20
187.696568
 30
0.0
 10
103.154430
 20
187.707440
 30
0.0
  0
LINE
  5
11a
100
AcDbEntity
  8
Ebene_1
 62
7
100
AcDbLine
 10
103.154430
 20
187.707440
 30
0.0
 11
112.784330
 21
237.249125
 31
0.0
  0
LINE
  5
11b
100
AcDbEntity
  8
Ebene_1
 62
7
100
AcDbLine
 10
88.677791
 20
237.042936
 30
0.0
 11
99.172241
 21
187.669210
 31
0.0
  0
SPLINE
  5
11c
100
AcDbEntity
  8
Ebene_1
 62
7
100
AcDbSpline
 70
8
 71
3
 72
8
 73
4
 74
0
 40
0
 40
0
 40
0
 40
0
 40
1
 40
1
 40
1
 40
1
 10
99.172241
 20
187.669210
 30
0.0
 10
99.115125
 20
187.658175
 30
0.0
 10
99.058107
 20
187.646641
 30
0.0
 10
99.001192
 20
187.634610
 30
0.0
  0
LINE
  5
11d
100
AcDbEntity
  8
Ebene_1
 62
7
100
AcDbLine
 10
99.001192
 20
187.634610
 30
0.0
 11
87.642196
 21
236.836747
 31
0.0
  0
SPLINE
  5
11e
100
AcDbEntity
  8
Ebene_1
 62
7
100
AcDbSpline
 70
8
 71
3
 72
8
 73
4
 74
0
 40
0
 40
0
 40
0
 40
0
 40
1
 40
1
 40
1
 40
1
 10
87.642196
 20
236.836747
 30
0.0
 10
87.986788
 20
236.908488
 30
0.0
 10
88.331999
 20
236.977220
 30
0.0
 10
88.677791
 20
237.042936
 30
0.0
  0
LINE
  5
11f
100
AcDbEntity
  8
Ebene_1
 62
7
100
AcDbLine
 10
88.677791
 20
237.042936
 30
0.0
 11
88.677791
 21
237.042936
 31
0.0
  0
SPLINE
  5
120
100
AcDbEntity
  8
Ebene_1
 62
7
100
AcDbSpline
 70
8
 71
3
 72
8
 73
4
 74
0
 40
0
 40
0
 40
0
 40
0
 40
1
 40
1
 40
1
 40
1
 10
118.928660
 20
235.731905
 30
0.0
 10
119.268313
 20
235.639091
 30
0.0
 10
119.607149
 20
235.543314
 30
0.0
 10
119.945130
 20
235.444584
 30
0.0
  0
LINE
  5
121
100
AcDbEntity
  8
Ebene_1
 62
7
100
AcDbLine
 10
119.945130
 20
235.444584
 30
0.0
 11
104.335230
 21
187.402560
 31
0.0
  0
SPLINE
  5
122
100
AcDbEntity
  8
Ebene_1
 62
7
100
AcDbSpline
 70
8
 71
3
 72
8
 73
4
 74
0
 40
0
 40
0
 40
0
 40
0
 40
1
 40
1
 40
1
 40
1
 10
104.335230
 20
187.402560
 30
0.0
 10
104.279920
 20
187.420444
 30
0.0
 10
104.224454
 20
187.437844
 30
0.0
 10
104.168840
 20
187.454760
 30
0.0
  0
LINE
  5
123
100
AcDbEntity
  8
Ebene_1
 62
7
100
AcDbLine
 10
104.168840
 20
187.454760
 30
0.0
 11
118.928660
 21
235.731905
 31
0.0
  0
LINE
  5
124
100
AcDbEntity
  8
Ebene_1
 62
7
100
AcDbLine
 10
82.551550
 20
235.444584
 30
0.0
 11
98.162484
 21
187.398940
 31
0.0
  0
SPLINE
  5
125
100
AcDbEntity
  8
Ebene_1
 62
7
100
AcDbSpline
 70
8
 71
3
 72
8
 73
4
 74
0
 40
0
 40
0
 40
0
 40
0
 40
1
 40
1
 40
1
 40
1
 10
98.162484
 20
187.398940
 30
0.0
 10
98.107367
 20
187.380121
 30
0.0
 10
98.052416
 20
187.360820
 30
0.0
 10
97.997636
 20
187.341040
 30
0.0
  0
LINE
  5
126
100
AcDbEntity
  8
Ebene_1
 62
7
100
AcDbLine
 10
97.997636
 20
187.341040
 30
0.0
 11
81.560913
 21
235.079232
 31
0.0
  0
SPLINE
  5
127
100
AcDbEntity
  8
Ebene_1
 62
7
100
AcDbSpline
 70
8
 71
3
 72
8
 73
4
 74
0
 40
0
 40
0
 40
0
 40
0
 40
1
 40
1
 40
1
 40
1
 10
81.560913
 20
235.079232
 30
0.0
 10
81.890056
 20
235.203895
 30
0.0
 10
82.220281
 20
235.325684
 30
0.0
 10
82.551550
 20
235.444584
 30
0.0
  0
LINE
  5
128
100
AcDbEntity
  8
Ebene_1
 62
7
100
AcDbLine
 10
82.551550
 20
235.444584
 30
0.0
 11
82.551550
 21
235.444584
 31
0.0
  0
SPLINE
  5
129
100
AcDbEntity
  8
Ebene_1
 62
7
100
AcDbSpline
 70
8
 71
3
 72
8
 73
4
 74
0
 40
0
 40
0
 40
0
 40
0
 40
1
 40
1
 40
1
 40
1
 10
124.881780
 20
233.579582
 30
0.0
 10
125.202768
 20
233.434925
 30
0.0
 10
125.522486
 20
233.287469
 30
0.0
 10
125.840900
 20
233.137231
 30
0.0
  0
LINE
  5
12a
100
AcDbEntity
  8
Ebene_1
 62
7
100
AcDbLine
 10
125.840900
 20
233.137231
 30
0.0
 11
105.311400
 21
187.027380
 31
0.0
  0
SPLINE
  5
12b
100
AcDbEntity
  8
Ebene_1
 62
7
100
AcDbSpline
 70
8
 71
3
 72
8
 73
4
 74
0
 40
0
 40
0
 40
0
 40
0
 40
1
 40
1
 40
1
 40
1
 10
105.311400
 20
187.027380
 30
0.0
 10
105.258205
 20
187.051113
 30
0.0
 10
105.204802
 20
187.074381
 30
0.0
 10
105.151200
 20
187.097180
 30
0.0
  0
LINE
  5
12c
100
AcDbEntity
  8
Ebene_1
 62
7
100
AcDbLine
 10
105.151200
 20
187.097180
 30
0.0
 11
124.881780
 21
233.579582
 31
0.0
  0
LINE
  5
12d
100
AcDbEntity
  8
Ebene_1
 62
7
100
AcDbLine
 10
76.655786
 20
233.137231
 30
0.0
 11
97.187349
 21
187.022220
 31
0.0
  0
SPLINE
  5
12e
100
AcDbEntity
  8
Ebene_1
 62
7
100
AcDbSpline
 70
8
 71
3
 72
8
 73
4
 74
0
 40
0
 40
0
 40
0
 40
0
 40
1
 40
1
 40
1
 40
1
 10
97.187349
 20
187.022220
 30
0.0
 10
97.133920
 20
186.999418
 30
0.0
 10
97.080692
 20
186.976150
 30
0.0
 10
97.027669
 20
186.952420
 30
0.0
  0
LINE
  5
12f
100
AcDbEntity
  8
Ebene_1
 62
7
100
AcDbLine
 10
97.027669
 20
186.952420
 30
0.0
 11
75.697705
 21
232.695398
 31
0.0
  0
SPLINE
  5
130
100
AcDbEntity
  8
Ebene_1
 62
7
100
AcDbSpline
 70
8
 71
3
 72
8
 73
4
 74
0
 40
0
 40
0
 40
0
 40
0
 40
1
 40
1
 40
1
 40
1
 10
75.697705
 20
232.695398
 30
0.0
 10
76.015775
 20
232.845457
 30
0.0
 10
76.335148
 20
232.992741
 30
0.0
 10
76.655786
 20
233.137231
 30
0.0
  0
LINE
  5
131
100
AcDbEntity
  8
Ebene_1
 62
7
100
AcDbLine
 10
76.655786
 20
233.137231
 30
0.0
 11
76.655786
 21
233.137231
 31
0.0
  0
SPLINE
  5
132
100
AcDbEntity
  8
Ebene_1
 62
7
100
AcDbSpline
 70
8
 71
3
 72
8
 73
4
 74
0
 40
0
 40
0
 40
0
 40
0
 40
1
 40
1
 40
1
 40
1
 10
130.558960
 20
230.779753
 30
0.0
 10
130.867410
 20
230.610523
 30
0.0
 10
131.174379
 20
230.438606
 30
0.0
 10
131.479830
 20
230.264022
 30
0.0
  0
LINE
  5
133
100
AcDbEntity
  8
Ebene_1
 62
7
100
AcDbLine
 10
131.479830
 20
230.264022
 30
0.0
 11
106.242610
 21
186.552990
 31
0.0
  0
SPLINE
  5
134
100
AcDbEntity
  8
Ebene_1
 62
7
100
AcDbSpline
 70
8
 71
3
 72
8
 73
4
 74
0
 40
0
 40
0
 40
0
 40
0
 40
1
 40
1
 40
1
 40
1
 10
106.242610
 20
186.552990
 30
0.0
 10
106.192390
 20
186.582029
 30
0.0
 10
106.141918
 20
186.610630
 30
0.0
 10
106.091200
 20
186.638790
 30
0.0
  0
LINE
  5
135
100
AcDbEntity
  8
Ebene_1
 62
7
100
AcDbLine
 10
106.091200
 20
186.638790
 30
0.0
 11
130.558960
 21
230.779753
 31
0.0
  0
LINE
  5
136
100
AcDbEntity
  8
Ebene_1
 62
7
100
AcDbLine
 10
71.017371
 20
230.264539
 30
0.0
 11
96.253556
 21
186.553510
 31
0.0
  0
SPLINE
  5
137
100
AcDbEntity
  8
Ebene_1
 62
7
100
AcDbSpline
 70
8
 71
3
 72
8
 73
4
 74
0
 40
0
 40
0
 40
0
 40
0
 40
1
 40
1
 40
1
 40
1
 10
96.253556
 20
186.553510
 30
0.0
 10
96.204021
 20
186.522941
 30
0.0
 10
96.154755
 20
186.491940
 30
0.0
 10
96.105762
 20
186.460510
 30
0.0
  0
LINE
  5
138
100
AcDbEntity
  8
Ebene_1
 62
7
100
AcDbLine
 10
96.105762
 20
186.460510
 30
0.0
 11
70.095980
 21
229.748291
 31
0.0
  0
SPLINE
  5
139
100
AcDbEntity
  8
Ebene_1
 62
7
100
AcDbSpline
 70
8
 71
3
 72
8
 73
4
 74
0
 40
0
 40
0
 40
0
 40
0
 40
1
 40
1
 40
1
 40
1
 10
70.095980
 20
229.748291
 30
0.0
 10
70.401603
 20
229.923051
 30
0.0
 10
70.708745
 20
230.095140
 30
0.0
 10
71.017371
 20
230.264539
 30
0.0
  0
LINE
  5
13a
100
AcDbEntity
  8
Ebene_1
 62
7
100
AcDbLine
 10
71.017371
 20
230.264539
 30
0.0
 11
71.017371
 21
230.264539
 31
0.0
  0
SPLINE
  5
13b
100
AcDbEntity
  8
Ebene_1
 62
7
100
AcDbSpline
 70
8
 71
3
 72
8
 73
4
 74
0
 40
0
 40
0
 40
0
 40
0
 40
1
 40
1
 40
1
 40
1
 10
135.933300
 20
227.437838
 30
0.0
 10
136.227836
 20
227.244717
 30
0.0
 10
136.520681
 20
227.049028
 30
0.0
 10
136.811800
 20
226.850793
 30
0.0
  0
LINE
  5
13c
100
AcDbEntity
  8
Ebene_1
 62
7
100
AcDbLine
 10
136.811800
 20
226.850793
 30
0.0
 11
107.119560
 21
185.983520
 31
0.0
  0
SPLINE
  5
13d
100
AcDbEntity
  8
Ebene_1
 62
7
100
AcDbSpline
 70
8
 71
3
 72
8
 73
4
 74
0
 40
0
 40
0
 40
0
 40
0
 40
1
 40
1
 40
1
 40
1
 10
107.119560
 20
185.983520
 30
0.0
 10
107.072658
 20
186.017694
 30
0.0
 10
107.025460
 20
186.051459
 30
0.0
 10
106.977970
 20
186.084810
 30
0.0
  0
LINE
  5
13e
100
AcDbEntity
  8
Ebene_1
 62
7
100
AcDbLine
 10
106.977970
 20
186.084810
 30
0.0
 11
135.933300
 21
227.437838
 31
0.0
  0
LINE
  5
13f
100
AcDbEntity
  8
Ebene_1
 62
7
100
AcDbLine
 10
65.684880
 20
226.850793
 30
0.0
 11
95.380225
 21
185.978350
 31
0.0
  0
SPLINE
  5
140
100
AcDbEntity
  8
Ebene_1
 62
7
100
AcDbSpline
 70
8
 71
3
 72
8
 73
4
 74
0
 40
0
 40
0
 40
0
 40
0
 40
1
 40
1
 40
1
 40
1
 10
95.380225
 20
185.978350
 30
0.0
 10
95.333246
 20
185.944480
 30
0.0
 10
95.286563
 20
185.910202
 30
0.0
 10
95.240181
 20
185.875520
 30
0.0
  0
LINE
  5
141
100
AcDbEntity
  8
Ebene_1
 62
7
100
AcDbLine
 10
95.240181
 20
185.875520
 30
0.0
 11
64.855473
 21
226.197087
 31
0.0
  0
SPLINE
  5
142
100
AcDbEntity
  8
Ebene_1
 62
7
100
AcDbSpline
 70
8
 71
3
 72
8
 73
4
 74
0
 40
0
 40
0
 40
0
 40
0
 40
1
 40
1
 40
1
 40
1
 10
64.855473
 20
226.197087
 30
0.0
 10
65.130035
 20
226.417398
 30
0.0
 10
65.406515
 20
226.635308
 30
0.0
 10
65.684880
 20
226.850793
 30
0.0
  0
LINE
  5
143
100
AcDbEntity
  8
Ebene_1
 62
7
100
AcDbLine
 10
65.684880
 20
226.850793
 30
0.0
 11
65.684880
 21
226.850793
 31
0.0
  0
SPLINE
  5
144
100
AcDbEntity
  8
Ebene_1
 62
7
100
AcDbSpline
 70
8
 71
3
 72
8
 73
4
 74
0
 40
0
 40
0
 40
0
 40
0
 40
1
 40
1
 40
1
 40
1
 10
140.930420
 20
223.551253
 30
0.0
 10
141.190877
 20
223.314766
 30
0.0
 10
141.449267
 20
223.076012
 30
0.0
 10
141.705560
 20
222.835018
 30
0.0
  0
LINE
  5
145
100
AcDbEntity
  8
Ebene_1
 62
7
100
AcDbLine
 10
141.705560
 20
222.835018
 30
0.0
 11
107.932430
 21
185.325160
 31
0.0
  0
SPLINE
  5
146
100
AcDbEntity
  8
Ebene_1
 62
7
100
AcDbSpline
 70
8
 71
3
 72
8
 73
4
 74
0
 40
0
 40
0
 40
0
 40
0
 40
1
 40
1
 40
1
 40
1
 10
107.932430
 20
185.325160
 30
0.0
 10
107.889188
 20
185.364127
 30
0.0
 10
107.845606
 20
185.402715
 30
0.0
 10
107.801690
 20
185.440920
 30
0.0
  0
LINE
  5
147
100
AcDbEntity
  8
Ebene_1
 62
7
100
AcDbLine
 10
107.801690
 20
185.440920
 30
0.0
 11
140.930420
 21
223.551253
 31
0.0
  0
LINE
  5
148
100
AcDbEntity
  8
Ebene_1
 62
7
100
AcDbLine
 10
60.791121
 20
222.834501
 30
0.0
 11
94.566321
 21
185.322580
 31
0.0
  0
SPLINE
  5
149
100
AcDbEntity
  8
Ebene_1
 62
7
100
AcDbSpline
 70
8
 71
3
 72
8
 73
4
 74
0
 40
0
 40
0
 40
0
 40
0
 40
1
 40
1
 40
1
 40
1
 10
94.566321
 20
185.322580
 30
0.0
 10
94.522581
 20
185.284718
 30
0.0
 10
94.479171
 20
185.246476
 30
0.0
 10
94.436096
 20
185.207860
 30
0.0
  0
LINE
  5
14a
100
AcDbEntity
  8
Ebene_1
 62
7
100
AcDbLine
 10
94.436096
 20
185.207860
 30
0.0
 11
60.015975
 21
222.118266
 31
0.0
  0
SPLINE
  5
14b
100
AcDbEntity
  8
Ebene_1
 62
7
100
AcDbSpline
 70
8
 71
3
 72
8
 73
4
 74
0
 40
0
 40
0
 40
0
 40
0
 40
1
 40
1
 40
1
 40
1
 10
60.015975
 20
222.118266
 30
0.0
 10
60.272270
 20
222.359260
 30
0.0
 10
60.530662
 20
222.598014
 30
0.0
 10
60.791121
 20
222.834501
 30
0.0
  0
LINE
  5
14c
100
AcDbEntity
  8
Ebene_1
 62
7
100
AcDbLine
 10
60.791121
 20
222.834501
 30
0.0
 11
60.791121
 21
222.834501
 31
0.0
  0
SPLINE
  5
14d
100
AcDbEntity
  8
Ebene_1
 62
7
100
AcDbSpline
 70
8
 71
3
 72
8
 73
4
 74
0
 40
0
 40
0
 40
0
 40
0
 40
1
 40
1
 40
1
 40
1
 10
145.464510
 20
219.134469
 30
0.0
 10
145.705502
 20
218.878174
 30
0.0
 10
145.944255
 20
218.619782
 30
0.0
 10
146.180740
 20
218.359322
 30
0.0
  0
LINE
  5
14e
100
AcDbEntity
  8
Ebene_1
 62
7
100
AcDbLine
 10
146.180740
 20
218.359322
 30
0.0
 11
108.671400
 21
184.586190
 31
0.0
  0
SPLINE
  5
14f
100
AcDbEntity
  8
Ebene_1
 62
7
100
AcDbSpline
 70
8
 71
3
 72
8
 73
4
 74
0
 40
0
 40
0
 40
0
 40
0
 40
1
 40
1
 40
1
 40
1
 10
108.671400
 20
184.586190
 30
0.0
 10
108.632844
 20
184.629418
 30
0.0
 10
108.593912
 20
184.672309
 30
0.0
 10
108.554610
 20
184.714860
 30
0.0
  0
LINE
  5
150
100
AcDbEntity
  8
Ebene_1
 62
7
100
AcDbLine
 10
108.554610
 20
184.714860
 30
0.0
 11
145.464510
 21
219.134469
 31
0.0
  0
LINE
  5
151
100
AcDbEntity
  8
Ebene_1
 62
7
100
AcDbLine
 10
56.315942
 20
218.359322
 30
0.0
 11
93.827865
 21
184.583610
 31
0.0
  0
SPLINE
  5
152
100
AcDbEntity
  8
Ebene_1
 62
7
100
AcDbSpline
 70
8
 71
3
 72
8
 73
4
 74
0
 40
0
 40
0
 40
0
 40
0
 40
1
 40
1
 40
1
 40
1
 10
93.827865
 20
184.583610
 30
0.0
 10
93.789412
 20
184.539844
 30
0.0
 10
93.751342
 20
184.495742
 30
0.0
 10
93.713660
 20
184.451310
 30
0.0
  0
LINE
  5
153
100
AcDbEntity
  8
Ebene_1
 62
7
100
AcDbLine
 10
93.713660
 20
184.451310
 30
0.0
 11
55.599190
 21
217.584176
 31
0.0
  0
SPLINE
  5
154
100
AcDbEntity
  8
Ebene_1
 62
7
100
AcDbSpline
 70
8
 71
3
 72
8
 73
4
 74
0
 40
0
 40
0
 40
0
 40
0
 40
1
 40
1
 40
1
 40
1
 10
55.599190
 20
217.584176
 30
0.0
 10
55.835848
 20
217.844638
 30
0.0
 10
56.074775
 20
218.103029
 30
0.0
 10
56.315942
 20
218.359322
 30
0.0
  0
LINE
  5
155
100
AcDbEntity
  8
Ebene_1
 62
7
100
AcDbLine
 10
56.315942
 20
218.359322
 30
0.0
 11
56.315942
 21
218.359322
 31
0.0
  0
SPLINE
  5
156
100
AcDbEntity
  8
Ebene_1
 62
7
100
AcDbSpline
 70
8
 71
3
 72
8
 73
4
 74
0
 40
0
 40
0
 40
0
 40
0
 40
1
 40
1
 40
1
 40
1
 10
149.543330
 20
214.294971
 30
0.0
 10
149.763639
 20
214.020409
 30
0.0
 10
149.981547
 20
213.743929
 30
0.0
 10
150.197030
 20
213.465564
 30
0.0
  0
LINE
  5
157
100
AcDbEntity
  8
Ebene_1
 62
7
100
AcDbLine
 10
150.197030
 20
213.465564
 30
0.0
 11
109.330280
 21
183.773840
 31
0.0
  0
SPLINE
  5
158
100
AcDbEntity
  8
Ebene_1
 62
7
100
AcDbSpline
 70
8
 71
3
 72
8
 73
4
 74
0
 40
0
 40
0
 40
0
 40
0
 40
1
 40
1
 40
1
 40
1
 10
109.330280
 20
183.773840
 30
0.0
 10
109.296067
 20
183.820995
 30
0.0
 10
109.261443
 20
183.867850
 30
0.0
 10
109.226410
 20
183.914400
 30
0.0
  0
LINE
  5
159
100
AcDbEntity
  8
Ebene_1
 62
7
100
AcDbLine
 10
109.226410
 20
183.914400
 30
0.0
 11
149.543330
 21
214.294971
 31
0.0
  0
LINE
  5
15a
100
AcDbEntity
  8
Ebene_1
 62
7
100
AcDbLine
 10
52.299133
 20
213.465564
 30
0.0
 11
93.171574
 21
183.769700
 31
0.0
  0
SPLINE
  5
15b
100
AcDbEntity
  8
Ebene_1
 62
7
100
AcDbSpline
 70
8
 71
3
 72
8
 73
4
 74
0
 40
0
 40
0
 40
0
 40
0
 40
1
 40
1
 40
1
 40
1
 10
93.171574
 20
183.769700
 30
0.0
 10
93.136717
 20
183.723321
 30
0.0
 10
93.102265
 20
183.676639
 30
0.0
 10
93.068221
 20
183.629660
 30
0.0
  0
LINE
  5
15c
100
AcDbEntity
  8
Ebene_1
 62
7
100
AcDbLine
 10
93.068221
 20
183.629660
 30
0.0
 11
51.712606
 21
212.587581
 31
0.0
  0
SPLINE
  5
15d
100
AcDbEntity
  8
Ebene_1
 62
7
100
AcDbSpline
 70
8
 71
3
 72
8
 73
4
 74
0
 40
0
 40
0
 40
0
 40
0
 40
1
 40
1
 40
1
 40
1
 10
51.712606
 20
212.587581
 30
0.0
 10
51.905558
 20
212.881942
 30
0.0
 10
52.101074
 20
213.174615
 30
0.0
 10
52.299133
 20
213.465564
 30
0.0
  0
LINE
  5
15e
100
AcDbEntity
  8
Ebene_1
 62
7
100
AcDbLine
 10
52.299133
 20
213.465564
 30
0.0
 11
52.299133
 21
213.465564
 31
0.0
  0
SPLINE
  5
15f
100
AcDbEntity
  8
Ebene_1
 62
7
100
AcDbSpline
 70
8
 71
3
 72
8
 73
4
 74
0
 40
0
 40
0
 40
0
 40
0
 40
1
 40
1
 40
1
 40
1
 10
153.095050
 20
209.054464
 30
0.0
 10
153.269634
 20
208.749011
 30
0.0
 10
153.441551
 20
208.442042
 30
0.0
 10
153.610780
 20
208.133590
 30
0.0
  0
LINE
  5
160
100
AcDbEntity
  8
Ebene_1
 62
7
100
AcDbLine
 10
153.610780
 20
208.133590
 30
0.0
 11
109.899750
 21
182.896370
 31
0.0
  0
SPLINE
  5
161
100
AcDbEntity
  8
Ebene_1
 62
7
100
AcDbSpline
 70
8
 71
3
 72
8
 73
4
 74
0
 40
0
 40
0
 40
0
 40
0
 40
1
 40
1
 40
1
 40
1
 10
109.899750
 20
182.896370
 30
0.0
 10
109.870724
 20
182.946927
 30
0.0
 10
109.841256
 20
182.997229
 30
0.0
 10
109.811350
 20
183.047270
 30
0.0
  0
LINE
  5
162
100
AcDbEntity
  8
Ebene_1
 62
7
100
AcDbLine
 10
109.811350
 20
183.047270
 30
0.0
 11
153.095050
 21
209.054464
 31
0.0
  0
LINE
  5
163
100
AcDbEntity
  8
Ebene_1
 62
7
100
AcDbLine
 10
48.885905
 20
208.133590
 30
0.0
 11
92.596932
 21
182.896890
 31
0.0
  0
LINE
  5
164
100
AcDbEntity
  8
Ebene_1
 62
7
100
AcDbLine
 10
92.596932
 20
182.896890
 30
0.0
 11
92.596932
 21
182.896370
 31
0.0
  0
SPLINE
  5
165
100
AcDbEntity
  8
Ebene_1
 62
7
100
AcDbSpline
 70
8
 71
3
 72
8
 73
4
 74
0
 40
0
 40
0
 40
0
 40
0
 40
1
 40
1
 40
1
 40
1
 10
92.596932
 20
182.896370
 30
0.0
 10
92.569268
 20
182.845275
 30
0.0
 10
92.542050
 20
182.793940
 30
0.0
 10
92.515282
 20
182.742370
 30
0.0
  0
LINE
  5
166
100
AcDbEntity
  8
Ebene_1
 62
7
100
AcDbLine
 10
92.515282
 20
182.742370
 30
0.0
 11
48.370174
 21
207.212716
 31
0.0
  0
SPLINE
  5
167
100
AcDbEntity
  8
Ebene_1
 62
7
100
AcDbSpline
 70
8
 71
3
 72
8
 73
4
 74
0
 40
0
 40
0
 40
0
 40
0
 40
1
 40
1
 40
1
 40
1
 10
48.370174
 20
207.212716
 30
0.0
 10
48.539404
 20
207.521168
 30
0.0
 10
48.711321
 20
207.828137
 30
0.0
 10
48.885905
 20
208.133590
 30
0.0
  0
LINE
  5
168
100
AcDbEntity
  8
Ebene_1
 62
7
100
AcDbLine
 10
48.885905
 20
208.133590
 30
0.0
 11
48.885905
 21
208.133590
 31
0.0
  0
SPLINE
  5
169
100
AcDbEntity
  8
Ebene_1
 62
7
100
AcDbSpline
 70
8
 71
3
 72
8
 73
4
 74
0
 40
0
 40
0
 40
0
 40
0
 40
1
 40
1
 40
1
 40
1
 10
156.042150
 20
203.452738
 30
0.0
 10
156.192212
 20
203.134668
 30
0.0
 10
156.339497
 20
202.815295
 30
0.0
 10
156.483990
 20
202.494657
 30
0.0
  0
LINE
  5
16a
100
AcDbEntity
  8
Ebene_1
 62
7
100
AcDbLine
 10
156.483990
 20
202.494657
 30
0.0
 11
110.374140
 21
181.965160
 31
0.0
  0
SPLINE
  5
16b
100
AcDbEntity
  8
Ebene_1
 62
7
100
AcDbSpline
 70
8
 71
3
 72
8
 73
4
 74
0
 40
0
 40
0
 40
0
 40
0
 40
1
 40
1
 40
1
 40
1
 10
110.374140
 20
181.965160
 30
0.0
 10
110.350665
 20
182.018077
 30
0.0
 10
110.326731
 20
182.070789
 30
0.0
 10
110.302340
 20
182.123290
 30
0.0
  0
LINE
  5
16c
100
AcDbEntity
  8
Ebene_1
 62
7
100
AcDbLine
 10
110.302340
 20
182.123290
 30
0.0
 11
156.042150
 21
203.452738
 31
0.0
  0
LINE
  5
16d
100
AcDbEntity
  8
Ebene_1
 62
7
100
AcDbLine
 10
46.013212
 20
202.494657
 30
0.0
 11
92.128227
 21
181.962580
 31
0.0
  0
SPLINE
  5
16e
100
AcDbEntity
  8
Ebene_1
 62
7
100
AcDbSpline
 70
8
 71
3
 72
8
 73
4
 74
0
 40
0
 40
0
 40
0
 40
0
 40
1
 40
1
 40
1
 40
1
 10
92.128227
 20
181.962580
 30
0.0
 10
92.104510
 20
181.909557
 30
0.0
 10
92.081256
 20
181.856328
 30
0.0
 10
92.058467
 20
181.802900
 30
0.0
  0
LINE
  5
16f
100
AcDbEntity
  8
Ebene_1
 62
7
100
AcDbLine
 10
92.058467
 20
181.802900
 30
0.0
 11
45.570862
 21
201.535543
 31
0.0
  0
SPLINE
  5
170
100
AcDbEntity
  8
Ebene_1
 62
7
100
AcDbSpline
 70
8
 71
3
 72
8
 73
4
 74
0
 40
0
 40
0
 40
0
 40
0
 40
1
 40
1
 40
1
 40
1
 10
45.570862
 20
201.535543
 30
0.0
 10
45.715519
 20
201.856529
 30
0.0
 10
45.862974
 20
202.176245
 30
0.0
 10
46.013212
 20
202.494657
 30
0.0
  0
LINE
  5
171
100
AcDbEntity
  8
Ebene_1
 62
7
100
AcDbLine
 10
46.013212
 20
202.494657
 30
0.0
 11
46.013212
 21
202.494657
 31
0.0
  0
SPLINE
  5
172
100
AcDbEntity
  8
Ebene_1
 62
7
100
AcDbSpline
 70
8
 71
3
 72
8
 73
4
 74
0
 40
0
 40
0
 40
0
 40
0
 40
1
 40
1
 40
1
 40
1
 10
158.425470
 20
197.589530
 30
0.0
 10
158.550306
 20
197.260387
 30
0.0
 10
158.672267
 20
196.930161
 30
0.0
 10
158.791340
 20
196.598890
 30
0.0
  0
LINE
  5
173
100
AcDbEntity
  8
Ebene_1
 62
7
100
AcDbLine
 10
158.791340
 20
196.598890
 30
0.0
 11
110.748800
 21
180.988990
 31
0.0
  0
SPLINE
  5
174
100
AcDbEntity
  8
Ebene_1
 62
7
100
AcDbSpline
 70
8
 71
3
 72
8
 73
4
 74
0
 40
0
 40
0
 40
0
 40
0
 40
1
 40
1
 40
1
 40
1
 10
110.748800
 20
180.988990
 30
0.0
 10
110.731011
 20
181.044098
 30
0.0
 10
110.712744
 20
181.099050
 30
0.0
 10
110.694000
 20
181.153840
 30
0.0
  0
LINE
  5
175
100
AcDbEntity
  8
Ebene_1
 62
7
100
AcDbLine
 10
110.694000
 20
181.153840
 30
0.0
 11
158.425470
 21
197.589530
 31
0.0
  0
LINE
  5
176
100
AcDbEntity
  8
Ebene_1
 62
7
100
AcDbLine
 10
43.705343
 20
196.598890
 30
0.0
 11
91.752022
 21
180.987960
 31
0.0
  0
SPLINE
  5
177
100
AcDbEntity
  8
Ebene_1
 62
7
100
AcDbSpline
 70
8
 71
3
 72
8
 73
4
 74
0
 40
0
 40
0
 40
0
 40
0
 40
1
 40
1
 40
1
 40
1
 10
91.752022
 20
180.987960
 30
0.0
 10
91.732938
 20
180.933004
 30
0.0
 10
91.714333
 20
180.877881
 30
0.0
 10
91.696212
 20
180.822600
 30
0.0
  0
LINE
  5
178
100
AcDbEntity
  8
Ebene_1
 62
7
100
AcDbLine
 10
91.696212
 20
180.822600
 30
0.0
 11
43.418538
 21
195.581900
 31
0.0
  0
SPLINE
  5
179
100
AcDbEntity
  8
Ebene_1
 62
7
100
AcDbSpline
 70
8
 71
3
 72
8
 73
4
 74
0
 40
0
 40
0
 40
0
 40
0
 40
1
 40
1
 40
1
 40
1
 10
43.418538
 20
195.581900
 30
0.0
 10
43.511178
 20
195.921725
 30
0.0
 10
43.606783
 20
196.260735
 30
0.0
 10
43.705343
 20
196.598890
 30
0.0
  0
LINE
  5
17a
100
AcDbEntity
  8
Ebene_1
 62
7
100
AcDbLine
 10
43.705343
 20
196.598890
 30
0.0
 11
43.705343
 21
196.598890
 31
0.0
  0
SPLINE
  5
17b
100
AcDbEntity
  8
Ebene_1
 62
7
100
AcDbSpline
 70
8
 71
3
 72
8
 73
4
 74
0
 40
0
 40
0
 40
0
 40
0
 40
1
 40
1
 40
1
 40
1
 10
160.183500
 20
191.508760
 30
0.0
 10
160.255418
 20
191.163998
 30
0.0
 10
160.324323
 20
190.818615
 30
0.0
 10
160.390210
 20
190.472650
 30
0.0
  0
LINE
  5
17c
100
AcDbEntity
  8
Ebene_1
 62
7
100
AcDbLine
 10
160.390210
 20
190.472650
 30
0.0
 11
111.019580
 21
179.979240
 31
0.0
  0
SPLINE
  5
17d
100
AcDbEntity
  8
Ebene_1
 62
7
100
AcDbSpline
 70
8
 71
3
 72
8
 73
4
 74
0
 40
0
 40
0
 40
0
 40
0
 40
1
 40
1
 40
1
 40
1
 10
111.019580
 20
179.979240
 30
0.0
 10
111.007505
 20
180.035845
 30
0.0
 10
110.994937
 20
180.092344
 30
0.0
 10
110.981880
 20
180.148730
 30
0.0
  0
LINE
  5
17e
100
AcDbEntity
  8
Ebene_1
 62
7
100
AcDbLine
 10
110.981880
 20
180.148730
 30
0.0
 11
160.183500
 21
191.508760
 31
0.0
  0
LINE
  5
17f
100
AcDbEntity
  8
Ebene_1
 62
7
100
AcDbLine
 10
42.106991
 20
190.472650
 30
0.0
 11
91.481238
 21
179.977690
 31
0.0
  0
SPLINE
  5
180
100
AcDbEntity
  8
Ebene_1
 62
7
100
AcDbSpline
 70
8
 71
3
 72
8
 73
4
 74
0
 40
0
 40
0
 40
0
 40
0
 40
1
 40
1
 40
1
 40
1
 10
91.481238
 20
179.977690
 30
0.0
 10
91.469885
 20
179.920596
 30
0.0
 10
91.459031
 20
179.863404
 30
0.0
 10
91.448678
 20
179.806120
 30
0.0
  0
LINE
  5
181
100
AcDbEntity
  8
Ebene_1
 62
7
100
AcDbLine
 10
91.448678
 20
179.806120
 30
0.0
 11
41.900798
 21
189.438090
 31
0.0
  0
SPLINE
  5
182
100
AcDbEntity
  8
Ebene_1
 62
7
100
AcDbSpline
 70
8
 71
3
 72
8
 73
4
 74
0
 40
0
 40
0
 40
0
 40
0
 40
1
 40
1
 40
1
 40
1
 10
41.900798
 20
189.438090
 30
0.0
 10
41.966520
 20
189.783536
 30
0.0
 10
42.035252
 20
190.128402
 30
0.0
 10
42.106987
 20
190.472650
 30
0.0
  0
LINE
  5
183
100
AcDbEntity
  8
Ebene_1
 62
7
100
AcDbLine
 10
42.106987
 20
190.472650
 30
0.0
 11
42.106991
 21
190.472650
 31
0.0
  0
SPLINE
  5
184
100
AcDbEntity
  8
Ebene_1
 62
7
100
AcDbSpline
 70
8
 71
3
 72
8
 73
4
 74
0
 40
0
 40
0
 40
0
 40
0
 40
1
 40
1
 40
1
 40
1
 10
161.256310
 20
185.269870
 30
0.0
 10
161.300693
 20
184.921077
 30
0.0
 10
161.342034
 20
184.571904
 30
0.0
 10
161.380330
 20
184.222390
 30
0.0
  0
LINE
  5
185
100
AcDbEntity
  8
Ebene_1
 62
7
100
AcDbLine
 10
161.380330
 20
184.222390
 30
0.0
 11
111.183390
 21
178.946220
 31
0.0
  0
SPLINE
  5
186
100
AcDbEntity
  8
Ebene_1
 62
7
100
AcDbSpline
 70
8
 71
3
 72
8
 73
4
 74
0
 40
0
 40
0
 40
0
 40
0
 40
1
 40
1
 40
1
 40
1
 10
111.183390
 20
178.946220
 30
0.0
 10
111.177160
 20
179.003984
 30
0.0
 10
111.170427
 20
179.061693
 30
0.0
 10
111.163190
 20
179.119340
 30
0.0
  0
LINE
  5
187
100
AcDbEntity
  8
Ebene_1
 62
7
100
AcDbLine
 10
111.163190
 20
179.119340
 30
0.0
 11
161.256310
 21
185.269870
 31
0.0
  0
LINE
  5
188
100
AcDbEntity
  8
Ebene_1
 62
7
100
AcDbLine
 10
41.116870
 20
184.222390
 30
0.0
 11
91.320007
 21
178.945710
 31
0.0
  0
SPLINE
  5
189
100
AcDbEntity
  8
Ebene_1
 62
7
100
AcDbSpline
 70
8
 71
3
 72
8
 73
4
 74
0
 40
0
 40
0
 40
0
 40
0
 40
1
 40
1
 40
1
 40
1
 10
91.320007
 20
178.945710
 30
0.0
 10
91.312954
 20
178.887888
 30
0.0
 10
91.306407
 20
178.830006
 30
0.0
 10
91.300367
 20
178.772070
 30
0.0
  0
LINE
  5
18a
100
AcDbEntity
  8
Ebene_1
 62
7
100
AcDbLine
 10
91.300367
 20
178.772070
 30
0.0
 11
40.992844
 21
183.173870
 31
0.0
  0
SPLINE
  5
18b
100
AcDbEntity
  8
Ebene_1
 62
7
100
AcDbSpline
 70
8
 71
3
 72
8
 73
4
 74
0
 40
0
 40
0
 40
0
 40
0
 40
1
 40
1
 40
1
 40
1
 10
40.992844
 20
183.173870
 30
0.0
 10
41.031135
 20
183.523731
 30
0.0
 10
41.072477
 20
183.873251
 30
0.0
 10
41.116867
 20
184.222390
 30
0.0
  0
LINE
  5
18c
100
AcDbEntity
  8
Ebene_1
 62
7
100
AcDbLine
 10
41.116867
 20
184.222390
 30
0.0
 11
41.116870
 21
184.222390
 31
0.0
  0
SPLINE
  5
18d
100
AcDbEntity
  8
Ebene_1
 62
7
100
AcDbSpline
 70
8
 71
3
 72
8
 73
4
 74
0
 40
0
 40
0
 40
0
 40
0
 40
1
 40
1
 40
1
 40
1
 10
161.711060
 20
178.957590
 30
0.0
 10
161.728099
 20
178.605802
 30
0.0
 10
161.742066
 20
178.253872
 30
0.0
 10
161.752960
 20
177.901840
 30
0.0
  0
LINE
  5
18e
100
AcDbEntity
  8
Ebene_1
 62
7
100
AcDbLine
 10
161.752960
 20
177.901840
 30
0.0
 11
111.238210
 21
177.901840
 31
0.0
  0
SPLINE
  5
18f
100
AcDbEntity
  8
Ebene_1
 62
7
100
AcDbSpline
 70
8
 71
3
 72
8
 73
4
 74
0
 40
0
 40
0
 40
0
 40
0
 40
1
 40
1
 40
1
 40
1
 10
111.238210
 20
177.901840
 30
0.0
 10
111.238049
 20
177.959895
 30
0.0
 10
111.237383
 20
178.017947
 30
0.0
 10
111.236210
 20
178.075990
 30
0.0
  0
LINE
  5
190
100
AcDbEntity
  8
Ebene_1
 62
7
100
AcDbLine
 10
111.236210
 20
178.075990
 30
0.0
 11
161.711060
 21
178.957590
 31
0.0
  0
LINE
  5
191
100
AcDbEntity
  8
Ebene_1
 62
7
100
AcDbLine
 10
40.744283
 20
177.901840
 30
0.0
 11
91.258512
 21
177.901840
 31
0.0
  0
SPLINE
  5
192
100
AcDbEntity
  8
Ebene_1
 62
7
100
AcDbSpline
 70
8
 71
3
 72
8
 73
4
 74
0
 40
0
 40
0
 40
0
 40
0
 40
1
 40
1
 40
1
 40
1
 10
91.258512
 20
177.901840
 30
0.0
 10
91.260239
 20
177.843772
 30
0.0
 10
91.262472
 20
177.785719
 30
0.0
 10
91.265212
 20
177.727690
 30
0.0
  0
LINE
  5
193
100
AcDbEntity
  8
Ebene_1
 62
7
100
AcDbLine
 10
91.265212
 20
177.727690
 30
0.0
 11
40.785606
 21
176.846610
 31
0.0
  0
SPLINE
  5
194
100
AcDbEntity
  8
Ebene_1
 62
7
100
AcDbSpline
 70
8
 71
3
 72
8
 73
4
 74
0
 40
0
 40
0
 40
0
 40
0
 40
1
 40
1
 40
1
 40
1
 10
40.785606
 20
176.846610
 30
0.0
 10
40.768757
 20
177.198226
 30
0.0
 10
40.754976
 20
177.549983
 30
0.0
 10
40.744266
 20
177.901840
 30
0.0
  0
LINE
  5
195
100
AcDbEntity
  8
Ebene_1
 62
7
100
AcDbLine
 10
40.744266
 20
177.901840
 30
0.0
 11
40.744283
 21
177.901840
 31
0.0
  0
LINE
  5
196
100
AcDbEntity
  8
Ebene_1
 62
7
100
AcDbLine
 10
111.196310
 20
177.031610
 30
0.0
 11
161.503840
 21
172.630330
 31
0.0
  0
SPLINE
  5
197
100
AcDbEntity
  8
Ebene_1
 62
7
100
AcDbSpline
 70
8
 71
3
 72
8
 73
4
 74
0
 40
0
 40
0
 40
0
 40
0
 40
1
 40
1
 40
1
 40
1
 10
161.503840
 20
172.630330
 30
0.0
 10
161.465547
 20
172.280473
 30
0.0
 10
161.424202
 20
171.930956
 30
0.0
 10
161.379810
 20
171.581820
 30
0.0
  0
LINE
  5
198
100
AcDbEntity
  8
Ebene_1
 62
7
100
AcDbLine
 10
161.379810
 20
171.581820
 30
0.0
 11
111.176680
 21
176.858500
 31
0.0
  0
SPLINE
  5
199
100
AcDbEntity
  8
Ebene_1
 62
7
100
AcDbSpline
 70
8
 71
3
 72
8
 73
4
 74
0
 40
0
 40
0
 40
0
 40
0
 40
1
 40
1
 40
1
 40
1
 10
111.176680
 20
176.858500
 30
0.0
 10
111.183716
 20
176.916145
 30
0.0
 10
111.190250
 20
176.973851
 30
0.0
 10
111.196280
 20
177.031610
 30
0.0
  0
LINE
  5
19a
100
AcDbEntity
  8
Ebene_1
 62
7
100
AcDbLine
 10
111.196280
 20
177.031610
 30
0.0
 11
111.196310
 21
177.031610
 31
0.0
  0
SPLINE
  5
19b
100
AcDbEntity
  8
Ebene_1
 62
7
100
AcDbSpline
 70
8
 71
3
 72
8
 73
4
 74
0
 40
0
 40
0
 40
0
 40
0
 40
1
 40
1
 40
1
 40
1
 10
91.320007
 20
176.858500
 30
0.0
 10
91.326050
 20
176.800737
 30
0.0
 10
91.332597
 20
176.743028
 30
0.0
 10
91.339647
 20
176.685380
 30
0.0
  0
LINE
  5
19c
100
AcDbEntity
  8
Ebene_1
 62
7
100
AcDbLine
 10
91.339647
 20
176.685380
 30
0.0
 11
41.240897
 21
170.533820
 31
0.0
  0
SPLINE
  5
19d
100
AcDbEntity
  8
Ebene_1
 62
7
100
AcDbSpline
 70
8
 71
3
 72
8
 73
4
 74
0
 40
0
 40
0
 40
0
 40
0
 40
1
 40
1
 40
1
 40
1
 10
41.240897
 20
170.533820
 30
0.0
 10
41.196510
 20
170.882786
 30
0.0
 10
41.155167
 20
171.232133
 30
0.0
 10
41.116873
 20
171.581820
 30
0.0
  0
LINE
  5
19e
100
AcDbEntity
  8
Ebene_1
 62
7
100
AcDbLine
 10
41.116873
 20
171.581820
 30
0.0
 11
91.320007
 21
176.858500
 31
0.0
  0
LINE
  5
19f
100
AcDbEntity
  8
Ebene_1
 62
7
100
AcDbLine
 10
111.048000
 20
175.997050
 30
0.0
 11
160.595880
 21
166.366110
 31
0.0
  0
SPLINE
  5
1a0
100
AcDbEntity
  8
Ebene_1
 62
7
100
AcDbSpline
 70
8
 71
3
 72
8
 73
4
 74
0
 40
0
 40
0
 40
0
 40
0
 40
1
 40
1
 40
1
 40
1
 10
160.595880
 20
166.366110
 30
0.0
 10
160.530331
 20
166.020666
 30
0.0
 10
160.461771
 20
165.675799
 30
0.0
 10
160.390210
 20
165.331550
 30
0.0
  0
LINE
  5
1a1
100
AcDbEntity
  8
Ebene_1
 62
7
100
AcDbLine
 10
160.390210
 20
165.331550
 30
0.0
 11
111.015960
 21
175.826000
 31
0.0
  0
SPLINE
  5
1a2
100
AcDbEntity
  8
Ebene_1
 62
7
100
AcDbSpline
 70
8
 71
3
 72
8
 73
4
 74
0
 40
0
 40
0
 40
0
 40
0
 40
1
 40
1
 40
1
 40
1
 10
111.015960
 20
175.826000
 30
0.0
 10
111.027123
 20
175.882923
 30
0.0
 10
111.037790
 20
175.939942
 30
0.0
 10
111.047960
 20
175.997050
 30
0.0
  0
LINE
  5
1a3
100
AcDbEntity
  8
Ebene_1
 62
7
100
AcDbLine
 10
111.047960
 20
175.997050
 30
0.0
 11
111.048000
 21
175.997050
 31
0.0
  0
SPLINE
  5
1a4
100
AcDbEntity
  8
Ebene_1
 62
7
100
AcDbSpline
 70
8
 71
3
 72
8
 73
4
 74
0
 40
0
 40
0
 40
0
 40
0
 40
1
 40
1
 40
1
 40
1
 10
91.481238
 20
175.826000
 30
0.0
 10
91.492280
 20
175.768884
 30
0.0
 10
91.503820
 20
175.711865
 30
0.0
 10
91.515858
 20
175.654950
 30
0.0
  0
LINE
  5
1a5
100
AcDbEntity
  8
Ebene_1
 62
7
100
AcDbLine
 10
91.515858
 20
175.654950
 30
0.0
 11
42.313180
 21
164.295440
 31
0.0
  0
SPLINE
  5
1a6
100
AcDbEntity
  8
Ebene_1
 62
7
100
AcDbSpline
 70
8
 71
3
 72
8
 73
4
 74
0
 40
0
 40
0
 40
0
 40
0
 40
1
 40
1
 40
1
 40
1
 10
42.313180
 20
164.295440
 30
0.0
 10
42.241436
 20
164.640203
 30
0.0
 10
42.172704
 20
164.985587
 30
0.0
 10
42.106991
 20
165.331550
 30
0.0
  0
LINE
  5
1a7
100
AcDbEntity
  8
Ebene_1
 62
7
100
AcDbLine
 10
42.106991
 20
165.331550
 30
0.0
 11
91.481238
 21
175.826000
 31
0.0
  0
LINE
  5
1a8
100
AcDbEntity
  8
Ebene_1
 62
7
100
AcDbLine
 10
110.800470
 20
174.981090
 30
0.0
 11
159.078150
 21
160.221270
 31
0.0
  0
SPLINE
  5
1a9
100
AcDbEntity
  8
Ebene_1
 62
7
100
AcDbSpline
 70
8
 71
3
 72
8
 73
4
 74
0
 40
0
 40
0
 40
0
 40
0
 40
1
 40
1
 40
1
 40
1
 10
159.078150
 20
160.221270
 30
0.0
 10
158.985503
 20
159.881789
 30
0.0
 10
158.889896
 20
159.543123
 30
0.0
 10
158.791340
 20
159.205310
 30
0.0
  0
LINE
  5
1aa
100
AcDbEntity
  8
Ebene_1
 62
7
100
AcDbLine
 10
158.791340
 20
159.205310
 30
0.0
 11
110.745180
 21
174.816240
 31
0.0
  0
SPLINE
  5
1ab
100
AcDbEntity
  8
Ebene_1
 62
7
100
AcDbSpline
 70
8
 71
3
 72
8
 73
4
 74
0
 40
0
 40
0
 40
0
 40
0
 40
1
 40
1
 40
1
 40
1
 10
110.745180
 20
174.816240
 30
0.0
 10
110.764091
 20
174.871029
 30
0.0
 10
110.782525
 20
174.925981
 30
0.0
 10
110.800480
 20
174.981090
 30
0.0
  0
LINE
  5
1ac
100
AcDbEntity
  8
Ebene_1
 62
7
100
AcDbLine
 10
110.800480
 20
174.981090
 30
0.0
 11
110.800470
 21
174.981090
 31
0.0
  0
SPLINE
  5
1ad
100
AcDbEntity
  8
Ebene_1
 62
7
100
AcDbSpline
 70
8
 71
3
 72
8
 73
4
 74
0
 40
0
 40
0
 40
0
 40
0
 40
1
 40
1
 40
1
 40
1
 10
91.751506
 20
174.816240
 30
0.0
 10
91.770321
 20
174.761296
 30
0.0
 10
91.789615
 20
174.706517
 30
0.0
 10
91.809386
 20
174.651910
 30
0.0
  0
LINE
  5
1ae
100
AcDbEntity
  8
Ebene_1
 62
7
100
AcDbLine
 10
91.809386
 20
174.651910
 30
0.0
 11
44.070698
 21
158.214160
 31
0.0
  0
SPLINE
  5
1af
100
AcDbEntity
  8
Ebene_1
 62
7
100
AcDbSpline
 70
8
 71
3
 72
8
 73
4
 74
0
 40
0
 40
0
 40
0
 40
0
 40
1
 40
1
 40
1
 40
1
 10
44.070698
 20
158.214160
 30
0.0
 10
43.946035
 20
158.543301
 30
0.0
 10
43.824246
 20
158.873524
 30
0.0
 10
43.705346
 20
159.204790
 30
0.0
  0
LINE
  5
1b0
100
AcDbEntity
  8
Ebene_1
 62
7
100
AcDbLine
 10
43.705346
 20
159.204790
 30
0.0
 11
43.705346
 21
159.205310
 31
0.0
  0
LINE
  5
1b1
100
AcDbEntity
  8
Ebene_1
 62
7
100
AcDbLine
 10
43.705346
 20
159.205310
 30
0.0
 11
91.751506
 21
174.816240
 31
0.0
  0
LINE
  5
1b2
100
AcDbEntity
  8
Ebene_1
 62
7
100
AcDbLine
 10
110.438220
 20
174.000790
 30
0.0
 11
156.925820
 21
154.268660
 31
0.0
  0
SPLINE
  5
1b3
100
AcDbEntity
  8
Ebene_1
 62
7
100
AcDbSpline
 70
8
 71
3
 72
8
 73
4
 74
0
 40
0
 40
0
 40
0
 40
0
 40
1
 40
1
 40
1
 40
1
 10
156.925820
 20
154.268660
 30
0.0
 10
156.781336
 20
153.947678
 30
0.0
 10
156.634054
 20
153.627962
 30
0.0
 10
156.483990
 20
153.309550
 30
0.0
  0
LINE
  5
1b4
100
AcDbEntity
  8
Ebene_1
 62
7
100
AcDbLine
 10
156.483990
 20
153.309550
 30
0.0
 11
110.368460
 21
173.841110
 31
0.0
  0
SPLINE
  5
1b5
100
AcDbEntity
  8
Ebene_1
 62
7
100
AcDbSpline
 70
8
 71
3
 72
8
 73
4
 74
0
 40
0
 40
0
 40
0
 40
0
 40
1
 40
1
 40
1
 40
1
 10
110.368460
 20
173.841110
 30
0.0
 10
110.392190
 20
173.894133
 30
0.0
 10
110.415458
 20
173.947361
 30
0.0
 10
110.438260
 20
174.000790
 30
0.0
  0
LINE
  5
1b6
100
AcDbEntity
  8
Ebene_1
 62
7
100
AcDbLine
 10
110.438260
 20
174.000790
 30
0.0
 11
110.438220
 21
174.000790
 31
0.0
  0
SPLINE
  5
1b7
100
AcDbEntity
  8
Ebene_1
 62
7
100
AcDbSpline
 70
8
 71
3
 72
8
 73
4
 74
0
 40
0
 40
0
 40
0
 40
0
 40
1
 40
1
 40
1
 40
1
 10
92.128227
 20
173.841110
 30
0.0
 10
92.151016
 20
173.787682
 30
0.0
 10
92.174270
 20
173.734453
 30
0.0
 10
92.197987
 20
173.681430
 30
0.0
  0
LINE
  5
1b8
100
AcDbEntity
  8
Ebene_1
 62
7
100
AcDbLine
 10
92.197987
 20
173.681430
 30
0.0
 11
46.454526
 21
152.351460
 31
0.0
  0
SPLINE
  5
1b9
100
AcDbEntity
  8
Ebene_1
 62
7
100
AcDbSpline
 70
8
 71
3
 72
8
 73
4
 74
0
 40
0
 40
0
 40
0
 40
0
 40
1
 40
1
 40
1
 40
1
 10
46.454526
 20
152.351460
 30
0.0
 10
46.304466
 20
152.669533
 30
0.0
 10
46.157183
 20
152.988909
 30
0.0
 10
46.012692
 20
153.309550
 30
0.0
  0
LINE
  5
1ba
100
AcDbEntity
  8
Ebene_1
 62
7
100
AcDbLine
 10
46.012692
 20
153.309550
 30
0.0
 11
92.128227
 21
173.841110
 31
0.0
  0
LINE
  5
1bb
100
AcDbEntity
  8
Ebene_1
 62
7
100
AcDbLine
 10
109.981400
 20
173.061310
 30
0.0
 11
154.126510
 21
148.590970
 31
0.0
  0
SPLINE
  5
1bc
100
AcDbEntity
  8
Ebene_1
 62
7
100
AcDbSpline
 70
8
 71
3
 72
8
 73
4
 74
0
 40
0
 40
0
 40
0
 40
0
 40
1
 40
1
 40
1
 40
1
 10
154.126510
 20
148.590970
 30
0.0
 10
153.957278
 20
148.282690
 30
0.0
 10
153.785361
 20
147.975892
 30
0.0
 10
153.610780
 20
147.670610
 30
0.0
  0
LINE
  5
1bd
100
AcDbEntity
  8
Ebene_1
 62
7
100
AcDbLine
 10
153.610780
 20
147.670610
 30
0.0
 11
109.899750
 21
172.907320
 31
0.0
  0
SPLINE
  5
1be
100
AcDbEntity
  8
Ebene_1
 62
7
100
AcDbSpline
 70
8
 71
3
 72
8
 73
4
 74
0
 40
0
 40
0
 40
0
 40
0
 40
1
 40
1
 40
1
 40
1
 10
109.899750
 20
172.907320
 30
0.0
 10
109.927397
 20
172.958412
 30
0.0
 10
109.954598
 20
173.009744
 30
0.0
 10
109.981350
 20
173.061310
 30
0.0
  0
LINE
  5
1bf
100
AcDbEntity
  8
Ebene_1
 62
7
100
AcDbLine
 10
109.981350
 20
173.061310
 30
0.0
 11
109.981400
 21
173.061310
 31
0.0
  0
SPLINE
  5
1c0
100
AcDbEntity
  8
Ebene_1
 62
7
100
AcDbSpline
 70
8
 71
3
 72
8
 73
4
 74
0
 40
0
 40
0
 40
0
 40
0
 40
1
 40
1
 40
1
 40
1
 10
92.597449
 20
172.906800
 30
0.0
 10
92.627854
 20
172.857439
 30
0.0
 10
92.658689
 20
172.808344
 30
0.0
 10
92.689949
 20
172.759520
 30
0.0
  0
LINE
  5
1c1
100
AcDbEntity
  8
Ebene_1
 62
7
100
AcDbLine
 10
92.689949
 20
172.759520
 30
0.0
 11
49.401635
 21
146.749740
 31
0.0
  0
SPLINE
  5
1c2
100
AcDbEntity
  8
Ebene_1
 62
7
100
AcDbSpline
 70
8
 71
3
 72
8
 73
4
 74
0
 40
0
 40
0
 40
0
 40
0
 40
1
 40
1
 40
1
 40
1
 10
49.401635
 20
146.749740
 30
0.0
 10
49.227051
 20
147.055191
 30
0.0
 10
49.055134
 20
147.362160
 30
0.0
 10
48.885904
 20
147.670610
 30
0.0
  0
LINE
  5
1c3
100
AcDbEntity
  8
Ebene_1
 62
7
100
AcDbLine
 10
48.885904
 20
147.670610
 30
0.0
 11
92.597449
 21
172.906800
 31
0.0
  0
LINE
  5
1c4
100
AcDbEntity
  8
Ebene_1
 62
7
100
AcDbLine
 10
109.428460
 20
172.174540
 30
0.0
 11
150.784590
 21
143.216620
 31
0.0
  0
SPLINE
  5
1c5
100
AcDbEntity
  8
Ebene_1
 62
7
100
AcDbSpline
 70
8
 71
3
 72
8
 73
4
 74
0
 40
0
 40
0
 40
0
 40
0
 40
1
 40
1
 40
1
 40
1
 10
150.784590
 20
143.216620
 30
0.0
 10
150.591471
 20
142.922084
 30
0.0
 10
150.395783
 20
142.629239
 30
0.0
 10
150.197550
 20
142.338120
 30
0.0
  0
LINE
  5
1c6
100
AcDbEntity
  8
Ebene_1
 62
7
100
AcDbLine
 10
150.197550
 20
142.338120
 30
0.0
 11
109.325110
 21
172.033980
 31
0.0
  0
SPLINE
  5
1c7
100
AcDbEntity
  8
Ebene_1
 62
7
100
AcDbSpline
 70
8
 71
3
 72
8
 73
4
 74
0
 40
0
 40
0
 40
0
 40
0
 40
1
 40
1
 40
1
 40
1
 10
109.325110
 20
172.033980
 30
0.0
 10
109.359968
 20
172.080532
 30
0.0
 10
109.394420
 20
172.127387
 30
0.0
 10
109.428460
 20
172.174540
 30
0.0
  0
LINE
  5
1c8
100
AcDbEntity
  8
Ebene_1
 62
7
100
AcDbLine
 10
109.428460
 20
172.174540
 30
0.0
 11
109.428460
 21
172.174540
 31
0.0
  0
SPLINE
  5
1c9
100
AcDbEntity
  8
Ebene_1
 62
7
100
AcDbSpline
 70
8
 71
3
 72
8
 73
4
 74
0
 40
0
 40
0
 40
0
 40
0
 40
1
 40
1
 40
1
 40
1
 10
93.171574
 20
172.033980
 30
0.0
 10
93.205787
 20
171.986825
 30
0.0
 10
93.240411
 20
171.939970
 30
0.0
 10
93.275444
 20
171.893420
 30
0.0
  0
LINE
  5
1ca
100
AcDbEntity
  8
Ebene_1
 62
7
100
AcDbLine
 10
93.275444
 20
171.893420
 30
0.0
 11
52.953357
 21
141.509230
 31
0.0
  0
SPLINE
  5
1cb
100
AcDbEntity
  8
Ebene_1
 62
7
100
AcDbSpline
 70
8
 71
3
 72
8
 73
4
 74
0
 40
0
 40
0
 40
0
 40
0
 40
1
 40
1
 40
1
 40
1
 10
52.953357
 20
141.509230
 30
0.0
 10
52.732875
 20
141.783618
 30
0.0
 10
52.514792
 20
142.059926
 30
0.0
 10
52.299133
 20
142.338120
 30
0.0
  0
LINE
  5
1cc
100
AcDbEntity
  8
Ebene_1
 62
7
100
AcDbLine
 10
52.299133
 20
142.338120
 30
0.0
 11
93.171574
 21
172.033980
 31
0.0
  0
LINE
  5
1cd
100
AcDbEntity
  8
Ebene_1
 62
7
100
AcDbLine
 10
108.782510
 20
171.351860
 30
0.0
 11
146.898010
 21
138.220030
 31
0.0
  0
SPLINE
  5
1ce
100
AcDbEntity
  8
Ebene_1
 62
7
100
AcDbSpline
 70
8
 71
3
 72
8
 73
4
 74
0
 40
0
 40
0
 40
0
 40
0
 40
1
 40
1
 40
1
 40
1
 10
146.898010
 20
138.220030
 30
0.0
 10
146.661355
 20
137.959393
 30
0.0
 10
146.422429
 20
137.700827
 30
0.0
 10
146.181260
 20
137.444360
 30
0.0
  0
LINE
  5
1cf
100
AcDbEntity
  8
Ebene_1
 62
7
100
AcDbLine
 10
146.181260
 20
137.444360
 30
0.0
 11
108.669340
 21
171.220080
 31
0.0
  0
SPLINE
  5
1d0
100
AcDbEntity
  8
Ebene_1
 62
7
100
AcDbSpline
 70
8
 71
3
 72
8
 73
4
 74
0
 40
0
 40
0
 40
0
 40
0
 40
1
 40
1
 40
1
 40
1
 10
108.669340
 20
171.220080
 30
0.0
 10
108.707445
 20
171.263678
 30
0.0
 10
108.745169
 20
171.307606
 30
0.0
 10
108.782510
 20
171.351860
 30
0.0
  0
LINE
  5
1d1
100
AcDbEntity
  8
Ebene_1
 62
7
100
AcDbLine
 10
108.782510
 20
171.351860
 30
0.0
 11
108.782510
 21
171.351860
 31
0.0
  0
SPLINE
  5
1d2
100
AcDbEntity
  8
Ebene_1
 62
7
100
AcDbSpline
 70
8
 71
3
 72
8
 73
4
 74
0
 40
0
 40
0
 40
0
 40
0
 40
1
 40
1
 40
1
 40
1
 10
93.827348
 20
171.220080
 30
0.0
 10
93.865380
 20
171.176166
 30
0.0
 10
93.903794
 20
171.132584
 30
0.0
 10
93.942586
 20
171.089340
 30
0.0
  0
LINE
  5
1d3
100
AcDbEntity
  8
Ebene_1
 62
7
100
AcDbLine
 10
93.942586
 20
171.089340
 30
0.0
 11
57.031661
 21
136.669220
 31
0.0
  0
SPLINE
  5
1d4
100
AcDbEntity
  8
Ebene_1
 62
7
100
AcDbSpline
 70
8
 71
3
 72
8
 73
4
 74
0
 40
0
 40
0
 40
0
 40
0
 40
1
 40
1
 40
1
 40
1
 10
57.031661
 20
136.669220
 30
0.0
 10
56.790667
 20
136.925513
 30
0.0
 10
56.551913
 20
137.183903
 30
0.0
 10
56.315426
 20
137.444360
 30
0.0
  0
LINE
  5
1d5
100
AcDbEntity
  8
Ebene_1
 62
7
100
AcDbLine
 10
56.315426
 20
137.444360
 30
0.0
 11
93.827348
 21
171.220080
 31
0.0
  0
LINE
  5
1d6
100
AcDbEntity
  8
Ebene_1
 62
7
100
AcDbLine
 10
108.061100
 20
170.596350
 30
0.0
 11
142.480710
 21
133.685420
 31
0.0
  0
SPLINE
  5
1d7
100
AcDbEntity
  8
Ebene_1
 62
7
100
AcDbSpline
 70
8
 71
3
 72
8
 73
4
 74
0
 40
0
 40
0
 40
0
 40
0
 40
1
 40
1
 40
1
 40
1
 10
142.480710
 20
133.685420
 30
0.0
 10
142.224586
 20
133.444430
 30
0.0
 10
141.966367
 20
133.205678
 30
0.0
 10
141.706080
 20
132.969190
 30
0.0
  0
LINE
  5
1d8
100
AcDbEntity
  8
Ebene_1
 62
7
100
AcDbLine
 10
141.706080
 20
132.969190
 30
0.0
 11
107.929850
 21
170.481110
 31
0.0
  0
SPLINE
  5
1d9
100
AcDbEntity
  8
Ebene_1
 62
7
100
AcDbSpline
 70
8
 71
3
 72
8
 73
4
 74
0
 40
0
 40
0
 40
0
 40
0
 40
1
 40
1
 40
1
 40
1
 10
107.929850
 20
170.481110
 30
0.0
 10
107.973935
 20
170.519140
 30
0.0
 10
108.017687
 20
170.557555
 30
0.0
 10
108.061100
 20
170.596350
 30
0.0
  0
LINE
  5
1da
100
AcDbEntity
  8
Ebene_1
 62
7
100
AcDbLine
 10
108.061100
 20
170.596350
 30
0.0
 11
108.061100
 21
170.596350
 31
0.0
  0
SPLINE
  5
1db
100
AcDbEntity
  8
Ebene_1
 62
7
100
AcDbSpline
 70
8
 71
3
 72
8
 73
4
 74
0
 40
0
 40
0
 40
0
 40
0
 40
1
 40
1
 40
1
 40
1
 10
94.566321
 20
170.481620
 30
0.0
 10
94.610086
 20
170.443342
 30
0.0
 10
94.654185
 20
170.405448
 30
0.0
 10
94.698612
 20
170.367940
 30
0.0
  0
LINE
  5
1dc
100
AcDbEntity
  8
Ebene_1
 62
7
100
AcDbLine
 10
94.698612
 20
170.367940
 30
0.0
 11
61.566268
 21
132.252430
 31
0.0
  0
SPLINE
  5
1dd
100
AcDbEntity
  8
Ebene_1
 62
7
100
AcDbSpline
 70
8
 71
3
 72
8
 73
4
 74
0
 40
0
 40
0
 40
0
 40
0
 40
1
 40
1
 40
1
 40
1
 10
61.566268
 20
132.252430
 30
0.0
 10
61.305633
 20
132.489089
 30
0.0
 10
61.047069
 20
132.728018
 30
0.0
 10
60.790605
 20
132.969190
 30
0.0
  0
LINE
  5
1de
100
AcDbEntity
  8
Ebene_1
 62
7
100
AcDbLine
 10
60.790605
 20
132.969190
 30
0.0
 11
94.566321
 21
170.481620
 31
0.0
  0
LINE
  5
1df
100
AcDbEntity
  8
Ebene_1
 62
7
100
AcDbLine
 10
107.256500
 20
169.928690
 30
0.0
 11
137.641210
 21
129.607120
 31
0.0
  0
SPLINE
  5
1e0
100
AcDbEntity
  8
Ebene_1
 62
7
100
AcDbSpline
 70
8
 71
3
 72
8
 73
4
 74
0
 40
0
 40
0
 40
0
 40
0
 40
1
 40
1
 40
1
 40
1
 10
137.641210
 20
129.607120
 30
0.0
 10
137.366649
 20
129.386634
 30
0.0
 10
137.090169
 20
129.168549
 30
0.0
 10
136.811800
 20
128.952890
 30
0.0
  0
LINE
  5
1e1
100
AcDbEntity
  8
Ebene_1
 62
7
100
AcDbLine
 10
136.811800
 20
128.952890
 30
0.0
 11
107.116460
 21
169.825330
 31
0.0
  0
SPLINE
  5
1e2
100
AcDbEntity
  8
Ebene_1
 62
7
100
AcDbSpline
 70
8
 71
3
 72
8
 73
4
 74
0
 40
0
 40
0
 40
0
 40
0
 40
1
 40
1
 40
1
 40
1
 10
107.116460
 20
169.825330
 30
0.0
 10
107.163439
 20
169.859376
 30
0.0
 10
107.210121
 20
169.893831
 30
0.0
 10
107.256500
 20
169.928690
 30
0.0
  0
LINE
  5
1e3
100
AcDbEntity
  8
Ebene_1
 62
7
100
AcDbLine
 10
107.256500
 20
169.928690
 30
0.0
 11
107.256500
 21
169.928690
 31
0.0
  0
SPLINE
  5
1e4
100
AcDbEntity
  8
Ebene_1
 62
7
100
AcDbSpline
 70
8
 71
3
 72
8
 73
4
 74
0
 40
0
 40
0
 40
0
 40
0
 40
1
 40
1
 40
1
 40
1
 10
95.380225
 20
169.825330
 30
0.0
 10
95.426777
 20
169.790472
 30
0.0
 10
95.473632
 20
169.756020
 30
0.0
 10
95.520785
 20
169.721980
 30
0.0
  0
LINE
  5
1e5
100
AcDbEntity
  8
Ebene_1
 62
7
100
AcDbLine
 10
95.520785
 20
169.721980
 30
0.0
 11
66.562862
 21
128.365850
 31
0.0
  0
SPLINE
  5
1e6
100
AcDbEntity
  8
Ebene_1
 62
7
100
AcDbSpline
 70
8
 71
3
 72
8
 73
4
 74
0
 40
0
 40
0
 40
0
 40
0
 40
1
 40
1
 40
1
 40
1
 10
66.562862
 20
128.365850
 30
0.0
 10
66.268499
 20
128.558972
 30
0.0
 10
65.975827
 20
128.754659
 30
0.0
 10
65.684880
 20
128.952890
 30
0.0
  0
LINE
  5
1e7
100
AcDbEntity
  8
Ebene_1
 62
7
100
AcDbLine
 10
65.684880
 20
128.952890
 30
0.0
 11
95.380225
 21
169.825330
 31
0.0
  0
LINE
  5
1e8
100
AcDbEntity
  8
Ebene_1
 62
7
100
AcDbLine
 10
106.390410
 20
169.343190
 30
0.0
 11
132.400700
 21
126.055400
 31
0.0
  0
SPLINE
  5
1e9
100
AcDbEntity
  8
Ebene_1
 62
7
100
AcDbSpline
 70
8
 71
3
 72
8
 73
4
 74
0
 40
0
 40
0
 40
0
 40
0
 40
1
 40
1
 40
1
 40
1
 10
132.400700
 20
126.055400
 30
0.0
 10
132.095249
 20
125.880813
 30
0.0
 10
131.788280
 20
125.708893
 30
0.0
 10
131.479830
 20
125.539660
 30
0.0
  0
LINE
  5
1ea
100
AcDbEntity
  8
Ebene_1
 62
7
100
AcDbLine
 10
131.479830
 20
125.539660
 30
0.0
 11
106.243130
 21
169.250690
 31
0.0
  0
SPLINE
  5
1eb
100
AcDbEntity
  8
Ebene_1
 62
7
100
AcDbSpline
 70
8
 71
3
 72
8
 73
4
 74
0
 40
0
 40
0
 40
0
 40
0
 40
1
 40
1
 40
1
 40
1
 10
106.243130
 20
169.250690
 30
0.0
 10
106.292491
 20
169.281095
 30
0.0
 10
106.341586
 20
169.311930
 30
0.0
 10
106.390410
 20
169.343190
 30
0.0
  0
LINE
  5
1ec
100
AcDbEntity
  8
Ebene_1
 62
7
100
AcDbLine
 10
106.390410
 20
169.343190
 30
0.0
 11
106.390410
 21
169.343190
 31
0.0
  0
SPLINE
  5
1ed
100
AcDbEntity
  8
Ebene_1
 62
7
100
AcDbSpline
 70
8
 71
3
 72
8
 73
4
 74
0
 40
0
 40
0
 40
0
 40
0
 40
1
 40
1
 40
1
 40
1
 10
96.253556
 20
169.250690
 30
0.0
 10
96.304649
 20
169.223009
 30
0.0
 10
96.355983
 20
169.195775
 30
0.0
 10
96.407552
 20
169.168990
 30
0.0
  0
LINE
  5
1ee
100
AcDbEntity
  8
Ebene_1
 62
7
100
AcDbLine
 10
96.407552
 20
169.168990
 30
0.0
 11
71.937728
 21
125.023880
 31
0.0
  0
SPLINE
  5
1ef
100
AcDbEntity
  8
Ebene_1
 62
7
100
AcDbSpline
 70
8
 71
3
 72
8
 73
4
 74
0
 40
0
 40
0
 40
0
 40
0
 40
1
 40
1
 40
1
 40
1
 10
71.937728
 20
125.023880
 30
0.0
 10
71.629449
 20
125.193112
 30
0.0
 10
71.322652
 20
125.365029
 30
0.0
 10
71.017371
 20
125.539610
 30
0.0
  0
LINE
  5
1f0
100
AcDbEntity
  8
Ebene_1
 62
7
100
AcDbLine
 10
71.017371
 20
125.539610
 30
0.0
 11
96.253556
 21
169.250690
 31
0.0
  0
LINE
  5
1f1
100
AcDbEntity
  8
Ebene_1
 62
7
100
AcDbLine
 10
105.467980
 20
168.851230
 30
0.0
 11
126.798980
 21
123.108290
 31
0.0
  0
SPLINE
  5
1f2
100
AcDbEntity
  8
Ebene_1
 62
7
100
AcDbSpline
 70
8
 71
3
 72
8
 73
4
 74
0
 40
0
 40
0
 40
0
 40
0
 40
1
 40
1
 40
1
 40
1
 10
126.798980
 20
123.108290
 30
0.0
 10
126.480910
 20
122.958232
 30
0.0
 10
126.161538
 20
122.810949
 30
0.0
 10
125.840900
 20
122.666460
 30
0.0
  0
LINE
  5
1f3
100
AcDbEntity
  8
Ebene_1
 62
7
100
AcDbLine
 10
125.840900
 20
122.666460
 30
0.0
 11
105.308300
 21
168.781990
 31
0.0
  0
SPLINE
  5
1f4
100
AcDbEntity
  8
Ebene_1
 62
7
100
AcDbSpline
 70
8
 71
3
 72
8
 73
4
 74
0
 40
0
 40
0
 40
0
 40
0
 40
1
 40
1
 40
1
 40
1
 10
105.308300
 20
168.781990
 30
0.0
 10
105.361727
 20
168.804593
 30
0.0
 10
105.414955
 20
168.827660
 30
0.0
 10
105.467980
 20
168.851190
 30
0.0
  0
LINE
  5
1f5
100
AcDbEntity
  8
Ebene_1
 62
7
100
AcDbLine
 10
105.467980
 20
168.851190
 30
0.0
 11
105.467980
 21
168.851230
 31
0.0
  0
SPLINE
  5
1f6
100
AcDbEntity
  8
Ebene_1
 62
7
100
AcDbSpline
 70
8
 71
3
 72
8
 73
4
 74
0
 40
0
 40
0
 40
0
 40
0
 40
1
 40
1
 40
1
 40
1
 10
97.187349
 20
168.782030
 30
0.0
 10
97.240543
 20
168.758297
 30
0.0
 10
97.293945
 20
168.735029
 30
0.0
 10
97.347546
 20
168.712230
 30
0.0
  0
LINE
  5
1f7
100
AcDbEntity
  8
Ebene_1
 62
7
100
AcDbLine
 10
97.347546
 20
168.712230
 30
0.0
 11
77.614901
 21
122.224630
 31
0.0
  0
SPLINE
  5
1f8
100
AcDbEntity
  8
Ebene_1
 62
7
100
AcDbSpline
 70
8
 71
3
 72
8
 73
4
 74
0
 40
0
 40
0
 40
0
 40
0
 40
1
 40
1
 40
1
 40
1
 10
77.614901
 20
122.224630
 30
0.0
 10
77.293917
 20
122.369117
 30
0.0
 10
76.974200
 20
122.516403
 30
0.0
 10
76.655786
 20
122.666470
 30
0.0
  0
LINE
  5
1f9
100
AcDbEntity
  8
Ebene_1
 62
7
100
AcDbLine
 10
76.655786
 20
122.666470
 30
0.0
 11
97.187349
 21
168.782030
 31
0.0
  0
LINE
  5
1fa
100
AcDbEntity
  8
Ebene_1
 62
7
100
AcDbLine
 10
104.498010
 20
168.462670
 30
0.0
 11
120.936290
 21
120.724490
 31
0.0
  0
SPLINE
  5
1fb
100
AcDbEntity
  8
Ebene_1
 62
7
100
AcDbSpline
 70
8
 71
3
 72
8
 73
4
 74
0
 40
0
 40
0
 40
0
 40
0
 40
1
 40
1
 40
1
 40
1
 10
120.936290
 20
120.724490
 30
0.0
 10
120.606974
 20
120.599654
 30
0.0
 10
120.276575
 20
120.477696
 30
0.0
 10
119.945130
 20
120.358630
 30
0.0
  0
LINE
  5
1fc
100
AcDbEntity
  8
Ebene_1
 62
7
100
AcDbLine
 10
119.945130
 20
120.358630
 30
0.0
 11
104.334200
 21
168.405270
 31
0.0
  0
SPLINE
  5
1fd
100
AcDbEntity
  8
Ebene_1
 62
7
100
AcDbSpline
 70
8
 71
3
 72
8
 73
4
 74
0
 40
0
 40
0
 40
0
 40
0
 40
1
 40
1
 40
1
 40
1
 10
104.334200
 20
168.405270
 30
0.0
 10
104.388969
 20
168.423929
 30
0.0
 10
104.443574
 20
168.443063
 30
0.0
 10
104.498010
 20
168.462670
 30
0.0
  0
LINE
  5
1fe
100
AcDbEntity
  8
Ebene_1
 62
7
100
AcDbLine
 10
104.498010
 20
168.462670
 30
0.0
 11
104.498010
 21
168.462670
 31
0.0
  0
SPLINE
  5
1ff
100
AcDbEntity
  8
Ebene_1
 62
7
100
AcDbSpline
 70
8
 71
3
 72
8
 73
4
 74
0
 40
0
 40
0
 40
0
 40
0
 40
1
 40
1
 40
1
 40
1
 10
98.162484
 20
168.405270
 30
0.0
 10
98.217442
 20
168.386189
 30
0.0
 10
98.272565
 20
168.367588
 30
0.0
 10
98.327848
 20
168.349470
 30
0.0
  0
LINE
  5
200
100
AcDbEntity
  8
Ebene_1
 62
7
100
AcDbLine
 10
98.327848
 20
168.349470
 30
0.0
 11
83.568026
 21
120.072300
 31
0.0
  0
SPLINE
  5
201
100
AcDbEntity
  8
Ebene_1
 62
7
100
AcDbSpline
 70
8
 71
3
 72
8
 73
4
 74
0
 40
0
 40
0
 40
0
 40
0
 40
1
 40
1
 40
1
 40
1
 10
83.568026
 20
120.072300
 30
0.0
 10
83.228374
 20
120.164771
 30
0.0
 10
82.889536
 20
120.260205
 30
0.0
 10
82.551550
 20
120.358590
 30
0.0
  0
LINE
  5
202
100
AcDbEntity
  8
Ebene_1
 62
7
100
AcDbLine
 10
82.551550
 20
120.358590
 30
0.0
 11
98.162484
 21
168.405270
 31
0.0
  0
LINE
  5
203
100
AcDbEntity
  8
Ebene_1
 62
7
100
AcDbLine
 10
103.495490
 20
168.169100
 30
0.0
 11
114.855000
 21
118.966420
 31
0.0
  0
SPLINE
  5
204
100
AcDbEntity
  8
Ebene_1
 62
7
100
AcDbSpline
 70
8
 71
3
 72
8
 73
4
 74
0
 40
0
 40
0
 40
0
 40
0
 40
1
 40
1
 40
1
 40
1
 10
114.855000
 20
118.966420
 30
0.0
 10
114.510410
 20
118.894679
 30
0.0
 10
114.165200
 20
118.825946
 30
0.0
 10
113.819410
 20
118.760230
 30
0.0
  0
LINE
  5
205
100
AcDbEntity
  8
Ebene_1
 62
7
100
AcDbLine
 10
113.819410
 20
118.760230
 30
0.0
 11
103.323930
 21
168.134480
 31
0.0
  0
SPLINE
  5
206
100
AcDbEntity
  8
Ebene_1
 62
7
100
AcDbSpline
 70
8
 71
3
 72
8
 73
4
 74
0
 40
0
 40
0
 40
0
 40
0
 40
1
 40
1
 40
1
 40
1
 10
103.323930
 20
168.134480
 30
0.0
 10
103.381217
 20
168.145512
 30
0.0
 10
103.438405
 20
168.157046
 30
0.0
 10
103.495490
 20
168.169080
 30
0.0
  0
LINE
  5
207
100
AcDbEntity
  8
Ebene_1
 62
7
100
AcDbLine
 10
103.495490
 20
168.169080
 30
0.0
 11
103.495490
 21
168.169100
 31
0.0
  0
SPLINE
  5
208
100
AcDbEntity
  8
Ebene_1
 62
7
100
AcDbSpline
 70
8
 71
3
 72
8
 73
4
 74
0
 40
0
 40
0
 40
0
 40
0
 40
1
 40
1
 40
1
 40
1
 10
99.172241
 20
168.134500
 30
0.0
 10
99.229335
 20
168.123334
 30
0.0
 10
99.286526
 20
168.112667
 30
0.0
 10
99.343807
 20
168.102500
 30
0.0
  0
LINE
  5
209
100
AcDbEntity
  8
Ebene_1
 62
7
100
AcDbLine
 10
99.343807
 20
168.102500
 30
0.0
 11
89.712354
 21
118.554620
 31
0.0
  0
SPLINE
  5
20a
100
AcDbEntity
  8
Ebene_1
 62
7
100
AcDbSpline
 70
8
 71
3
 72
8
 73
4
 74
0
 40
0
 40
0
 40
0
 40
0
 40
1
 40
1
 40
1
 40
1
 10
89.712354
 20
118.554620
 30
0.0
 10
89.366909
 20
118.620169
 30
0.0
 10
89.022041
 20
118.688729
 30
0.0
 10
88.677791
 20
118.760290
 30
0.0
  0
LINE
  5
20b
100
AcDbEntity
  8
Ebene_1
 62
7
100
AcDbLine
 10
88.677791
 20
118.760290
 30
0.0
 11
99.172241
 21
168.134500
 31
0.0
  0
LINE
  5
20c
100
AcDbEntity
  8
Ebene_1
 62
7
100
AcDbLine
 10
102.465060
 20
167.993420
 30
0.0
 11
108.616630
 21
117.894160
 31
0.0
  0
SPLINE
  5
20d
100
AcDbEntity
  8
Ebene_1
 62
7
100
AcDbSpline
 70
8
 71
3
 72
8
 73
4
 74
0
 40
0
 40
0
 40
0
 40
0
 40
1
 40
1
 40
1
 40
1
 10
108.616630
 20
117.894160
 30
0.0
 10
108.267664
 20
117.849771
 30
0.0
 10
107.918317
 20
117.808426
 30
0.0
 10
107.568630
 20
117.770130
 30
0.0
  0
LINE
  5
20e
100
AcDbEntity
  8
Ebene_1
 62
7
100
AcDbLine
 10
107.568630
 20
117.770130
 30
0.0
 11
102.291950
 21
167.973790
 31
0.0
  0
SPLINE
  5
20f
100
AcDbEntity
  8
Ebene_1
 62
7
100
AcDbSpline
 70
8
 71
3
 72
8
 73
4
 74
0
 40
0
 40
0
 40
0
 40
0
 40
1
 40
1
 40
1
 40
1
 10
102.291950
 20
167.973790
 30
0.0
 10
102.349709
 20
167.979820
 30
0.0
 10
102.407415
 20
167.986354
 30
0.0
 10
102.465060
 20
167.993390
 30
0.0
  0
LINE
  5
210
100
AcDbEntity
  8
Ebene_1
 62
7
100
AcDbLine
 10
102.465060
 20
167.993390
 30
0.0
 11
102.465060
 21
167.993420
 31
0.0
  0
SPLINE
  5
211
100
AcDbEntity
  8
Ebene_1
 62
7
100
AcDbSpline
 70
8
 71
3
 72
8
 73
4
 74
0
 40
0
 40
0
 40
0
 40
0
 40
1
 40
1
 40
1
 40
1
 10
100.204740
 20
167.973820
 30
0.0
 10
100.262385
 20
167.966784
 30
0.0
 10
100.320091
 20
167.960250
 30
0.0
 10
100.377850
 20
167.954220
 30
0.0
  0
LINE
  5
212
100
AcDbEntity
  8
Ebene_1
 62
7
100
AcDbLine
 10
100.377850
 20
167.954220
 30
0.0
 11
95.976571
 21
117.646180
 31
0.0
  0
SPLINE
  5
213
100
AcDbEntity
  8
Ebene_1
 62
7
100
AcDbSpline
 70
8
 71
3
 72
8
 73
4
 74
0
 40
0
 40
0
 40
0
 40
0
 40
1
 40
1
 40
1
 40
1
 10
95.976571
 20
117.646180
 30
0.0
 10
95.626712
 20
117.684470
 30
0.0
 10
95.277194
 20
117.725811
 30
0.0
 10
94.928056
 20
117.770200
 30
0.0
  0
LINE
  5
214
100
AcDbEntity
  8
Ebene_1
 62
7
100
AcDbLine
 10
94.928056
 20
117.770200
 30
0.0
 11
100.204740
 21
167.973820
 31
0.0
  0
LINE
  5
215
100
AcDbEntity
  8
Ebene_1
 62
7
100
AcDbLine
 10
101.422230
 20
167.919020
 30
0.0
 11
102.303830
 21
117.439410
 31
0.0
  0
SPLINE
  5
216
100
AcDbEntity
  8
Ebene_1
 62
7
100
AcDbSpline
 70
8
 71
3
 72
8
 73
4
 74
0
 40
0
 40
0
 40
0
 40
0
 40
1
 40
1
 40
1
 40
1
 10
102.303830
 20
117.439410
 30
0.0
 10
101.952042
 20
117.422371
 30
0.0
 10
101.600112
 20
117.408404
 30
0.0
 10
101.248080
 20
117.397510
 30
0.0
  0
LINE
  5
217
100
AcDbEntity
  8
Ebene_1
 62
7
100
AcDbLine
 10
101.248080
 20
117.397510
 30
0.0
 11
101.248080
 21
167.912250
 31
0.0
  0
LINE
  5
218
100
AcDbEntity
  8
Ebene_1
 62
7
100
AcDbLine
 10
101.248080
 20
167.912250
 30
0.0
 11
101.248600
 21
167.912250
 31
0.0
  0
SPLINE
  5
219
100
AcDbEntity
  8
Ebene_1
 62
7
100
AcDbSpline
 70
8
 71
3
 72
8
 73
4
 74
0
 40
0
 40
0
 40
0
 40
0
 40
1
 40
1
 40
1
 40
1
 10
101.248600
 20
167.912250
 30
0.0
 10
101.306496
 20
167.914080
 30
0.0
 10
101.364375
 20
167.916413
 30
0.0
 10
101.422230
 20
167.919250
 30
0.0
  0
LINE
  5
21a
100
AcDbEntity
  8
Ebene_1
 62
7
100
AcDbLine
 10
101.422230
 20
167.919250
 30
0.0
 11
101.422230
 21
167.919020
 31
0.0
  0
ENDSEC
  0
SECTION
  2
OBJECTS
  0
DICTIONARY
  5
C
330
0
100
AcDbDictionary
  3
ACAD_GROUP
350
D
  3
ACAD_MLINESTYLE
350
17
  0
DICTIONARY
  5
D
330
C
100
AcDbDictionary
  0
DICTIONARY
  5
1A
330
C
100
AcDbDictionary
  0
DICTIONARY
  5
17
330
C
100
AcDbDictionary
  3
STANDARD
350
18
  0
DICTIONARY
  5
19
330
C
100
AcDbDictionary
  0
ENDSEC
  0
EOF
