  0
SECTION
  2
HEADER
  9
$ACADVER
  1
AC1014
  9
$HANDSEED
  5
FFFF
  9
$MEASUREMENT
 70
     1
  0
ENDSEC
  0
SECTION
  2
TABLES
  0
TABLE
  2
VPORT
  5
8
330
0
100
AcDbSymbolTable
 70
     4
  0
VPORT
  5
2E
330
8
100
AcDbSymbolTableRecord
100
AcDbViewportTableRecord
  2
*ACTIVE
 70
     0
 10
0.0
 20
0.0
 11
1.0
 21
1.0
 12
210.0
 22
148.5
 13
0.0
 23
0.0
 14
10.0
 24
10.0
 15
10.0
 25
10.0
 16
0.0
 26
0.0
 36
1.0
 17
0.0
 27
0.0
 37
0.0
 40
341.0
 41
1.24
 42
50.0
 43
0.0
 44
0.0
 50
0.0
 51
0.0
 71
     0
 72
   100
 73
     1
 74
     3
 75
     0
 76
     0
 77
     0
 78
     0
  0
ENDTAB
  0
TABLE
  2
LTYPE
  5
5
330
0
100
AcDbSymbolTable
 70
     1
  0
LTYPE
  5
14
330
5
100
AcDbSymbolTableRecord
100
AcDbLinetypeTableRecord
  2
BYBLOCK
 70
     0
  3

 72
    65
 73
     0
 40
0.0
  0
LTYPE
  5
15
330
5
100
AcDbSymbolTableRecord
100
AcDbLinetypeTableRecord
  2
BYLAYER
 70
     0
  3

 72
    65
 73
     0
 40
0.0
  0
LTYPE
  5
16
330
5
100
AcDbSymbolTableRecord
100
AcDbLinetypeTableRecord
  2
CONTINUOUS
 70
     0
  3
Solid line
 72
    65
 73
     0
 40
0.0
  0
ENDTAB
  0
TABLE
  2
LAYER
  5
2
100
AcDbSymbolTable
 70
2
  0
LAYER
  5
50
100
AcDbSymbolTableRecord
100
AcDbLayerTableRecord
  2
0
 70
0
  6
CONTINUOUS
  0
LAYER
  5
51
100
AcDbSymbolTableRecord
100
AcDbLayerTableRecord
  2
Ebene_1
 70
0
  6
CONTINUOUS
  0
ENDTAB
  0
TABLE
  2
STYLE
  5
3
330
0
100
AcDbSymbolTable
 70
     1
  0
STYLE
  5
11
330
3
100
AcDbSymbolTableRecord
100
AcDbTextStyleTableRecord
  2
STANDARD
 70
     0
 40
0.0
 41
1.0
 50
0.0
 71
     0
 42
2.5
  3
txt
  4

  0
ENDTAB
  0
TABLE
  2
VIEW
  5
6
330
0
100
AcDbSymbolTable
 70
     0
  0
ENDTAB
  0
TABLE
  2
UCS
  5
7
330
0
100
AcDbSymbolTable
 70
     0
  0
ENDTAB
  0
TABLE
  2
APPID
  5
9
330
0
100
AcDbSymbolTable
 70
     2
  0
APPID
  5
12
330
9
100
AcDbSymbolTableRecord
100
AcDbRegAppTableRecord
  2
ACAD
 70
     0
  0
ENDTAB
  0
TABLE
  2
DIMSTYLE
  5
A
330
0
100
AcDbSymbolTable
 70
     1
  0
DIMSTYLE
105
27
330
A
100
AcDbSymbolTableRecord
100
AcDbDimStyleTableRecord
  2
ISO-25
 70
     0
  3

  4

  5

  6

  7

 40
1.0
 41
2.5
 42
0.625
 43
3.75
 44
1.25
 45
0.0
 46
0.0
 47
0.0
 48
0.0
140
2.5
141
2.5
142
0.0
143
0.03937007874016
144
1.0
145
0.0
146
1.0
147
0.625
 71
     0
 72
     0
 73
     0
 74
     0
 75
     0
 76
     0
 77
     1
 78
     8
170
     0
171
     3
172
     1
173
     0
174
     0
175
     0
176
     0
177
     0
178
     0
270
     2
271
     2
272
     2
273
     2
274
     3
340
11
275
     0
280
     0
281
     0
282
     0
283
     0
284
     8
285
     0
286
     0
287
     3
288
     0
  0
ENDTAB
  0
TABLE
  2
BLOCK_RECORD
  5
1
330
0
100
AcDbSymbolTable
 70
     1
  0
BLOCK_RECORD
  5
1F
330
1
100
AcDbSymbolTableRecord
100
AcDbBlockTableRecord
  2
*MODEL_SPACE
  0
BLOCK_RECORD
  5
1B
330
1
100
AcDbSymbolTableRecord
100
AcDbBlockTableRecord
  2
*PAPER_SPACE
  0
ENDTAB
  0
ENDSEC
  0
SECTION
  2
BLOCKS
  0
BLOCK
  5
20
330
1F
100
AcDbEntity
  8
0
100
AcDbBlockBegin
  2
*MODEL_SPACE
 70
     0
 10
0.0
 20
0.0
 30
0.0
  3
*MODEL_SPACE
  1

  0
ENDBLK
  5
21
330
1F
100
AcDbEntity
  8
0
100
AcDbBlockEnd
  0
BLOCK
  5
1C
330
1B
100
AcDbEntity
 67
     1
  8
0
100
AcDbBlockBegin
  2
*PAPER_SPACE
  1

  0
ENDBLK
  5
1D
330
1B
100
AcDbEntity
 67
     1
  8
0
100
AcDbBlockEnd
  0
ENDSEC
  0
SECTION
  2
ENTITIES
  0
LINE
  5
100
100
AcDbEntity
  8
Ebene_1
 62
7
100
AcDbLine
 10
105.937200
 20
233.785771
 30
0.0
 11
105.937200
 21
224.973389
 31
0.0
  0
LINE
  5
101
100
AcDbEntity
  8
Ebene_1
 62
7
100
AcDbLine
 10
105.937200
 20
224.973389
 30
0.0
 11
105.937720
 21
224.973389
 31
0.0
  0
SPLINE
  5
102
100
AcDbEntity
  8
Ebene_1
 62
7
100
AcDbSpline
 70
8
 71
3
 72
8
 73
4
 74
0
 40
0
 40
0
 40
0
 40
0
 40
1
 40
1
 40
1
 40
1
 10
105.937720
 20
224.973389
 30
0.0
 10
106.402090
 20
224.973389
 30
0.0
 10
106.846060
 20
224.917051
 30
0.0
 10
107.270970
 20
224.808541
 30
0.0
  0
LINE
  5
103
100
AcDbEntity
  8
Ebene_1
 62
7
100
AcDbLine
 10
107.270970
 20
224.808541
 30
0.0
 11
107.457520
 21
233.726343
 31
0.0
  0
SPLINE
  5
104
100
AcDbEntity
  8
Ebene_1
 62
7
100
AcDbSpline
 70
8
 71
3
 72
8
 73
4
 74
0
 40
0
 40
0
 40
0
 40
0
 40
1
 40
1
 40
1
 40
1
 10
107.457520
 20
233.726343
 30
0.0
 10
106.960730
 20
233.762088
 30
0.0
 10
106.456390
 20
233.785771
 30
0.0
 10
105.937720
 20
233.785771
 30
0.0
  0
LINE
  5
105
100
AcDbEntity
  8
Ebene_1
 62
7
100
AcDbLine
 10
105.937720
 20
233.785771
 30
0.0
 11
105.937200
 21
233.785771
 31
0.0
  0
LINE
  5
106
100
AcDbEntity
  8
Ebene_1
 62
7
100
AcDbLine
 10
105.937200
 20
233.785771
 30
0.0
 11
105.937200
 21
233.785771
 31
0.0
  0
SPLINE
  5
107
100
AcDbEntity
  8
Ebene_1
 62
7
100
AcDbSpline
 70
8
 71
3
 72
8
 73
4
 74
0
 40
0
 40
0
 40
0
 40
0
 40
1
 40
1
 40
1
 40
1
 10
99.918966
 20
232.821488
 30
0.0
 10
99.420045
 20
232.645058
 30
0.0
 10
98.936287
 20
232.444599
 30
0.0
 10
98.467891
 20
232.219458
 30
0.0
  0
LINE
  5
108
100
AcDbEntity
  8
Ebene_1
 62
7
100
AcDbLine
 10
98.467891
 20
232.219458
 30
0.0
 11
99.924650
 21
218.361906
 31
0.0
  0
SPLINE
  5
109
100
AcDbEntity
  8
Ebene_1
 62
7
100
AcDbSpline
 70
8
 71
3
 72
8
 73
4
 74
0
 40
0
 40
0
 40
0
 40
0
 40
1
 40
1
 40
1
 40
1
 10
99.924650
 20
218.361906
 30
0.0
 10
99.996044
 20
218.708482
 30
0.0
 10
100.070810
 20
219.036680
 30
0.0
 10
100.150990
 20
219.338074
 30
0.0
  0
SPLINE
  5
10a
100
AcDbEntity
  8
Ebene_1
 62
7
100
AcDbSpline
 70
8
 71
3
 72
8
 73
4
 74
0
 40
0
 40
0
 40
0
 40
0
 40
1
 40
1
 40
1
 40
1
 10
100.150990
 20
219.338074
 30
0.0
 10
100.359800
 20
220.135348
 30
0.0
 10
100.600820
 20
220.839122
 30
0.0
 10
100.873950
 20
221.450606
 30
0.0
  0
LINE
  5
10b
100
AcDbEntity
  8
Ebene_1
 62
7
100
AcDbLine
 10
100.873950
 20
221.450606
 30
0.0
 11
99.918966
 21
232.821488
 31
0.0
  0
LINE
  5
10c
100
AcDbEntity
  8
Ebene_1
 62
7
100
AcDbLine
 10
99.918966
 20
232.821488
 30
0.0
 11
99.918966
 21
232.821488
 31
0.0
  0
LINE
  5
10d
100
AcDbEntity
  8
Ebene_1
 62
7
100
AcDbLine
 10
113.405480
 20
232.204472
 30
0.0
 11
111.952860
 21
218.385677
 31
0.0
  0
SPLINE
  5
10e
100
AcDbEntity
  8
Ebene_1
 62
7
100
AcDbSpline
 70
8
 71
3
 72
8
 73
4
 74
0
 40
0
 40
0
 40
0
 40
0
 40
1
 40
1
 40
1
 40
1
 10
111.952860
 20
218.385677
 30
0.0
 10
112.223270
 20
217.215123
 30
0.0
 10
112.429900
 20
215.651025
 30
0.0
 10
112.574010
 20
213.693457
 30
0.0
  0
LINE
  5
10f
100
AcDbEntity
  8
Ebene_1
 62
7
100
AcDbLine
 10
112.574010
 20
213.693457
 30
0.0
 11
114.813660
 21
231.421574
 31
0.0
  0
SPLINE
  5
110
100
AcDbEntity
  8
Ebene_1
 62
7
100
AcDbSpline
 70
8
 71
3
 72
8
 73
4
 74
0
 40
0
 40
0
 40
0
 40
0
 40
1
 40
1
 40
1
 40
1
 10
114.813660
 20
231.421574
 30
0.0
 10
114.360570
 20
231.709184
 30
0.0
 10
113.890750
 20
231.969445
 30
0.0
 10
113.405480
 20
232.204472
 30
0.0
  0
LINE
  5
111
100
AcDbEntity
  8
Ebene_1
 62
7
100
AcDbLine
 10
113.405480
 20
232.204472
 30
0.0
 11
113.405480
 21
232.204472
 31
0.0
  0
SPLINE
  5
112
100
AcDbEntity
  8
Ebene_1
 62
7
100
AcDbSpline
 70
8
 71
3
 72
8
 73
4
 74
0
 40
0
 40
0
 40
0
 40
0
 40
1
 40
1
 40
1
 40
1
 10
93.207747
 20
227.885356
 30
0.0
 10
92.817699
 20
227.373952
 30
0.0
 10
92.448113
 20
226.829913
 30
0.0
 10
92.101355
 20
226.248763
 30
0.0
  0
LINE
  5
113
100
AcDbEntity
  8
Ebene_1
 62
7
100
AcDbLine
 10
92.101355
 20
226.248763
 30
0.0
 11
102.466100
 21
177.485850
 31
0.0
  0
SPLINE
  5
114
100
AcDbEntity
  8
Ebene_1
 62
7
100
AcDbSpline
 70
8
 71
3
 72
8
 73
4
 74
0
 40
0
 40
0
 40
0
 40
0
 40
1
 40
1
 40
1
 40
1
 10
102.466100
 20
177.485850
 30
0.0
 10
102.588830
 20
177.462730
 30
0.0
 10
102.711030
 20
177.438710
 30
0.0
 10
102.835070
 20
177.418150
 30
0.0
  0
LINE
  5
115
100
AcDbEntity
  8
Ebene_1
 62
7
100
AcDbLine
 10
102.835070
 20
177.418150
 30
0.0
 11
100.065730
 21
191.935100
 31
0.0
  0
SPLINE
  5
116
100
AcDbEntity
  8
Ebene_1
 62
7
100
AcDbSpline
 70
8
 71
3
 72
8
 73
4
 74
0
 40
0
 40
0
 40
0
 40
0
 40
1
 40
1
 40
1
 40
1
 10
100.065730
 20
191.935100
 30
0.0
 10
100.056610
 20
191.968220
 30
0.0
 10
100.046880
 20
191.997780
 30
0.0
 10
100.037820
 20
192.031210
 30
0.0
  0
SPLINE
  5
117
100
AcDbEntity
  8
Ebene_1
 62
7
100
AcDbSpline
 70
8
 71
3
 72
8
 73
4
 74
0
 40
0
 40
0
 40
0
 40
0
 40
1
 40
1
 40
1
 40
1
 10
100.037820
 20
192.031210
 30
0.0
 10
99.855901
 20
192.709920
 30
0.0
 10
99.700036
 20
193.550860
 30
0.0
 10
99.568599
 20
194.542170
 30
0.0
  0
LINE
  5
118
100
AcDbEntity
  8
Ebene_1
 62
7
100
AcDbLine
 10
99.568599
 20
194.542170
 30
0.0
 11
93.207747
 21
227.885356
 31
0.0
  0
LINE
  5
119
100
AcDbEntity
  8
Ebene_1
 62
7
100
AcDbLine
 10
93.207747
 20
227.885356
 30
0.0
 11
93.207747
 21
227.885356
 31
0.0
  0
LINE
  5
11a
100
AcDbEntity
  8
Ebene_1
 62
7
100
AcDbLine
 10
119.771500
 20
226.239978
 30
0.0
 11
109.403660
 21
177.464660
 31
0.0
  0
SPLINE
  5
11b
100
AcDbEntity
  8
Ebene_1
 62
7
100
AcDbSpline
 70
8
 71
3
 72
8
 73
4
 74
0
 40
0
 40
0
 40
0
 40
0
 40
1
 40
1
 40
1
 40
1
 10
109.403660
 20
177.464660
 30
0.0
 10
109.528210
 20
177.486750
 30
0.0
 10
109.654820
 20
177.505690
 30
0.0
 10
109.777800
 20
177.530290
 30
0.0
  0
LINE
  5
11c
100
AcDbEntity
  8
Ebene_1
 62
7
100
AcDbLine
 10
109.777800
 20
177.530290
 30
0.0
 11
120.763170
 21
224.363607
 31
0.0
  0
SPLINE
  5
11d
100
AcDbEntity
  8
Ebene_1
 62
7
100
AcDbSpline
 70
8
 71
3
 72
8
 73
4
 74
0
 40
0
 40
0
 40
0
 40
0
 40
1
 40
1
 40
1
 40
1
 10
120.763170
 20
224.363607
 30
0.0
 10
120.454920
 20
225.025697
 30
0.0
 10
120.124620
 20
225.652259
 30
0.0
 10
119.771500
 20
226.239978
 30
0.0
  0
LINE
  5
11e
100
AcDbEntity
  8
Ebene_1
 62
7
100
AcDbLine
 10
119.771500
 20
226.239978
 30
0.0
 11
119.771500
 21
226.239978
 31
0.0
  0
SPLINE
  5
11f
100
AcDbEntity
  8
Ebene_1
 62
7
100
AcDbSpline
 70
8
 71
3
 72
8
 73
4
 74
0
 40
0
 40
0
 40
0
 40
0
 40
1
 40
1
 40
1
 40
1
 10
88.946509
 20
217.431213
 30
0.0
 10
88.779519
 20
216.585713
 30
0.0
 10
88.635441
 20
215.703251
 30
0.0
 10
88.509843
 20
214.791064
 30
0.0
  0
LINE
  5
120
100
AcDbEntity
  8
Ebene_1
 62
7
100
AcDbLine
 10
88.509843
 20
214.791064
 30
0.0
 11
100.467250
 21
177.989180
 31
0.0
  0
SPLINE
  5
121
100
AcDbEntity
  8
Ebene_1
 62
7
100
AcDbSpline
 70
8
 71
3
 72
8
 73
4
 74
0
 40
0
 40
0
 40
0
 40
0
 40
1
 40
1
 40
1
 40
1
 10
100.467250
 20
177.989180
 30
0.0
 10
100.608800
 20
177.943250
 30
0.0
 10
100.751120
 20
177.899470
 30
0.0
 10
100.894620
 20
177.857400
 30
0.0
  0
LINE
  5
122
100
AcDbEntity
  8
Ebene_1
 62
7
100
AcDbLine
 10
100.894620
 20
177.857400
 30
0.0
 11
88.946509
 21
217.431213
 31
0.0
  0
LINE
  5
123
100
AcDbEntity
  8
Ebene_1
 62
7
100
AcDbLine
 10
88.946509
 20
217.431213
 30
0.0
 11
88.946509
 21
217.431213
 31
0.0
  0
LINE
  5
124
100
AcDbEntity
  8
Ebene_1
 62
7
100
AcDbLine
 10
123.361980
 20
214.782796
 30
0.0
 11
111.391130
 21
177.940080
 31
0.0
  0
SPLINE
  5
125
100
AcDbEntity
  8
Ebene_1
 62
7
100
AcDbSpline
 70
8
 71
3
 72
8
 73
4
 74
0
 40
0
 40
0
 40
0
 40
0
 40
1
 40
1
 40
1
 40
1
 10
111.391130
 20
177.940080
 30
0.0
 10
111.540720
 20
177.986450
 30
0.0
 10
111.687040
 20
178.038370
 30
0.0
 10
111.834000
 20
178.088910
 30
0.0
  0
LINE
  5
126
100
AcDbEntity
  8
Ebene_1
 62
7
100
AcDbLine
 10
111.834000
 20
178.088910
 30
0.0
 11
123.664290
 21
212.060482
 31
0.0
  0
SPLINE
  5
127
100
AcDbEntity
  8
Ebene_1
 62
7
100
AcDbSpline
 70
8
 71
3
 72
8
 73
4
 74
0
 40
0
 40
0
 40
0
 40
0
 40
1
 40
1
 40
1
 40
1
 10
123.664290
 20
212.060482
 30
0.0
 10
123.581820
 20
212.998168
 30
0.0
 10
123.482090
 20
213.907504
 30
0.0
 10
123.361980
 20
214.782796
 30
0.0
  0
LINE
  5
128
100
AcDbEntity
  8
Ebene_1
 62
7
100
AcDbLine
 10
123.361980
 20
214.782796
 30
0.0
 11
123.361980
 21
214.782796
 31
0.0
  0
SPLINE
  5
129
100
AcDbEntity
  8
Ebene_1
 62
7
100
AcDbSpline
 70
8
 71
3
 72
8
 73
4
 74
0
 40
0
 40
0
 40
0
 40
0
 40
1
 40
1
 40
1
 40
1
 10
87.951221
 20
203.942114
 30
0.0
 10
87.965912
 20
203.061140
 30
0.0
 10
87.992995
 20
202.204810
 30
0.0
 10
88.031836
 20
201.371212
 30
0.0
  0
LINE
  5
12a
100
AcDbEntity
  8
Ebene_1
 62
7
100
AcDbLine
 10
88.031836
 20
201.371212
 30
0.0
 11
97.967664
 21
179.054740
 31
0.0
  0
SPLINE
  5
12b
100
AcDbEntity
  8
Ebene_1
 62
7
100
AcDbSpline
 70
8
 71
3
 72
8
 73
4
 74
0
 40
0
 40
0
 40
0
 40
0
 40
1
 40
1
 40
1
 40
1
 10
97.967664
 20
179.054740
 30
0.0
 10
98.154703
 20
178.954220
 30
0.0
 10
98.343445
 20
178.857330
 30
0.0
 10
98.534554
 20
178.764840
 30
0.0
  0
LINE
  5
12c
100
AcDbEntity
  8
Ebene_1
 62
7
100
AcDbLine
 10
98.534554
 20
178.764840
 30
0.0
 11
87.951221
 21
203.942114
 31
0.0
  0
LINE
  5
12d
100
AcDbEntity
  8
Ebene_1
 62
7
100
AcDbLine
 10
87.951221
 20
203.942114
 30
0.0
 11
87.951221
 21
203.942114
 31
0.0
  0
LINE
  5
12e
100
AcDbEntity
  8
Ebene_1
 62
7
100
AcDbLine
 10
123.837400
 20
201.358809
 30
0.0
 11
113.863330
 21
178.956560
 31
0.0
  0
SPLINE
  5
12f
100
AcDbEntity
  8
Ebene_1
 62
7
100
AcDbSpline
 70
8
 71
3
 72
8
 73
4
 74
0
 40
0
 40
0
 40
0
 40
0
 40
1
 40
1
 40
1
 40
1
 10
113.863330
 20
178.956560
 30
0.0
 10
114.071940
 20
179.066220
 30
0.0
 10
114.275480
 20
179.184080
 30
0.0
 10
114.477770
 20
179.303820
 30
0.0
  0
LINE
  5
130
100
AcDbEntity
  8
Ebene_1
 62
7
100
AcDbLine
 10
114.477770
 20
179.303820
 30
0.0
 11
123.658090
 21
198.813228
 31
0.0
  0
SPLINE
  5
131
100
AcDbEntity
  8
Ebene_1
 62
7
100
AcDbSpline
 70
8
 71
3
 72
8
 73
4
 74
0
 40
0
 40
0
 40
0
 40
0
 40
1
 40
1
 40
1
 40
1
 10
123.658090
 20
198.813228
 30
0.0
 10
123.731990
 20
199.638865
 30
0.0
 10
123.793020
 20
200.485208
 30
0.0
 10
123.837400
 20
201.358809
 30
0.0
  0
LINE
  5
132
100
AcDbEntity
  8
Ebene_1
 62
7
100
AcDbLine
 10
123.837400
 20
201.358809
 30
0.0
 11
123.837400
 21
201.358809
 31
0.0
  0
SPLINE
  5
133
100
AcDbEntity
  8
Ebene_1
 62
7
100
AcDbSpline
 70
8
 71
3
 72
8
 73
4
 74
0
 40
0
 40
0
 40
0
 40
0
 40
1
 40
1
 40
1
 40
1
 10
89.333049
 20
191.357870
 30
0.0
 10
89.592882
 20
190.291830
 30
0.0
 10
89.889605
 20
189.299020
 30
0.0
 10
90.221883
 20
188.375110
 30
0.0
  0
LINE
  5
134
100
AcDbEntity
  8
Ebene_1
 62
7
100
AcDbLine
 10
90.221883
 20
188.375110
 30
0.0
 11
93.583952
 21
182.551690
 31
0.0
  0
SPLINE
  5
135
100
AcDbEntity
  8
Ebene_1
 62
7
100
AcDbSpline
 70
8
 71
3
 72
8
 73
4
 74
0
 40
0
 40
0
 40
0
 40
0
 40
1
 40
1
 40
1
 40
1
 10
93.583952
 20
182.551690
 30
0.0
 10
94.008716
 20
182.076960
 30
0.0
 10
94.449281
 20
181.632930
 30
0.0
 10
94.905835
 20
181.221020
 30
0.0
  0
LINE
  5
136
100
AcDbEntity
  8
Ebene_1
 62
7
100
AcDbLine
 10
94.905835
 20
181.221020
 30
0.0
 11
89.333049
 21
191.357870
 31
0.0
  0
LINE
  5
137
100
AcDbEntity
  8
Ebene_1
 62
7
100
AcDbLine
 10
89.333049
 20
191.357870
 30
0.0
 11
89.333049
 21
191.357870
 31
0.0
  0
LINE
  5
138
100
AcDbEntity
  8
Ebene_1
 62
7
100
AcDbLine
 10
121.195190
 20
187.581870
 30
0.0
 11
118.377790
 21
182.702580
 31
0.0
  0
SPLINE
  5
139
100
AcDbEntity
  8
Ebene_1
 62
7
100
AcDbSpline
 70
8
 71
3
 72
8
 73
4
 74
0
 40
0
 40
0
 40
0
 40
0
 40
1
 40
1
 40
1
 40
1
 10
118.377790
 20
182.702580
 30
0.0
 10
118.415970
 20
182.749640
 30
0.0
 10
118.456250
 20
182.793420
 30
0.0
 10
118.494060
 20
182.841080
 30
0.0
  0
SPLINE
  5
13a
100
AcDbEntity
  8
Ebene_1
 62
7
100
AcDbSpline
 70
8
 71
3
 72
8
 73
4
 74
0
 40
0
 40
0
 40
0
 40
0
 40
1
 40
1
 40
1
 40
1
 10
118.494060
 20
182.841080
 30
0.0
 10
119.547490
 20
184.172500
 30
0.0
 10
120.447390
 20
185.753780
 30
0.0
 10
121.195190
 20
187.581870
 30
0.0
  0
LINE
  5
13b
100
AcDbEntity
  8
Ebene_1
 62
7
100
AcDbLine
 10
121.195190
 20
187.581870
 30
0.0
 11
121.195190
 21
187.581870
 31
0.0
  0
SPLINE
  5
13c
100
AcDbEntity
  8
Ebene_1
 62
7
100
AcDbSpline
 70
8
 71
3
 72
8
 73
4
 74
0
 40
0
 40
0
 40
0
 40
0
 40
1
 40
1
 40
1
 40
1
 10
109.210390
 20
187.065630
 30
0.0
 10
109.017970
 20
186.922310
 30
0.0
 10
108.821950
 20
186.789770
 30
0.0
 10
108.619730
 20
186.674950
 30
0.0
  0
LINE
  5
13d
100
AcDbEntity
  8
Ebene_1
 62
7
100
AcDbLine
 10
108.619730
 20
186.674950
 30
0.0
 11
107.627540
 21
177.237800
 31
0.0
  0
SPLINE
  5
13e
100
AcDbEntity
  8
Ebene_1
 62
7
100
AcDbSpline
 70
8
 71
3
 72
8
 73
4
 74
0
 40
0
 40
0
 40
0
 40
0
 40
1
 40
1
 40
1
 40
1
 10
107.627540
 20
177.237800
 30
0.0
 10
107.742440
 20
177.246940
 30
0.0
 10
107.858510
 20
177.254140
 30
0.0
 10
107.972220
 20
177.265190
 30
0.0
  0
LINE
  5
13f
100
AcDbEntity
  8
Ebene_1
 62
7
100
AcDbLine
 10
107.972220
 20
177.265190
 30
0.0
 11
109.210390
 21
187.065630
 31
0.0
  0
LINE
  5
140
100
AcDbEntity
  8
Ebene_1
 62
7
100
AcDbLine
 10
109.210390
 20
187.065630
 30
0.0
 11
109.210390
 21
187.065630
 31
0.0
  0
LINE
  5
141
100
AcDbEntity
  8
Ebene_1
 62
7
100
AcDbLine
 10
103.255200
 20
186.675470
 30
0.0
 11
104.246350
 21
177.243490
 31
0.0
  0
SPLINE
  5
142
100
AcDbEntity
  8
Ebene_1
 62
7
100
AcDbSpline
 70
8
 71
3
 72
8
 73
4
 74
0
 40
0
 40
0
 40
0
 40
0
 40
1
 40
1
 40
1
 40
1
 10
104.246350
 20
177.243490
 30
0.0
 10
104.359750
 20
177.233800
 30
0.0
 10
104.474040
 20
177.225860
 30
0.0
 10
104.588450
 20
177.218160
 30
0.0
  0
LINE
  5
143
100
AcDbEntity
  8
Ebene_1
 62
7
100
AcDbLine
 10
104.588450
 20
177.218160
 30
0.0
 11
103.817440
 21
186.401580
 31
0.0
  0
SPLINE
  5
144
100
AcDbEntity
  8
Ebene_1
 62
7
100
AcDbSpline
 70
8
 71
3
 72
8
 73
4
 74
0
 40
0
 40
0
 40
0
 40
0
 40
1
 40
1
 40
1
 40
1
 10
103.817440
 20
186.401580
 30
0.0
 10
103.626410
 20
186.482180
 30
0.0
 10
103.438200
 20
186.571530
 30
0.0
 10
103.255200
 20
186.675470
 30
0.0
  0
LINE
  5
145
100
AcDbEntity
  8
Ebene_1
 62
7
100
AcDbLine
 10
103.255200
 20
186.675470
 30
0.0
 11
103.255200
 21
186.675470
 31
0.0
  0
SPLINE
  5
146
100
AcDbEntity
  8
Ebene_1
 62
7
100
AcDbSpline
 70
8
 71
3
 72
8
 73
4
 74
0
 40
0
 40
0
 40
0
 40
0
 40
1
 40
1
 40
1
 40
1
 10
106.458100
 20
186.004710
 30
0.0
 10
106.287120
 20
185.989560
 30
0.0
 10
106.113910
 20
185.979900
 30
0.0
 10
105.937720
 20
185.979900
 30
0.0
  0
LINE
  5
147
100
AcDbEntity
  8
Ebene_1
 62
7
100
AcDbLine
 10
105.937720
 20
185.979900
 30
0.0
 11
105.937200
 21
185.979900
 31
0.0
  0
LINE
  5
148
100
AcDbEntity
  8
Ebene_1
 62
7
100
AcDbLine
 10
105.937200
 20
185.979900
 30
0.0
 11
105.937200
 21
177.167520
 31
0.0
  0
LINE
  5
149
100
AcDbEntity
  8
Ebene_1
 62
7
100
AcDbLine
 10
105.937200
 20
177.167520
 30
0.0
 11
105.937720
 21
177.167520
 31
0.0
  0
SPLINE
  5
14a
100
AcDbEntity
  8
Ebene_1
 62
7
100
AcDbSpline
 70
8
 71
3
 72
8
 73
4
 74
0
 40
0
 40
0
 40
0
 40
0
 40
1
 40
1
 40
1
 40
1
 10
105.937720
 20
177.167520
 30
0.0
 10
106.051060
 20
177.167520
 30
0.0
 10
106.160810
 20
177.173590
 30
0.0
 10
106.273100
 20
177.175270
 30
0.0
  0
LINE
  5
14b
100
AcDbEntity
  8
Ebene_1
 62
7
100
AcDbLine
 10
106.273100
 20
177.175270
 30
0.0
 11
106.458100
 21
186.004710
 31
0.0
  0
LINE
  5
14c
100
AcDbEntity
  8
Ebene_1
 62
7
100
AcDbLine
 10
106.458100
 20
186.004710
 30
0.0
 11
106.458100
 21
186.004710
 31
0.0
  0
LINE
  5
14d
100
AcDbEntity
  8
Ebene_1
 62
7
100
AcDbLine
 10
115.053440
 20
233.312931
 30
0.0
 11
108.019250
 21
177.640360
 31
0.0
  0
LINE
  5
14e
100
AcDbEntity
  8
Ebene_1
 62
7
100
AcDbLine
 10
108.019250
 20
177.640360
 30
0.0
 11
108.371680
 21
177.640360
 31
0.0
  0
LINE
  5
14f
100
AcDbEntity
  8
Ebene_1
 62
7
100
AcDbLine
 10
108.371680
 20
177.640360
 30
0.0
 11
116.592370
 21
233.312931
 31
0.0
  0
LINE
  5
150
100
AcDbEntity
  8
Ebene_1
 62
7
100
AcDbLine
 10
116.592370
 20
233.312931
 30
0.0
 11
115.053440
 21
233.312931
 31
0.0
  0
LINE
  5
151
100
AcDbEntity
  8
Ebene_1
 62
7
100
AcDbLine
 10
115.053440
 20
233.312931
 30
0.0
 11
115.053440
 21
233.312931
 31
0.0
  0
SPLINE
  5
152
100
AcDbEntity
  8
Ebene_1
 62
7
100
AcDbSpline
 70
8
 71
3
 72
8
 73
4
 74
0
 40
0
 40
0
 40
0
 40
0
 40
1
 40
1
 40
1
 40
1
 10
108.901360
 20
231.874259
 30
0.0
 10
108.471210
 20
230.943359
 30
0.0
 10
107.958770
 20
230.045936
 30
0.0
 10
107.361920
 20
229.182951
 30
0.0
  0
LINE
  5
153
100
AcDbEntity
  8
Ebene_1
 62
7
100
AcDbLine
 10
107.361920
 20
229.182951
 30
0.0
 11
107.114390
 21
217.352148
 31
0.0
  0
SPLINE
  5
154
100
AcDbEntity
  8
Ebene_1
 62
7
100
AcDbSpline
 70
8
 71
3
 72
8
 73
4
 74
0
 40
0
 40
0
 40
0
 40
0
 40
1
 40
1
 40
1
 40
1
 10
107.114390
 20
217.352148
 30
0.0
 10
107.239140
 20
217.465577
 30
0.0
 10
107.365180
 20
217.577360
 30
0.0
 10
107.488530
 20
217.692696
 30
0.0
  0
LINE
  5
155
100
AcDbEntity
  8
Ebene_1
 62
7
100
AcDbLine
 10
107.488530
 20
217.692696
 30
0.0
 11
107.488530
 21
198.166239
 31
0.0
  0
LINE
  5
156
100
AcDbEntity
  8
Ebene_1
 62
7
100
AcDbLine
 10
107.488530
 20
198.166239
 30
0.0
 11
108.901360
 21
231.874259
 31
0.0
  0
LINE
  5
157
100
AcDbEntity
  8
Ebene_1
 62
7
100
AcDbLine
 10
108.901360
 20
231.874259
 30
0.0
 11
108.901360
 21
231.874259
 31
0.0
  0
SPLINE
  5
158
100
AcDbEntity
  8
Ebene_1
 62
7
100
AcDbSpline
 70
8
 71
3
 72
8
 73
4
 74
0
 40
0
 40
0
 40
0
 40
0
 40
1
 40
1
 40
1
 40
1
 10
101.994810
 20
223.821004
 30
0.0
 10
101.575790
 20
223.509659
 30
0.0
 10
101.160790
 20
223.211415
 30
0.0
 10
100.749920
 20
222.927519
 30
0.0
  0
LINE
  5
159
100
AcDbEntity
  8
Ebene_1
 62
7
100
AcDbLine
 10
100.749920
 20
222.927519
 30
0.0
 11
101.565890
 21
213.211316
 31
0.0
  0
SPLINE
  5
15a
100
AcDbEntity
  8
Ebene_1
 62
7
100
AcDbSpline
 70
8
 71
3
 72
8
 73
4
 74
0
 40
0
 40
0
 40
0
 40
0
 40
1
 40
1
 40
1
 40
1
 10
101.565890
 20
213.211316
 30
0.0
 10
101.921520
 20
213.426577
 30
0.0
 10
102.273520
 20
213.646909
 30
0.0
 10
102.620610
 20
213.873808
 30
0.0
  0
LINE
  5
15b
100
AcDbEntity
  8
Ebene_1
 62
7
100
AcDbLine
 10
102.620610
 20
213.873808
 30
0.0
 11
101.994810
 21
223.821004
 31
0.0
  0
LINE
  5
15c
100
AcDbEntity
  8
Ebene_1
 62
7
100
AcDbLine
 10
101.994810
 20
223.821004
 30
0.0
 11
101.994810
 21
223.821004
 31
0.0
  0
SPLINE
  5
15d
100
AcDbEntity
  8
Ebene_1
 62
7
100
AcDbSpline
 70
8
 71
3
 72
8
 73
4
 74
0
 40
0
 40
0
 40
0
 40
0
 40
1
 40
1
 40
1
 40
1
 10
95.959517
 20
220.148360
 30
0.0
 10
95.561797
 20
219.966482
 30
0.0
 10
95.168438
 20
219.799088
 30
0.0
 10
94.779744
 20
219.647616
 30
0.0
  0
LINE
  5
15e
100
AcDbEntity
  8
Ebene_1
 62
7
100
AcDbLine
 10
94.779744
 20
219.647616
 30
0.0
 11
96.495402
 21
210.652816
 31
0.0
  0
SPLINE
  5
15f
100
AcDbEntity
  8
Ebene_1
 62
7
100
AcDbSpline
 70
8
 71
3
 72
8
 73
4
 74
0
 40
0
 40
0
 40
0
 40
0
 40
1
 40
1
 40
1
 40
1
 10
96.495402
 20
210.652816
 30
0.0
 10
96.830997
 20
210.791425
 30
0.0
 10
97.163867
 20
210.933649
 30
0.0
 10
97.493274
 20
211.080697
 30
0.0
  0
LINE
  5
160
100
AcDbEntity
  8
Ebene_1
 62
7
100
AcDbLine
 10
97.493274
 20
211.080697
 30
0.0
 11
95.959517
 21
220.148360
 31
0.0
  0
LINE
  5
161
100
AcDbEntity
  8
Ebene_1
 62
7
100
AcDbLine
 10
95.959517
 20
220.148360
 30
0.0
 11
95.959517
 21
220.148360
 31
0.0
  0
LINE
  5
162
100
AcDbEntity
  8
Ebene_1
 62
7
100
AcDbLine
 10
118.115790
 20
213.078507
 30
0.0
 11
109.803630
 21
177.640360
 31
0.0
  0
LINE
  5
163
100
AcDbEntity
  8
Ebene_1
 62
7
100
AcDbLine
 10
109.803630
 20
177.640360
 30
0.0
 11
110.170020
 21
177.640360
 31
0.0
  0
LINE
  5
164
100
AcDbEntity
  8
Ebene_1
 62
7
100
AcDbLine
 10
110.170020
 20
177.640360
 30
0.0
 11
118.115790
 21
208.586792
 31
0.0
  0
LINE
  5
165
100
AcDbEntity
  8
Ebene_1
 62
7
100
AcDbLine
 10
118.115790
 20
208.586792
 30
0.0
 11
118.115790
 21
213.078507
 31
0.0
  0
LINE
  5
166
100
AcDbEntity
  8
Ebene_1
 62
7
100
AcDbLine
 10
118.115790
 20
213.078507
 30
0.0
 11
118.115790
 21
213.078507
 31
0.0
  0
LINE
  5
167
100
AcDbEntity
  8
Ebene_1
 62
7
100
AcDbLine
 10
118.115790
 20
196.126570
 30
0.0
 11
111.677940
 21
177.640360
 31
0.0
  0
LINE
  5
168
100
AcDbEntity
  8
Ebene_1
 62
7
100
AcDbLine
 10
111.677940
 20
177.640360
 30
0.0
 11
112.068090
 21
177.640360
 31
0.0
  0
LINE
  5
169
100
AcDbEntity
  8
Ebene_1
 62
7
100
AcDbLine
 10
112.068090
 20
177.640360
 30
0.0
 11
118.115790
 21
193.902420
 31
0.0
  0
LINE
  5
16a
100
AcDbEntity
  8
Ebene_1
 62
7
100
AcDbLine
 10
118.115790
 20
193.902420
 30
0.0
 11
118.115790
 21
196.126570
 31
0.0
  0
LINE
  5
16b
100
AcDbEntity
  8
Ebene_1
 62
7
100
AcDbLine
 10
118.115790
 20
196.126570
 30
0.0
 11
118.115790
 21
196.126570
 31
0.0
  0
LINE
  5
16c
100
AcDbEntity
  8
Ebene_1
 62
7
100
AcDbLine
 10
118.115790
 20
187.035650
 30
0.0
 11
113.694870
 21
177.640360
 31
0.0
  0
LINE
  5
16d
100
AcDbEntity
  8
Ebene_1
 62
7
100
AcDbLine
 10
113.694870
 20
177.640360
 30
0.0
 11
114.120680
 21
177.640360
 31
0.0
  0
LINE
  5
16e
100
AcDbEntity
  8
Ebene_1
 62
7
100
AcDbLine
 10
114.120680
 20
177.640360
 30
0.0
 11
118.115790
 21
185.687930
 31
0.0
  0
LINE
  5
16f
100
AcDbEntity
  8
Ebene_1
 62
7
100
AcDbLine
 10
118.115790
 20
185.687930
 30
0.0
 11
118.115790
 21
187.035650
 31
0.0
  0
LINE
  5
170
100
AcDbEntity
  8
Ebene_1
 62
7
100
AcDbLine
 10
118.115790
 20
187.035650
 30
0.0
 11
118.115790
 21
187.035650
 31
0.0
  0
LINE
  5
171
100
AcDbEntity
  8
Ebene_1
 62
7
100
AcDbLine
 10
118.115790
 20
181.264430
 30
0.0
 11
115.921090
 21
177.640360
 31
0.0
  0
LINE
  5
172
100
AcDbEntity
  8
Ebene_1
 62
7
100
AcDbLine
 10
115.921090
 20
177.640360
 30
0.0
 11
116.398580
 21
177.640360
 31
0.0
  0
LINE
  5
173
100
AcDbEntity
  8
Ebene_1
 62
7
100
AcDbLine
 10
116.398580
 20
177.640360
 30
0.0
 11
118.115790
 21
180.346140
 31
0.0
  0
LINE
  5
174
100
AcDbEntity
  8
Ebene_1
 62
7
100
AcDbLine
 10
118.115790
 20
180.346140
 30
0.0
 11
118.115790
 21
181.264430
 31
0.0
  0
LINE
  5
175
100
AcDbEntity
  8
Ebene_1
 62
7
100
AcDbLine
 10
118.115790
 20
181.264430
 30
0.0
 11
118.115790
 21
181.264430
 31
0.0
  0
LINE
  5
176
100
AcDbEntity
  8
Ebene_1
 62
7
100
AcDbLine
 10
108.958720
 20
233.244718
 30
0.0
 11
108.584590
 21
224.328467
 31
0.0
  0
SPLINE
  5
177
100
AcDbEntity
  8
Ebene_1
 62
7
100
AcDbSpline
 70
8
 71
3
 72
8
 73
4
 74
0
 40
0
 40
0
 40
0
 40
0
 40
1
 40
1
 40
1
 40
1
 10
108.584590
 20
224.328467
 30
0.0
 10
109.047040
 20
224.237801
 30
0.0
 10
109.481150
 20
224.110492
 30
0.0
 10
109.888380
 20
223.947611
 30
0.0
  0
LINE
  5
178
100
AcDbEntity
  8
Ebene_1
 62
7
100
AcDbLine
 10
109.888380
 20
223.947611
 30
0.0
 11
110.463020
 21
233.088139
 31
0.0
  0
SPLINE
  5
179
100
AcDbEntity
  8
Ebene_1
 62
7
100
AcDbSpline
 70
8
 71
3
 72
8
 73
4
 74
0
 40
0
 40
0
 40
0
 40
0
 40
1
 40
1
 40
1
 40
1
 10
110.463020
 20
233.088139
 30
0.0
 10
109.972030
 20
233.153480
 30
0.0
 10
109.472800
 20
233.208425
 30
0.0
 10
108.958720
 20
233.244718
 30
0.0
  0
LINE
  5
17a
100
AcDbEntity
  8
Ebene_1
 62
7
100
AcDbLine
 10
108.958720
 20
233.244718
 30
0.0
 11
108.958720
 21
233.244718
 31
0.0
  0
SPLINE
  5
17b
100
AcDbEntity
  8
Ebene_1
 62
7
100
AcDbSpline
 70
8
 71
3
 72
8
 73
4
 74
0
 40
0
 40
0
 40
0
 40
0
 40
1
 40
1
 40
1
 40
1
 10
102.926020
 20
233.000806
 30
0.0
 10
102.418610
 20
232.919567
 30
0.0
 10
101.921590
 20
232.822689
 30
0.0
 10
101.435150
 20
232.709351
 30
0.0
  0
LINE
  5
17c
100
AcDbEntity
  8
Ebene_1
 62
7
100
AcDbLine
 10
101.435150
 20
232.709351
 30
0.0
 11
102.042870
 21
223.052576
 31
0.0
  0
SPLINE
  5
17d
100
AcDbEntity
  8
Ebene_1
 62
7
100
AcDbSpline
 70
8
 71
3
 72
8
 73
4
 74
0
 40
0
 40
0
 40
0
 40
0
 40
1
 40
1
 40
1
 40
1
 10
102.042870
 20
223.052576
 30
0.0
 10
102.432660
 20
223.358153
 30
0.0
 10
102.854900
 20
223.615903
 30
0.0
 10
103.310490
 20
223.824622
 30
0.0
  0
LINE
  5
17e
100
AcDbEntity
  8
Ebene_1
 62
7
100
AcDbLine
 10
103.310490
 20
223.824622
 30
0.0
 11
102.926020
 21
233.000806
 31
0.0
  0
LINE
  5
17f
100
AcDbEntity
  8
Ebene_1
 62
7
100
AcDbLine
 10
102.926020
 20
233.000806
 30
0.0
 11
102.926020
 21
233.000806
 31
0.0
  0
LINE
  5
180
100
AcDbEntity
  8
Ebene_1
 62
7
100
AcDbLine
 10
116.305560
 20
231.366280
 30
0.0
 11
111.037150
 21
195.690940
 31
0.0
  0
SPLINE
  5
181
100
AcDbEntity
  8
Ebene_1
 62
7
100
AcDbSpline
 70
8
 71
3
 72
8
 73
4
 74
0
 40
0
 40
0
 40
0
 40
0
 40
1
 40
1
 40
1
 40
1
 10
111.037150
 20
195.690940
 30
0.0
 10
111.334420
 20
195.965420
 30
0.0
 10
111.595800
 20
196.209730
 30
0.0
 10
111.915650
 20
196.503290
 30
0.0
  0
LINE
  5
182
100
AcDbEntity
  8
Ebene_1
 62
7
100
AcDbLine
 10
111.915650
 20
196.503290
 30
0.0
 11
117.681190
 21
230.589067
 31
0.0
  0
SPLINE
  5
183
100
AcDbEntity
  8
Ebene_1
 62
7
100
AcDbSpline
 70
8
 71
3
 72
8
 73
4
 74
0
 40
0
 40
0
 40
0
 40
0
 40
1
 40
1
 40
1
 40
1
 10
117.681190
 20
230.589067
 30
0.0
 10
117.239960
 20
230.869948
 30
0.0
 10
116.781380
 20
231.128911
 30
0.0
 10
116.305560
 20
231.366280
 30
0.0
  0
LINE
  5
184
100
AcDbEntity
  8
Ebene_1
 62
7
100
AcDbLine
 10
116.305560
 20
231.366280
 30
0.0
 11
116.305560
 21
231.366280
 31
0.0
  0
SPLINE
  5
185
100
AcDbEntity
  8
Ebene_1
 62
7
100
AcDbSpline
 70
8
 71
3
 72
8
 73
4
 74
0
 40
0
 40
0
 40
0
 40
0
 40
1
 40
1
 40
1
 40
1
 10
95.720256
 20
230.346187
 30
0.0
 10
95.300898
 20
230.079344
 30
0.0
 10
94.892895
 20
229.795872
 30
0.0
 10
94.497074
 20
229.493009
 30
0.0
  0
SPLINE
  5
186
100
AcDbEntity
  8
Ebene_1
 62
7
100
AcDbSpline
 70
8
 71
3
 72
8
 73
4
 74
0
 40
0
 40
0
 40
0
 40
0
 40
1
 40
1
 40
1
 40
1
 10
94.497074
 20
229.493009
 30
0.0
 10
94.461682
 20
229.465929
 30
0.0
 10
94.428809
 20
229.435714
 30
0.0
 10
94.393722
 20
229.408260
 30
0.0
  0
LINE
  5
187
100
AcDbEntity
  8
Ebene_1
 62
7
100
AcDbLine
 10
94.393722
 20
229.408260
 30
0.0
 11
96.646297
 21
216.089693
 31
0.0
  0
LINE
  5
188
100
AcDbEntity
  8
Ebene_1
 62
7
100
AcDbLine
 10
96.646297
 20
216.089693
 30
0.0
 11
97.843123
 21
215.970321
 31
0.0
  0
LINE
  5
189
100
AcDbEntity
  8
Ebene_1
 62
7
100
AcDbLine
 10
97.843123
 20
215.970321
 30
0.0
 11
95.720256
 21
230.346187
 31
0.0
  0
LINE
  5
18a
100
AcDbEntity
  8
Ebene_1
 62
7
100
AcDbLine
 10
95.720256
 20
230.346187
 30
0.0
 11
95.720256
 21
230.346187
 31
0.0
  0
LINE
  5
18b
100
AcDbEntity
  8
Ebene_1
 62
7
100
AcDbLine
 10
122.498470
 20
225.658101
 30
0.0
 11
116.018760
 21
200.419849
 31
0.0
  0
SPLINE
  5
18c
100
AcDbEntity
  8
Ebene_1
 62
7
100
AcDbSpline
 70
8
 71
3
 72
8
 73
4
 74
0
 40
0
 40
0
 40
0
 40
0
 40
1
 40
1
 40
1
 40
1
 10
116.018760
 20
200.419849
 30
0.0
 10
116.468360
 20
200.872634
 30
0.0
 10
116.882140
 20
201.300604
 30
0.0
 10
117.258480
 20
201.702458
 30
0.0
  0
LINE
  5
18d
100
AcDbEntity
  8
Ebene_1
 62
7
100
AcDbLine
 10
117.258480
 20
201.702458
 30
0.0
 11
123.433810
 21
223.818420
 31
0.0
  0
SPLINE
  5
18e
100
AcDbEntity
  8
Ebene_1
 62
7
100
AcDbSpline
 70
8
 71
3
 72
8
 73
4
 74
0
 40
0
 40
0
 40
0
 40
0
 40
1
 40
1
 40
1
 40
1
 10
123.433810
 20
223.818420
 30
0.0
 10
123.169330
 20
224.453429
 30
0.0
 10
122.855930
 20
225.065835
 30
0.0
 10
122.498470
 20
225.658101
 30
0.0
  0
LINE
  5
18f
100
AcDbEntity
  8
Ebene_1
 62
7
100
AcDbLine
 10
122.498470
 20
225.658101
 30
0.0
 11
122.498470
 21
225.658101
 31
0.0
  0
SPLINE
  5
190
100
AcDbEntity
  8
Ebene_1
 62
7
100
AcDbSpline
 70
8
 71
3
 72
8
 73
4
 74
0
 40
0
 40
0
 40
0
 40
0
 40
1
 40
1
 40
1
 40
1
 10
90.002775
 20
223.215356
 30
0.0
 10
89.720594
 20
222.479792
 30
0.0
 10
89.472519
 20
221.703191
 30
0.0
 10
89.262252
 20
220.879582
 30
0.0
  0
LINE
  5
191
100
AcDbEntity
  8
Ebene_1
 62
7
100
AcDbLine
 10
89.262252
 20
220.879582
 30
0.0
 11
90.425488
 21
216.711877
 31
0.0
  0
LINE
  5
192
100
AcDbEntity
  8
Ebene_1
 62
7
100
AcDbLine
 10
90.425488
 20
216.711877
 30
0.0
 11
91.705514
 21
216.583720
 31
0.0
  0
LINE
  5
193
100
AcDbEntity
  8
Ebene_1
 62
7
100
AcDbLine
 10
91.705514
 20
216.583720
 30
0.0
 11
90.002775
 21
223.215356
 31
0.0
  0
LINE
  5
194
100
AcDbEntity
  8
Ebene_1
 62
7
100
AcDbLine
 10
90.002775
 20
223.215356
 30
0.0
 11
90.002775
 21
223.215356
 31
0.0
  0
SPLINE
  5
195
100
AcDbEntity
  8
Ebene_1
 62
7
100
AcDbSpline
 70
8
 71
3
 72
8
 73
4
 74
0
 40
0
 40
0
 40
0
 40
0
 40
1
 40
1
 40
1
 40
1
 10
108.841940
 20
207.320203
 30
0.0
 10
108.528460
 20
206.995372
 30
0.0
 10
108.186840
 20
206.648436
 30
0.0
 10
107.829080
 20
206.289258
 30
0.0
  0
LINE
  5
196
100
AcDbEntity
  8
Ebene_1
 62
7
100
AcDbLine
 10
107.829080
 20
206.289258
 30
0.0
 11
107.234280
 21
192.104590
 31
0.0
  0
SPLINE
  5
197
100
AcDbEntity
  8
Ebene_1
 62
7
100
AcDbSpline
 70
8
 71
3
 72
8
 73
4
 74
0
 40
0
 40
0
 40
0
 40
0
 40
1
 40
1
 40
1
 40
1
 10
107.234280
 20
192.104590
 30
0.0
 10
107.463850
 20
192.328830
 30
0.0
 10
107.659440
 20
192.523940
 30
0.0
 10
107.927260
 20
192.780520
 30
0.0
  0
LINE
  5
198
100
AcDbEntity
  8
Ebene_1
 62
7
100
AcDbLine
 10
107.927260
 20
192.780520
 30
0.0
 11
108.841940
 21
207.320203
 31
0.0
  0
LINE
  5
199
100
AcDbEntity
  8
Ebene_1
 62
7
100
AcDbLine
 10
108.841940
 20
207.320203
 30
0.0
 11
108.841940
 21
207.320203
 31
0.0
  0
SPLINE
  5
19a
100
AcDbEntity
  8
Ebene_1
 62
7
100
AcDbSpline
 70
8
 71
3
 72
8
 73
4
 74
0
 40
0
 40
0
 40
0
 40
0
 40
1
 40
1
 40
1
 40
1
 10
104.193120
 20
202.764925
 30
0.0
 10
103.925460
 20
202.512258
 30
0.0
 10
103.649510
 20
202.252900
 30
0.0
 10
103.368370
 20
201.989779
 30
0.0
  0
LINE
  5
19b
100
AcDbEntity
  8
Ebene_1
 62
7
100
AcDbLine
 10
103.368370
 20
201.989779
 30
0.0
 11
104.206560
 21
188.666560
 31
0.0
  0
SPLINE
  5
19c
100
AcDbEntity
  8
Ebene_1
 62
7
100
AcDbSpline
 70
8
 71
3
 72
8
 73
4
 74
0
 40
0
 40
0
 40
0
 40
0
 40
1
 40
1
 40
1
 40
1
 10
104.206560
 20
188.666560
 30
0.0
 10
104.378440
 20
188.912040
 30
0.0
 10
104.560770
 20
189.158950
 30
0.0
 10
104.753300
 20
189.407600
 30
0.0
  0
LINE
  5
19d
100
AcDbEntity
  8
Ebene_1
 62
7
100
AcDbLine
 10
104.753300
 20
189.407600
 30
0.0
 11
104.193120
 21
202.764925
 31
0.0
  0
LINE
  5
19e
100
AcDbEntity
  8
Ebene_1
 62
7
100
AcDbLine
 10
104.193120
 20
202.764925
 30
0.0
 11
104.193120
 21
202.764925
 31
0.0
  0
SPLINE
  5
19f
100
AcDbEntity
  8
Ebene_1
 62
7
100
AcDbSpline
 70
8
 71
3
 72
8
 73
4
 74
0
 40
0
 40
0
 40
0
 40
0
 40
1
 40
1
 40
1
 40
1
 10
100.332380
 20
199.113468
 30
0.0
 10
100.096410
 20
198.884617
 30
0.0
 10
99.861009
 20
198.656498
 30
0.0
 10
99.632678
 20
198.431856
 30
0.0
  0
LINE
  5
1a0
100
AcDbEntity
  8
Ebene_1
 62
7
100
AcDbLine
 10
99.632678
 20
198.431856
 30
0.0
 11
103.149260
 21
177.640360
 31
0.0
  0
LINE
  5
1a1
100
AcDbEntity
  8
Ebene_1
 62
7
100
AcDbLine
 10
103.149260
 20
177.640360
 30
0.0
 11
103.503240
 21
177.640360
 31
0.0
  0
LINE
  5
1a2
100
AcDbEntity
  8
Ebene_1
 62
7
100
AcDbLine
 10
103.503240
 20
177.640360
 30
0.0
 11
100.332380
 21
199.113468
 31
0.0
  0
LINE
  5
1a3
100
AcDbEntity
  8
Ebene_1
 62
7
100
AcDbLine
 10
100.332380
 20
199.113468
 30
0.0
 11
100.332380
 21
199.113468
 31
0.0
  0
SPLINE
  5
1a4
100
AcDbEntity
  8
Ebene_1
 62
7
100
AcDbSpline
 70
8
 71
3
 72
8
 73
4
 74
0
 40
0
 40
0
 40
0
 40
0
 40
1
 40
1
 40
1
 40
1
 10
97.041622
 20
195.802040
 30
0.0
 10
96.836214
 20
195.586020
 30
0.0
 10
96.638794
 20
195.374790
 30
0.0
 10
96.441659
 20
195.163320
 30
0.0
  0
LINE
  5
1a5
100
AcDbEntity
  8
Ebene_1
 62
7
100
AcDbLine
 10
96.441659
 20
195.163320
 30
0.0
 11
101.334380
 21
177.640360
 31
0.0
  0
LINE
  5
1a6
100
AcDbEntity
  8
Ebene_1
 62
7
100
AcDbLine
 10
101.334380
 20
177.640360
 30
0.0
 11
101.704390
 21
177.640360
 31
0.0
  0
LINE
  5
1a7
100
AcDbEntity
  8
Ebene_1
 62
7
100
AcDbLine
 10
101.704390
 20
177.640360
 30
0.0
 11
97.041622
 21
195.802040
 31
0.0
  0
LINE
  5
1a8
100
AcDbEntity
  8
Ebene_1
 62
7
100
AcDbLine
 10
97.041622
 20
195.802040
 30
0.0
 11
97.041622
 21
195.802040
 31
0.0
  0
SPLINE
  5
1a9
100
AcDbEntity
  8
Ebene_1
 62
7
100
AcDbSpline
 70
8
 71
3
 72
8
 73
4
 74
0
 40
0
 40
0
 40
0
 40
0
 40
1
 40
1
 40
1
 40
1
 10
94.218022
 20
192.667350
 30
0.0
 10
94.041715
 20
192.459030
 30
0.0
 10
93.870997
 20
192.254350
 30
0.0
 10
93.704358
 20
192.051370
 30
0.0
  0
LINE
  5
1aa
100
AcDbEntity
  8
Ebene_1
 62
7
100
AcDbLine
 10
93.704358
 20
192.051370
 30
0.0
 11
99.409953
 21
177.640360
 31
0.0
  0
LINE
  5
1ab
100
AcDbEntity
  8
Ebene_1
 62
7
100
AcDbLine
 10
99.409953
 20
177.640360
 30
0.0
 11
99.806311
 21
177.640360
 31
0.0
  0
LINE
  5
1ac
100
AcDbEntity
  8
Ebene_1
 62
7
100
AcDbLine
 10
99.806311
 20
177.640360
 30
0.0
 11
94.218022
 21
192.667350
 31
0.0
  0
LINE
  5
1ad
100
AcDbEntity
  8
Ebene_1
 62
7
100
AcDbLine
 10
94.218022
 20
192.667350
 30
0.0
 11
94.218022
 21
192.667350
 31
0.0
  0
SPLINE
  5
1ae
100
AcDbEntity
  8
Ebene_1
 62
7
100
AcDbSpline
 70
8
 71
3
 72
8
 73
4
 74
0
 40
0
 40
0
 40
0
 40
0
 40
1
 40
1
 40
1
 40
1
 10
91.823853
 20
189.586400
 30
0.0
 10
91.675841
 20
189.373450
 30
0.0
 10
91.536159
 20
189.164560
 30
0.0
 10
91.401656
 20
188.959050
 30
0.0
  0
LINE
  5
1af
100
AcDbEntity
  8
Ebene_1
 62
7
100
AcDbLine
 10
91.401656
 20
188.959050
 30
0.0
 11
97.319124
 21
177.640360
 31
0.0
  0
LINE
  5
1b0
100
AcDbEntity
  8
Ebene_1
 62
7
100
AcDbLine
 10
97.319124
 20
177.640360
 30
0.0
 11
97.753723
 21
177.640360
 31
0.0
  0
LINE
  5
1b1
100
AcDbEntity
  8
Ebene_1
 62
7
100
AcDbLine
 10
97.753723
 20
177.640360
 30
0.0
 11
91.823853
 21
189.586400
 31
0.0
  0
LINE
  5
1b2
100
AcDbEntity
  8
Ebene_1
 62
7
100
AcDbLine
 10
91.823853
 20
189.586400
 30
0.0
 11
91.823853
 21
189.586400
 31
0.0
  0
LINE
  5
1b3
100
AcDbEntity
  8
Ebene_1
 62
7
100
AcDbLine
 10
104.278910
 20
187.511590
 30
0.0
 11
104.900060
 21
177.640360
 31
0.0
  0
LINE
  5
1b4
100
AcDbEntity
  8
Ebene_1
 62
7
100
AcDbLine
 10
104.900060
 20
177.640360
 30
0.0
 11
105.246290
 21
177.640360
 31
0.0
  0
LINE
  5
1b5
100
AcDbEntity
  8
Ebene_1
 62
7
100
AcDbLine
 10
105.246290
 20
177.640360
 30
0.0
 11
104.832880
 21
187.511590
 31
0.0
  0
LINE
  5
1b6
100
AcDbEntity
  8
Ebene_1
 62
7
100
AcDbLine
 10
104.832880
 20
187.511590
 30
0.0
 11
104.278910
 21
187.511590
 31
0.0
  0
LINE
  5
1b7
100
AcDbEntity
  8
Ebene_1
 62
7
100
AcDbLine
 10
104.278910
 20
187.511590
 30
0.0
 11
104.278910
 21
187.511590
 31
0.0
  0
LINE
  5
1b8
100
AcDbEntity
  8
Ebene_1
 62
7
100
AcDbLine
 10
107.042050
 20
187.511590
 30
0.0
 11
106.628630
 21
177.640360
 31
0.0
  0
LINE
  5
1b9
100
AcDbEntity
  8
Ebene_1
 62
7
100
AcDbLine
 10
106.628630
 20
177.640360
 30
0.0
 11
106.974350
 21
177.640360
 31
0.0
  0
LINE
  5
1ba
100
AcDbEntity
  8
Ebene_1
 62
7
100
AcDbLine
 10
106.974350
 20
177.640360
 30
0.0
 11
107.595500
 21
187.511590
 31
0.0
  0
LINE
  5
1bb
100
AcDbEntity
  8
Ebene_1
 62
7
100
AcDbLine
 10
107.595500
 20
187.511590
 30
0.0
 11
107.042050
 21
187.511590
 31
0.0
  0
LINE
  5
1bc
100
AcDbEntity
  8
Ebene_1
 62
7
100
AcDbLine
 10
107.042050
 20
187.511590
 30
0.0
 11
107.042050
 21
187.511590
 31
0.0
  0
LINE
  5
1bd
100
AcDbEntity
  8
Ebene_1
 62
7
100
AcDbLine
 10
109.828960
 20
187.511590
 30
0.0
 11
108.371160
 21
177.640360
 31
0.0
  0
LINE
  5
1be
100
AcDbEntity
  8
Ebene_1
 62
7
100
AcDbLine
 10
108.371160
 20
177.640360
 30
0.0
 11
108.725660
 21
177.640360
 31
0.0
  0
LINE
  5
1bf
100
AcDbEntity
  8
Ebene_1
 62
7
100
AcDbLine
 10
108.725660
 20
177.640360
 30
0.0
 11
110.394810
 21
187.511590
 31
0.0
  0
LINE
  5
1c0
100
AcDbEntity
  8
Ebene_1
 62
7
100
AcDbLine
 10
110.394810
 20
187.511590
 30
0.0
 11
109.828960
 21
187.511590
 31
0.0
  0
LINE
  5
1c1
100
AcDbEntity
  8
Ebene_1
 62
7
100
AcDbLine
 10
109.828960
 20
187.511590
 30
0.0
 11
109.828960
 21
187.511590
 31
0.0
  0
LINE
  5
1c2
100
AcDbEntity
  8
Ebene_1
 62
7
100
AcDbLine
 10
112.704230
 20
187.511590
 30
0.0
 11
110.169500
 21
177.640360
 31
0.0
  0
LINE
  5
1c3
100
AcDbEntity
  8
Ebene_1
 62
7
100
AcDbLine
 10
110.169500
 20
177.640360
 30
0.0
 11
110.540020
 21
177.640360
 31
0.0
  0
LINE
  5
1c4
100
AcDbEntity
  8
Ebene_1
 62
7
100
AcDbLine
 10
110.540020
 20
177.640360
 30
0.0
 11
113.295930
 21
187.511590
 31
0.0
  0
LINE
  5
1c5
100
AcDbEntity
  8
Ebene_1
 62
7
100
AcDbLine
 10
113.295930
 20
187.511590
 30
0.0
 11
112.704230
 21
187.511590
 31
0.0
  0
LINE
  5
1c6
100
AcDbEntity
  8
Ebene_1
 62
7
100
AcDbLine
 10
112.704230
 20
187.511590
 30
0.0
 11
112.704230
 21
187.511590
 31
0.0
  0
LINE
  5
1c7
100
AcDbEntity
  8
Ebene_1
 62
7
100
AcDbLine
 10
115.739190
 20
187.511590
 30
0.0
 11
112.068090
 21
177.640360
 31
0.0
  0
LINE
  5
1c8
100
AcDbEntity
  8
Ebene_1
 62
7
100
AcDbLine
 10
112.068090
 20
177.640360
 30
0.0
 11
112.463940
 21
177.640360
 31
0.0
  0
LINE
  5
1c9
100
AcDbEntity
  8
Ebene_1
 62
7
100
AcDbLine
 10
112.463940
 20
177.640360
 30
0.0
 11
116.372220
 21
187.511590
 31
0.0
  0
LINE
  5
1ca
100
AcDbEntity
  8
Ebene_1
 62
7
100
AcDbLine
 10
116.372220
 20
187.511590
 30
0.0
 11
115.739190
 21
187.511590
 31
0.0
  0
LINE
  5
1cb
100
AcDbEntity
  8
Ebene_1
 62
7
100
AcDbLine
 10
115.739190
 20
187.511590
 30
0.0
 11
115.739190
 21
187.511590
 31
0.0
  0
LINE
  5
1cc
100
AcDbEntity
  8
Ebene_1
 62
7
100
AcDbLine
 10
119.021160
 20
187.511590
 30
0.0
 11
114.120680
 21
177.640360
 31
0.0
  0
LINE
  5
1cd
100
AcDbEntity
  8
Ebene_1
 62
7
100
AcDbLine
 10
114.120680
 20
177.640360
 30
0.0
 11
114.555800
 21
177.640360
 31
0.0
  0
LINE
  5
1ce
100
AcDbEntity
  8
Ebene_1
 62
7
100
AcDbLine
 10
114.555800
 20
177.640360
 30
0.0
 11
119.716720
 21
187.511590
 31
0.0
  0
LINE
  5
1cf
100
AcDbEntity
  8
Ebene_1
 62
7
100
AcDbLine
 10
119.716720
 20
187.511590
 30
0.0
 11
119.021160
 21
187.511590
 31
0.0
  0
LINE
  5
1d0
100
AcDbEntity
  8
Ebene_1
 62
7
100
AcDbLine
 10
119.021160
 20
187.511590
 30
0.0
 11
119.021160
 21
187.511590
 31
0.0
  0
LINE
  5
1d1
100
AcDbEntity
  8
Ebene_1
 62
7
100
AcDbLine
 10
122.663830
 20
187.511590
 30
0.0
 11
116.399100
 21
177.640360
 31
0.0
  0
LINE
  5
1d2
100
AcDbEntity
  8
Ebene_1
 62
7
100
AcDbLine
 10
116.399100
 20
177.640360
 30
0.0
 11
116.890020
 21
177.640360
 31
0.0
  0
LINE
  5
1d3
100
AcDbEntity
  8
Ebene_1
 62
7
100
AcDbLine
 10
116.890020
 20
177.640360
 30
0.0
 11
123.448280
 21
187.511590
 31
0.0
  0
LINE
  5
1d4
100
AcDbEntity
  8
Ebene_1
 62
7
100
AcDbLine
 10
123.448280
 20
187.511590
 30
0.0
 11
122.663830
 21
187.511590
 31
0.0
  0
LINE
  5
1d5
100
AcDbEntity
  8
Ebene_1
 62
7
100
AcDbLine
 10
122.663830
 20
187.511590
 30
0.0
 11
122.663830
 21
187.511590
 31
0.0
  0
SPLINE
  5
1d6
100
AcDbEntity
  8
Ebene_1
 62
7
100
AcDbSpline
 70
8
 71
3
 72
8
 73
4
 74
0
 40
0
 40
0
 40
0
 40
0
 40
1
 40
1
 40
1
 40
1
 10
89.921126
 20
186.392280
 30
0.0
 10
89.811689
 20
186.176260
 30
0.0
 10
89.705213
 20
185.959320
 30
0.0
 10
89.602283
 20
185.741670
 30
0.0
  0
LINE
  5
1d7
100
AcDbEntity
  8
Ebene_1
 62
7
100
AcDbLine
 10
89.602283
 20
185.741670
 30
0.0
 11
94.984383
 21
177.640360
 31
0.0
  0
LINE
  5
1d8
100
AcDbEntity
  8
Ebene_1
 62
7
100
AcDbLine
 10
94.984383
 20
177.640360
 30
0.0
 11
95.475309
 21
177.640360
 31
0.0
  0
LINE
  5
1d9
100
AcDbEntity
  8
Ebene_1
 62
7
100
AcDbLine
 10
95.475309
 20
177.640360
 30
0.0
 11
89.921126
 21
186.392280
 31
0.0
  0
LINE
  5
1da
100
AcDbEntity
  8
Ebene_1
 62
7
100
AcDbLine
 10
89.921126
 20
186.392280
 30
0.0
 11
89.921126
 21
186.392280
 31
0.0
  0
LINE
  5
1db
100
AcDbEntity
  8
Ebene_1
 62
7
100
AcDbLine
 10
124.564490
 20
184.657500
 30
0.0
 11
119.003070
 21
177.640360
 31
0.0
  0
LINE
  5
1dc
100
AcDbEntity
  8
Ebene_1
 62
7
100
AcDbLine
 10
119.003070
 20
177.640360
 30
0.0
 11
119.574610
 21
177.640360
 31
0.0
  0
LINE
  5
1dd
100
AcDbEntity
  8
Ebene_1
 62
7
100
AcDbLine
 10
119.574610
 20
177.640360
 30
0.0
 11
124.564490
 21
183.672030
 31
0.0
  0
LINE
  5
1de
100
AcDbEntity
  8
Ebene_1
 62
7
100
AcDbLine
 10
124.564490
 20
183.672030
 30
0.0
 11
124.564490
 21
184.657500
 31
0.0
  0
LINE
  5
1df
100
AcDbEntity
  8
Ebene_1
 62
7
100
AcDbLine
 10
124.564490
 20
184.657500
 30
0.0
 11
124.564490
 21
184.657500
 31
0.0
  0
SPLINE
  5
1e0
100
AcDbEntity
  8
Ebene_1
 62
7
100
AcDbSpline
 70
8
 71
3
 72
8
 73
4
 74
0
 40
0
 40
0
 40
0
 40
0
 40
1
 40
1
 40
1
 40
1
 10
88.531547
 20
183.115480
 30
0.0
 10
88.456207
 20
182.896610
 30
0.0
 10
88.384155
 20
182.677030
 30
0.0
 10
88.315023
 20
182.456600
 30
0.0
  0
LINE
  5
1e1
100
AcDbEntity
  8
Ebene_1
 62
7
100
AcDbLine
 10
88.315023
 20
182.456600
 30
0.0
 11
92.299276
 21
177.640360
 31
0.0
  0
LINE
  5
1e2
100
AcDbEntity
  8
Ebene_1
 62
7
100
AcDbLine
 10
92.299276
 20
177.640360
 30
0.0
 11
92.871334
 21
177.640360
 31
0.0
  0
LINE
  5
1e3
100
AcDbEntity
  8
Ebene_1
 62
7
100
AcDbLine
 10
92.871334
 20
177.640360
 30
0.0
 11
88.531547
 21
183.115480
 31
0.0
  0
LINE
  5
1e4
100
AcDbEntity
  8
Ebene_1
 62
7
100
AcDbLine
 10
88.531547
 20
183.115480
 30
0.0
 11
88.531547
 21
183.115480
 31
0.0
  0
LINE
  5
1e5
100
AcDbEntity
  8
Ebene_1
 62
7
100
AcDbLine
 10
124.564490
 20
180.176640
 30
0.0
 11
122.080400
 21
177.640360
 31
0.0
  0
LINE
  5
1e6
100
AcDbEntity
  8
Ebene_1
 62
7
100
AcDbLine
 10
122.080400
 20
177.640360
 30
0.0
 11
122.770800
 21
177.640360
 31
0.0
  0
LINE
  5
1e7
100
AcDbEntity
  8
Ebene_1
 62
7
100
AcDbLine
 10
122.770800
 20
177.640360
 30
0.0
 11
124.564490
 21
179.396840
 31
0.0
  0
LINE
  5
1e8
100
AcDbEntity
  8
Ebene_1
 62
7
100
AcDbLine
 10
124.564490
 20
179.396840
 30
0.0
 11
124.564490
 21
180.176640
 31
0.0
  0
LINE
  5
1e9
100
AcDbEntity
  8
Ebene_1
 62
7
100
AcDbLine
 10
124.564490
 20
180.176640
 30
0.0
 11
124.564490
 21
180.176640
 31
0.0
  0
SPLINE
  5
1ea
100
AcDbEntity
  8
Ebene_1
 62
7
100
AcDbSpline
 70
8
 71
3
 72
8
 73
4
 74
0
 40
0
 40
0
 40
0
 40
0
 40
1
 40
1
 40
1
 40
1
 10
87.646847
 20
179.832470
 30
0.0
 10
87.604162
 20
179.616840
 30
0.0
 10
87.564532
 20
179.400460
 30
0.0
 10
87.527474
 20
179.183420
 30
0.0
  0
LINE
  5
1eb
100
AcDbEntity
  8
Ebene_1
 62
7
100
AcDbLine
 10
87.527474
 20
179.183420
 30
0.0
 11
89.103088
 21
177.640360
 31
0.0
  0
LINE
  5
1ec
100
AcDbEntity
  8
Ebene_1
 62
7
100
AcDbLine
 10
89.103088
 20
177.640360
 30
0.0
 11
89.793486
 21
177.640360
 31
0.0
  0
LINE
  5
1ed
100
AcDbEntity
  8
Ebene_1
 62
7
100
AcDbLine
 10
89.793486
 20
177.640360
 30
0.0
 11
87.646847
 21
179.832470
 31
0.0
  0
LINE
  5
1ee
100
AcDbEntity
  8
Ebene_1
 62
7
100
AcDbLine
 10
87.646847
 20
179.832470
 30
0.0
 11
87.646847
 21
179.832470
 31
0.0
  0
SPLINE
  5
1ef
100
AcDbEntity
  8
Ebene_1
 62
7
100
AcDbSpline
 70
8
 71
3
 72
8
 73
4
 74
0
 40
0
 40
0
 40
0
 40
0
 40
1
 40
1
 40
1
 40
1
 10
104.416370
 20
233.763550
 30
0.0
 10
103.901960
 20
233.741663
 30
0.0
 10
103.396360
 20
233.702006
 30
0.0
 10
102.899150
 20
233.645728
 30
0.0
  0
LINE
  5
1f0
100
AcDbEntity
  8
Ebene_1
 62
7
100
AcDbLine
 10
102.899150
 20
233.645728
 30
0.0
 11
103.269670
 21
224.808024
 31
0.0
  0
SPLINE
  5
1f1
100
AcDbEntity
  8
Ebene_1
 62
7
100
AcDbSpline
 70
8
 71
3
 72
8
 73
4
 74
0
 40
0
 40
0
 40
0
 40
0
 40
1
 40
1
 40
1
 40
1
 10
103.269670
 20
224.808024
 30
0.0
 10
103.694800
 20
224.925202
 30
0.0
 10
104.138020
 20
224.999126
 30
0.0
 10
104.599300
 20
225.030233
 30
0.0
  0
LINE
  5
1f2
100
AcDbEntity
  8
Ebene_1
 62
7
100
AcDbLine
 10
104.599300
 20
225.030233
 30
0.0
 11
104.416370
 21
233.763550
 31
0.0
  0
LINE
  5
1f3
100
AcDbEntity
  8
Ebene_1
 62
7
100
AcDbLine
 10
104.416370
 20
233.763550
 30
0.0
 11
104.416370
 21
233.763550
 31
0.0
  0
LINE
  5
1f4
100
AcDbEntity
  8
Ebene_1
 62
7
100
AcDbLine
 10
110.468710
 20
233.178573
 30
0.0
 11
109.832060
 21
223.055676
 31
0.0
  0
SPLINE
  5
1f5
100
AcDbEntity
  8
Ebene_1
 62
7
100
AcDbSpline
 70
8
 71
3
 72
8
 73
4
 74
0
 40
0
 40
0
 40
0
 40
0
 40
1
 40
1
 40
1
 40
1
 10
109.832060
 20
223.055676
 30
0.0
 10
110.357790
 20
222.436567
 30
0.0
 10
110.731720
 20
221.714081
 30
0.0
 10
110.952920
 20
220.887333
 30
0.0
  0
LINE
  5
1f6
100
AcDbEntity
  8
Ebene_1
 62
7
100
AcDbLine
 10
110.952920
 20
220.887333
 30
0.0
 11
111.947170
 21
232.726404
 31
0.0
  0
SPLINE
  5
1f7
100
AcDbEntity
  8
Ebene_1
 62
7
100
AcDbSpline
 70
8
 71
3
 72
8
 73
4
 74
0
 40
0
 40
0
 40
0
 40
0
 40
1
 40
1
 40
1
 40
1
 10
111.947170
 20
232.726404
 30
0.0
 10
111.467520
 20
232.898283
 30
0.0
 10
110.974470
 20
233.048710
 30
0.0
 10
110.468710
 20
233.178573
 30
0.0
  0
LINE
  5
1f8
100
AcDbEntity
  8
Ebene_1
 62
7
100
AcDbLine
 10
110.468710
 20
233.178573
 30
0.0
 11
110.468710
 21
233.178573
 31
0.0
  0
SPLINE
  5
1f9
100
AcDbEntity
  8
Ebene_1
 62
7
100
AcDbSpline
 70
8
 71
3
 72
8
 73
4
 74
0
 40
0
 40
0
 40
0
 40
0
 40
1
 40
1
 40
1
 40
1
 10
96.989945
 20
231.980713
 30
0.0
 10
96.501524
 20
231.748952
 30
0.0
 10
96.035010
 20
231.498937
 30
0.0
 10
95.589514
 20
231.231405
 30
0.0
  0
LINE
  5
1fa
100
AcDbEntity
  8
Ebene_1
 62
7
100
AcDbLine
 10
95.589514
 20
231.231405
 30
0.0
 11
97.584224
 21
217.725252
 31
0.0
  0
LINE
  5
1fb
100
AcDbEntity
  8
Ebene_1
 62
7
100
AcDbLine
 10
97.584224
 20
217.725252
 30
0.0
 11
98.108740
 21
217.635852
 31
0.0
  0
SPLINE
  5
1fc
100
AcDbEntity
  8
Ebene_1
 62
7
100
AcDbSpline
 70
8
 71
3
 72
8
 73
4
 74
0
 40
0
 40
0
 40
0
 40
0
 40
1
 40
1
 40
1
 40
1
 10
98.108740
 20
217.635852
 30
0.0
 10
98.197564
 20
218.411038
 30
0.0
 10
98.338673
 20
219.126261
 30
0.0
 10
98.530937
 20
219.782491
 30
0.0
  0
LINE
  5
1fd
100
AcDbEntity
  8
Ebene_1
 62
7
100
AcDbLine
 10
98.530937
 20
219.782491
 30
0.0
 11
96.989945
 21
231.980713
 31
0.0
  0
LINE
  5
1fe
100
AcDbEntity
  8
Ebene_1
 62
7
100
AcDbLine
 10
96.989945
 20
231.980713
 30
0.0
 11
96.989945
 21
231.980713
 31
0.0
  0
LINE
  5
1ff
100
AcDbEntity
  8
Ebene_1
 62
7
100
AcDbLine
 10
117.462600
 20
229.296639
 30
0.0
 11
112.483060
 21
199.856576
 31
0.0
  0
SPLINE
  5
200
100
AcDbEntity
  8
Ebene_1
 62
7
100
AcDbSpline
 70
8
 71
3
 72
8
 73
4
 74
0
 40
0
 40
0
 40
0
 40
0
 40
1
 40
1
 40
1
 40
1
 10
112.483060
 20
199.856576
 30
0.0
 10
112.709470
 20
199.406839
 30
0.0
 10
112.897350
 20
198.927697
 30
0.0
 10
113.045300
 20
198.417387
 30
0.0
  0
LINE
  5
201
100
AcDbEntity
  8
Ebene_1
 62
7
100
AcDbLine
 10
113.045300
 20
198.417387
 30
0.0
 11
114.812630
 21
207.684005
 31
0.0
  0
SPLINE
  5
202
100
AcDbEntity
  8
Ebene_1
 62
7
100
AcDbSpline
 70
8
 71
3
 72
8
 73
4
 74
0
 40
0
 40
0
 40
0
 40
0
 40
1
 40
1
 40
1
 40
1
 10
114.812630
 20
207.684005
 30
0.0
 10
114.507700
 20
207.769007
 30
0.0
 10
114.197660
 20
207.847933
 30
0.0
 10
113.879870
 20
207.916032
 30
0.0
  0
SPLINE
  5
203
100
AcDbEntity
  8
Ebene_1
 62
7
100
AcDbSpline
 70
8
 71
3
 72
8
 73
4
 74
0
 40
0
 40
0
 40
0
 40
0
 40
1
 40
1
 40
1
 40
1
 10
113.879870
 20
207.916032
 30
0.0
 10
114.260250
 20
208.123350
 30
0.0
 10
114.625330
 20
208.336347
 30
0.0
 10
114.978510
 20
208.553719
 30
0.0
  0
LINE
  5
204
100
AcDbEntity
  8
Ebene_1
 62
7
100
AcDbLine
 10
114.978510
 20
208.553719
 30
0.0
 11
118.685260
 21
227.984058
 31
0.0
  0
SPLINE
  5
205
100
AcDbEntity
  8
Ebene_1
 62
7
100
AcDbSpline
 70
8
 71
3
 72
8
 73
4
 74
0
 40
0
 40
0
 40
0
 40
0
 40
1
 40
1
 40
1
 40
1
 10
118.685260
 20
227.984058
 30
0.0
 10
118.456320
 20
228.256850
 30
0.0
 10
118.218630
 20
228.527258
 30
0.0
 10
117.964890
 20
228.793311
 30
0.0
  0
SPLINE
  5
206
100
AcDbEntity
  8
Ebene_1
 62
7
100
AcDbSpline
 70
8
 71
3
 72
8
 73
4
 74
0
 40
0
 40
0
 40
0
 40
0
 40
1
 40
1
 40
1
 40
1
 10
117.964890
 20
228.793311
 30
0.0
 10
117.800870
 20
228.966522
 30
0.0
 10
117.632220
 20
229.132442
 30
0.0
 10
117.462600
 20
229.296639
 30
0.0
  0
LINE
  5
207
100
AcDbEntity
  8
Ebene_1
 62
7
100
AcDbLine
 10
117.462600
 20
229.296639
 30
0.0
 11
117.462600
 21
229.296639
 31
0.0
  0
SPLINE
  5
208
100
AcDbEntity
  8
Ebene_1
 62
7
100
AcDbSpline
 70
8
 71
3
 72
8
 73
4
 74
0
 40
0
 40
0
 40
0
 40
0
 40
1
 40
1
 40
1
 40
1
 10
90.683354
 20
226.190369
 30
0.0
 10
90.345750
 20
225.582431
 30
0.0
 10
90.033645
 20
224.924071
 30
0.0
 10
89.746460
 20
224.215295
 30
0.0
  0
LINE
  5
209
100
AcDbEntity
  8
Ebene_1
 62
7
100
AcDbLine
 10
89.746460
 20
224.215295
 30
0.0
 11
91.131388
 21
218.821309
 31
0.0
  0
LINE
  5
20a
100
AcDbEntity
  8
Ebene_1
 62
7
100
AcDbLine
 10
91.131388
 20
218.821309
 30
0.0
 11
92.465157
 21
218.594967
 31
0.0
  0
LINE
  5
20b
100
AcDbEntity
  8
Ebene_1
 62
7
100
AcDbLine
 10
92.465157
 20
218.594967
 30
0.0
 11
90.683354
 21
226.190369
 31
0.0
  0
LINE
  5
20c
100
AcDbEntity
  8
Ebene_1
 62
7
100
AcDbLine
 10
90.683354
 20
226.190369
 30
0.0
 11
90.683354
 21
226.190369
 31
0.0
  0
LINE
  5
20d
100
AcDbEntity
  8
Ebene_1
 62
7
100
AcDbLine
 10
121.717120
 20
217.672542
 30
0.0
 11
120.992100
 21
215.076318
 31
0.0
  0
SPLINE
  5
20e
100
AcDbEntity
  8
Ebene_1
 62
7
100
AcDbSpline
 70
8
 71
3
 72
8
 73
4
 74
0
 40
0
 40
0
 40
0
 40
0
 40
1
 40
1
 40
1
 40
1
 10
120.992100
 20
215.076318
 30
0.0
 10
121.335930
 20
215.903882
 30
0.0
 10
121.578040
 20
216.769288
 30
0.0
 10
121.717120
 20
217.672542
 30
0.0
  0
LINE
  5
20f
100
AcDbEntity
  8
Ebene_1
 62
7
100
AcDbLine
 10
121.717120
 20
217.672542
 30
0.0
 11
121.717120
 21
217.672542
 31
0.0
  0
SPLINE
  5
210
100
AcDbEntity
  8
Ebene_1
 62
7
100
AcDbSpline
 70
8
 71
3
 72
8
 73
4
 74
0
 40
0
 40
0
 40
0
 40
0
 40
1
 40
1
 40
1
 40
1
 10
110.519350
 20
215.718656
 30
0.0
 10
110.207340
 20
215.065240
 30
0.0
 10
109.787160
 20
214.473156
 30
0.0
 10
109.258450
 20
213.942537
 30
0.0
  0
LINE
  5
211
100
AcDbEntity
  8
Ebene_1
 62
7
100
AcDbLine
 10
109.258450
 20
213.942537
 30
0.0
 11
108.598540
 21
203.452222
 31
0.0
  0
SPLINE
  5
212
100
AcDbEntity
  8
Ebene_1
 62
7
100
AcDbSpline
 70
8
 71
3
 72
8
 73
4
 74
0
 40
0
 40
0
 40
0
 40
0
 40
1
 40
1
 40
1
 40
1
 10
108.598540
 20
203.452222
 30
0.0
 10
108.892910
 20
203.339047
 30
0.0
 10
109.178010
 20
203.203047
 30
0.0
 10
109.455330
 20
203.047595
 30
0.0
  0
LINE
  5
213
100
AcDbEntity
  8
Ebene_1
 62
7
100
AcDbLine
 10
109.455330
 20
203.047595
 30
0.0
 11
110.519350
 21
215.718656
 31
0.0
  0
LINE
  5
214
100
AcDbEntity
  8
Ebene_1
 62
7
100
AcDbLine
 10
110.519350
 20
215.718656
 30
0.0
 11
110.519350
 21
215.718656
 31
0.0
  0
SPLINE
  5
215
100
AcDbEntity
  8
Ebene_1
 62
7
100
AcDbSpline
 70
8
 71
3
 72
8
 73
4
 74
0
 40
0
 40
0
 40
0
 40
0
 40
1
 40
1
 40
1
 40
1
 10
104.873700
 20
211.911654
 30
0.0
 10
104.533940
 20
211.860996
 30
0.0
 10
104.180450
 20
211.823857
 30
0.0
 10
103.814340
 20
211.800033
 30
0.0
  0
LINE
  5
216
100
AcDbEntity
  8
Ebene_1
 62
7
100
AcDbLine
 10
103.814340
 20
211.800033
 30
0.0
 11
104.151780
 21
203.758146
 31
0.0
  0
SPLINE
  5
217
100
AcDbEntity
  8
Ebene_1
 62
7
100
AcDbSpline
 70
8
 71
3
 72
8
 73
4
 74
0
 40
0
 40
0
 40
0
 40
0
 40
1
 40
1
 40
1
 40
1
 10
104.151780
 20
203.758146
 30
0.0
 10
104.458000
 20
203.801888
 30
0.0
 10
104.756140
 20
203.837435
 30
0.0
 10
105.042680
 20
203.861499
 30
0.0
  0
LINE
  5
218
100
AcDbEntity
  8
Ebene_1
 62
7
100
AcDbLine
 10
105.042680
 20
203.861499
 30
0.0
 11
104.873700
 21
211.911654
 31
0.0
  0
LINE
  5
219
100
AcDbEntity
  8
Ebene_1
 62
7
100
AcDbLine
 10
104.873700
 20
211.911654
 30
0.0
 11
104.873700
 21
211.911654
 31
0.0
  0
LINE
  5
21a
100
AcDbEntity
  8
Ebene_1
 62
7
100
AcDbLine
 10
118.475970
 20
206.063949
 30
0.0
 11
110.555010
 21
177.694620
 31
0.0
  0
SPLINE
  5
21b
100
AcDbEntity
  8
Ebene_1
 62
7
100
AcDbSpline
 70
8
 71
3
 72
8
 73
4
 74
0
 40
0
 40
0
 40
0
 40
0
 40
1
 40
1
 40
1
 40
1
 10
110.555010
 20
177.694620
 30
0.0
 10
110.691800
 20
177.726230
 30
0.0
 10
110.826360
 20
177.761950
 30
0.0
 10
110.961700
 20
177.796420
 30
0.0
  0
LINE
  5
21c
100
AcDbEntity
  8
Ebene_1
 62
7
100
AcDbLine
 10
110.961700
 20
177.796420
 30
0.0
 11
119.317260
 21
205.470703
 31
0.0
  0
SPLINE
  5
21d
100
AcDbEntity
  8
Ebene_1
 62
7
100
AcDbSpline
 70
8
 71
3
 72
8
 73
4
 74
0
 40
0
 40
0
 40
0
 40
0
 40
1
 40
1
 40
1
 40
1
 10
119.317260
 20
205.470703
 30
0.0
 10
119.045470
 20
205.679832
 30
0.0
 10
118.765260
 20
205.877800
 30
0.0
 10
118.475970
 20
206.063949
 30
0.0
  0
LINE
  5
21e
100
AcDbEntity
  8
Ebene_1
 62
7
100
AcDbLine
 10
118.475970
 20
206.063949
 30
0.0
 11
118.475970
 21
206.063949
 31
0.0
  0
LINE
  5
21f
100
AcDbEntity
  8
Ebene_1
 62
7
100
AcDbLine
 10
122.231300
 20
202.309656
 30
0.0
 11
112.744540
 21
178.348330
 31
0.0
  0
SPLINE
  5
220
100
AcDbEntity
  8
Ebene_1
 62
7
100
AcDbSpline
 70
8
 71
3
 72
8
 73
4
 74
0
 40
0
 40
0
 40
0
 40
0
 40
1
 40
1
 40
1
 40
1
 10
112.744540
 20
178.348330
 30
0.0
 10
112.912360
 20
178.409980
 30
0.0
 10
113.079400
 20
178.473030
 30
0.0
 10
113.244770
 20
178.539530
 30
0.0
  0
LINE
  5
221
100
AcDbEntity
  8
Ebene_1
 62
7
100
AcDbLine
 10
113.244770
 20
178.539530
 30
0.0
 11
122.819380
 21
201.316951
 31
0.0
  0
SPLINE
  5
222
100
AcDbEntity
  8
Ebene_1
 62
7
100
AcDbSpline
 70
8
 71
3
 72
8
 73
4
 74
0
 40
0
 40
0
 40
0
 40
0
 40
1
 40
1
 40
1
 40
1
 10
122.819380
 20
201.316951
 30
0.0
 10
122.639210
 20
201.655970
 30
0.0
 10
122.443190
 20
201.986916
 30
0.0
 10
122.231300
 20
202.309656
 30
0.0
  0
LINE
  5
223
100
AcDbEntity
  8
Ebene_1
 62
7
100
AcDbLine
 10
122.231300
 20
202.309656
 30
0.0
 11
122.231300
 21
202.309656
 31
0.0
  0
LINE
  5
224
100
AcDbEntity
  8
Ebene_1
 62
7
100
AcDbLine
 10
124.286990
 20
196.253690
 30
0.0
 11
115.647200
 21
179.727570
 31
0.0
  0
SPLINE
  5
225
100
AcDbEntity
  8
Ebene_1
 62
7
100
AcDbSpline
 70
8
 71
3
 72
8
 73
4
 74
0
 40
0
 40
0
 40
0
 40
0
 40
1
 40
1
 40
1
 40
1
 10
115.647200
 20
179.727570
 30
0.0
 10
115.905770
 20
179.881190
 30
0.0
 10
116.160990
 20
180.041720
 30
0.0
 10
116.412530
 20
180.209200
 30
0.0
  0
LINE
  5
226
100
AcDbEntity
  8
Ebene_1
 62
7
100
AcDbLine
 10
116.412530
 20
180.209200
 30
0.0
 11
124.354170
 21
194.654830
 31
0.0
  0
SPLINE
  5
227
100
AcDbEntity
  8
Ebene_1
 62
7
100
AcDbSpline
 70
8
 71
3
 72
8
 73
4
 74
0
 40
0
 40
0
 40
0
 40
0
 40
1
 40
1
 40
1
 40
1
 10
124.354170
 20
194.654830
 30
0.0
 10
124.354340
 20
194.688300
 30
0.0
 10
124.356230
 20
194.721020
 30
0.0
 10
124.356230
 20
194.754560
 30
0.0
  0
SPLINE
  5
228
100
AcDbEntity
  8
Ebene_1
 62
7
100
AcDbSpline
 70
8
 71
3
 72
8
 73
4
 74
0
 40
0
 40
0
 40
0
 40
0
 40
1
 40
1
 40
1
 40
1
 10
124.356230
 20
194.754560
 30
0.0
 10
124.356230
 20
195.266170
 30
0.0
 10
124.331590
 20
195.764970
 30
0.0
 10
124.286990
 20
196.253690
 30
0.0
  0
LINE
  5
229
100
AcDbEntity
  8
Ebene_1
 62
7
100
AcDbLine
 10
124.286990
 20
196.253690
 30
0.0
 11
124.286990
 21
196.253690
 31
0.0
  0
LINE
  5
22a
100
AcDbEntity
  8
Ebene_1
 62
7
100
AcDbLine
 10
97.806433
 20
194.073470
 30
0.0
 11
97.494824
 21
194.035740
 31
0.0
  0
LINE
  5
22b
100
AcDbEntity
  8
Ebene_1
 62
7
100
AcDbLine
 10
97.494824
 20
194.035740
 30
0.0
 11
101.737980
 21
177.510140
 31
0.0
  0
SPLINE
  5
22c
100
AcDbEntity
  8
Ebene_1
 62
7
100
AcDbSpline
 70
8
 71
3
 72
8
 73
4
 74
0
 40
0
 40
0
 40
0
 40
0
 40
1
 40
1
 40
1
 40
1
 10
101.737980
 20
177.510140
 30
0.0
 10
101.864280
 20
177.487730
 30
0.0
 10
101.989130
 20
177.462620
 30
0.0
 10
102.116760
 20
177.442440
 30
0.0
  0
LINE
  5
22d
100
AcDbEntity
  8
Ebene_1
 62
7
100
AcDbLine
 10
102.116760
 20
177.442440
 30
0.0
 11
99.285413
 21
189.516120
 31
0.0
  0
SPLINE
  5
22e
100
AcDbEntity
  8
Ebene_1
 62
7
100
AcDbSpline
 70
8
 71
3
 72
8
 73
4
 74
0
 40
0
 40
0
 40
0
 40
0
 40
1
 40
1
 40
1
 40
1
 10
99.285413
 20
189.516120
 30
0.0
 10
98.526637
 20
190.739430
 30
0.0
 10
98.033379
 20
192.257900
 30
0.0
 10
97.806433
 20
194.073470
 30
0.0
  0
LINE
  5
22f
100
AcDbEntity
  8
Ebene_1
 62
7
100
AcDbLine
 10
97.806433
 20
194.073470
 30
0.0
 11
97.806433
 21
194.073470
 31
0.0
  0
LINE
  5
230
100
AcDbEntity
  8
Ebene_1
 62
7
100
AcDbLine
 10
94.608695
 20
193.685380
 30
0.0
 11
93.872306
 21
193.595980
 31
0.0
  0
LINE
  5
231
100
AcDbEntity
  8
Ebene_1
 62
7
100
AcDbLine
 10
93.872306
 20
193.595980
 30
0.0
 11
99.677120
 21
177.987110
 31
0.0
  0
SPLINE
  5
232
100
AcDbEntity
  8
Ebene_1
 62
7
100
AcDbSpline
 70
8
 71
3
 72
8
 73
4
 74
0
 40
0
 40
0
 40
0
 40
0
 40
1
 40
1
 40
1
 40
1
 10
99.677120
 20
177.987110
 30
0.0
 10
99.821990
 20
177.944610
 30
0.0
 10
99.970044
 20
177.907440
 30
0.0
 10
100.116890
 20
177.868250
 30
0.0
  0
LINE
  5
233
100
AcDbEntity
  8
Ebene_1
 62
7
100
AcDbLine
 10
100.116890
 20
177.868250
 30
0.0
 11
94.608695
 21
193.685380
 31
0.0
  0
LINE
  5
234
100
AcDbEntity
  8
Ebene_1
 62
7
100
AcDbLine
 10
94.608695
 20
193.685380
 30
0.0
 11
94.608695
 21
193.685380
 31
0.0
  0
LINE
  5
235
100
AcDbEntity
  8
Ebene_1
 62
7
100
AcDbLine
 10
90.844584
 20
193.229070
 30
0.0
 11
90.063236
 21
193.133990
 31
0.0
  0
LINE
  5
236
100
AcDbEntity
  8
Ebene_1
 62
7
100
AcDbLine
 10
90.063236
 20
193.133990
 30
0.0
 11
97.091748
 21
178.975160
 31
0.0
  0
SPLINE
  5
237
100
AcDbEntity
  8
Ebene_1
 62
7
100
AcDbSpline
 70
8
 71
3
 72
8
 73
4
 74
0
 40
0
 40
0
 40
0
 40
0
 40
1
 40
1
 40
1
 40
1
 10
97.091748
 20
178.975160
 30
0.0
 10
97.284383
 20
178.883550
 30
0.0
 10
97.479409
 20
178.795730
 30
0.0
 10
97.676208
 20
178.711100
 30
0.0
  0
LINE
  5
238
100
AcDbEntity
  8
Ebene_1
 62
7
100
AcDbLine
 10
97.676208
 20
178.711100
 30
0.0
 11
90.844584
 21
193.229070
 31
0.0
  0
LINE
  5
239
100
AcDbEntity
  8
Ebene_1
 62
7
100
AcDbLine
 10
90.844584
 20
193.229070
 30
0.0
 11
90.844584
 21
193.229070
 31
0.0
  0
SPLINE
  5
23a
100
AcDbEntity
  8
Ebene_1
 62
7
100
AcDbSpline
 70
8
 71
3
 72
8
 73
4
 74
0
 40
0
 40
0
 40
0
 40
0
 40
1
 40
1
 40
1
 40
1
 10
87.779138
 20
191.137730
 30
0.0
 10
87.937785
 20
190.328780
 30
0.0
 10
88.143129
 20
189.549900
 30
0.0
 10
88.393571
 20
188.799370
 30
0.0
  0
LINE
  5
23b
100
AcDbEntity
  8
Ebene_1
 62
7
100
AcDbLine
 10
88.393571
 20
188.799370
 30
0.0
 11
92.718888
 21
181.983250
 31
0.0
  0
SPLINE
  5
23c
100
AcDbEntity
  8
Ebene_1
 62
7
100
AcDbSpline
 70
8
 71
3
 72
8
 73
4
 74
0
 40
0
 40
0
 40
0
 40
0
 40
1
 40
1
 40
1
 40
1
 10
92.718888
 20
181.983250
 30
0.0
 10
92.897737
 20
181.812660
 30
0.0
 10
93.079876
 20
181.644280
 30
0.0
 10
93.267692
 20
181.479400
 30
0.0
  0
SPLINE
  5
23d
100
AcDbEntity
  8
Ebene_1
 62
7
100
AcDbSpline
 70
8
 71
3
 72
8
 73
4
 74
0
 40
0
 40
0
 40
0
 40
0
 40
1
 40
1
 40
1
 40
1
 10
93.267692
 20
181.479400
 30
0.0
 10
93.501871
 20
181.275610
 30
0.0
 10
93.741647
 20
181.081180
 30
0.0
 10
93.984444
 20
180.891840
 30
0.0
  0
LINE
  5
23e
100
AcDbEntity
  8
Ebene_1
 62
7
100
AcDbLine
 10
93.984444
 20
180.891840
 30
0.0
 11
87.779138
 21
191.137730
 31
0.0
  0
LINE
  5
23f
100
AcDbEntity
  8
Ebene_1
 62
7
100
AcDbLine
 10
87.779138
 20
191.137730
 30
0.0
 11
87.779138
 21
191.137730
 31
0.0
  0
SPLINE
  5
240
100
AcDbEntity
  8
Ebene_1
 62
7
100
AcDbSpline
 70
8
 71
3
 72
8
 73
4
 74
0
 40
0
 40
0
 40
0
 40
0
 40
1
 40
1
 40
1
 40
1
 10
111.137400
 20
188.414900
 30
0.0
 10
110.910140
 20
188.165400
 30
0.0
 10
110.674530
 20
187.935620
 30
0.0
 10
110.430990
 20
187.724500
 30
0.0
  0
LINE
  5
241
100
AcDbEntity
  8
Ebene_1
 62
7
100
AcDbLine
 10
110.430990
 20
187.724500
 30
0.0
 11
108.677090
 21
177.354590
 31
0.0
  0
SPLINE
  5
242
100
AcDbEntity
  8
Ebene_1
 62
7
100
AcDbSpline
 70
8
 71
3
 72
8
 73
4
 74
0
 40
0
 40
0
 40
0
 40
0
 40
1
 40
1
 40
1
 40
1
 10
108.677090
 20
177.354590
 30
0.0
 10
108.798710
 20
177.370580
 30
0.0
 10
108.917730
 20
177.391830
 30
0.0
 10
109.038310
 20
177.409880
 30
0.0
  0
LINE
  5
243
100
AcDbEntity
  8
Ebene_1
 62
7
100
AcDbLine
 10
109.038310
 20
177.409880
 30
0.0
 11
111.137400
 21
188.414900
 31
0.0
  0
LINE
  5
244
100
AcDbEntity
  8
Ebene_1
 62
7
100
AcDbLine
 10
111.137400
 20
188.414900
 30
0.0
 11
111.137400
 21
188.414900
 31
0.0
  0
LINE
  5
245
100
AcDbEntity
  8
Ebene_1
 62
7
100
AcDbLine
 10
102.147250
 20
186.820680
 30
0.0
 11
103.558020
 21
177.268290
 31
0.0
  0
SPLINE
  5
246
100
AcDbEntity
  8
Ebene_1
 62
7
100
AcDbSpline
 70
8
 71
3
 72
8
 73
4
 74
0
 40
0
 40
0
 40
0
 40
0
 40
1
 40
1
 40
1
 40
1
 10
103.558020
 20
177.268290
 30
0.0
 10
103.674190
 20
177.257800
 30
0.0
 10
103.788610
 20
177.243990
 30
0.0
 10
103.905800
 20
177.235220
 30
0.0
  0
LINE
  5
247
100
AcDbEntity
  8
Ebene_1
 62
7
100
AcDbLine
 10
103.905800
 20
177.235220
 30
0.0
 11
102.729650
 21
186.545760
 31
0.0
  0
SPLINE
  5
248
100
AcDbEntity
  8
Ebene_1
 62
7
100
AcDbSpline
 70
8
 71
3
 72
8
 73
4
 74
0
 40
0
 40
0
 40
0
 40
0
 40
1
 40
1
 40
1
 40
1
 10
102.729650
 20
186.545760
 30
0.0
 10
102.531620
 20
186.628540
 30
0.0
 10
102.337320
 20
186.719670
 30
0.0
 10
102.147250
 20
186.820680
 30
0.0
  0
LINE
  5
249
100
AcDbEntity
  8
Ebene_1
 62
7
100
AcDbLine
 10
102.147250
 20
186.820680
 30
0.0
 11
102.147250
 21
186.820680
 31
0.0
  0
SPLINE
  5
24a
100
AcDbEntity
  8
Ebene_1
 62
7
100
AcDbSpline
 70
8
 71
3
 72
8
 73
4
 74
0
 40
0
 40
0
 40
0
 40
0
 40
1
 40
1
 40
1
 40
1
 10
108.053350
 20
186.353010
 30
0.0
 10
107.876320
 20
186.293860
 30
0.0
 10
107.695840
 20
186.242480
 30
0.0
 10
107.512820
 20
186.197460
 30
0.0
  0
LINE
  5
24b
100
AcDbEntity
  8
Ebene_1
 62
7
100
AcDbLine
 10
107.512820
 20
186.197460
 30
0.0
 11
106.946960
 21
177.201110
 31
0.0
  0
SPLINE
  5
24c
100
AcDbEntity
  8
Ebene_1
 62
7
100
AcDbSpline
 70
8
 71
3
 72
8
 73
4
 74
0
 40
0
 40
0
 40
0
 40
0
 40
1
 40
1
 40
1
 40
1
 10
106.946960
 20
177.201110
 30
0.0
 10
107.060800
 20
177.206900
 30
0.0
 10
107.173480
 20
177.215360
 30
0.0
 10
107.286470
 20
177.222810
 30
0.0
  0
LINE
  5
24d
100
AcDbEntity
  8
Ebene_1
 62
7
100
AcDbLine
 10
107.286470
 20
177.222810
 30
0.0
 11
108.053350
 21
186.353010
 31
0.0
  0
LINE
  5
24e
100
AcDbEntity
  8
Ebene_1
 62
7
100
AcDbLine
 10
108.053350
 20
186.353010
 30
0.0
 11
108.053350
 21
186.353010
 31
0.0
  0
LINE
  5
24f
100
AcDbEntity
  8
Ebene_1
 62
7
100
AcDbLine
 10
104.895410
 20
186.015560
 30
0.0
 11
105.265410
 21
177.176310
 31
0.0
  0
SPLINE
  5
250
100
AcDbEntity
  8
Ebene_1
 62
7
100
AcDbSpline
 70
8
 71
3
 72
8
 73
4
 74
0
 40
0
 40
0
 40
0
 40
0
 40
1
 40
1
 40
1
 40
1
 10
105.265410
 20
177.176310
 30
0.0
 10
105.377510
 20
177.174200
 30
0.0
 10
105.488850
 20
177.170740
 30
0.0
 10
105.601820
 20
177.170100
 30
0.0
  0
LINE
  5
251
100
AcDbEntity
  8
Ebene_1
 62
7
100
AcDbLine
 10
105.601820
 20
177.170100
 30
0.0
 11
105.416820
 21
185.985590
 31
0.0
  0
SPLINE
  5
252
100
AcDbEntity
  8
Ebene_1
 62
7
100
AcDbSpline
 70
8
 71
3
 72
8
 73
4
 74
0
 40
0
 40
0
 40
0
 40
0
 40
1
 40
1
 40
1
 40
1
 10
105.416820
 20
185.985590
 30
0.0
 10
105.240980
 20
185.990690
 30
0.0
 10
105.066650
 20
185.999910
 30
0.0
 10
104.895410
 20
186.015560
 30
0.0
  0
LINE
  5
253
100
AcDbEntity
  8
Ebene_1
 62
7
100
AcDbLine
 10
104.895410
 20
186.015560
 30
0.0
 11
104.895410
 21
186.015560
 31
0.0
  0
LINE
  5
254
100
AcDbEntity
  8
Ebene_1
 62
7
100
AcDbLine
 10
111.996260
 20
233.312931
 30
0.0
 11
108.258510
 21
188.797820
 31
0.0
  0
LINE
  5
255
100
AcDbEntity
  8
Ebene_1
 62
7
100
AcDbLine
 10
108.258510
 20
188.797820
 30
0.0
 11
108.698790
 21
188.797820
 31
0.0
  0
LINE
  5
256
100
AcDbEntity
  8
Ebene_1
 62
7
100
AcDbLine
 10
108.698790
 20
188.797820
 30
0.0
 11
108.698790
 21
187.426330
 31
0.0
  0
LINE
  5
257
100
AcDbEntity
  8
Ebene_1
 62
7
100
AcDbLine
 10
108.698790
 20
187.426330
 30
0.0
 11
113.521750
 21
233.312931
 31
0.0
  0
LINE
  5
258
100
AcDbEntity
  8
Ebene_1
 62
7
100
AcDbLine
 10
113.521750
 20
233.312931
 30
0.0
 11
111.996260
 21
233.312931
 31
0.0
  0
LINE
  5
259
100
AcDbEntity
  8
Ebene_1
 62
7
100
AcDbLine
 10
111.996260
 20
233.312931
 30
0.0
 11
111.996260
 21
233.312931
 31
0.0
  0
LINE
  5
25a
100
AcDbEntity
  8
Ebene_1
 62
7
100
AcDbLine
 10
118.986020
 20
229.557088
 30
0.0
 11
109.081710
 21
177.640360
 31
0.0
  0
LINE
  5
25b
100
AcDbEntity
  8
Ebene_1
 62
7
100
AcDbLine
 10
109.081710
 20
177.640360
 30
0.0
 11
109.441380
 21
177.640360
 31
0.0
  0
LINE
  5
25c
100
AcDbEntity
  8
Ebene_1
 62
7
100
AcDbLine
 10
109.441380
 20
177.640360
 30
0.0
 11
118.986020
 21
222.545630
 31
0.0
  0
LINE
  5
25d
100
AcDbEntity
  8
Ebene_1
 62
7
100
AcDbLine
 10
118.986020
 20
222.545630
 30
0.0
 11
118.986020
 21
229.557088
 31
0.0
  0
LINE
  5
25e
100
AcDbEntity
  8
Ebene_1
 62
7
100
AcDbLine
 10
118.986020
 20
229.557088
 30
0.0
 11
118.986020
 21
229.557088
 31
0.0
  0
LINE
  5
25f
100
AcDbEntity
  8
Ebene_1
 62
7
100
AcDbLine
 10
105.937200
 20
227.277641
 30
0.0
 11
104.593620
 21
225.310836
 31
0.0
  0
LINE
  5
260
100
AcDbEntity
  8
Ebene_1
 62
7
100
AcDbLine
 10
104.593620
 20
225.310836
 30
0.0
 11
104.884550
 21
211.417110
 31
0.0
  0
LINE
  5
261
100
AcDbEntity
  8
Ebene_1
 62
7
100
AcDbLine
 10
104.884550
 20
211.417110
 30
0.0
 11
105.937200
 21
212.982389
 31
0.0
  0
LINE
  5
262
100
AcDbEntity
  8
Ebene_1
 62
7
100
AcDbLine
 10
105.937200
 20
212.982389
 30
0.0
 11
105.937200
 21
227.277641
 31
0.0
  0
LINE
  5
263
100
AcDbEntity
  8
Ebene_1
 62
7
100
AcDbLine
 10
105.937200
 20
227.277641
 30
0.0
 11
105.937200
 21
227.277641
 31
0.0
  0
LINE
  5
264
100
AcDbEntity
  8
Ebene_1
 62
7
100
AcDbLine
 10
99.914315
 20
218.461125
 30
0.0
 11
98.888021
 21
216.958891
 31
0.0
  0
LINE
  5
265
100
AcDbEntity
  8
Ebene_1
 62
7
100
AcDbLine
 10
98.888021
 20
216.958891
 30
0.0
 11
100.425390
 21
204.788574
 31
0.0
  0
LINE
  5
266
100
AcDbEntity
  8
Ebene_1
 62
7
100
AcDbLine
 10
100.425390
 20
204.788574
 30
0.0
 11
101.225860
 21
205.978682
 31
0.0
  0
LINE
  5
267
100
AcDbEntity
  8
Ebene_1
 62
7
100
AcDbLine
 10
101.225860
 20
205.978682
 30
0.0
 11
99.914315
 21
218.461125
 31
0.0
  0
LINE
  5
268
100
AcDbEntity
  8
Ebene_1
 62
7
100
AcDbLine
 10
99.914315
 20
218.461125
 30
0.0
 11
99.914315
 21
218.461125
 31
0.0
  0
LINE
  5
269
100
AcDbEntity
  8
Ebene_1
 62
7
100
AcDbLine
 10
95.217961
 20
211.586092
 30
0.0
 11
94.392171
 21
210.377380
 31
0.0
  0
LINE
  5
26a
100
AcDbEntity
  8
Ebene_1
 62
7
100
AcDbLine
 10
94.392171
 20
210.377380
 30
0.0
 11
96.923800
 21
199.583207
 31
0.0
  0
LINE
  5
26b
100
AcDbEntity
  8
Ebene_1
 62
7
100
AcDbLine
 10
96.923800
 20
199.583207
 30
0.0
 11
97.566138
 21
200.537671
 31
0.0
  0
LINE
  5
26c
100
AcDbEntity
  8
Ebene_1
 62
7
100
AcDbLine
 10
97.566138
 20
200.537671
 30
0.0
 11
95.217961
 21
211.586092
 31
0.0
  0
LINE
  5
26d
100
AcDbEntity
  8
Ebene_1
 62
7
100
AcDbLine
 10
95.217961
 20
211.586092
 30
0.0
 11
95.217961
 21
211.586092
 31
0.0
  0
LINE
  5
26e
100
AcDbEntity
  8
Ebene_1
 62
7
100
AcDbLine
 10
91.377368
 20
205.964730
 30
0.0
 11
90.685421
 21
204.951872
 31
0.0
  0
LINE
  5
26f
100
AcDbEntity
  8
Ebene_1
 62
7
100
AcDbLine
 10
90.685421
 20
204.951872
 30
0.0
 11
96.310917
 21
188.797820
 31
0.0
  0
LINE
  5
270
100
AcDbEntity
  8
Ebene_1
 62
7
100
AcDbLine
 10
96.310917
 20
188.797820
 30
0.0
 11
96.955322
 21
188.797820
 31
0.0
  0
LINE
  5
271
100
AcDbEntity
  8
Ebene_1
 62
7
100
AcDbLine
 10
96.955322
 20
188.797820
 30
0.0
 11
91.377368
 21
205.964730
 31
0.0
  0
LINE
  5
272
100
AcDbEntity
  8
Ebene_1
 62
7
100
AcDbLine
 10
91.377368
 20
205.964730
 30
0.0
 11
91.377368
 21
205.964730
 31
0.0
  0
LINE
  5
273
100
AcDbEntity
  8
Ebene_1
 62
7
100
AcDbLine
 10
118.986020
 20
204.374129
 30
0.0
 11
110.914680
 21
177.640360
 31
0.0
  0
LINE
  5
274
100
AcDbEntity
  8
Ebene_1
 62
7
100
AcDbLine
 10
110.914680
 20
177.640360
 30
0.0
 11
111.293980
 21
177.640360
 31
0.0
  0
LINE
  5
275
100
AcDbEntity
  8
Ebene_1
 62
7
100
AcDbLine
 10
111.293980
 20
177.640360
 30
0.0
 11
118.986020
 21
201.314368
 31
0.0
  0
LINE
  5
276
100
AcDbEntity
  8
Ebene_1
 62
7
100
AcDbLine
 10
118.986020
 20
201.314368
 30
0.0
 11
118.986020
 21
204.374129
 31
0.0
  0
LINE
  5
277
100
AcDbEntity
  8
Ebene_1
 62
7
100
AcDbLine
 10
118.986020
 20
204.374129
 30
0.0
 11
118.986020
 21
204.374129
 31
0.0
  0
LINE
  5
278
100
AcDbEntity
  8
Ebene_1
 62
7
100
AcDbLine
 10
88.114001
 20
201.187244
 30
0.0
 11
87.513521
 21
200.308228
 31
0.0
  0
LINE
  5
279
100
AcDbEntity
  8
Ebene_1
 62
7
100
AcDbLine
 10
87.513521
 20
200.308228
 30
0.0
 11
92.929728
 21
188.797820
 31
0.0
  0
LINE
  5
27a
100
AcDbEntity
  8
Ebene_1
 62
7
100
AcDbLine
 10
92.929728
 20
188.797820
 30
0.0
 11
93.629944
 21
188.797820
 31
0.0
  0
LINE
  5
27b
100
AcDbEntity
  8
Ebene_1
 62
7
100
AcDbLine
 10
93.629944
 20
188.797820
 30
0.0
 11
88.114001
 21
201.187244
 31
0.0
  0
LINE
  5
27c
100
AcDbEntity
  8
Ebene_1
 62
7
100
AcDbLine
 10
88.114001
 20
201.187244
 30
0.0
 11
88.114001
 21
201.187244
 31
0.0
  0
LINE
  5
27d
100
AcDbEntity
  8
Ebene_1
 62
7
100
AcDbLine
 10
97.262797
 20
198.139368
 30
0.0
 11
99.453361
 21
188.797820
 31
0.0
  0
LINE
  5
27e
100
AcDbEntity
  8
Ebene_1
 62
7
100
AcDbLine
 10
99.453361
 20
188.797820
 30
0.0
 11
100.061590
 21
188.797820
 31
0.0
  0
LINE
  5
27f
100
AcDbEntity
  8
Ebene_1
 62
7
100
AcDbLine
 10
100.061590
 20
188.797820
 30
0.0
 11
98.076184
 21
198.139368
 31
0.0
  0
LINE
  5
280
100
AcDbEntity
  8
Ebene_1
 62
7
100
AcDbLine
 10
98.076184
 20
198.139368
 30
0.0
 11
97.262797
 21
198.139368
 31
0.0
  0
LINE
  5
281
100
AcDbEntity
  8
Ebene_1
 62
7
100
AcDbLine
 10
97.262797
 20
198.139368
 30
0.0
 11
97.262797
 21
198.139368
 31
0.0
  0
LINE
  5
282
100
AcDbEntity
  8
Ebene_1
 62
7
100
AcDbLine
 10
101.265140
 20
198.139368
 30
0.0
 11
102.445430
 21
188.797820
 31
0.0
  0
LINE
  5
283
100
AcDbEntity
  8
Ebene_1
 62
7
100
AcDbLine
 10
102.445430
 20
188.797820
 30
0.0
 11
103.031950
 21
188.797820
 31
0.0
  0
LINE
  5
284
100
AcDbEntity
  8
Ebene_1
 62
7
100
AcDbLine
 10
103.031950
 20
188.797820
 30
0.0
 11
102.050100
 21
198.139368
 31
0.0
  0
LINE
  5
285
100
AcDbEntity
  8
Ebene_1
 62
7
100
AcDbLine
 10
102.050100
 20
198.139368
 30
0.0
 11
101.265140
 21
198.139368
 31
0.0
  0
LINE
  5
286
100
AcDbEntity
  8
Ebene_1
 62
7
100
AcDbLine
 10
101.265140
 20
198.139368
 30
0.0
 11
101.265140
 21
198.139368
 31
0.0
  0
LINE
  5
287
100
AcDbEntity
  8
Ebene_1
 62
7
100
AcDbLine
 10
105.162570
 20
198.139368
 30
0.0
 11
105.358430
 21
188.797820
 31
0.0
  0
LINE
  5
288
100
AcDbEntity
  8
Ebene_1
 62
7
100
AcDbLine
 10
105.358430
 20
188.797820
 30
0.0
 11
105.937200
 21
188.797820
 31
0.0
  0
LINE
  5
289
100
AcDbEntity
  8
Ebene_1
 62
7
100
AcDbLine
 10
105.937200
 20
188.797820
 30
0.0
 11
105.937200
 21
198.139368
 31
0.0
  0
LINE
  5
28a
100
AcDbEntity
  8
Ebene_1
 62
7
100
AcDbLine
 10
105.937200
 20
198.139368
 30
0.0
 11
105.162570
 21
198.139368
 31
0.0
  0
LINE
  5
28b
100
AcDbEntity
  8
Ebene_1
 62
7
100
AcDbLine
 10
105.162570
 20
198.139368
 30
0.0
 11
105.162570
 21
198.139368
 31
0.0
  0
LINE
  5
28c
100
AcDbEntity
  8
Ebene_1
 62
7
100
AcDbLine
 10
121.484060
 20
198.139368
 30
0.0
 11
112.867530
 21
177.640360
 31
0.0
  0
LINE
  5
28d
100
AcDbEntity
  8
Ebene_1
 62
7
100
AcDbLine
 10
112.867530
 20
177.640360
 30
0.0
 11
113.276810
 21
177.640360
 31
0.0
  0
LINE
  5
28e
100
AcDbEntity
  8
Ebene_1
 62
7
100
AcDbLine
 10
113.276810
 20
177.640360
 30
0.0
 11
122.403380
 21
198.139368
 31
0.0
  0
LINE
  5
28f
100
AcDbEntity
  8
Ebene_1
 62
7
100
AcDbLine
 10
122.403380
 20
198.139368
 30
0.0
 11
121.484060
 21
198.139368
 31
0.0
  0
LINE
  5
290
100
AcDbEntity
  8
Ebene_1
 62
7
100
AcDbLine
 10
121.484060
 20
198.139368
 30
0.0
 11
121.484060
 21
198.139368
 31
0.0
  0
LINE
  5
291
100
AcDbEntity
  8
Ebene_1
 62
7
100
AcDbLine
 10
125.869320
 20
197.410730
 30
0.0
 11
121.134210
 21
188.797820
 31
0.0
  0
LINE
  5
292
100
AcDbEntity
  8
Ebene_1
 62
7
100
AcDbLine
 10
121.134210
 20
188.797820
 30
0.0
 11
121.896950
 21
188.797820
 31
0.0
  0
LINE
  5
293
100
AcDbEntity
  8
Ebene_1
 62
7
100
AcDbLine
 10
121.896950
 20
188.797820
 30
0.0
 11
125.869320
 21
195.678020
 31
0.0
  0
LINE
  5
294
100
AcDbEntity
  8
Ebene_1
 62
7
100
AcDbLine
 10
125.869320
 20
195.678020
 30
0.0
 11
125.869320
 21
197.410730
 31
0.0
  0
LINE
  5
295
100
AcDbEntity
  8
Ebene_1
 62
7
100
AcDbLine
 10
125.869320
 20
197.410730
 30
0.0
 11
125.869320
 21
197.410730
 31
0.0
  0
LINE
  5
296
100
AcDbEntity
  8
Ebene_1
 62
7
100
AcDbLine
 10
86.006120
 20
195.676990
 30
0.0
 11
86.006120
 21
194.065200
 31
0.0
  0
LINE
  5
297
100
AcDbEntity
  8
Ebene_1
 62
7
100
AcDbLine
 10
86.006120
 20
194.065200
 30
0.0
 11
89.196106
 21
188.797820
 31
0.0
  0
LINE
  5
298
100
AcDbEntity
  8
Ebene_1
 62
7
100
AcDbLine
 10
89.196106
 20
188.797820
 30
0.0
 11
89.977970
 21
188.797820
 31
0.0
  0
LINE
  5
299
100
AcDbEntity
  8
Ebene_1
 62
7
100
AcDbLine
 10
89.977970
 20
188.797820
 30
0.0
 11
86.006120
 21
195.676990
 31
0.0
  0
LINE
  5
29a
100
AcDbEntity
  8
Ebene_1
 62
7
100
AcDbLine
 10
86.006120
 20
195.676990
 30
0.0
 11
86.006120
 21
195.676990
 31
0.0
  0
LINE
  5
29b
100
AcDbEntity
  8
Ebene_1
 62
7
100
AcDbLine
 10
125.869320
 20
189.833410
 30
0.0
 11
125.149470
 21
188.797820
 31
0.0
  0
LINE
  5
29c
100
AcDbEntity
  8
Ebene_1
 62
7
100
AcDbLine
 10
125.149470
 20
188.797820
 30
0.0
 11
125.869320
 21
188.797820
 31
0.0
  0
LINE
  5
29d
100
AcDbEntity
  8
Ebene_1
 62
7
100
AcDbLine
 10
125.869320
 20
188.797820
 30
0.0
 11
125.869320
 21
189.833410
 31
0.0
  0
LINE
  5
29e
100
AcDbEntity
  8
Ebene_1
 62
7
100
AcDbLine
 10
125.869320
 20
189.833410
 30
0.0
 11
125.869320
 21
189.833410
 31
0.0
  0
LINE
  5
29f
100
AcDbEntity
  8
Ebene_1
 62
7
100
AcDbLine
 10
118.986020
 20
184.890050
 30
0.0
 11
115.000220
 21
177.640360
 31
0.0
  0
LINE
  5
2a0
100
AcDbEntity
  8
Ebene_1
 62
7
100
AcDbLine
 10
115.000220
 20
177.640360
 30
0.0
 11
115.455490
 21
177.640360
 31
0.0
  0
LINE
  5
2a1
100
AcDbEntity
  8
Ebene_1
 62
7
100
AcDbLine
 10
115.455490
 20
177.640360
 30
0.0
 11
118.986020
 21
183.755230
 31
0.0
  0
LINE
  5
2a2
100
AcDbEntity
  8
Ebene_1
 62
7
100
AcDbLine
 10
118.986020
 20
183.755230
 30
0.0
 11
118.986020
 21
184.890050
 31
0.0
  0
LINE
  5
2a3
100
AcDbEntity
  8
Ebene_1
 62
7
100
AcDbLine
 10
118.986020
 20
184.890050
 30
0.0
 11
118.986020
 21
184.890050
 31
0.0
  0
LINE
  5
2a4
100
AcDbEntity
  8
Ebene_1
 62
7
100
AcDbLine
 10
118.986020
 20
179.929630
 30
0.0
 11
117.394900
 21
177.640360
 31
0.0
  0
LINE
  5
2a5
100
AcDbEntity
  8
Ebene_1
 62
7
100
AcDbLine
 10
117.394900
 20
177.640360
 30
0.0
 11
117.914250
 21
177.640360
 31
0.0
  0
LINE
  5
2a6
100
AcDbEntity
  8
Ebene_1
 62
7
100
AcDbLine
 10
117.914250
 20
177.640360
 30
0.0
 11
118.986020
 21
179.115720
 31
0.0
  0
LINE
  5
2a7
100
AcDbEntity
  8
Ebene_1
 62
7
100
AcDbLine
 10
118.986020
 20
179.115720
 30
0.0
 11
118.986020
 21
179.929630
 31
0.0
  0
LINE
  5
2a8
100
AcDbEntity
  8
Ebene_1
 62
7
100
AcDbLine
 10
118.986020
 20
179.929630
 30
0.0
 11
118.986020
 21
179.929630
 31
0.0
  0
LINE
  5
2a9
100
AcDbEntity
  8
Ebene_1
 62
7
100
AcDbLine
 10
95.477893
 20
143.884280
 30
0.0
 11
93.423238
 21
140.491210
 31
0.0
  0
LINE
  5
2aa
100
AcDbEntity
  8
Ebene_1
 62
7
100
AcDbLine
 10
93.423238
 20
140.491210
 30
0.0
 11
93.139535
 21
138.988970
 31
0.0
  0
LINE
  5
2ab
100
AcDbEntity
  8
Ebene_1
 62
7
100
AcDbLine
 10
93.139535
 20
138.988970
 30
0.0
 11
95.965719
 21
143.884280
 31
0.0
  0
LINE
  5
2ac
100
AcDbEntity
  8
Ebene_1
 62
7
100
AcDbLine
 10
95.965719
 20
143.884280
 30
0.0
 11
95.477893
 21
143.884280
 31
0.0
  0
LINE
  5
2ad
100
AcDbEntity
  8
Ebene_1
 62
7
100
AcDbLine
 10
95.477893
 20
143.884280
 30
0.0
 11
95.477893
 21
143.884280
 31
0.0
  0
LINE
  5
2ae
100
AcDbEntity
  8
Ebene_1
 62
7
100
AcDbLine
 10
97.810050
 20
143.884280
 30
0.0
 11
91.554618
 21
130.590000
 31
0.0
  0
LINE
  5
2af
100
AcDbEntity
  8
Ebene_1
 62
7
100
AcDbLine
 10
91.554618
 20
130.590000
 30
0.0
 11
90.984627
 21
127.571580
 31
0.0
  0
LINE
  5
2b0
100
AcDbEntity
  8
Ebene_1
 62
7
100
AcDbLine
 10
90.984627
 20
127.571580
 30
0.0
 11
98.247750
 21
143.884280
 31
0.0
  0
LINE
  5
2b1
100
AcDbEntity
  8
Ebene_1
 62
7
100
AcDbLine
 10
98.247750
 20
143.884280
 30
0.0
 11
97.810050
 21
143.884280
 31
0.0
  0
LINE
  5
2b2
100
AcDbEntity
  8
Ebene_1
 62
7
100
AcDbLine
 10
97.810050
 20
143.884280
 30
0.0
 11
97.810050
 21
143.884280
 31
0.0
  0
LINE
  5
2b3
100
AcDbEntity
  8
Ebene_1
 62
7
100
AcDbLine
 10
99.923100
 20
143.884280
 30
0.0
 11
89.846712
 21
114.947550
 31
0.0
  0
LINE
  5
2b4
100
AcDbEntity
  8
Ebene_1
 62
7
100
AcDbLine
 10
89.846712
 20
114.947550
 30
0.0
 11
90.875073
 21
114.798720
 31
0.0
  0
LINE
  5
2b5
100
AcDbEntity
  8
Ebene_1
 62
7
100
AcDbLine
 10
90.875073
 20
114.798720
 30
0.0
 11
100.325660
 21
143.884280
 31
0.0
  0
LINE
  5
2b6
100
AcDbEntity
  8
Ebene_1
 62
7
100
AcDbLine
 10
100.325660
 20
143.884280
 30
0.0
 11
99.923100
 21
143.884280
 31
0.0
  0
LINE
  5
2b7
100
AcDbEntity
  8
Ebene_1
 62
7
100
AcDbLine
 10
99.923100
 20
143.884280
 30
0.0
 11
99.923100
 21
143.884280
 31
0.0
  0
LINE
  5
2b8
100
AcDbEntity
  8
Ebene_1
 62
7
100
AcDbLine
 10
101.886800
 20
143.884280
 30
0.0
 11
94.927022
 21
114.212190
 31
0.0
  0
LINE
  5
2b9
100
AcDbEntity
  8
Ebene_1
 62
7
100
AcDbLine
 10
94.927022
 20
114.212190
 30
0.0
 11
95.929028
 21
114.066980
 31
0.0
  0
LINE
  5
2ba
100
AcDbEntity
  8
Ebene_1
 62
7
100
AcDbLine
 10
95.929028
 20
114.066980
 30
0.0
 11
102.266630
 21
143.884280
 31
0.0
  0
LINE
  5
2bb
100
AcDbEntity
  8
Ebene_1
 62
7
100
AcDbLine
 10
102.266630
 20
143.884280
 30
0.0
 11
101.886800
 21
143.884280
 31
0.0
  0
LINE
  5
2bc
100
AcDbEntity
  8
Ebene_1
 62
7
100
AcDbLine
 10
101.886800
 20
143.884280
 30
0.0
 11
101.886800
 21
143.884280
 31
0.0
  0
LINE
  5
2bd
100
AcDbEntity
  8
Ebene_1
 62
7
100
AcDbLine
 10
103.755940
 20
143.884280
 30
0.0
 11
102.503300
 21
133.970160
 31
0.0
  0
LINE
  5
2be
100
AcDbEntity
  8
Ebene_1
 62
7
100
AcDbLine
 10
102.503300
 20
133.970160
 30
0.0
 11
103.080530
 21
133.970160
 31
0.0
  0
LINE
  5
2bf
100
AcDbEntity
  8
Ebene_1
 62
7
100
AcDbLine
 10
103.080530
 20
133.970160
 30
0.0
 11
104.122330
 21
143.884280
 31
0.0
  0
LINE
  5
2c0
100
AcDbEntity
  8
Ebene_1
 62
7
100
AcDbLine
 10
104.122330
 20
143.884280
 30
0.0
 11
103.755940
 21
143.884280
 31
0.0
  0
LINE
  5
2c1
100
AcDbEntity
  8
Ebene_1
 62
7
100
AcDbLine
 10
103.755940
 20
143.884280
 30
0.0
 11
103.755940
 21
143.884280
 31
0.0
  0
LINE
  5
2c2
100
AcDbEntity
  8
Ebene_1
 62
7
100
AcDbLine
 10
105.575470
 20
143.884280
 30
0.0
 11
105.368250
 21
133.970160
 31
0.0
  0
LINE
  5
2c3
100
AcDbEntity
  8
Ebene_1
 62
7
100
AcDbLine
 10
105.368250
 20
133.970160
 30
0.0
 11
105.937720
 21
133.970160
 31
0.0
  0
LINE
  5
2c4
100
AcDbEntity
  8
Ebene_1
 62
7
100
AcDbLine
 10
105.937720
 20
133.970160
 30
0.0
 11
105.937720
 21
143.884280
 31
0.0
  0
LINE
  5
2c5
100
AcDbEntity
  8
Ebene_1
 62
7
100
AcDbLine
 10
105.937720
 20
143.884280
 30
0.0
 11
105.575470
 21
143.884280
 31
0.0
  0
LINE
  5
2c6
100
AcDbEntity
  8
Ebene_1
 62
7
100
AcDbLine
 10
105.575470
 20
143.884280
 30
0.0
 11
105.575470
 21
143.884280
 31
0.0
  0
LINE
  5
2c7
100
AcDbEntity
  8
Ebene_1
 62
7
100
AcDbLine
 10
107.387760
 20
143.884280
 30
0.0
 11
108.220270
 21
133.970160
 31
0.0
  0
LINE
  5
2c8
100
AcDbEntity
  8
Ebene_1
 62
7
100
AcDbLine
 10
108.220270
 20
133.970160
 30
0.0
 11
108.794910
 21
133.970160
 31
0.0
  0
LINE
  5
2c9
100
AcDbEntity
  8
Ebene_1
 62
7
100
AcDbLine
 10
108.794910
 20
133.970160
 30
0.0
 11
107.753110
 21
143.884280
 31
0.0
  0
LINE
  5
2ca
100
AcDbEntity
  8
Ebene_1
 62
7
100
AcDbLine
 10
107.753110
 20
143.884280
 30
0.0
 11
107.387760
 21
143.884280
 31
0.0
  0
LINE
  5
2cb
100
AcDbEntity
  8
Ebene_1
 62
7
100
AcDbLine
 10
107.387760
 20
143.884280
 30
0.0
 11
107.387760
 21
143.884280
 31
0.0
  0
LINE
  5
2cc
100
AcDbEntity
  8
Ebene_1
 62
7
100
AcDbLine
 10
109.232090
 20
143.884280
 30
0.0
 11
111.123450
 21
133.970160
 31
0.0
  0
LINE
  5
2cd
100
AcDbEntity
  8
Ebene_1
 62
7
100
AcDbLine
 10
111.123450
 20
133.970160
 30
0.0
 11
111.715660
 21
133.970160
 31
0.0
  0
LINE
  5
2ce
100
AcDbEntity
  8
Ebene_1
 62
7
100
AcDbLine
 10
111.715660
 20
133.970160
 30
0.0
 11
109.608810
 21
143.884280
 31
0.0
  0
LINE
  5
2cf
100
AcDbEntity
  8
Ebene_1
 62
7
100
AcDbLine
 10
109.608810
 20
143.884280
 30
0.0
 11
109.232090
 21
143.884280
 31
0.0
  0
LINE
  5
2d0
100
AcDbEntity
  8
Ebene_1
 62
7
100
AcDbLine
 10
109.232090
 20
143.884280
 30
0.0
 11
109.232090
 21
143.884280
 31
0.0
  0
LINE
  5
2d1
100
AcDbEntity
  8
Ebene_1
 62
7
100
AcDbLine
 10
111.152390
 20
143.884280
 30
0.0
 11
114.145490
 21
133.970160
 31
0.0
  0
LINE
  5
2d2
100
AcDbEntity
  8
Ebene_1
 62
7
100
AcDbLine
 10
114.145490
 20
133.970160
 30
0.0
 11
114.770770
 21
133.970160
 31
0.0
  0
LINE
  5
2d3
100
AcDbEntity
  8
Ebene_1
 62
7
100
AcDbLine
 10
114.770770
 20
133.970160
 30
0.0
 11
111.549780
 21
143.884280
 31
0.0
  0
LINE
  5
2d4
100
AcDbEntity
  8
Ebene_1
 62
7
100
AcDbLine
 10
111.549780
 20
143.884280
 30
0.0
 11
111.152390
 21
143.884280
 31
0.0
  0
LINE
  5
2d5
100
AcDbEntity
  8
Ebene_1
 62
7
100
AcDbLine
 10
111.152390
 20
143.884280
 30
0.0
 11
111.152390
 21
143.884280
 31
0.0
  0
LINE
  5
2d6
100
AcDbEntity
  8
Ebene_1
 62
7
100
AcDbLine
 10
113.198260
 20
143.884280
 30
0.0
 11
117.365450
 21
133.970160
 31
0.0
  0
LINE
  5
2d7
100
AcDbEntity
  8
Ebene_1
 62
7
100
AcDbLine
 10
117.365450
 20
133.970160
 30
0.0
 11
118.041370
 21
133.970160
 31
0.0
  0
LINE
  5
2d8
100
AcDbEntity
  8
Ebene_1
 62
7
100
AcDbLine
 10
118.041370
 20
133.970160
 30
0.0
 11
113.627690
 21
143.884280
 31
0.0
  0
LINE
  5
2d9
100
AcDbEntity
  8
Ebene_1
 62
7
100
AcDbLine
 10
113.627690
 20
143.884280
 30
0.0
 11
113.198260
 21
143.884280
 31
0.0
  0
LINE
  5
2da
100
AcDbEntity
  8
Ebene_1
 62
7
100
AcDbLine
 10
113.198260
 20
143.884280
 30
0.0
 11
113.198260
 21
143.884280
 31
0.0
  0
LINE
  5
2db
100
AcDbEntity
  8
Ebene_1
 62
7
100
AcDbLine
 10
115.432750
 20
143.884280
 30
0.0
 11
120.883060
 21
133.970160
 31
0.0
  0
LINE
  5
2dc
100
AcDbEntity
  8
Ebene_1
 62
7
100
AcDbLine
 10
120.883060
 20
133.970160
 30
0.0
 11
121.632890
 21
133.970160
 31
0.0
  0
LINE
  5
2dd
100
AcDbEntity
  8
Ebene_1
 62
7
100
AcDbLine
 10
121.632890
 20
133.970160
 30
0.0
 11
115.909200
 21
143.884280
 31
0.0
  0
LINE
  5
2de
100
AcDbEntity
  8
Ebene_1
 62
7
100
AcDbLine
 10
115.909200
 20
143.884280
 30
0.0
 11
115.432750
 21
143.884280
 31
0.0
  0
LINE
  5
2df
100
AcDbEntity
  8
Ebene_1
 62
7
100
AcDbLine
 10
115.432750
 20
143.884280
 30
0.0
 11
115.432750
 21
143.884280
 31
0.0
  0
LINE
  5
2e0
100
AcDbEntity
  8
Ebene_1
 62
7
100
AcDbLine
 10
117.941640
 20
143.884280
 30
0.0
 11
122.071100
 21
137.942530
 31
0.0
  0
LINE
  5
2e1
100
AcDbEntity
  8
Ebene_1
 62
7
100
AcDbLine
 10
122.071100
 20
137.942530
 30
0.0
 11
122.071100
 21
138.949700
 31
0.0
  0
LINE
  5
2e2
100
AcDbEntity
  8
Ebene_1
 62
7
100
AcDbLine
 10
122.071100
 20
138.949700
 30
0.0
 11
118.486310
 21
143.884280
 31
0.0
  0
LINE
  5
2e3
100
AcDbEntity
  8
Ebene_1
 62
7
100
AcDbLine
 10
118.486310
 20
143.884280
 30
0.0
 11
117.941640
 21
143.884280
 31
0.0
  0
LINE
  5
2e4
100
AcDbEntity
  8
Ebene_1
 62
7
100
AcDbLine
 10
117.941640
 20
143.884280
 30
0.0
 11
117.941640
 21
143.884280
 31
0.0
  0
LINE
  5
2e5
100
AcDbEntity
  8
Ebene_1
 62
7
100
AcDbLine
 10
120.845340
 20
143.884280
 30
0.0
 11
122.071100
 21
142.464210
 31
0.0
  0
LINE
  5
2e6
100
AcDbEntity
  8
Ebene_1
 62
7
100
AcDbLine
 10
122.071100
 20
142.464210
 30
0.0
 11
122.071100
 21
143.237810
 31
0.0
  0
LINE
  5
2e7
100
AcDbEntity
  8
Ebene_1
 62
7
100
AcDbLine
 10
122.071100
 20
143.237810
 30
0.0
 11
121.488710
 21
143.884280
 31
0.0
  0
LINE
  5
2e8
100
AcDbEntity
  8
Ebene_1
 62
7
100
AcDbLine
 10
121.488710
 20
143.884280
 30
0.0
 11
120.845340
 21
143.884280
 31
0.0
  0
LINE
  5
2e9
100
AcDbEntity
  8
Ebene_1
 62
7
100
AcDbLine
 10
120.845340
 20
143.884280
 30
0.0
 11
120.845340
 21
143.884280
 31
0.0
  0
LINE
  5
2ea
100
AcDbEntity
  8
Ebene_1
 62
7
100
AcDbLine
 10
108.863640
 20
126.313780
 30
0.0
 11
109.664620
 21
116.770170
 31
0.0
  0
SPLINE
  5
2eb
100
AcDbEntity
  8
Ebene_1
 62
7
100
AcDbSpline
 70
8
 71
3
 72
8
 73
4
 74
0
 40
0
 40
0
 40
0
 40
0
 40
1
 40
1
 40
1
 40
1
 10
109.664620
 20
116.770170
 30
0.0
 10
110.022090
 20
116.546100
 30
0.0
 10
110.362180
 20
116.289850
 30
0.0
 10
110.683680
 20
115.999680
 30
0.0
  0
LINE
  5
2ec
100
AcDbEntity
  8
Ebene_1
 62
7
100
AcDbLine
 10
110.683680
 20
115.999680
 30
0.0
 11
109.606230
 21
126.251250
 31
0.0
  0
SPLINE
  5
2ed
100
AcDbEntity
  8
Ebene_1
 62
7
100
AcDbSpline
 70
8
 71
3
 72
8
 73
4
 74
0
 40
0
 40
0
 40
0
 40
0
 40
1
 40
1
 40
1
 40
1
 10
109.606230
 20
126.251250
 30
0.0
 10
109.361030
 20
126.277390
 30
0.0
 10
109.113100
 20
126.297790
 30
0.0
 10
108.863640
 20
126.313780
 30
0.0
  0
LINE
  5
2ee
100
AcDbEntity
  8
Ebene_1
 62
7
100
AcDbLine
 10
108.863640
 20
126.313780
 30
0.0
 11
108.863640
 21
126.313780
 31
0.0
  0
SPLINE
  5
2ef
100
AcDbEntity
  8
Ebene_1
 62
7
100
AcDbSpline
 70
8
 71
3
 72
8
 73
4
 74
0
 40
0
 40
0
 40
0
 40
0
 40
1
 40
1
 40
1
 40
1
 10
105.937720
 20
126.255900
 30
0.0
 10
105.692740
 20
126.227920
 30
0.0
 10
105.448390
 20
126.193990
 30
0.0
 10
105.204430
 20
126.154100
 30
0.0
  0
LINE
  5
2f0
100
AcDbEntity
  8
Ebene_1
 62
7
100
AcDbLine
 10
105.204430
 20
126.154100
 30
0.0
 11
105.031320
 21
117.901370
 31
0.0
  0
SPLINE
  5
2f1
100
AcDbEntity
  8
Ebene_1
 62
7
100
AcDbSpline
 70
8
 71
3
 72
8
 73
4
 74
0
 40
0
 40
0
 40
0
 40
0
 40
1
 40
1
 40
1
 40
1
 10
105.031320
 20
117.901370
 30
0.0
 10
105.157320
 20
117.906070
 30
0.0
 10
105.283000
 20
117.912220
 30
0.0
 10
105.410100
 20
117.912220
 30
0.0
  0
SPLINE
  5
2f2
100
AcDbEntity
  8
Ebene_1
 62
7
100
AcDbSpline
 70
8
 71
3
 72
8
 73
4
 74
0
 40
0
 40
0
 40
0
 40
0
 40
1
 40
1
 40
1
 40
1
 10
105.410100
 20
117.912220
 30
0.0
 10
105.588710
 20
117.912220
 30
0.0
 10
105.764110
 20
117.906410
 30
0.0
 10
105.937720
 20
117.897240
 30
0.0
  0
LINE
  5
2f3
100
AcDbEntity
  8
Ebene_1
 62
7
100
AcDbLine
 10
105.937720
 20
117.897240
 30
0.0
 11
105.937720
 21
126.255900
 31
0.0
  0
LINE
  5
2f4
100
AcDbEntity
  8
Ebene_1
 62
7
100
AcDbLine
 10
105.937720
 20
126.255900
 30
0.0
 11
105.937720
 21
126.255900
 31
0.0
  0
LINE
  5
2f5
100
AcDbEntity
  8
Ebene_1
 62
7
100
AcDbLine
 10
112.717150
 20
125.614080
 30
0.0
 11
118.809800
 21
93.675980
 31
0.0
  0
SPLINE
  5
2f6
100
AcDbEntity
  8
Ebene_1
 62
7
100
AcDbSpline
 70
8
 71
3
 72
8
 73
4
 74
0
 40
0
 40
0
 40
0
 40
0
 40
1
 40
1
 40
1
 40
1
 10
118.809800
 20
93.675980
 30
0.0
 10
119.219750
 20
94.096660
 30
0.0
 10
119.614810
 20
94.543570
 30
0.0
 10
119.995780
 20
95.014910
 30
0.0
  0
LINE
  5
2f7
100
AcDbEntity
  8
Ebene_1
 62
7
100
AcDbLine
 10
119.995780
 20
95.014910
 30
0.0
 11
113.553280
 21
125.325210
 31
0.0
  0
SPLINE
  5
2f8
100
AcDbEntity
  8
Ebene_1
 62
7
100
AcDbSpline
 70
8
 71
3
 72
8
 73
4
 74
0
 40
0
 40
0
 40
0
 40
0
 40
1
 40
1
 40
1
 40
1
 10
113.553280
 20
125.325210
 30
0.0
 10
113.277750
 20
125.429130
 30
0.0
 10
112.999280
 20
125.525910
 30
0.0
 10
112.717150
 20
125.614080
 30
0.0
  0
LINE
  5
2f9
100
AcDbEntity
  8
Ebene_1
 62
7
100
AcDbLine
 10
112.717150
 20
125.614080
 30
0.0
 11
112.717150
 21
125.614080
 31
0.0
  0
SPLINE
  5
2fa
100
AcDbEntity
  8
Ebene_1
 62
7
100
AcDbSpline
 70
8
 71
3
 72
8
 73
4
 74
0
 40
0
 40
0
 40
0
 40
0
 40
1
 40
1
 40
1
 40
1
 10
102.173610
 20
125.343290
 30
0.0
 10
101.906000
 20
125.243200
 30
0.0
 10
101.638970
 20
125.135780
 30
0.0
 10
101.372620
 20
125.020830
 30
0.0
  0
LINE
  5
2fb
100
AcDbEntity
  8
Ebene_1
 62
7
100
AcDbLine
 10
101.372620
 20
125.020830
 30
0.0
 11
100.292070
 21
116.465800
 31
0.0
  0
SPLINE
  5
2fc
100
AcDbEntity
  8
Ebene_1
 62
7
100
AcDbSpline
 70
8
 71
3
 72
8
 73
4
 74
0
 40
0
 40
0
 40
0
 40
0
 40
1
 40
1
 40
1
 40
1
 10
100.292070
 20
116.465800
 30
0.0
 10
100.622040
 20
116.664910
 30
0.0
 10
100.957060
 20
116.843280
 30
0.0
 10
101.296660
 20
117.001170
 30
0.0
  0
LINE
  5
2fd
100
AcDbEntity
  8
Ebene_1
 62
7
100
AcDbLine
 10
101.296660
 20
117.001170
 30
0.0
 11
102.173610
 21
125.343290
 31
0.0
  0
LINE
  5
2fe
100
AcDbEntity
  8
Ebene_1
 62
7
100
AcDbLine
 10
102.173610
 20
125.343290
 30
0.0
 11
102.173610
 21
125.343290
 31
0.0
  0
LINE
  5
2ff
100
AcDbEntity
  8
Ebene_1
 62
7
100
AcDbLine
 10
117.395940
 20
123.204410
 30
0.0
 11
123.745420
 21
102.173130
 31
0.0
  0
SPLINE
  5
300
100
AcDbEntity
  8
Ebene_1
 62
7
100
AcDbSpline
 70
8
 71
3
 72
8
 73
4
 74
0
 40
0
 40
0
 40
0
 40
0
 40
1
 40
1
 40
1
 40
1
 10
123.745420
 20
102.173130
 30
0.0
 10
123.977710
 20
102.991760
 30
0.0
 10
124.157060
 20
103.829770
 30
0.0
 10
124.284920
 20
104.687190
 30
0.0
  0
LINE
  5
301
100
AcDbEntity
  8
Ebene_1
 62
7
100
AcDbLine
 10
124.284920
 20
104.687190
 30
0.0
 11
118.586560
 21
122.226690
 31
0.0
  0
SPLINE
  5
302
100
AcDbEntity
  8
Ebene_1
 62
7
100
AcDbSpline
 70
8
 71
3
 72
8
 73
4
 74
0
 40
0
 40
0
 40
0
 40
0
 40
1
 40
1
 40
1
 40
1
 10
118.586560
 20
122.226690
 30
0.0
 10
118.198860
 20
122.574770
 30
0.0
 10
117.802100
 20
122.900390
 30
0.0
 10
117.395940
 20
123.204410
 30
0.0
  0
LINE
  5
303
100
AcDbEntity
  8
Ebene_1
 62
7
100
AcDbLine
 10
117.395940
 20
123.204410
 30
0.0
 11
117.395940
 21
123.204410
 31
0.0
  0
LINE
  5
304
100
AcDbEntity
  8
Ebene_1
 62
7
100
AcDbLine
 10
93.844401
 20
104.260340
 30
0.0
 11
92.561275
 21
104.127530
 31
0.0
  0
LINE
  5
305
100
AcDbEntity
  8
Ebene_1
 62
7
100
AcDbLine
 10
92.561275
 20
104.127530
 30
0.0
 11
90.505070
 21
95.360630
 31
0.0
  0
SPLINE
  5
306
100
AcDbEntity
  8
Ebene_1
 62
7
100
AcDbSpline
 70
8
 71
3
 72
8
 73
4
 74
0
 40
0
 40
0
 40
0
 40
0
 40
1
 40
1
 40
1
 40
1
 10
90.505070
 20
95.360630
 30
0.0
 10
90.859405
 20
94.873030
 30
0.0
 10
91.244806
 20
94.407730
 30
0.0
 10
91.654871
 20
93.960710
 30
0.0
  0
LINE
  5
307
100
AcDbEntity
  8
Ebene_1
 62
7
100
AcDbLine
 10
91.654871
 20
93.960710
 30
0.0
 11
93.844401
 21
104.260340
 31
0.0
  0
LINE
  5
308
100
AcDbEntity
  8
Ebene_1
 62
7
100
AcDbLine
 10
93.844401
 20
104.260340
 30
0.0
 11
93.844401
 21
104.260340
 31
0.0
  0
LINE
  5
309
100
AcDbEntity
  8
Ebene_1
 62
7
100
AcDbLine
 10
98.492179
 20
102.216020
 30
0.0
 11
96.964107
 21
90.120120
 31
0.0
  0
SPLINE
  5
30a
100
AcDbEntity
  8
Ebene_1
 62
7
100
AcDbSpline
 70
8
 71
3
 72
8
 73
4
 74
0
 40
0
 40
0
 40
0
 40
0
 40
1
 40
1
 40
1
 40
1
 10
96.964107
 20
90.120120
 30
0.0
 10
97.432725
 20
89.909220
 30
0.0
 10
97.915151
 20
89.718800
 30
0.0
 10
98.411047
 20
89.547550
 30
0.0
  0
LINE
  5
30b
100
AcDbEntity
  8
Ebene_1
 62
7
100
AcDbLine
 10
98.411047
 20
89.547550
 30
0.0
 11
99.531909
 21
100.212530
 31
0.0
  0
SPLINE
  5
30c
100
AcDbEntity
  8
Ebene_1
 62
7
100
AcDbSpline
 70
8
 71
3
 72
8
 73
4
 74
0
 40
0
 40
0
 40
0
 40
0
 40
1
 40
1
 40
1
 40
1
 10
99.531909
 20
100.212530
 30
0.0
 10
99.108214
 20
100.816390
 30
0.0
 10
98.760892
 20
101.483560
 30
0.0
 10
98.492179
 20
102.216020
 30
0.0
  0
LINE
  5
30d
100
AcDbEntity
  8
Ebene_1
 62
7
100
AcDbLine
 10
98.492179
 20
102.216020
 30
0.0
 11
98.492179
 21
102.216020
 31
0.0
  0
SPLINE
  5
30e
100
AcDbEntity
  8
Ebene_1
 62
7
100
AcDbSpline
 70
8
 71
3
 72
8
 73
4
 74
0
 40
0
 40
0
 40
0
 40
0
 40
1
 40
1
 40
1
 40
1
 10
112.261880
 20
100.985610
 30
0.0
 10
111.990520
 20
100.474130
 30
0.0
 10
111.680440
 20
100.008300
 30
0.0
 10
111.328090
 20
99.592410
 30
0.0
  0
SPLINE
  5
30f
100
AcDbEntity
  8
Ebene_1
 62
7
100
AcDbSpline
 70
8
 71
3
 72
8
 73
4
 74
0
 40
0
 40
0
 40
0
 40
0
 40
1
 40
1
 40
1
 40
1
 10
111.328090
 20
99.592410
 30
0.0
 10
111.261730
 20
99.515170
 30
0.0
 10
111.193670
 20
99.442030
 30
0.0
 10
111.126030
 20
99.368140
 30
0.0
  0
LINE
  5
310
100
AcDbEntity
  8
Ebene_1
 62
7
100
AcDbLine
 10
111.126030
 20
99.368140
 30
0.0
 11
111.964230
 21
89.388900
 31
0.0
  0
SPLINE
  5
311
100
AcDbEntity
  8
Ebene_1
 62
7
100
AcDbSpline
 70
8
 71
3
 72
8
 73
4
 74
0
 40
0
 40
0
 40
0
 40
0
 40
1
 40
1
 40
1
 40
1
 10
111.964230
 20
89.388900
 30
0.0
 10
112.462370
 20
89.551950
 30
0.0
 10
112.948340
 20
89.736420
 30
0.0
 10
113.422530
 20
89.941320
 30
0.0
  0
LINE
  5
312
100
AcDbEntity
  8
Ebene_1
 62
7
100
AcDbLine
 10
113.422530
 20
89.941320
 30
0.0
 11
112.261880
 21
100.985610
 31
0.0
  0
LINE
  5
313
100
AcDbEntity
  8
Ebene_1
 62
7
100
AcDbLine
 10
112.261880
 20
100.985610
 30
0.0
 11
112.261880
 21
100.985610
 31
0.0
  0
LINE
  5
314
100
AcDbEntity
  8
Ebene_1
 62
7
100
AcDbLine
 10
104.593620
 20
96.997740
 30
0.0
 11
104.414820
 21
88.462860
 31
0.0
  0
SPLINE
  5
315
100
AcDbEntity
  8
Ebene_1
 62
7
100
AcDbSpline
 70
8
 71
3
 72
8
 73
4
 74
0
 40
0
 40
0
 40
0
 40
0
 40
1
 40
1
 40
1
 40
1
 10
104.414820
 20
88.462860
 30
0.0
 10
104.804250
 20
88.445930
 30
0.0
 10
105.197630
 20
88.434440
 30
0.0
 10
105.598720
 20
88.434440
 30
0.0
  0
SPLINE
  5
316
100
AcDbEntity
  8
Ebene_1
 62
7
100
AcDbSpline
 70
8
 71
3
 72
8
 73
4
 74
0
 40
0
 40
0
 40
0
 40
0
 40
1
 40
1
 40
1
 40
1
 10
105.598720
 20
88.434440
 30
0.0
 10
105.712510
 20
88.434440
 30
0.0
 10
105.824820
 20
88.437020
 30
0.0
 10
105.937720
 20
88.438570
 30
0.0
  0
LINE
  5
317
100
AcDbEntity
  8
Ebene_1
 62
7
100
AcDbLine
 10
105.937720
 20
88.438570
 30
0.0
 11
105.937720
 21
96.921770
 31
0.0
  0
SPLINE
  5
318
100
AcDbEntity
  8
Ebene_1
 62
7
100
AcDbSpline
 70
8
 71
3
 72
8
 73
4
 74
0
 40
0
 40
0
 40
0
 40
0
 40
1
 40
1
 40
1
 40
1
 10
105.937720
 20
96.921770
 30
0.0
 10
105.862380
 20
96.919660
 30
0.0
 10
105.787530
 20
96.916090
 30
0.0
 10
105.711380
 20
96.916090
 30
0.0
  0
SPLINE
  5
319
100
AcDbEntity
  8
Ebene_1
 62
7
100
AcDbSpline
 70
8
 71
3
 72
8
 73
4
 74
0
 40
0
 40
0
 40
0
 40
0
 40
1
 40
1
 40
1
 40
1
 10
105.711380
 20
96.916090
 30
0.0
 10
105.329860
 20
96.916090
 30
0.0
 10
104.957550
 20
96.944010
 30
0.0
 10
104.593620
 20
96.997740
 30
0.0
  0
LINE
  5
31a
100
AcDbEntity
  8
Ebene_1
 62
7
100
AcDbLine
 10
104.593620
 20
96.997740
 30
0.0
 11
104.593620
 21
96.997740
 31
0.0
  0
SPLINE
  5
31b
100
AcDbEntity
  8
Ebene_1
 62
7
100
AcDbSpline
 70
8
 71
3
 72
8
 73
4
 74
0
 40
0
 40
0
 40
0
 40
0
 40
1
 40
1
 40
1
 40
1
 10
107.346940
 20
144.370040
 30
0.0
 10
107.228910
 20
144.368330
 30
0.0
 10
107.111130
 20
144.365770
 30
0.0
 10
106.993990
 20
144.362290
 30
0.0
  0
LINE
  5
31c
100
AcDbEntity
  8
Ebene_1
 62
7
100
AcDbLine
 10
106.993990
 20
144.362290
 30
0.0
 11
107.542270
 21
135.647570
 31
0.0
  0
SPLINE
  5
31d
100
AcDbEntity
  8
Ebene_1
 62
7
100
AcDbSpline
 70
8
 71
3
 72
8
 73
4
 74
0
 40
0
 40
0
 40
0
 40
0
 40
1
 40
1
 40
1
 40
1
 10
107.542270
 20
135.647570
 30
0.0
 10
107.727190
 20
135.636120
 30
0.0
 10
107.907610
 20
135.617330
 30
0.0
 10
108.084360
 20
135.592800
 30
0.0
  0
LINE
  5
31e
100
AcDbEntity
  8
Ebene_1
 62
7
100
AcDbLine
 10
108.084360
 20
135.592800
 30
0.0
 11
107.346940
 21
144.370040
 31
0.0
  0
LINE
  5
31f
100
AcDbEntity
  8
Ebene_1
 62
7
100
AcDbLine
 10
107.346940
 20
144.370040
 30
0.0
 11
107.346940
 21
144.370040
 31
0.0
  0
LINE
  5
320
100
AcDbEntity
  8
Ebene_1
 62
7
100
AcDbLine
 10
108.780960
 20
144.343170
 30
0.0
 11
110.402560
 21
134.756670
 31
0.0
  0
SPLINE
  5
321
100
AcDbEntity
  8
Ebene_1
 62
7
100
AcDbSpline
 70
8
 71
3
 72
8
 73
4
 74
0
 40
0
 40
0
 40
0
 40
0
 40
1
 40
1
 40
1
 40
1
 10
110.402560
 20
134.756670
 30
0.0
 10
110.638000
 20
134.603030
 30
0.0
 10
110.861200
 20
134.429400
 30
0.0
 10
111.072290
 20
134.236810
 30
0.0
  0
LINE
  5
322
100
AcDbEntity
  8
Ebene_1
 62
7
100
AcDbLine
 10
111.072290
 20
134.236810
 30
0.0
 11
109.148380
 21
144.323530
 31
0.0
  0
SPLINE
  5
323
100
AcDbEntity
  8
Ebene_1
 62
7
100
AcDbSpline
 70
8
 71
3
 72
8
 73
4
 74
0
 40
0
 40
0
 40
0
 40
0
 40
1
 40
1
 40
1
 40
1
 10
109.148380
 20
144.323530
 30
0.0
 10
109.026980
 20
144.331960
 30
0.0
 10
108.903680
 20
144.336890
 30
0.0
 10
108.780960
 20
144.343170
 30
0.0
  0
LINE
  5
324
100
AcDbEntity
  8
Ebene_1
 62
7
100
AcDbLine
 10
108.780960
 20
144.343170
 30
0.0
 11
108.780960
 21
144.343170
 31
0.0
  0
SPLINE
  5
325
100
AcDbEntity
  8
Ebene_1
 62
7
100
AcDbSpline
 70
8
 71
3
 72
8
 73
4
 74
0
 40
0
 40
0
 40
0
 40
0
 40
1
 40
1
 40
1
 40
1
 10
105.584250
 20
144.276510
 30
0.0
 10
105.465140
 20
144.265300
 30
0.0
 10
105.346860
 20
144.252450
 30
0.0
 10
105.228720
 20
144.239300
 30
0.0
  0
LINE
  5
326
100
AcDbEntity
  8
Ebene_1
 62
7
100
AcDbLine
 10
105.228720
 20
144.239300
 30
0.0
 11
104.854060
 21
135.303410
 31
0.0
  0
SPLINE
  5
327
100
AcDbEntity
  8
Ebene_1
 62
7
100
AcDbSpline
 70
8
 71
3
 72
8
 73
4
 74
0
 40
0
 40
0
 40
0
 40
0
 40
1
 40
1
 40
1
 40
1
 10
104.854060
 20
135.303410
 30
0.0
 10
105.033530
 20
135.365670
 30
0.0
 10
105.214860
 20
135.422150
 30
0.0
 10
105.399770
 20
135.468260
 30
0.0
  0
LINE
  5
328
100
AcDbEntity
  8
Ebene_1
 62
7
100
AcDbLine
 10
105.399770
 20
135.468260
 30
0.0
 11
105.584250
 21
144.276510
 31
0.0
  0
LINE
  5
329
100
AcDbEntity
  8
Ebene_1
 62
7
100
AcDbLine
 10
105.584250
 20
144.276510
 30
0.0
 11
105.584250
 21
144.276510
 31
0.0
  0
LINE
  5
32a
100
AcDbEntity
  8
Ebene_1
 62
7
100
AcDbLine
 10
110.684200
 20
144.155070
 30
0.0
 11
114.730460
 21
129.662410
 31
0.0
  0
LINE
  5
32b
100
AcDbEntity
  8
Ebene_1
 62
7
100
AcDbLine
 10
114.730460
 20
129.662410
 30
0.0
 11
115.422930
 21
129.738890
 31
0.0
  0
LINE
  5
32c
100
AcDbEntity
  8
Ebene_1
 62
7
100
AcDbLine
 10
115.422930
 20
129.738890
 30
0.0
 11
111.091930
 21
144.084270
 31
0.0
  0
SPLINE
  5
32d
100
AcDbEntity
  8
Ebene_1
 62
7
100
AcDbSpline
 70
8
 71
3
 72
8
 73
4
 74
0
 40
0
 40
0
 40
0
 40
0
 40
1
 40
1
 40
1
 40
1
 10
111.091930
 20
144.084270
 30
0.0
 10
110.956330
 20
144.108350
 30
0.0
 10
110.821670
 20
144.134020
 30
0.0
 10
110.684200
 20
144.155070
 30
0.0
  0
LINE
  5
32e
100
AcDbEntity
  8
Ebene_1
 62
7
100
AcDbLine
 10
110.684200
 20
144.155070
 30
0.0
 11
110.684200
 21
144.155070
 31
0.0
  0
SPLINE
  5
32f
100
AcDbEntity
  8
Ebene_1
 62
7
100
AcDbSpline
 70
8
 71
3
 72
8
 73
4
 74
0
 40
0
 40
0
 40
0
 40
0
 40
1
 40
1
 40
1
 40
1
 10
103.774030
 20
144.023810
 30
0.0
 10
103.648090
 20
144.000330
 30
0.0
 10
103.522060
 20
143.977310
 30
0.0
 10
103.397310
 20
143.951460
 30
0.0
  0
LINE
  5
330
100
AcDbEntity
  8
Ebene_1
 62
7
100
AcDbLine
 10
103.397310
 20
143.951460
 30
0.0
 11
101.808260
 21
133.189330
 31
0.0
  0
SPLINE
  5
331
100
AcDbEntity
  8
Ebene_1
 62
7
100
AcDbSpline
 70
8
 71
3
 72
8
 73
4
 74
0
 40
0
 40
0
 40
0
 40
0
 40
1
 40
1
 40
1
 40
1
 10
101.808260
 20
133.189330
 30
0.0
 10
102.030040
 20
133.438330
 30
0.0
 10
102.257980
 20
133.668830
 30
0.0
 10
102.492450
 20
133.880240
 30
0.0
  0
LINE
  5
332
100
AcDbEntity
  8
Ebene_1
 62
7
100
AcDbLine
 10
102.492450
 20
133.880240
 30
0.0
 11
103.774030
 21
144.023810
 31
0.0
  0
LINE
  5
333
100
AcDbEntity
  8
Ebene_1
 62
7
100
AcDbLine
 10
103.774030
 20
144.023810
 30
0.0
 11
103.774030
 21
144.023810
 31
0.0
  0
LINE
  5
334
100
AcDbEntity
  8
Ebene_1
 62
7
100
AcDbLine
 10
112.860290
 20
143.670860
 30
0.0
 11
118.252730
 21
130.051020
 31
0.0
  0
LINE
  5
335
100
AcDbEntity
  8
Ebene_1
 62
7
100
AcDbLine
 10
118.252730
 20
130.051020
 30
0.0
 11
118.979300
 21
130.131120
 31
0.0
  0
LINE
  5
336
100
AcDbEntity
  8
Ebene_1
 62
7
100
AcDbLine
 10
118.979300
 20
130.131120
 30
0.0
 11
113.352770
 21
143.515830
 31
0.0
  0
SPLINE
  5
337
100
AcDbEntity
  8
Ebene_1
 62
7
100
AcDbSpline
 70
8
 71
3
 72
8
 73
4
 74
0
 40
0
 40
0
 40
0
 40
0
 40
1
 40
1
 40
1
 40
1
 10
113.352770
 20
143.515830
 30
0.0
 10
113.190230
 20
143.570090
 30
0.0
 10
113.026020
 20
143.621750
 30
0.0
 10
112.860290
 20
143.670860
 30
0.0
  0
LINE
  5
338
100
AcDbEntity
  8
Ebene_1
 62
7
100
AcDbLine
 10
112.860290
 20
143.670860
 30
0.0
 11
112.860290
 21
143.670860
 31
0.0
  0
SPLINE
  5
339
100
AcDbEntity
  8
Ebene_1
 62
7
100
AcDbSpline
 70
8
 71
3
 72
8
 73
4
 74
0
 40
0
 40
0
 40
0
 40
0
 40
1
 40
1
 40
1
 40
1
 10
101.807740
 20
143.546830
 30
0.0
 10
101.665180
 20
143.503770
 30
0.0
 10
101.523320
 20
143.459420
 30
0.0
 10
101.382440
 20
143.412990
 30
0.0
  0
LINE
  5
33a
100
AcDbEntity
  8
Ebene_1
 62
7
100
AcDbLine
 10
101.382440
 20
143.412990
 30
0.0
 11
90.049284
 21
99.276670
 31
0.0
  0
SPLINE
  5
33b
100
AcDbEntity
  8
Ebene_1
 62
7
100
AcDbSpline
 70
8
 71
3
 72
8
 73
4
 74
0
 40
0
 40
0
 40
0
 40
0
 40
1
 40
1
 40
1
 40
1
 10
90.049284
 20
99.276670
 30
0.0
 10
90.330876
 20
98.587610
 30
0.0
 10
90.636476
 20
97.935280
 30
0.0
 10
90.964473
 20
97.317610
 30
0.0
  0
LINE
  5
33c
100
AcDbEntity
  8
Ebene_1
 62
7
100
AcDbLine
 10
90.964473
 20
97.317610
 30
0.0
 11
101.807740
 21
143.546830
 31
0.0
  0
LINE
  5
33d
100
AcDbEntity
  8
Ebene_1
 62
7
100
AcDbLine
 10
101.807740
 20
143.546830
 30
0.0
 11
101.807740
 21
143.546830
 31
0.0
  0
SPLINE
  5
33e
100
AcDbEntity
  8
Ebene_1
 62
7
100
AcDbSpline
 70
8
 71
3
 72
8
 73
4
 74
0
 40
0
 40
0
 40
0
 40
0
 40
1
 40
1
 40
1
 40
1
 10
99.499870
 20
142.669370
 30
0.0
 10
99.320231
 20
142.585930
 30
0.0
 10
99.142628
 20
142.498480
 30
0.0
 10
98.966052
 20
142.408920
 30
0.0
  0
LINE
  5
33f
100
AcDbEntity
  8
Ebene_1
 62
7
100
AcDbLine
 10
98.966052
 20
142.408920
 30
0.0
 11
87.593103
 21
111.827320
 31
0.0
  0
SPLINE
  5
340
100
AcDbEntity
  8
Ebene_1
 62
7
100
AcDbSpline
 70
8
 71
3
 72
8
 73
4
 74
0
 40
0
 40
0
 40
0
 40
0
 40
1
 40
1
 40
1
 40
1
 10
87.593103
 20
111.827320
 30
0.0
 10
87.644615
 20
110.883680
 30
0.0
 10
87.713882
 20
109.967640
 30
0.0
 10
87.803943
 20
109.083300
 30
0.0
  0
LINE
  5
341
100
AcDbEntity
  8
Ebene_1
 62
7
100
AcDbLine
 10
87.803943
 20
109.083300
 30
0.0
 11
99.499870
 21
142.669370
 31
0.0
  0
LINE
  5
342
100
AcDbEntity
  8
Ebene_1
 62
7
100
AcDbLine
 10
99.499870
 20
142.669370
 30
0.0
 11
99.499870
 21
142.669370
 31
0.0
  0
LINE
  5
343
100
AcDbEntity
  8
Ebene_1
 62
7
100
AcDbLine
 10
115.694230
 20
142.493670
 30
0.0
 11
121.983770
 21
130.462360
 31
0.0
  0
LINE
  5
344
100
AcDbEntity
  8
Ebene_1
 62
7
100
AcDbLine
 10
121.983770
 20
130.462360
 30
0.0
 11
122.764080
 21
130.548140
 31
0.0
  0
LINE
  5
345
100
AcDbEntity
  8
Ebene_1
 62
7
100
AcDbLine
 10
122.764080
 20
130.548140
 30
0.0
 11
116.435270
 21
142.059590
 31
0.0
  0
SPLINE
  5
346
100
AcDbEntity
  8
Ebene_1
 62
7
100
AcDbSpline
 70
8
 71
3
 72
8
 73
4
 74
0
 40
0
 40
0
 40
0
 40
0
 40
1
 40
1
 40
1
 40
1
 10
116.435270
 20
142.059590
 30
0.0
 10
116.193330
 20
142.212550
 30
0.0
 10
115.945530
 20
142.355880
 30
0.0
 10
115.694230
 20
142.493670
 30
0.0
  0
LINE
  5
347
100
AcDbEntity
  8
Ebene_1
 62
7
100
AcDbLine
 10
115.694230
 20
142.493670
 30
0.0
 11
115.694230
 21
142.493670
 31
0.0
  0
SPLINE
  5
348
100
AcDbEntity
  8
Ebene_1
 62
7
100
AcDbSpline
 70
8
 71
3
 72
8
 73
4
 74
0
 40
0
 40
0
 40
0
 40
0
 40
1
 40
1
 40
1
 40
1
 10
96.344507
 20
140.769230
 30
0.0
 10
96.047051
 20
140.544670
 30
0.0
 10
95.754517
 20
140.309910
 30
0.0
 10
95.467558
 20
140.064360
 30
0.0
  0
LINE
  5
349
100
AcDbEntity
  8
Ebene_1
 62
7
100
AcDbLine
 10
95.467558
 20
140.064360
 30
0.0
 11
88.178597
 21
125.381020
 31
0.0
  0
SPLINE
  5
34a
100
AcDbEntity
  8
Ebene_1
 62
7
100
AcDbSpline
 70
8
 71
3
 72
8
 73
4
 74
0
 40
0
 40
0
 40
0
 40
0
 40
1
 40
1
 40
1
 40
1
 10
88.178597
 20
125.381020
 30
0.0
 10
88.037357
 20
124.505890
 30
0.0
 10
87.918988
 20
123.596560
 30
0.0
 10
87.820996
 20
122.656120
 30
0.0
  0
LINE
  5
34b
100
AcDbEntity
  8
Ebene_1
 62
7
100
AcDbLine
 10
87.820996
 20
122.656120
 30
0.0
 11
96.344507
 21
140.769230
 31
0.0
  0
LINE
  5
34c
100
AcDbEntity
  8
Ebene_1
 62
7
100
AcDbLine
 10
96.344507
 20
140.769230
 30
0.0
 11
96.344507
 21
140.769230
 31
0.0
  0
SPLINE
  5
34d
100
AcDbEntity
  8
Ebene_1
 62
7
100
AcDbSpline
 70
8
 71
3
 72
8
 73
4
 74
0
 40
0
 40
0
 40
0
 40
0
 40
1
 40
1
 40
1
 40
1
 10
108.293650
 20
124.772790
 30
0.0
 10
108.271200
 20
124.772790
 30
0.0
 10
108.249390
 20
124.771340
 30
0.0
 10
108.226990
 20
124.771240
 30
0.0
  0
LINE
  5
34e
100
AcDbEntity
  8
Ebene_1
 62
7
100
AcDbLine
 10
108.226990
 20
124.771240
 30
0.0
 11
108.737550
 21
116.652870
 31
0.0
  0
SPLINE
  5
34f
100
AcDbEntity
  8
Ebene_1
 62
7
100
AcDbSpline
 70
8
 71
3
 72
8
 73
4
 74
0
 40
0
 40
0
 40
0
 40
0
 40
1
 40
1
 40
1
 40
1
 10
108.737550
 20
116.652870
 30
0.0
 10
109.072600
 20
116.545990
 30
0.0
 10
109.396270
 20
116.412180
 30
0.0
 10
109.708550
 20
116.250830
 30
0.0
  0
LINE
  5
350
100
AcDbEntity
  8
Ebene_1
 62
7
100
AcDbLine
 10
109.708550
 20
116.250830
 30
0.0
 11
108.994380
 21
124.756250
 31
0.0
  0
SPLINE
  5
351
100
AcDbEntity
  8
Ebene_1
 62
7
100
AcDbSpline
 70
8
 71
3
 72
8
 73
4
 74
0
 40
0
 40
0
 40
0
 40
0
 40
1
 40
1
 40
1
 40
1
 10
108.994380
 20
124.756250
 30
0.0
 10
108.762270
 20
124.765820
 30
0.0
 10
108.529400
 20
124.772790
 30
0.0
 10
108.293650
 20
124.772790
 30
0.0
  0
LINE
  5
352
100
AcDbEntity
  8
Ebene_1
 62
7
100
AcDbLine
 10
108.293650
 20
124.772790
 30
0.0
 11
108.293650
 21
124.772790
 31
0.0
  0
SPLINE
  5
353
100
AcDbEntity
  8
Ebene_1
 62
7
100
AcDbSpline
 70
8
 71
3
 72
8
 73
4
 74
0
 40
0
 40
0
 40
0
 40
0
 40
1
 40
1
 40
1
 40
1
 10
105.167740
 20
124.405370
 30
0.0
 10
104.904350
 20
124.341180
 30
0.0
 10
104.644330
 20
124.269020
 30
0.0
 10
104.387940
 20
124.187810
 30
0.0
  0
LINE
  5
354
100
AcDbEntity
  8
Ebene_1
 62
7
100
AcDbLine
 10
104.387940
 20
124.187810
 30
0.0
 11
104.064970
 21
116.474070
 31
0.0
  0
SPLINE
  5
355
100
AcDbEntity
  8
Ebene_1
 62
7
100
AcDbSpline
 70
8
 71
3
 72
8
 73
4
 74
0
 40
0
 40
0
 40
0
 40
0
 40
1
 40
1
 40
1
 40
1
 10
104.064970
 20
116.474070
 30
0.0
 10
104.369790
 20
116.600780
 30
0.0
 10
104.684200
 20
116.702530
 30
0.0
 10
105.008060
 20
116.780510
 30
0.0
  0
LINE
  5
356
100
AcDbEntity
  8
Ebene_1
 62
7
100
AcDbLine
 10
105.008060
 20
116.780510
 30
0.0
 11
105.167740
 21
124.405370
 31
0.0
  0
LINE
  5
357
100
AcDbEntity
  8
Ebene_1
 62
7
100
AcDbLine
 10
105.167740
 20
124.405370
 30
0.0
 11
105.167740
 21
124.405370
 31
0.0
  0
LINE
  5
358
100
AcDbEntity
  8
Ebene_1
 62
7
100
AcDbLine
 10
112.171450
 20
124.298400
 30
0.0
 11
117.712190
 21
91.539160
 31
0.0
  0
SPLINE
  5
359
100
AcDbEntity
  8
Ebene_1
 62
7
100
AcDbSpline
 70
8
 71
3
 72
8
 73
4
 74
0
 40
0
 40
0
 40
0
 40
0
 40
1
 40
1
 40
1
 40
1
 10
117.712190
 20
91.539160
 30
0.0
 10
118.156290
 20
91.889560
 30
0.0
 10
118.586230
 20
92.265540
 30
0.0
 10
119.002040
 20
92.667250
 30
0.0
  0
LINE
  5
35a
100
AcDbEntity
  8
Ebene_1
 62
7
100
AcDbLine
 10
119.002040
 20
92.667250
 30
0.0
 11
113.014290
 21
124.057070
 31
0.0
  0
SPLINE
  5
35b
100
AcDbEntity
  8
Ebene_1
 62
7
100
AcDbSpline
 70
8
 71
3
 72
8
 73
4
 74
0
 40
0
 40
0
 40
0
 40
0
 40
1
 40
1
 40
1
 40
1
 10
113.014290
 20
124.057070
 30
0.0
 10
112.736720
 20
124.146320
 30
0.0
 10
112.455380
 20
124.225850
 30
0.0
 10
112.171450
 20
124.298400
 30
0.0
  0
LINE
  5
35c
100
AcDbEntity
  8
Ebene_1
 62
7
100
AcDbLine
 10
112.171450
 20
124.298400
 30
0.0
 11
112.171450
 21
124.298400
 31
0.0
  0
SPLINE
  5
35d
100
AcDbEntity
  8
Ebene_1
 62
7
100
AcDbSpline
 70
8
 71
3
 72
8
 73
4
 74
0
 40
0
 40
0
 40
0
 40
0
 40
1
 40
1
 40
1
 40
1
 10
101.056880
 20
122.518660
 30
0.0
 10
100.738830
 20
122.291650
 30
0.0
 10
100.428060
 20
122.046190
 30
0.0
 10
100.124120
 20
121.784860
 30
0.0
  0
LINE
  5
35e
100
AcDbEntity
  8
Ebene_1
 62
7
100
AcDbLine
 10
100.124120
 20
121.784860
 30
0.0
 11
95.675814
 21
91.658010
 31
0.0
  0
SPLINE
  5
35f
100
AcDbEntity
  8
Ebene_1
 62
7
100
AcDbSpline
 70
8
 71
3
 72
8
 73
4
 74
0
 40
0
 40
0
 40
0
 40
0
 40
1
 40
1
 40
1
 40
1
 10
95.675814
 20
91.658010
 30
0.0
 10
96.116630
 20
91.304330
 30
0.0
 10
96.569324
 20
90.976200
 30
0.0
 10
97.033354
 20
90.673060
 30
0.0
  0
LINE
  5
360
100
AcDbEntity
  8
Ebene_1
 62
7
100
AcDbLine
 10
97.033354
 20
90.673060
 30
0.0
 11
101.056880
 21
122.518660
 31
0.0
  0
LINE
  5
361
100
AcDbEntity
  8
Ebene_1
 62
7
100
AcDbLine
 10
101.056880
 20
122.518660
 30
0.0
 11
101.056880
 21
122.518660
 31
0.0
  0
LINE
  5
362
100
AcDbEntity
  8
Ebene_1
 62
7
100
AcDbLine
 10
116.823360
 20
122.166740
 30
0.0
 11
123.219870
 21
99.257030
 31
0.0
  0
SPLINE
  5
363
100
AcDbEntity
  8
Ebene_1
 62
7
100
AcDbSpline
 70
8
 71
3
 72
8
 73
4
 74
0
 40
0
 40
0
 40
0
 40
0
 40
1
 40
1
 40
1
 40
1
 10
123.219870
 20
99.257030
 30
0.0
 10
123.491780
 20
100.031240
 30
0.0
 10
123.719540
 20
100.835580
 30
0.0
 10
123.896310
 20
101.673940
 30
0.0
  0
LINE
  5
364
100
AcDbEntity
  8
Ebene_1
 62
7
100
AcDbLine
 10
123.896310
 20
101.673940
 30
0.0
 11
117.971610
 21
121.296510
 31
0.0
  0
SPLINE
  5
365
100
AcDbEntity
  8
Ebene_1
 62
7
100
AcDbSpline
 70
8
 71
3
 72
8
 73
4
 74
0
 40
0
 40
0
 40
0
 40
0
 40
1
 40
1
 40
1
 40
1
 10
117.971610
 20
121.296510
 30
0.0
 10
117.596940
 20
121.607810
 30
0.0
 10
117.213960
 20
121.897310
 30
0.0
 10
116.823360
 20
122.166740
 30
0.0
  0
LINE
  5
366
100
AcDbEntity
  8
Ebene_1
 62
7
100
AcDbLine
 10
116.823360
 20
122.166740
 30
0.0
 11
116.823360
 21
122.166740
 31
0.0
  0
SPLINE
  5
367
100
AcDbEntity
  8
Ebene_1
 62
7
100
AcDbSpline
 70
8
 71
3
 72
8
 73
4
 74
0
 40
0
 40
0
 40
0
 40
0
 40
1
 40
1
 40
1
 40
1
 10
111.225250
 20
98.189400
 30
0.0
 10
110.825910
 20
97.850540
 30
0.0
 10
110.401560
 20
97.570540
 30
0.0
 10
109.951940
 20
97.349650
 30
0.0
  0
LINE
  5
368
100
AcDbEntity
  8
Ebene_1
 62
7
100
AcDbLine
 10
109.951940
 20
97.349650
 30
0.0
 11
110.521420
 21
88.298010
 31
0.0
  0
SPLINE
  5
369
100
AcDbEntity
  8
Ebene_1
 62
7
100
AcDbSpline
 70
8
 71
3
 72
8
 73
4
 74
0
 40
0
 40
0
 40
0
 40
0
 40
1
 40
1
 40
1
 40
1
 10
110.521420
 20
88.298010
 30
0.0
 10
111.033800
 20
88.395270
 30
0.0
 10
111.536170
 20
88.511170
 30
0.0
 10
112.026240
 20
88.648890
 30
0.0
  0
LINE
  5
36a
100
AcDbEntity
  8
Ebene_1
 62
7
100
AcDbLine
 10
112.026240
 20
88.648890
 30
0.0
 11
111.225250
 21
98.189400
 31
0.0
  0
LINE
  5
36b
100
AcDbEntity
  8
Ebene_1
 62
7
100
AcDbLine
 10
111.225250
 20
98.189400
 30
0.0
 11
111.225250
 21
98.189400
 31
0.0
  0
LINE
  5
36c
100
AcDbEntity
  8
Ebene_1
 62
7
100
AcDbLine
 10
103.292400
 20
98.040570
 30
0.0
 11
102.884160
 21
88.300590
 31
0.0
  0
SPLINE
  5
36d
100
AcDbEntity
  8
Ebene_1
 62
7
100
AcDbSpline
 70
8
 71
3
 72
8
 73
4
 74
0
 40
0
 40
0
 40
0
 40
0
 40
1
 40
1
 40
1
 40
1
 10
102.884160
 20
88.300590
 30
0.0
 10
103.382360
 20
88.202120
 30
0.0
 10
103.890030
 20
88.123960
 30
0.0
 10
104.407060
 20
88.066500
 30
0.0
  0
LINE
  5
36e
100
AcDbEntity
  8
Ebene_1
 62
7
100
AcDbLine
 10
104.407060
 20
88.066500
 30
0.0
 11
104.599820
 21
97.271620
 31
0.0
  0
SPLINE
  5
36f
100
AcDbEntity
  8
Ebene_1
 62
7
100
AcDbSpline
 70
8
 71
3
 72
8
 73
4
 74
0
 40
0
 40
0
 40
0
 40
0
 40
1
 40
1
 40
1
 40
1
 10
104.599820
 20
97.271620
 30
0.0
 10
104.150540
 20
97.472490
 30
0.0
 10
103.714590
 20
97.728330
 30
0.0
 10
103.292400
 20
98.040570
 30
0.0
  0
LINE
  5
370
100
AcDbEntity
  8
Ebene_1
 62
7
100
AcDbLine
 10
103.292400
 20
98.040570
 30
0.0
 11
103.292400
 21
98.040570
 31
0.0
  0
LINE
  5
371
100
AcDbEntity
  8
Ebene_1
 62
7
100
AcDbLine
 10
87.825130
 20
143.412990
 30
0.0
 11
87.825130
 21
142.659550
 31
0.0
  0
LINE
  5
372
100
AcDbEntity
  8
Ebene_1
 62
7
100
AcDbLine
 10
87.825130
 20
142.659550
 30
0.0
 11
88.563070
 21
143.412990
 31
0.0
  0
LINE
  5
373
100
AcDbEntity
  8
Ebene_1
 62
7
100
AcDbLine
 10
88.563070
 20
143.412990
 30
0.0
 11
87.825130
 21
143.412990
 31
0.0
  0
LINE
  5
374
100
AcDbEntity
  8
Ebene_1
 62
7
100
AcDbLine
 10
87.825130
 20
143.412990
 30
0.0
 11
87.825130
 21
143.412990
 31
0.0
  0
LINE
  5
375
100
AcDbEntity
  8
Ebene_1
 62
7
100
AcDbLine
 10
91.260063
 20
143.412990
 30
0.0
 11
87.825130
 21
139.260790
 31
0.0
  0
LINE
  5
376
100
AcDbEntity
  8
Ebene_1
 62
7
100
AcDbLine
 10
87.825130
 20
139.260790
 30
0.0
 11
87.825130
 21
138.302710
 31
0.0
  0
LINE
  5
377
100
AcDbEntity
  8
Ebene_1
 62
7
100
AcDbLine
 10
87.825130
 20
138.302710
 30
0.0
 11
91.875529
 21
143.412990
 31
0.0
  0
LINE
  5
378
100
AcDbEntity
  8
Ebene_1
 62
7
100
AcDbLine
 10
91.875529
 20
143.412990
 30
0.0
 11
91.260063
 21
143.412990
 31
0.0
  0
LINE
  5
379
100
AcDbEntity
  8
Ebene_1
 62
7
100
AcDbLine
 10
91.260063
 20
143.412990
 30
0.0
 11
91.260063
 21
143.412990
 31
0.0
  0
LINE
  5
37a
100
AcDbEntity
  8
Ebene_1
 62
7
100
AcDbLine
 10
94.150326
 20
143.412990
 30
0.0
 11
87.825130
 21
133.893160
 31
0.0
  0
LINE
  5
37b
100
AcDbEntity
  8
Ebene_1
 62
7
100
AcDbLine
 10
87.825130
 20
133.893160
 30
0.0
 11
87.825130
 21
133.574320
 31
0.0
  0
LINE
  5
37c
100
AcDbEntity
  8
Ebene_1
 62
7
100
AcDbLine
 10
87.825130
 20
133.574320
 30
0.0
 11
88.433879
 21
133.574320
 31
0.0
  0
LINE
  5
37d
100
AcDbEntity
  8
Ebene_1
 62
7
100
AcDbLine
 10
88.433879
 20
133.574320
 30
0.0
 11
94.677942
 21
143.412990
 31
0.0
  0
LINE
  5
37e
100
AcDbEntity
  8
Ebene_1
 62
7
100
AcDbLine
 10
94.677942
 20
143.412990
 30
0.0
 11
94.150326
 21
143.412990
 31
0.0
  0
LINE
  5
37f
100
AcDbEntity
  8
Ebene_1
 62
7
100
AcDbLine
 10
94.150326
 20
143.412990
 30
0.0
 11
94.150326
 21
143.412990
 31
0.0
  0
LINE
  5
380
100
AcDbEntity
  8
Ebene_1
 62
7
100
AcDbLine
 10
96.661800
 20
143.412990
 30
0.0
 11
91.518445
 21
133.574320
 31
0.0
  0
LINE
  5
381
100
AcDbEntity
  8
Ebene_1
 62
7
100
AcDbLine
 10
91.518445
 20
133.574320
 30
0.0
 11
92.246049
 21
133.574320
 31
0.0
  0
LINE
  5
382
100
AcDbEntity
  8
Ebene_1
 62
7
100
AcDbLine
 10
92.246049
 20
133.574320
 30
0.0
 11
97.129989
 21
143.412990
 31
0.0
  0
LINE
  5
383
100
AcDbEntity
  8
Ebene_1
 62
7
100
AcDbLine
 10
97.129989
 20
143.412990
 30
0.0
 11
96.661800
 21
143.412990
 31
0.0
  0
LINE
  5
384
100
AcDbEntity
  8
Ebene_1
 62
7
100
AcDbLine
 10
96.661800
 20
143.412990
 30
0.0
 11
96.661800
 21
143.412990
 31
0.0
  0
LINE
  5
385
100
AcDbEntity
  8
Ebene_1
 62
7
100
AcDbLine
 10
98.912826
 20
143.412990
 30
0.0
 11
95.017456
 21
133.574320
 31
0.0
  0
LINE
  5
386
100
AcDbEntity
  8
Ebene_1
 62
7
100
AcDbLine
 10
95.017456
 20
133.574320
 30
0.0
 11
95.679948
 21
133.574320
 31
0.0
  0
LINE
  5
387
100
AcDbEntity
  8
Ebene_1
 62
7
100
AcDbLine
 10
95.679948
 20
133.574320
 30
0.0
 11
99.339156
 21
143.412990
 31
0.0
  0
LINE
  5
388
100
AcDbEntity
  8
Ebene_1
 62
7
100
AcDbLine
 10
99.339156
 20
143.412990
 30
0.0
 11
98.912826
 21
143.412990
 31
0.0
  0
LINE
  5
389
100
AcDbEntity
  8
Ebene_1
 62
7
100
AcDbLine
 10
98.912826
 20
143.412990
 30
0.0
 11
98.912826
 21
143.412990
 31
0.0
  0
LINE
  5
38a
100
AcDbEntity
  8
Ebene_1
 62
7
100
AcDbLine
 10
100.984020
 20
143.412990
 30
0.0
 11
98.236898
 21
133.574320
 31
0.0
  0
LINE
  5
38b
100
AcDbEntity
  8
Ebene_1
 62
7
100
AcDbLine
 10
98.236898
 20
133.574320
 30
0.0
 11
98.855981
 21
133.574320
 31
0.0
  0
LINE
  5
38c
100
AcDbEntity
  8
Ebene_1
 62
7
100
AcDbLine
 10
98.855981
 20
133.574320
 30
0.0
 11
101.382440
 21
143.412990
 31
0.0
  0
LINE
  5
38d
100
AcDbEntity
  8
Ebene_1
 62
7
100
AcDbLine
 10
101.382440
 20
143.412990
 30
0.0
 11
100.984020
 21
143.412990
 31
0.0
  0
LINE
  5
38e
100
AcDbEntity
  8
Ebene_1
 62
7
100
AcDbLine
 10
100.984020
 20
143.412990
 30
0.0
 11
100.984020
 21
143.412990
 31
0.0
  0
LINE
  5
38f
100
AcDbEntity
  8
Ebene_1
 62
7
100
AcDbLine
 10
102.936870
 20
143.412990
 30
0.0
 11
101.272370
 21
133.574320
 31
0.0
  0
LINE
  5
390
100
AcDbEntity
  8
Ebene_1
 62
7
100
AcDbLine
 10
101.272370
 20
133.574320
 30
0.0
 11
101.865100
 21
133.574320
 31
0.0
  0
LINE
  5
391
100
AcDbEntity
  8
Ebene_1
 62
7
100
AcDbLine
 10
101.865100
 20
133.574320
 30
0.0
 11
103.317720
 21
143.412990
 31
0.0
  0
LINE
  5
392
100
AcDbEntity
  8
Ebene_1
 62
7
100
AcDbLine
 10
103.317720
 20
143.412990
 30
0.0
 11
102.936870
 21
143.412990
 31
0.0
  0
LINE
  5
393
100
AcDbEntity
  8
Ebene_1
 62
7
100
AcDbLine
 10
102.936870
 20
143.412990
 30
0.0
 11
102.936870
 21
143.412990
 31
0.0
  0
LINE
  5
394
100
AcDbEntity
  8
Ebene_1
 62
7
100
AcDbLine
 10
104.820990
 20
143.412990
 30
0.0
 11
104.202430
 21
133.574320
 31
0.0
  0
LINE
  5
395
100
AcDbEntity
  8
Ebene_1
 62
7
100
AcDbLine
 10
104.202430
 20
133.574320
 30
0.0
 11
104.781720
 21
133.574320
 31
0.0
  0
LINE
  5
396
100
AcDbEntity
  8
Ebene_1
 62
7
100
AcDbLine
 10
104.781720
 20
133.574320
 30
0.0
 11
105.194100
 21
143.412990
 31
0.0
  0
LINE
  5
397
100
AcDbEntity
  8
Ebene_1
 62
7
100
AcDbLine
 10
105.194100
 20
143.412990
 30
0.0
 11
104.820990
 21
143.412990
 31
0.0
  0
LINE
  5
398
100
AcDbEntity
  8
Ebene_1
 62
7
100
AcDbLine
 10
104.820990
 20
143.412990
 30
0.0
 11
104.820990
 21
143.412990
 31
0.0
  0
LINE
  5
399
100
AcDbEntity
  8
Ebene_1
 62
7
100
AcDbLine
 10
106.681340
 20
143.412990
 30
0.0
 11
107.093720
 21
133.574320
 31
0.0
  0
LINE
  5
39a
100
AcDbEntity
  8
Ebene_1
 62
7
100
AcDbLine
 10
107.093720
 20
133.574320
 30
0.0
 11
107.673010
 21
133.574320
 31
0.0
  0
LINE
  5
39b
100
AcDbEntity
  8
Ebene_1
 62
7
100
AcDbLine
 10
107.673010
 20
133.574320
 30
0.0
 11
107.053930
 21
143.412990
 31
0.0
  0
LINE
  5
39c
100
AcDbEntity
  8
Ebene_1
 62
7
100
AcDbLine
 10
107.053930
 20
143.412990
 30
0.0
 11
106.681340
 21
143.412990
 31
0.0
  0
LINE
  5
39d
100
AcDbEntity
  8
Ebene_1
 62
7
100
AcDbLine
 10
106.681340
 20
143.412990
 30
0.0
 11
106.681340
 21
143.412990
 31
0.0
  0
LINE
  5
39e
100
AcDbEntity
  8
Ebene_1
 62
7
100
AcDbLine
 10
108.557710
 20
143.412990
 30
0.0
 11
110.010340
 21
133.574320
 31
0.0
  0
LINE
  5
39f
100
AcDbEntity
  8
Ebene_1
 62
7
100
AcDbLine
 10
110.010340
 20
133.574320
 30
0.0
 11
110.602550
 21
133.574320
 31
0.0
  0
LINE
  5
3a0
100
AcDbEntity
  8
Ebene_1
 62
7
100
AcDbLine
 10
110.602550
 20
133.574320
 30
0.0
 11
108.938570
 21
143.412990
 31
0.0
  0
LINE
  5
3a1
100
AcDbEntity
  8
Ebene_1
 62
7
100
AcDbLine
 10
108.938570
 20
143.412990
 30
0.0
 11
108.557710
 21
143.412990
 31
0.0
  0
LINE
  5
3a2
100
AcDbEntity
  8
Ebene_1
 62
7
100
AcDbLine
 10
108.557710
 20
143.412990
 30
0.0
 11
108.557710
 21
143.412990
 31
0.0
  0
LINE
  5
3a3
100
AcDbEntity
  8
Ebene_1
 62
7
100
AcDbLine
 10
110.493000
 20
143.412990
 30
0.0
 11
115.473570
 21
124.015730
 31
0.0
  0
SPLINE
  5
3a4
100
AcDbEntity
  8
Ebene_1
 62
7
100
AcDbSpline
 70
8
 71
3
 72
8
 73
4
 74
0
 40
0
 40
0
 40
0
 40
0
 40
1
 40
1
 40
1
 40
1
 10
115.473570
 20
124.015730
 30
0.0
 10
115.661900
 20
124.342470
 30
0.0
 10
115.849930
 20
124.663850
 30
0.0
 10
116.037880
 20
124.981040
 30
0.0
  0
LINE
  5
3a5
100
AcDbEntity
  8
Ebene_1
 62
7
100
AcDbLine
 10
116.037880
 20
124.981040
 30
0.0
 11
110.891940
 21
143.412990
 31
0.0
  0
LINE
  5
3a6
100
AcDbEntity
  8
Ebene_1
 62
7
100
AcDbLine
 10
110.891940
 20
143.412990
 30
0.0
 11
110.493000
 21
143.412990
 31
0.0
  0
LINE
  5
3a7
100
AcDbEntity
  8
Ebene_1
 62
7
100
AcDbLine
 10
110.493000
 20
143.412990
 30
0.0
 11
110.493000
 21
143.412990
 31
0.0
  0
LINE
  5
3a8
100
AcDbEntity
  8
Ebene_1
 62
7
100
AcDbLine
 10
112.536280
 20
143.412990
 30
0.0
 11
118.141110
 21
128.341560
 31
0.0
  0
SPLINE
  5
3a9
100
AcDbEntity
  8
Ebene_1
 62
7
100
AcDbSpline
 70
8
 71
3
 72
8
 73
4
 74
0
 40
0
 40
0
 40
0
 40
0
 40
1
 40
1
 40
1
 40
1
 10
118.141110
 20
128.341560
 30
0.0
 10
118.306710
 20
128.591370
 30
0.0
 10
118.472420
 20
128.837210
 30
0.0
 10
118.637720
 20
129.079500
 30
0.0
  0
LINE
  5
3aa
100
AcDbEntity
  8
Ebene_1
 62
7
100
AcDbLine
 10
118.637720
 20
129.079500
 30
0.0
 11
112.962610
 21
143.412990
 31
0.0
  0
LINE
  5
3ab
100
AcDbEntity
  8
Ebene_1
 62
7
100
AcDbLine
 10
112.962610
 20
143.412990
 30
0.0
 11
112.536280
 21
143.412990
 31
0.0
  0
LINE
  5
3ac
100
AcDbEntity
  8
Ebene_1
 62
7
100
AcDbLine
 10
112.536280
 20
143.412990
 30
0.0
 11
112.536280
 21
143.412990
 31
0.0
  0
LINE
  5
3ad
100
AcDbEntity
  8
Ebene_1
 62
7
100
AcDbLine
 10
114.744930
 20
143.412990
 30
0.0
 11
120.548200
 21
131.721720
 31
0.0
  0
SPLINE
  5
3ae
100
AcDbEntity
  8
Ebene_1
 62
7
100
AcDbSpline
 70
8
 71
3
 72
8
 73
4
 74
0
 40
0
 40
0
 40
0
 40
0
 40
1
 40
1
 40
1
 40
1
 10
120.548200
 20
131.721720
 30
0.0
 10
120.703730
 20
131.923700
 30
0.0
 10
120.859050
 20
132.121280
 30
0.0
 10
121.014320
 20
132.316510
 30
0.0
  0
LINE
  5
3af
100
AcDbEntity
  8
Ebene_1
 62
7
100
AcDbLine
 10
121.014320
 20
132.316510
 30
0.0
 11
115.213120
 21
143.412990
 31
0.0
  0
LINE
  5
3b0
100
AcDbEntity
  8
Ebene_1
 62
7
100
AcDbLine
 10
115.213120
 20
143.412990
 30
0.0
 11
114.744930
 21
143.412990
 31
0.0
  0
LINE
  5
3b1
100
AcDbEntity
  8
Ebene_1
 62
7
100
AcDbLine
 10
114.744930
 20
143.412990
 30
0.0
 11
114.744930
 21
143.412990
 31
0.0
  0
LINE
  5
3b2
100
AcDbEntity
  8
Ebene_1
 62
7
100
AcDbLine
 10
117.197500
 20
143.412990
 30
0.0
 11
122.861230
 21
134.487960
 31
0.0
  0
SPLINE
  5
3b3
100
AcDbEntity
  8
Ebene_1
 62
7
100
AcDbSpline
 70
8
 71
3
 72
8
 73
4
 74
0
 40
0
 40
0
 40
0
 40
0
 40
1
 40
1
 40
1
 40
1
 10
122.861230
 20
134.487960
 30
0.0
 10
123.016170
 20
134.657090
 30
0.0
 10
123.171140
 20
134.821220
 30
0.0
 10
123.325810
 20
134.983530
 30
0.0
  0
LINE
  5
3b4
100
AcDbEntity
  8
Ebene_1
 62
7
100
AcDbLine
 10
123.325810
 20
134.983530
 30
0.0
 11
117.725630
 21
143.412990
 31
0.0
  0
LINE
  5
3b5
100
AcDbEntity
  8
Ebene_1
 62
7
100
AcDbLine
 10
117.725630
 20
143.412990
 30
0.0
 11
117.197500
 21
143.412990
 31
0.0
  0
LINE
  5
3b6
100
AcDbEntity
  8
Ebene_1
 62
7
100
AcDbLine
 10
117.197500
 20
143.412990
 30
0.0
 11
117.197500
 21
143.412990
 31
0.0
  0
LINE
  5
3b7
100
AcDbEntity
  8
Ebene_1
 62
7
100
AcDbLine
 10
120.000430
 20
143.412990
 30
0.0
 11
124.050310
 21
138.303230
 31
0.0
  0
LINE
  5
3b8
100
AcDbEntity
  8
Ebene_1
 62
7
100
AcDbLine
 10
124.050310
 20
138.303230
 30
0.0
 11
124.050310
 21
139.261310
 31
0.0
  0
LINE
  5
3b9
100
AcDbEntity
  8
Ebene_1
 62
7
100
AcDbLine
 10
124.050310
 20
139.261310
 30
0.0
 11
120.615890
 21
143.412990
 31
0.0
  0
LINE
  5
3ba
100
AcDbEntity
  8
Ebene_1
 62
7
100
AcDbLine
 10
120.615890
 20
143.412990
 30
0.0
 11
120.000430
 21
143.412990
 31
0.0
  0
LINE
  5
3bb
100
AcDbEntity
  8
Ebene_1
 62
7
100
AcDbLine
 10
120.000430
 20
143.412990
 30
0.0
 11
120.000430
 21
143.412990
 31
0.0
  0
LINE
  5
3bc
100
AcDbEntity
  8
Ebene_1
 62
7
100
AcDbLine
 10
123.313400
 20
143.412990
 30
0.0
 11
124.050310
 21
142.660580
 31
0.0
  0
LINE
  5
3bd
100
AcDbEntity
  8
Ebene_1
 62
7
100
AcDbLine
 10
124.050310
 20
142.660580
 30
0.0
 11
124.050310
 21
143.412990
 31
0.0
  0
LINE
  5
3be
100
AcDbEntity
  8
Ebene_1
 62
7
100
AcDbLine
 10
124.050310
 20
143.412990
 30
0.0
 11
123.313400
 21
143.412990
 31
0.0
  0
LINE
  5
3bf
100
AcDbEntity
  8
Ebene_1
 62
7
100
AcDbLine
 10
123.313400
 20
143.412990
 30
0.0
 11
123.313400
 21
143.412990
 31
0.0
  0
SPLINE
  5
3c0
100
AcDbEntity
  8
Ebene_1
 62
7
100
AcDbSpline
 70
8
 71
3
 72
8
 73
4
 74
0
 40
0
 40
0
 40
0
 40
0
 40
1
 40
1
 40
1
 40
1
 10
110.837160
 20
132.185250
 30
0.0
 10
110.662750
 20
131.954860
 30
0.0
 10
110.490160
 20
131.722790
 30
0.0
 10
110.318330
 20
131.490210
 30
0.0
  0
LINE
  5
3c1
100
AcDbEntity
  8
Ebene_1
 62
7
100
AcDbLine
 10
110.318330
 20
131.490210
 30
0.0
 11
112.317180
 21
117.951500
 31
0.0
  0
SPLINE
  5
3c2
100
AcDbEntity
  8
Ebene_1
 62
7
100
AcDbSpline
 70
8
 71
3
 72
8
 73
4
 74
0
 40
0
 40
0
 40
0
 40
0
 40
1
 40
1
 40
1
 40
1
 10
112.317180
 20
117.951500
 30
0.0
 10
112.539960
 20
118.432330
 30
0.0
 10
112.768790
 20
118.910180
 30
0.0
 10
113.001890
 20
119.386040
 30
0.0
  0
LINE
  5
3c3
100
AcDbEntity
  8
Ebene_1
 62
7
100
AcDbLine
 10
113.001890
 20
119.386040
 30
0.0
 11
110.837160
 21
132.185250
 31
0.0
  0
LINE
  5
3c4
100
AcDbEntity
  8
Ebene_1
 62
7
100
AcDbLine
 10
110.837160
 20
132.185250
 30
0.0
 11
110.837160
 21
132.185250
 31
0.0
  0
SPLINE
  5
3c5
100
AcDbEntity
  8
Ebene_1
 62
7
100
AcDbSpline
 70
8
 71
3
 72
8
 73
4
 74
0
 40
0
 40
0
 40
0
 40
0
 40
1
 40
1
 40
1
 40
1
 10
108.012010
 20
128.183430
 30
0.0
 10
107.792950
 20
127.850690
 30
0.0
 10
107.575610
 20
127.516740
 30
0.0
 10
107.361410
 20
127.179870
 30
0.0
  0
LINE
  5
3c6
100
AcDbEntity
  8
Ebene_1
 62
7
100
AcDbLine
 10
107.361410
 20
127.179870
 30
0.0
 11
108.213550
 21
106.850880
 31
0.0
  0
SPLINE
  5
3c7
100
AcDbEntity
  8
Ebene_1
 62
7
100
AcDbSpline
 70
8
 71
3
 72
8
 73
4
 74
0
 40
0
 40
0
 40
0
 40
0
 40
1
 40
1
 40
1
 40
1
 10
108.213550
 20
106.850880
 30
0.0
 10
108.508100
 20
107.892710
 30
0.0
 10
108.823440
 20
108.924630
 30
0.0
 10
109.159750
 20
109.946300
 30
0.0
  0
LINE
  5
3c8
100
AcDbEntity
  8
Ebene_1
 62
7
100
AcDbLine
 10
109.159750
 20
109.946300
 30
0.0
 11
108.012010
 21
128.183430
 31
0.0
  0
LINE
  5
3c9
100
AcDbEntity
  8
Ebene_1
 62
7
100
AcDbLine
 10
108.012010
 20
128.183430
 30
0.0
 11
108.012010
 21
128.183430
 31
0.0
  0
SPLINE
  5
3ca
100
AcDbEntity
  8
Ebene_1
 62
7
100
AcDbSpline
 70
8
 71
3
 72
8
 73
4
 74
0
 40
0
 40
0
 40
0
 40
0
 40
1
 40
1
 40
1
 40
1
 10
104.292340
 20
121.898540
 30
0.0
 10
103.971920
 20
121.293770
 30
0.0
 10
103.658880
 20
120.682650
 30
0.0
 10
103.352350
 20
120.066100
 30
0.0
  0
LINE
  5
3cb
100
AcDbEntity
  8
Ebene_1
 62
7
100
AcDbLine
 10
103.352350
 20
120.066100
 30
0.0
 11
101.391740
 21
88.905730
 31
0.0
  0
LINE
  5
3cc
100
AcDbEntity
  8
Ebene_1
 62
7
100
AcDbLine
 10
101.391740
 20
88.905730
 30
0.0
 11
102.909480
 21
88.905730
 31
0.0
  0
LINE
  5
3cd
100
AcDbEntity
  8
Ebene_1
 62
7
100
AcDbLine
 10
102.909480
 20
88.905730
 30
0.0
 11
104.292340
 21
121.898540
 31
0.0
  0
LINE
  5
3ce
100
AcDbEntity
  8
Ebene_1
 62
7
100
AcDbLine
 10
104.292340
 20
121.898540
 30
0.0
 11
104.292340
 21
121.898540
 31
0.0
  0
SPLINE
  5
3cf
100
AcDbEntity
  8
Ebene_1
 62
7
100
AcDbSpline
 70
8
 71
3
 72
8
 73
4
 74
0
 40
0
 40
0
 40
0
 40
0
 40
1
 40
1
 40
1
 40
1
 10
97.666907
 20
105.147630
 30
0.0
 10
96.180966
 20
99.660130
 30
0.0
 10
95.373997
 20
94.245870
 30
0.0
 10
95.251034
 20
88.905730
 30
0.0
  0
LINE
  5
3d0
100
AcDbEntity
  8
Ebene_1
 62
7
100
AcDbLine
 10
95.251034
 20
88.905730
 30
0.0
 11
95.268087
 21
88.905730
 31
0.0
  0
LINE
  5
3d1
100
AcDbEntity
  8
Ebene_1
 62
7
100
AcDbLine
 10
95.268087
 20
88.905730
 30
0.0
 11
97.666907
 21
105.147630
 31
0.0
  0
LINE
  5
3d2
100
AcDbEntity
  8
Ebene_1
 62
7
100
AcDbLine
 10
97.666907
 20
105.147630
 30
0.0
 11
97.666907
 21
105.147630
 31
0.0
  0
LINE
  5
3d3
100
AcDbEntity
  8
Ebene_1
 62
7
100
AcDbLine
 10
106.289120
 20
144.384510
 30
0.0
 11
106.465340
 21
135.965380
 31
0.0
  0
SPLINE
  5
3d4
100
AcDbEntity
  8
Ebene_1
 62
7
100
AcDbSpline
 70
8
 71
3
 72
8
 73
4
 74
0
 40
0
 40
0
 40
0
 40
0
 40
1
 40
1
 40
1
 40
1
 10
106.465340
 20
135.965380
 30
0.0
 10
106.645560
 20
135.953240
 30
0.0
 10
106.822490
 20
135.935920
 30
0.0
 10
106.995540
 20
135.912670
 30
0.0
  0
LINE
  5
3d5
100
AcDbEntity
  8
Ebene_1
 62
7
100
AcDbLine
 10
106.995540
 20
135.912670
 30
0.0
 11
106.641040
 21
144.378820
 31
0.0
  0
SPLINE
  5
3d6
100
AcDbEntity
  8
Ebene_1
 62
7
100
AcDbSpline
 70
8
 71
3
 72
8
 73
4
 74
0
 40
0
 40
0
 40
0
 40
0
 40
1
 40
1
 40
1
 40
1
 10
106.641040
 20
144.378820
 30
0.0
 10
106.525140
 20
144.382320
 30
0.0
 10
106.406230
 20
144.382390
 30
0.0
 10
106.289120
 20
144.384510
 30
0.0
  0
LINE
  5
3d7
100
AcDbEntity
  8
Ebene_1
 62
7
100
AcDbLine
 10
106.289120
 20
144.384510
 30
0.0
 11
106.289120
 21
144.384510
 31
0.0
  0
SPLINE
  5
3d8
100
AcDbEntity
  8
Ebene_1
 62
7
100
AcDbSpline
 70
8
 71
3
 72
8
 73
4
 74
0
 40
0
 40
0
 40
0
 40
0
 40
1
 40
1
 40
1
 40
1
 10
104.881970
 20
144.379340
 30
0.0
 10
104.762740
 20
144.375910
 30
0.0
 10
104.645410
 20
144.370250
 30
0.0
 10
104.527470
 20
144.365390
 30
0.0
  0
LINE
  5
3d9
100
AcDbEntity
  8
Ebene_1
 62
7
100
AcDbLine
 10
104.527470
 20
144.365390
 30
0.0
 11
103.804000
 21
135.745760
 31
0.0
  0
SPLINE
  5
3da
100
AcDbEntity
  8
Ebene_1
 62
7
100
AcDbSpline
 70
8
 71
3
 72
8
 73
4
 74
0
 40
0
 40
0
 40
0
 40
0
 40
1
 40
1
 40
1
 40
1
 10
103.804000
 20
135.745760
 30
0.0
 10
103.980410
 20
135.790460
 30
0.0
 10
104.161090
 20
135.829300
 30
0.0
 10
104.346090
 20
135.861520
 30
0.0
  0
LINE
  5
3db
100
AcDbEntity
  8
Ebene_1
 62
7
100
AcDbLine
 10
104.346090
 20
135.861520
 30
0.0
 11
104.881970
 21
144.379340
 31
0.0
  0
LINE
  5
3dc
100
AcDbEntity
  8
Ebene_1
 62
7
100
AcDbLine
 10
104.881970
 20
144.379340
 30
0.0
 11
104.881970
 21
144.379340
 31
0.0
  0
LINE
  5
3dd
100
AcDbEntity
  8
Ebene_1
 62
7
100
AcDbLine
 10
108.067310
 20
144.295110
 30
0.0
 11
109.215560
 21
135.206770
 31
0.0
  0
SPLINE
  5
3de
100
AcDbEntity
  8
Ebene_1
 62
7
100
AcDbSpline
 70
8
 71
3
 72
8
 73
4
 74
0
 40
0
 40
0
 40
0
 40
0
 40
1
 40
1
 40
1
 40
1
 10
109.215560
 20
135.206770
 30
0.0
 10
109.427150
 20
135.091260
 30
0.0
 10
109.630870
 20
134.963540
 30
0.0
 10
109.825850
 20
134.822300
 30
0.0
  0
LINE
  5
3df
100
AcDbEntity
  8
Ebene_1
 62
7
100
AcDbLine
 10
109.825850
 20
134.822300
 30
0.0
 11
108.431620
 21
144.264100
 31
0.0
  0
SPLINE
  5
3e0
100
AcDbEntity
  8
Ebene_1
 62
7
100
AcDbSpline
 70
8
 71
3
 72
8
 73
4
 74
0
 40
0
 40
0
 40
0
 40
0
 40
1
 40
1
 40
1
 40
1
 10
108.431620
 20
144.264100
 30
0.0
 10
108.311460
 20
144.275970
 30
0.0
 10
108.188930
 20
144.284910
 30
0.0
 10
108.067310
 20
144.295110
 30
0.0
  0
LINE
  5
3e1
100
AcDbEntity
  8
Ebene_1
 62
7
100
AcDbLine
 10
108.067310
 20
144.295110
 30
0.0
 11
108.067310
 21
144.295110
 31
0.0
  0
SPLINE
  5
3e2
100
AcDbEntity
  8
Ebene_1
 62
7
100
AcDbSpline
 70
8
 71
3
 72
8
 73
4
 74
0
 40
0
 40
0
 40
0
 40
0
 40
1
 40
1
 40
1
 40
1
 10
103.081560
 20
144.267200
 30
0.0
 10
102.956410
 20
144.255150
 30
0.0
 10
102.832030
 20
144.242270
 30
0.0
 10
102.708460
 20
144.228450
 30
0.0
  0
LINE
  5
3e3
100
AcDbEntity
  8
Ebene_1
 62
7
100
AcDbLine
 10
102.708460
 20
144.228450
 30
0.0
 11
100.738040
 21
133.897290
 31
0.0
  0
SPLINE
  5
3e4
100
AcDbEntity
  8
Ebene_1
 62
7
100
AcDbSpline
 70
8
 71
3
 72
8
 73
4
 74
0
 40
0
 40
0
 40
0
 40
0
 40
1
 40
1
 40
1
 40
1
 10
100.738040
 20
133.897290
 30
0.0
 10
100.822170
 20
133.992720
 30
0.0
 10
100.908530
 20
134.086900
 30
0.0
 10
100.999520
 20
134.177900
 30
0.0
  0
SPLINE
  5
3e5
100
AcDbEntity
  8
Ebene_1
 62
7
100
AcDbSpline
 70
8
 71
3
 72
8
 73
4
 74
0
 40
0
 40
0
 40
0
 40
0
 40
1
 40
1
 40
1
 40
1
 10
100.999520
 20
134.177900
 30
0.0
 10
101.141210
 20
134.319580
 30
0.0
 10
101.289260
 20
134.451790
 30
0.0
 10
101.442390
 20
134.576840
 30
0.0
  0
LINE
  5
3e6
100
AcDbEntity
  8
Ebene_1
 62
7
100
AcDbLine
 10
101.442390
 20
134.576840
 30
0.0
 11
103.081560
 21
144.267200
 31
0.0
  0
LINE
  5
3e7
100
AcDbEntity
  8
Ebene_1
 62
7
100
AcDbLine
 10
103.081560
 20
144.267200
 30
0.0
 11
103.081560
 21
144.267200
 31
0.0
  0
LINE
  5
3e8
100
AcDbEntity
  8
Ebene_1
 62
7
100
AcDbLine
 10
109.947290
 20
144.061530
 30
0.0
 11
115.770710
 21
119.231520
 31
0.0
  0
SPLINE
  5
3e9
100
AcDbEntity
  8
Ebene_1
 62
7
100
AcDbSpline
 70
8
 71
3
 72
8
 73
4
 74
0
 40
0
 40
0
 40
0
 40
0
 40
1
 40
1
 40
1
 40
1
 10
115.770710
 20
119.231520
 30
0.0
 10
116.049570
 20
119.379660
 30
0.0
 10
116.319770
 20
119.535230
 30
0.0
 10
116.582030
 20
119.697640
 30
0.0
  0
LINE
  5
3ea
100
AcDbEntity
  8
Ebene_1
 62
7
100
AcDbLine
 10
116.582030
 20
119.697640
 30
0.0
 11
110.343650
 21
143.995390
 31
0.0
  0
SPLINE
  5
3eb
100
AcDbEntity
  8
Ebene_1
 62
7
100
AcDbSpline
 70
8
 71
3
 72
8
 73
4
 74
0
 40
0
 40
0
 40
0
 40
0
 40
1
 40
1
 40
1
 40
1
 10
110.343650
 20
143.995390
 30
0.0
 10
110.213590
 20
144.019710
 30
0.0
 10
110.079320
 20
144.039440
 30
0.0
 10
109.947290
 20
144.061530
 30
0.0
  0
LINE
  5
3ec
100
AcDbEntity
  8
Ebene_1
 62
7
100
AcDbLine
 10
109.947290
 20
144.061530
 30
0.0
 11
109.947290
 21
144.061530
 31
0.0
  0
SPLINE
  5
3ed
100
AcDbEntity
  8
Ebene_1
 62
7
100
AcDbSpline
 70
8
 71
3
 72
8
 73
4
 74
0
 40
0
 40
0
 40
0
 40
0
 40
1
 40
1
 40
1
 40
1
 10
101.148350
 20
144.001590
 30
0.0
 10
101.007630
 20
143.975710
 30
0.0
 10
100.871280
 20
143.945290
 30
0.0
 10
100.732870
 20
143.916840
 30
0.0
  0
LINE
  5
3ee
100
AcDbEntity
  8
Ebene_1
 62
7
100
AcDbLine
 10
100.732870
 20
143.916840
 30
0.0
 11
93.691439
 21
120.594230
 31
0.0
  0
SPLINE
  5
3ef
100
AcDbEntity
  8
Ebene_1
 62
7
100
AcDbSpline
 70
8
 71
3
 72
8
 73
4
 74
0
 40
0
 40
0
 40
0
 40
0
 40
1
 40
1
 40
1
 40
1
 10
93.691439
 20
120.594230
 30
0.0
 10
93.937788
 20
120.408530
 30
0.0
 10
94.194813
 20
120.229190
 30
0.0
 10
94.462451
 20
120.055760
 30
0.0
  0
LINE
  5
3f0
100
AcDbEntity
  8
Ebene_1
 62
7
100
AcDbLine
 10
94.462451
 20
120.055760
 30
0.0
 11
101.148350
 21
144.001590
 31
0.0
  0
LINE
  5
3f1
100
AcDbEntity
  8
Ebene_1
 62
7
100
AcDbLine
 10
101.148350
 20
144.001590
 30
0.0
 11
101.148350
 21
144.001590
 31
0.0
  0
LINE
  5
3f2
100
AcDbEntity
  8
Ebene_1
 62
7
100
AcDbLine
 10
112.053630
 20
143.594380
 30
0.0
 11
119.507430
 21
122.188960
 31
0.0
  0
SPLINE
  5
3f3
100
AcDbEntity
  8
Ebene_1
 62
7
100
AcDbSpline
 70
8
 71
3
 72
8
 73
4
 74
0
 40
0
 40
0
 40
0
 40
0
 40
1
 40
1
 40
1
 40
1
 10
119.507430
 20
122.188960
 30
0.0
 10
119.726680
 20
122.446130
 30
0.0
 10
119.934340
 20
122.713430
 30
0.0
 10
120.131690
 20
122.989430
 30
0.0
  0
LINE
  5
3f4
100
AcDbEntity
  8
Ebene_1
 62
7
100
AcDbLine
 10
120.131690
 20
122.989430
 30
0.0
 11
112.521810
 21
143.451750
 31
0.0
  0
SPLINE
  5
3f5
100
AcDbEntity
  8
Ebene_1
 62
7
100
AcDbSpline
 70
8
 71
3
 72
8
 73
4
 74
0
 40
0
 40
0
 40
0
 40
0
 40
1
 40
1
 40
1
 40
1
 10
112.521810
 20
143.451750
 30
0.0
 10
112.366960
 20
143.500580
 30
0.0
 10
112.211830
 20
143.549360
 30
0.0
 10
112.053630
 20
143.594380
 30
0.0
  0
LINE
  5
3f6
100
AcDbEntity
  8
Ebene_1
 62
7
100
AcDbLine
 10
112.053630
 20
143.594380
 30
0.0
 11
112.053630
 21
143.594380
 31
0.0
  0
SPLINE
  5
3f7
100
AcDbEntity
  8
Ebene_1
 62
7
100
AcDbSpline
 70
8
 71
3
 72
8
 73
4
 74
0
 40
0
 40
0
 40
0
 40
0
 40
1
 40
1
 40
1
 40
1
 10
98.928845
 20
143.453820
 30
0.0
 10
98.759408
 20
143.400810
 30
0.0
 10
98.592464
 20
143.344930
 30
0.0
 10
98.427067
 20
143.287420
 30
0.0
  0
LINE
  5
3f8
100
AcDbEntity
  8
Ebene_1
 62
7
100
AcDbLine
 10
98.427067
 20
143.287420
 30
0.0
 11
90.493184
 21
124.414150
 31
0.0
  0
SPLINE
  5
3f9
100
AcDbEntity
  8
Ebene_1
 62
7
100
AcDbSpline
 70
8
 71
3
 72
8
 73
4
 74
0
 40
0
 40
0
 40
0
 40
0
 40
1
 40
1
 40
1
 40
1
 10
90.493184
 20
124.414150
 30
0.0
 10
90.651946
 20
124.095940
 30
0.0
 10
90.823236
 20
123.781590
 30
0.0
 10
91.010465
 20
123.472090
 30
0.0
  0
SPLINE
  5
3fa
100
AcDbEntity
  8
Ebene_1
 62
7
100
AcDbSpline
 70
8
 71
3
 72
8
 73
4
 74
0
 40
0
 40
0
 40
0
 40
0
 40
1
 40
1
 40
1
 40
1
 10
91.010465
 20
123.472090
 30
0.0
 10
91.011908
 20
123.469780
 30
0.0
 10
91.013672
 20
123.467680
 30
0.0
 10
91.015116
 20
123.465370
 30
0.0
  0
LINE
  5
3fb
100
AcDbEntity
  8
Ebene_1
 62
7
100
AcDbLine
 10
91.015116
 20
123.465370
 30
0.0
 11
98.928845
 21
143.453820
 31
0.0
  0
LINE
  5
3fc
100
AcDbEntity
  8
Ebene_1
 62
7
100
AcDbLine
 10
98.928845
 20
143.453820
 30
0.0
 11
98.928845
 21
143.453820
 31
0.0
  0
LINE
  5
3fd
100
AcDbEntity
  8
Ebene_1
 62
7
100
AcDbLine
 10
114.668970
 20
142.600120
 30
0.0
 11
121.981180
 21
127.061020
 31
0.0
  0
SPLINE
  5
3fe
100
AcDbEntity
  8
Ebene_1
 62
7
100
AcDbSpline
 70
8
 71
3
 72
8
 73
4
 74
0
 40
0
 40
0
 40
0
 40
0
 40
1
 40
1
 40
1
 40
1
 10
121.981180
 20
127.061020
 30
0.0
 10
122.082480
 20
127.483070
 30
0.0
 10
122.162300
 20
127.914310
 30
0.0
 10
122.219930
 20
128.354480
 30
0.0
  0
LINE
  5
3ff
100
AcDbEntity
  8
Ebene_1
 62
7
100
AcDbLine
 10
122.219930
 20
128.354480
 30
0.0
 11
115.314930
 21
142.264740
 31
0.0
  0
SPLINE
  5
400
100
AcDbEntity
  8
Ebene_1
 62
7
100
AcDbSpline
 70
8
 71
3
 72
8
 73
4
 74
0
 40
0
 40
0
 40
0
 40
0
 40
1
 40
1
 40
1
 40
1
 10
115.314930
 20
142.264740
 30
0.0
 10
115.103690
 20
142.381260
 30
0.0
 10
114.888630
 20
142.493190
 30
0.0
 10
114.668970
 20
142.600120
 30
0.0
  0
LINE
  5
401
100
AcDbEntity
  8
Ebene_1
 62
7
100
AcDbLine
 10
114.668970
 20
142.600120
 30
0.0
 11
114.668970
 21
142.600120
 31
0.0
  0
SPLINE
  5
402
100
AcDbEntity
  8
Ebene_1
 62
7
100
AcDbSpline
 70
8
 71
3
 72
8
 73
4
 74
0
 40
0
 40
0
 40
0
 40
0
 40
1
 40
1
 40
1
 40
1
 10
96.040649
 20
142.225470
 30
0.0
 10
95.781580
 20
142.081110
 30
0.0
 10
95.527636
 20
141.931060
 30
0.0
 10
95.281523
 20
141.772270
 30
0.0
  0
LINE
  5
403
100
AcDbEntity
  8
Ebene_1
 62
7
100
AcDbLine
 10
95.281523
 20
141.772270
 30
0.0
 11
89.174919
 21
130.664420
 31
0.0
  0
SPLINE
  5
404
100
AcDbEntity
  8
Ebene_1
 62
7
100
AcDbSpline
 70
8
 71
3
 72
8
 73
4
 74
0
 40
0
 40
0
 40
0
 40
0
 40
1
 40
1
 40
1
 40
1
 10
89.174919
 20
130.664420
 30
0.0
 10
89.169738
 20
130.491740
 30
0.0
 10
89.163550
 20
130.319300
 30
0.0
 10
89.163550
 20
130.144030
 30
0.0
  0
SPLINE
  5
405
100
AcDbEntity
  8
Ebene_1
 62
7
100
AcDbSpline
 70
8
 71
3
 72
8
 73
4
 74
0
 40
0
 40
0
 40
0
 40
0
 40
1
 40
1
 40
1
 40
1
 10
89.163550
 20
130.144030
 30
0.0
 10
89.163550
 20
129.806100
 30
0.0
 10
89.177112
 20
129.472570
 30
0.0
 10
89.201274
 20
129.142030
 30
0.0
  0
LINE
  5
406
100
AcDbEntity
  8
Ebene_1
 62
7
100
AcDbLine
 10
89.201274
 20
129.142030
 30
0.0
 11
96.040649
 21
142.225470
 31
0.0
  0
LINE
  5
407
100
AcDbEntity
  8
Ebene_1
 62
7
100
AcDbLine
 10
96.040649
 20
142.225470
 30
0.0
 11
96.040649
 21
142.225470
 31
0.0
  0
LINE
  5
408
100
AcDbEntity
  8
Ebene_1
 62
7
100
AcDbLine
 10
119.673830
 20
138.474280
 30
0.0
 11
121.057730
 21
136.189140
 31
0.0
  0
SPLINE
  5
409
100
AcDbEntity
  8
Ebene_1
 62
7
100
AcDbSpline
 70
8
 71
3
 72
8
 73
4
 74
0
 40
0
 40
0
 40
0
 40
0
 40
1
 40
1
 40
1
 40
1
 10
121.057730
 20
136.189140
 30
0.0
 10
120.680440
 20
136.992110
 30
0.0
 10
120.218770
 20
137.753690
 30
0.0
 10
119.673830
 20
138.474280
 30
0.0
  0
LINE
  5
40a
100
AcDbEntity
  8
Ebene_1
 62
7
100
AcDbLine
 10
119.673830
 20
138.474280
 30
0.0
 11
119.673830
 21
138.474280
 31
0.0
  0
LINE
  5
40b
100
AcDbEntity
  8
Ebene_1
 62
7
100
AcDbLine
 10
99.453361
 20
127.162300
 30
0.0
 11
92.857898
 21
92.586640
 31
0.0
  0
SPLINE
  5
40c
100
AcDbEntity
  8
Ebene_1
 62
7
100
AcDbSpline
 70
8
 71
3
 72
8
 73
4
 74
0
 40
0
 40
0
 40
0
 40
0
 40
1
 40
1
 40
1
 40
1
 10
92.857898
 20
92.586640
 30
0.0
 10
93.124802
 20
92.346930
 30
0.0
 10
93.398874
 20
92.111240
 30
0.0
 10
93.686788
 20
91.883840
 30
0.0
  0
SPLINE
  5
40d
100
AcDbEntity
  8
Ebene_1
 62
7
100
AcDbSpline
 70
8
 71
3
 72
8
 73
4
 74
0
 40
0
 40
0
 40
0
 40
0
 40
1
 40
1
 40
1
 40
1
 10
93.686788
 20
91.883840
 30
0.0
 10
93.842294
 20
91.761070
 30
0.0
 10
94.001510
 20
91.643810
 30
0.0
 10
94.160661
 20
91.526750
 30
0.0
  0
LINE
  5
40e
100
AcDbEntity
  8
Ebene_1
 62
7
100
AcDbLine
 10
94.160661
 20
91.526750
 30
0.0
 11
99.961857
 21
125.823370
 31
0.0
  0
SPLINE
  5
40f
100
AcDbEntity
  8
Ebene_1
 62
7
100
AcDbSpline
 70
8
 71
3
 72
8
 73
4
 74
0
 40
0
 40
0
 40
0
 40
0
 40
1
 40
1
 40
1
 40
1
 10
99.961857
 20
125.823370
 30
0.0
 10
99.748028
 20
126.234780
 30
0.0
 10
99.578102
 20
126.680760
 30
0.0
 10
99.453361
 20
127.162300
 30
0.0
  0
LINE
  5
410
100
AcDbEntity
  8
Ebene_1
 62
7
100
AcDbLine
 10
99.453361
 20
127.162300
 30
0.0
 11
99.453361
 21
127.162300
 31
0.0
  0
SPLINE
  5
411
100
AcDbEntity
  8
Ebene_1
 62
7
100
AcDbSpline
 70
8
 71
3
 72
8
 73
4
 74
0
 40
0
 40
0
 40
0
 40
0
 40
1
 40
1
 40
1
 40
1
 10
111.239200
 20
125.252860
 30
0.0
 10
111.042500
 20
124.967290
 30
0.0
 10
110.821620
 20
124.699880
 30
0.0
 10
110.574130
 20
124.452390
 30
0.0
  0
LINE
  5
412
100
AcDbEntity
  8
Ebene_1
 62
7
100
AcDbLine
 10
110.574130
 20
124.452390
 30
0.0
 11
112.312520
 21
110.693030
 31
0.0
  0
SPLINE
  5
413
100
AcDbEntity
  8
Ebene_1
 62
7
100
AcDbSpline
 70
8
 71
3
 72
8
 73
4
 74
0
 40
0
 40
0
 40
0
 40
0
 40
1
 40
1
 40
1
 40
1
 10
112.312520
 20
110.693030
 30
0.0
 10
113.187970
 20
109.305860
 30
0.0
 10
113.627690
 20
107.610990
 30
0.0
 10
113.627690
 20
105.604960
 30
0.0
  0
SPLINE
  5
414
100
AcDbEntity
  8
Ebene_1
 62
7
100
AcDbSpline
 70
8
 71
3
 72
8
 73
4
 74
0
 40
0
 40
0
 40
0
 40
0
 40
1
 40
1
 40
1
 40
1
 10
113.627690
 20
105.604960
 30
0.0
 10
113.627690
 20
104.510590
 30
0.0
 10
113.529260
 20
103.510760
 30
0.0
 10
113.334170
 20
102.604630
 30
0.0
  0
LINE
  5
415
100
AcDbEntity
  8
Ebene_1
 62
7
100
AcDbLine
 10
113.334170
 20
102.604630
 30
0.0
 11
114.960940
 21
89.729960
 31
0.0
  0
SPLINE
  5
416
100
AcDbEntity
  8
Ebene_1
 62
7
100
AcDbSpline
 70
8
 71
3
 72
8
 73
4
 74
0
 40
0
 40
0
 40
0
 40
0
 40
1
 40
1
 40
1
 40
1
 10
114.960940
 20
89.729960
 30
0.0
 10
115.446620
 20
89.963190
 30
0.0
 10
115.916180
 20
90.219880
 30
0.0
 10
116.371190
 20
90.498390
 30
0.0
  0
LINE
  5
417
100
AcDbEntity
  8
Ebene_1
 62
7
100
AcDbLine
 10
116.371190
 20
90.498390
 30
0.0
 11
111.239200
 21
125.252860
 31
0.0
  0
LINE
  5
418
100
AcDbEntity
  8
Ebene_1
 62
7
100
AcDbLine
 10
111.239200
 20
125.252860
 30
0.0
 11
111.239200
 21
125.252860
 31
0.0
  0
LINE
  5
419
100
AcDbEntity
  8
Ebene_1
 62
7
100
AcDbLine
 10
102.754450
 20
123.247810
 30
0.0
 11
101.911610
 21
113.211740
 31
0.0
  0
SPLINE
  5
41a
100
AcDbEntity
  8
Ebene_1
 62
7
100
AcDbSpline
 70
8
 71
3
 72
8
 73
4
 74
0
 40
0
 40
0
 40
0
 40
0
 40
1
 40
1
 40
1
 40
1
 10
101.911610
 20
113.211740
 30
0.0
 10
102.237330
 20
113.408130
 30
0.0
 10
102.584160
 20
113.575840
 30
0.0
 10
102.952890
 20
113.713510
 30
0.0
  0
LINE
  5
41b
100
AcDbEntity
  8
Ebene_1
 62
7
100
AcDbLine
 10
102.952890
 20
113.713510
 30
0.0
 11
103.535280
 21
122.971860
 31
0.0
  0
SPLINE
  5
41c
100
AcDbEntity
  8
Ebene_1
 62
7
100
AcDbSpline
 70
8
 71
3
 72
8
 73
4
 74
0
 40
0
 40
0
 40
0
 40
0
 40
1
 40
1
 40
1
 40
1
 10
103.535280
 20
122.971860
 30
0.0
 10
103.265100
 20
123.049020
 30
0.0
 10
103.004260
 20
123.139760
 30
0.0
 10
102.754450
 20
123.247810
 30
0.0
  0
LINE
  5
41d
100
AcDbEntity
  8
Ebene_1
 62
7
100
AcDbLine
 10
102.754450
 20
123.247810
 30
0.0
 11
102.754450
 21
123.247810
 31
0.0
  0
SPLINE
  5
41e
100
AcDbEntity
  8
Ebene_1
 62
7
100
AcDbSpline
 70
8
 71
3
 72
8
 73
4
 74
0
 40
0
 40
0
 40
0
 40
0
 40
1
 40
1
 40
1
 40
1
 10
107.542790
 20
122.859720
 30
0.0
 10
107.285010
 20
122.804630
 30
0.0
 10
107.017970
 20
122.763250
 30
0.0
 10
106.742840
 20
122.733630
 30
0.0
  0
LINE
  5
41f
100
AcDbEntity
  8
Ebene_1
 62
7
100
AcDbLine
 10
106.742840
 20
122.733630
 30
0.0
 11
106.922670
 21
114.138290
 31
0.0
  0
SPLINE
  5
420
100
AcDbEntity
  8
Ebene_1
 62
7
100
AcDbSpline
 70
8
 71
3
 72
8
 73
4
 74
0
 40
0
 40
0
 40
0
 40
0
 40
1
 40
1
 40
1
 40
1
 10
106.922670
 20
114.138290
 30
0.0
 10
107.263610
 20
114.098250
 30
0.0
 10
107.595210
 20
114.039150
 30
0.0
 10
107.915890
 20
113.957940
 30
0.0
  0
LINE
  5
421
100
AcDbEntity
  8
Ebene_1
 62
7
100
AcDbLine
 10
107.915890
 20
113.957940
 30
0.0
 11
107.542790
 21
122.859720
 31
0.0
  0
LINE
  5
422
100
AcDbEntity
  8
Ebene_1
 62
7
100
AcDbLine
 10
107.542790
 20
122.859720
 30
0.0
 11
107.542790
 21
122.859720
 31
0.0
  0
LINE
  5
423
100
AcDbEntity
  8
Ebene_1
 62
7
100
AcDbLine
 10
116.027030
 20
118.139080
 30
0.0
 11
121.377090
 21
95.328070
 31
0.0
  0
SPLINE
  5
424
100
AcDbEntity
  8
Ebene_1
 62
7
100
AcDbSpline
 70
8
 71
3
 72
8
 73
4
 74
0
 40
0
 40
0
 40
0
 40
0
 40
1
 40
1
 40
1
 40
1
 10
121.377090
 20
95.328070
 30
0.0
 10
121.752860
 20
95.894750
 30
0.0
 10
122.086110
 20
96.486450
 30
0.0
 10
122.384260
 20
97.098510
 30
0.0
  0
LINE
  5
425
100
AcDbEntity
  8
Ebene_1
 62
7
100
AcDbLine
 10
122.384260
 20
97.098510
 30
0.0
 11
117.134970
 21
117.544800
 31
0.0
  0
SPLINE
  5
426
100
AcDbEntity
  8
Ebene_1
 62
7
100
AcDbSpline
 70
8
 71
3
 72
8
 73
4
 74
0
 40
0
 40
0
 40
0
 40
0
 40
1
 40
1
 40
1
 40
1
 10
117.134970
 20
117.544800
 30
0.0
 10
116.779010
 20
117.753200
 30
0.0
 10
116.409780
 20
117.951120
 30
0.0
 10
116.027030
 20
118.139080
 30
0.0
  0
LINE
  5
427
100
AcDbEntity
  8
Ebene_1
 62
7
100
AcDbLine
 10
116.027030
 20
118.139080
 30
0.0
 11
116.027030
 21
118.139080
 31
0.0
  0
SPLINE
  5
428
100
AcDbEntity
  8
Ebene_1
 62
7
100
AcDbSpline
 70
8
 71
3
 72
8
 73
4
 74
0
 40
0
 40
0
 40
0
 40
0
 40
1
 40
1
 40
1
 40
1
 10
93.550362
 20
116.788260
 30
0.0
 10
93.070739
 20
116.438080
 30
0.0
 10
92.622451
 20
116.066860
 30
0.0
 10
92.205741
 20
115.674120
 30
0.0
  0
LINE
  5
429
100
AcDbEntity
  8
Ebene_1
 62
7
100
AcDbLine
 10
92.205741
 20
115.674120
 30
0.0
 11
87.987911
 21
101.703910
 31
0.0
  0
SPLINE
  5
42a
100
AcDbEntity
  8
Ebene_1
 62
7
100
AcDbSpline
 70
8
 71
3
 72
8
 73
4
 74
0
 40
0
 40
0
 40
0
 40
0
 40
1
 40
1
 40
1
 40
1
 10
87.987911
 20
101.703910
 30
0.0
 10
88.127035
 20
100.787880
 30
0.0
 10
88.331518
 20
99.910490
 30
0.0
 10
88.603894
 20
99.072550
 30
0.0
  0
LINE
  5
42b
100
AcDbEntity
  8
Ebene_1
 62
7
100
AcDbLine
 10
88.603894
 20
99.072550
 30
0.0
 11
93.550362
 21
116.788260
 31
0.0
  0
LINE
  5
42c
100
AcDbEntity
  8
Ebene_1
 62
7
100
AcDbLine
 10
93.550362
 20
116.788260
 30
0.0
 11
93.550362
 21
116.788260
 31
0.0
  0
LINE
  5
42d
100
AcDbEntity
  8
Ebene_1
 62
7
100
AcDbLine
 10
100.687390
 20
98.632780
 30
0.0
 11
99.858504
 21
88.761550
 31
0.0
  0
SPLINE
  5
42e
100
AcDbEntity
  8
Ebene_1
 62
7
100
AcDbSpline
 70
8
 71
3
 72
8
 73
4
 74
0
 40
0
 40
0
 40
0
 40
0
 40
1
 40
1
 40
1
 40
1
 10
99.858504
 20
88.761550
 30
0.0
 10
100.347690
 20
88.622410
 30
0.0
 10
100.848260
 20
88.500960
 30
0.0
 10
101.359700
 20
88.396710
 30
0.0
  0
LINE
  5
42f
100
AcDbEntity
  8
Ebene_1
 62
7
100
AcDbLine
 10
101.359700
 20
88.396710
 30
0.0
 11
101.940030
 21
97.613200
 31
0.0
  0
SPLINE
  5
430
100
AcDbEntity
  8
Ebene_1
 62
7
100
AcDbSpline
 70
8
 71
3
 72
8
 73
4
 74
0
 40
0
 40
0
 40
0
 40
0
 40
1
 40
1
 40
1
 40
1
 10
101.940030
 20
97.613200
 30
0.0
 10
101.498950
 20
97.900140
 30
0.0
 10
101.081290
 20
98.240080
 30
0.0
 10
100.687390
 20
98.632780
 30
0.0
  0
LINE
  5
431
100
AcDbEntity
  8
Ebene_1
 62
7
100
AcDbLine
 10
100.687390
 20
98.632780
 30
0.0
 11
100.687390
 21
98.632780
 31
0.0
  0
SPLINE
  5
432
100
AcDbEntity
  8
Ebene_1
 62
7
100
AcDbSpline
 70
8
 71
3
 72
8
 73
4
 74
0
 40
0
 40
0
 40
0
 40
0
 40
1
 40
1
 40
1
 40
1
 10
108.632130
 20
96.868030
 30
0.0
 10
108.204990
 20
96.716550
 30
0.0
 10
107.758280
 20
96.605600
 30
0.0
 10
107.291640
 20
96.535750
 30
0.0
  0
LINE
  5
433
100
AcDbEntity
  8
Ebene_1
 62
7
100
AcDbLine
 10
107.291640
 20
96.535750
 30
0.0
 11
107.470960
 21
87.957980
 31
0.0
  0
SPLINE
  5
434
100
AcDbEntity
  8
Ebene_1
 62
7
100
AcDbSpline
 70
8
 71
3
 72
8
 73
4
 74
0
 40
0
 40
0
 40
0
 40
0
 40
1
 40
1
 40
1
 40
1
 10
107.470960
 20
87.957980
 30
0.0
 10
107.991310
 20
87.982510
 30
0.0
 10
108.501580
 20
88.021820
 30
0.0
 10
109.000580
 20
88.077870
 30
0.0
  0
LINE
  5
435
100
AcDbEntity
  8
Ebene_1
 62
7
100
AcDbLine
 10
109.000580
 20
88.077870
 30
0.0
 11
108.632130
 21
96.868030
 31
0.0
  0
LINE
  5
436
100
AcDbEntity
  8
Ebene_1
 62
7
100
AcDbLine
 10
108.632130
 20
96.868030
 30
0.0
 11
108.632130
 21
96.868030
 31
0.0
  0
SPLINE
  5
437
100
AcDbEntity
  8
Ebene_1
 62
7
100
AcDbSpline
 70
8
 71
3
 72
8
 73
4
 74
0
 40
0
 40
0
 40
0
 40
0
 40
1
 40
1
 40
1
 40
1
 10
104.529020
 20
144.378820
 30
0.0
 10
104.410340
 20
144.375270
 30
0.0
 10
104.290660
 20
144.373410
 30
0.0
 10
104.172970
 20
144.367970
 30
0.0
  0
LINE
  5
438
100
AcDbEntity
  8
Ebene_1
 62
7
100
AcDbLine
 10
104.172970
 20
144.367970
 30
0.0
 11
103.235560
 21
135.447070
 31
0.0
  0
SPLINE
  5
439
100
AcDbEntity
  8
Ebene_1
 62
7
100
AcDbSpline
 70
8
 71
3
 72
8
 73
4
 74
0
 40
0
 40
0
 40
0
 40
0
 40
1
 40
1
 40
1
 40
1
 10
103.235560
 20
135.447070
 30
0.0
 10
103.416090
 20
135.488400
 30
0.0
 10
103.600280
 20
135.520830
 30
0.0
 10
103.787460
 20
135.546290
 30
0.0
  0
LINE
  5
43a
100
AcDbEntity
  8
Ebene_1
 62
7
100
AcDbLine
 10
103.787460
 20
135.546290
 30
0.0
 11
104.529020
 21
144.378820
 31
0.0
  0
LINE
  5
43b
100
AcDbEntity
  8
Ebene_1
 62
7
100
AcDbLine
 10
104.529020
 20
144.378820
 30
0.0
 11
104.529020
 21
144.378820
 31
0.0
  0
LINE
  5
43c
100
AcDbEntity
  8
Ebene_1
 62
7
100
AcDbLine
 10
105.937720
 20
144.375210
 30
0.0
 11
105.937720
 21
135.491000
 31
0.0
  0
SPLINE
  5
43d
100
AcDbEntity
  8
Ebene_1
 62
7
100
AcDbSpline
 70
8
 71
3
 72
8
 73
4
 74
0
 40
0
 40
0
 40
0
 40
0
 40
1
 40
1
 40
1
 40
1
 10
105.937720
 20
135.491000
 30
0.0
 10
106.119910
 20
135.455350
 30
0.0
 10
106.299900
 20
135.411690
 30
0.0
 10
106.477740
 20
135.359740
 30
0.0
  0
LINE
  5
43e
100
AcDbEntity
  8
Ebene_1
 62
7
100
AcDbLine
 10
106.477740
 20
135.359740
 30
0.0
 11
106.289120
 21
144.363840
 31
0.0
  0
SPLINE
  5
43f
100
AcDbEntity
  8
Ebene_1
 62
7
100
AcDbSpline
 70
8
 71
3
 72
8
 73
4
 74
0
 40
0
 40
0
 40
0
 40
0
 40
1
 40
1
 40
1
 40
1
 10
106.289120
 20
144.363840
 30
0.0
 10
106.173050
 20
144.369870
 30
0.0
 10
106.054700
 20
144.371130
 30
0.0
 10
105.937720
 20
144.375210
 30
0.0
  0
LINE
  5
440
100
AcDbEntity
  8
Ebene_1
 62
7
100
AcDbLine
 10
105.937720
 20
144.375210
 30
0.0
 11
105.937720
 21
144.375210
 31
0.0
  0
SPLINE
  5
441
100
AcDbEntity
  8
Ebene_1
 62
7
100
AcDbSpline
 70
8
 71
3
 72
8
 73
4
 74
0
 40
0
 40
0
 40
0
 40
0
 40
1
 40
1
 40
1
 40
1
 10
102.712080
 20
144.246020
 30
0.0
 10
102.585900
 20
144.231140
 30
0.0
 10
102.458760
 20
144.218270
 30
0.0
 10
102.333810
 20
144.201060
 30
0.0
  0
LINE
  5
442
100
AcDbEntity
  8
Ebene_1
 62
7
100
AcDbLine
 10
102.333810
 20
144.201060
 30
0.0
 11
100.073990
 21
133.569670
 31
0.0
  0
SPLINE
  5
443
100
AcDbEntity
  8
Ebene_1
 62
7
100
AcDbSpline
 70
8
 71
3
 72
8
 73
4
 74
0
 40
0
 40
0
 40
0
 40
0
 40
1
 40
1
 40
1
 40
1
 10
100.073990
 20
133.569670
 30
0.0
 10
100.308050
 20
133.822110
 30
0.0
 10
100.552550
 20
134.049820
 30
0.0
 10
100.806250
 20
134.255410
 30
0.0
  0
LINE
  5
444
100
AcDbEntity
  8
Ebene_1
 62
7
100
AcDbLine
 10
100.806250
 20
134.255410
 30
0.0
 11
102.712080
 21
144.246020
 31
0.0
  0
LINE
  5
445
100
AcDbEntity
  8
Ebene_1
 62
7
100
AcDbLine
 10
102.712080
 20
144.246020
 30
0.0
 11
102.712080
 21
144.246020
 31
0.0
  0
LINE
  5
446
100
AcDbEntity
  8
Ebene_1
 62
7
100
AcDbLine
 10
107.715910
 20
144.238260
 30
0.0
 11
108.777340
 21
134.137590
 31
0.0
  0
SPLINE
  5
447
100
AcDbEntity
  8
Ebene_1
 62
7
100
AcDbSpline
 70
8
 71
3
 72
8
 73
4
 74
0
 40
0
 40
0
 40
0
 40
0
 40
1
 40
1
 40
1
 40
1
 10
108.777340
 20
134.137590
 30
0.0
 10
108.996760
 20
133.962010
 30
0.0
 10
109.212260
 20
133.771030
 30
0.0
 10
109.423300
 20
133.563980
 30
0.0
  0
LINE
  5
448
100
AcDbEntity
  8
Ebene_1
 62
7
100
AcDbLine
 10
109.423300
 20
133.563980
 30
0.0
 11
108.081260
 21
144.187620
 31
0.0
  0
SPLINE
  5
449
100
AcDbEntity
  8
Ebene_1
 62
7
100
AcDbSpline
 70
8
 71
3
 72
8
 73
4
 74
0
 40
0
 40
0
 40
0
 40
0
 40
1
 40
1
 40
1
 40
1
 10
108.081260
 20
144.187620
 30
0.0
 10
107.959860
 20
144.205410
 30
0.0
 10
107.838380
 20
144.222800
 30
0.0
 10
107.715910
 20
144.238260
 30
0.0
  0
LINE
  5
44a
100
AcDbEntity
  8
Ebene_1
 62
7
100
AcDbLine
 10
107.715910
 20
144.238260
 30
0.0
 11
107.715910
 21
144.238260
 31
0.0
  0
SPLINE
  5
44b
100
AcDbEntity
  8
Ebene_1
 62
7
100
AcDbSpline
 70
8
 71
3
 72
8
 73
4
 74
0
 40
0
 40
0
 40
0
 40
0
 40
1
 40
1
 40
1
 40
1
 10
100.730290
 20
143.908050
 30
0.0
 10
100.584840
 20
143.874740
 30
0.0
 10
100.441900
 20
143.836800
 30
0.0
 10
100.298270
 20
143.800050
 30
0.0
  0
LINE
  5
44c
100
AcDbEntity
  8
Ebene_1
 62
7
100
AcDbLine
 10
100.298270
 20
143.800050
 30
0.0
 11
90.739164
 21
114.380660
 31
0.0
  0
SPLINE
  5
44d
100
AcDbEntity
  8
Ebene_1
 62
7
100
AcDbSpline
 70
8
 71
3
 72
8
 73
4
 74
0
 40
0
 40
0
 40
0
 40
0
 40
1
 40
1
 40
1
 40
1
 10
90.739164
 20
114.380660
 30
0.0
 10
90.982556
 20
114.034650
 30
0.0
 10
91.238921
 20
113.696820
 30
0.0
 10
91.509660
 20
113.368310
 30
0.0
  0
LINE
  5
44e
100
AcDbEntity
  8
Ebene_1
 62
7
100
AcDbLine
 10
91.509660
 20
113.368310
 30
0.0
 11
100.730290
 21
143.908050
 31
0.0
  0
LINE
  5
44f
100
AcDbEntity
  8
Ebene_1
 62
7
100
AcDbLine
 10
100.730290
 20
143.908050
 30
0.0
 11
100.730290
 21
143.908050
 31
0.0
  0
LINE
  5
450
100
AcDbEntity
  8
Ebene_1
 62
7
100
AcDbLine
 10
109.606230
 20
143.896680
 30
0.0
 11
119.789590
 21
95.987460
 31
0.0
  0
SPLINE
  5
451
100
AcDbEntity
  8
Ebene_1
 62
7
100
AcDbSpline
 70
8
 71
3
 72
8
 73
4
 74
0
 40
0
 40
0
 40
0
 40
0
 40
1
 40
1
 40
1
 40
1
 10
119.789590
 20
95.987460
 30
0.0
 10
120.154940
 20
96.527440
 30
0.0
 10
120.497160
 20
97.101840
 30
0.0
 10
120.818980
 20
97.707260
 30
0.0
  0
LINE
  5
452
100
AcDbEntity
  8
Ebene_1
 62
7
100
AcDbLine
 10
120.818980
 20
97.707260
 30
0.0
 11
110.009820
 21
143.795400
 31
0.0
  0
SPLINE
  5
453
100
AcDbEntity
  8
Ebene_1
 62
7
100
AcDbSpline
 70
8
 71
3
 72
8
 73
4
 74
0
 40
0
 40
0
 40
0
 40
0
 40
1
 40
1
 40
1
 40
1
 10
110.009820
 20
143.795400
 30
0.0
 10
109.875920
 20
143.830630
 30
0.0
 10
109.741580
 20
143.864570
 30
0.0
 10
109.606230
 20
143.896680
 30
0.0
  0
LINE
  5
454
100
AcDbEntity
  8
Ebene_1
 62
7
100
AcDbLine
 10
109.606230
 20
143.896680
 30
0.0
 11
109.606230
 21
143.896680
 31
0.0
  0
LINE
  5
455
100
AcDbEntity
  8
Ebene_1
 62
7
100
AcDbLine
 10
111.762690
 20
143.229020
 30
0.0
 11
123.652400
 21
106.636430
 31
0.0
  0
SPLINE
  5
456
100
AcDbEntity
  8
Ebene_1
 62
7
100
AcDbSpline
 70
8
 71
3
 72
8
 73
4
 74
0
 40
0
 40
0
 40
0
 40
0
 40
1
 40
1
 40
1
 40
1
 10
123.652400
 20
106.636430
 30
0.0
 10
123.793510
 20
107.476030
 30
0.0
 10
123.913100
 20
108.348050
 30
0.0
 10
124.013620
 20
109.248670
 30
0.0
  0
LINE
  5
457
100
AcDbEntity
  8
Ebene_1
 62
7
100
AcDbLine
 10
124.013620
 20
109.248670
 30
0.0
 11
112.248960
 21
143.032140
 31
0.0
  0
SPLINE
  5
458
100
AcDbEntity
  8
Ebene_1
 62
7
100
AcDbSpline
 70
8
 71
3
 72
8
 73
4
 74
0
 40
0
 40
0
 40
0
 40
0
 40
1
 40
1
 40
1
 40
1
 10
112.248960
 20
143.032140
 30
0.0
 10
112.088020
 20
143.100310
 30
0.0
 10
111.926000
 20
143.165980
 30
0.0
 10
111.762690
 20
143.229020
 30
0.0
  0
LINE
  5
459
100
AcDbEntity
  8
Ebene_1
 62
7
100
AcDbLine
 10
111.762690
 20
143.229020
 30
0.0
 11
111.762690
 21
143.229020
 31
0.0
  0
SPLINE
  5
45a
100
AcDbEntity
  8
Ebene_1
 62
7
100
AcDbSpline
 70
8
 71
3
 72
8
 73
4
 74
0
 40
0
 40
0
 40
0
 40
0
 40
1
 40
1
 40
1
 40
1
 10
98.384692
 20
143.188720
 30
0.0
 10
98.200761
 20
143.117380
 30
0.0
 10
98.019061
 20
143.042140
 30
0.0
 10
97.838472
 20
142.964440
 30
0.0
  0
LINE
  5
45b
100
AcDbEntity
  8
Ebene_1
 62
7
100
AcDbLine
 10
97.838472
 20
142.964440
 30
0.0
 11
87.977059
 21
120.814890
 31
0.0
  0
SPLINE
  5
45c
100
AcDbEntity
  8
Ebene_1
 62
7
100
AcDbSpline
 70
8
 71
3
 72
8
 73
4
 74
0
 40
0
 40
0
 40
0
 40
0
 40
1
 40
1
 40
1
 40
1
 10
87.977059
 20
120.814890
 30
0.0
 10
88.085335
 20
120.308600
 30
0.0
 10
88.211588
 20
119.813480
 30
0.0
 10
88.355847
 20
119.330220
 30
0.0
  0
LINE
  5
45d
100
AcDbEntity
  8
Ebene_1
 62
7
100
AcDbLine
 10
88.355847
 20
119.330220
 30
0.0
 11
98.384692
 21
143.188720
 31
0.0
  0
LINE
  5
45e
100
AcDbEntity
  8
Ebene_1
 62
7
100
AcDbLine
 10
98.384692
 20
143.188720
 30
0.0
 11
98.384692
 21
143.188720
 31
0.0
  0
LINE
  5
45f
100
AcDbEntity
  8
Ebene_1
 62
7
100
AcDbLine
 10
114.536160
 20
141.843060
 30
0.0
 11
124.312310
 21
119.884200
 31
0.0
  0
SPLINE
  5
460
100
AcDbEntity
  8
Ebene_1
 62
7
100
AcDbSpline
 70
8
 71
3
 72
8
 73
4
 74
0
 40
0
 40
0
 40
0
 40
0
 40
1
 40
1
 40
1
 40
1
 10
124.312310
 20
119.884200
 30
0.0
 10
124.271590
 20
120.776300
 30
0.0
 10
124.211670
 20
121.637670
 30
0.0
 10
124.137640
 20
122.477840
 30
0.0
  0
LINE
  5
461
100
AcDbEntity
  8
Ebene_1
 62
7
100
AcDbLine
 10
124.137640
 20
122.477840
 30
0.0
 11
115.247230
 21
141.371770
 31
0.0
  0
SPLINE
  5
462
100
AcDbEntity
  8
Ebene_1
 62
7
100
AcDbSpline
 70
8
 71
3
 72
8
 73
4
 74
0
 40
0
 40
0
 40
0
 40
0
 40
1
 40
1
 40
1
 40
1
 10
115.247230
 20
141.371770
 30
0.0
 10
115.013200
 20
141.535250
 30
0.0
 10
114.776330
 20
141.692860
 30
0.0
 10
114.536160
 20
141.843060
 30
0.0
  0
LINE
  5
463
100
AcDbEntity
  8
Ebene_1
 62
7
100
AcDbLine
 10
114.536160
 20
141.843060
 30
0.0
 11
114.536160
 21
141.843060
 31
0.0
  0
SPLINE
  5
464
100
AcDbEntity
  8
Ebene_1
 62
7
100
AcDbSpline
 70
8
 71
3
 72
8
 73
4
 74
0
 40
0
 40
0
 40
0
 40
0
 40
1
 40
1
 40
1
 40
1
 10
95.117192
 20
141.473060
 30
0.0
 10
94.792513
 20
141.251390
 30
0.0
 10
94.476721
 20
141.013050
 30
0.0
 10
94.165312
 20
140.766130
 30
0.0
  0
LINE
  5
465
100
AcDbEntity
  8
Ebene_1
 62
7
100
AcDbLine
 10
94.165312
 20
140.766130
 30
0.0
 11
87.808077
 21
129.753880
 31
0.0
  0
SPLINE
  5
466
100
AcDbEntity
  8
Ebene_1
 62
7
100
AcDbSpline
 70
8
 71
3
 72
8
 73
4
 74
0
 40
0
 40
0
 40
0
 40
0
 40
1
 40
1
 40
1
 40
1
 10
87.808077
 20
129.753880
 30
0.0
 10
87.698667
 20
129.098210
 30
0.0
 10
87.616078
 20
128.424840
 30
0.0
 10
87.562614
 20
127.732300
 30
0.0
  0
LINE
  5
467
100
AcDbEntity
  8
Ebene_1
 62
7
100
AcDbLine
 10
87.562614
 20
127.732300
 30
0.0
 11
95.117192
 21
141.473060
 31
0.0
  0
LINE
  5
468
100
AcDbEntity
  8
Ebene_1
 62
7
100
AcDbLine
 10
95.117192
 20
141.473060
 30
0.0
 11
95.117192
 21
141.473060
 31
0.0
  0
LINE
  5
469
100
AcDbEntity
  8
Ebene_1
 62
7
100
AcDbLine
 10
97.973865
 20
123.688610
 30
0.0
 11
95.087219
 21
110.107530
 31
0.0
  0
SPLINE
  5
46a
100
AcDbEntity
  8
Ebene_1
 62
7
100
AcDbSpline
 70
8
 71
3
 72
8
 73
4
 74
0
 40
0
 40
0
 40
0
 40
0
 40
1
 40
1
 40
1
 40
1
 10
95.087219
 20
110.107530
 30
0.0
 10
95.413492
 20
109.886290
 30
0.0
 10
95.743945
 20
109.676620
 30
0.0
 10
96.080440
 20
109.484310
 30
0.0
  0
LINE
  5
46b
100
AcDbEntity
  8
Ebene_1
 62
7
100
AcDbLine
 10
96.080440
 20
109.484310
 30
0.0
 11
98.344385
 21
121.349220
 31
0.0
  0
SPLINE
  5
46c
100
AcDbEntity
  8
Ebene_1
 62
7
100
AcDbSpline
 70
8
 71
3
 72
8
 73
4
 74
0
 40
0
 40
0
 40
0
 40
0
 40
1
 40
1
 40
1
 40
1
 10
98.344385
 20
121.349220
 30
0.0
 10
98.171826
 20
122.063340
 30
0.0
 10
98.047685
 20
122.842260
 30
0.0
 10
97.973865
 20
123.688610
 30
0.0
  0
LINE
  5
46d
100
AcDbEntity
  8
Ebene_1
 62
7
100
AcDbLine
 10
97.973865
 20
123.688610
 30
0.0
 11
97.973865
 21
123.688610
 31
0.0
  0
SPLINE
  5
46e
100
AcDbEntity
  8
Ebene_1
 62
7
100
AcDbSpline
 70
8
 71
3
 72
8
 73
4
 74
0
 40
0
 40
0
 40
0
 40
0
 40
1
 40
1
 40
1
 40
1
 10
111.265560
 20
118.979340
 30
0.0
 10
111.038120
 20
118.568140
 30
0.0
 10
110.779490
 20
118.190680
 30
0.0
 10
110.489900
 20
117.846080
 30
0.0
  0
LINE
  5
46f
100
AcDbEntity
  8
Ebene_1
 62
7
100
AcDbLine
 10
110.489900
 20
117.846080
 30
0.0
 11
111.299150
 21
110.146810
 31
0.0
  0
SPLINE
  5
470
100
AcDbEntity
  8
Ebene_1
 62
7
100
AcDbSpline
 70
8
 71
3
 72
8
 73
4
 74
0
 40
0
 40
0
 40
0
 40
0
 40
1
 40
1
 40
1
 40
1
 10
111.299150
 20
110.146810
 30
0.0
 10
111.633540
 20
110.403660
 30
0.0
 10
111.958490
 20
110.682040
 30
0.0
 10
112.276350
 20
110.977250
 30
0.0
  0
LINE
  5
471
100
AcDbEntity
  8
Ebene_1
 62
7
100
AcDbLine
 10
112.276350
 20
110.977250
 30
0.0
 11
111.265560
 21
118.979340
 31
0.0
  0
LINE
  5
472
100
AcDbEntity
  8
Ebene_1
 62
7
100
AcDbLine
 10
111.265560
 20
118.979340
 30
0.0
 11
111.265560
 21
118.979340
 31
0.0
  0
LINE
  5
473
100
AcDbEntity
  8
Ebene_1
 62
7
100
AcDbLine
 10
101.257390
 20
116.629100
 30
0.0
 11
100.337540
 21
107.875110
 31
0.0
  0
SPLINE
  5
474
100
AcDbEntity
  8
Ebene_1
 62
7
100
AcDbSpline
 70
8
 71
3
 72
8
 73
4
 74
0
 40
0
 40
0
 40
0
 40
0
 40
1
 40
1
 40
1
 40
1
 10
100.337540
 20
107.875110
 30
0.0
 10
100.702660
 20
107.800310
 30
0.0
 10
101.073890
 20
107.743480
 30
0.0
 10
101.448590
 20
107.695790
 30
0.0
  0
LINE
  5
475
100
AcDbEntity
  8
Ebene_1
 62
7
100
AcDbLine
 10
101.448590
 20
107.695790
 30
0.0
 11
102.151390
 21
116.065820
 31
0.0
  0
SPLINE
  5
476
100
AcDbEntity
  8
Ebene_1
 62
7
100
AcDbSpline
 70
8
 71
3
 72
8
 73
4
 74
0
 40
0
 40
0
 40
0
 40
0
 40
1
 40
1
 40
1
 40
1
 10
102.151390
 20
116.065820
 30
0.0
 10
101.842030
 20
116.226970
 30
0.0
 10
101.544210
 20
116.414850
 30
0.0
 10
101.257390
 20
116.629100
 30
0.0
  0
LINE
  5
477
100
AcDbEntity
  8
Ebene_1
 62
7
100
AcDbLine
 10
101.257390
 20
116.629100
 30
0.0
 11
101.257390
 21
116.629100
 31
0.0
  0
SPLINE
  5
478
100
AcDbEntity
  8
Ebene_1
 62
7
100
AcDbSpline
 70
8
 71
3
 72
8
 73
4
 74
0
 40
0
 40
0
 40
0
 40
0
 40
1
 40
1
 40
1
 40
1
 10
106.893730
 20
115.517540
 30
0.0
 10
106.584050
 20
115.443130
 30
0.0
 10
106.265620
 20
115.390520
 30
0.0
 10
105.937720
 20
115.360960
 30
0.0
  0
LINE
  5
479
100
AcDbEntity
  8
Ebene_1
 62
7
100
AcDbLine
 10
105.937720
 20
115.360960
 30
0.0
 11
105.937720
 21
107.781060
 31
0.0
  0
SPLINE
  5
47a
100
AcDbEntity
  8
Ebene_1
 62
7
100
AcDbSpline
 70
8
 71
3
 72
8
 73
4
 74
0
 40
0
 40
0
 40
0
 40
0
 40
1
 40
1
 40
1
 40
1
 10
105.937720
 20
107.781060
 30
0.0
 10
106.315100
 20
107.848240
 30
0.0
 10
106.686710
 20
107.927890
 30
0.0
 10
107.050310
 20
108.027040
 30
0.0
  0
LINE
  5
47b
100
AcDbEntity
  8
Ebene_1
 62
7
100
AcDbLine
 10
107.050310
 20
108.027040
 30
0.0
 11
106.893730
 21
115.517540
 31
0.0
  0
LINE
  5
47c
100
AcDbEntity
  8
Ebene_1
 62
7
100
AcDbLine
 10
106.893730
 20
115.517540
 30
0.0
 11
106.893730
 21
115.517540
 31
0.0
  0
SPLINE
  5
47d
100
AcDbEntity
  8
Ebene_1
 62
7
100
AcDbSpline
 70
8
 71
3
 72
8
 73
4
 74
0
 40
0
 40
0
 40
0
 40
0
 40
1
 40
1
 40
1
 40
1
 10
112.836520
 20
106.542890
 30
0.0
 10
112.616140
 20
105.198970
 30
0.0
 10
112.354370
 20
104.017160
 30
0.0
 10
112.050010
 20
103.001510
 30
0.0
  0
LINE
  5
47e
100
AcDbEntity
  8
Ebene_1
 62
7
100
AcDbLine
 10
112.050010
 20
103.001510
 30
0.0
 11
113.400310
 21
90.154230
 31
0.0
  0
SPLINE
  5
47f
100
AcDbEntity
  8
Ebene_1
 62
7
100
AcDbSpline
 70
8
 71
3
 72
8
 73
4
 74
0
 40
0
 40
0
 40
0
 40
0
 40
1
 40
1
 40
1
 40
1
 10
113.400310
 20
90.154230
 30
0.0
 10
113.877990
 20
90.415950
 30
0.0
 10
114.344330
 20
90.700580
 30
0.0
 10
114.798680
 20
91.008440
 30
0.0
  0
LINE
  5
480
100
AcDbEntity
  8
Ebene_1
 62
7
100
AcDbLine
 10
114.798680
 20
91.008440
 30
0.0
 11
112.836520
 21
106.542890
 31
0.0
  0
LINE
  5
481
100
AcDbEntity
  8
Ebene_1
 62
7
100
AcDbLine
 10
112.836520
 20
106.542890
 30
0.0
 11
112.836520
 21
106.542890
 31
0.0
  0
LINE
  5
482
100
AcDbEntity
  8
Ebene_1
 62
7
100
AcDbLine
 10
94.722900
 20
102.366400
 30
0.0
 11
93.410836
 21
102.221710
 31
0.0
  0
LINE
  5
483
100
AcDbEntity
  8
Ebene_1
 62
7
100
AcDbLine
 10
93.410836
 20
102.221710
 30
0.0
 11
91.591309
 21
93.659440
 31
0.0
  0
SPLINE
  5
484
100
AcDbEntity
  8
Ebene_1
 62
7
100
AcDbSpline
 70
8
 71
3
 72
8
 73
4
 74
0
 40
0
 40
0
 40
0
 40
0
 40
1
 40
1
 40
1
 40
1
 10
91.591309
 20
93.659440
 30
0.0
 10
91.960054
 20
93.140400
 30
0.0
 10
92.356877
 20
92.654660
 30
0.0
 10
92.784001
 20
92.204750
 30
0.0
  0
LINE
  5
485
100
AcDbEntity
  8
Ebene_1
 62
7
100
AcDbLine
 10
92.784001
 20
92.204750
 30
0.0
 11
94.722900
 21
102.366400
 31
0.0
  0
LINE
  5
486
100
AcDbEntity
  8
Ebene_1
 62
7
100
AcDbLine
 10
94.722900
 20
102.366400
 30
0.0
 11
94.722900
 21
102.366400
 31
0.0
  0
LINE
  5
487
100
AcDbEntity
  8
Ebene_1
 62
7
100
AcDbLine
 10
99.510722
 20
100.007890
 30
0.0
 11
98.329399
 21
88.769820
 31
0.0
  0
SPLINE
  5
488
100
AcDbEntity
  8
Ebene_1
 62
7
100
AcDbSpline
 70
8
 71
3
 72
8
 73
4
 74
0
 40
0
 40
0
 40
0
 40
0
 40
1
 40
1
 40
1
 40
1
 10
98.329399
 20
88.769820
 30
0.0
 10
98.811830
 20
88.613510
 30
0.0
 10
99.311487
 20
88.481150
 30
0.0
 10
99.825431
 20
88.368290
 30
0.0
  0
LINE
  5
489
100
AcDbEntity
  8
Ebene_1
 62
7
100
AcDbLine
 10
99.825431
 20
88.368290
 30
0.0
 11
100.657420
 21
98.276210
 31
0.0
  0
SPLINE
  5
48a
100
AcDbEntity
  8
Ebene_1
 62
7
100
AcDbSpline
 70
8
 71
3
 72
8
 73
4
 74
0
 40
0
 40
0
 40
0
 40
0
 40
1
 40
1
 40
1
 40
1
 10
100.657420
 20
98.276210
 30
0.0
 10
100.193680
 20
98.743950
 30
0.0
 10
99.811526
 20
99.321200
 30
0.0
 10
99.510722
 20
100.007890
 30
0.0
  0
LINE
  5
48b
100
AcDbEntity
  8
Ebene_1
 62
7
100
AcDbLine
 10
99.510722
 20
100.007890
 30
0.0
 11
99.510722
 21
100.007890
 31
0.0
  0
SPLINE
  5
48c
100
AcDbEntity
  8
Ebene_1
 62
7
100
AcDbSpline
 70
8
 71
3
 72
8
 73
4
 74
0
 40
0
 40
0
 40
0
 40
0
 40
1
 40
1
 40
1
 40
1
 10
107.279240
 20
97.102640
 30
0.0
 10
106.848490
 20
96.933740
 30
0.0
 10
106.400710
 20
96.817330
 30
0.0
 10
105.937720
 20
96.747620
 30
0.0
  0
LINE
  5
48d
100
AcDbEntity
  8
Ebene_1
 62
7
100
AcDbLine
 10
105.937720
 20
96.747620
 30
0.0
 11
105.937720
 21
87.995700
 31
0.0
  0
SPLINE
  5
48e
100
AcDbEntity
  8
Ebene_1
 62
7
100
AcDbSpline
 70
8
 71
3
 72
8
 73
4
 74
0
 40
0
 40
0
 40
0
 40
0
 40
1
 40
1
 40
1
 40
1
 10
105.937720
 20
87.995700
 30
0.0
 10
106.456240
 20
88.036390
 30
0.0
 10
106.966010
 20
88.094670
 30
0.0
 10
107.466310
 20
88.171400
 30
0.0
  0
LINE
  5
48f
100
AcDbEntity
  8
Ebene_1
 62
7
100
AcDbLine
 10
107.466310
 20
88.171400
 30
0.0
 11
107.279240
 21
97.102640
 31
0.0
  0
LINE
  5
490
100
AcDbEntity
  8
Ebene_1
 62
7
100
AcDbLine
 10
107.279240
 20
97.102640
 30
0.0
 11
107.279240
 21
97.102640
 31
0.0
  0
SPLINE
  5
491
100
AcDbEntity
  8
Ebene_1
 62
7
100
AcDbSpline
 70
8
 71
3
 72
8
 73
4
 74
0
 40
0
 40
0
 40
0
 40
0
 40
1
 40
1
 40
1
 40
1
 10
105.937680
 20
235.585139
 30
0.0
 10
75.825171
 20
235.585139
 30
0.0
 10
48.677734
 20
217.445801
 30
0.0
 10
37.154175
 20
189.625471
 30
0.0
  0
SPLINE
  5
492
100
AcDbEntity
  8
Ebene_1
 62
7
100
AcDbSpline
 70
8
 71
3
 72
8
 73
4
 74
0
 40
0
 40
0
 40
0
 40
0
 40
1
 40
1
 40
1
 40
1
 10
37.154175
 20
189.625471
 30
0.0
 10
25.630617
 20
161.805140
 30
0.0
 10
32.000305
 20
129.782554
 30
0.0
 10
53.293065
 20
108.489795
 30
0.0
  0
SPLINE
  5
493
100
AcDbEntity
  8
Ebene_1
 62
7
100
AcDbSpline
 70
8
 71
3
 72
8
 73
4
 74
0
 40
0
 40
0
 40
0
 40
0
 40
1
 40
1
 40
1
 40
1
 10
53.293065
 20
108.489795
 30
0.0
 10
74.585824
 20
87.197035
 30
0.0
 10
106.608410
 20
80.827347
 30
0.0
 10
134.428741
 20
92.350905
 30
0.0
  0
SPLINE
  5
494
100
AcDbEntity
  8
Ebene_1
 62
7
100
AcDbSpline
 70
8
 71
3
 72
8
 73
4
 74
0
 40
0
 40
0
 40
0
 40
0
 40
1
 40
1
 40
1
 40
1
 10
134.428741
 20
92.350905
 30
0.0
 10
162.249071
 20
103.874464
 30
0.0
 10
180.388409
 20
131.021901
 30
0.0
 10
180.388409
 20
161.134410
 30
0.0
  0
SPLINE
  5
495
100
AcDbEntity
  8
Ebene_1
 62
7
100
AcDbSpline
 70
8
 71
3
 72
8
 73
4
 74
0
 40
0
 40
0
 40
0
 40
0
 40
1
 40
1
 40
1
 40
1
 10
180.388409
 20
161.134410
 30
0.0
 10
180.388409
 20
180.879971
 30
0.0
 10
172.544515
 20
199.816805
 30
0.0
 10
158.582295
 20
213.779025
 30
0.0
  0
SPLINE
  5
496
100
AcDbEntity
  8
Ebene_1
 62
7
100
AcDbSpline
 70
8
 71
3
 72
8
 73
4
 74
0
 40
0
 40
0
 40
0
 40
0
 40
1
 40
1
 40
1
 40
1
 10
158.582295
 20
213.779025
 30
0.0
 10
144.620075
 20
227.741245
 30
0.0
 10
125.683241
 20
235.585139
 30
0.0
 10
105.937680
 20
235.585139
 30
0.0
  0
LINE
  5
497
100
AcDbEntity
  8
Ebene_1
 62
7
100
AcDbLine
 10
105.937680
 20
235.585139
 30
0.0
 11
105.937680
 21
235.585139
 31
0.0
  0
ENDSEC
  0
SECTION
  2
OBJECTS
  0
DICTIONARY
  5
C
330
0
100
AcDbDictionary
  3
ACAD_GROUP
350
D
  3
ACAD_MLINESTYLE
350
17
  0
DICTIONARY
  5
D
330
C
100
AcDbDictionary
  0
DICTIONARY
  5
1A
330
C
100
AcDbDictionary
  0
DICTIONARY
  5
17
330
C
100
AcDbDictionary
  3
STANDARD
350
18
  0
DICTIONARY
  5
19
330
C
100
AcDbDictionary
  0
ENDSEC
  0
EOF
