<?xml version="1.0" encoding="UTF-8" standalone="no"?>
<!-- Created with Inkscape (http://www.inkscape.org/) -->

<svg
   width="210mm"
   height="297mm"
   viewBox="0 0 210 297"
   version="1.1"
   id="svg2083"
   inkscape:version="1.2.1 (9c6d41e410, 2022-07-14)"
   sodipodi:docname="circular scanimation 0-5 - two sectors_export.svg"
   xmlns:inkscape="http://www.inkscape.org/namespaces/inkscape"
   xmlns:sodipodi="http://sodipodi.sourceforge.net/DTD/sodipodi-0.dtd"
   xmlns="http://www.w3.org/2000/svg"
   xmlns:svg="http://www.w3.org/2000/svg">
  <sodipodi:namedview
     id="namedview2085"
     pagecolor="#ffffff"
     bordercolor="#000000"
     borderopacity="0.25"
     inkscape:showpageshadow="2"
     inkscape:pageopacity="0.0"
     inkscape:pagecheckerboard="0"
     inkscape:deskcolor="#d1d1d1"
     inkscape:document-units="mm"
     showgrid="false"
     inkscape:zoom="1"
     inkscape:cx="227.5"
     inkscape:cy="561"
     inkscape:window-width="2560"
     inkscape:window-height="1494"
     inkscape:window-x="-11"
     inkscape:window-y="-11"
     inkscape:window-maximized="1"
     inkscape:current-layer="layer1" />
  <defs
     id="defs2080">
    <inkscape:path-effect
       effect="copy_rotate"
       starting_point="107.56143,135.86559"
       origin="105.93768,135.86559"
       id="path-effect1241"
       is_visible="true"
       lpeversion="1.2"
       lpesatellites=""
       method="normal"
       num_copies="30"
       starting_angle="96"
       rotation_angle="6"
       gap="-0.01"
       copies_to_360="false"
       mirror_copies="false"
       split_items="false"
       link_styles="false" />
    <inkscape:path-effect
       effect="copy_rotate"
       starting_point="107.56143,135.86559"
       origin="105.93768,135.86559"
       id="path-effect1229"
       is_visible="true"
       lpeversion="1.2"
       lpesatellites=""
       method="normal"
       num_copies="30"
       starting_angle="96"
       rotation_angle="6"
       gap="-0.01"
       copies_to_360="false"
       mirror_copies="false"
       split_items="false"
       link_styles="false" />
    <inkscape:path-effect
       effect="copy_rotate"
       starting_point="107.56143,135.86559"
       origin="105.93768,135.86559"
       id="path-effect1223"
       is_visible="true"
       lpeversion="1.2"
       lpesatellites=""
       method="normal"
       num_copies="30"
       starting_angle="96"
       rotation_angle="6"
       gap="-0.01"
       copies_to_360="false"
       mirror_copies="false"
       split_items="false"
       link_styles="false" />
    <inkscape:path-effect
       effect="copy_rotate"
       starting_point="107.56143,135.86559"
       origin="105.93768,135.86559"
       id="path-effect1217"
       is_visible="true"
       lpeversion="1.2"
       lpesatellites=""
       method="normal"
       num_copies="30"
       starting_angle="96"
       rotation_angle="6"
       gap="-0.01"
       copies_to_360="false"
       mirror_copies="false"
       split_items="false"
       link_styles="false" />
    <inkscape:path-effect
       effect="copy_rotate"
       starting_point="107.56143,135.86559"
       origin="105.93768,135.86559"
       id="path-effect1211"
       is_visible="true"
       lpeversion="1.2"
       lpesatellites=""
       method="normal"
       num_copies="30"
       starting_angle="96"
       rotation_angle="6"
       gap="-0.01"
       copies_to_360="false"
       mirror_copies="false"
       split_items="false"
       link_styles="false" />
    <inkscape:path-effect
       effect="copy_rotate"
       starting_point="107.56143,135.86559"
       origin="105.93768,135.86559"
       id="path-effect1205"
       is_visible="true"
       lpeversion="1.2"
       lpesatellites=""
       method="normal"
       num_copies="30"
       starting_angle="96"
       rotation_angle="6"
       gap="-0.01"
       copies_to_360="false"
       mirror_copies="false"
       split_items="false"
       link_styles="false" />
    <inkscape:path-effect
       effect="copy_rotate"
       starting_point="107.56143,135.86559"
       origin="105.93768,135.86559"
       id="path-effect1199"
       is_visible="false"
       lpeversion="1.2"
       lpesatellites=""
       method="normal"
       num_copies="30"
       starting_angle="0"
       rotation_angle="6"
       gap="-0.01"
       copies_to_360="false"
       mirror_copies="false"
       split_items="false"
       link_styles="false" />
    <inkscape:path-effect
       effect="copy_rotate"
       starting_point="107.56143,135.86559"
       origin="105.93768,135.86559"
       id="path-effect1193"
       is_visible="true"
       lpeversion="1.2"
       lpesatellites=""
       method="normal"
       num_copies="30"
       starting_angle="96"
       rotation_angle="6"
       gap="-0.01"
       copies_to_360="false"
       mirror_copies="false"
       split_items="false"
       link_styles="false" />
    <inkscape:path-effect
       effect="copy_rotate"
       starting_point="109.39309,148.30427"
       origin="105,148.30427"
       id="path-effect717"
       is_visible="true"
       lpeversion="1.2"
       lpesatellites=""
       method="normal"
       num_copies="30"
       starting_angle="-85.2"
       rotation_angle="6"
       gap="-0.01"
       copies_to_360="false"
       mirror_copies="false"
       split_items="false"
       link_styles="false" />
    <inkscape:path-effect
       effect="copy_rotate"
       starting_point="109.39309,148.30427"
       origin="105,148.30427"
       id="path-effect710"
       is_visible="true"
       lpeversion="1.2"
       lpesatellites=""
       method="normal"
       num_copies="30"
       starting_angle="-85.2"
       rotation_angle="6"
       gap="-0.01"
       copies_to_360="false"
       mirror_copies="false"
       split_items="false"
       link_styles="false" />
    <inkscape:path-effect
       effect="copy_rotate"
       starting_point="109.39309,148.30427"
       origin="105,148.30427"
       id="path-effect703"
       is_visible="true"
       lpeversion="1.2"
       lpesatellites=""
       method="normal"
       num_copies="30"
       starting_angle="-85.2"
       rotation_angle="6"
       gap="-0.01"
       copies_to_360="false"
       mirror_copies="false"
       split_items="false"
       link_styles="false" />
    <inkscape:path-effect
       effect="copy_rotate"
       starting_point="109.39309,148.30427"
       origin="105,148.30427"
       id="path-effect696"
       is_visible="true"
       lpeversion="1.2"
       lpesatellites=""
       method="normal"
       num_copies="30"
       starting_angle="-85.2"
       rotation_angle="6"
       gap="-0.01"
       copies_to_360="false"
       mirror_copies="false"
       split_items="false"
       link_styles="false" />
    <inkscape:path-effect
       effect="copy_rotate"
       starting_point="109.39309,148.30427"
       origin="105,148.30427"
       id="path-effect689"
       is_visible="true"
       lpeversion="1.2"
       lpesatellites=""
       method="normal"
       num_copies="30"
       starting_angle="-85.2"
       rotation_angle="6"
       gap="-0.01"
       copies_to_360="false"
       mirror_copies="false"
       split_items="false"
       link_styles="false" />
    <inkscape:path-effect
       effect="copy_rotate"
       starting_point="109.39309,148.30427"
       origin="105,148.30427"
       id="path-effect615"
       is_visible="true"
       lpeversion="1.2"
       lpesatellites=""
       method="normal"
       num_copies="60"
       starting_angle="-85.2"
       rotation_angle="6"
       gap="-0.01"
       copies_to_360="true"
       mirror_copies="false"
       split_items="false"
       link_styles="false" />
    <inkscape:path-effect
       effect="copy_rotate"
       starting_point="109.39309,148.30427"
       origin="105,148.30427"
       id="path-effect609"
       is_visible="true"
       lpeversion="1.2"
       lpesatellites=""
       method="normal"
       num_copies="60"
       starting_angle="-85.2"
       rotation_angle="6"
       gap="-0.01"
       copies_to_360="true"
       mirror_copies="false"
       split_items="false"
       link_styles="false" />
    <inkscape:path-effect
       effect="copy_rotate"
       starting_point="109.39309,148.30427"
       origin="105,148.30427"
       id="path-effect603"
       is_visible="true"
       lpeversion="1.2"
       lpesatellites=""
       method="normal"
       num_copies="60"
       starting_angle="-85.2"
       rotation_angle="6"
       gap="-0.01"
       copies_to_360="true"
       mirror_copies="false"
       split_items="false"
       link_styles="false" />
    <inkscape:path-effect
       effect="copy_rotate"
       starting_point="109.39309,148.30427"
       origin="105,148.30427"
       id="path-effect597"
       is_visible="true"
       lpeversion="1.2"
       lpesatellites=""
       method="normal"
       num_copies="60"
       starting_angle="-85.2"
       rotation_angle="6"
       gap="-0.01"
       copies_to_360="true"
       mirror_copies="false"
       split_items="false"
       link_styles="false" />
    <inkscape:path-effect
       effect="copy_rotate"
       starting_point="109.39309,148.30427"
       origin="105,148.30427"
       id="path-effect587"
       is_visible="true"
       lpeversion="1.2"
       lpesatellites=""
       method="normal"
       num_copies="60"
       starting_angle="-85.2"
       rotation_angle="12"
       gap="-0.01"
       copies_to_360="true"
       mirror_copies="false"
       split_items="false"
       link_styles="false" />
    <inkscape:path-effect
       effect="copy_rotate"
       starting_point="109.39309,148.30427"
       origin="105,148.30427"
       id="path-effect581"
       is_visible="true"
       lpeversion="1.2"
       lpesatellites=""
       method="normal"
       num_copies="30"
       starting_angle="-85.2"
       rotation_angle="6"
       gap="-0.01"
       copies_to_360="false"
       mirror_copies="false"
       split_items="false"
       link_styles="false" />
    <inkscape:path-effect
       effect="copy_rotate"
       starting_point="109.39309,148.30427"
       origin="105,148.30427"
       id="path-effect575"
       is_visible="true"
       lpeversion="1.2"
       lpesatellites=""
       method="normal"
       num_copies="30"
       starting_angle="-85.2"
       rotation_angle="6"
       gap="-0.01"
       copies_to_360="false"
       mirror_copies="false"
       split_items="false"
       link_styles="false" />
    <inkscape:path-effect
       effect="copy_rotate"
       starting_point="109.39309,148.30427"
       origin="105,148.30427"
       id="path-effect569"
       is_visible="true"
       lpeversion="1.2"
       lpesatellites=""
       method="normal"
       num_copies="30"
       starting_angle="-85.2"
       rotation_angle="6"
       gap="-0.01"
       copies_to_360="false"
       mirror_copies="false"
       split_items="false"
       link_styles="false" />
    <inkscape:path-effect
       effect="copy_rotate"
       starting_point="109.39309,148.30427"
       origin="105,148.30427"
       id="path-effect562"
       is_visible="true"
       lpeversion="1.2"
       lpesatellites=""
       method="normal"
       num_copies="30"
       starting_angle="-85.2"
       rotation_angle="6"
       gap="-0.01"
       copies_to_360="false"
       mirror_copies="false"
       split_items="false"
       link_styles="false" />
    <inkscape:path-effect
       effect="copy_rotate"
       starting_point="109.39309,148.30427"
       origin="105,148.30427"
       id="path-effect1284"
       is_visible="true"
       lpeversion="1.2"
       lpesatellites=""
       method="normal"
       num_copies="30"
       starting_angle="-85.2"
       rotation_angle="6"
       gap="-0.01"
       copies_to_360="false"
       mirror_copies="false"
       split_items="false"
       link_styles="false" />
    <inkscape:path-effect
       effect="copy_rotate"
       starting_point="109.94069,148.30428"
       origin="105,148.30428"
       id="path-effect2022"
       is_visible="true"
       lpeversion="1.2"
       lpesatellites=""
       method="normal"
       num_copies="60"
       starting_angle="0"
       rotation_angle="6"
       gap="-0.01"
       copies_to_360="true"
       mirror_copies="false"
       split_items="false"
       link_styles="false" />
    <inkscape:path-effect
       effect="copy_rotate"
       starting_point="109.94069,148.30428"
       origin="105,148.30428"
       id="path-effect2015"
       is_visible="true"
       lpeversion="1.2"
       lpesatellites=""
       method="normal"
       num_copies="60"
       starting_angle="0"
       rotation_angle="6"
       gap="-0.01"
       copies_to_360="true"
       mirror_copies="false"
       split_items="false"
       link_styles="false" />
    <inkscape:path-effect
       effect="copy_rotate"
       starting_point="109.94069,148.30428"
       origin="105,148.30428"
       id="path-effect2008"
       is_visible="true"
       lpeversion="1.2"
       lpesatellites=""
       method="normal"
       num_copies="60"
       starting_angle="0"
       rotation_angle="6"
       gap="-0.01"
       copies_to_360="true"
       mirror_copies="false"
       split_items="false"
       link_styles="false" />
    <inkscape:path-effect
       effect="copy_rotate"
       starting_point="109.94069,148.30428"
       origin="105,148.30428"
       id="path-effect2001"
       is_visible="true"
       lpeversion="1.2"
       lpesatellites=""
       method="normal"
       num_copies="60"
       starting_angle="0"
       rotation_angle="6"
       gap="-0.01"
       copies_to_360="true"
       mirror_copies="false"
       split_items="false"
       link_styles="false" />
    <inkscape:path-effect
       effect="copy_rotate"
       starting_point="109.94069,148.30428"
       origin="105,148.30428"
       id="path-effect1994"
       is_visible="true"
       lpeversion="1.2"
       lpesatellites=""
       method="normal"
       num_copies="60"
       starting_angle="0"
       rotation_angle="6"
       gap="-0.01"
       copies_to_360="true"
       mirror_copies="false"
       split_items="false"
       link_styles="false" />
    <inkscape:path-effect
       effect="copy_rotate"
       starting_point="109.94069,148.30428"
       origin="105,148.30428"
       id="path-effect1987"
       is_visible="true"
       lpeversion="1.2"
       lpesatellites=""
       method="normal"
       num_copies="60"
       starting_angle="0"
       rotation_angle="6"
       gap="-0.01"
       copies_to_360="true"
       mirror_copies="false"
       split_items="false"
       link_styles="false" />
    <inkscape:path-effect
       effect="copy_rotate"
       starting_point="109.94069,148.30428"
       origin="105,148.30428"
       id="path-effect1980"
       is_visible="true"
       lpeversion="1.2"
       lpesatellites=""
       method="normal"
       num_copies="60"
       starting_angle="0"
       rotation_angle="6"
       gap="-0.01"
       copies_to_360="true"
       mirror_copies="false"
       split_items="false"
       link_styles="false" />
    <inkscape:path-effect
       effect="copy_rotate"
       starting_point="109.94069,148.30428"
       origin="105,148.30428"
       id="path-effect1973"
       is_visible="true"
       lpeversion="1.2"
       lpesatellites=""
       method="normal"
       num_copies="60"
       starting_angle="0"
       rotation_angle="6"
       gap="-0.01"
       copies_to_360="true"
       mirror_copies="false"
       split_items="false"
       link_styles="false" />
    <inkscape:path-effect
       effect="copy_rotate"
       starting_point="109.94069,148.30428"
       origin="105,148.30428"
       id="path-effect1925"
       is_visible="true"
       lpeversion="1.2"
       lpesatellites=""
       method="normal"
       num_copies="60"
       starting_angle="0"
       rotation_angle="6"
       gap="-0.01"
       copies_to_360="true"
       mirror_copies="false"
       split_items="false"
       link_styles="false" />
    <inkscape:path-effect
       effect="copy_rotate"
       starting_point="109.94069,148.30428"
       origin="105,148.30428"
       id="path-effect1918"
       is_visible="true"
       lpeversion="1.2"
       lpesatellites=""
       method="normal"
       num_copies="60"
       starting_angle="0"
       rotation_angle="6"
       gap="-0.01"
       copies_to_360="true"
       mirror_copies="false"
       split_items="false"
       link_styles="false" />
    <inkscape:path-effect
       effect="copy_rotate"
       starting_point="109.94069,148.30428"
       origin="105,148.30428"
       id="path-effect1822"
       is_visible="true"
       lpeversion="1.2"
       lpesatellites=""
       method="normal"
       num_copies="60"
       starting_angle="0"
       rotation_angle="6"
       gap="-0.01"
       copies_to_360="true"
       mirror_copies="false"
       split_items="false"
       link_styles="false" />
    <inkscape:path-effect
       effect="copy_rotate"
       starting_point="109.94069,148.30428"
       origin="105,148.30428"
       id="path-effect1546"
       is_visible="true"
       lpeversion="1.2"
       lpesatellites=""
       method="normal"
       num_copies="60"
       starting_angle="0"
       rotation_angle="60"
       gap="-0.01"
       copies_to_360="true"
       mirror_copies="false"
       split_items="false"
       link_styles="false" />
    <inkscape:path-effect
       effect="copy_rotate"
       starting_point="107.47309,148.30428"
       origin="105,148.30428"
       id="path-effect1542"
       is_visible="true"
       lpeversion="1.2"
       lpesatellites=""
       method="normal"
       num_copies="120"
       starting_angle="0"
       rotation_angle="360"
       gap="-0.01"
       copies_to_360="true"
       mirror_copies="false"
       split_items="false"
       link_styles="false" />
    <inkscape:path-effect
       effect="copy_rotate"
       starting_point="108.49799,148.30428"
       origin="105,148.30428"
       id="path-effect998"
       is_visible="true"
       lpeversion="1.2"
       lpesatellites=""
       method="normal"
       num_copies="60"
       starting_angle="0"
       rotation_angle="60"
       gap="-0.01"
       copies_to_360="true"
       mirror_copies="false"
       split_items="false"
       link_styles="false" />
    <inkscape:path-effect
       effect="copy_rotate"
       starting_point="114.6624,121.32478"
       origin="111.67686,121.32478"
       id="path-effect996"
       is_visible="true"
       lpeversion="1.2"
       lpesatellites=""
       method="normal"
       num_copies="6"
       starting_angle="0"
       rotation_angle="60"
       gap="-0.01"
       copies_to_360="true"
       mirror_copies="false"
       split_items="false"
       link_styles="false" />
    <inkscape:path-effect
       effect="copy_rotate"
       starting_point="106.64906,148.30428"
       origin="105,148.30428"
       id="path-effect993"
       is_visible="false"
       lpeversion="1.2"
       lpesatellites=""
       method="normal"
       num_copies="60"
       starting_angle="0"
       rotation_angle="6"
       gap="-0.01"
       copies_to_360="true"
       mirror_copies="false"
       split_items="false"
       link_styles="false" />
    <inkscape:path-effect
       effect="bend_path"
       id="path-effect1196"
       is_visible="true"
       lpeversion="1"
       bendpath="#path989"
       prop_scale="1.4"
       scale_y_rel="false"
       vertical="false"
       hide_knot="false" />
    <inkscape:path-effect
       effect="bend_path"
       id="path-effect1054"
       is_visible="true"
       lpeversion="1"
       bendpath="M0,0 L1,0"
       prop_scale="1.4"
       scale_y_rel="false"
       vertical="false"
       hide_knot="false" />
    <inkscape:path-effect
       effect="copy_rotate"
       starting_point="107.70906,148.30428"
       origin="105,148.30428"
       id="path-effect4657"
       is_visible="true"
       lpeversion="1.2"
       lpesatellites=""
       method="normal"
       num_copies="59"
       starting_angle="0"
       rotation_angle="6"
       gap="-0.01"
       copies_to_360="true"
       mirror_copies="false"
       split_items="false"
       link_styles="false" />
    <inkscape:path-effect
       effect="copy_rotate"
       starting_point="107.70906,148.30428"
       origin="105,148.30428"
       id="path-effect4651"
       is_visible="false"
       lpeversion="1.2"
       lpesatellites=""
       method="normal"
       num_copies="60"
       starting_angle="0"
       rotation_angle="60"
       gap="-0.01"
       copies_to_360="true"
       mirror_copies="false"
       split_items="false"
       link_styles="false" />
    <clipPath
       clipPathUnits="userSpaceOnUse"
       id="clipPath1221">
      <path
         style="display:inline;fill:#000000;fill-opacity:1;stroke:#000000;stroke-width:0.1"
         d="M 105,148.30427 110.41811,43.444159 105,43.304274 M 105,148.30427 99.241468,43.462303 93.839183,43.89912 M 105,148.30427 88.130072,44.668348 82.804823,45.676918 M 105,148.30427 77.209819,47.04863 72.021943,48.617525 M 105,148.30427 66.60444,50.576178 61.612718,52.687623 m 43.387272,95.616647 -48.565892,-93.093244 -4.73901,2.63007 M 104.99999,148.30427 46.814027,60.900657 42.381424,64.019553 M 104.99999,148.30427 37.853226,67.580605 33.777253,71.15299 m 71.222737,77.15128 -75.346765,-73.129084 -3.67316,3.985395 M 104.99999,148.30427 22.306933,83.598348 19.078204,87.951598 M 104.99999,148.30428 15.897587,92.754654 13.149871,97.426436 M 104.99999,148.30428 10.497807,102.54036 8.2622368,107.47774 M 104.99999,148.30428 6.1687739,112.84459 4.4706802,117.99162 M 104.99999,148.30428 2.9595385,123.55059 1.818161,128.84896 M 104.99999,148.30428 0.90646222,134.53706 0.33473328,139.92674 M 104.99999,148.30428 0.03280735,145.67952 l 0.0043975,5.41991 M 104.99999,148.30428 0.3484727,156.85172 0.9289468,162.24046 M 104.99999,148.30428 1.8498817,167.92707 2.9998554,173.22358 M 104.99999,148.30428 4.5200227,178.78009 l 1.7064437,5.14427 m 98.7735236,-35.62008 -96.671348,40.98353 2.243579,4.93374 m 94.427769,-45.91726 -91.767404,51.02687 2.755294,4.66732 m 89.01211,-55.69419 -85.823698,60.49207 3.23579,4.34801 m 82.587908,-64.84008 -78.907575,69.27187 3.679623,3.97943 m 75.227952,-73.2513 -71.097398,77.2668 4.081765,3.56576 m 67.015633,-80.83256 -62.481658,84.38626 4.437658,3.1117 M 105,148.30429 l -53.157987,90.54959 4.743272,2.62237 M 105,148.30429 l -43.232004,95.68695 4.995141,2.10334 M 105,148.30429 l -32.816185,99.74015 5.190414,1.56047 M 105,148.30429 82.971454,250.96754 l 5.326878,0.99992 M 105,148.30429 94.008685,252.72742 l 5.402986,0.42805 M 105,148.30429 l 0.17045,104.99986 5.41788,-0.14868 M 105,148.30429 l 11.33029,104.38689 5.37138,-0.72372 M 105,148.30429 l 22.36175,102.59118 5.26402,-1.29056 M 105,148.30429 l 33.13984,99.63308 5.09702,-1.84279 M 105,148.30429 l 43.54244,95.54609 4.87228,-2.37413 m -48.41471,-93.17196 53.45169,90.37652 4.59231,-2.87856 m -58.044,-87.49796 62.75531,84.18295 4.26032,-3.35039 m -67.01563,-80.83256 71.34789,77.03556 3.88006,-3.78426 m -75.22795,-73.2513 79.13207,69.01532 3.45584,-4.17524 m -82.58791,-64.84008 86.01965,60.21311 2.99246,-4.51892 m -89.01211,-55.6942 91.93259,50.72867 2.49518,-4.8114 m -94.42777,-45.91727 96.8039,40.66945 1.96962,-5.04937 m -98.77352,-35.62008 100.57838,30.14942 1.42175,-5.23012 m -102.00013,-24.9193 103.21327,19.28779 0.85777,-5.35161 m -104.07104,-13.93618 104.67872,8.20762 0.28407,-5.41247 m -104.96279,-2.79515 104.95811,-2.96554 -0.29285,-5.412 m -104.66526,8.37754 104.04828,-14.10511 -0.86645,-5.35021 m -103.18183,19.45532 101.95955,-25.08485 -1.43024,-5.22781 m -100.52931,30.31266 98.71557,-35.78038 -1.97782,-5.04616 m -96.73775,40.82654 94.3531,-46.0705 -2.50298,-4.807344 m -91.85012,50.877834 88.92158,-55.838613 -2.99979,-4.514059 m -85.92179,60.352672 82.48254,-64.974062 -3.46261,-4.169627 m -79.01993,69.143689 75.10894,-73.373328 -3.8862,-3.777952 m -71.22274,77.15128 66.88432,-80.941246 -4.26575,-3.343471 m -62.61857,84.284717 57.90188,-87.592066 -4.59698,-2.871108 M 105,148.30427 153.2634,55.053837 148.38728,52.687623 M 105,148.30427 l 38.07806,-97.852236 -5.1,-1.834509 M 105,148.30427 132.46129,46.958937 127.19518,45.676918 M 105,148.30427 121.53336,44.614122 116.16082,43.89912"
         id="path1223"
         transform="rotate(-32.629983,104.99775,148.30491)"
         inkscape:label="base layer"
         inkscape:original-d="M 105,148.30427 110.41811,43.444159 105,43.304274"
         inkscape:path-effect="#path-effect4657"
         class="UnoptimicedTransforms" />
    </clipPath>
  </defs>
  <g
     inkscape:label="Ebene 1"
     inkscape:groupmode="layer"
     id="layer1">
    <g
       id="g3654"
       inkscape:label="base layer">
      <g
         id="g1037"
         inkscape:label="numbers"
         transform="translate(0,0.52916667)"
         style="display:inline">
        <path
           id="text399"
           style="font-weight:bold;font-size:77.4091px;font-family:Arial;-inkscape-font-specification:'Arial, Bold';fill:#000000;fill-opacity:1;stroke:none;stroke-width:0.155;stroke-dasharray:none"
           inkscape:label="5"
           d="m 94.996785,150.96184 -2.225703,3.17811 -0.187586,0.99477 2.814815,-4.17288 z m 2.279448,0 -5.921602,10.68256 -0.327112,1.73374 6.602181,-12.4163 z m 2.028817,0 -10.685136,25.17211 -0.691948,3.66748 0.04238,0.006 11.654069,-28.84579 z m 1.8557,0 -9.004101,29.45144 0.821655,0.11885 8.479066,-29.57029 z m 1.73995,0 -5.719035,29.42095 c 0.317602,-0.31624 0.640429,-0.61033 0.968416,-0.88212 l 1.62109,-9.1922 c -0.0041,0.002 -0.0083,0.004 -0.0124,0.006 l 1.662949,-9.41183 h 0.008 l 1.75286,-9.94048 z m 1.67018,0 -0.86972,9.94048 h 0.44856 l 0.69556,-9.94048 z m 1.63969,0 0.17312,9.94048 h 0.447 l -0.34727,-9.94048 z m 1.6459,0 1.22059,9.94048 h 0.45372 l -1.39681,-9.94048 z m 1.68878,0 2.29495,9.94048 h 0.47181 l -2.4784,-9.94048 z m 1.7725,0 3.42305,9.94048 h 0.50229 l -3.61838,-9.94048 z m 1.90635,0 4.63537,9.94048 h 0.54726 l -4.84829,-9.94048 z m 2.10219,0 5.97277,9.94048 h 0.15503 V 160.168 l -5.75263,-9.20616 z m 2.3859,0 3.7419,4.96559 v -0.73122 l -3.30833,-4.23437 z m 2.79622,0 0.94568,1.0139 v -0.57154 l -0.42737,-0.44236 z m -13.49272,17.57568 c -0.16628,0 -0.33234,0.003 -0.49816,0.009 l 0.15089,8.65735 c 0.25229,0.0547 0.49859,0.12039 0.73846,0.19792 l -0.30954,-8.86199 c -0.0274,-1.1e-4 -0.0542,-0.002 -0.0816,-0.002 z m 3.03031,0.25838 1.45986,11.88713 c 0.98713,1.62569 1.48208,3.80062 1.48208,6.52673 0,1.22899 -0.0903,2.35103 -0.26666,3.37189 l 1.67794,13.66635 c 0.38406,-0.2184 0.75811,-0.454 1.12448,-0.70332 l -4.86689,-34.63148 c -0.20201,-0.043 -0.40567,-0.0818 -0.61081,-0.1173 z m -6.45697,0.13074 c -0.20144,0.046 -0.40233,0.0957 -0.60307,0.14986 l -0.72192,8.24808 c 0.24767,-0.065 0.49696,-0.12245 0.74931,-0.16743 z m 10.35285,1.079 6.56188,28.42308 c 0.29563,-0.44038 0.57278,-0.88737 0.82992,-1.34204 l -6.66161,-26.71878 c -0.24061,-0.12742 -0.48399,-0.24818 -0.73019,-0.36226 z m 5.28495,3.92431 4.67568,13.57953 c 0.003,-0.16275 0.009,-0.32483 0.009,-0.48885 0,-0.93249 -0.0515,-1.83317 -0.14676,-2.7063 l -3.16363,-8.69146 c -0.41768,-0.58944 -0.8773,-1.15276 -1.37408,-1.69292 z m -22.993944,16.44396 -1.013892,0.1049 -2.389001,12.29021 c 0.348981,0.27831 0.708407,0.54145 1.078487,0.7891 z m -6.262667,0.64854 -1.091923,0.11317 -1.290877,4.22248 c 0.198109,0.56442 0.421409,1.11029 0.669726,1.63814 z m 10.612271,5.52163 -0.828889,9.47487 c 0.400519,0.0899 0.809289,0.16767 1.225249,0.23513 l 0.63252,-9.04596 c -0.3534,-0.18947 -0.69627,-0.41105 -1.02888,-0.66404 z m 7.52254,0.84956 c -0.34768,0.16456 -0.70649,0.29871 -1.07745,0.40204 l 0.15141,8.65994 c 0.4187,-0.0405 0.83124,-0.0923 1.23661,-0.15607 z" />
        <path
           id="text957"
           style="font-weight:bold;font-size:77.4091px;font-family:Arial;-inkscape-font-specification:'Arial, Bold';fill:#000000;fill-opacity:1;stroke:none;stroke-width:0.155;stroke-dasharray:none"
           inkscape:label="4"
           d="m 109.82896,150.94272 8.48837,34.04547 v -3.44992 l -8.19795,-30.59555 z m 1.78903,0 6.69934,18.40663 v -1.76268 l -6.38876,-16.64395 z m 1.93115,0 4.76819,9.77564 v -1.08573 l -4.42764,-8.68991 z m 2.14044,0 2.62775,4.20543 v -0.74879 l -2.24483,-3.45664 z m 2.44119,0 0.18656,0.23875 v -0.23875 z m -9.53533,1.17358 -0.24857,0.36328 7.60368,54.10109 h 1.27124 z m -1.65158,2.41742 -0.31936,0.46767 0.47336,13.55163 0.53846,-0.80099 z m -2.1792,3.18999 -0.43718,0.63975 -1.11673,15.96802 0.74104,-1.10123 z m -3.08921,4.52168 -0.65061,0.9524 -3.436998,19.4939 1.111043,-1.65261 z m -4.850352,7.10035 -1.101742,1.61282 -7.017143,24.47189 h 1.129647 z m 11.211202,6.03425 v 10.71459 h -0.32608 l 0.32608,9.33587 v 0.002 l 0.38912,11.14867 h 1.24592 z m -20.209619,7.13807 -2.329057,3.40909 -0.140043,0.34675 v 2.67632 z m 9.160681,3.57652 -1.645895,9.33587 h 1.077971 l 1.478979,-9.33587 z m 5.400708,0 -0.65268,9.33587 h 1.05317 l 0.48886,-9.33587 z m 16.20521,0 2.3275,9.33587 h 1.1188 l -2.50114,-9.33587 z m 5.81876,0 0.78445,2.15491 v -2.15491 z" />
        <path
           id="text1011"
           style="font-weight:bold;font-size:77.4091px;font-family:Arial;-inkscape-font-specification:'Arial, Bold';fill:#000000;fill-opacity:1;stroke:none;stroke-width:0.155;stroke-dasharray:none"
           inkscape:label="3"
           d="m 105.14397,150.47867 -0.45734,8.72763 c 0.14093,0.004 0.28055,0.01 0.41703,0.0202 l 0.30489,-8.74262 c -0.0877,-0.002 -0.17623,-0.004 -0.26458,-0.005 z m -1.33584,0.0119 c -0.0909,0.004 -0.18194,0.008 -0.27233,0.0124 l -1.44281,9.10694 c 0.14926,-0.0556 0.30071,-0.10672 0.45476,-0.1509 z m 2.92747,0.0661 0.48059,9.17722 c 0.15206,0.0669 0.29912,0.14118 0.44287,0.22066 l -0.65526,-9.36946 c -0.0897,-0.009 -0.1778,-0.0205 -0.2682,-0.0284 z m -4.60953,0.0667 c -0.0985,0.0117 -0.19673,0.0236 -0.29456,0.0367 l -3.21479,11.99927 c 0.23348,-0.42166 0.498802,-0.80645 0.796333,-1.15445 z m 6.25594,0.14573 8.32456,52.557 c 0.3626,-0.27739 0.71819,-0.56803 1.06505,-0.87643 l -9.10332,-51.62682 c -0.0953,-0.018 -0.19007,-0.0372 -0.28629,-0.0538 z m -8.12146,0.16537 c -0.11349,0.0247 -0.22701,0.0498 -0.339517,0.0765 l -5.772775,15.03784 0.575676,0.0977 z m 9.92032,0.23822 6.18257,23.07457 c 0.20296,-0.16364 0.39844,-0.33032 0.58859,-0.49868 l -6.44456,-22.47512 c -0.10919,-0.0331 -0.21613,-0.0697 -0.3266,-0.10077 z m -12.162564,0.4005 c -0.146635,0.0523 -0.291891,0.10677 -0.436665,0.16278 l -6.985104,13.70924 0.605648,0.10283 z m 14.292154,0.36483 7.21351,18.79214 c 0.14841,-0.24236 0.28693,-0.48825 0.41548,-0.73794 l -7.2192,-17.86816 c -0.13525,-0.0642 -0.27221,-0.12555 -0.40979,-0.18604 z m -17.453718,1.13223 c -0.258792,0.15753 -0.510344,0.32118 -0.754476,0.49093 l -5.878194,9.05216 c -0.157978,0.56331 -0.300826,1.15665 -0.435115,1.76733 z m 20.418908,0.59325 5.90042,11.57965 c 0.008,-0.18569 0.0134,-0.37203 0.0134,-0.56069 0,-0.23421 -0.007,-0.46671 -0.0191,-0.69763 l -5.19348,-9.76684 c -0.22895,-0.19259 -0.46307,-0.37676 -0.70125,-0.55449 z m -6.87968,16.82946 c -0.0444,0.0412 -0.0871,0.0831 -0.13281,0.12351 -0.14566,0.12624 -0.29956,0.24423 -0.45785,0.3576 l 0.52296,9.97769 c 0.28557,0.13172 0.56284,0.28415 0.83148,0.45785 z m -3.74758,1.76475 c -0.21112,0.0401 -0.4291,0.0728 -0.65112,0.10181 l -0.42478,8.10803 c 0.27138,-0.0375 0.53646,-0.0686 0.7922,-0.0904 z m 12.6907,5.63067 4.95164,18.47897 c 0.24885,-0.56615 0.46698,-1.14472 0.64905,-1.73788 l -4.61832,-16.10599 c -0.31601,-0.22676 -0.64386,-0.4379 -0.98237,-0.6351 z M 97.199235,190.50672 94.988,204.46866 c 0.373142,0.22489 0.754472,0.43599 1.14515,0.63148 l 1.693954,-12.05353 c -0.281477,-0.76607 -0.491366,-1.61237 -0.627869,-2.53989 z m -5.082377,0.26148 -1.066602,0.12971 -2.003495,7.47758 c 0.258601,0.45876 0.538553,0.90399 0.840259,1.33532 z m 18.070732,5.34386 c -0.32416,0.32368 -0.66415,0.60991 -1.01958,0.8599 l 0.50333,9.60406 c 0.41564,-0.0909 0.82389,-0.19668 1.22628,-0.31367 z m -7.52822,1.78387 -0.47078,8.98292 c 0.40895,0.0502 0.82488,0.0891 1.24696,0.1173 l 0.30851,-8.847 c -0.3731,-0.0579 -0.73464,-0.14253 -1.08469,-0.25322 z" />
        <path
           id="text1015"
           style="font-weight:bold;font-size:77.4091px;font-family:Arial;-inkscape-font-specification:'Arial, Bold';fill:#000000;fill-opacity:1;stroke:none;stroke-width:0.155;stroke-dasharray:none"
           inkscape:label="2"
           d="m 105.66538,150.95306 c -0.0907,0.002 -0.18322,0.002 -0.27336,0.005 l -0.30851,8.83925 c 0.14057,-0.0136 0.28317,-0.024 0.42788,-0.0315 z m 1.36426,0.002 0.62374,8.91728 c 0.14899,0.0242 0.2947,0.0529 0.43821,0.0842 l -0.78703,-8.99686 c -0.0905,-0.003 -0.18377,-0.002 -0.27492,-0.005 z m -3.02048,0.0873 c -0.094,0.008 -0.18884,0.0147 -0.28216,0.0238 l -1.33273,9.48314 c 0.15389,-0.0789 0.31255,-0.15085 0.47439,-0.21807 z m 4.69893,0.005 1.74822,9.91412 c 0.19022,0.13233 0.37207,0.27541 0.5457,0.42943 l -2.00505,-10.3172 c -0.0957,-0.009 -0.19232,-0.018 -0.28887,-0.0264 z m -6.4456,0.20774 c -0.10189,0.0163 -0.20488,0.0309 -0.30592,0.0486 l -4.244188,17.02325 0.594796,0.0594 0.330212,-1.42885 c 0.134621,-0.98826 0.337082,-1.86785 0.608749,-2.63808 z m 8.24498,0.0171 8.23515,28.72124 c 0.20645,-0.27259 0.40609,-0.54359 0.59945,-0.81338 l -8.51524,-27.85257 c -0.10582,-0.0192 -0.2124,-0.0376 -0.31936,-0.0553 z m -10.18905,0.38344 c -0.11983,0.0308 -0.23752,0.0648 -0.356046,0.0977 l -5.899382,16.20883 0.619601,0.062 z m 12.23853,0.0636 9.36326,23.17533 c 0.14874,-0.31015 0.28771,-0.61798 0.41703,-0.92397 l -9.39995,-22.14439 c -0.12542,-0.0373 -0.25303,-0.072 -0.38034,-0.10697 z m -14.585669,0.70125 c -0.15598,0.0624 -0.308594,0.12997 -0.461987,0.19637 l -7.296713,14.96033 0.660425,0.0661 z m 17.170529,0.22634 8.59534,16.16594 c 0.0481,-0.38631 0.0845,-0.77579 0.10955,-1.16789 l -8.16952,-14.7376 c -0.17683,-0.0888 -0.35375,-0.17766 -0.53537,-0.26045 z m -20.552752,1.57665 c -0.252539,0.17275 -0.502073,0.35052 -0.74569,0.53692 -0.03025,0.0231 -0.05834,0.0489 -0.08837,0.0724 l -4.994527,7.99279 c -0.164875,0.58555 -0.311002,1.19447 -0.4377,1.82676 z m 25.382952,1.91926 2.59364,3.84576 c -0.63557,-1.38719 -1.49969,-2.66928 -2.59364,-3.84576 z m -7.25021,14.09372 c -0.12188,0.37457 -0.26592,0.74995 -0.4315,1.12603 l 2.32493,13.18627 c 0.26064,-0.25604 0.50438,-0.50003 0.74414,-0.74155 z m -3.26543,5.31595 c -0.20531,0.22759 -0.41998,0.46253 -0.65629,0.71417 l 0.90175,12.89534 c 0.27863,-0.25861 0.57336,-0.5307 0.87437,-0.80822 z m -4.2969,4.36924 c -0.25968,0.25042 -0.53,0.50926 -0.80563,0.77205 l -0.50436,14.44408 c 0.32442,-0.43666 0.67881,-0.8779 1.06763,-1.32447 z m -5.314402,5.03329 c -0.348813,0.33716 -0.688752,0.66977 -1.021126,0.99787 l -2.899048,20.62768 h 1.265039 z m -7.123596,7.62692 c -0.593295,0.73857 -1.121168,1.44141 -1.581815,2.10685 l -2.965194,11.89178 h 1.315165 z m 11.072708,4.1336 -0.34416,9.86503 h 1.24436 l 0.17209,-9.86503 z m 6.43578,0 0.68988,9.86503 h 1.25109 l -0.863,-9.86503 z m 6.53087,0 1.73943,9.86503 h 1.28571 l -1.9172,-9.86503 z m 6.77685,0 0.3545,1.2361 v -1.2361 z" />
        <path
           id="text1019"
           style="font-weight:bold;font-size:77.4091px;font-family:Arial;-inkscape-font-specification:'Arial, Bold';fill:#000000;fill-opacity:1;stroke:none;stroke-width:0.155;stroke-dasharray:none"
           inkscape:label="1"
           d="m 108.97113,150.94272 8.47648,43.60716 v -5.06325 l -8.19278,-38.54391 z m 1.73787,0 6.73861,22.04104 v -2.22312 l -6.4394,-19.81792 z m 1.85312,0 4.88549,11.50938 v -1.26401 l -4.56148,-10.24537 z m 2.02623,0 2.85926,5.15783 v -0.82837 l -2.49959,-4.32946 z m 2.27687,0 0.58239,0.83148 v -0.59583 l -0.17105,-0.23565 z m -9.04699,2.2872 c -0.0877,0.16573 -0.17861,0.33004 -0.27182,0.49351 l 4.62452,52.85724 h 1.2547 z m -1.88051,2.86598 c -0.12041,0.15153 -0.2441,0.30184 -0.37,0.45113 l -0.19741,11.29544 c 0.19082,-0.16006 0.37967,-0.32358 0.56741,-0.48783 z m -2.45515,2.59881 c -0.15147,0.13658 -0.30619,0.27177 -0.46302,0.40617 l -1.41128,11.49646 c 0.2244,-0.14296 0.44831,-0.28685 0.66921,-0.4346 z m -3.0117,2.36109 c -0.18783,0.13282 -0.3761,0.26714 -0.56224,0.39429 l -2.659786,11.52281 c 0.257061,-0.11844 0.512615,-0.23858 0.765845,-0.36225 z m -3.629753,2.2779 c -0.221992,0.11962 -0.44264,0.2335 -0.661975,0.34416 l -3.07268,8.92349 v 2.00298 c 0.02742,-0.009 0.05427,-0.0188 0.08165,-0.0279 z" />
        <path
           id="text1023"
           style="font-weight:bold;font-size:77.4091px;font-family:Arial;-inkscape-font-specification:'Arial, Bold';fill:#000000;fill-opacity:1;stroke:none;stroke-width:0.155;stroke-dasharray:none"
           inkscape:label="0"
           d="m 104.61222,150.48539 c -0.0887,0.003 -0.17918,0.002 -0.26717,0.006 l -0.95963,9.12606 c 0.14463,-0.0548 0.29171,-0.10273 0.4408,-0.14418 z m 1.3255,0 v 8.83512 c 0.14174,0.0168 0.28187,0.0383 0.41961,0.0661 l -0.15503,-8.89558 c -0.0871,-0.004 -0.1768,-0.003 -0.26458,-0.006 z m 1.60404,0.11162 1.03508,9.84798 c 0.0337,0.0273 0.0685,0.0514 0.1018,0.0796 0.13564,0.10851 0.26814,0.23286 0.39739,0.37104 l -1.26039,-10.26604 c -0.091,-0.0114 -0.18216,-0.0224 -0.27388,-0.0326 z m -4.57078,0.003 c -0.0953,0.0106 -0.19032,0.0216 -0.28474,0.0336 l -2.711464,12.75581 c 0.249654,-0.65886 0.529674,-1.22905 0.841814,-1.70739 z m 6.26731,0.2651 10.21282,48.04616 c 0.27979,-0.51057 0.5442,-1.04605 0.79323,-1.60662 l -10.70581,-46.37081 c -0.10004,-0.023 -0.19913,-0.0475 -0.30024,-0.0687 z m -8.05584,0.0253 c -0.10794,0.0234 -0.21523,0.0475 -0.32194,0.0729 l -12.731006,39.18158 c 0.123806,0.72587 0.257041,1.43318 0.408244,2.1053 z m 9.97356,0.50591 11.64115,35.82882 c 0.089,-0.73317 0.16485,-1.48736 0.22841,-2.26187 L 111.51051,151.5215 c -0.11687,-0.0438 -0.23596,-0.084 -0.3545,-0.12506 z m -12.078337,0.10181 c -0.136597,0.0503 -0.271386,0.10358 -0.40566,0.15761 L 87.301648,177.1928 c -0.0083,0.48687 -0.01602,0.97402 -0.01602,1.47433 0,0.20298 0.0045,0.39676 0.0057,0.59738 z m 14.497307,0.99218 9.54774,21.44417 c -0.0433,-0.71038 -0.0949,-1.40681 -0.15813,-2.08411 l -8.89093,-19.06602 c -0.16355,-0.10236 -0.33097,-0.19847 -0.49868,-0.29404 z m -17.411857,0.48008 c -0.232886,0.15381 -0.461259,0.31461 -0.68523,0.48266 l -6.860563,11.88247 c -0.154394,0.6488 -0.295695,1.31867 -0.42323,2.01073 z m 22.279257,4.02456 1.57355,2.72593 c -0.47291,-0.99422 -0.99746,-1.9027 -1.57355,-2.72593 z m -19.616888,11.80238 -6.764961,31.82596 c 0.0586,0.0773 0.116539,0.15583 0.176216,0.231 0.255319,0.31963 0.519202,0.62286 0.787032,0.91777 l 5.469434,-28.13575 c 0.07085,-1.81823 0.179099,-3.44379 0.332279,-4.83898 z m 13.194548,16.07602 c -0.087,1.7704 -0.21384,3.33422 -0.38603,4.6638 l 1.64848,15.68121 c 0.39578,-0.21156 0.77801,-0.44428 1.15084,-0.69246 z m -12.205978,8.72557 -1.277958,12.15636 c 0.392221,0.16709 0.79239,0.31842 1.200961,0.4532 l 0.932245,-10.6562 c -0.30685,-0.5445 -0.59182,-1.19506 -0.855248,-1.95336 z m 7.216618,4.36614 c -0.35111,0.11792 -0.71611,0.19674 -1.09296,0.23978 v 8.83305 c 0.42347,-0.0126 0.84189,-0.0332 1.25005,-0.0703 z" />
      </g>
      <circle
         style="fill:none;stroke:#000000;stroke-width:0.219203"
         id="path3644"
         cx="105.93772"
         cy="135.8656"
         r="73.951035" />
    </g>
    <path
       id="path1237"
       style="display:inline;fill:#000000;fill-opacity:1;stroke:none;stroke-width:0.155;stroke-dasharray:none;stroke-opacity:1"
       inkscape:label="reveal layer"
       d="m 105.93772,55.918551 a 79.947098,79.947098 0 0 0 -79.947058,79.947059 79.947098,79.947098 0 0 0 79.947058,79.94706 79.947098,79.947098 0 0 0 79.94706,-79.94706 79.947098,79.947098 0 0 0 -79.94706,-79.947059 z m 0,5.996016 a 73.951065,73.951065 0 0 1 73.95104,73.951043 h -58.95144 a 14.999861,14.999861 0 0 0 -14.9996,-15.00012 14.999861,14.999861 0 0 0 -15.000118,15.00012 14.999861,14.999861 0 0 0 0.0098,0.26148 l -58.910099,1.02836 a 73.951065,73.951065 0 0 1 -0.05064,-1.28984 73.951065,73.951065 0 0 1 73.951037,-73.951043 z m 14.93656,75.257943 58.71062,5.13663 a 73.951065,73.951065 0 0 1 -0.15141,1.28106 l -58.58815,-6.15776 a 14.999861,14.999861 0 0 0 0.0289,-0.25993 z m -29.844177,0.25993 a 14.999861,14.999861 0 0 0 0.02945,0.25993 l -58.465682,7.17889 a 73.951065,73.951065 0 0 1 -0.151929,-1.28106 z m 29.621967,1.29346 57.82282,11.23962 a 73.951065,73.951065 0 0 1 -0.25166,1.26453 l -57.61974,-12.24732 a 14.999861,14.999861 0 0 0 0.0486,-0.25683 z m -29.380122,0.25683 a 14.999861,14.999861 0 0 0 0.05168,0.25683 l -57.419751,13.25656 a 73.951065,73.951065 0 0 1 -0.251665,-1.26607 z m 29.009082,1.26814 56.33868,17.22427 a 73.951065,73.951065 0 0 1 -0.35037,1.2423 l -56.07203,-18.21852 a 14.999861,14.999861 0 0 0 0.0837,-0.24805 z m -28.602905,0.24805 a 14.999861,14.999861 0 0 0 0.08682,0.24701 L 36.05258,159.92874 a 73.951065,73.951065 0 0 1 -0.446485,-1.2113 z m 28.058235,1.2237 54.25302,23.02908 a 73.951065,73.951065 0 0 1 -0.54054,1.17202 l -53.81738,-23.96133 a 14.999861,14.999861 0 0 0 0.1049,-0.23977 z m -27.492378,0.23977 a 14.999861,14.999861 0 0 0 0.104386,0.23978 l -53.382271,24.89254 a 73.951065,73.951065 0 0 1 -0.540019,-1.17099 z m 26.806628,1.17151 51.51676,28.55691 a 73.951065,73.951065 0 0 1 -0.62994,1.125 l -51.00929,-29.4504 a 14.999861,14.999861 0 0 0 0.12247,-0.23151 z m -26.103312,0.23151 a 14.999861,14.999861 0 0 0 0.139527,0.22169 l -50.518364,30.35474 a 73.951065,73.951065 0 0 1 -0.630452,-1.12603 z m 25.272872,1.10071 48.26217,33.7938 a 73.951065,73.951065 0 0 1 -0.71675,1.0728 l -47.70096,-34.65628 a 14.999861,14.999861 0 0 0 0.15554,-0.21032 z m -24.409359,0.21032 a 14.999861,14.999861 0 0 0 0.15503,0.21032 l -47.05656,35.45985 a 73.951065,73.951065 0 0 1 -0.799434,-1.01337 73.951065,73.951065 0 0 1 0,-5.2e-4 z m 23.439909,1.02319 44.48153,38.66741 a 73.951065,73.951065 0 0 1 -0.8754,0.94723 l -43.77717,-39.4162 a 14.999861,14.999861 0 0 0 0.17104,-0.19844 z m -22.454956,0.19844 a 14.999861,14.999861 0 0 0 0.172599,0.19637 L 51.894507,186.2615 a 73.951065,73.951065 0 0 1 -0.875916,-0.94723 z m 21.370786,0.9369 40.16706,43.07385 a 73.951065,73.951065 0 0 1 -0.94723,0.87592 l -39.4162,-43.77718 a 14.999861,14.999861 0 0 0 0.19637,-0.17259 z m -20.261293,0.17259 a 14.999861,14.999861 0 0 0 0.198438,0.17105 l -38.667408,44.48153 a 73.951065,73.951065 0 0 1 -0.947229,-0.8754 z m 19.053613,0.82993 35.45986,47.05656 a 73.951065,73.951065 0 0 1 -1.01338,0.79943 h -5.2e-4 l -34.65628,-47.70096 a 14.999861,14.999861 0 0 0 0.21032,-0.15503 z m -17.831982,0.15503 a 14.999861,14.999861 0 0 0 0.210323,0.15554 l -33.793803,48.26217 a 73.951065,73.951065 0 0 1 -1.072803,-0.71675 z m 16.532322,0.72398 30.35474,50.51837 a 73.951065,73.951065 0 0 1 -1.12603,0.63045 l -29.4504,-51.00929 a 14.999861,14.999861 0 0 0 0.22169,-0.13953 z m -15.221291,0.13953 a 14.999861,14.999861 0 0 0 0.231511,0.12247 l -28.556914,51.51676 a 73.951065,73.951065 0 0 1 -1.124996,-0.62994 z m 13.836361,0.59893 24.89254,53.38227 a 73.951065,73.951065 0 0 1 -1.17099,0.54002 l -23.96132,-53.8179 a 14.999861,14.999861 0 0 0 0.23977,-0.10439 z m -12.433346,0.10439 a 14.999861,14.999861 0 0 0 0.239776,0.1049 l -23.029082,54.25302 a 73.951065,73.951065 0 0 1 -1.172022,-0.54054 z m 10.977106,0.47904 19.18281,55.71236 a 73.951065,73.951065 0 0 1 -1.2113,0.44648 L 110.57103,150.1252 a 14.999861,14.999861 0 0 0 0.24701,-0.0868 z m -9.51363,0.0868 a 14.999861,14.999861 0 0 0 0.24805,0.0837 L 84.328186,206.5476 a 73.951065,73.951065 0 0 1 -1.242301,-0.35037 z m 8.00726,0.3545 13.25656,57.41975 a 73.951065,73.951065 0 0 1 -1.26607,0.25167 l -12.24732,-57.61974 a 14.999861,14.999861 0 0 0 0.25683,-0.0517 z m -6.49107,0.0517 a 14.999861,14.999861 0 0 0 0.25683,0.0486 l -11.239625,57.82282 a 73.951065,73.951065 0 0 1 -1.264522,-0.25166 z m 4.94388,0.21239 7.17889,58.46568 a 73.951065,73.951065 0 0 1 -1.28106,0.15193 l -6.15776,-58.58815 a 14.999861,14.999861 0 0 0 0.25993,-0.0295 z m -3.39359,0.0295 a 14.999861,14.999861 0 0 0 0.25993,0.0289 l -5.136635,58.71063 A 73.951065,73.951065 0 0 1 98.21261,209.3614 Z m 1.82831,0.0822 1.02836,58.91062 a 73.951065,73.951065 0 0 1 -1.28984,0.0506 v -58.95144 a 14.999861,14.999861 0 0 0 0.26148,-0.01 z" />
  </g>
</svg>
