  0
SECTION
  2
HEADER
  9
$ACADVER
  1
AC1014
  9
$HANDSEED
  5
FFFF
  9
$MEASUREMENT
 70
     1
  0
ENDSEC
  0
SECTION
  2
TABLES
  0
TABLE
  2
VPORT
  5
8
330
0
100
AcDbSymbolTable
 70
     4
  0
VPORT
  5
2E
330
8
100
AcDbSymbolTableRecord
100
AcDbViewportTableRecord
  2
*ACTIVE
 70
     0
 10
0.0
 20
0.0
 11
1.0
 21
1.0
 12
210.0
 22
148.5
 13
0.0
 23
0.0
 14
10.0
 24
10.0
 15
10.0
 25
10.0
 16
0.0
 26
0.0
 36
1.0
 17
0.0
 27
0.0
 37
0.0
 40
341.0
 41
1.24
 42
50.0
 43
0.0
 44
0.0
 50
0.0
 51
0.0
 71
     0
 72
   100
 73
     1
 74
     3
 75
     0
 76
     0
 77
     0
 78
     0
  0
ENDTAB
  0
TABLE
  2
LTYPE
  5
5
330
0
100
AcDbSymbolTable
 70
     1
  0
LTYPE
  5
14
330
5
100
AcDbSymbolTableRecord
100
AcDbLinetypeTableRecord
  2
BYBLOCK
 70
     0
  3

 72
    65
 73
     0
 40
0.0
  0
LTYPE
  5
15
330
5
100
AcDbSymbolTableRecord
100
AcDbLinetypeTableRecord
  2
BYLAYER
 70
     0
  3

 72
    65
 73
     0
 40
0.0
  0
LTYPE
  5
16
330
5
100
AcDbSymbolTableRecord
100
AcDbLinetypeTableRecord
  2
CONTINUOUS
 70
     0
  3
Solid line
 72
    65
 73
     0
 40
0.0
  0
ENDTAB
  0
TABLE
  2
LAYER
  5
2
100
AcDbSymbolTable
 70
2
  0
LAYER
  5
50
100
AcDbSymbolTableRecord
100
AcDbLayerTableRecord
  2
0
 70
0
  6
CONTINUOUS
  0
LAYER
  5
51
100
AcDbSymbolTableRecord
100
AcDbLayerTableRecord
  2
Ebene_1
 70
0
  6
CONTINUOUS
  0
ENDTAB
  0
TABLE
  2
STYLE
  5
3
330
0
100
AcDbSymbolTable
 70
     1
  0
STYLE
  5
11
330
3
100
AcDbSymbolTableRecord
100
AcDbTextStyleTableRecord
  2
STANDARD
 70
     0
 40
0.0
 41
1.0
 50
0.0
 71
     0
 42
2.5
  3
txt
  4

  0
ENDTAB
  0
TABLE
  2
VIEW
  5
6
330
0
100
AcDbSymbolTable
 70
     0
  0
ENDTAB
  0
TABLE
  2
UCS
  5
7
330
0
100
AcDbSymbolTable
 70
     0
  0
ENDTAB
  0
TABLE
  2
APPID
  5
9
330
0
100
AcDbSymbolTable
 70
     2
  0
APPID
  5
12
330
9
100
AcDbSymbolTableRecord
100
AcDbRegAppTableRecord
  2
ACAD
 70
     0
  0
ENDTAB
  0
TABLE
  2
DIMSTYLE
  5
A
330
0
100
AcDbSymbolTable
 70
     1
  0
DIMSTYLE
105
27
330
A
100
AcDbSymbolTableRecord
100
AcDbDimStyleTableRecord
  2
ISO-25
 70
     0
  3

  4

  5

  6

  7

 40
1.0
 41
2.5
 42
0.625
 43
3.75
 44
1.25
 45
0.0
 46
0.0
 47
0.0
 48
0.0
140
2.5
141
2.5
142
0.0
143
0.03937007874016
144
1.0
145
0.0
146
1.0
147
0.625
 71
     0
 72
     0
 73
     0
 74
     0
 75
     0
 76
     0
 77
     1
 78
     8
170
     0
171
     3
172
     1
173
     0
174
     0
175
     0
176
     0
177
     0
178
     0
270
     2
271
     2
272
     2
273
     2
274
     3
340
11
275
     0
280
     0
281
     0
282
     0
283
     0
284
     8
285
     0
286
     0
287
     3
288
     0
  0
ENDTAB
  0
TABLE
  2
BLOCK_RECORD
  5
1
330
0
100
AcDbSymbolTable
 70
     1
  0
BLOCK_RECORD
  5
1F
330
1
100
AcDbSymbolTableRecord
100
AcDbBlockTableRecord
  2
*MODEL_SPACE
  0
BLOCK_RECORD
  5
1B
330
1
100
AcDbSymbolTableRecord
100
AcDbBlockTableRecord
  2
*PAPER_SPACE
  0
ENDTAB
  0
ENDSEC
  0
SECTION
  2
BLOCKS
  0
BLOCK
  5
20
330
1F
100
AcDbEntity
  8
0
100
AcDbBlockBegin
  2
*MODEL_SPACE
 70
     0
 10
0.0
 20
0.0
 30
0.0
  3
*MODEL_SPACE
  1

  0
ENDBLK
  5
21
330
1F
100
AcDbEntity
  8
0
100
AcDbBlockEnd
  0
BLOCK
  5
1C
330
1B
100
AcDbEntity
 67
     1
  8
0
100
AcDbBlockBegin
  2
*PAPER_SPACE
  1

  0
ENDBLK
  5
1D
330
1B
100
AcDbEntity
 67
     1
  8
0
100
AcDbBlockEnd
  0
ENDSEC
  0
SECTION
  2
ENTITIES
  0
SPLINE
  5
100
100
AcDbEntity
  8
Ebene_1
 62
7
100
AcDbSpline
 70
8
 71
3
 72
8
 73
4
 74
0
 40
0
 40
0
 40
0
 40
0
 40
1
 40
1
 40
1
 40
1
 10
105.937720
 20
241.079899
 30
0.0
 10
84.740391
 20
241.080011
 30
0.0
 10
64.411209
 20
232.659490
 30
0.0
 10
49.422385
 20
217.670763
 30
0.0
  0
SPLINE
  5
101
100
AcDbEntity
  8
Ebene_1
 62
7
100
AcDbSpline
 70
8
 71
3
 72
8
 73
4
 74
0
 40
0
 40
0
 40
0
 40
0
 40
1
 40
1
 40
1
 40
1
 10
49.422385
 20
217.670763
 30
0.0
 10
34.433561
 20
202.682036
 30
0.0
 10
26.012908
 20
182.352909
 30
0.0
 10
26.012882
 20
161.155580
 30
0.0
  0
SPLINE
  5
102
100
AcDbEntity
  8
Ebene_1
 62
7
100
AcDbSpline
 70
8
 71
3
 72
8
 73
4
 74
0
 40
0
 40
0
 40
0
 40
0
 40
1
 40
1
 40
1
 40
1
 10
26.012882
 20
161.155580
 30
0.0
 10
26.012770
 20
139.958160
 30
0.0
 10
34.433362
 20
119.628900
 30
0.0
 10
49.422201
 20
104.640060
 30
0.0
  0
SPLINE
  5
103
100
AcDbEntity
  8
Ebene_1
 62
7
100
AcDbSpline
 70
8
 71
3
 72
8
 73
4
 74
0
 40
0
 40
0
 40
0
 40
0
 40
1
 40
1
 40
1
 40
1
 10
49.422201
 20
104.640060
 30
0.0
 10
64.411040
 20
89.651221
 30
0.0
 10
84.740300
 20
81.230628
 30
0.0
 10
105.937720
 20
81.230740
 30
0.0
  0
SPLINE
  5
104
100
AcDbEntity
  8
Ebene_1
 62
7
100
AcDbSpline
 70
8
 71
3
 72
8
 73
4
 74
0
 40
0
 40
0
 40
0
 40
0
 40
1
 40
1
 40
1
 40
1
 10
105.937720
 20
81.230740
 30
0.0
 10
127.135050
 20
81.230765
 30
0.0
 10
147.464177
 20
89.651419
 30
0.0
 10
162.452904
 20
104.640243
 30
0.0
  0
SPLINE
  5
105
100
AcDbEntity
  8
Ebene_1
 62
7
100
AcDbSpline
 70
8
 71
3
 72
8
 73
4
 74
0
 40
0
 40
0
 40
0
 40
0
 40
1
 40
1
 40
1
 40
1
 10
162.452904
 20
104.640243
 30
0.0
 10
177.441631
 20
119.629068
 30
0.0
 10
185.862152
 20
139.958250
 30
0.0
 10
185.862040
 20
161.155580
 30
0.0
  0
SPLINE
  5
106
100
AcDbEntity
  8
Ebene_1
 62
7
100
AcDbSpline
 70
8
 71
3
 72
8
 73
4
 74
0
 40
0
 40
0
 40
0
 40
0
 40
1
 40
1
 40
1
 40
1
 10
185.862040
 20
161.155580
 30
0.0
 10
185.861986
 20
205.296541
 30
0.0
 10
150.078681
 20
241.079846
 30
0.0
 10
105.937720
 20
241.079899
 30
0.0
  0
LINE
  5
107
100
AcDbEntity
  8
Ebene_1
 62
7
100
AcDbLine
 10
105.937720
 20
241.079899
 30
0.0
 11
105.937720
 21
241.079899
 31
0.0
  0
SPLINE
  5
108
100
AcDbEntity
  8
Ebene_1
 62
7
100
AcDbSpline
 70
8
 71
3
 72
8
 73
4
 74
0
 40
0
 40
0
 40
0
 40
0
 40
1
 40
1
 40
1
 40
1
 10
105.937720
 20
235.585144
 30
0.0
 10
147.044025
 20
235.585121
 30
0.0
 10
180.367264
 20
202.261885
 30
0.0
 10
180.367290
 20
161.155580
 30
0.0
  0
SPLINE
  5
109
100
AcDbEntity
  8
Ebene_1
 62
7
100
AcDbSpline
 70
8
 71
3
 72
8
 73
4
 74
0
 40
0
 40
0
 40
0
 40
0
 40
1
 40
1
 40
1
 40
1
 10
180.367290
 20
161.155580
 30
0.0
 10
180.352397
 20
160.636031
 30
0.0
 10
180.332063
 20
160.116653
 30
0.0
 10
180.306290
 20
159.597530
 30
0.0
  0
LINE
  5
10a
100
AcDbEntity
  8
Ebene_1
 62
7
100
AcDbLine
 10
180.306290
 20
159.597530
 30
0.0
 11
120.925420
 21
160.841390
 31
0.0
  0
SPLINE
  5
10b
100
AcDbEntity
  8
Ebene_1
 62
7
100
AcDbSpline
 70
8
 71
3
 72
8
 73
4
 74
0
 40
0
 40
0
 40
0
 40
0
 40
1
 40
1
 40
1
 40
1
 10
120.925420
 20
160.841390
 30
0.0
 10
120.930484
 20
160.946076
 30
0.0
 10
120.934451
 20
161.050811
 30
0.0
 10
120.937320
 20
161.155580
 30
0.0
  0
SPLINE
  5
10c
100
AcDbEntity
  8
Ebene_1
 62
7
100
AcDbSpline
 70
8
 71
3
 72
8
 73
4
 74
0
 40
0
 40
0
 40
0
 40
0
 40
1
 40
1
 40
1
 40
1
 10
120.937320
 20
161.155580
 30
0.0
 10
120.937099
 20
169.439539
 30
0.0
 10
114.221679
 20
176.154959
 30
0.0
 10
105.937720
 20
176.155180
 30
0.0
  0
SPLINE
  5
10d
100
AcDbEntity
  8
Ebene_1
 62
7
100
AcDbSpline
 70
8
 71
3
 72
8
 73
4
 74
0
 40
0
 40
0
 40
0
 40
0
 40
1
 40
1
 40
1
 40
1
 10
105.937720
 20
176.155180
 30
0.0
 10
97.653559
 20
176.155245
 30
0.0
 10
90.937823
 20
169.439741
 30
0.0
 10
90.937602
 20
161.155580
 30
0.0
  0
LINE
  5
10e
100
AcDbEntity
  8
Ebene_1
 62
7
100
AcDbLine
 10
90.937602
 20
161.155580
 30
0.0
 11
31.507638
 21
161.155580
 31
0.0
  0
SPLINE
  5
10f
100
AcDbEntity
  8
Ebene_1
 62
7
100
AcDbSpline
 70
8
 71
3
 72
8
 73
4
 74
0
 40
0
 40
0
 40
0
 40
0
 40
1
 40
1
 40
1
 40
1
 10
31.507638
 20
161.155580
 30
0.0
 10
31.507650
 20
180.895614
 30
0.0
 10
39.349389
 20
199.827136
 30
0.0
 10
53.307749
 20
213.785399
 30
0.0
  0
SPLINE
  5
110
100
AcDbEntity
  8
Ebene_1
 62
7
100
AcDbSpline
 70
8
 71
3
 72
8
 73
4
 74
0
 40
0
 40
0
 40
0
 40
0
 40
1
 40
1
 40
1
 40
1
 10
53.307749
 20
213.785399
 30
0.0
 10
67.266110
 20
227.743662
 30
0.0
 10
86.197686
 20
235.585269
 30
0.0
 10
105.937720
 20
235.585144
 30
0.0
  0
LINE
  5
111
100
AcDbEntity
  8
Ebene_1
 62
7
100
AcDbLine
 10
105.937720
 20
235.585144
 30
0.0
 11
105.937720
 21
235.585144
 31
0.0
  0
SPLINE
  5
112
100
AcDbEntity
  8
Ebene_1
 62
7
100
AcDbSpline
 70
8
 71
3
 72
8
 73
4
 74
0
 40
0
 40
0
 40
0
 40
0
 40
1
 40
1
 40
1
 40
1
 10
90.994446
 20
159.900870
 30
0.0
 10
91.005070
 20
159.796710
 30
0.0
 10
91.016784
 20
159.692665
 30
0.0
 10
91.029586
 20
159.588750
 30
0.0
  0
LINE
  5
113
100
AcDbEntity
  8
Ebene_1
 62
7
100
AcDbLine
 10
91.029586
 20
159.588750
 30
0.0
 11
31.966007
 21
153.380340
 31
0.0
  0
SPLINE
  5
114
100
AcDbEntity
  8
Ebene_1
 62
7
100
AcDbSpline
 70
8
 71
3
 72
8
 73
4
 74
0
 40
0
 40
0
 40
0
 40
0
 40
1
 40
1
 40
1
 40
1
 10
31.966007
 20
153.380340
 30
0.0
 10
31.899626
 20
153.895764
 30
0.0
 10
31.838644
 20
154.411869
 30
0.0
 10
31.783073
 20
154.928570
 30
0.0
  0
LINE
  5
115
100
AcDbEntity
  8
Ebene_1
 62
7
100
AcDbLine
 10
31.783073
 20
154.928570
 30
0.0
 11
90.994446
 21
159.900870
 31
0.0
  0
LINE
  5
116
100
AcDbEntity
  8
Ebene_1
 62
7
100
AcDbLine
 10
120.845340
 20
159.588750
 30
0.0
 11
179.908920
 21
153.380340
 31
0.0
  0
SPLINE
  5
117
100
AcDbEntity
  8
Ebene_1
 62
7
100
AcDbSpline
 70
8
 71
3
 72
8
 73
4
 74
0
 40
0
 40
0
 40
0
 40
0
 40
1
 40
1
 40
1
 40
1
 10
179.908920
 20
153.380340
 30
0.0
 10
179.853336
 20
152.864159
 30
0.0
 10
179.792353
 20
152.348575
 30
0.0
 10
179.725980
 20
151.833670
 30
0.0
  0
LINE
  5
118
100
AcDbEntity
  8
Ebene_1
 62
7
100
AcDbLine
 10
179.725980
 20
151.833670
 30
0.0
 11
120.810200
 21
159.276620
 31
0.0
  0
SPLINE
  5
119
100
AcDbEntity
  8
Ebene_1
 62
7
100
AcDbSpline
 70
8
 71
3
 72
8
 73
4
 74
0
 40
0
 40
0
 40
0
 40
0
 40
1
 40
1
 40
1
 40
1
 10
120.810200
 20
159.276620
 30
0.0
 10
120.822989
 20
159.380538
 30
0.0
 10
120.834690
 20
159.484587
 30
0.0
 10
120.845300
 20
159.588750
 30
0.0
  0
LINE
  5
11a
100
AcDbEntity
  8
Ebene_1
 62
7
100
AcDbLine
 10
120.845300
 20
159.588750
 30
0.0
 11
120.845340
 21
159.588750
 31
0.0
  0
SPLINE
  5
11b
100
AcDbEntity
  8
Ebene_1
 62
7
100
AcDbSpline
 70
8
 71
3
 72
8
 73
4
 74
0
 40
0
 40
0
 40
0
 40
0
 40
1
 40
1
 40
1
 40
1
 10
91.213554
 20
158.346960
 30
0.0
 10
91.231941
 20
158.243926
 30
0.0
 10
91.251405
 20
158.141087
 30
0.0
 10
91.271944
 20
158.038460
 30
0.0
  0
LINE
  5
11c
100
AcDbEntity
  8
Ebene_1
 62
7
100
AcDbLine
 10
91.271944
 20
158.038460
 30
0.0
 11
33.184017
 21
145.691410
 31
0.0
  0
SPLINE
  5
11d
100
AcDbEntity
  8
Ebene_1
 62
7
100
AcDbSpline
 70
8
 71
3
 72
8
 73
4
 74
0
 40
0
 40
0
 40
0
 40
0
 40
1
 40
1
 40
1
 40
1
 10
33.184017
 20
145.691410
 30
0.0
 10
33.077406
 20
146.199520
 30
0.0
 10
32.976115
 20
146.708731
 30
0.0
 10
32.880160
 20
147.218960
 30
0.0
  0
LINE
  5
11e
100
AcDbEntity
  8
Ebene_1
 62
7
100
AcDbLine
 10
32.880160
 20
147.218960
 30
0.0
 11
91.213554
 21
158.346960
 31
0.0
  0
LINE
  5
11f
100
AcDbEntity
  8
Ebene_1
 62
7
100
AcDbLine
 10
120.603490
 20
158.038460
 30
0.0
 11
178.690900
 21
145.691410
 31
0.0
  0
SPLINE
  5
120
100
AcDbEntity
  8
Ebene_1
 62
7
100
AcDbSpline
 70
8
 71
3
 72
8
 73
4
 74
0
 40
0
 40
0
 40
0
 40
0
 40
1
 40
1
 40
1
 40
1
 10
178.690900
 20
145.691410
 30
0.0
 10
178.594781
 20
145.180832
 30
0.0
 10
178.493319
 20
144.671274
 30
0.0
 10
178.386530
 20
144.162820
 30
0.0
  0
LINE
  5
121
100
AcDbEntity
  8
Ebene_1
 62
7
100
AcDbLine
 10
178.386530
 20
144.162820
 30
0.0
 11
120.538380
 21
157.730980
 31
0.0
  0
SPLINE
  5
122
100
AcDbEntity
  8
Ebene_1
 62
7
100
AcDbSpline
 70
8
 71
3
 72
8
 73
4
 74
0
 40
0
 40
0
 40
0
 40
0
 40
1
 40
1
 40
1
 40
1
 10
120.538380
 20
157.730980
 30
0.0
 10
120.561153
 20
157.833243
 30
0.0
 10
120.582854
 20
157.935742
 30
0.0
 10
120.603480
 20
158.038460
 30
0.0
  0
LINE
  5
123
100
AcDbEntity
  8
Ebene_1
 62
7
100
AcDbLine
 10
120.603480
 20
158.038460
 30
0.0
 11
120.603490
 21
158.038460
 31
0.0
  0
SPLINE
  5
124
100
AcDbEntity
  8
Ebene_1
 62
7
100
AcDbSpline
 70
8
 71
3
 72
8
 73
4
 74
0
 40
0
 40
0
 40
0
 40
0
 40
1
 40
1
 40
1
 40
1
 10
91.580457
 20
156.820960
 30
0.0
 10
91.611797
 20
156.721060
 30
0.0
 10
91.644182
 20
156.621492
 30
0.0
 10
91.677607
 20
156.522270
 30
0.0
  0
LINE
  5
125
100
AcDbEntity
  8
Ebene_1
 62
7
100
AcDbLine
 10
91.677607
 20
156.522270
 30
0.0
 11
35.150308
 21
138.155430
 31
0.0
  0
SPLINE
  5
126
100
AcDbEntity
  8
Ebene_1
 62
7
100
AcDbSpline
 70
8
 71
3
 72
8
 73
4
 74
0
 40
0
 40
0
 40
0
 40
0
 40
1
 40
1
 40
1
 40
1
 10
35.150308
 20
138.155430
 30
0.0
 10
35.003999
 20
138.653996
 30
0.0
 10
34.862914
 20
139.154080
 30
0.0
 10
34.727078
 20
139.655600
 30
0.0
  0
LINE
  5
127
100
AcDbEntity
  8
Ebene_1
 62
7
100
AcDbLine
 10
34.727078
 20
139.655600
 30
0.0
 11
91.580457
 21
156.820960
 31
0.0
  0
LINE
  5
128
100
AcDbEntity
  8
Ebene_1
 62
7
100
AcDbLine
 10
120.197310
 20
156.522270
 30
0.0
 11
176.724610
 21
138.155430
 31
0.0
  0
SPLINE
  5
129
100
AcDbEntity
  8
Ebene_1
 62
7
100
AcDbSpline
 70
8
 71
3
 72
8
 73
4
 74
0
 40
0
 40
0
 40
0
 40
0
 40
1
 40
1
 40
1
 40
1
 10
176.724610
 20
138.155430
 30
0.0
 10
176.549890
 20
137.665906
 30
0.0
 10
176.370047
 20
137.178226
 30
0.0
 10
176.185110
 20
136.692470
 30
0.0
  0
LINE
  5
12a
100
AcDbEntity
  8
Ebene_1
 62
7
100
AcDbLine
 10
176.185110
 20
136.692470
 30
0.0
 11
120.093440
 21
156.226160
 31
0.0
  0
SPLINE
  5
12b
100
AcDbEntity
  8
Ebene_1
 62
7
100
AcDbSpline
 70
8
 71
3
 72
8
 73
4
 74
0
 40
0
 40
0
 40
0
 40
0
 40
1
 40
1
 40
1
 40
1
 10
120.093440
 20
156.226160
 30
0.0
 10
120.129095
 20
156.324498
 30
0.0
 10
120.163720
 20
156.423207
 30
0.0
 10
120.197310
 20
156.522270
 30
0.0
  0
LINE
  5
12c
100
AcDbEntity
  8
Ebene_1
 62
7
100
AcDbLine
 10
120.197310
 20
156.522270
 30
0.0
 11
120.197310
 21
156.522270
 31
0.0
  0
SPLINE
  5
12d
100
AcDbEntity
  8
Ebene_1
 62
7
100
AcDbSpline
 70
8
 71
3
 72
8
 73
4
 74
0
 40
0
 40
0
 40
0
 40
0
 40
1
 40
1
 40
1
 40
1
 10
92.117891
 20
155.346110
 30
0.0
 10
92.158744
 20
155.249731
 30
0.0
 10
92.200604
 20
155.153783
 30
0.0
 10
92.243465
 20
155.058280
 30
0.0
  0
LINE
  5
12e
100
AcDbEntity
  8
Ebene_1
 62
7
100
AcDbLine
 10
92.243465
 20
155.058280
 30
0.0
 11
37.988896
 21
130.902640
 31
0.0
  0
SPLINE
  5
12f
100
AcDbEntity
  8
Ebene_1
 62
7
100
AcDbSpline
 70
8
 71
3
 72
8
 73
4
 74
0
 40
0
 40
0
 40
0
 40
0
 40
1
 40
1
 40
1
 40
1
 10
37.988896
 20
130.902640
 30
0.0
 10
37.766577
 20
131.372158
 30
0.0
 10
37.549179
 20
131.843990
 30
0.0
 10
37.336739
 20
132.318060
 30
0.0
  0
LINE
  5
130
100
AcDbEntity
  8
Ebene_1
 62
7
100
AcDbLine
 10
37.336739
 20
132.318060
 30
0.0
 11
92.117891
 21
155.346110
 31
0.0
  0
LINE
  5
131
100
AcDbEntity
  8
Ebene_1
 62
7
100
AcDbLine
 10
119.631460
 20
155.058280
 30
0.0
 11
173.885510
 21
130.902640
 31
0.0
  0
SPLINE
  5
132
100
AcDbEntity
  8
Ebene_1
 62
7
100
AcDbSpline
 70
8
 71
3
 72
8
 73
4
 74
0
 40
0
 40
0
 40
0
 40
0
 40
1
 40
1
 40
1
 40
1
 10
173.885510
 20
130.902640
 30
0.0
 10
173.673062
 20
130.428918
 30
0.0
 10
173.455664
 20
129.957433
 30
0.0
 10
173.233350
 20
129.488260
 30
0.0
  0
LINE
  5
133
100
AcDbEntity
  8
Ebene_1
 62
7
100
AcDbLine
 10
173.233350
 20
129.488260
 30
0.0
 11
119.505880
 21
154.770440
 31
0.0
  0
SPLINE
  5
134
100
AcDbEntity
  8
Ebene_1
 62
7
100
AcDbSpline
 70
8
 71
3
 72
8
 73
4
 74
0
 40
0
 40
0
 40
0
 40
0
 40
1
 40
1
 40
1
 40
1
 10
119.505880
 20
154.770440
 30
0.0
 10
119.548743
 20
154.865946
 30
0.0
 10
119.590606
 20
154.961898
 30
0.0
 10
119.631460
 20
155.058280
 30
0.0
  0
LINE
  5
135
100
AcDbEntity
  8
Ebene_1
 62
7
100
AcDbLine
 10
119.631460
 20
155.058280
 30
0.0
 11
119.631460
 21
155.058280
 31
0.0
  0
SPLINE
  5
136
100
AcDbEntity
  8
Ebene_1
 62
7
100
AcDbSpline
 70
8
 71
3
 72
8
 73
4
 74
0
 40
0
 40
0
 40
0
 40
0
 40
1
 40
1
 40
1
 40
1
 10
92.800020
 20
153.933280
 30
0.0
 10
92.848139
 20
153.840094
 30
0.0
 10
92.897235
 20
153.747416
 30
0.0
 10
92.947298
 20
153.655260
 30
0.0
  0
LINE
  5
137
100
AcDbEntity
  8
Ebene_1
 62
7
100
AcDbLine
 10
92.947298
 20
153.655260
 30
0.0
 11
41.523564
 21
123.965600
 31
0.0
  0
SPLINE
  5
138
100
AcDbEntity
  8
Ebene_1
 62
7
100
AcDbSpline
 70
8
 71
3
 72
8
 73
4
 74
0
 40
0
 40
0
 40
0
 40
0
 40
1
 40
1
 40
1
 40
1
 10
41.523564
 20
123.965600
 30
0.0
 10
41.265096
 20
124.416135
 30
0.0
 10
41.011350
 20
124.869363
 30
0.0
 10
40.762370
 20
125.325210
 30
0.0
  0
LINE
  5
139
100
AcDbEntity
  8
Ebene_1
 62
7
100
AcDbLine
 10
40.762370
 20
125.325210
 30
0.0
 11
92.800020
 21
153.933280
 31
0.0
  0
LINE
  5
13a
100
AcDbEntity
  8
Ebene_1
 62
7
100
AcDbLine
 10
118.927620
 20
153.655780
 30
0.0
 11
170.351360
 21
123.965600
 31
0.0
  0
SPLINE
  5
13b
100
AcDbEntity
  8
Ebene_1
 62
7
100
AcDbSpline
 70
8
 71
3
 72
8
 73
4
 74
0
 40
0
 40
0
 40
0
 40
0
 40
1
 40
1
 40
1
 40
1
 10
170.351360
 20
123.965600
 30
0.0
 10
170.102208
 20
123.509751
 30
0.0
 10
169.848291
 20
123.056523
 30
0.0
 10
169.589650
 20
122.605990
 30
0.0
  0
LINE
  5
13c
100
AcDbEntity
  8
Ebene_1
 62
7
100
AcDbLine
 10
169.589650
 20
122.605990
 30
0.0
 11
118.760710
 21
153.389640
 31
0.0
  0
SPLINE
  5
13d
100
AcDbEntity
  8
Ebene_1
 62
7
100
AcDbSpline
 70
8
 71
3
 72
8
 73
4
 74
0
 40
0
 40
0
 40
0
 40
0
 40
1
 40
1
 40
1
 40
1
 10
118.760710
 20
153.389640
 30
0.0
 10
118.817274
 20
153.477768
 30
0.0
 10
118.872914
 20
153.566486
 30
0.0
 10
118.927620
 20
153.655780
 30
0.0
  0
LINE
  5
13e
100
AcDbEntity
  8
Ebene_1
 62
7
100
AcDbLine
 10
118.927620
 20
153.655780
 30
0.0
 11
118.927620
 21
153.655780
 31
0.0
  0
SPLINE
  5
13f
100
AcDbEntity
  8
Ebene_1
 62
7
100
AcDbSpline
 70
8
 71
3
 72
8
 73
4
 74
0
 40
0
 40
0
 40
0
 40
0
 40
1
 40
1
 40
1
 40
1
 10
93.623743
 20
152.596930
 30
0.0
 10
93.685043
 20
152.512048
 30
0.0
 10
93.747231
 20
152.427810
 30
0.0
 10
93.810295
 20
152.344230
 30
0.0
  0
LINE
  5
140
100
AcDbEntity
  8
Ebene_1
 62
7
100
AcDbLine
 10
93.810295
 20
152.344230
 30
0.0
 11
45.722791
 21
117.406830
 31
0.0
  0
SPLINE
  5
141
100
AcDbEntity
  8
Ebene_1
 62
7
100
AcDbSpline
 70
8
 71
3
 72
8
 73
4
 74
0
 40
0
 40
0
 40
0
 40
0
 40
1
 40
1
 40
1
 40
1
 10
45.722791
 20
117.406830
 30
0.0
 10
45.429576
 20
117.835808
 30
0.0
 10
45.140861
 20
118.267845
 30
0.0
 10
44.856694
 20
118.702870
 30
0.0
  0
LINE
  5
142
100
AcDbEntity
  8
Ebene_1
 62
7
100
AcDbLine
 10
44.856694
 20
118.702870
 30
0.0
 11
93.623743
 21
152.596930
 31
0.0
  0
LINE
  5
143
100
AcDbEntity
  8
Ebene_1
 62
7
100
AcDbLine
 10
118.065140
 20
152.344750
 30
0.0
 11
166.152650
 21
117.406830
 31
0.0
  0
SPLINE
  5
144
100
AcDbEntity
  8
Ebene_1
 62
7
100
AcDbSpline
 70
8
 71
3
 72
8
 73
4
 74
0
 40
0
 40
0
 40
0
 40
0
 40
1
 40
1
 40
1
 40
1
 10
166.152650
 20
117.406830
 30
0.0
 10
165.835159
 20
116.995398
 30
0.0
 10
165.513368
 20
116.587302
 30
0.0
 10
165.187330
 20
116.182610
 30
0.0
  0
LINE
  5
145
100
AcDbEntity
  8
Ebene_1
 62
7
100
AcDbLine
 10
165.187330
 20
116.182610
 30
0.0
 11
117.878590
 21
152.092050
 31
0.0
  0
SPLINE
  5
146
100
AcDbEntity
  8
Ebene_1
 62
7
100
AcDbSpline
 70
8
 71
3
 72
8
 73
4
 74
0
 40
0
 40
0
 40
0
 40
0
 40
1
 40
1
 40
1
 40
1
 10
117.878590
 20
152.092050
 30
0.0
 10
117.941654
 20
152.175630
 30
0.0
 10
118.003840
 20
152.259868
 30
0.0
 10
118.065140
 20
152.344750
 30
0.0
  0
LINE
  5
147
100
AcDbEntity
  8
Ebene_1
 62
7
100
AcDbLine
 10
118.065140
 20
152.344750
 30
0.0
 11
118.065140
 21
152.344750
 31
0.0
  0
SPLINE
  5
148
100
AcDbEntity
  8
Ebene_1
 62
7
100
AcDbSpline
 70
8
 71
3
 72
8
 73
4
 74
0
 40
0
 40
0
 40
0
 40
0
 40
1
 40
1
 40
1
 40
1
 10
94.590092
 20
151.360830
 30
0.0
 10
94.657643
 20
151.280706
 30
0.0
 10
94.726032
 20
151.201291
 30
0.0
 10
94.795247
 20
151.122600
 30
0.0
  0
LINE
  5
149
100
AcDbEntity
  8
Ebene_1
 62
7
100
AcDbLine
 10
94.795247
 20
151.122600
 30
0.0
 11
50.663574
 21
111.386520
 31
0.0
  0
SPLINE
  5
14a
100
AcDbEntity
  8
Ebene_1
 62
7
100
AcDbSpline
 70
8
 71
3
 72
8
 73
4
 74
0
 40
0
 40
0
 40
0
 40
0
 40
1
 40
1
 40
1
 40
1
 10
50.663574
 20
111.386520
 30
0.0
 10
50.306983
 20
111.764364
 30
0.0
 10
49.954359
 20
112.145932
 30
0.0
 10
49.605758
 20
112.531160
 30
0.0
  0
LINE
  5
14b
100
AcDbEntity
  8
Ebene_1
 62
7
100
AcDbLine
 10
49.605758
 20
112.531160
 30
0.0
 11
94.590092
 21
151.360830
 31
0.0
  0
LINE
  5
14c
100
AcDbEntity
  8
Ebene_1
 62
7
100
AcDbLine
 10
117.080190
 20
151.123120
 30
0.0
 11
161.211350
 21
111.386520
 31
0.0
  0
SPLINE
  5
14d
100
AcDbEntity
  8
Ebene_1
 62
7
100
AcDbSpline
 70
8
 71
3
 72
8
 73
4
 74
0
 40
0
 40
0
 40
0
 40
0
 40
1
 40
1
 40
1
 40
1
 10
161.211350
 20
111.386520
 30
0.0
 10
160.863090
 20
111.001475
 30
0.0
 10
160.510811
 20
110.620084
 30
0.0
 10
160.154570
 20
110.242410
 30
0.0
  0
LINE
  5
14e
100
AcDbEntity
  8
Ebene_1
 62
7
100
AcDbLine
 10
160.154570
 20
110.242410
 30
0.0
 11
116.870390
 21
150.889540
 31
0.0
  0
SPLINE
  5
14f
100
AcDbEntity
  8
Ebene_1
 62
7
100
AcDbSpline
 70
8
 71
3
 72
8
 73
4
 74
0
 40
0
 40
0
 40
0
 40
0
 40
1
 40
1
 40
1
 40
1
 10
116.870390
 20
150.889540
 30
0.0
 10
116.941136
 20
150.966666
 30
0.0
 10
117.011073
 20
151.044530
 30
0.0
 10
117.080190
 20
151.123120
 30
0.0
  0
LINE
  5
150
100
AcDbEntity
  8
Ebene_1
 62
7
100
AcDbLine
 10
117.080190
 20
151.123120
 30
0.0
 11
117.080190
 21
151.123120
 31
0.0
  0
SPLINE
  5
151
100
AcDbEntity
  8
Ebene_1
 62
7
100
AcDbSpline
 70
8
 71
3
 72
8
 73
4
 74
0
 40
0
 40
0
 40
0
 40
0
 40
1
 40
1
 40
1
 40
1
 10
95.671680
 20
150.222910
 30
0.0
 10
95.748805
 20
150.152164
 30
0.0
 10
95.826668
 20
150.082227
 30
0.0
 10
95.905257
 20
150.013110
 30
0.0
  0
LINE
  5
152
100
AcDbEntity
  8
Ebene_1
 62
7
100
AcDbLine
 10
95.905257
 20
150.013110
 30
0.0
 11
56.168665
 21
105.880920
 31
0.0
  0
SPLINE
  5
153
100
AcDbEntity
  8
Ebene_1
 62
7
100
AcDbSpline
 70
8
 71
3
 72
8
 73
4
 74
0
 40
0
 40
0
 40
0
 40
0
 40
1
 40
1
 40
1
 40
1
 10
56.168665
 20
105.880920
 30
0.0
 10
55.783612
 20
106.229522
 30
0.0
 10
55.402219
 20
106.582144
 30
0.0
 10
55.024548
 20
106.938730
 30
0.0
  0
LINE
  5
154
100
AcDbEntity
  8
Ebene_1
 62
7
100
AcDbLine
 10
55.024548
 20
106.938730
 30
0.0
 11
95.671680
 21
150.222910
 31
0.0
  0
LINE
  5
155
100
AcDbEntity
  8
Ebene_1
 62
7
100
AcDbLine
 10
115.970180
 20
150.013620
 30
0.0
 11
155.706260
 21
105.881430
 31
0.0
  0
SPLINE
  5
156
100
AcDbEntity
  8
Ebene_1
 62
7
100
AcDbSpline
 70
8
 71
3
 72
8
 73
4
 74
0
 40
0
 40
0
 40
0
 40
0
 40
1
 40
1
 40
1
 40
1
 10
155.706260
 20
105.881430
 30
0.0
 10
155.328419
 20
105.524841
 30
0.0
 10
154.946855
 20
105.172219
 30
0.0
 10
154.561630
 20
104.823620
 30
0.0
  0
LINE
  5
157
100
AcDbEntity
  8
Ebene_1
 62
7
100
AcDbLine
 10
154.561630
 20
104.823620
 30
0.0
 11
115.731950
 21
149.808470
 31
0.0
  0
SPLINE
  5
158
100
AcDbEntity
  8
Ebene_1
 62
7
100
AcDbSpline
 70
8
 71
3
 72
8
 73
4
 74
0
 40
0
 40
0
 40
0
 40
0
 40
1
 40
1
 40
1
 40
1
 10
115.731950
 20
149.808470
 30
0.0
 10
115.812074
 20
149.876019
 30
0.0
 10
115.891489
 20
149.944406
 30
0.0
 10
115.970180
 20
150.013620
 30
0.0
  0
LINE
  5
159
100
AcDbEntity
  8
Ebene_1
 62
7
100
AcDbLine
 10
115.970180
 20
150.013620
 30
0.0
 11
115.970180
 21
150.013620
 31
0.0
  0
SPLINE
  5
15a
100
AcDbEntity
  8
Ebene_1
 62
7
100
AcDbSpline
 70
8
 71
3
 72
8
 73
4
 74
0
 40
0
 40
0
 40
0
 40
0
 40
1
 40
1
 40
1
 40
1
 10
96.874190
 20
149.214710
 30
0.0
 10
96.957769
 20
149.151643
 30
0.0
 10
97.042007
 20
149.089453
 30
0.0
 10
97.126888
 20
149.028150
 30
0.0
  0
LINE
  5
15b
100
AcDbEntity
  8
Ebene_1
 62
7
100
AcDbLine
 10
97.126888
 20
149.028150
 30
0.0
 11
62.188969
 21
100.940650
 31
0.0
  0
SPLINE
  5
15c
100
AcDbEntity
  8
Ebene_1
 62
7
100
AcDbSpline
 70
8
 71
3
 72
8
 73
4
 74
0
 40
0
 40
0
 40
0
 40
0
 40
1
 40
1
 40
1
 40
1
 10
62.188969
 20
100.940650
 30
0.0
 10
61.777541
 20
101.257968
 30
0.0
 10
61.369447
 20
101.579586
 30
0.0
 10
60.964754
 20
101.905450
 30
0.0
  0
LINE
  5
15d
100
AcDbEntity
  8
Ebene_1
 62
7
100
AcDbLine
 10
60.964754
 20
101.905450
 30
0.0
 11
96.874190
 21
149.214710
 31
0.0
  0
LINE
  5
15e
100
AcDbEntity
  8
Ebene_1
 62
7
100
AcDbLine
 10
114.748550
 20
149.028670
 30
0.0
 11
149.685950
 21
100.940130
 31
0.0
  0
SPLINE
  5
15f
100
AcDbEntity
  8
Ebene_1
 62
7
100
AcDbSpline
 70
8
 71
3
 72
8
 73
4
 74
0
 40
0
 40
0
 40
0
 40
0
 40
1
 40
1
 40
1
 40
1
 10
149.685950
 20
100.940130
 30
0.0
 10
149.256969
 20
100.647088
 30
0.0
 10
148.824932
 20
100.358546
 30
0.0
 10
148.389910
 20
100.074550
 30
0.0
  0
LINE
  5
160
100
AcDbEntity
  8
Ebene_1
 62
7
100
AcDbLine
 10
148.389910
 20
100.074550
 30
0.0
 11
114.495850
 21
148.842120
 31
0.0
  0
SPLINE
  5
161
100
AcDbEntity
  8
Ebene_1
 62
7
100
AcDbSpline
 70
8
 71
3
 72
8
 73
4
 74
0
 40
0
 40
0
 40
0
 40
0
 40
1
 40
1
 40
1
 40
1
 10
114.495850
 20
148.842120
 30
0.0
 10
114.580732
 20
148.903420
 30
0.0
 10
114.664970
 20
148.965606
 30
0.0
 10
114.748550
 20
149.028670
 30
0.0
  0
LINE
  5
162
100
AcDbEntity
  8
Ebene_1
 62
7
100
AcDbLine
 10
114.748550
 20
149.028670
 30
0.0
 11
114.748550
 21
149.028670
 31
0.0
  0
SPLINE
  5
163
100
AcDbEntity
  8
Ebene_1
 62
7
100
AcDbSpline
 70
8
 71
3
 72
8
 73
4
 74
0
 40
0
 40
0
 40
0
 40
0
 40
1
 40
1
 40
1
 40
1
 10
98.171785
 20
148.332070
 30
0.0
 10
98.259740
 20
148.275509
 30
0.0
 10
98.348284
 20
148.219869
 30
0.0
 10
98.437402
 20
148.165160
 30
0.0
  0
LINE
  5
164
100
AcDbEntity
  8
Ebene_1
 62
7
100
AcDbLine
 10
98.437402
 20
148.165160
 30
0.0
 11
68.748258
 21
96.741940
 31
0.0
  0
SPLINE
  5
165
100
AcDbEntity
  8
Ebene_1
 62
7
100
AcDbSpline
 70
8
 71
3
 72
8
 73
4
 74
0
 40
0
 40
0
 40
0
 40
0
 40
1
 40
1
 40
1
 40
1
 10
68.748258
 20
96.741940
 30
0.0
 10
68.292239
 20
96.990916
 30
0.0
 10
67.838840
 20
97.244660
 30
0.0
 10
67.388135
 20
97.503130
 30
0.0
  0
LINE
  5
166
100
AcDbEntity
  8
Ebene_1
 62
7
100
AcDbLine
 10
67.388135
 20
97.503130
 30
0.0
 11
98.171785
 21
148.332070
 31
0.0
  0
LINE
  5
167
100
AcDbEntity
  8
Ebene_1
 62
7
100
AcDbLine
 10
113.437520
 20
148.165160
 30
0.0
 11
143.126660
 21
96.741420
 31
0.0
  0
SPLINE
  5
168
100
AcDbEntity
  8
Ebene_1
 62
7
100
AcDbSpline
 70
8
 71
3
 72
8
 73
4
 74
0
 40
0
 40
0
 40
0
 40
0
 40
1
 40
1
 40
1
 40
1
 10
143.126660
 20
96.741420
 30
0.0
 10
142.676298
 20
96.482956
 30
0.0
 10
142.223243
 20
96.229212
 30
0.0
 10
141.767570
 20
95.980230
 30
0.0
  0
LINE
  5
169
100
AcDbEntity
  8
Ebene_1
 62
7
100
AcDbLine
 10
141.767570
 20
95.980230
 30
0.0
 11
113.160020
 21
148.018400
 31
0.0
  0
SPLINE
  5
16a
100
AcDbEntity
  8
Ebene_1
 62
7
100
AcDbSpline
 70
8
 71
3
 72
8
 73
4
 74
0
 40
0
 40
0
 40
0
 40
0
 40
1
 40
1
 40
1
 40
1
 10
113.160020
 20
148.018400
 30
0.0
 10
113.253029
 20
148.066351
 30
0.0
 10
113.345534
 20
148.115273
 30
0.0
 10
113.437520
 20
148.165160
 30
0.0
  0
LINE
  5
16b
100
AcDbEntity
  8
Ebene_1
 62
7
100
AcDbLine
 10
113.437520
 20
148.165160
 30
0.0
 11
113.437520
 21
148.165160
 31
0.0
  0
SPLINE
  5
16c
100
AcDbEntity
  8
Ebene_1
 62
7
100
AcDbSpline
 70
8
 71
3
 72
8
 73
4
 74
0
 40
0
 40
0
 40
0
 40
0
 40
1
 40
1
 40
1
 40
1
 10
99.552580
 20
147.586900
 30
0.0
 10
99.648085
 20
147.544037
 30
0.0
 10
99.744036
 20
147.502174
 30
0.0
 10
99.840417
 20
147.461320
 30
0.0
  0
LINE
  5
16d
100
AcDbEntity
  8
Ebene_1
 62
7
100
AcDbLine
 10
99.840417
 20
147.461320
 30
0.0
 11
75.684786
 21
93.207270
 31
0.0
  0
SPLINE
  5
16e
100
AcDbEntity
  8
Ebene_1
 62
7
100
AcDbSpline
 70
8
 71
3
 72
8
 73
4
 74
0
 40
0
 40
0
 40
0
 40
0
 40
1
 40
1
 40
1
 40
1
 10
75.684786
 20
93.207270
 30
0.0
 10
75.211063
 20
93.419718
 30
0.0
 10
74.739576
 20
93.637116
 30
0.0
 10
74.270402
 20
93.859430
 30
0.0
  0
LINE
  5
16f
100
AcDbEntity
  8
Ebene_1
 62
7
100
AcDbLine
 10
74.270402
 20
93.859430
 30
0.0
 11
99.552580
 21
147.586900
 31
0.0
  0
LINE
  5
170
100
AcDbEntity
  8
Ebene_1
 62
7
100
AcDbLine
 10
112.035020
 20
147.461320
 30
0.0
 11
136.190140
 21
93.207270
 31
0.0
  0
SPLINE
  5
171
100
AcDbEntity
  8
Ebene_1
 62
7
100
AcDbSpline
 70
8
 71
3
 72
8
 73
4
 74
0
 40
0
 40
0
 40
0
 40
0
 40
1
 40
1
 40
1
 40
1
 10
136.190140
 20
93.207270
 30
0.0
 10
135.720622
 20
92.984950
 30
0.0
 10
135.248790
 20
92.767551
 30
0.0
 10
134.774720
 20
92.555110
 30
0.0
  0
LINE
  5
172
100
AcDbEntity
  8
Ebene_1
 62
7
100
AcDbLine
 10
134.774720
 20
92.555110
 30
0.0
 11
111.747180
 21
147.335750
 31
0.0
  0
SPLINE
  5
173
100
AcDbEntity
  8
Ebene_1
 62
7
100
AcDbSpline
 70
8
 71
3
 72
8
 73
4
 74
0
 40
0
 40
0
 40
0
 40
0
 40
1
 40
1
 40
1
 40
1
 10
111.747180
 20
147.335750
 30
0.0
 10
111.843562
 20
147.376601
 30
0.0
 10
111.939514
 20
147.418460
 30
0.0
 10
112.035020
 20
147.461320
 30
0.0
  0
LINE
  5
174
100
AcDbEntity
  8
Ebene_1
 62
7
100
AcDbLine
 10
112.035020
 20
147.461320
 30
0.0
 11
112.035020
 21
147.461320
 31
0.0
  0
SPLINE
  5
175
100
AcDbEntity
  8
Ebene_1
 62
7
100
AcDbSpline
 70
8
 71
3
 72
8
 73
4
 74
0
 40
0
 40
0
 40
0
 40
0
 40
1
 40
1
 40
1
 40
1
 10
101.008300
 20
146.999850
 30
0.0
 10
101.106638
 20
146.964195
 30
0.0
 10
101.205347
 20
146.929570
 30
0.0
 10
101.304410
 20
146.895980
 30
0.0
  0
LINE
  5
176
100
AcDbEntity
  8
Ebene_1
 62
7
100
AcDbLine
 10
101.304410
 20
146.895980
 30
0.0
 11
82.937573
 21
90.368680
 31
0.0
  0
SPLINE
  5
177
100
AcDbEntity
  8
Ebene_1
 62
7
100
AcDbSpline
 70
8
 71
3
 72
8
 73
4
 74
0
 40
0
 40
0
 40
0
 40
0
 40
1
 40
1
 40
1
 40
1
 10
82.937573
 20
90.368680
 30
0.0
 10
82.448222
 20
90.543407
 30
0.0
 10
81.960714
 20
90.723253
 30
0.0
 10
81.475130
 20
90.908190
 30
0.0
  0
LINE
  5
178
100
AcDbEntity
  8
Ebene_1
 62
7
100
AcDbLine
 10
81.475130
 20
90.908190
 30
0.0
 11
101.008300
 21
146.999850
 31
0.0
  0
LINE
  5
179
100
AcDbEntity
  8
Ebene_1
 62
7
100
AcDbLine
 10
110.571030
 20
146.895980
 30
0.0
 11
128.937350
 21
90.368680
 31
0.0
  0
SPLINE
  5
17a
100
AcDbEntity
  8
Ebene_1
 62
7
100
AcDbSpline
 70
8
 71
3
 72
8
 73
4
 74
0
 40
0
 40
0
 40
0
 40
0
 40
1
 40
1
 40
1
 40
1
 10
128.937350
 20
90.368680
 30
0.0
 10
128.438784
 20
90.222371
 30
0.0
 10
127.938700
 20
90.081286
 30
0.0
 10
127.437180
 20
89.945450
 30
0.0
  0
LINE
  5
17b
100
AcDbEntity
  8
Ebene_1
 62
7
100
AcDbLine
 10
127.437180
 20
89.945450
 30
0.0
 11
110.272340
 21
146.798830
 31
0.0
  0
SPLINE
  5
17c
100
AcDbEntity
  8
Ebene_1
 62
7
100
AcDbSpline
 70
8
 71
3
 72
8
 73
4
 74
0
 40
0
 40
0
 40
0
 40
0
 40
1
 40
1
 40
1
 40
1
 10
110.272340
 20
146.798830
 30
0.0
 10
110.372239
 20
146.830153
 30
0.0
 10
110.471808
 20
146.862522
 30
0.0
 10
110.571030
 20
146.895930
 30
0.0
  0
LINE
  5
17d
100
AcDbEntity
  8
Ebene_1
 62
7
100
AcDbLine
 10
110.571030
 20
146.895930
 30
0.0
 11
110.571030
 21
146.895980
 31
0.0
  0
SPLINE
  5
17e
100
AcDbEntity
  8
Ebene_1
 62
7
100
AcDbSpline
 70
8
 71
3
 72
8
 73
4
 74
0
 40
0
 40
0
 40
0
 40
0
 40
1
 40
1
 40
1
 40
1
 10
102.513120
 20
146.554920
 30
0.0
 10
102.615383
 20
146.532147
 30
0.0
 10
102.717882
 20
146.510446
 30
0.0
 10
102.820600
 20
146.489820
 30
0.0
  0
LINE
  5
17f
100
AcDbEntity
  8
Ebene_1
 62
7
100
AcDbLine
 10
102.820600
 20
146.489820
 30
0.0
 11
90.473547
 21
88.402400
 31
0.0
  0
SPLINE
  5
180
100
AcDbEntity
  8
Ebene_1
 62
7
100
AcDbSpline
 70
8
 71
3
 72
8
 73
4
 74
0
 40
0
 40
0
 40
0
 40
0
 40
1
 40
1
 40
1
 40
1
 10
90.473547
 20
88.402400
 30
0.0
 10
89.962799
 20
88.498342
 30
0.0
 10
89.453069
 20
88.599631
 30
0.0
 10
88.944442
 20
88.706250
 30
0.0
  0
LINE
  5
181
100
AcDbEntity
  8
Ebene_1
 62
7
100
AcDbLine
 10
88.944442
 20
88.706250
 30
0.0
 11
102.513120
 21
146.554920
 31
0.0
  0
LINE
  5
182
100
AcDbEntity
  8
Ebene_1
 62
7
100
AcDbLine
 10
109.054840
 20
146.489820
 30
0.0
 11
121.401380
 21
88.402410
 31
0.0
  0
SPLINE
  5
183
100
AcDbEntity
  8
Ebene_1
 62
7
100
AcDbSpline
 70
8
 71
3
 72
8
 73
4
 74
0
 40
0
 40
0
 40
0
 40
0
 40
1
 40
1
 40
1
 40
1
 10
121.401380
 20
88.402410
 30
0.0
 10
120.893267
 20
88.295798
 30
0.0
 10
120.384053
 20
88.194506
 30
0.0
 10
119.873820
 20
88.098550
 30
0.0
  0
LINE
  5
184
100
AcDbEntity
  8
Ebene_1
 62
7
100
AcDbLine
 10
119.873820
 20
88.098550
 30
0.0
 11
108.746330
 21
146.431420
 31
0.0
  0
SPLINE
  5
185
100
AcDbEntity
  8
Ebene_1
 62
7
100
AcDbSpline
 70
8
 71
3
 72
8
 73
4
 74
0
 40
0
 40
0
 40
0
 40
0
 40
1
 40
1
 40
1
 40
1
 10
108.746330
 20
146.431420
 30
0.0
 10
108.849368
 20
146.449810
 30
0.0
 10
108.952210
 20
146.469278
 30
0.0
 10
109.054840
 20
146.489820
 30
0.0
  0
LINE
  5
186
100
AcDbEntity
  8
Ebene_1
 62
7
100
AcDbLine
 10
109.054840
 20
146.489820
 30
0.0
 11
109.054840
 21
146.489820
 31
0.0
  0
SPLINE
  5
187
100
AcDbEntity
  8
Ebene_1
 62
7
100
AcDbSpline
 70
8
 71
3
 72
8
 73
4
 74
0
 40
0
 40
0
 40
0
 40
0
 40
1
 40
1
 40
1
 40
1
 10
104.058760
 20
146.282590
 30
0.0
 10
104.162678
 20
146.269801
 30
0.0
 10
104.266727
 20
146.258100
 30
0.0
 10
104.370890
 20
146.247490
 30
0.0
  0
LINE
  5
188
100
AcDbEntity
  8
Ebene_1
 62
7
100
AcDbLine
 10
104.370890
 20
146.247490
 30
0.0
 11
98.162484
 21
87.184430
 31
0.0
  0
SPLINE
  5
189
100
AcDbEntity
  8
Ebene_1
 62
7
100
AcDbSpline
 70
8
 71
3
 72
8
 73
4
 74
0
 40
0
 40
0
 40
0
 40
0
 40
1
 40
1
 40
1
 40
1
 10
98.162484
 20
87.184430
 30
0.0
 10
97.646474
 20
87.240018
 30
0.0
 10
97.131059
 20
87.301001
 30
0.0
 10
96.616325
 20
87.367370
 30
0.0
  0
LINE
  5
18a
100
AcDbEntity
  8
Ebene_1
 62
7
100
AcDbLine
 10
96.616325
 20
87.367370
 30
0.0
 11
104.058760
 21
146.282590
 31
0.0
  0
LINE
  5
18b
100
AcDbEntity
  8
Ebene_1
 62
7
100
AcDbLine
 10
107.504550
 20
146.247490
 30
0.0
 11
113.712440
 21
87.184430
 31
0.0
  0
SPLINE
  5
18c
100
AcDbEntity
  8
Ebene_1
 62
7
100
AcDbSpline
 70
8
 71
3
 72
8
 73
4
 74
0
 40
0
 40
0
 40
0
 40
0
 40
1
 40
1
 40
1
 40
1
 10
113.712440
 20
87.184430
 30
0.0
 10
113.197189
 20
87.118054
 30
0.0
 10
112.681258
 20
87.057074
 30
0.0
 10
112.164730
 20
87.001500
 30
0.0
  0
LINE
  5
18d
100
AcDbEntity
  8
Ebene_1
 62
7
100
AcDbLine
 10
112.164730
 20
87.001500
 30
0.0
 11
107.192420
 21
146.212350
 31
0.0
  0
SPLINE
  5
18e
100
AcDbEntity
  8
Ebene_1
 62
7
100
AcDbSpline
 70
8
 71
3
 72
8
 73
4
 74
0
 40
0
 40
0
 40
0
 40
0
 40
1
 40
1
 40
1
 40
1
 10
107.192420
 20
146.212350
 30
0.0
 10
107.296583
 20
146.222960
 30
0.0
 10
107.400632
 20
146.234661
 30
0.0
 10
107.504550
 20
146.247450
 30
0.0
  0
LINE
  5
18f
100
AcDbEntity
  8
Ebene_1
 62
7
100
AcDbLine
 10
107.504550
 20
146.247450
 30
0.0
 11
107.504550
 21
146.247490
 31
0.0
  0
SPLINE
  5
190
100
AcDbEntity
  8
Ebene_1
 62
7
100
AcDbSpline
 70
8
 71
3
 72
8
 73
4
 74
0
 40
0
 40
0
 40
0
 40
0
 40
1
 40
1
 40
1
 40
1
 10
105.623530
 20
146.167390
 30
0.0
 10
105.728216
 20
146.162326
 30
0.0
 10
105.832951
 20
146.158359
 30
0.0
 10
105.937720
 20
146.155490
 30
0.0
  0
LINE
  5
191
100
AcDbEntity
  8
Ebene_1
 62
7
100
AcDbLine
 10
105.937720
 20
146.155490
 30
0.0
 11
105.937720
 21
86.726040
 31
0.0
  0
SPLINE
  5
192
100
AcDbEntity
  8
Ebene_1
 62
7
100
AcDbSpline
 70
8
 71
3
 72
8
 73
4
 74
0
 40
0
 40
0
 40
0
 40
0
 40
1
 40
1
 40
1
 40
1
 10
105.937720
 20
86.726040
 30
0.0
 10
105.418175
 20
86.740933
 30
0.0
 10
104.898799
 20
86.761267
 30
0.0
 10
104.379680
 20
86.787040
 30
0.0
  0
LINE
  5
193
100
AcDbEntity
  8
Ebene_1
 62
7
100
AcDbLine
 10
104.379680
 20
86.787040
 30
0.0
 11
105.623530
 21
146.167390
 31
0.0
  0
ENDSEC
  0
SECTION
  2
OBJECTS
  0
DICTIONARY
  5
C
330
0
100
AcDbDictionary
  3
ACAD_GROUP
350
D
  3
ACAD_MLINESTYLE
350
17
  0
DICTIONARY
  5
D
330
C
100
AcDbDictionary
  0
DICTIONARY
  5
1A
330
C
100
AcDbDictionary
  0
DICTIONARY
  5
17
330
C
100
AcDbDictionary
  3
STANDARD
350
18
  0
DICTIONARY
  5
19
330
C
100
AcDbDictionary
  0
ENDSEC
  0
EOF
