<?xml version="1.0" encoding="UTF-8" standalone="no"?>
<!-- Created with Inkscape (http://www.inkscape.org/) -->

<svg
   width="210mm"
   height="297mm"
   viewBox="0 0 210 297"
   version="1.1"
   id="svg2083"
   inkscape:version="1.2.1 (9c6d41e410, 2022-07-14)"
   sodipodi:docname="circular scanimation 0-5.svg"
   xmlns:inkscape="http://www.inkscape.org/namespaces/inkscape"
   xmlns:sodipodi="http://sodipodi.sourceforge.net/DTD/sodipodi-0.dtd"
   xmlns="http://www.w3.org/2000/svg"
   xmlns:svg="http://www.w3.org/2000/svg">
  <sodipodi:namedview
     id="namedview2085"
     pagecolor="#ffffff"
     bordercolor="#000000"
     borderopacity="0.25"
     inkscape:showpageshadow="2"
     inkscape:pageopacity="0.0"
     inkscape:pagecheckerboard="0"
     inkscape:deskcolor="#d1d1d1"
     inkscape:document-units="mm"
     showgrid="false"
     inkscape:zoom="1.1849519"
     inkscape:cx="621.96617"
     inkscape:cy="557.82855"
     inkscape:window-width="2560"
     inkscape:window-height="1494"
     inkscape:window-x="-11"
     inkscape:window-y="-11"
     inkscape:window-maximized="1"
     inkscape:current-layer="layer1" />
  <defs
     id="defs2080">
    <inkscape:path-effect
       effect="copy_rotate"
       starting_point="109.94069,148.30428"
       origin="105,148.30428"
       id="path-effect44407"
       is_visible="true"
       lpeversion="1.2"
       lpesatellites=""
       method="normal"
       num_copies="60"
       starting_angle="0"
       rotation_angle="6"
       gap="-0.01"
       copies_to_360="true"
       mirror_copies="false"
       split_items="false"
       link_styles="false" />
    <inkscape:path-effect
       effect="copy_rotate"
       starting_point="109.94069,148.30428"
       origin="105,148.30428"
       id="path-effect44401"
       is_visible="true"
       lpeversion="1.2"
       lpesatellites=""
       method="normal"
       num_copies="60"
       starting_angle="0"
       rotation_angle="6"
       gap="-0.01"
       copies_to_360="true"
       mirror_copies="false"
       split_items="false"
       link_styles="false" />
    <inkscape:path-effect
       effect="copy_rotate"
       starting_point="109.94069,148.30428"
       origin="105,148.30428"
       id="path-effect44390"
       is_visible="true"
       lpeversion="1.2"
       lpesatellites=""
       method="normal"
       num_copies="60"
       starting_angle="0"
       rotation_angle="6"
       gap="-0.01"
       copies_to_360="true"
       mirror_copies="false"
       split_items="false"
       link_styles="false" />
    <inkscape:path-effect
       effect="copy_rotate"
       starting_point="109.94069,148.30428"
       origin="105,148.30428"
       id="path-effect44384"
       is_visible="true"
       lpeversion="1.2"
       lpesatellites=""
       method="normal"
       num_copies="60"
       starting_angle="0"
       rotation_angle="6"
       gap="-0.01"
       copies_to_360="true"
       mirror_copies="false"
       split_items="false"
       link_styles="false" />
    <inkscape:path-effect
       effect="copy_rotate"
       starting_point="109.94069,148.30428"
       origin="105,148.30428"
       id="path-effect44378"
       is_visible="true"
       lpeversion="1.2"
       lpesatellites=""
       method="normal"
       num_copies="60"
       starting_angle="0"
       rotation_angle="6"
       gap="-0.01"
       copies_to_360="true"
       mirror_copies="false"
       split_items="false"
       link_styles="false" />
    <inkscape:path-effect
       effect="copy_rotate"
       starting_point="109.94069,148.30428"
       origin="105,148.30428"
       id="path-effect44372"
       is_visible="true"
       lpeversion="1.2"
       lpesatellites=""
       method="normal"
       num_copies="60"
       starting_angle="0"
       rotation_angle="6"
       gap="-0.01"
       copies_to_360="true"
       mirror_copies="false"
       split_items="false"
       link_styles="false" />
    <inkscape:path-effect
       effect="copy_rotate"
       starting_point="109.94069,148.30428"
       origin="105,148.30428"
       id="path-effect44231"
       is_visible="true"
       lpeversion="1.2"
       lpesatellites=""
       method="normal"
       num_copies="60"
       starting_angle="0"
       rotation_angle="6"
       gap="-0.01"
       copies_to_360="true"
       mirror_copies="false"
       split_items="false"
       link_styles="false" />
    <inkscape:path-effect
       effect="copy_rotate"
       starting_point="109.94069,148.30428"
       origin="105,148.30428"
       id="path-effect44225"
       is_visible="false"
       lpeversion="1.2"
       lpesatellites=""
       method="normal"
       num_copies="60"
       starting_angle="0"
       rotation_angle="6"
       gap="-0.01"
       copies_to_360="true"
       mirror_copies="false"
       split_items="false"
       link_styles="false" />
    <inkscape:path-effect
       effect="copy_rotate"
       starting_point="109.94069,148.30428"
       origin="105,148.30428"
       id="path-effect2022"
       is_visible="false"
       lpeversion="1.2"
       lpesatellites=""
       method="normal"
       num_copies="60"
       starting_angle="0"
       rotation_angle="6"
       gap="-0.01"
       copies_to_360="true"
       mirror_copies="false"
       split_items="false"
       link_styles="false" />
    <inkscape:path-effect
       effect="copy_rotate"
       starting_point="109.94069,148.30428"
       origin="105,148.30428"
       id="path-effect2015"
       is_visible="true"
       lpeversion="1.2"
       lpesatellites=""
       method="normal"
       num_copies="60"
       starting_angle="0"
       rotation_angle="6"
       gap="-0.01"
       copies_to_360="true"
       mirror_copies="false"
       split_items="false"
       link_styles="false" />
    <inkscape:path-effect
       effect="copy_rotate"
       starting_point="109.94069,148.30428"
       origin="105,148.30428"
       id="path-effect2008"
       is_visible="true"
       lpeversion="1.2"
       lpesatellites=""
       method="normal"
       num_copies="60"
       starting_angle="0"
       rotation_angle="6"
       gap="-0.01"
       copies_to_360="true"
       mirror_copies="false"
       split_items="false"
       link_styles="false" />
    <inkscape:path-effect
       effect="copy_rotate"
       starting_point="109.94069,148.30428"
       origin="105,148.30428"
       id="path-effect2001"
       is_visible="true"
       lpeversion="1.2"
       lpesatellites=""
       method="normal"
       num_copies="60"
       starting_angle="0"
       rotation_angle="6"
       gap="-0.01"
       copies_to_360="true"
       mirror_copies="false"
       split_items="false"
       link_styles="false" />
    <inkscape:path-effect
       effect="copy_rotate"
       starting_point="109.94069,148.30428"
       origin="105,148.30428"
       id="path-effect1994"
       is_visible="true"
       lpeversion="1.2"
       lpesatellites=""
       method="normal"
       num_copies="60"
       starting_angle="0"
       rotation_angle="6"
       gap="-0.01"
       copies_to_360="true"
       mirror_copies="false"
       split_items="false"
       link_styles="false" />
    <inkscape:path-effect
       effect="copy_rotate"
       starting_point="109.94069,148.30428"
       origin="105,148.30428"
       id="path-effect1987"
       is_visible="true"
       lpeversion="1.2"
       lpesatellites=""
       method="normal"
       num_copies="60"
       starting_angle="0"
       rotation_angle="6"
       gap="-0.01"
       copies_to_360="true"
       mirror_copies="false"
       split_items="false"
       link_styles="false" />
    <inkscape:path-effect
       effect="copy_rotate"
       starting_point="109.94069,148.30428"
       origin="105,148.30428"
       id="path-effect1980"
       is_visible="true"
       lpeversion="1.2"
       lpesatellites=""
       method="normal"
       num_copies="60"
       starting_angle="0"
       rotation_angle="6"
       gap="-0.01"
       copies_to_360="true"
       mirror_copies="false"
       split_items="false"
       link_styles="false" />
    <inkscape:path-effect
       effect="copy_rotate"
       starting_point="109.94069,148.30428"
       origin="105,148.30428"
       id="path-effect1973"
       is_visible="true"
       lpeversion="1.2"
       lpesatellites=""
       method="normal"
       num_copies="60"
       starting_angle="0"
       rotation_angle="6"
       gap="-0.01"
       copies_to_360="true"
       mirror_copies="false"
       split_items="false"
       link_styles="false" />
    <inkscape:path-effect
       effect="copy_rotate"
       starting_point="109.94069,148.30428"
       origin="105,148.30428"
       id="path-effect1925"
       is_visible="true"
       lpeversion="1.2"
       lpesatellites=""
       method="normal"
       num_copies="60"
       starting_angle="0"
       rotation_angle="6"
       gap="-0.01"
       copies_to_360="true"
       mirror_copies="false"
       split_items="false"
       link_styles="false" />
    <inkscape:path-effect
       effect="copy_rotate"
       starting_point="109.94069,148.30428"
       origin="105,148.30428"
       id="path-effect1918"
       is_visible="true"
       lpeversion="1.2"
       lpesatellites=""
       method="normal"
       num_copies="60"
       starting_angle="0"
       rotation_angle="6"
       gap="-0.01"
       copies_to_360="true"
       mirror_copies="false"
       split_items="false"
       link_styles="false" />
    <inkscape:path-effect
       effect="copy_rotate"
       starting_point="109.94069,148.30428"
       origin="105,148.30428"
       id="path-effect1822"
       is_visible="true"
       lpeversion="1.2"
       lpesatellites=""
       method="normal"
       num_copies="60"
       starting_angle="0"
       rotation_angle="6"
       gap="-0.01"
       copies_to_360="true"
       mirror_copies="false"
       split_items="false"
       link_styles="false" />
    <inkscape:path-effect
       effect="copy_rotate"
       starting_point="109.94069,148.30428"
       origin="105,148.30428"
       id="path-effect1546"
       is_visible="true"
       lpeversion="1.2"
       lpesatellites=""
       method="normal"
       num_copies="60"
       starting_angle="0"
       rotation_angle="60"
       gap="-0.01"
       copies_to_360="true"
       mirror_copies="false"
       split_items="false"
       link_styles="false" />
    <inkscape:path-effect
       effect="copy_rotate"
       starting_point="107.47309,148.30428"
       origin="105,148.30428"
       id="path-effect1542"
       is_visible="true"
       lpeversion="1.2"
       lpesatellites=""
       method="normal"
       num_copies="120"
       starting_angle="0"
       rotation_angle="360"
       gap="-0.01"
       copies_to_360="true"
       mirror_copies="false"
       split_items="false"
       link_styles="false" />
    <inkscape:path-effect
       effect="copy_rotate"
       starting_point="108.49799,148.30428"
       origin="105,148.30428"
       id="path-effect998"
       is_visible="true"
       lpeversion="1.2"
       lpesatellites=""
       method="normal"
       num_copies="60"
       starting_angle="0"
       rotation_angle="60"
       gap="-0.01"
       copies_to_360="true"
       mirror_copies="false"
       split_items="false"
       link_styles="false" />
    <inkscape:path-effect
       effect="copy_rotate"
       starting_point="114.6624,121.32478"
       origin="111.67686,121.32478"
       id="path-effect996"
       is_visible="true"
       lpeversion="1.2"
       lpesatellites=""
       method="normal"
       num_copies="6"
       starting_angle="0"
       rotation_angle="60"
       gap="-0.01"
       copies_to_360="true"
       mirror_copies="false"
       split_items="false"
       link_styles="false" />
    <inkscape:path-effect
       effect="copy_rotate"
       starting_point="106.64906,148.30428"
       origin="105,148.30428"
       id="path-effect993"
       is_visible="false"
       lpeversion="1.2"
       lpesatellites=""
       method="normal"
       num_copies="60"
       starting_angle="0"
       rotation_angle="6"
       gap="-0.01"
       copies_to_360="true"
       mirror_copies="false"
       split_items="false"
       link_styles="false" />
    <inkscape:path-effect
       effect="bend_path"
       id="path-effect1196"
       is_visible="true"
       lpeversion="1"
       bendpath="#path989"
       prop_scale="1.4"
       scale_y_rel="false"
       vertical="false"
       hide_knot="false" />
    <inkscape:path-effect
       effect="bend_path"
       id="path-effect1054"
       is_visible="true"
       lpeversion="1"
       bendpath="M0,0 L1,0"
       prop_scale="1.4"
       scale_y_rel="false"
       vertical="false"
       hide_knot="false" />
    <inkscape:path-effect
       effect="copy_rotate"
       starting_point="107.70906,148.30428"
       origin="105,148.30428"
       id="path-effect4657"
       is_visible="true"
       lpeversion="1.2"
       lpesatellites=""
       method="normal"
       num_copies="59"
       starting_angle="0"
       rotation_angle="6"
       gap="-0.01"
       copies_to_360="true"
       mirror_copies="false"
       split_items="false"
       link_styles="false" />
    <inkscape:path-effect
       effect="copy_rotate"
       starting_point="107.70906,148.30428"
       origin="105,148.30428"
       id="path-effect4651"
       is_visible="false"
       lpeversion="1.2"
       lpesatellites=""
       method="normal"
       num_copies="60"
       starting_angle="0"
       rotation_angle="60"
       gap="-0.01"
       copies_to_360="true"
       mirror_copies="false"
       split_items="false"
       link_styles="false" />
    <clipPath
       clipPathUnits="userSpaceOnUse"
       id="clipPath1221">
      <path
         style="display:inline;fill:#000000;fill-opacity:1;stroke:#000000;stroke-width:0.1"
         d="M 105,148.30427 110.41811,43.444159 105,43.304274 M 105,148.30427 99.241468,43.462303 93.839183,43.89912 M 105,148.30427 88.130072,44.668348 82.804823,45.676918 M 105,148.30427 77.209819,47.04863 72.021943,48.617525 M 105,148.30427 66.60444,50.576178 61.612718,52.687623 m 43.387272,95.616647 -48.565892,-93.093244 -4.73901,2.63007 M 104.99999,148.30427 46.814027,60.900657 42.381424,64.019553 M 104.99999,148.30427 37.853226,67.580605 33.777253,71.15299 m 71.222737,77.15128 -75.346765,-73.129084 -3.67316,3.985395 M 104.99999,148.30427 22.306933,83.598348 19.078204,87.951598 M 104.99999,148.30428 15.897587,92.754654 13.149871,97.426436 M 104.99999,148.30428 10.497807,102.54036 8.2622368,107.47774 M 104.99999,148.30428 6.1687739,112.84459 4.4706802,117.99162 M 104.99999,148.30428 2.9595385,123.55059 1.818161,128.84896 M 104.99999,148.30428 0.90646222,134.53706 0.33473328,139.92674 M 104.99999,148.30428 0.03280735,145.67952 l 0.0043975,5.41991 M 104.99999,148.30428 0.3484727,156.85172 0.9289468,162.24046 M 104.99999,148.30428 1.8498817,167.92707 2.9998554,173.22358 M 104.99999,148.30428 4.5200227,178.78009 l 1.7064437,5.14427 m 98.7735236,-35.62008 -96.671348,40.98353 2.243579,4.93374 m 94.427769,-45.91726 -91.767404,51.02687 2.755294,4.66732 m 89.01211,-55.69419 -85.823698,60.49207 3.23579,4.34801 m 82.587908,-64.84008 -78.907575,69.27187 3.679623,3.97943 m 75.227952,-73.2513 -71.097398,77.2668 4.081765,3.56576 m 67.015633,-80.83256 -62.481658,84.38626 4.437658,3.1117 M 105,148.30429 l -53.157987,90.54959 4.743272,2.62237 M 105,148.30429 l -43.232004,95.68695 4.995141,2.10334 M 105,148.30429 l -32.816185,99.74015 5.190414,1.56047 M 105,148.30429 82.971454,250.96754 l 5.326878,0.99992 M 105,148.30429 94.008685,252.72742 l 5.402986,0.42805 M 105,148.30429 l 0.17045,104.99986 5.41788,-0.14868 M 105,148.30429 l 11.33029,104.38689 5.37138,-0.72372 M 105,148.30429 l 22.36175,102.59118 5.26402,-1.29056 M 105,148.30429 l 33.13984,99.63308 5.09702,-1.84279 M 105,148.30429 l 43.54244,95.54609 4.87228,-2.37413 m -48.41471,-93.17196 53.45169,90.37652 4.59231,-2.87856 m -58.044,-87.49796 62.75531,84.18295 4.26032,-3.35039 m -67.01563,-80.83256 71.34789,77.03556 3.88006,-3.78426 m -75.22795,-73.2513 79.13207,69.01532 3.45584,-4.17524 m -82.58791,-64.84008 86.01965,60.21311 2.99246,-4.51892 m -89.01211,-55.6942 91.93259,50.72867 2.49518,-4.8114 m -94.42777,-45.91727 96.8039,40.66945 1.96962,-5.04937 m -98.77352,-35.62008 100.57838,30.14942 1.42175,-5.23012 m -102.00013,-24.9193 103.21327,19.28779 0.85777,-5.35161 m -104.07104,-13.93618 104.67872,8.20762 0.28407,-5.41247 m -104.96279,-2.79515 104.95811,-2.96554 -0.29285,-5.412 m -104.66526,8.37754 104.04828,-14.10511 -0.86645,-5.35021 m -103.18183,19.45532 101.95955,-25.08485 -1.43024,-5.22781 m -100.52931,30.31266 98.71557,-35.78038 -1.97782,-5.04616 m -96.73775,40.82654 94.3531,-46.0705 -2.50298,-4.807344 m -91.85012,50.877834 88.92158,-55.838613 -2.99979,-4.514059 m -85.92179,60.352672 82.48254,-64.974062 -3.46261,-4.169627 m -79.01993,69.143689 75.10894,-73.373328 -3.8862,-3.777952 m -71.22274,77.15128 66.88432,-80.941246 -4.26575,-3.343471 m -62.61857,84.284717 57.90188,-87.592066 -4.59698,-2.871108 M 105,148.30427 153.2634,55.053837 148.38728,52.687623 M 105,148.30427 l 38.07806,-97.852236 -5.1,-1.834509 M 105,148.30427 132.46129,46.958937 127.19518,45.676918 M 105,148.30427 121.53336,44.614122 116.16082,43.89912"
         id="path1223"
         transform="rotate(-32.629983,104.99775,148.30491)"
         inkscape:label="base layer"
         inkscape:original-d="M 105,148.30427 110.41811,43.444159 105,43.304274"
         inkscape:path-effect="#path-effect4657"
         class="UnoptimicedTransforms" />
    </clipPath>
  </defs>
  <g
     inkscape:label="Ebene 1"
     inkscape:groupmode="layer"
     id="layer1">
    <circle
       style="display:inline;fill:none;stroke:#000000;stroke-width:0.198595"
       id="path2619"
       cx="105"
       cy="148.30428"
       r="105" />
    <path
       id="text44287"
       style="font-weight:bold;font-size:239.91px;font-family:Arial;-inkscape-font-specification:'Arial, Bold';fill:#000000;stroke-width:0.479822"
       inkscape:label="0"
       d="M 104.99979 60.622139 C 104.48621 60.622139 103.97624 60.628543 103.46965 60.639709 L 103.94611 87.951221 C 104.29439 87.930734 104.64468 87.916597 104.99979 87.916597 L 104.99979 60.622139 z M 112.63188 61.070691 L 110.21084 88.742387 C 110.5515 88.856428 110.88858 88.980311 111.2206 89.118075 L 114.14704 61.275846 C 113.64573 61.20117 113.14105 61.132531 112.63188 61.070691 z M 95.852547 61.268095 C 95.345147 61.342802 94.84233 61.424297 94.343079 61.512008 L 97.785763 89.55009 C 98.112817 89.390294 98.443063 89.240419 98.77795 89.104122 L 95.852547 61.268095 z M 121.59154 62.947062 L 115.92419 92.104456 C 116.21115 92.356768 116.49267 92.633324 116.77013 92.929728 L 123.04314 63.415767 C 122.56377 63.252078 122.07973 63.096344 121.59154 62.947062 z M 86.950248 63.387345 C 86.466906 63.55089 85.987363 63.720868 85.513127 63.898942 L 92.396944 93.71521 C 92.660662 93.398279 92.928609 93.093247 93.204647 92.811906 L 86.950248 63.387345 z M 130.0179 66.473979 L 120.27018 98.357304 C 120.45824 98.756833 120.64273 99.172669 120.82467 99.600639 L 131.3434 67.227938 C 130.90614 66.969146 130.46448 66.717552 130.0179 66.473979 z M 78.639644 67.176261 C 78.201577 67.434074 77.767994 67.699044 77.339465 67.972078 L 88.58064 100.61918 C 88.746878 100.18195 88.918121 99.759428 89.09327 99.347941 L 78.639644 67.176261 z M 137.53321 71.660742 L 122.99818 105.90258 C 123.09085 106.23013 123.18415 106.55661 123.27465 106.89425 C 123.29487 106.96892 123.31405 107.04829 123.33407 107.12421 L 138.67319 72.67205 C 138.29749 72.327959 137.91793 71.99009 137.53321 71.660742 z M 71.299524 72.611589 C 70.925956 72.953455 70.557016 73.302575 70.192615 73.65907 L 86.377673 108.36806 C 86.467376 107.93322 86.558413 107.5066 86.652592 107.09476 L 71.299524 72.611589 z M 143.84497 78.226233 L 124.51385 113.10007 C 124.56901 113.46765 124.62296 113.84121 124.67559 114.22455 L 144.77153 79.417375 C 144.51985 79.083255 144.2664 78.752558 144.00878 78.428288 C 143.9548 78.359906 143.89919 78.29422 143.84497 78.226233 z M 65.203772 79.375 C 64.904797 79.776907 64.610681 80.186359 64.320105 80.601799 L 85.242342 115.4219 C 85.288756 115.05112 85.337001 114.69166 85.385486 114.33152 L 65.203772 79.375 z M 148.83691 85.698645 L 125.26109 119.36791 C 125.29033 119.67847 125.32195 119.97686 125.34997 120.29498 L 149.53868 87.001925 C 149.30794 86.562215 149.07477 86.126559 148.83691 85.698645 z M 60.455225 86.993656 C 60.229511 87.425866 60.007498 87.864083 59.788599 88.307271 L 84.634627 121.2789 C 84.660332 120.97886 84.685395 120.67494 84.712142 120.38025 L 60.455225 86.993656 z M 152.554 93.599455 L 125.66882 124.52728 C 125.68562 124.78386 125.70383 125.03144 125.71997 125.29209 L 153.06714 94.920304 C 152.89901 94.475314 152.72764 94.035306 152.554 93.599455 z M 56.932442 94.920304 C 56.767981 95.355674 56.603801 95.791083 56.444617 96.234953 L 84.280644 126.08584 C 84.295907 125.84066 84.309238 125.58492 84.325085 125.34274 L 56.932442 94.920304 z M 155.24169 101.45272 L 125.91169 128.80402 C 125.92181 129.01537 125.93038 129.23577 125.94012 129.44946 L 155.60807 102.73636 C 155.48825 102.3047 155.3657 101.87745 155.24169 101.45272 z M 54.389445 102.7343 C 54.272018 103.15634 54.154037 103.57754 54.040629 104.00605 L 84.063086 130.1042 C 84.072853 129.89474 84.083432 129.68748 84.093575 129.47995 L 54.389445 102.7343 z M 157.15061 109.00575 L 126.06104 132.43378 C 126.06761 132.61753 126.07384 132.80346 126.08016 132.98878 L 157.40641 110.22841 C 157.32224 109.81907 157.23796 109.40984 157.15061 109.00575 z M 52.585937 110.22325 C 52.503238 110.6241 52.422172 111.02771 52.342542 111.43351 L 83.922009 133.54534 C 83.928429 133.3634 83.936002 133.18593 83.94268 133.00532 L 52.585937 110.22325 z M 158.48748 116.16552 L 126.15922 135.59017 C 126.16358 135.75254 126.16745 135.9171 126.17163 136.08058 L 158.66628 117.31997 C 158.60771 116.93353 158.54852 116.54788 158.48748 116.16552 z M 51.321932 117.31325 C 51.264323 117.69221 51.207648 118.07301 51.152433 118.45582 L 83.829508 136.56944 C 83.833787 136.40826 83.838478 136.24959 83.842944 136.08937 L 51.321932 117.31325 z M 159.41663 122.92945 L 126.22537 138.40654 C 126.22826 138.55264 126.23037 138.7035 126.23312 138.85044 L 159.536 124.02292 C 159.49615 123.65839 159.45843 123.29074 159.41663 122.92945 z M 50.450667 124.01775 C 50.411237 124.37804 50.37086 124.73646 50.333362 125.09986 L 83.767497 139.29176 C 83.770333 139.14614 83.773303 138.99945 83.776282 138.85457 L 50.450667 124.01775 z M 160.04036 129.35231 L 126.27033 140.98003 C 126.27222 141.11583 126.27371 141.25488 126.2755 141.39137 L 160.12201 130.39411 C 160.09579 130.04499 160.0682 129.69874 160.04036 129.35231 z M 49.863623 130.38946 C 49.837917 130.73287 49.814355 131.07907 49.790243 131.42505 L 83.724605 141.79961 C 83.726416 141.6656 83.727331 141.52635 83.729256 141.39292 L 49.863623 130.38946 z M 160.44189 135.50439 L 126.29513 143.38763 C 126.29631 143.51811 126.29818 143.64568 126.29927 143.77675 L 160.4946 136.50846 C 160.4789 136.17073 160.45898 135.83982 160.44189 135.50439 z M 49.495687 136.5064 C 49.480497 136.83737 49.468693 137.17421 49.454862 137.50737 L 83.698767 144.16381 C 83.699855 144.03318 83.70171 143.90737 83.702901 143.77727 L 49.495687 136.5064 z M 160.66978 141.46888 L 126.31115 145.68723 C 126.31174 145.81167 126.3122 145.939 126.3127 146.06395 L 160.69665 142.45022 C 160.68943 142.12038 160.67823 141.79668 160.66978 141.46888 z M 49.2988 142.4497 C 49.291995 142.77417 49.287858 143.10307 49.282263 143.42949 L 83.686365 146.43964 C 83.686829 146.3145 83.68736 146.18863 83.687915 146.06395 L 49.2988 142.4497 z M 160.75453 147.33106 L 126.31839 147.93206 C 126.31848 148.05797 126.31993 148.17771 126.31994 148.30413 L 160.7597 148.30413 C 160.75963 147.977 160.75572 147.65631 160.75453 147.33106 z M 49.241439 148.30413 C 49.241742 148.631 49.244776 148.9523 49.24609 149.27719 L 83.68068 148.6762 C 83.680624 148.57008 83.679647 148.4695 83.679647 148.36304 C 83.679647 148.34304 83.679645 148.32411 83.679647 148.30413 L 49.241439 148.30413 z M 126.31374 150.16861 C 126.3133 150.29392 126.31271 150.41946 126.31219 150.5443 L 160.69768 154.15803 C 160.70471 153.83399 160.70788 153.50424 160.7137 153.17825 L 126.31374 150.16861 z M 83.686882 150.5443 L 49.3019 154.15803 C 49.308664 154.48842 49.319346 154.81168 49.327222 155.13988 L 83.687915 150.92102 C 83.687358 150.7964 83.687357 150.66943 83.686882 150.5443 z M 126.30288 152.44496 C 126.30183 152.57575 126.29991 152.70125 126.29875 152.8315 L 160.49718 160.10031 C 160.51254 159.76972 160.52347 159.4321 160.53749 159.09933 L 126.30288 152.44496 z M 83.699284 152.8315 L 49.489486 160.10341 C 49.503967 160.44159 49.521798 160.77333 49.537545 161.10903 L 83.703418 153.22114 C 83.702267 153.09031 83.700339 152.96291 83.699284 152.8315 z M 126.27653 154.80916 C 126.27475 154.94332 126.27377 155.08228 126.27188 155.21585 L 160.12459 166.21518 C 160.15047 165.87148 160.17575 165.52689 160.20004 165.18062 L 126.27653 154.80916 z M 83.723572 155.2174 L 49.832617 166.22913 C 49.856803 166.57916 49.881874 166.92692 49.907548 167.27403 L 83.727706 155.62874 C 83.725869 155.49441 83.725302 155.35239 83.723572 155.2174 z M 126.23467 157.31805 C 126.23187 157.46368 126.22934 157.60981 126.2264 157.75471 L 159.53652 172.58533 C 159.57599 172.22541 159.61574 171.86626 159.6533 171.50323 L 126.23467 157.31805 z M 83.764913 157.75833 L 50.373669 172.62512 C 50.410725 172.99217 50.447447 173.36081 50.486324 173.72428 L 83.772664 158.20275 C 83.769814 158.05623 83.767628 157.90568 83.764913 157.75833 z M 126.17318 160.04088 C 126.16894 160.20228 126.16417 160.36051 126.15974 160.52095 L 158.66422 179.28725 C 158.72187 178.90811 158.77896 178.52821 158.83423 178.1452 L 126.17318 160.04088 z M 83.825374 160.52922 L 51.18654 179.37355 C 51.241472 179.76308 51.295676 180.15389 51.352938 180.53885 L 83.837777 161.01963 C 83.833474 160.85697 83.829498 160.69299 83.825374 160.52922 z M 126.08171 163.0655 C 126.07533 163.24789 126.06768 163.42498 126.06104 163.60603 L 157.40125 186.37622 C 157.48386 185.97538 157.56507 185.57227 157.64464 185.16648 L 126.08171 163.0655 z M 83.915808 163.62257 L 52.377681 186.53642 C 52.457806 186.95037 52.535814 187.36821 52.61901 187.77614 L 83.934928 164.17758 C 83.928422 163.9935 83.922063 163.80821 83.915808 163.62257 z M 125.94115 166.50818 C 125.93142 166.71811 125.92128 166.92498 125.91118 167.13295 L 155.60032 193.86465 C 155.71749 193.44283 155.83492 193.02121 155.9481 192.5929 L 125.94115 166.50818 z M 84.054301 167.16344 L 54.104191 194.1313 C 54.220948 194.57031 54.342898 194.99917 54.463859 195.42993 L 84.08324 167.8094 C 84.07321 167.59735 84.063955 167.37781 84.054301 167.16344 z M 125.72463 170.52861 C 125.70939 170.77433 125.69601 171.02955 125.68018 171.27223 L 153.06042 201.68123 C 153.22469 201.24559 153.38924 200.81025 153.54825 200.36606 L 125.72463 170.52861 z M 84.271342 171.32494 L 56.606364 202.05072 C 56.773934 202.5012 56.943121 202.94833 57.11641 203.38759 L 84.322502 172.09079 C 84.305836 171.83321 84.287356 171.58655 84.271342 171.32494 z M 125.37168 175.33865 C 125.346 175.63897 125.32089 175.94189 125.29416 176.23679 L 149.54229 209.61149 C 149.76776 209.17913 149.98973 208.74077 150.2084 208.29736 L 125.37168 175.33865 z M 84.638245 176.32981 L 60.169454 210.00785 C 60.405783 210.44631 60.646346 210.87582 60.89034 211.29925 L 84.725578 177.25895 C 84.696686 176.94791 84.665936 176.64827 84.638245 176.32981 z M 124.76396 181.19721 C 124.71752 181.5679 124.66934 181.9287 124.62082 182.28861 L 144.79633 217.23325 C 145.09516 216.83142 145.38955 216.42244 145.68 216.00697 L 124.76396 181.19721 z M 85.304871 182.41677 L 65.10352 217.40688 C 65.420516 217.79302 65.740578 218.17278 66.063668 218.54687 L 85.463517 183.54797 C 85.409196 183.17956 85.356708 182.80056 85.304871 182.41677 z M 123.62605 188.24794 C 123.53591 188.68234 123.44475 189.10819 123.35009 189.51918 L 138.70058 223.99718 C 139.07423 223.65523 139.44301 223.30576 139.80749 222.94918 L 123.62605 188.24794 z M 86.627787 189.56827 L 71.346549 223.89073 C 71.727171 224.22498 72.110781 224.55271 72.498417 224.8731 L 86.963684 190.79507 C 86.884149 190.51432 86.803491 190.23674 86.725456 189.94861 C 86.692334 189.82504 86.660369 189.69519 86.627787 189.56827 z M 121.42101 195.99424 C 121.25521 196.43209 121.08409 196.85534 120.90942 197.26806 L 131.35994 229.43251 C 131.79808 229.17466 132.23204 228.90977 132.66064 228.63669 L 121.42101 195.99424 z M 89.138228 197.12078 L 78.70269 229.23872 C 79.140014 229.49661 79.581832 229.74544 80.02664 229.98855 L 89.691683 198.37445 C 89.503894 197.97219 89.320178 197.5518 89.138228 197.12078 z M 117.61608 202.94989 C 117.35322 203.27228 117.08556 203.58206 116.81044 203.86973 L 123.04934 233.22142 C 123.53286 233.05782 124.01256 232.88797 124.48698 232.70983 L 117.61608 202.94989 z M 93.192244 203.85526 L 86.980737 233.07828 C 87.459424 233.24621 87.941617 233.40706 88.427677 233.56042 L 94.041288 204.68001 C 93.753983 204.42591 93.470313 204.15483 93.192244 203.85526 z M 112.22002 207.10519 C 111.89229 207.26062 111.56137 207.40621 111.22577 207.53875 L 114.14755 235.34067 C 114.65496 235.26597 115.15776 235.18396 115.65702 235.09624 L 112.22002 207.10519 z M 98.774333 207.53875 L 95.856681 235.29675 C 96.35788 235.37523 96.862295 235.44769 97.370284 235.51276 L 99.786157 207.8979 C 99.445282 207.78889 99.107456 207.67032 98.774333 207.53875 z M 106.05347 208.65858 C 105.70536 208.67843 105.35473 208.69165 104.99979 208.69165 L 104.99979 235.98611 C 105.51355 235.98611 106.0237 235.98023 106.53045 235.96906 L 106.05347 208.65858 z " />
    <path
       id="text44341"
       style="font-weight:bold;font-size:239.91px;font-family:Arial;-inkscape-font-specification:'Arial, Bold';fill:#000000;stroke-width:0.479822"
       inkscape:label="1"
       d="M 123.32581 62.08665 L 109.80312 125.70602 L 109.80312 127.49919 L 124.90504 62.08665 L 123.32581 62.08665 z M 133.0141 62.08665 L 109.80312 133.52105 L 109.80312 134.35459 L 134.68739 62.08665 L 133.0141 62.08665 z M 142.71997 63.583199 L 109.80312 137.51564 L 109.80312 138.00346 L 142.71997 67.413456 L 142.71997 63.583199 z M 115.38159 63.751664 C 114.79538 65.233103 114.14408 66.68785 113.4277 68.116256 L 108.88793 111.31104 C 109.13472 111.08533 109.38085 110.85858 109.62587 110.63046 L 115.38159 63.751664 z M 106.20799 79.099048 C 105.81418 79.573171 105.41131 80.043941 104.99979 80.510848 L 104.99979 114.70566 C 105.19898 114.53973 105.39699 114.37231 105.5951 114.20492 L 106.20799 79.099048 z M 142.71997 82.971163 L 109.80312 139.98474 L 109.80312 140.3103 L 142.71997 85.528113 L 142.71997 82.971163 z M 99.550513 86.018522 C 99.220395 86.317358 98.885851 86.61447 98.547473 86.909941 L 101.74314 117.31635 C 101.91401 117.1846 102.08359 117.05121 102.25371 116.91844 L 99.550513 86.018522 z M 93.809778 90.73503 C 93.508134 90.963202 93.207285 91.188365 92.906991 91.411991 L 98.868384 119.45886 C 99.021903 119.34824 99.175361 119.23746 99.328304 119.12606 L 93.809778 90.73503 z M 88.557385 94.523946 C 88.275811 94.717059 87.993327 94.912754 87.712992 95.101689 L 96.226685 121.30371 C 96.369724 121.20685 96.514072 121.11183 96.656632 121.01432 L 88.557385 94.523946 z M 142.71997 96.386882 L 109.80312 141.69316 L 109.80312 141.92984 L 142.71997 98.248267 L 142.71997 96.386882 z M 83.552523 97.776461 C 83.277245 97.945191 83.001794 98.115272 82.727767 98.279789 L 93.714176 122.9558 C 93.852149 122.86774 93.991077 122.7809 94.128621 122.69225 L 83.552523 97.776461 z M 78.576082 100.63468 C 78.294617 100.78506 78.014355 100.93287 77.734273 101.07858 L 91.248177 124.48594 C 91.385446 124.40328 91.522661 124.3206 91.659521 124.23738 L 78.576082 100.63468 z M 73.398621 103.17251 C 73.097276 103.30655 72.796524 103.43897 72.496867 103.56732 L 88.754789 125.94477 C 88.895323 125.86499 89.034799 125.78378 89.174919 125.70344 L 73.398621 103.17251 z M 67.704395 105.4008 C 67.563146 105.44824 67.420464 105.50095 67.279614 105.54705 L 67.279614 106.41159 L 86.155465 127.37569 C 86.30372 127.29659 86.450521 127.21561 86.598332 127.13591 L 67.704395 105.4008 z M 142.71997 106.41159 L 109.80312 142.96957 L 109.80312 143.15302 L 142.71997 107.8544 L 142.71997 106.41159 z M 67.279614 113.12953 L 67.279614 114.34031 L 83.359253 128.81849 C 83.520832 128.73791 83.68084 128.65534 83.841911 128.57406 L 67.279614 113.12953 z M 142.71997 114.34082 L 109.80312 143.97933 L 109.80312 144.12867 L 142.71997 115.5144 L 142.71997 114.34082 z M 67.279614 119.88002 L 67.279614 120.89908 L 80.240063 130.31504 C 80.423304 130.23037 80.606256 130.14529 80.788867 130.05976 L 67.279614 119.88002 z M 142.71997 120.89908 L 109.80312 144.81442 L 109.80312 144.94102 L 142.71997 121.8923 L 142.71997 120.89908 z M 67.279614 125.63936 L 67.279614 126.52664 L 76.615479 131.9165 C 76.83268 131.82481 77.049212 131.73235 77.265568 131.63951 L 67.279614 125.63936 z M 142.71997 126.52664 L 109.80312 145.53117 L 109.80312 145.64176 L 142.71997 127.39532 L 142.71997 126.52664 z M 67.279614 130.71502 L 67.279614 131.51032 L 72.173372 133.689 C 72.446417 133.58619 72.719118 133.48296 72.990894 133.37842 L 67.279614 130.71502 z M 142.71997 131.51032 L 109.80312 146.16576 L 109.80312 146.26549 L 142.71997 132.29322 L 142.71997 131.51032 z M 67.279614 135.31629 L 67.279614 135.41861 C 67.329941 135.40199 67.379706 135.38464 67.429993 135.36796 L 67.279614 135.31629 z M 142.71997 136.04803 L 109.80312 146.7435 L 109.80312 146.83548 L 142.71997 136.77201 L 142.71997 136.04803 z M 142.71997 140.28653 L 109.80312 147.283 L 109.80312 147.37033 L 142.71997 140.97227 L 142.71997 140.28653 z M 142.71997 144.33951 L 109.80312 147.79925 L 109.80312 147.884 L 142.71997 145.00407 L 142.71997 144.33951 z M 109.80312 148.30413 L 109.80312 148.38784 L 142.71997 148.96248 L 142.71997 148.30413 L 109.80312 148.30413 z M 109.80312 148.809 L 109.80312 148.89375 L 142.71997 152.93588 L 142.71997 152.26874 L 109.80312 148.809 z M 109.80312 149.32525 L 109.80312 149.4131 L 142.71997 157.01264 L 142.71997 156.32172 L 109.80312 149.32525 z M 109.80312 149.86475 L 109.80312 149.95829 L 142.71997 161.29248 L 142.71997 160.56023 L 109.80312 149.86475 z M 109.80312 150.4425 L 109.80312 150.54378 L 142.71997 165.89323 L 142.71997 165.09845 L 109.80312 150.4425 z M 109.80312 151.07708 L 109.80312 151.19025 L 142.71997 170.96889 L 142.71997 170.08212 L 109.80312 151.07708 z M 109.80312 151.79384 L 109.80312 151.92354 L 142.71997 176.72823 L 142.71997 175.70969 L 109.80312 151.79384 z M 109.80312 152.62893 L 109.80312 152.78344 L 142.71997 183.47872 L 142.71997 182.26743 L 109.80312 152.62893 z M 109.80312 153.63868 L 109.80312 153.82989 L 142.71997 191.69631 L 142.71997 190.19666 L 109.80312 153.63868 z M 109.80312 154.91509 L 109.80312 155.16417 L 142.71997 202.17422 L 142.71997 200.22137 L 109.80312 154.91509 z M 109.80312 156.62351 L 109.80312 156.96975 L 142.71997 216.35269 L 142.71997 213.63761 L 109.80312 156.62351 z M 109.80312 159.09261 L 109.80312 159.62023 L 141.59756 234.52212 L 142.71997 234.52212 L 142.71997 233.02505 L 109.80312 159.09261 z M 109.80312 163.0872 L 109.80312 164.01479 L 131.35942 234.52212 L 133.0141 234.52212 L 109.80312 163.0872 z M 109.80312 170.90223 L 109.80312 173.01528 L 121.75898 234.52212 L 123.32581 234.52212 L 109.80312 170.90223 z M 109.80312 194.0047 L 109.80312 203.2062 L 112.543 234.52212 L 114.06177 234.52212 L 109.80312 194.0047 z " />
    <path
       id="text44345"
       style="font-weight:bold;font-size:239.91px;font-family:Arial;-inkscape-font-specification:'Arial, Bold';fill:#000000;stroke-width:0.479822"
       inkscape:label="2"
       d="M 108.01098 62.0882 C 107.50595 62.089376 107.00413 62.095121 106.50461 62.104736 L 106.02815 89.411597 C 106.36709 89.397403 106.71138 89.391371 107.05755 89.387826 L 108.01098 62.0882 z M 115.5485 62.392574 L 112.1916 89.735091 C 112.53471 89.788496 112.8722 89.849883 113.20601 89.915442 L 117.05384 62.536751 C 116.55577 62.484132 116.05394 62.435919 115.5485 62.392574 z M 99.00636 62.590495 C 98.506776 62.646786 98.00991 62.707131 97.516528 62.772913 L 99.929301 90.347457 C 100.25815 90.254354 100.59124 90.167671 100.92924 90.088041 L 99.00636 62.590495 z M 124.52522 63.732544 L 118.12251 91.465735 C 118.43993 91.61067 118.75147 91.763015 119.05733 91.923071 L 126.00058 64.076192 C 125.51286 63.956524 125.02152 63.841405 124.52522 63.732544 z M 90.163489 64.161975 C 89.678066 64.282403 89.196145 64.40777 88.717582 64.538696 L 94.235075 92.924044 C 94.52996 92.729909 94.830586 92.544113 95.136312 92.365938 L 90.163489 64.161975 z M 133.21461 66.362874 L 123.34699 95.020557 C 123.46063 95.130724 123.57327 95.242025 123.68444 95.35542 C 123.83028 95.498396 123.97234 95.644502 124.11284 95.792086 L 134.61452 66.939583 C 134.15291 66.740801 133.68593 66.549442 133.21461 66.362874 z M 81.671501 66.947852 C 81.213113 67.138389 80.757789 67.334183 80.306726 67.535929 L 89.445186 97.426095 C 89.674045 97.115412 89.909853 96.815453 90.152637 96.526925 L 81.671501 66.947852 z M 141.30042 70.458232 L 127.31419 100.45123 C 127.48664 100.80986 127.64911 101.17741 127.80253 101.55246 L 142.56236 71.290739 C 142.14628 71.007443 141.7269 70.728445 141.30042 70.458232 z M 73.770691 71.009619 C 73.353206 71.269872 72.938433 71.534311 72.528389 71.805953 L 86.168384 103.93991 C 86.305032 103.53507 86.447775 103.13993 86.596265 102.75393 L 73.770691 71.009619 z M 148.42195 76.038253 L 129.3766 107.73451 C 129.43304 108.16994 129.48114 108.61274 129.52026 109.06311 L 149.49578 77.096069 C 149.14461 76.740444 148.78714 76.387433 148.42195 76.038253 z M 66.725126 76.318856 C 66.366034 76.653567 66.015006 76.997921 65.667826 77.347217 L 84.479598 111.2852 C 84.538997 110.87348 84.604598 110.47212 84.671834 110.07287 L 66.725126 76.318856 z M 154.34613 82.820268 L 129.42828 115.88647 C 129.36924 116.35994 129.29828 116.83382 129.2164 117.30809 L 155.20138 84.049133 C 154.92467 83.635647 154.63818 83.226706 154.34613 82.820268 z M 60.974573 83.033691 C 60.697607 83.437856 60.42666 83.849606 60.160669 84.267208 L 82.416158 116.05131 L 83.304993 116.1402 L 60.974573 83.033691 z M 158.81046 90.599638 L 127.04289 124.66578 C 126.83493 125.16431 126.61421 125.66345 126.38143 126.16284 L 159.39389 91.977848 C 159.20758 91.514706 159.01256 91.05552 158.81046 90.599638 z M 56.704549 90.748466 C 56.509317 91.189854 56.318525 91.636304 56.132491 92.088953 L 76.443396 115.45393 L 77.526017 115.56246 L 56.704549 90.748466 z M 53.807052 98.867867 C 53.680865 99.315219 53.559139 99.767695 53.440149 100.22386 L 68.970984 114.70669 L 70.351778 114.84467 L 53.807052 98.867867 z M 161.58032 99.119531 L 122.08971 133.44819 C 121.7369 133.91901 121.33154 134.43052 120.89546 134.96592 L 161.87126 100.58352 C 161.78118 100.0924 161.68526 99.603822 161.58032 99.119531 z M 52.010779 106.90459 C 51.936476 107.33732 51.864141 107.77207 51.795288 108.21148 L 59.105436 113.72019 L 60.973539 113.90726 L 52.010779 106.90459 z M 162.65622 107.93295 L 115.70198 140.81053 C 115.46507 141.0618 115.23243 141.30977 114.98575 141.56862 L 162.68774 109.39281 C 162.68353 108.90326 162.67311 108.41667 162.65622 107.93295 z M 162.33428 116.52312 L 112.47427 144.16123 C 112.35828 144.27939 112.24625 144.39418 112.12856 144.51366 L 162.16788 117.90753 C 162.22867 117.44741 162.28411 116.9859 162.33428 116.52312 z M 160.88992 124.58051 L 110.81856 145.83451 C 110.7524 145.90088 110.68625 145.96671 110.6196 146.03346 L 160.55144 125.86002 C 160.66919 125.43468 160.7819 125.00828 160.88992 124.58051 z M 158.50505 131.94595 L 109.8274 146.82825 C 109.78524 146.87021 109.73901 146.91533 109.69666 146.95744 L 158.03945 133.09524 C 158.1884 132.7366 158.33581 132.37819 158.47611 132.0214 C 158.48613 131.99635 158.49507 131.97101 158.50505 131.94595 z M 155.51247 138.4856 L 109.14993 147.49746 C 109.11958 147.52751 109.08838 147.55828 109.05794 147.58841 L 154.97555 139.49226 C 155.15716 139.15603 155.33802 138.8203 155.51247 138.4856 z M 152.25221 144.17001 L 108.65745 147.98425 C 108.63402 148.00737 108.61117 148.03033 108.58769 148.0535 L 151.7003 145.03869 C 151.88575 144.74888 152.07182 144.45874 152.25221 144.17001 z M 108.27556 148.36149 C 108.25661 148.38015 108.23874 148.39809 108.21975 148.41678 L 148.44727 149.82135 C 148.62762 149.57098 148.80333 149.32162 148.98005 149.07204 L 108.27556 148.36149 z M 107.96499 148.66844 C 107.94905 148.6841 107.93444 148.69876 107.91848 148.71444 L 145.32085 153.97096 C 145.33206 153.9567 145.34482 153.94127 145.35599 153.92704 C 145.51614 153.7232 145.67048 153.52059 145.82831 153.31726 L 107.96499 148.66844 z M 107.70092 148.92786 C 107.68778 148.94075 107.67377 148.95475 107.66061 148.96765 L 142.26367 157.59503 C 142.43308 157.40471 142.60857 157.21045 142.77165 157.02452 L 107.70092 148.92786 z M 107.46889 149.1542 C 107.45711 149.16574 107.44451 149.1778 107.43272 149.18934 L 139.31604 160.79432 C 139.47874 160.62304 139.63801 160.45428 139.79663 160.28582 L 107.46889 149.1542 z M 107.26012 149.35781 C 107.24922 149.36847 107.23796 149.37969 107.22705 149.39036 L 136.51777 163.67631 C 136.6691 163.5234 136.82754 163.36585 136.97614 163.21484 L 107.26012 149.35781 z M 107.06685 149.54643 C 107.05666 149.55638 107.04604 149.56644 107.03584 149.5764 L 133.85074 166.33197 C 133.9969 166.18852 134.14439 166.04452 134.28844 165.90253 L 107.06685 149.54643 z M 106.88443 149.72419 C 106.87454 149.73385 106.86436 149.74347 106.85446 149.75313 L 131.27416 168.83156 C 131.41768 168.69379 131.55664 168.55935 131.69842 168.42279 L 106.88443 149.72419 z M 106.7077 149.89679 C 106.69793 149.90632 106.68802 149.91568 106.67824 149.92522 L 128.74615 171.23554 C 128.88509 171.10454 129.02876 170.97023 129.16628 170.84022 L 106.7077 149.89679 z M 106.53252 150.06733 C 106.5227 150.07689 106.51289 150.08618 106.50306 150.09575 L 126.21969 173.59302 C 126.35908 173.46354 126.5048 173.32991 126.64292 173.20131 L 106.53252 150.06733 z M 106.35527 150.23993 C 106.34513 150.24978 106.33543 150.25952 106.32529 150.26938 L 123.65757 175.96549 C 123.70767 175.91952 123.75147 175.87931 123.80175 175.83319 C 123.90155 175.74164 123.99037 175.65769 124.08958 175.56654 L 106.35527 150.23993 z M 106.17181 150.41873 C 106.1611 150.42914 106.15102 150.43931 106.14029 150.44973 L 121.00605 178.4072 C 121.15256 178.27203 121.3079 178.12887 121.45615 177.99224 L 106.17181 150.41873 z M 105.97803 150.60838 C 105.96654 150.61953 105.95542 150.62977 105.94392 150.64093 L 118.20881 180.99722 C 118.3676 180.84967 118.52716 180.70188 118.68836 180.55229 L 105.97803 150.60838 z M 105.76719 150.81353 C 105.75438 150.82595 105.7428 150.83779 105.72998 150.85022 L 115.18418 183.82134 C 115.35866 183.65756 115.53011 183.49619 115.70818 183.32938 L 105.76719 150.81353 z M 105.53206 151.04194 C 105.51831 151.05526 105.50345 151.06944 105.48969 151.08277 L 111.82315 186.99944 C 112.01397 186.81737 112.21559 186.62575 112.41226 186.43875 L 105.53206 151.04194 z M 105.26231 151.30188 C 105.24615 151.31751 105.22888 151.33377 105.2127 151.34942 L 107.96705 190.73461 C 108.19934 190.50527 108.40575 190.29792 108.6528 190.0561 L 105.26231 151.30188 z M 104.94191 151.60987 C 104.92224 151.62887 104.90219 151.64872 104.88249 151.66774 L 103.34925 195.57463 C 103.56603 195.32016 103.78093 195.06585 104.0045 194.81033 C 104.06204 194.7464 104.13087 194.67282 104.19157 194.60621 L 104.94191 151.60987 z M 104.54711 151.99072 C 104.52198 152.01494 104.49683 152.03933 104.47166 152.06359 L 92.882703 234.52212 L 94.413875 234.52212 L 98.167651 203.94724 L 97.326876 203.94724 C 97.656794 203.37738 98.011654 202.8041 98.379008 202.22848 L 104.54711 151.99072 z M 104.03499 152.48423 C 104.00076 152.51714 103.96751 152.54892 103.93319 152.5819 L 83.50343 234.52212 L 85.095064 234.52212 L 104.03499 152.48423 z M 103.32496 153.16791 C 103.27731 153.21357 103.22653 153.26165 103.17872 153.30744 L 73.619279 234.52212 L 75.312716 234.52212 L 103.32496 153.16791 z M 102.25732 154.18594 C 102.17913 154.26051 102.10029 154.33531 102.02168 154.41021 L 62.948612 234.52212 L 64.796045 234.52212 L 102.25732 154.18594 z M 100.41093 155.94087 C 100.26455 156.07944 100.11216 156.22294 99.964441 156.36255 L 51.125045 234.52212 L 53.195203 234.52212 L 100.41093 155.94087 z M 96.41427 159.69723 C 96.130153 159.96258 95.858333 160.21864 95.569877 160.48736 C 95.457666 160.59149 95.351941 160.69199 95.240181 160.79587 L 51.248035 217.10406 C 50.73867 218.55441 50.273329 220.01535 49.852254 221.48777 L 96.41427 159.69723 z M 103.05676 203.94724 L 101.98912 234.52212 L 103.49497 234.52212 L 104.02879 203.94724 L 103.05676 203.94724 z M 108.89103 203.94724 L 111.02888 234.52212 L 112.543 234.52212 L 109.86771 203.94724 L 108.89103 203.94724 z M 114.8116 203.94724 L 120.20248 234.52212 L 121.75898 234.52212 L 115.81567 203.94724 L 114.8116 203.94724 z M 120.95489 203.94724 L 129.72231 234.52212 L 131.35942 234.52212 L 122.01167 203.94724 L 120.95489 203.94724 z M 127.48111 203.94724 L 139.83436 234.52212 L 141.59756 234.52212 L 128.61902 203.94724 L 127.48111 203.94724 z M 134.58558 203.94724 L 150.84299 234.52212 L 152.79171 234.52212 L 135.84339 203.94724 L 134.58558 203.94724 z M 142.53135 203.94724 L 162.69343 233.83844 L 162.69343 230.6991 L 143.96176 203.94724 L 142.53135 203.94724 z M 151.68997 203.94724 L 162.69343 217.06065 L 162.69343 214.6732 L 153.36945 203.94724 L 151.68997 203.94724 z M 162.62005 203.94724 L 162.69343 204.01804 L 162.69343 203.94724 L 162.62005 203.94724 z " />
    <path
       id="text44349"
       style="font-weight:bold;font-size:239.91px;font-family:Arial;-inkscape-font-specification:'Arial, Bold';fill:#000000;stroke-width:0.479822"
       inkscape:label="3"
       d="M 100.40782 60.686218 C 99.895315 60.707148 99.385728 60.734383 98.878719 60.766317 L 100.76543 87.746065 C 101.11464 87.721127 101.46732 87.704383 101.82324 87.695422 L 100.40782 60.686218 z M 108.05697 60.775102 L 107.10147 88.12227 C 107.45347 88.191945 107.80075 88.268915 108.14172 88.35533 L 109.58091 60.893441 C 109.07622 60.848706 108.56861 60.808652 108.05697 60.775102 z M 91.281767 61.690808 C 90.778294 61.783831 90.277438 61.882239 89.78005 61.987431 L 94.571488 89.160966 C 94.901408 89.026146 95.235307 88.900611 95.572978 88.784245 L 91.281767 61.690808 z M 117.12463 62.034973 L 113.13005 90.454944 C 113.44757 90.652816 113.7603 90.857525 114.06384 91.076611 L 118.60878 62.380172 C 118.11823 62.258537 117.62304 62.143966 117.12463 62.034973 z M 82.42856 64.06689 C 81.948588 64.238817 81.472203 64.417447 80.998674 64.602258 L 89.029708 92.609334 C 89.311684 92.364341 89.597361 92.128584 89.88702 91.901884 L 82.42856 64.06689 z M 125.83315 64.746436 L 118.1995 95.363171 C 118.44196 95.725481 118.67299 96.095477 118.8868 96.477315 L 127.22789 65.348983 C 126.7673 65.141148 126.30226 64.940553 125.83315 64.746436 z M 74.11744 67.852706 C 73.673381 68.102715 73.235859 68.358176 72.804858 68.619067 L 84.637211 97.904618 C 84.839657 97.559182 85.047092 97.219479 85.264046 96.890727 L 74.11744 67.852706 z M 133.86056 69.010258 L 121.14299 103.95128 C 121.20889 104.59162 121.2515 105.24789 121.26908 105.92118 L 135.10907 69.866536 C 134.69736 69.573987 134.2809 69.288915 133.86056 69.010258 z M 66.669316 73.076676 C 66.286533 73.410081 65.910063 73.748734 65.541736 74.094185 L 81.847717 104.76156 C 81.957631 104.35059 82.07409 103.94684 82.196533 103.55027 L 66.669316 73.076676 z M 140.89373 74.711202 L 104.99979 148.30413 L 141.95361 75.778837 C 141.60448 75.416264 141.25094 75.060762 140.89373 74.711202 z M 104.99979 148.30413 L 147.59461 82.713814 C 147.32124 82.304527 147.03819 81.89797 146.74815 81.493217 L 104.99979 148.30413 z M 104.99979 148.30413 L 151.72356 90.605322 C 151.54416 90.143022 151.35469 89.683316 151.15667 89.226078 L 104.99979 148.30413 z M 104.99979 148.30413 L 153.96476 99.339673 C 153.8975 98.836245 153.82303 98.334557 153.73635 97.836405 L 104.99979 148.30413 z M 104.99979 148.30413 L 154.12703 108.52154 C 154.1771 108.01224 154.21602 107.49887 154.24588 106.9821 L 104.99979 148.30413 z M 104.99979 148.30413 L 151.93336 117.82537 C 152.13237 117.3126 152.31533 116.79396 152.4894 116.27197 L 104.99979 148.30413 z M 104.99979 148.30413 L 146.56108 127.12764 C 146.96045 126.62308 147.3403 126.1114 147.70881 125.59543 L 104.99979 148.30413 z M 104.99979 148.30413 L 137.25726 135.92142 C 137.88127 135.46494 138.49166 135.00356 139.08143 134.53442 L 104.99979 148.30413 z M 104.99979 148.30413 L 131.516 141.19913 C 131.20619 141.11979 130.89413 141.04304 130.58014 140.96917 L 104.99979 148.30413 z M 104.99979 148.30413 L 137.46344 143.16232 C 137.12693 143.02382 136.78632 142.89046 136.44387 142.75976 L 104.99979 148.30413 z M 104.99979 148.30413 L 143.53232 146.28461 C 143.20405 146.07777 142.87145 145.8769 142.536 145.67948 L 104.99979 148.30413 z M 104.99979 148.30413 L 149.16247 150.61871 C 148.86939 150.34596 148.57279 150.07789 148.27209 149.81514 L 104.99979 148.30413 z M 104.99979 148.30413 L 154.03866 156.07109 C 153.79074 155.74088 153.53741 155.41355 153.27798 155.08924 L 104.99979 148.30413 z M 104.99979 148.30413 L 157.95728 162.49396 C 157.77422 162.11524 157.58575 161.73931 157.39039 161.36689 L 104.99979 148.30413 z M 104.99979 148.30413 L 160.58761 169.64236 C 160.47888 169.2284 160.36225 168.81812 160.24138 168.41039 L 104.99979 148.30413 z M 104.99979 148.30413 L 161.87591 177.28375 C 161.83991 176.84775 161.79873 176.41426 161.75137 175.98409 L 104.99979 148.30413 z M 104.99979 148.30413 L 161.92862 185.27396 C 161.95695 184.82494 161.98033 184.37373 161.99838 183.92056 L 104.99979 148.30413 z M 104.99979 148.30413 L 112.34973 154.2557 C 112.51079 154.30916 112.67085 154.36471 112.83032 154.4221 L 104.99979 148.30413 z M 104.99979 148.30413 L 110.41187 153.7162 C 110.49665 153.73544 110.58122 153.75538 110.6656 153.77563 L 104.99979 148.30413 z M 104.99979 148.30413 L 109.18817 153.47642 C 109.24665 153.48615 109.30557 153.49465 109.36387 153.50484 L 104.99979 148.30413 z M 104.99979 148.30413 L 108.27143 153.34206 C 108.31796 153.34781 108.36402 153.35463 108.41044 153.36066 L 104.99979 148.30413 z M 104.99979 148.30413 L 107.52677 153.26351 C 107.56511 153.26698 107.60374 153.26968 107.64201 153.27333 L 104.99979 148.30413 z M 104.99979 148.30413 L 106.88495 153.21494 C 106.91869 153.21705 106.95255 153.21888 106.98623 153.22114 L 104.99979 148.30413 z M 104.99979 148.30413 L 106.30772 153.18548 C 106.3387 153.18668 106.36981 153.18779 106.40074 153.1891 L 104.99979 148.30413 z M 104.99979 148.30413 L 105.7708 153.1705 C 105.79984 153.17098 105.82914 153.17094 105.85814 153.17153 L 104.99979 148.30413 z M 104.99979 148.30413 L 105.25456 153.16688 C 105.28273 153.1668 105.31172 153.16585 105.33982 153.16584 L 104.99979 148.30413 z M 104.99979 148.30413 L 104.74451 153.17308 C 104.77312 153.17256 104.80124 153.17249 104.82978 153.17205 L 104.99979 148.30413 z M 104.99979 148.30413 L 104.22671 153.18652 C 104.25575 153.18556 104.28508 153.18429 104.31405 153.18341 L 104.99979 148.30413 z M 104.99979 148.30413 L 103.68618 153.20667 C 103.71706 153.2052 103.74788 153.20392 103.77868 153.20253 L 104.99979 148.30413 z M 104.99979 148.30413 L 103.10533 153.23974 C 103.13894 153.23764 103.17207 153.23607 103.20559 153.23406 L 104.99979 148.30413 z M 104.99979 148.30413 L 102.46145 153.28573 C 102.49898 153.28279 102.53667 153.27978 102.5741 153.27695 L 104.99979 148.30413 z M 104.99979 148.30413 L 101.72299 153.35033 C 101.7668 153.34614 101.8111 153.34094 101.85476 153.33689 L 104.99979 148.30413 z M 104.99979 148.30413 L 100.83777 153.44386 C 100.89135 153.43769 100.94564 153.43071 100.999 153.42474 L 104.99979 148.30413 z M 104.99979 148.30413 L 99.718461 153.58546 C 99.788178 153.57583 99.85785 153.56633 99.927234 153.55704 L 104.99979 148.30413 z M 104.99979 148.30413 L 98.189872 153.81852 C 98.288917 153.80201 98.388595 153.78479 98.487012 153.76891 L 104.99979 148.30413 z M 104.99979 148.30413 L 95.828776 154.25983 C 95.992217 154.2262 96.155748 154.19218 96.317635 154.1601 L 104.99979 148.30413 z M 104.99979 148.30413 L 91.082812 155.39517 C 91.470268 155.29051 91.8546 155.18859 92.23468 155.09131 L 104.99979 148.30413 z M 104.99979 148.30413 L 90.476131 153.87898 L 90.434273 154.18904 L 104.99979 148.30413 z M 104.99979 148.30413 L 90.712809 152.13232 L 90.675085 152.41189 L 104.99979 148.30413 z M 104.99979 148.30413 L 90.929333 150.53293 L 90.894194 150.79131 L 104.99979 148.30413 z M 104.99979 148.30413 L 91.132422 149.0307 L 91.099349 149.27616 L 104.99979 148.30413 z M 104.99979 148.30413 L 91.328276 147.58737 L 91.295719 147.8256 L 104.99979 148.30413 z M 104.99979 148.30413 L 91.519995 146.16937 L 91.487956 146.40502 L 104.99979 148.30413 z M 104.99979 148.30413 L 91.712748 144.74414 L 91.680709 144.9834 L 104.99979 148.30413 z M 104.99979 148.30413 L 91.911186 143.27963 L 91.877596 143.52819 L 104.99979 148.30413 z M 104.99979 148.30413 L 92.119442 141.74122 L 92.083785 142.00477 L 104.99979 148.30413 z M 104.99979 148.30413 L 92.343717 140.08499 L 92.30496 140.37128 L 104.99979 148.30413 z M 104.99979 148.30413 L 92.591248 138.25564 L 92.547839 138.57552 L 104.99979 148.30413 z M 104.99979 148.30413 L 92.872884 136.17722 L 92.822758 136.54515 L 104.99979 148.30413 z M 104.99979 148.30413 L 93.203097 133.73654 L 93.143669 134.17476 L 104.99979 148.30413 z M 104.99979 148.30413 L 93.606173 130.75946 L 93.532275 131.3031 L 104.99979 148.30413 z M 104.99979 148.30413 L 95.068616 128.81333 C 94.924767 128.81268 94.779016 128.81049 94.634017 128.80868 L 104.99979 148.30413 z M 104.99979 148.30413 L 97.499992 128.7663 C 97.370499 128.77207 97.245003 128.78225 97.114486 128.78697 L 104.99979 148.30413 z M 104.99979 148.30413 L 99.724146 128.61489 C 99.604194 128.62642 99.484878 128.63845 99.363961 128.64899 L 104.99979 148.30413 z M 104.99979 148.30413 L 101.83978 128.35289 C 101.72381 128.37063 101.60793 128.38836 101.49096 128.40508 L 104.99979 148.30413 z M 104.99979 148.30413 L 103.93371 127.96532 C 103.81703 127.99084 103.70062 128.0169 103.58282 128.04128 L 104.99979 148.30413 z M 104.99979 148.30413 L 106.09482 127.40824 C 105.97237 127.44496 105.8497 127.48148 105.72585 127.51676 L 104.99979 148.30413 z M 104.99979 148.30413 L 108.44041 126.58142 C 108.3042 126.63712 108.16783 126.69265 108.02958 126.74627 L 104.99979 148.30413 z M 104.99979 148.30413 L 111.17926 125.24248 C 111.01472 125.33766 110.84833 125.4312 110.68007 125.52257 L 104.99979 148.30413 z M 104.99979 148.30413 L 114.92994 122.43594 C 114.70994 122.64684 114.48595 122.85525 114.25452 123.05967 C 114.22306 123.08694 114.19057 123.11322 114.15892 123.14029 L 104.99979 148.30413 z M 60.511035 79.797196 C 60.304958 80.080832 60.098737 80.364487 59.899703 80.653992 C 59.810937 80.783853 59.725535 80.920171 59.637703 81.0519 L 79.447347 110.42117 L 80.516532 110.60307 L 60.511035 79.797196 z M 55.946456 87.728495 C 55.737893 88.182564 55.533082 88.64383 55.332023 89.112907 L 72.175439 109.1861 L 73.505591 109.41193 L 55.946456 87.728495 z M 52.784892 96.089225 C 52.643552 96.546513 52.506373 97.011723 52.370447 97.479838 L 62.851461 107.6017 L 64.593473 107.89781 L 52.784892 96.089225 z M 50.662541 104.30216 C 50.578123 104.6963 50.492161 105.08773 50.410876 105.48813 L 52.58232 105.8571 L 50.662541 104.30216 z M 123.52373 162.77663 C 123.78313 163.14612 124.03213 163.52361 124.27045 163.90937 L 160.78915 193.48121 C 160.88881 193.02709 160.98195 192.57018 161.06976 192.11127 L 123.52373 162.77663 z M 126.74885 169.30698 C 126.86349 169.65939 126.9724 170.01658 127.07441 170.37875 L 158.27923 201.58356 C 158.458 201.14342 158.63098 200.70076 158.79703 200.25548 L 126.74885 169.30698 z M 128.09657 175.82958 C 128.13499 176.19904 128.16824 176.57196 128.19631 176.94941 L 154.3575 209.25648 C 154.61346 208.84644 154.8626 208.43351 155.10578 208.01831 L 128.09657 175.82958 z M 128.23558 182.75267 C 128.21231 183.15667 128.18397 183.55696 128.1498 183.9526 L 149.13663 216.26897 C 149.45999 215.89902 149.77782 215.52659 150.08903 215.15173 L 128.23558 182.75267 z M 77.153947 183.94588 L 76.027401 184.0823 L 55.144438 209.87039 C 55.394174 210.29558 55.649366 210.7175 55.911316 211.13492 L 77.153947 183.94588 z M 69.708923 184.84918 L 68.282137 185.0223 L 51.362756 201.94168 C 51.53446 202.39681 51.711917 202.84825 51.895024 203.29612 L 69.708923 184.84918 z M 60.051115 186.02069 L 58.13702 186.25323 L 48.956702 193.6874 C 49.055442 194.15128 49.158606 194.61219 49.267277 195.06975 L 60.051115 186.02069 z M 80.247815 186.41963 L 60.311047 217.12008 C 60.633984 217.49825 60.961385 217.87364 61.296517 218.24404 L 80.475708 187.55083 C 80.396245 187.17768 80.318724 186.8023 80.247815 186.41963 z M 127.13591 189.93621 C 127.03254 190.32889 126.92168 190.71619 126.80466 191.09841 L 142.81299 222.51665 C 143.19034 222.19473 143.56494 221.86723 143.93643 221.53376 L 127.13591 189.93621 z M 82.132454 193.18356 L 66.713757 223.44528 C 67.101727 223.76728 67.495063 224.08083 67.89043 224.39044 L 82.581523 194.26876 C 82.426491 193.913 82.276279 193.5518 82.132454 193.18356 z M 124.48542 196.53167 C 124.29502 196.86752 124.09784 197.19788 123.89321 197.52283 L 135.51783 227.80573 C 135.94746 227.54497 136.37402 227.2785 136.79733 227.00527 L 124.48542 196.53167 z M 85.431995 199.28034 L 74.172734 228.61189 C 74.612425 228.86271 75.056592 229.10611 75.503918 229.34414 L 86.119808 200.17641 C 85.884238 199.88467 85.655242 199.58581 85.431995 199.28034 z M 120.3756 201.92669 C 120.11251 202.19379 119.84596 202.45211 119.57616 202.70339 L 127.38499 231.84631 C 127.85613 231.65957 128.32379 231.4659 128.78852 231.2665 L 120.3756 201.92669 z M 90.069438 204.02631 L 82.461117 232.42096 C 82.938366 232.59242 83.419289 232.75796 83.903923 232.91705 L 90.94587 204.67174 C 90.650156 204.46471 90.358171 204.24934 90.069438 204.02631 z M 115.16351 205.94454 C 114.84892 206.12055 114.53031 206.28722 114.20853 206.44631 L 118.65271 234.50455 C 119.15096 234.3953 119.6468 234.28071 120.13892 234.15935 L 115.16351 205.94454 z M 95.673747 207.18839 L 91.29882 234.80996 C 91.79748 234.90416 92.299242 234.99324 92.804671 235.07609 L 96.674202 207.5434 C 96.337315 207.4331 96.003691 207.31461 95.673747 207.18839 z M 109.18713 208.18316 C 108.84419 208.25581 108.49748 208.31989 108.14792 208.37694 L 109.58504 235.80008 C 110.09601 235.76337 110.60415 235.72125 111.1095 235.67347 L 109.18713 208.18316 z M 101.8403 208.58985 L 100.40989 235.88224 C 100.91665 235.90834 101.42675 235.92925 101.93951 235.94529 L 102.89243 208.65962 C 102.53905 208.64281 102.18758 208.62062 101.8403 208.58985 z " />
    <path
       id="text44353"
       style="font-weight:bold;font-size:239.91px;font-family:Arial;-inkscape-font-specification:'Arial, Bold';fill:#000000;stroke-width:0.479822"
       inkscape:label="4"
       d="M 118.65529 62.08665 L 109.81655 117.8941 L 110.55604 116.79442 L 120.20248 62.08665 L 118.65529 62.08665 z M 128.10174 62.08665 L 113.55173 116.38824 L 113.55173 118.48011 L 129.72231 62.08665 L 128.10174 62.08665 z M 138.09596 62.08665 L 113.55173 126.0259 L 113.55173 127.13746 L 139.83436 62.08665 L 138.09596 62.08665 z M 145.41438 68.987004 L 113.55173 131.52014 L 113.55173 132.22035 L 145.41438 72.295329 L 145.41438 68.987004 z M 110.26045 73.07771 L 108.83263 75.166988 L 106.32116 123.09016 L 106.81415 122.35739 L 110.26045 73.07771 z M 102.75652 84.062052 L 101.71317 85.589091 L 103.86963 126.7349 L 104.22775 126.20212 L 102.75652 84.062052 z M 145.41438 86.071232 L 113.55173 135.13542 L 113.55173 135.62531 L 145.41438 88.386853 L 145.41438 86.071232 z M 97.128955 92.299792 L 96.317635 93.487317 L 102.0191 129.48564 L 102.29712 129.07274 L 97.128955 92.299792 z M 145.41438 98.396578 L 113.55173 137.74353 L 113.55173 138.1125 L 145.41438 100.14014 L 145.41438 98.396578 z M 92.665662 98.833244 L 92.003687 99.802177 L 100.54477 131.67775 L 100.77059 131.34185 L 92.665662 98.833244 z M 88.965112 104.24997 L 88.404423 105.07111 L 99.317969 133.50193 L 99.508655 133.21771 L 88.965112 104.24997 z M 145.41438 107.89006 L 113.55173 139.75219 L 113.55173 140.04572 L 145.41438 109.27602 L 145.41438 107.89006 z M 85.784428 108.90653 L 85.292468 109.62638 L 98.259119 135.07496 L 98.42655 134.82691 L 85.784428 108.90653 z M 82.962378 113.03703 L 82.518994 113.6866 L 97.317574 136.47487 L 97.468469 136.25111 L 82.962378 113.03703 z M 145.41438 115.57744 L 113.55173 141.37897 L 113.55173 141.62288 L 145.41438 116.72879 L 145.41438 115.57744 z M 80.389408 116.80372 L 79.978581 117.40524 L 96.457161 137.75438 L 96.596171 137.54768 L 80.389408 116.80372 z M 77.982837 120.32702 L 77.593197 120.89753 L 95.649976 138.95431 L 95.78175 138.75846 L 77.982837 120.32702 z M 145.41438 122.0587 L 113.55173 142.75046 L 113.55173 142.96027 L 145.41438 123.05037 L 145.41438 122.0587 z M 75.678068 123.70046 L 75.300313 124.25391 L 94.875346 140.10566 L 95.002987 139.91601 L 75.678068 123.70046 z M 73.421358 127.00413 L 73.046187 127.55345 L 94.115186 141.23582 L 94.241793 141.04772 L 73.421358 127.00413 z M 145.41438 127.7121 L 113.55173 143.94677 L 113.55173 144.13332 L 145.41438 128.59267 L 145.41438 127.7121 z M 71.161548 130.31194 L 70.781209 130.86901 L 93.352441 142.3696 L 93.480599 142.17944 L 71.161548 130.31194 z M 145.41438 132.79034 L 113.55173 145.02112 L 113.55173 145.19165 L 145.41438 133.59443 L 145.41438 132.79034 z M 68.848511 133.6983 L 68.453703 134.27552 L 92.57006 143.53284 L 92.702869 143.33595 L 68.848511 133.6983 z M 66.426436 137.2433 L 66.007857 137.85618 L 91.748922 144.75344 L 91.889482 144.54467 L 66.426436 137.2433 z M 145.41438 137.47533 L 113.55173 146.01279 L 113.55173 146.17196 L 145.41438 138.22774 L 145.41438 137.47533 z M 63.829696 141.04462 L 63.374426 141.71125 L 90.866288 146.0655 L 91.018734 145.83916 L 63.829696 141.04462 z M 145.41438 141.90297 L 113.55173 146.94969 L 113.55173 147.10213 L 145.41438 142.62437 L 145.41438 141.90297 z M 60.973539 145.22576 L 60.465043 145.9699 L 89.893221 147.51244 L 90.063236 147.25975 L 60.973539 145.22576 z M 145.41438 146.18591 L 113.55173 147.85609 L 113.55173 148.00544 L 145.41438 146.89284 L 145.41438 146.18591 z M 113.55173 148.75216 L 113.55173 148.90202 L 145.41438 151.13031 L 145.41438 150.42234 L 113.55173 148.75216 z M 88.984749 148.86326 L 57.743245 149.95415 L 57.157751 150.81147 L 88.789412 149.15369 L 88.984749 148.86326 z M 113.55173 149.65857 L 113.55173 149.81204 L 145.41438 155.43031 L 145.41438 154.70529 L 113.55173 149.65857 z M 113.55173 150.59546 L 113.55173 150.75617 L 145.41438 159.89257 L 145.41438 159.13344 L 113.55173 150.59546 z M 87.727979 150.73137 L 53.971383 155.47578 L 53.273751 156.49691 L 87.495951 151.07657 L 87.727979 150.73137 z M 113.55173 151.58713 L 113.55173 151.75921 L 145.41438 164.63285 L 145.41438 163.81791 L 113.55173 151.58713 z M 113.55173 152.66148 L 113.55173 152.85114 L 145.41438 169.79274 L 145.41438 168.89615 L 113.55173 152.66148 z M 86.209208 152.98911 L 49.400602 162.16685 L 48.534505 163.43395 L 85.922404 153.41596 L 86.209208 152.98911 z M 113.55173 153.85779 L 113.55173 154.07225 L 166.73453 189.945 L 166.73453 188.39522 L 113.55173 153.85779 z M 113.55173 155.22928 L 113.55173 155.47992 L 166.56606 199.96454 L 166.73453 199.96454 L 166.73453 198.29591 L 113.55173 155.22928 z M 84.290462 155.84165 L 43.60509 170.65005 L 43.265576 171.14718 L 43.265576 172.0019 L 83.916842 156.39717 L 84.290462 155.84165 z M 113.55173 156.85606 L 113.55173 157.15992 L 154.8877 199.96454 L 156.66021 199.96454 L 113.55173 156.85606 z M 113.55173 158.86472 L 113.55173 159.25023 L 145.41438 200.03223 L 145.41438 199.96454 L 146.83341 199.96454 L 113.55173 158.86472 z M 81.724727 159.6564 L 43.265576 178.41443 L 43.265576 179.75905 L 81.205379 160.42793 L 81.724727 159.6564 z M 113.55173 161.47283 L 113.55173 161.99011 L 145.41438 212.9808 L 145.41438 210.53702 L 113.55173 161.47283 z M 113.55173 165.08811 L 113.55173 165.83794 L 145.41438 231.16625 L 145.41438 227.62177 L 113.55173 165.08811 z M 78.020561 165.16253 L 43.265576 186.88007 L 43.265576 188.3947 L 77.229911 166.33817 L 78.020561 165.16253 z M 113.55173 170.58287 L 113.55173 171.02987 L 113.27112 171.02987 L 136.38082 234.52212 L 138.09596 234.52212 L 113.55173 170.58287 z M 75.912162 171.02987 L 43.265576 196.53632 L 43.265576 198.29539 L 76.935872 171.02987 L 75.912162 171.02987 z M 81.466862 171.02987 L 51.50435 199.96454 L 53.339897 199.96454 L 82.274048 171.02987 L 81.466862 171.02987 z M 85.930672 171.02987 L 61.651534 199.96454 L 63.16617 199.96454 L 86.596781 171.02987 L 85.930672 171.02987 z M 89.671012 171.02987 L 70.154374 199.96454 L 71.451453 199.96454 L 90.24152 171.02987 L 89.671012 171.02987 z M 92.916292 171.02987 L 77.531702 199.96454 L 78.677885 199.96454 L 93.420654 171.02987 L 92.916292 171.02987 z M 95.817924 171.02987 L 84.127681 199.96454 L 85.169478 199.96454 L 96.276294 171.02987 L 95.817924 171.02987 z M 98.483394 171.02987 L 90.186226 199.96454 L 91.157743 199.96454 L 98.910758 171.02987 L 98.483394 171.02987 z M 100.9928 171.02987 L 95.890788 199.96454 L 96.817863 199.96454 L 101.40053 171.02987 L 100.9928 171.02987 z M 103.41074 171.02987 L 101.38761 199.96454 L 102.29246 199.96454 L 103.80865 171.02987 L 103.41074 171.02987 z M 105.79354 171.02987 L 106.80382 199.96454 L 107.70712 199.96454 L 106.19093 171.02987 L 105.79354 171.02987 z M 108.19391 171.02987 L 112.26033 199.96454 L 113.18224 199.96454 L 108.59906 171.02987 L 108.19391 171.02987 z M 110.66611 171.02987 L 126.49667 234.52212 L 128.10174 234.52212 L 111.08934 171.02987 L 110.66611 171.02987 z M 147.74085 171.02987 L 166.73453 181.129 L 166.73453 179.75957 L 149.60172 171.02987 L 147.74085 171.02987 z M 161.24752 171.02987 L 166.73453 173.24679 L 166.73453 172.0019 L 164.20238 171.02987 L 161.24752 171.02987 z M 113.55173 202.29825 L 113.55173 209.15261 L 117.1174 234.52212 L 118.65581 234.52212 L 113.55173 202.29825 z " />
    <path
       id="text44365"
       style="font-weight:bold;font-size:239.91px;font-family:Arial;-inkscape-font-specification:'Arial, Bold';fill:#000000;stroke-width:0.479822"
       inkscape:label="5"
       d="M 73.640466 62.145044 L 90.372262 108.11485 L 90.639945 106.59969 L 75.332869 62.145044 L 73.640466 62.145044 z M 83.5179 62.145044 L 92.283256 97.300004 L 92.6915 94.990068 L 85.1085 62.145044 L 83.5179 62.145044 z M 92.890971 62.145044 L 97.220939 92.954016 L 98.203825 92.954016 L 94.42111 62.145044 L 92.890971 62.145044 z M 101.99119 62.145044 L 103.06709 92.954016 L 104.03344 92.954016 L 103.49601 62.145044 L 101.99119 62.145044 z M 111.02475 62.145044 L 108.87036 92.954016 L 109.84239 92.954016 L 112.53783 62.145044 L 111.02475 62.145044 z M 120.19215 62.145044 L 114.75992 92.954016 L 115.75883 92.954016 L 121.74761 62.145044 L 120.19215 62.145044 z M 129.70578 62.145044 L 120.87118 92.954016 L 121.92227 92.954016 L 131.34185 62.145044 L 129.70578 62.145044 z M 139.81059 62.145044 L 127.36277 92.954016 L 128.49448 92.954016 L 141.57224 62.145044 L 139.81059 62.145044 z M 150.81147 62.145044 L 134.43004 92.954016 L 135.68112 92.954016 L 152.75915 62.145044 L 150.81147 62.145044 z M 67.155591 67.146806 L 66.670349 69.717192 L 89.049345 115.6007 L 89.242098 114.51136 L 67.155591 67.146806 z M 155.1373 73.972229 L 142.33395 92.954016 L 143.7566 92.954016 L 155.1373 76.700745 L 155.1373 73.972229 z M 64.545414 80.976969 L 64.17076 82.963928 L 88.060775 121.19622 L 88.208569 120.35906 L 64.545414 80.976969 z M 155.1373 88.553251 L 151.4445 92.954016 L 153.1152 92.954016 L 155.1373 90.627543 L 155.1373 88.553251 z M 62.486625 91.887415 L 62.182251 93.499719 L 100.82485 142.96078 C 100.87177 142.95697 100.91896 142.95457 100.96593 142.95096 L 62.486625 91.887415 z M 60.786987 100.89152 L 60.530155 102.25422 L 99.9231 143.04657 C 99.976155 143.04065 100.02966 143.0367 100.08278 143.03106 L 60.786987 100.89152 z M 59.331262 108.60526 L 59.106986 109.79537 L 98.893705 143.18041 C 98.954148 143.17155 99.014562 143.16254 99.07509 143.15405 L 59.331262 108.60526 z M 58.044002 115.42551 L 57.841947 116.49573 L 97.70153 143.38143 C 97.771995 143.36816 97.842304 143.3544 97.912887 143.34164 L 58.044002 115.42551 z M 110.58705 116.61924 L 105.94082 142.96595 C 105.97243 142.96864 106.00435 142.97091 106.0359 142.9737 L 111.15756 116.62596 C 110.96752 116.62351 110.77785 116.61987 110.58705 116.61924 z M 107.76552 116.6921 C 107.57956 116.70236 107.3937 116.71428 107.20793 116.72673 L 105.376 142.92306 C 105.40728 142.92511 105.43882 142.9266 105.47005 142.92874 L 107.76552 116.6921 z M 114.05247 116.73448 L 106.51443 143.02124 C 106.54681 143.02467 106.57926 143.02804 106.61158 143.03158 L 114.64003 116.77323 C 114.4448 116.75881 114.24854 116.74688 114.05247 116.73448 z M 104.45306 116.99131 C 104.27151 117.01418 104.09027 117.04074 103.9089 117.06572 L 104.81066 142.89102 C 104.84235 142.89249 104.87358 142.89462 104.90522 142.89619 L 104.45306 116.99131 z M 117.61608 117.07761 L 107.10612 143.09049 C 107.13988 143.0948 107.17372 143.09898 107.20741 143.10341 L 118.22069 117.15719 C 118.01989 117.12873 117.81782 117.10381 117.61608 117.07761 z M 101.21966 117.51531 C 101.04226 117.55014 100.86463 117.58334 100.68739 117.62021 L 104.23601 142.87035 C 104.2685 142.87125 104.30074 142.87297 104.33317 142.87397 L 101.21966 117.51531 z M 121.27942 117.68687 L 107.72624 143.17679 C 107.7618 143.18218 107.79721 143.1878 107.83269 143.19333 L 121.89902 117.81761 C 121.69297 117.77278 121.48652 117.7292 121.27942 117.68687 z M 98.060164 118.24498 C 97.886702 118.29117 97.713077 118.33479 97.539783 118.38295 L 103.64225 142.86001 C 103.67588 142.86031 103.70945 142.86065 103.74302 142.86105 L 98.060164 118.24498 z M 125.03009 118.60775 L 108.38512 143.28531 C 108.42322 143.29209 108.46131 143.29904 108.49932 143.30598 L 125.66313 118.79378 C 125.45283 118.7301 125.24157 118.66863 125.03009 118.60775 z M 94.96888 119.17257 C 94.799397 119.22951 94.630222 119.28994 94.460901 119.34879 L 103.01903 142.86156 C 103.05454 142.86118 103.08995 142.86028 103.12549 142.86001 L 94.96888 119.17257 z M 128.84743 119.88416 L 109.09618 143.42277 C 109.13769 143.43138 109.17932 143.4398 109.22072 143.44861 L 129.49029 120.13117 C 129.27717 120.04622 129.06184 119.96602 128.84743 119.88416 z M 91.939091 120.29498 C 91.772896 120.36236 91.606968 120.43452 91.44093 120.50376 L 102.35138 142.87448 C 102.38952 142.87327 102.4274 142.87091 102.46558 142.86983 L 91.939091 120.29498 z M 132.70094 121.5533 L 109.87443 143.5964 C 109.92044 143.60751 109.96705 143.6176 110.01292 143.62896 L 133.34328 121.8737 C 133.12971 121.76558 132.91592 121.65808 132.70094 121.5533 z M 88.959428 121.6086 C 88.795281 121.68656 88.63146 121.76704 88.467468 121.84683 L 101.62584 142.90497 C 101.6679 142.90265 101.71034 142.90195 101.75245 142.8998 L 88.959428 121.6086 z M 56.873531 121.6272 L 56.686979 122.61577 L 96.301099 143.67909 C 96.383753 143.65935 96.466325 143.6392 96.549146 143.62017 L 56.873531 121.6272 z M 136.55084 123.65395 L 110.73794 143.8212 C 110.78885 143.8355 110.83914 143.85101 110.88987 143.86564 L 137.19059 124.04669 C 136.97828 123.91354 136.76465 123.78352 136.55084 123.65395 z M 140.35991 126.20883 L 111.70274 144.11575 C 111.76063 144.13475 111.81924 144.15213 111.87689 144.17156 L 111.87741 144.17156 L 140.98623 126.68167 C 140.77793 126.52281 140.56978 126.36393 140.35991 126.20883 z M 55.781608 127.41238 L 55.605391 128.34772 L 94.651587 144.12299 C 94.749613 144.09352 94.847876 144.06512 94.946143 144.03669 L 55.781608 127.41238 z M 144.0894 129.23914 L 112.79105 144.50384 C 112.85662 144.52911 112.92268 144.55344 112.98794 144.57929 L 144.70435 129.79001 C 144.50059 129.60361 144.29481 129.42159 144.0894 129.23914 z M 147.71708 132.75624 L 114.02146 145.02061 C 114.09532 145.05427 114.16972 145.08693 114.24316 145.12137 L 148.30929 133.39186 C 148.11396 133.17873 147.91638 132.9669 147.71708 132.75624 z M 54.738778 132.93814 L 54.568245 133.84299 L 92.71217 144.78083 C 92.826348 144.73782 92.94027 144.69371 93.054785 144.65215 L 54.738778 132.93814 z M 151.17682 136.79113 L 115.40484 145.70997 C 115.48654 145.75437 115.56763 145.79993 115.64875 145.84536 L 151.72666 137.51667 C 151.54519 137.27369 151.36277 137.03132 151.17682 136.79113 z M 53.720235 138.33626 L 53.551253 139.23233 L 90.447709 145.73839 C 90.580536 145.67592 90.713349 145.61331 90.846651 145.55287 L 53.720235 138.33626 z M 154.34407 141.36915 L 116.94118 146.62568 C 117.03071 146.6842 117.11853 146.74562 117.20732 146.80551 L 154.83861 142.1846 C 154.67691 141.9109 154.51072 141.63977 154.34407 141.36915 z M 52.702726 143.72869 L 52.53116 144.6351 L 87.854069 147.10523 C 88.004306 147.01735 88.154329 146.92891 88.305204 146.84375 L 52.702726 143.72869 z M 157.11134 146.4846 L 118.6062 147.82922 C 118.70325 147.90614 118.80002 147.98306 118.8961 148.06176 L 157.52837 147.38739 C 157.39245 147.08458 157.25257 146.7841 157.11134 146.4846 z M 85.451632 148.64519 L 51.663513 149.23534 L 51.486263 150.17275 L 84.948303 149.00434 C 85.115752 148.88314 85.283345 148.76281 85.451632 148.64519 z M 120.37456 149.37951 C 120.47474 149.47655 120.57374 149.5759 120.67274 149.6751 L 159.7117 153.09091 C 159.6061 152.76197 159.50035 152.43302 159.38924 152.10751 L 120.37456 149.37951 z M 82.309705 151.09 L 63.867419 153.35446 L 66.42747 153.72498 L 81.764518 151.56956 C 81.945876 151.40806 82.127297 151.24701 82.309705 151.09 z M 122.20494 151.33805 C 122.30862 151.45957 122.41012 151.58384 122.51139 151.70805 L 161.32762 159.25281 C 161.25439 158.89839 161.17707 158.54641 161.09818 158.19551 L 122.20494 151.33805 z M 123.98933 153.74927 C 124.08416 153.89684 124.17837 154.04512 124.27045 154.19576 L 162.341 165.83536 C 162.30172 165.45928 162.26243 165.08342 162.21749 164.71088 L 123.98933 153.74927 z M 78.928516 154.3234 L 75.703389 155.06805 L 77.075916 155.26649 L 78.343538 154.95023 C 78.537881 154.73848 78.732873 154.52958 78.928516 154.3234 z M 125.57011 156.61525 C 125.65121 156.78789 125.73125 156.96123 125.80937 157.13718 L 162.74149 172.81426 C 162.73631 172.41551 162.72809 172.01883 162.7172 171.62363 L 125.57011 156.61525 z M 126.88321 159.93959 C 126.9479 160.13714 127.00974 160.3375 127.07131 160.53852 L 162.47277 180.16213 C 162.51002 179.74826 162.5438 179.33338 162.57354 178.91673 L 126.88321 159.93959 z M 127.89245 163.74556 C 127.93955 163.97104 127.98457 164.19956 128.02836 164.42872 L 161.33641 187.75133 C 161.42623 187.32798 161.51146 186.903 161.59272 186.47647 L 127.89245 163.74556 z M 128.5689 168.08121 C 128.59689 168.3394 128.62356 168.59882 128.64796 168.86101 L 159.18408 195.40564 C 159.33319 194.9836 159.47841 194.55993 159.61816 194.1344 L 128.5689 168.08121 z M 128.87999 173.03285 C 128.88636 173.32868 128.89099 173.62663 128.89342 173.92685 L 155.93777 202.92818 C 156.14869 202.51796 156.35417 202.10543 156.5553 201.69156 L 128.87999 173.03285 z M 128.77509 178.73483 C 128.75468 179.08071 128.7314 179.42339 128.70584 179.76319 L 151.59488 210.13808 C 151.86562 209.74854 152.13188 209.35719 152.39277 208.96399 L 128.77509 178.73483 z M 80.048344 183.9743 L 80.021472 183.97688 L 58.448629 214.78637 C 58.755897 215.16975 59.071532 215.5475 59.39069 215.92222 L 80.204924 185.06416 C 80.149423 184.70373 80.094818 184.34222 80.048344 183.9743 z M 74.595447 184.53912 L 73.392936 184.66366 L 53.582259 207.45349 C 53.815312 207.88265 54.052839 208.30864 54.297461 208.72938 L 74.595447 184.53912 z M 128.03715 185.17164 C 127.97009 185.54889 127.89811 185.92038 127.82321 186.28837 L 146.2133 216.89425 C 146.53948 216.53856 146.86378 216.17968 147.18378 215.81318 L 128.03715 185.17164 z M 66.62229 185.36491 L 65.086983 185.52408 L 50.09255 199.50669 C 50.249675 199.96077 50.411275 200.41154 50.578825 200.85802 L 66.62229 185.36491 z M 56.18055 186.4465 L 54.097473 186.66199 L 47.902502 191.33044 C 47.992093 191.78814 48.086761 192.24187 48.185173 192.69315 L 56.18055 186.4465 z M 81.524223 190.65555 L 64.596574 221.19373 C 64.787534 221.36113 64.977226 221.52928 65.171216 221.69448 C 65.355973 221.85181 65.543597 222.00514 65.730355 222.15957 L 81.902494 191.74489 C 81.76973 191.38731 81.645035 191.02304 81.524223 190.65555 z M 126.25328 191.88028 C 126.11656 192.24964 125.97582 192.61433 125.8285 192.97117 L 139.78113 222.89285 C 140.16574 222.58833 140.54648 222.27664 140.92421 221.9601 L 126.25328 191.88028 z M 84.402083 196.83036 L 71.820939 226.46938 C 72.248455 226.72598 72.678897 226.97806 73.114917 227.22231 L 85.018066 197.76054 C 84.806453 197.45571 84.601088 197.14565 84.402083 196.83036 z M 123.09895 198.03029 C 122.88382 198.34017 122.66149 198.64198 122.43439 198.93773 L 132.36815 227.78713 C 132.80394 227.55084 133.23662 227.3094 133.66523 227.06056 L 123.09895 198.03029 z M 88.61733 201.88845 L 79.9021 230.39524 C 80.368006 230.57363 80.838368 230.74587 81.312349 230.91252 L 89.4302 202.60159 C 89.156782 202.37142 88.88602 202.13306 88.61733 201.88845 z M 118.61447 202.90958 C 118.33422 203.14546 118.05075 203.37292 117.76439 203.59274 L 124.1733 231.35229 C 124.64663 231.19282 125.11569 231.02587 125.582 230.85413 L 118.61447 202.90958 z M 93.863005 205.59779 L 88.549117 232.93565 C 89.037344 233.03959 89.529467 233.13791 90.024996 233.23124 L 94.814884 206.06649 C 94.494893 205.91842 94.177718 205.76199 93.863005 205.59779 z M 113.15433 206.32591 C 112.83031 206.46679 112.50338 206.60071 112.173 206.72485 L 115.46375 233.52528 C 115.95891 233.44123 116.45098 233.35198 116.93963 233.25656 L 113.15433 206.32591 z M 99.805278 207.67931 L 97.483972 234.21154 C 97.981421 234.25083 98.48183 234.28544 98.985689 234.31541 L 100.83571 207.85398 C 100.48974 207.8031 100.14613 207.74581 99.805278 207.67931 z M 107.08287 207.94545 C 106.73896 207.98545 106.39229 208.01825 106.04262 208.04312 L 106.50306 234.41515 C 107.00623 234.39813 107.5074 234.37718 108.00478 234.35004 L 107.08287 207.94545 z " />
    <path
       style="display:inline;fill:#000000;fill-opacity:1;stroke:#000000;stroke-width:0.1;stroke-dasharray:none;stroke-opacity:1"
       d="M 105,148.30427 V 43.304274 L 95.848647,43.703825 105,148.30426 m 0,1e-5 L 94.024511,43.879475 84.965054,45.233414 105,148.30426 m 0,1e-5 L 83.169271,45.598776 74.300969,47.892269 105,148.30426 m 0,1e-5 -32.446786,-99.86093 -8.579986,3.207919 41.026762,96.653001 m 1e-5,1e-5 -42.70735,-95.922269 -8.197665,4.087199 50.905005,91.83506 m 1e-5,1e-5 -52.500003,-90.932663 -7.725529,4.921698 60.225522,86.010955 m 0,1e-5 -61.717445,-84.946779 -7.16875,5.702274 68.886195,79.244495 m 0,1e-5 -70.258708,-78.030201 -6.533429,6.420375 76.792137,71.609826 m 0,0 -78.030201,-70.258708 -5.826526,7.068133 83.856727,63.190575 m 0,0 -84.946779,-61.717445 -5.055787,7.63845 90.002556,54.078995 m 1e-5,1e-5 -90.932663,-52.500003 -4.2296548,8.125083 95.1623078,44.37491 m 1e-5,1e-5 -95.9222685,-42.70735 -3.3571826,8.52269 99.2794411,34.18465 m 1e-5,1e-5 -99.8609299,-32.44679 -2.447928,8.82693 102.3088479,23.61985 m 1e-5,1e-5 L 2.2944961,126.47355 0.78264263,135.508 104.99998,148.30428 m 1e-5,0 -104.42479498,-10.97549 -0.55921465,9.14299 104.98399963,1.8325 m 1e-5,0 H -6e-6 l 0.399551,9.15135 104.600435,-9.15135 m 1e-5,0 L 0.57519502,159.27977 1.9291341,168.33923 104.99998,148.30428 m 1e-5,0 -102.7054939,21.83073 2.2934931,8.8683 100.4119908,-30.69903 m 1e-5,0 -99.8609299,32.44679 3.2079192,8.57998 96.6530007,-41.02676 m 1e-5,-1e-5 -95.9222685,42.70735 4.0871985,8.19766 91.83506,-50.905 m 1e-5,-1e-5 -90.932663,52.5 4.921698,7.72553 86.010955,-60.22552 m 1e-5,0 -84.946779,61.71745 5.702274,7.16874 79.244495,-68.88619 m 1e-5,0 -78.030201,70.25871 6.420375,6.53343 71.609826,-76.79214 m 0,0 -70.258708,78.0302 7.068133,5.82653 63.190575,-83.85673 m 0,0 -61.717445,84.94678 7.63845,5.05579 54.078995,-90.00256 m 1e-5,-1e-5 -52.500003,90.93266 8.12508,4.22966 44.374913,-95.16231 m 1e-5,-1e-5 -42.70735,95.92227 8.522689,3.35718 34.184651,-99.27944 m 1e-5,-1e-5 -32.446786,99.86093 8.826922,2.44793 23.619854,-102.30885 m 1e-5,-1e-5 -21.830729,102.70549 9.034446,1.51186 L 105,148.3043 m 0,-1e-5 L 94.024511,252.72908 103.1675,253.2883 105,148.3043 m 0,-1e-5 v 105 l 9.15135,-0.39955 L 105,148.3043 m 0,-1e-5 10.97549,104.42479 9.05946,-1.35393 L 105,148.3043 m 0,-1e-5 21.83073,102.70549 8.8683,-2.29349 L 105,148.3043 m 0,-1e-5 32.44679,99.86093 8.57998,-3.20792 -41.02676,-96.653 m -1e-5,-1e-5 42.70735,95.92227 8.19766,-4.0872 -50.905,-91.83506 m -1e-5,-1e-5 52.5,90.93266 7.72553,-4.9217 -60.22552,-86.01095 m 0,-1e-5 61.71745,84.94678 7.16874,-5.70227 -68.88619,-79.2445 m 0,-1e-5 70.25871,78.0302 6.53343,-6.42037 -76.79214,-71.60983 m 0,0 78.0302,70.25871 5.82653,-7.06813 -83.85673,-63.19058 m 0,0 84.94678,61.71745 5.05579,-7.63846 -90.00256,-54.07899 m -1e-5,-1e-5 90.93266,52.5 4.22966,-8.12508 -95.16231,-44.37491 m -1e-5,-1e-5 95.92227,42.70735 3.35718,-8.52269 -99.27944,-34.18465 m -1e-5,-1e-5 99.86093,32.44679 2.44793,-8.82693 -102.30885,-23.61985 m -1e-5,-1e-5 102.70549,21.83073 1.51186,-9.03445 -104.21734,-12.79628 m -1e-5,0 104.42479,10.97549 0.55922,-9.14299 -104.984,-1.8325 m -1e-5,0 h 105 l -0.39956,-9.15135 -104.60043,9.15135 m -1e-5,0 104.42479,-10.97549 -1.35393,-9.05946 -103.07085,20.03495 m -1e-5,0 102.70549,-21.83073 -2.29349,-8.8683 -100.41199,30.69903 m -1e-5,0 99.86093,-32.44679 -3.20792,-8.57998 -96.653,41.02676 m -1e-5,1e-5 95.92227,-42.70735 -4.0872,-8.197665 -91.83506,50.905005 m -1e-5,0 90.93266,-52.499993 -4.9217,-7.725529 -86.01095,60.225522 m -1e-5,0 84.94678,-61.717445 -5.70227,-7.16875 -79.2445,68.886195 m -1e-5,0 78.0302,-70.258708 -6.42037,-6.533429 -71.60983,76.792137 m 0,0 70.25871,-78.030201 -7.06813,-5.826526 -63.19058,83.856727 m 0,0 61.71745,-84.946779 -7.63846,-5.055787 -54.07899,90.002556 m 0,1e-5 L 157.5,57.371607 149.37492,53.141952 105.00001,148.30426 m -1e-5,1e-5 42.70735,-95.922269 -8.52269,-3.357182 -34.18465,99.279441 m -1e-5,1e-5 32.44679,-99.86093 -8.82693,-2.447928 -23.61985,102.308848 m -1e-5,1e-5 L 126.83073,45.598776 117.79628,44.086923 105,148.30426 m 0,1e-5 L 115.97549,43.879475 106.8325,43.32026 105,148.30426"
       id="path44403"
       sodipodi:nodetypes="cccc"
       inkscape:label="moire"
       transform="rotate(5,104.99996,148.30426)"
       inkscape:original-d="M 105,148.30427 V 43.304274 L 95.848647,43.703825 105,148.30426"
       inkscape:path-effect="#path-effect44407"
       class="UnoptimicedTransforms" />
  </g>
</svg>
