<?xml version="1.0" encoding="UTF-8" standalone="no"?>
<!-- Created with Inkscape (http://www.inkscape.org/) -->

<svg
   width="210mm"
   height="297mm"
   viewBox="0 0 210 297"
   version="1.1"
   id="svg2083"
   inkscape:version="1.2.1 (9c6d41e410, 2022-07-14)"
   sodipodi:docname="circular scanimation 0-5 - two sectors.svg"
   xmlns:inkscape="http://www.inkscape.org/namespaces/inkscape"
   xmlns:sodipodi="http://sodipodi.sourceforge.net/DTD/sodipodi-0.dtd"
   xmlns="http://www.w3.org/2000/svg"
   xmlns:svg="http://www.w3.org/2000/svg">
  <sodipodi:namedview
     id="namedview2085"
     pagecolor="#ffffff"
     bordercolor="#000000"
     borderopacity="0.25"
     inkscape:showpageshadow="2"
     inkscape:pageopacity="0.0"
     inkscape:pagecheckerboard="0"
     inkscape:deskcolor="#d1d1d1"
     inkscape:document-units="mm"
     showgrid="false"
     inkscape:zoom="1"
     inkscape:cx="397"
     inkscape:cy="561"
     inkscape:window-width="2560"
     inkscape:window-height="1494"
     inkscape:window-x="-11"
     inkscape:window-y="-11"
     inkscape:window-maximized="1"
     inkscape:current-layer="g1037" />
  <defs
     id="defs2080">
    <inkscape:path-effect
       effect="copy_rotate"
       starting_point="107.56143,135.86559"
       origin="105.93768,135.86559"
       id="path-effect1241"
       is_visible="true"
       lpeversion="1.2"
       lpesatellites=""
       method="normal"
       num_copies="30"
       starting_angle="96"
       rotation_angle="6"
       gap="-0.01"
       copies_to_360="false"
       mirror_copies="false"
       split_items="false"
       link_styles="false" />
    <inkscape:path-effect
       effect="copy_rotate"
       starting_point="107.56143,135.86559"
       origin="105.93768,135.86559"
       id="path-effect1229"
       is_visible="true"
       lpeversion="1.2"
       lpesatellites=""
       method="normal"
       num_copies="30"
       starting_angle="96"
       rotation_angle="6"
       gap="-0.01"
       copies_to_360="false"
       mirror_copies="false"
       split_items="false"
       link_styles="false" />
    <inkscape:path-effect
       effect="copy_rotate"
       starting_point="107.56143,135.86559"
       origin="105.93768,135.86559"
       id="path-effect1223"
       is_visible="true"
       lpeversion="1.2"
       lpesatellites=""
       method="normal"
       num_copies="30"
       starting_angle="96"
       rotation_angle="6"
       gap="-0.01"
       copies_to_360="false"
       mirror_copies="false"
       split_items="false"
       link_styles="false" />
    <inkscape:path-effect
       effect="copy_rotate"
       starting_point="107.56143,135.86559"
       origin="105.93768,135.86559"
       id="path-effect1217"
       is_visible="true"
       lpeversion="1.2"
       lpesatellites=""
       method="normal"
       num_copies="30"
       starting_angle="96"
       rotation_angle="6"
       gap="-0.01"
       copies_to_360="false"
       mirror_copies="false"
       split_items="false"
       link_styles="false" />
    <inkscape:path-effect
       effect="copy_rotate"
       starting_point="107.56143,135.86559"
       origin="105.93768,135.86559"
       id="path-effect1211"
       is_visible="true"
       lpeversion="1.2"
       lpesatellites=""
       method="normal"
       num_copies="30"
       starting_angle="96"
       rotation_angle="6"
       gap="-0.01"
       copies_to_360="false"
       mirror_copies="false"
       split_items="false"
       link_styles="false" />
    <inkscape:path-effect
       effect="copy_rotate"
       starting_point="107.56143,135.86559"
       origin="105.93768,135.86559"
       id="path-effect1205"
       is_visible="true"
       lpeversion="1.2"
       lpesatellites=""
       method="normal"
       num_copies="30"
       starting_angle="96"
       rotation_angle="6"
       gap="-0.01"
       copies_to_360="false"
       mirror_copies="false"
       split_items="false"
       link_styles="false" />
    <inkscape:path-effect
       effect="copy_rotate"
       starting_point="107.56143,135.86559"
       origin="105.93768,135.86559"
       id="path-effect1199"
       is_visible="false"
       lpeversion="1.2"
       lpesatellites=""
       method="normal"
       num_copies="30"
       starting_angle="0"
       rotation_angle="6"
       gap="-0.01"
       copies_to_360="false"
       mirror_copies="false"
       split_items="false"
       link_styles="false" />
    <inkscape:path-effect
       effect="copy_rotate"
       starting_point="107.56143,135.86559"
       origin="105.93768,135.86559"
       id="path-effect1193"
       is_visible="true"
       lpeversion="1.2"
       lpesatellites=""
       method="normal"
       num_copies="30"
       starting_angle="96"
       rotation_angle="6"
       gap="-0.01"
       copies_to_360="false"
       mirror_copies="false"
       split_items="false"
       link_styles="false" />
    <inkscape:path-effect
       effect="copy_rotate"
       starting_point="109.39309,148.30427"
       origin="105,148.30427"
       id="path-effect717"
       is_visible="true"
       lpeversion="1.2"
       lpesatellites=""
       method="normal"
       num_copies="30"
       starting_angle="-85.2"
       rotation_angle="6"
       gap="-0.01"
       copies_to_360="false"
       mirror_copies="false"
       split_items="false"
       link_styles="false" />
    <inkscape:path-effect
       effect="copy_rotate"
       starting_point="109.39309,148.30427"
       origin="105,148.30427"
       id="path-effect710"
       is_visible="true"
       lpeversion="1.2"
       lpesatellites=""
       method="normal"
       num_copies="30"
       starting_angle="-85.2"
       rotation_angle="6"
       gap="-0.01"
       copies_to_360="false"
       mirror_copies="false"
       split_items="false"
       link_styles="false" />
    <inkscape:path-effect
       effect="copy_rotate"
       starting_point="109.39309,148.30427"
       origin="105,148.30427"
       id="path-effect703"
       is_visible="true"
       lpeversion="1.2"
       lpesatellites=""
       method="normal"
       num_copies="30"
       starting_angle="-85.2"
       rotation_angle="6"
       gap="-0.01"
       copies_to_360="false"
       mirror_copies="false"
       split_items="false"
       link_styles="false" />
    <inkscape:path-effect
       effect="copy_rotate"
       starting_point="109.39309,148.30427"
       origin="105,148.30427"
       id="path-effect696"
       is_visible="true"
       lpeversion="1.2"
       lpesatellites=""
       method="normal"
       num_copies="30"
       starting_angle="-85.2"
       rotation_angle="6"
       gap="-0.01"
       copies_to_360="false"
       mirror_copies="false"
       split_items="false"
       link_styles="false" />
    <inkscape:path-effect
       effect="copy_rotate"
       starting_point="109.39309,148.30427"
       origin="105,148.30427"
       id="path-effect689"
       is_visible="true"
       lpeversion="1.2"
       lpesatellites=""
       method="normal"
       num_copies="30"
       starting_angle="-85.2"
       rotation_angle="6"
       gap="-0.01"
       copies_to_360="false"
       mirror_copies="false"
       split_items="false"
       link_styles="false" />
    <inkscape:path-effect
       effect="copy_rotate"
       starting_point="109.39309,148.30427"
       origin="105,148.30427"
       id="path-effect615"
       is_visible="true"
       lpeversion="1.2"
       lpesatellites=""
       method="normal"
       num_copies="60"
       starting_angle="-85.2"
       rotation_angle="6"
       gap="-0.01"
       copies_to_360="true"
       mirror_copies="false"
       split_items="false"
       link_styles="false" />
    <inkscape:path-effect
       effect="copy_rotate"
       starting_point="109.39309,148.30427"
       origin="105,148.30427"
       id="path-effect609"
       is_visible="true"
       lpeversion="1.2"
       lpesatellites=""
       method="normal"
       num_copies="60"
       starting_angle="-85.2"
       rotation_angle="6"
       gap="-0.01"
       copies_to_360="true"
       mirror_copies="false"
       split_items="false"
       link_styles="false" />
    <inkscape:path-effect
       effect="copy_rotate"
       starting_point="109.39309,148.30427"
       origin="105,148.30427"
       id="path-effect603"
       is_visible="true"
       lpeversion="1.2"
       lpesatellites=""
       method="normal"
       num_copies="60"
       starting_angle="-85.2"
       rotation_angle="6"
       gap="-0.01"
       copies_to_360="true"
       mirror_copies="false"
       split_items="false"
       link_styles="false" />
    <inkscape:path-effect
       effect="copy_rotate"
       starting_point="109.39309,148.30427"
       origin="105,148.30427"
       id="path-effect597"
       is_visible="true"
       lpeversion="1.2"
       lpesatellites=""
       method="normal"
       num_copies="60"
       starting_angle="-85.2"
       rotation_angle="6"
       gap="-0.01"
       copies_to_360="true"
       mirror_copies="false"
       split_items="false"
       link_styles="false" />
    <inkscape:path-effect
       effect="copy_rotate"
       starting_point="109.39309,148.30427"
       origin="105,148.30427"
       id="path-effect587"
       is_visible="true"
       lpeversion="1.2"
       lpesatellites=""
       method="normal"
       num_copies="60"
       starting_angle="-85.2"
       rotation_angle="12"
       gap="-0.01"
       copies_to_360="true"
       mirror_copies="false"
       split_items="false"
       link_styles="false" />
    <inkscape:path-effect
       effect="copy_rotate"
       starting_point="109.39309,148.30427"
       origin="105,148.30427"
       id="path-effect581"
       is_visible="true"
       lpeversion="1.2"
       lpesatellites=""
       method="normal"
       num_copies="30"
       starting_angle="-85.2"
       rotation_angle="6"
       gap="-0.01"
       copies_to_360="false"
       mirror_copies="false"
       split_items="false"
       link_styles="false" />
    <inkscape:path-effect
       effect="copy_rotate"
       starting_point="109.39309,148.30427"
       origin="105,148.30427"
       id="path-effect575"
       is_visible="true"
       lpeversion="1.2"
       lpesatellites=""
       method="normal"
       num_copies="30"
       starting_angle="-85.2"
       rotation_angle="6"
       gap="-0.01"
       copies_to_360="false"
       mirror_copies="false"
       split_items="false"
       link_styles="false" />
    <inkscape:path-effect
       effect="copy_rotate"
       starting_point="109.39309,148.30427"
       origin="105,148.30427"
       id="path-effect569"
       is_visible="true"
       lpeversion="1.2"
       lpesatellites=""
       method="normal"
       num_copies="30"
       starting_angle="-85.2"
       rotation_angle="6"
       gap="-0.01"
       copies_to_360="false"
       mirror_copies="false"
       split_items="false"
       link_styles="false" />
    <inkscape:path-effect
       effect="copy_rotate"
       starting_point="109.39309,148.30427"
       origin="105,148.30427"
       id="path-effect562"
       is_visible="true"
       lpeversion="1.2"
       lpesatellites=""
       method="normal"
       num_copies="30"
       starting_angle="-85.2"
       rotation_angle="6"
       gap="-0.01"
       copies_to_360="false"
       mirror_copies="false"
       split_items="false"
       link_styles="false" />
    <inkscape:path-effect
       effect="copy_rotate"
       starting_point="109.39309,148.30427"
       origin="105,148.30427"
       id="path-effect1284"
       is_visible="true"
       lpeversion="1.2"
       lpesatellites=""
       method="normal"
       num_copies="30"
       starting_angle="-85.2"
       rotation_angle="6"
       gap="-0.01"
       copies_to_360="false"
       mirror_copies="false"
       split_items="false"
       link_styles="false" />
    <inkscape:path-effect
       effect="copy_rotate"
       starting_point="109.94069,148.30428"
       origin="105,148.30428"
       id="path-effect2022"
       is_visible="true"
       lpeversion="1.2"
       lpesatellites=""
       method="normal"
       num_copies="60"
       starting_angle="0"
       rotation_angle="6"
       gap="-0.01"
       copies_to_360="true"
       mirror_copies="false"
       split_items="false"
       link_styles="false" />
    <inkscape:path-effect
       effect="copy_rotate"
       starting_point="109.94069,148.30428"
       origin="105,148.30428"
       id="path-effect2015"
       is_visible="true"
       lpeversion="1.2"
       lpesatellites=""
       method="normal"
       num_copies="60"
       starting_angle="0"
       rotation_angle="6"
       gap="-0.01"
       copies_to_360="true"
       mirror_copies="false"
       split_items="false"
       link_styles="false" />
    <inkscape:path-effect
       effect="copy_rotate"
       starting_point="109.94069,148.30428"
       origin="105,148.30428"
       id="path-effect2008"
       is_visible="true"
       lpeversion="1.2"
       lpesatellites=""
       method="normal"
       num_copies="60"
       starting_angle="0"
       rotation_angle="6"
       gap="-0.01"
       copies_to_360="true"
       mirror_copies="false"
       split_items="false"
       link_styles="false" />
    <inkscape:path-effect
       effect="copy_rotate"
       starting_point="109.94069,148.30428"
       origin="105,148.30428"
       id="path-effect2001"
       is_visible="true"
       lpeversion="1.2"
       lpesatellites=""
       method="normal"
       num_copies="60"
       starting_angle="0"
       rotation_angle="6"
       gap="-0.01"
       copies_to_360="true"
       mirror_copies="false"
       split_items="false"
       link_styles="false" />
    <inkscape:path-effect
       effect="copy_rotate"
       starting_point="109.94069,148.30428"
       origin="105,148.30428"
       id="path-effect1994"
       is_visible="true"
       lpeversion="1.2"
       lpesatellites=""
       method="normal"
       num_copies="60"
       starting_angle="0"
       rotation_angle="6"
       gap="-0.01"
       copies_to_360="true"
       mirror_copies="false"
       split_items="false"
       link_styles="false" />
    <inkscape:path-effect
       effect="copy_rotate"
       starting_point="109.94069,148.30428"
       origin="105,148.30428"
       id="path-effect1987"
       is_visible="true"
       lpeversion="1.2"
       lpesatellites=""
       method="normal"
       num_copies="60"
       starting_angle="0"
       rotation_angle="6"
       gap="-0.01"
       copies_to_360="true"
       mirror_copies="false"
       split_items="false"
       link_styles="false" />
    <inkscape:path-effect
       effect="copy_rotate"
       starting_point="109.94069,148.30428"
       origin="105,148.30428"
       id="path-effect1980"
       is_visible="true"
       lpeversion="1.2"
       lpesatellites=""
       method="normal"
       num_copies="60"
       starting_angle="0"
       rotation_angle="6"
       gap="-0.01"
       copies_to_360="true"
       mirror_copies="false"
       split_items="false"
       link_styles="false" />
    <inkscape:path-effect
       effect="copy_rotate"
       starting_point="109.94069,148.30428"
       origin="105,148.30428"
       id="path-effect1973"
       is_visible="true"
       lpeversion="1.2"
       lpesatellites=""
       method="normal"
       num_copies="60"
       starting_angle="0"
       rotation_angle="6"
       gap="-0.01"
       copies_to_360="true"
       mirror_copies="false"
       split_items="false"
       link_styles="false" />
    <inkscape:path-effect
       effect="copy_rotate"
       starting_point="109.94069,148.30428"
       origin="105,148.30428"
       id="path-effect1925"
       is_visible="true"
       lpeversion="1.2"
       lpesatellites=""
       method="normal"
       num_copies="60"
       starting_angle="0"
       rotation_angle="6"
       gap="-0.01"
       copies_to_360="true"
       mirror_copies="false"
       split_items="false"
       link_styles="false" />
    <inkscape:path-effect
       effect="copy_rotate"
       starting_point="109.94069,148.30428"
       origin="105,148.30428"
       id="path-effect1918"
       is_visible="true"
       lpeversion="1.2"
       lpesatellites=""
       method="normal"
       num_copies="60"
       starting_angle="0"
       rotation_angle="6"
       gap="-0.01"
       copies_to_360="true"
       mirror_copies="false"
       split_items="false"
       link_styles="false" />
    <inkscape:path-effect
       effect="copy_rotate"
       starting_point="109.94069,148.30428"
       origin="105,148.30428"
       id="path-effect1822"
       is_visible="true"
       lpeversion="1.2"
       lpesatellites=""
       method="normal"
       num_copies="60"
       starting_angle="0"
       rotation_angle="6"
       gap="-0.01"
       copies_to_360="true"
       mirror_copies="false"
       split_items="false"
       link_styles="false" />
    <inkscape:path-effect
       effect="copy_rotate"
       starting_point="109.94069,148.30428"
       origin="105,148.30428"
       id="path-effect1546"
       is_visible="true"
       lpeversion="1.2"
       lpesatellites=""
       method="normal"
       num_copies="60"
       starting_angle="0"
       rotation_angle="60"
       gap="-0.01"
       copies_to_360="true"
       mirror_copies="false"
       split_items="false"
       link_styles="false" />
    <inkscape:path-effect
       effect="copy_rotate"
       starting_point="107.47309,148.30428"
       origin="105,148.30428"
       id="path-effect1542"
       is_visible="true"
       lpeversion="1.2"
       lpesatellites=""
       method="normal"
       num_copies="120"
       starting_angle="0"
       rotation_angle="360"
       gap="-0.01"
       copies_to_360="true"
       mirror_copies="false"
       split_items="false"
       link_styles="false" />
    <inkscape:path-effect
       effect="copy_rotate"
       starting_point="108.49799,148.30428"
       origin="105,148.30428"
       id="path-effect998"
       is_visible="true"
       lpeversion="1.2"
       lpesatellites=""
       method="normal"
       num_copies="60"
       starting_angle="0"
       rotation_angle="60"
       gap="-0.01"
       copies_to_360="true"
       mirror_copies="false"
       split_items="false"
       link_styles="false" />
    <inkscape:path-effect
       effect="copy_rotate"
       starting_point="114.6624,121.32478"
       origin="111.67686,121.32478"
       id="path-effect996"
       is_visible="true"
       lpeversion="1.2"
       lpesatellites=""
       method="normal"
       num_copies="6"
       starting_angle="0"
       rotation_angle="60"
       gap="-0.01"
       copies_to_360="true"
       mirror_copies="false"
       split_items="false"
       link_styles="false" />
    <inkscape:path-effect
       effect="copy_rotate"
       starting_point="106.64906,148.30428"
       origin="105,148.30428"
       id="path-effect993"
       is_visible="false"
       lpeversion="1.2"
       lpesatellites=""
       method="normal"
       num_copies="60"
       starting_angle="0"
       rotation_angle="6"
       gap="-0.01"
       copies_to_360="true"
       mirror_copies="false"
       split_items="false"
       link_styles="false" />
    <inkscape:path-effect
       effect="bend_path"
       id="path-effect1196"
       is_visible="true"
       lpeversion="1"
       bendpath="#path989"
       prop_scale="1.4"
       scale_y_rel="false"
       vertical="false"
       hide_knot="false" />
    <inkscape:path-effect
       effect="bend_path"
       id="path-effect1054"
       is_visible="true"
       lpeversion="1"
       bendpath="M0,0 L1,0"
       prop_scale="1.4"
       scale_y_rel="false"
       vertical="false"
       hide_knot="false" />
    <inkscape:path-effect
       effect="copy_rotate"
       starting_point="107.70906,148.30428"
       origin="105,148.30428"
       id="path-effect4657"
       is_visible="true"
       lpeversion="1.2"
       lpesatellites=""
       method="normal"
       num_copies="59"
       starting_angle="0"
       rotation_angle="6"
       gap="-0.01"
       copies_to_360="true"
       mirror_copies="false"
       split_items="false"
       link_styles="false" />
    <inkscape:path-effect
       effect="copy_rotate"
       starting_point="107.70906,148.30428"
       origin="105,148.30428"
       id="path-effect4651"
       is_visible="false"
       lpeversion="1.2"
       lpesatellites=""
       method="normal"
       num_copies="60"
       starting_angle="0"
       rotation_angle="60"
       gap="-0.01"
       copies_to_360="true"
       mirror_copies="false"
       split_items="false"
       link_styles="false" />
    <clipPath
       clipPathUnits="userSpaceOnUse"
       id="clipPath1221">
      <path
         style="display:inline;fill:#000000;fill-opacity:1;stroke:#000000;stroke-width:0.1"
         d="M 105,148.30427 110.41811,43.444159 105,43.304274 M 105,148.30427 99.241468,43.462303 93.839183,43.89912 M 105,148.30427 88.130072,44.668348 82.804823,45.676918 M 105,148.30427 77.209819,47.04863 72.021943,48.617525 M 105,148.30427 66.60444,50.576178 61.612718,52.687623 m 43.387272,95.616647 -48.565892,-93.093244 -4.73901,2.63007 M 104.99999,148.30427 46.814027,60.900657 42.381424,64.019553 M 104.99999,148.30427 37.853226,67.580605 33.777253,71.15299 m 71.222737,77.15128 -75.346765,-73.129084 -3.67316,3.985395 M 104.99999,148.30427 22.306933,83.598348 19.078204,87.951598 M 104.99999,148.30428 15.897587,92.754654 13.149871,97.426436 M 104.99999,148.30428 10.497807,102.54036 8.2622368,107.47774 M 104.99999,148.30428 6.1687739,112.84459 4.4706802,117.99162 M 104.99999,148.30428 2.9595385,123.55059 1.818161,128.84896 M 104.99999,148.30428 0.90646222,134.53706 0.33473328,139.92674 M 104.99999,148.30428 0.03280735,145.67952 l 0.0043975,5.41991 M 104.99999,148.30428 0.3484727,156.85172 0.9289468,162.24046 M 104.99999,148.30428 1.8498817,167.92707 2.9998554,173.22358 M 104.99999,148.30428 4.5200227,178.78009 l 1.7064437,5.14427 m 98.7735236,-35.62008 -96.671348,40.98353 2.243579,4.93374 m 94.427769,-45.91726 -91.767404,51.02687 2.755294,4.66732 m 89.01211,-55.69419 -85.823698,60.49207 3.23579,4.34801 m 82.587908,-64.84008 -78.907575,69.27187 3.679623,3.97943 m 75.227952,-73.2513 -71.097398,77.2668 4.081765,3.56576 m 67.015633,-80.83256 -62.481658,84.38626 4.437658,3.1117 M 105,148.30429 l -53.157987,90.54959 4.743272,2.62237 M 105,148.30429 l -43.232004,95.68695 4.995141,2.10334 M 105,148.30429 l -32.816185,99.74015 5.190414,1.56047 M 105,148.30429 82.971454,250.96754 l 5.326878,0.99992 M 105,148.30429 94.008685,252.72742 l 5.402986,0.42805 M 105,148.30429 l 0.17045,104.99986 5.41788,-0.14868 M 105,148.30429 l 11.33029,104.38689 5.37138,-0.72372 M 105,148.30429 l 22.36175,102.59118 5.26402,-1.29056 M 105,148.30429 l 33.13984,99.63308 5.09702,-1.84279 M 105,148.30429 l 43.54244,95.54609 4.87228,-2.37413 m -48.41471,-93.17196 53.45169,90.37652 4.59231,-2.87856 m -58.044,-87.49796 62.75531,84.18295 4.26032,-3.35039 m -67.01563,-80.83256 71.34789,77.03556 3.88006,-3.78426 m -75.22795,-73.2513 79.13207,69.01532 3.45584,-4.17524 m -82.58791,-64.84008 86.01965,60.21311 2.99246,-4.51892 m -89.01211,-55.6942 91.93259,50.72867 2.49518,-4.8114 m -94.42777,-45.91727 96.8039,40.66945 1.96962,-5.04937 m -98.77352,-35.62008 100.57838,30.14942 1.42175,-5.23012 m -102.00013,-24.9193 103.21327,19.28779 0.85777,-5.35161 m -104.07104,-13.93618 104.67872,8.20762 0.28407,-5.41247 m -104.96279,-2.79515 104.95811,-2.96554 -0.29285,-5.412 m -104.66526,8.37754 104.04828,-14.10511 -0.86645,-5.35021 m -103.18183,19.45532 101.95955,-25.08485 -1.43024,-5.22781 m -100.52931,30.31266 98.71557,-35.78038 -1.97782,-5.04616 m -96.73775,40.82654 94.3531,-46.0705 -2.50298,-4.807344 m -91.85012,50.877834 88.92158,-55.838613 -2.99979,-4.514059 m -85.92179,60.352672 82.48254,-64.974062 -3.46261,-4.169627 m -79.01993,69.143689 75.10894,-73.373328 -3.8862,-3.777952 m -71.22274,77.15128 66.88432,-80.941246 -4.26575,-3.343471 m -62.61857,84.284717 57.90188,-87.592066 -4.59698,-2.871108 M 105,148.30427 153.2634,55.053837 148.38728,52.687623 M 105,148.30427 l 38.07806,-97.852236 -5.1,-1.834509 M 105,148.30427 132.46129,46.958937 127.19518,45.676918 M 105,148.30427 121.53336,44.614122 116.16082,43.89912"
         id="path1223"
         transform="rotate(-32.629983,104.99775,148.30491)"
         inkscape:label="base layer"
         inkscape:original-d="M 105,148.30427 110.41811,43.444159 105,43.304274"
         inkscape:path-effect="#path-effect4657"
         class="UnoptimicedTransforms" />
    </clipPath>
  </defs>
  <g
     inkscape:label="Ebene 1"
     inkscape:groupmode="layer"
     id="layer1">
    <g
       id="g1037"
       inkscape:label="numbers"
       transform="translate(0,0.52916667)">
      <path
         id="text399"
         style="font-weight:bold;font-size:77.4091px;font-family:Arial;-inkscape-font-specification:'Arial, Bold';fill:#000000;fill-opacity:1;stroke:none;stroke-width:0.155;stroke-dasharray:none"
         inkscape:label="5"
         d="M 94.996785 150.96184 L 92.771082 154.13995 L 92.583496 155.13472 L 95.398311 150.96184 L 94.996785 150.96184 z M 97.276233 150.96184 L 91.354631 161.6444 L 91.027519 163.37814 L 97.6297 150.96184 L 97.276233 150.96184 z M 99.30505 150.96184 L 88.619914 176.13395 L 87.927966 179.80143 L 87.970341 179.80763 L 99.62441 150.96184 L 99.30505 150.96184 z M 101.16075 150.96184 L 92.156649 180.41328 L 92.978304 180.53213 L 101.45737 150.96184 L 101.16075 150.96184 z M 102.9007 150.96184 L 97.181665 180.38279 C 97.499267 180.06655 97.822094 179.77246 98.150081 179.50067 L 99.771171 170.30847 C 99.767062 170.31052 99.762878 170.3121 99.758769 170.31415 L 101.42172 160.90232 L 101.42947 160.90232 L 103.18233 150.96184 L 102.9007 150.96184 z M 104.57088 150.96184 L 103.70116 160.90232 L 104.14972 160.90232 L 104.84528 150.96184 L 104.57088 150.96184 z M 106.21057 150.96184 L 106.38369 160.90232 L 106.83069 160.90232 L 106.48342 150.96184 L 106.21057 150.96184 z M 107.85647 150.96184 L 109.07706 160.90232 L 109.53078 160.90232 L 108.13397 150.96184 L 107.85647 150.96184 z M 109.54525 150.96184 L 111.8402 160.90232 L 112.31201 160.90232 L 109.83361 150.96184 L 109.54525 150.96184 z M 111.31775 150.96184 L 114.7408 160.90232 L 115.24309 160.90232 L 111.62471 150.96184 L 111.31775 150.96184 z M 113.2241 150.96184 L 117.85947 160.90232 L 118.40673 160.90232 L 113.55844 150.96184 L 113.2241 150.96184 z M 115.32629 150.96184 L 121.29906 160.90232 L 121.45409 160.90232 L 121.45409 160.168 L 115.70146 150.96184 L 115.32629 150.96184 z M 117.71219 150.96184 L 121.45409 155.92743 L 121.45409 155.19621 L 118.14576 150.96184 L 117.71219 150.96184 z M 120.50841 150.96184 L 121.45409 151.97574 L 121.45409 151.4042 L 121.02672 150.96184 L 120.50841 150.96184 z M 107.01569 168.53752 C 106.84941 168.53752 106.68335 168.54093 106.51753 168.5463 L 106.66842 177.20365 C 106.92071 177.25837 107.16701 177.32404 107.40688 177.40157 L 107.09734 168.53958 C 107.0699 168.53947 107.04318 168.53752 107.01569 168.53752 z M 110.046 168.7959 L 111.50586 180.68303 C 112.49299 182.30872 112.98794 184.48365 112.98794 187.20976 C 112.98794 188.43875 112.89762 189.56079 112.72128 190.58165 L 114.39922 204.248 C 114.78328 204.0296 115.15733 203.794 115.5237 203.54468 L 110.65681 168.9132 C 110.4548 168.8702 110.25114 168.83143 110.046 168.7959 z M 103.58903 168.92664 C 103.38759 168.97263 103.1867 169.02232 102.98596 169.0765 L 102.26404 177.32458 C 102.51171 177.25955 102.761 177.20213 103.01335 177.15715 L 103.58903 168.92664 z M 113.94188 170.00564 L 120.50376 198.42872 C 120.79939 197.98834 121.07654 197.54135 121.33368 197.08668 L 114.67207 170.3679 C 114.43146 170.24048 114.18808 170.11972 113.94188 170.00564 z M 119.22683 173.92995 L 123.90251 187.50948 C 123.90594 187.34673 123.9113 187.18465 123.9113 187.02063 C 123.9113 186.08814 123.85981 185.18746 123.76454 184.31433 L 120.60091 175.62287 C 120.18323 175.03343 119.72361 174.47011 119.22683 173.92995 z M 96.232886 190.37391 L 95.218994 190.47881 L 92.829993 202.76902 C 93.178974 203.04733 93.5384 203.31047 93.90848 203.55812 L 96.232886 190.37391 z M 89.970219 191.02245 L 88.878296 191.13562 L 87.587419 195.3581 C 87.785528 195.92252 88.008828 196.46839 88.257145 196.99624 L 89.970219 191.02245 z M 100.58249 196.54408 L 99.753601 206.01895 C 100.15412 206.10885 100.56289 206.18662 100.97885 206.25408 L 101.61137 197.20812 C 101.25797 197.01865 100.9151 196.79707 100.58249 196.54408 z M 108.10503 197.39364 C 107.75735 197.5582 107.39854 197.69235 107.02758 197.79568 L 107.17899 206.45562 C 107.59769 206.41514 108.01023 206.36333 108.4156 206.29955 L 108.10503 197.39364 z " />
      <path
         id="text957"
         style="font-weight:bold;font-size:77.4091px;font-family:Arial;-inkscape-font-specification:'Arial, Bold';fill:#000000;fill-opacity:1;stroke:none;stroke-width:0.155;stroke-dasharray:none"
         inkscape:label="4"
         d="M 109.82896 150.94272 L 118.31733 184.98819 L 118.31733 181.53827 L 110.11938 150.94272 L 109.82896 150.94272 z M 111.61799 150.94272 L 118.31733 169.34935 L 118.31733 167.58667 L 111.92857 150.94272 L 111.61799 150.94272 z M 113.54914 150.94272 L 118.31733 160.71836 L 118.31733 159.63263 L 113.88969 150.94272 L 113.54914 150.94272 z M 115.68958 150.94272 L 118.31733 155.14815 L 118.31733 154.39936 L 116.0725 150.94272 L 115.68958 150.94272 z M 118.13077 150.94272 L 118.31733 151.18147 L 118.31733 150.94272 L 118.13077 150.94272 z M 108.59544 152.1163 L 108.34687 152.47958 L 115.95055 206.58067 L 117.22179 206.58067 L 108.59544 152.1163 z M 106.94386 154.53372 L 106.6245 155.00139 L 107.09786 168.55302 L 107.63632 167.75203 L 106.94386 154.53372 z M 104.76466 157.72371 L 104.32748 158.36346 L 103.21075 174.33148 L 103.95179 173.23025 L 104.76466 157.72371 z M 101.67545 162.24539 L 101.02484 163.19779 L 97.587842 182.69169 L 98.698885 181.03908 L 101.67545 162.24539 z M 96.825098 169.34574 L 95.723356 170.95856 L 88.706213 195.43045 L 89.83586 195.43045 L 96.825098 169.34574 z M 108.0363 175.37999 L 108.0363 186.09458 L 107.71022 186.09458 L 108.0363 195.43045 L 108.0363 195.432 L 108.42542 206.58067 L 109.67134 206.58067 L 108.0363 175.37999 z M 87.826681 182.51806 L 85.497624 185.92715 L 85.357581 186.2739 L 85.357581 188.95022 L 87.826681 182.51806 z M 96.987362 186.09458 L 95.341467 195.43045 L 96.419438 195.43045 L 97.898417 186.09458 L 96.987362 186.09458 z M 102.38807 186.09458 L 101.73539 195.43045 L 102.78856 195.43045 L 103.27742 186.09458 L 102.38807 186.09458 z M 118.59328 186.09458 L 120.92078 195.43045 L 122.03958 195.43045 L 119.53844 186.09458 L 118.59328 186.09458 z M 124.41204 186.09458 L 125.19649 188.24949 L 125.19649 186.09458 L 124.41204 186.09458 z " />
      <path
         id="text1011"
         style="font-weight:bold;font-size:77.4091px;font-family:Arial;-inkscape-font-specification:'Arial, Bold';fill:#000000;fill-opacity:1;stroke:none;stroke-width:0.155;stroke-dasharray:none"
         inkscape:label="3"
         d="M 105.14397 150.47867 L 104.68663 159.2063 C 104.82756 159.21013 104.96718 159.21588 105.10366 159.22646 L 105.40855 150.48384 C 105.32081 150.4814 105.23232 150.48013 105.14397 150.47867 z M 103.80813 150.49056 C 103.71721 150.49422 103.62619 150.49822 103.5358 150.50296 L 102.09299 159.6099 C 102.24225 159.55432 102.3937 159.50318 102.54775 159.459 L 103.80813 150.49056 z M 106.7356 150.5567 L 107.21619 159.73392 C 107.36825 159.80079 107.51531 159.8751 107.65906 159.95458 L 107.0038 150.58512 C 106.9141 150.57608 106.826 150.56463 106.7356 150.5567 z M 102.12607 150.62336 C 102.02756 150.63507 101.92934 150.647 101.83151 150.66005 L 98.61672 162.65932 C 98.8502 162.23766 99.115522 161.85287 99.413053 161.50487 L 102.12607 150.62336 z M 108.38201 150.76909 L 116.70657 203.32609 C 117.06917 203.0487 117.42476 202.75806 117.77162 202.44966 L 108.6683 150.82284 C 108.57295 150.80487 108.47823 150.78567 108.38201 150.76909 z M 100.26055 150.93446 C 100.14706 150.95914 100.03354 150.98428 99.921033 151.01094 L 94.148258 166.04878 L 94.723934 166.14645 L 100.26055 150.93446 z M 110.18087 151.17268 L 116.36344 174.24725 C 116.5664 174.08361 116.76188 173.91693 116.95203 173.74857 L 110.50747 151.27345 C 110.39828 151.24036 110.29134 151.20372 110.18087 151.17268 z M 98.018306 151.57318 C 97.871671 151.62546 97.726415 151.67995 97.581641 151.73596 L 90.596537 165.4452 L 91.202185 165.54803 L 98.018306 151.57318 z M 112.31046 151.93801 L 119.52397 170.73015 C 119.67238 170.48779 119.8109 170.2419 119.93945 169.99221 L 112.72025 152.12405 C 112.585 152.05981 112.44804 151.9985 112.31046 151.93801 z M 94.856742 153.07024 C 94.59795 153.22777 94.346398 153.39142 94.102266 153.56117 L 88.224072 162.61333 C 88.066094 163.17664 87.923246 163.76998 87.788957 164.38066 L 94.856742 153.07024 z M 115.27565 153.66349 L 121.17607 165.24314 C 121.18407 165.05745 121.1895 164.87111 121.1895 164.68245 C 121.1895 164.44824 121.1825 164.21574 121.17038 163.98482 L 115.9769 154.21798 C 115.74795 154.02539 115.51383 153.84122 115.27565 153.66349 z M 108.39597 170.49295 C 108.35162 170.53413 108.30889 170.57607 108.26316 170.61646 C 108.1175 170.7427 107.9636 170.86069 107.80531 170.97406 L 108.32827 180.95175 C 108.61384 181.08347 108.89111 181.2359 109.15975 181.4096 L 108.39597 170.49295 z M 104.64839 172.2577 C 104.43727 172.29776 104.21929 172.33055 103.99727 172.35951 L 103.57249 180.46754 C 103.84387 180.43008 104.10895 180.39892 104.36469 180.3771 L 104.64839 172.2577 z M 117.33909 177.88837 L 122.29073 196.36734 C 122.53958 195.80119 122.75771 195.22262 122.93978 194.62946 L 118.32146 178.52347 C 118.00545 178.29671 117.6776 178.08557 117.33909 177.88837 z M 97.199235 190.50672 L 94.988 204.46866 C 95.361142 204.69355 95.742472 204.90465 96.13315 205.10014 L 97.827104 193.04661 C 97.545627 192.28054 97.335738 191.43424 97.199235 190.50672 z M 92.116858 190.7682 L 91.050256 190.89791 L 89.046761 198.37549 C 89.305362 198.83425 89.585314 199.27948 89.88702 199.71081 L 92.116858 190.7682 z M 110.18759 196.11206 C 109.86343 196.43574 109.52344 196.72197 109.16801 196.97196 L 109.67134 206.57602 C 110.08698 206.48512 110.49523 206.37934 110.89762 206.26235 L 110.18759 196.11206 z M 102.65937 197.89593 L 102.18859 206.87885 C 102.59754 206.92904 103.01347 206.96796 103.43555 206.99615 L 103.74406 198.14915 C 103.37096 198.09125 103.00942 198.00662 102.65937 197.89593 z " />
      <path
         id="text1015"
         style="font-weight:bold;font-size:77.4091px;font-family:Arial;-inkscape-font-specification:'Arial, Bold';fill:#000000;fill-opacity:1;stroke:none;stroke-width:0.155;stroke-dasharray:none"
         inkscape:label="2"
         d="M 105.66538 150.95306 C 105.57468 150.95512 105.48216 150.95478 105.39202 150.95771 L 105.08351 159.79696 C 105.22408 159.7834 105.36668 159.77292 105.51139 159.76544 L 105.66538 150.95306 z M 107.02964 150.95513 L 107.65338 159.87241 C 107.80237 159.8966 107.94808 159.92529 108.09159 159.95664 L 107.30456 150.95978 C 107.21409 150.95672 107.12079 150.95733 107.02964 150.95513 z M 104.00916 151.04246 C 103.91518 151.05048 103.82032 151.0572 103.727 151.06623 L 102.39427 160.54937 C 102.54816 160.47046 102.70682 160.39852 102.86866 160.3313 L 104.00916 151.04246 z M 108.70809 151.04763 L 110.45631 160.96175 C 110.64653 161.09408 110.82838 161.23716 111.00201 161.39118 L 108.99696 151.07398 C 108.90126 151.06454 108.80464 151.05602 108.70809 151.04763 z M 102.26249 151.25537 C 102.1606 151.2717 102.05761 151.28631 101.95657 151.30394 L 97.712382 168.32719 L 98.307178 168.38662 L 98.63739 166.95777 C 98.772011 165.96951 98.974472 165.08992 99.246139 164.31969 L 102.26249 151.25537 z M 110.50747 151.27242 L 118.74262 179.99366 C 118.94907 179.72107 119.14871 179.45007 119.34207 179.18028 L 110.82683 151.32771 C 110.72101 151.30855 110.61443 151.29014 110.50747 151.27242 z M 100.31842 151.65586 C 100.19859 151.6867 100.0809 151.72068 99.962374 151.75353 L 94.062992 167.96236 L 94.682593 168.02437 L 100.31842 151.65586 z M 112.55695 151.71942 L 121.92021 174.89475 C 122.06895 174.5846 122.20792 174.27677 122.33724 173.97078 L 112.93729 151.82639 C 112.81187 151.78906 112.68426 151.75438 112.55695 151.71942 z M 97.971281 152.42067 C 97.815301 152.48311 97.662687 152.55064 97.509294 152.61704 L 90.212581 167.57737 L 90.873006 167.64351 L 97.971281 152.42067 z M 115.14181 152.64701 L 123.73715 168.81295 C 123.78529 168.42664 123.82169 168.03716 123.8467 167.64506 L 115.67718 152.90746 C 115.50035 152.81864 115.32343 152.7298 115.14181 152.64701 z M 94.589058 154.22366 C 94.336519 154.39641 94.086985 154.57418 93.843368 154.76058 C 93.813116 154.78373 93.785029 154.80951 93.755001 154.83293 L 88.760474 162.82572 C 88.595599 163.41127 88.449472 164.02019 88.322774 164.65248 L 94.589058 154.22366 z M 119.97201 156.14292 L 122.56565 159.98868 C 121.93008 158.60149 121.06596 157.3194 119.97201 156.14292 z M 112.7218 170.23664 C 112.59992 170.61121 112.45588 170.98659 112.2903 171.36267 L 114.61523 184.54894 C 114.87587 184.2929 115.11961 184.04891 115.35937 183.80739 L 112.7218 170.23664 z M 109.45637 175.55259 C 109.25106 175.78018 109.03639 176.01512 108.80008 176.26676 L 109.70183 189.1621 C 109.98046 188.90349 110.27519 188.6314 110.5762 188.35388 L 109.45637 175.55259 z M 105.15947 179.92183 C 104.89979 180.17225 104.62947 180.43109 104.35384 180.69388 L 103.84948 195.13796 C 104.1739 194.7013 104.52829 194.26006 104.91711 193.81349 L 105.15947 179.92183 z M 99.845068 184.95512 C 99.496255 185.29228 99.156316 185.62489 98.823942 185.95299 L 95.924894 206.58067 L 97.189933 206.58067 L 99.845068 184.95512 z M 92.721472 192.58204 C 92.128177 193.32061 91.600304 194.02345 91.139657 194.68889 L 88.174463 206.58067 L 89.489628 206.58067 L 92.721472 192.58204 z M 103.79418 196.71564 L 103.45002 206.58067 L 104.69438 206.58067 L 104.86647 196.71564 L 103.79418 196.71564 z M 110.22996 196.71564 L 110.91984 206.58067 L 112.17093 206.58067 L 111.30793 196.71564 L 110.22996 196.71564 z M 116.76083 196.71564 L 118.50026 206.58067 L 119.78597 206.58067 L 117.86877 196.71564 L 116.76083 196.71564 z M 123.53768 196.71564 L 123.89218 197.95174 L 123.89218 196.71564 L 123.53768 196.71564 z " />
      <path
         id="text1019"
         style="font-weight:bold;font-size:77.4091px;font-family:Arial;-inkscape-font-specification:'Arial, Bold';fill:#000000;fill-opacity:1;stroke:none;stroke-width:0.155;stroke-dasharray:none"
         inkscape:label="1"
         d="M 108.97113 150.94272 L 117.44761 194.54988 L 117.44761 189.48663 L 109.25483 150.94272 L 108.97113 150.94272 z M 110.709 150.94272 L 117.44761 172.98376 L 117.44761 170.76064 L 111.00821 150.94272 L 110.709 150.94272 z M 112.56212 150.94272 L 117.44761 162.4521 L 117.44761 161.18809 L 112.88613 150.94272 L 112.56212 150.94272 z M 114.58835 150.94272 L 117.44761 156.10055 L 117.44761 155.27218 L 114.94802 150.94272 L 114.58835 150.94272 z M 116.86522 150.94272 L 117.44761 151.7742 L 117.44761 151.17837 L 117.27656 150.94272 L 116.86522 150.94272 z M 107.81823 153.22992 C 107.73054 153.39565 107.63962 153.55996 107.54641 153.72343 L 112.17093 206.58067 L 113.42563 206.58067 L 107.81823 153.22992 z M 105.93772 156.0959 C 105.81731 156.24743 105.69362 156.39774 105.56772 156.54703 L 105.37031 167.84247 C 105.56113 167.68241 105.74998 167.51889 105.93772 167.35464 L 105.93772 156.0959 z M 103.48257 158.69471 C 103.3311 158.83129 103.17638 158.96648 103.01955 159.10088 L 101.60827 170.59734 C 101.83267 170.45438 102.05658 170.31049 102.27748 170.16274 L 103.48257 158.69471 z M 100.47087 161.0558 C 100.28304 161.18862 100.09477 161.32294 99.90863 161.45009 L 97.248844 172.9729 C 97.505905 172.85446 97.761459 172.73432 98.014689 172.61065 L 100.47087 161.0558 z M 96.841117 163.3337 C 96.619125 163.45332 96.398477 163.5672 96.179142 163.67786 L 93.106462 172.60135 L 93.106462 174.60433 C 93.133882 174.59528 93.160728 174.58553 93.18811 174.57642 L 96.841117 163.3337 z " />
      <path
         id="text1023"
         style="font-weight:bold;font-size:77.4091px;font-family:Arial;-inkscape-font-specification:'Arial, Bold';fill:#000000;fill-opacity:1;stroke:none;stroke-width:0.155;stroke-dasharray:none"
         inkscape:label="0"
         d="M 104.61222 150.48539 C 104.52356 150.48805 104.43304 150.48734 104.34505 150.49107 L 103.38542 159.61713 C 103.53005 159.56232 103.67713 159.5144 103.82622 159.47295 L 104.61222 150.48539 z M 105.93772 150.48539 L 105.93772 159.32051 C 106.07946 159.33729 106.21959 159.35886 106.35733 159.38665 L 106.2023 150.49107 C 106.11517 150.48735 106.0255 150.48804 105.93772 150.48539 z M 107.54176 150.59701 L 108.57684 160.44499 C 108.61052 160.47224 108.6453 160.49636 108.67864 160.52457 C 108.81428 160.63308 108.94678 160.75743 109.07603 160.89561 L 107.81564 150.62957 C 107.72469 150.61812 107.63348 150.60718 107.54176 150.59701 z M 102.97098 150.60011 C 102.8757 150.61075 102.78066 150.62169 102.68624 150.6337 L 99.974776 163.38951 C 100.22443 162.73065 100.50445 162.16046 100.81659 161.68212 L 102.97098 150.60011 z M 109.23829 150.86521 L 119.45111 198.91137 C 119.7309 198.4008 119.99531 197.86532 120.24434 197.30475 L 109.53853 150.93394 C 109.43849 150.91095 109.3394 150.88646 109.23829 150.86521 z M 101.18245 150.89053 C 101.07451 150.9139 100.96722 150.93806 100.86051 150.9634 L 88.129504 190.14498 C 88.25331 190.87085 88.386545 191.57816 88.537748 192.25028 L 101.18245 150.89053 z M 111.15601 151.39644 L 122.79716 187.22526 C 122.88615 186.49209 122.96201 185.7379 123.02557 184.96339 L 111.51051 151.5215 C 111.39364 151.47772 111.27455 151.43748 111.15601 151.39644 z M 99.077673 151.49825 C 98.941076 151.54857 98.806287 151.60183 98.672013 151.65586 L 87.301648 177.1928 C 87.293302 177.67967 87.285628 178.16682 87.285628 178.66713 C 87.285628 178.87011 87.29011 179.06389 87.291313 179.26451 L 99.077673 151.49825 z M 113.57498 152.49043 L 123.12272 173.9346 C 123.07942 173.22422 123.02785 172.52779 122.96459 171.85049 L 114.07366 152.78447 C 113.91011 152.68211 113.74269 152.586 113.57498 152.49043 z M 96.163123 152.97051 C 95.930237 153.12432 95.701864 153.28512 95.477893 153.45317 L 88.61733 165.33564 C 88.462936 165.98444 88.321635 166.65431 88.1941 167.34637 L 96.163123 152.97051 z M 118.44238 156.99507 L 120.01593 159.721 C 119.54302 158.72678 119.01847 157.8183 118.44238 156.99507 z M 98.825492 168.79745 L 92.060531 200.62341 C 92.119129 200.7007 92.17707 200.77924 92.236747 200.85441 C 92.492066 201.17404 92.755949 201.47727 93.023779 201.77218 L 98.493213 173.63643 C 98.564058 171.8182 98.672312 170.19264 98.825492 168.79745 z M 112.02004 184.87347 C 111.93308 186.64387 111.8062 188.20769 111.63401 189.53727 L 113.28249 205.21848 C 113.67827 205.00692 114.0605 204.7742 114.43333 204.52602 L 112.02004 184.87347 z M 99.814062 193.59904 L 98.536104 205.7554 C 98.928325 205.92249 99.328494 206.07382 99.737065 206.2086 L 100.66931 195.5524 C 100.36246 195.0079 100.07749 194.35734 99.814062 193.59904 z M 107.03068 197.96518 C 106.67957 198.0831 106.31457 198.16192 105.93772 198.20496 L 105.93772 207.03801 C 106.36119 207.02537 106.77961 207.00479 107.18777 206.96773 L 107.03068 197.96518 z " />
    </g>
    <circle
       style="fill:none;stroke:#000000;stroke-width:0.0985353;stroke-opacity:1"
       id="path45725"
       cx="105.93768"
       cy="135.86559"
       r="74.450729" />
    <path
       style="fill:#000000;fill-opacity:1;stroke:none;stroke-width:0.155;stroke-dasharray:none;stroke-opacity:1"
       d="m 105.93767,135.86559 -74.042871,7.78222 -0.396504,-6.48288 74.439385,-1.29934 m -1e-5,0 -72.823793,15.47918 -1.071977,-6.40592 73.89578,-9.07326 m -1e-5,0 -70.806842,23.00654 -1.735706,-6.25877 72.542558,-16.74777 m -1e-5,0 -68.014116,30.28184 -2.380418,-6.04306 70.394544,-24.23878 m -1e-5,0 -64.476214,37.22536 -2.999048,-5.76113 67.475272,-31.46423 m -1e-5,1e-5 -60.231896,43.76103 -3.584822,-5.41608 63.816728,-38.34496 m -1e-5,1e-5 -55.327665,49.81725 -4.131319,-5.0117 59.458994,-44.80556 m -1e-5,1e-5 -49.817252,55.32766 -4.632552,-4.5524 54.449814,-50.77527 m -1e-5,1e-5 -43.761031,60.2319 -5.08303,-4.04324 48.844071,-56.18867 m 0,1e-5 -37.225365,64.47621 -5.477818,-3.48976 42.703183,-60.98646 m 0,1e-5 -30.28184,68.01412 -5.812589,-2.89806 36.094429,-65.11607 m 0,1e-5 -23.006541,70.80684 -6.083676,-2.2746 29.090217,-68.53225 m 0,1e-5 -15.479177,72.82379 -6.28811,-1.62622 21.767287,-71.19758 m 0,1e-5 -7.78222,74.04287 -6.42365,-0.96003 14.20587,-73.08285 m 0,1e-5 v 74.45072 l -6.48881,-0.28331 6.48881,-74.16742 m 0,1e-5 7.78222,74.04287 -6.48288,0.39651 -1.29934,-74.43939 m 0,1e-5 15.47918,72.82379 -6.40592,1.07198 -9.07326,-73.89578 m 0,1e-5 23.00654,70.80684 -6.25877,1.73571 -16.74777,-72.54256 m 0,1e-5 30.28184,68.01412 -6.04306,2.38041 -24.23878,-70.39454 m 0,1e-5 37.22536,64.47621 -5.76113,2.99905 -31.46423,-67.47527 m 1e-5,1e-5 43.76103,60.2319 -5.41608,3.58482 -38.34496,-63.81673 m 1e-5,1e-5 49.81725,55.32766 -5.0117,4.13132 -44.80556,-59.45899 m 1e-5,1e-5 55.32766,49.81725 -4.5524,4.63255 -50.77527,-54.44981 m 1e-5,1e-5 60.2319,43.76103 -4.04324,5.08303 -56.18867,-48.84407 m 1e-5,0 64.47621,37.22536 -3.48976,5.47782 -60.98646,-42.70318 m 1e-5,0 68.01412,30.28184 -2.89806,5.81259 -65.11607,-36.09443 m 1e-5,0 70.80684,23.00654 -2.2746,6.08368 -68.53225,-29.09022 m 1e-5,0 72.82379,15.47918 -1.62622,6.28811 -71.19758,-21.76729 m 1e-5,0 74.04287,7.78222 -0.96003,6.42365 -73.08285,-14.20587 m 1e-5,0 74.45072,0 -0.28331,6.48881 -74.16742,-6.48881"
       id="path1237"
       sodipodi:nodetypes="cccc"
       inkscape:transform-center-x="-0.0056722664"
       inkscape:transform-center-y="37.225365"
       inkscape:label="reveal layer"
       inkscape:original-d="M 105.93768,135.86558 V 61.41486 l 6.48881,0.283313 -6.48881,74.167417"
       inkscape:path-effect="#path-effect1241"
       class="UnoptimicedTransforms" />
  </g>
</svg>
