<?xml version="1.0" encoding="UTF-8" standalone="no"?>
<!-- Created with Inkscape (http://www.inkscape.org/) -->

<svg
   width="163mm"
   height="163mm"
   viewBox="0 0 163 163"
   version="1.1"
   id="svg2083"
   inkscape:version="1.2.1 (9c6d41e410, 2022-07-14)"
   sodipodi:docname="moire clock - min wheel printed.svg"
   inkscape:export-filename="moire clock - min wheel printed.pdf"
   inkscape:export-xdpi="300"
   inkscape:export-ydpi="300"
   xmlns:inkscape="http://www.inkscape.org/namespaces/inkscape"
   xmlns:sodipodi="http://sodipodi.sourceforge.net/DTD/sodipodi-0.dtd"
   xmlns="http://www.w3.org/2000/svg"
   xmlns:svg="http://www.w3.org/2000/svg">
  <sodipodi:namedview
     id="namedview2085"
     pagecolor="#ffffff"
     bordercolor="#000000"
     borderopacity="0.25"
     inkscape:showpageshadow="2"
     inkscape:pageopacity="0.0"
     inkscape:pagecheckerboard="0"
     inkscape:deskcolor="#d1d1d1"
     inkscape:document-units="mm"
     showgrid="false"
     inkscape:zoom="2.02"
     inkscape:cx="275.9901"
     inkscape:cy="297.52475"
     inkscape:window-width="2560"
     inkscape:window-height="1494"
     inkscape:window-x="-11"
     inkscape:window-y="-11"
     inkscape:window-maximized="1"
     inkscape:current-layer="layer3" />
  <defs
     id="defs2080">
    <inkscape:path-effect
       effect="copy_rotate"
       starting_point="95.484834,36.4134"
       origin="105.93768,135.86559"
       id="path-effect1241"
       is_visible="true"
       lpeversion="1.2"
       lpesatellites=""
       method="normal"
       num_copies="30"
       starting_angle="96"
       rotation_angle="6"
       gap="-0.01"
       copies_to_360="false"
       mirror_copies="false"
       split_items="false"
       link_styles="false" />
    <inkscape:path-effect
       effect="copy_rotate"
       starting_point="107.56143,135.86559"
       origin="105.93768,135.86559"
       id="path-effect1229"
       is_visible="true"
       lpeversion="1.2"
       lpesatellites=""
       method="normal"
       num_copies="30"
       starting_angle="96"
       rotation_angle="6"
       gap="-0.01"
       copies_to_360="false"
       mirror_copies="false"
       split_items="false"
       link_styles="false" />
    <inkscape:path-effect
       effect="copy_rotate"
       starting_point="107.56143,135.86559"
       origin="105.93768,135.86559"
       id="path-effect1223"
       is_visible="true"
       lpeversion="1.2"
       lpesatellites=""
       method="normal"
       num_copies="30"
       starting_angle="96"
       rotation_angle="6"
       gap="-0.01"
       copies_to_360="false"
       mirror_copies="false"
       split_items="false"
       link_styles="false" />
    <inkscape:path-effect
       effect="copy_rotate"
       starting_point="107.56143,135.86559"
       origin="105.93768,135.86559"
       id="path-effect1217"
       is_visible="true"
       lpeversion="1.2"
       lpesatellites=""
       method="normal"
       num_copies="30"
       starting_angle="96"
       rotation_angle="6"
       gap="-0.01"
       copies_to_360="false"
       mirror_copies="false"
       split_items="false"
       link_styles="false" />
    <inkscape:path-effect
       effect="copy_rotate"
       starting_point="107.56143,135.86559"
       origin="105.93768,135.86559"
       id="path-effect1211"
       is_visible="true"
       lpeversion="1.2"
       lpesatellites=""
       method="normal"
       num_copies="30"
       starting_angle="96"
       rotation_angle="6"
       gap="-0.01"
       copies_to_360="false"
       mirror_copies="false"
       split_items="false"
       link_styles="false" />
    <inkscape:path-effect
       effect="copy_rotate"
       starting_point="107.56143,135.86559"
       origin="105.93768,135.86559"
       id="path-effect1205"
       is_visible="true"
       lpeversion="1.2"
       lpesatellites=""
       method="normal"
       num_copies="30"
       starting_angle="96"
       rotation_angle="6"
       gap="-0.01"
       copies_to_360="false"
       mirror_copies="false"
       split_items="false"
       link_styles="false" />
    <inkscape:path-effect
       effect="copy_rotate"
       starting_point="107.56143,135.86559"
       origin="105.93768,135.86559"
       id="path-effect1199"
       is_visible="false"
       lpeversion="1.2"
       lpesatellites=""
       method="normal"
       num_copies="30"
       starting_angle="0"
       rotation_angle="6"
       gap="-0.01"
       copies_to_360="false"
       mirror_copies="false"
       split_items="false"
       link_styles="false" />
    <inkscape:path-effect
       effect="copy_rotate"
       starting_point="107.56143,135.86559"
       origin="105.93768,135.86559"
       id="path-effect1193"
       is_visible="true"
       lpeversion="1.2"
       lpesatellites=""
       method="normal"
       num_copies="30"
       starting_angle="96"
       rotation_angle="6"
       gap="-0.01"
       copies_to_360="false"
       mirror_copies="false"
       split_items="false"
       link_styles="false" />
    <inkscape:path-effect
       effect="copy_rotate"
       starting_point="109.39309,148.30427"
       origin="105,148.30427"
       id="path-effect717"
       is_visible="true"
       lpeversion="1.2"
       lpesatellites=""
       method="normal"
       num_copies="30"
       starting_angle="-85.2"
       rotation_angle="6"
       gap="-0.01"
       copies_to_360="false"
       mirror_copies="false"
       split_items="false"
       link_styles="false" />
    <inkscape:path-effect
       effect="copy_rotate"
       starting_point="109.39309,148.30427"
       origin="105,148.30427"
       id="path-effect710"
       is_visible="true"
       lpeversion="1.2"
       lpesatellites=""
       method="normal"
       num_copies="30"
       starting_angle="-85.2"
       rotation_angle="6"
       gap="-0.01"
       copies_to_360="false"
       mirror_copies="false"
       split_items="false"
       link_styles="false" />
    <inkscape:path-effect
       effect="copy_rotate"
       starting_point="109.39309,148.30427"
       origin="105,148.30427"
       id="path-effect703"
       is_visible="true"
       lpeversion="1.2"
       lpesatellites=""
       method="normal"
       num_copies="30"
       starting_angle="-85.2"
       rotation_angle="6"
       gap="-0.01"
       copies_to_360="false"
       mirror_copies="false"
       split_items="false"
       link_styles="false" />
    <inkscape:path-effect
       effect="copy_rotate"
       starting_point="109.39309,148.30427"
       origin="105,148.30427"
       id="path-effect696"
       is_visible="true"
       lpeversion="1.2"
       lpesatellites=""
       method="normal"
       num_copies="30"
       starting_angle="-85.2"
       rotation_angle="6"
       gap="-0.01"
       copies_to_360="false"
       mirror_copies="false"
       split_items="false"
       link_styles="false" />
    <inkscape:path-effect
       effect="copy_rotate"
       starting_point="109.39309,148.30427"
       origin="105,148.30427"
       id="path-effect689"
       is_visible="true"
       lpeversion="1.2"
       lpesatellites=""
       method="normal"
       num_copies="30"
       starting_angle="-85.2"
       rotation_angle="6"
       gap="-0.01"
       copies_to_360="false"
       mirror_copies="false"
       split_items="false"
       link_styles="false" />
    <inkscape:path-effect
       effect="copy_rotate"
       starting_point="109.39309,148.30427"
       origin="105,148.30427"
       id="path-effect615"
       is_visible="true"
       lpeversion="1.2"
       lpesatellites=""
       method="normal"
       num_copies="60"
       starting_angle="-85.2"
       rotation_angle="6"
       gap="-0.01"
       copies_to_360="true"
       mirror_copies="false"
       split_items="false"
       link_styles="false" />
    <inkscape:path-effect
       effect="copy_rotate"
       starting_point="109.39309,148.30427"
       origin="105,148.30427"
       id="path-effect609"
       is_visible="true"
       lpeversion="1.2"
       lpesatellites=""
       method="normal"
       num_copies="60"
       starting_angle="-85.2"
       rotation_angle="6"
       gap="-0.01"
       copies_to_360="true"
       mirror_copies="false"
       split_items="false"
       link_styles="false" />
    <inkscape:path-effect
       effect="copy_rotate"
       starting_point="109.39309,148.30427"
       origin="105,148.30427"
       id="path-effect603"
       is_visible="true"
       lpeversion="1.2"
       lpesatellites=""
       method="normal"
       num_copies="60"
       starting_angle="-85.2"
       rotation_angle="6"
       gap="-0.01"
       copies_to_360="true"
       mirror_copies="false"
       split_items="false"
       link_styles="false" />
    <inkscape:path-effect
       effect="copy_rotate"
       starting_point="109.39309,148.30427"
       origin="105,148.30427"
       id="path-effect597"
       is_visible="true"
       lpeversion="1.2"
       lpesatellites=""
       method="normal"
       num_copies="60"
       starting_angle="-85.2"
       rotation_angle="6"
       gap="-0.01"
       copies_to_360="true"
       mirror_copies="false"
       split_items="false"
       link_styles="false" />
    <inkscape:path-effect
       effect="copy_rotate"
       starting_point="109.39309,148.30427"
       origin="105,148.30427"
       id="path-effect587"
       is_visible="true"
       lpeversion="1.2"
       lpesatellites=""
       method="normal"
       num_copies="60"
       starting_angle="-85.2"
       rotation_angle="12"
       gap="-0.01"
       copies_to_360="true"
       mirror_copies="false"
       split_items="false"
       link_styles="false" />
    <inkscape:path-effect
       effect="copy_rotate"
       starting_point="109.39309,148.30427"
       origin="105,148.30427"
       id="path-effect581"
       is_visible="true"
       lpeversion="1.2"
       lpesatellites=""
       method="normal"
       num_copies="30"
       starting_angle="-85.2"
       rotation_angle="6"
       gap="-0.01"
       copies_to_360="false"
       mirror_copies="false"
       split_items="false"
       link_styles="false" />
    <inkscape:path-effect
       effect="copy_rotate"
       starting_point="109.39309,148.30427"
       origin="105,148.30427"
       id="path-effect575"
       is_visible="true"
       lpeversion="1.2"
       lpesatellites=""
       method="normal"
       num_copies="30"
       starting_angle="-85.2"
       rotation_angle="6"
       gap="-0.01"
       copies_to_360="false"
       mirror_copies="false"
       split_items="false"
       link_styles="false" />
    <inkscape:path-effect
       effect="copy_rotate"
       starting_point="109.39309,148.30427"
       origin="105,148.30427"
       id="path-effect569"
       is_visible="true"
       lpeversion="1.2"
       lpesatellites=""
       method="normal"
       num_copies="30"
       starting_angle="-85.2"
       rotation_angle="6"
       gap="-0.01"
       copies_to_360="false"
       mirror_copies="false"
       split_items="false"
       link_styles="false" />
    <inkscape:path-effect
       effect="copy_rotate"
       starting_point="109.39309,148.30427"
       origin="105,148.30427"
       id="path-effect562"
       is_visible="true"
       lpeversion="1.2"
       lpesatellites=""
       method="normal"
       num_copies="30"
       starting_angle="-85.2"
       rotation_angle="6"
       gap="-0.01"
       copies_to_360="false"
       mirror_copies="false"
       split_items="false"
       link_styles="false" />
    <inkscape:path-effect
       effect="copy_rotate"
       starting_point="109.39309,148.30427"
       origin="105,148.30427"
       id="path-effect1284"
       is_visible="true"
       lpeversion="1.2"
       lpesatellites=""
       method="normal"
       num_copies="30"
       starting_angle="-85.2"
       rotation_angle="6"
       gap="-0.01"
       copies_to_360="false"
       mirror_copies="false"
       split_items="false"
       link_styles="false" />
    <inkscape:path-effect
       effect="copy_rotate"
       starting_point="109.94069,148.30428"
       origin="105,148.30428"
       id="path-effect2022"
       is_visible="true"
       lpeversion="1.2"
       lpesatellites=""
       method="normal"
       num_copies="60"
       starting_angle="0"
       rotation_angle="6"
       gap="-0.01"
       copies_to_360="true"
       mirror_copies="false"
       split_items="false"
       link_styles="false" />
    <inkscape:path-effect
       effect="copy_rotate"
       starting_point="109.94069,148.30428"
       origin="105,148.30428"
       id="path-effect2015"
       is_visible="true"
       lpeversion="1.2"
       lpesatellites=""
       method="normal"
       num_copies="60"
       starting_angle="0"
       rotation_angle="6"
       gap="-0.01"
       copies_to_360="true"
       mirror_copies="false"
       split_items="false"
       link_styles="false" />
    <inkscape:path-effect
       effect="copy_rotate"
       starting_point="109.94069,148.30428"
       origin="105,148.30428"
       id="path-effect2008"
       is_visible="true"
       lpeversion="1.2"
       lpesatellites=""
       method="normal"
       num_copies="60"
       starting_angle="0"
       rotation_angle="6"
       gap="-0.01"
       copies_to_360="true"
       mirror_copies="false"
       split_items="false"
       link_styles="false" />
    <inkscape:path-effect
       effect="copy_rotate"
       starting_point="109.94069,148.30428"
       origin="105,148.30428"
       id="path-effect2001"
       is_visible="true"
       lpeversion="1.2"
       lpesatellites=""
       method="normal"
       num_copies="60"
       starting_angle="0"
       rotation_angle="6"
       gap="-0.01"
       copies_to_360="true"
       mirror_copies="false"
       split_items="false"
       link_styles="false" />
    <inkscape:path-effect
       effect="copy_rotate"
       starting_point="109.94069,148.30428"
       origin="105,148.30428"
       id="path-effect1994"
       is_visible="true"
       lpeversion="1.2"
       lpesatellites=""
       method="normal"
       num_copies="60"
       starting_angle="0"
       rotation_angle="6"
       gap="-0.01"
       copies_to_360="true"
       mirror_copies="false"
       split_items="false"
       link_styles="false" />
    <inkscape:path-effect
       effect="copy_rotate"
       starting_point="109.94069,148.30428"
       origin="105,148.30428"
       id="path-effect1987"
       is_visible="true"
       lpeversion="1.2"
       lpesatellites=""
       method="normal"
       num_copies="60"
       starting_angle="0"
       rotation_angle="6"
       gap="-0.01"
       copies_to_360="true"
       mirror_copies="false"
       split_items="false"
       link_styles="false" />
    <inkscape:path-effect
       effect="copy_rotate"
       starting_point="109.94069,148.30428"
       origin="105,148.30428"
       id="path-effect1980"
       is_visible="true"
       lpeversion="1.2"
       lpesatellites=""
       method="normal"
       num_copies="60"
       starting_angle="0"
       rotation_angle="6"
       gap="-0.01"
       copies_to_360="true"
       mirror_copies="false"
       split_items="false"
       link_styles="false" />
    <inkscape:path-effect
       effect="copy_rotate"
       starting_point="109.94069,148.30428"
       origin="105,148.30428"
       id="path-effect1973"
       is_visible="true"
       lpeversion="1.2"
       lpesatellites=""
       method="normal"
       num_copies="60"
       starting_angle="0"
       rotation_angle="6"
       gap="-0.01"
       copies_to_360="true"
       mirror_copies="false"
       split_items="false"
       link_styles="false" />
    <inkscape:path-effect
       effect="copy_rotate"
       starting_point="109.94069,148.30428"
       origin="105,148.30428"
       id="path-effect1925"
       is_visible="true"
       lpeversion="1.2"
       lpesatellites=""
       method="normal"
       num_copies="60"
       starting_angle="0"
       rotation_angle="6"
       gap="-0.01"
       copies_to_360="true"
       mirror_copies="false"
       split_items="false"
       link_styles="false" />
    <inkscape:path-effect
       effect="copy_rotate"
       starting_point="109.94069,148.30428"
       origin="105,148.30428"
       id="path-effect1918"
       is_visible="true"
       lpeversion="1.2"
       lpesatellites=""
       method="normal"
       num_copies="60"
       starting_angle="0"
       rotation_angle="6"
       gap="-0.01"
       copies_to_360="true"
       mirror_copies="false"
       split_items="false"
       link_styles="false" />
    <inkscape:path-effect
       effect="copy_rotate"
       starting_point="109.94069,148.30428"
       origin="105,148.30428"
       id="path-effect1822"
       is_visible="true"
       lpeversion="1.2"
       lpesatellites=""
       method="normal"
       num_copies="60"
       starting_angle="0"
       rotation_angle="6"
       gap="-0.01"
       copies_to_360="true"
       mirror_copies="false"
       split_items="false"
       link_styles="false" />
    <inkscape:path-effect
       effect="copy_rotate"
       starting_point="109.94069,148.30428"
       origin="105,148.30428"
       id="path-effect1546"
       is_visible="true"
       lpeversion="1.2"
       lpesatellites=""
       method="normal"
       num_copies="60"
       starting_angle="0"
       rotation_angle="60"
       gap="-0.01"
       copies_to_360="true"
       mirror_copies="false"
       split_items="false"
       link_styles="false" />
    <inkscape:path-effect
       effect="copy_rotate"
       starting_point="107.47309,148.30428"
       origin="105,148.30428"
       id="path-effect1542"
       is_visible="true"
       lpeversion="1.2"
       lpesatellites=""
       method="normal"
       num_copies="120"
       starting_angle="0"
       rotation_angle="360"
       gap="-0.01"
       copies_to_360="true"
       mirror_copies="false"
       split_items="false"
       link_styles="false" />
    <inkscape:path-effect
       effect="copy_rotate"
       starting_point="108.49799,148.30428"
       origin="105,148.30428"
       id="path-effect998"
       is_visible="true"
       lpeversion="1.2"
       lpesatellites=""
       method="normal"
       num_copies="60"
       starting_angle="0"
       rotation_angle="60"
       gap="-0.01"
       copies_to_360="true"
       mirror_copies="false"
       split_items="false"
       link_styles="false" />
    <inkscape:path-effect
       effect="copy_rotate"
       starting_point="114.6624,121.32478"
       origin="111.67686,121.32478"
       id="path-effect996"
       is_visible="true"
       lpeversion="1.2"
       lpesatellites=""
       method="normal"
       num_copies="6"
       starting_angle="0"
       rotation_angle="60"
       gap="-0.01"
       copies_to_360="true"
       mirror_copies="false"
       split_items="false"
       link_styles="false" />
    <inkscape:path-effect
       effect="copy_rotate"
       starting_point="106.64906,148.30428"
       origin="105,148.30428"
       id="path-effect993"
       is_visible="false"
       lpeversion="1.2"
       lpesatellites=""
       method="normal"
       num_copies="60"
       starting_angle="0"
       rotation_angle="6"
       gap="-0.01"
       copies_to_360="true"
       mirror_copies="false"
       split_items="false"
       link_styles="false" />
    <inkscape:path-effect
       effect="bend_path"
       id="path-effect1196"
       is_visible="true"
       lpeversion="1"
       bendpath="#path989"
       prop_scale="1.4"
       scale_y_rel="false"
       vertical="false"
       hide_knot="false" />
    <inkscape:path-effect
       effect="bend_path"
       id="path-effect1054"
       is_visible="true"
       lpeversion="1"
       bendpath="M 0,0 H 1"
       prop_scale="1.4"
       scale_y_rel="false"
       vertical="false"
       hide_knot="false" />
    <inkscape:path-effect
       effect="copy_rotate"
       starting_point="205,148.30428"
       origin="105,148.30428"
       id="path-effect4657"
       is_visible="true"
       lpeversion="1.2"
       lpesatellites=""
       method="normal"
       num_copies="59"
       starting_angle="0"
       rotation_angle="6.1016949"
       gap="-0.01"
       copies_to_360="true"
       mirror_copies="false"
       split_items="false"
       link_styles="false" />
    <inkscape:path-effect
       effect="copy_rotate"
       starting_point="107.70906,148.30428"
       origin="105,148.30428"
       id="path-effect4651"
       is_visible="false"
       lpeversion="1.2"
       lpesatellites=""
       method="normal"
       num_copies="60"
       starting_angle="0"
       rotation_angle="60"
       gap="-0.01"
       copies_to_360="true"
       mirror_copies="false"
       split_items="false"
       link_styles="false" />
    <clipPath
       clipPathUnits="userSpaceOnUse"
       id="clipPath1221">
      <path
         style="display:inline;fill:#000000;fill-opacity:1;stroke:#000000;stroke-width:0.1"
         d="M 105,148.30427 110.41811,43.444159 105,43.304274 M 105,148.30427 99.241468,43.462303 93.839183,43.89912 M 105,148.30427 88.130072,44.668348 82.804823,45.676918 M 105,148.30427 77.209819,47.04863 72.021943,48.617525 M 105,148.30427 66.60444,50.576178 61.612718,52.687623 m 43.387272,95.616647 -48.565892,-93.093244 -4.73901,2.63007 M 104.99999,148.30427 46.814027,60.900657 42.381424,64.019553 M 104.99999,148.30427 37.853226,67.580605 33.777253,71.15299 m 71.222737,77.15128 -75.346765,-73.129084 -3.67316,3.985395 M 104.99999,148.30427 22.306933,83.598348 19.078204,87.951598 M 104.99999,148.30428 15.897587,92.754654 13.149871,97.426436 M 104.99999,148.30428 10.497807,102.54036 8.2622368,107.47774 M 104.99999,148.30428 6.1687739,112.84459 4.4706802,117.99162 M 104.99999,148.30428 2.9595385,123.55059 1.818161,128.84896 M 104.99999,148.30428 0.90646222,134.53706 0.33473328,139.92674 M 104.99999,148.30428 0.03280735,145.67952 l 0.0043975,5.41991 M 104.99999,148.30428 0.3484727,156.85172 0.9289468,162.24046 M 104.99999,148.30428 1.8498817,167.92707 2.9998554,173.22358 M 104.99999,148.30428 4.5200227,178.78009 l 1.7064437,5.14427 m 98.7735236,-35.62008 -96.671348,40.98353 2.243579,4.93374 m 94.427769,-45.91726 -91.767404,51.02687 2.755294,4.66732 m 89.01211,-55.69419 -85.823698,60.49207 3.23579,4.34801 m 82.587908,-64.84008 -78.907575,69.27187 3.679623,3.97943 m 75.227952,-73.2513 -71.097398,77.2668 4.081765,3.56576 m 67.015633,-80.83256 -62.481658,84.38626 4.437658,3.1117 M 105,148.30429 l -53.157987,90.54959 4.743272,2.62237 M 105,148.30429 l -43.232004,95.68695 4.995141,2.10334 M 105,148.30429 l -32.816185,99.74015 5.190414,1.56047 M 105,148.30429 82.971454,250.96754 l 5.326878,0.99992 M 105,148.30429 94.008685,252.72742 l 5.402986,0.42805 M 105,148.30429 l 0.17045,104.99986 5.41788,-0.14868 M 105,148.30429 l 11.33029,104.38689 5.37138,-0.72372 M 105,148.30429 l 22.36175,102.59118 5.26402,-1.29056 M 105,148.30429 l 33.13984,99.63308 5.09702,-1.84279 M 105,148.30429 l 43.54244,95.54609 4.87228,-2.37413 m -48.41471,-93.17196 53.45169,90.37652 4.59231,-2.87856 m -58.044,-87.49796 62.75531,84.18295 4.26032,-3.35039 m -67.01563,-80.83256 71.34789,77.03556 3.88006,-3.78426 m -75.22795,-73.2513 79.13207,69.01532 3.45584,-4.17524 m -82.58791,-64.84008 86.01965,60.21311 2.99246,-4.51892 m -89.01211,-55.6942 91.93259,50.72867 2.49518,-4.8114 m -94.42777,-45.91727 96.8039,40.66945 1.96962,-5.04937 m -98.77352,-35.62008 100.57838,30.14942 1.42175,-5.23012 m -102.00013,-24.9193 103.21327,19.28779 0.85777,-5.35161 m -104.07104,-13.93618 104.67872,8.20762 0.28407,-5.41247 m -104.96279,-2.79515 104.95811,-2.96554 -0.29285,-5.412 m -104.66526,8.37754 104.04828,-14.10511 -0.86645,-5.35021 m -103.18183,19.45532 101.95955,-25.08485 -1.43024,-5.22781 m -100.52931,30.31266 98.71557,-35.78038 -1.97782,-5.04616 m -96.73775,40.82654 94.3531,-46.0705 -2.50298,-4.807344 m -91.85012,50.877834 88.92158,-55.838613 -2.99979,-4.514059 m -85.92179,60.352672 82.48254,-64.974062 -3.46261,-4.169627 m -79.01993,69.143689 75.10894,-73.373328 -3.8862,-3.777952 m -71.22274,77.15128 66.88432,-80.941246 -4.26575,-3.343471 m -62.61857,84.284717 57.90188,-87.592066 -4.59698,-2.871108 M 105,148.30427 153.2634,55.053837 148.38728,52.687623 M 105,148.30427 l 38.07806,-97.852236 -5.1,-1.834509 M 105,148.30427 132.46129,46.958937 127.19518,45.676918 M 105,148.30427 121.53336,44.614122 116.16082,43.89912"
         id="path1223"
         transform="rotate(-32.629983,104.99775,148.30491)"
         inkscape:label="base layer"
         inkscape:original-d="M 105,148.30427 110.41811,43.444159 105,43.304274"
         inkscape:path-effect="#path-effect4657"
         class="UnoptimicedTransforms" />
    </clipPath>
  </defs>
  <g
     inkscape:label="Ebene 1"
     inkscape:groupmode="layer"
     id="layer1"
     transform="translate(-2.9999927,-3.0000006)"
     inkscape:transform-center-x="0.4244522"
     inkscape:transform-center-y="-0.42470195">
    <path
       id="path45029"
       style="display:inline;fill:#000000;stroke:none;stroke-width:0.0625568"
       inkscape:label="reveal layer"
       inkscape:transform-center-x="0.21219625"
       inkscape:transform-center-y="-0.21245355"
       d="M 84.075664,2.6656541 A 81.40963,81.40963 0 0 0 2.6661629,84.075155 81.40963,81.40963 0 0 0 24.819333,139.86917 a 81.40963,81.40963 0 0 0 0.0031,0.003 81.40963,81.40963 0 0 0 3.880384,3.88038 81.40963,81.40963 0 0 0 55.797111,22.15679 A 81.40963,81.40963 0 0 0 165.90943,84.499935 81.40963,81.40963 0 0 0 143.75264,28.702824 81.40963,81.40963 0 0 0 139.87226,24.822441 81.40963,81.40963 0 0 0 84.075664,2.6656541 Z m 0.426331,7.4041989 a 74.429611,74.429611 0 0 1 74.428015,74.431116 74.429611,74.429611 0 0 1 -0.061,1.558044 L 99.48816,84.814128 A 15,15 0 0 0 99.500046,84.499935 15,15 0 0 0 84.500961,69.499817 15,15 0 0 0 69.500326,84.499419 l -59.429964,-0.001 A 74.429611,74.429611 0 0 1 84.501995,10.069853 Z M 69.55717,85.754123 a 15,15 0 0 0 0.03514,0.312125 l -59.063578,6.207373 a 74.429611,74.429611 0 0 1 -0.182934,-1.548226 z m 29.850892,0.312642 59.063578,6.20944 a 74.429611,74.429611 0 0 1 -0.18293,1.546676 l -58.915788,-7.44399 a 15,15 0 0 0 0.03514,-0.312126 z m -29.631783,1.241268 a 15,15 0 0 0 0.05839,0.308508 L 11.746746,99.962558 a 74.429611,74.429611 0 0 1 -0.303858,-1.527556 z m 29.389937,0.309025 58.087414,12.348083 a 74.429611,74.429611 0 0 1 -0.30438,1.528589 L 99.101104,87.924533 a 15,15 0 0 0 0.06511,-0.307475 z m -29.023035,1.21698 a 15,15 0 0 0 0.09715,0.29869 L 13.712517,107.49853 a 74.429611,74.429611 0 0 1 -0.422713,-1.50017 z m 28.616858,0.299206 56.527301,18.367876 a 74.429611,74.429611 0 0 1 -0.54002,1.46296 L 98.656169,89.42935 a 15,15 0 0 0 0.10387,-0.296106 z m -28.079423,1.175639 a 15,15 0 0 0 0.125574,0.287838 L 16.551104,114.75132 a 74.429611,74.429611 0 0 1 -0.652157,-1.41542 z m 27.513566,0.288355 54.253538,24.156662 a 74.429611,74.429611 0 0 1 -0.65216,1.41439 L 98.068608,90.885075 a 15,15 0 0 0 0.125574,-0.287837 z m -26.831437,1.124479 a 15,15 0 0 0 0.147278,0.278019 L 20.085772,121.68836 a 74.429611,74.429611 0 0 1 -0.761194,-1.3596 z m 26.127604,0.278019 51.423221,29.691214 a 74.429611,74.429611 0 0 1 -0.76171,1.3596 L 97.323434,92.26587 a 15,15 0 0 0 0.166915,-0.266134 z m -25.303882,1.058333 a 15,15 0 0 0 0.186552,0.252698 L 24.284998,128.24714 a 74.429611,74.429611 0 0 1 -0.866097,-1.29605 z m 24.441402,0.252698 48.086991,34.938953 a 74.429611,74.429611 0 0 1 -0.96532,1.22421 L 96.441318,93.563465 a 15,15 0 0 0 0.186551,-0.252698 z M 73.152817,94.29417 a 15,15 0 0 0 0.205155,0.238228 L 29.225265,134.26744 a 74.429611,74.429611 0 0 1 -1.057299,-1.14463 z m 22.4901,0.238228 44.130643,39.737112 a 74.429611,74.429611 0 0 1 -1.0573,1.14411 L 95.43311,94.765976 a 15,15 0 0 0 0.209807,-0.233578 z m -21.408513,0.899687 a 15,15 0 0 0 0.233578,0.209806 L 34.730356,139.77305 a 74.429611,74.429611 0 0 1 -1.144117,-1.05782 z m 20.298503,0.209806 39.735043,44.132709 a 74.429611,74.429611 0 0 1 -1.14463,1.05781 L 94.294679,95.847046 a 15,15 0 0 0 0.238228,-0.205155 z m -19.095992,0.798401 a 15,15 0 0 0 0.252698,0.186552 L 40.75066,144.71383 a 74.429611,74.429611 0 0 1 -1.224215,-0.9648 z m 17.874361,0.186552 34.936364,48.089056 a 74.429611,74.429611 0 0 1 -1.29604,0.86558 L 93.058578,96.813396 a 15,15 0 0 0 0.252698,-0.186552 z M 76.73451,97.322925 a 15,15 0 0 0 0.265617,0.166915 l -29.690177,51.4227 a 74.429611,74.429611 0 0 1 -1.360124,-0.76119 z m 15.265735,0.167432 29.688115,51.424253 a 74.429611,74.429611 0 0 1 -1.35909,0.76119 L 91.722743,97.637118 a 15,15 0 0 0 0.277502,-0.146761 z M 78.115304,98.0681 a 15,15 0 0 0 0.287838,0.125573 L 54.246477,152.44721 a 74.429611,74.429611 0 0 1 -1.414384,-0.65216 z m 12.482443,0.12609 24.154083,54.25405 a 74.429611,74.429611 0 0 1 -1.41542,0.65268 L 90.309909,98.319764 a 15,15 0 0 0 0.287838,-0.125574 z m -11.026718,0.460954 a 15,15 0 0 0 0.296106,0.103869 L 61.499264,155.28631 a 74.429611,74.429611 0 0 1 -1.462443,-0.54002 z m 9.562724,0.104386 18.365287,56.5273 a 74.429611,74.429611 0 0 1 -1.50017,0.42323 L 88.835064,98.856682 a 15,15 0 0 0 0.298689,-0.09715 z m -8.057906,0.340548 a 15,15 0 0 0 0.307475,0.06511 L 69.035238,157.2526 a 74.429611,74.429611 0 0 1 -1.529105,-0.30386 z m 6.54172,0.06511 12.345499,58.08793 a 74.429611,74.429611 0 0 1 -1.527555,0.30385 L 87.309058,99.223585 a 15,15 0 0 0 0.308509,-0.0584 z m -4.996078,0.207223 a 15,15 0 0 0 0.312126,0.03514 l -6.20944,59.063057 a 74.429611,74.429611 0 0 1 -1.546159,-0.18293 z m 3.445785,0.03514 6.206856,59.063577 a 74.429611,74.429611 0 0 1 -1.547709,0.18242 L 85.755148,99.442693 a 15,15 0 0 0 0.312126,-0.03514 z m -1.881022,0.0801 a 15,15 0 0 0 0.314192,0.01189 l -0.001,59.429443 a 74.429611,74.429611 0 0 1 -1.558045,-0.061 z" />
    <g
       id="g3564"
       style="stroke-width:0.1;stroke-dasharray:none"
       transform="translate(-21.167679,-52.866192)">
      <circle
         style="fill:none;stroke:#ffffff;stroke-width:0.0881051;stroke-dasharray:none;stroke-opacity:1"
         id="ellipse68049"
         cx="105.66768"
         cy="61.366192"
         inkscape:label="Bohrungen"
         r="1.9559475" />
      <path
         style="fill:#ffffff;stroke:#ffffff;stroke-width:0.1;stroke-opacity:1"
         d="m 105.66768,59.410244 v 3.911895"
         id="path3553" />
      <path
         style="fill:#ffffff;stroke:#ffffff;stroke-width:0.1;stroke-opacity:1"
         d="m 103.71454,61.468984 3.90908,-0.102792"
         id="path3555" />
    </g>
    <g
       id="g3569"
       style="stroke-width:0.1;stroke-dasharray:none"
       transform="translate(-21.437698,-51.3656)">
      <circle
         style="fill:none;stroke:#ffffff;stroke-width:0.1;stroke-dasharray:none;stroke-opacity:1"
         id="path68045"
         cx="105.93769"
         cy="135.8656"
         inkscape:label="Bohrungen"
         r="4.4400339" />
      <path
         style="fill:#ffffff;stroke:#ffffff;stroke-width:0.1;stroke-opacity:1"
         d="m 105.93769,131.42557 v 8.88006"
         id="path3557" />
      <path
         style="fill:#ffffff;stroke:#ffffff;stroke-width:0.1;stroke-opacity:1"
         d="m 101.49766,135.8656 h 8.88006"
         id="path3559" />
    </g>
  </g>
  <g
     inkscape:groupmode="layer"
     id="layer5"
     inkscape:label="weiss"
     style="display:inline"
     transform="translate(-1.0001302,-0.999872)">
    <path
       id="path918"
       style="display:inline;fill:#fffffc;fill-opacity:1;stroke:none;stroke-width:0.0625568"
       inkscape:label="reveal layer"
       inkscape:transform-center-x="0.21219625"
       inkscape:transform-center-y="-0.21245355"
       d="M 84.075664,2.6656541 A 81.40963,81.40963 0 0 0 2.6661629,84.075155 81.40963,81.40963 0 0 0 24.819333,139.86917 a 81.40963,81.40963 0 0 0 0.0031,0.003 81.40963,81.40963 0 0 0 3.880384,3.88038 81.40963,81.40963 0 0 0 55.797111,22.15679 A 81.40963,81.40963 0 0 0 165.90943,84.499935 81.40963,81.40963 0 0 0 143.75264,28.702824 81.40963,81.40963 0 0 0 139.87226,24.822441 81.40963,81.40963 0 0 0 84.075664,2.6656541 Z m 0.426331,7.4041989 a 74.429611,74.429611 0 0 1 74.428015,74.431116 74.429611,74.429611 0 0 1 -0.061,1.558044 L 99.48816,84.814128 A 15,15 0 0 0 99.500046,84.499935 15,15 0 0 0 84.500961,69.499817 15,15 0 0 0 69.500326,84.499419 l -59.429964,-0.001 A 74.429611,74.429611 0 0 1 84.501995,10.069853 Z M 69.55717,85.754123 a 15,15 0 0 0 0.03514,0.312125 l -59.063578,6.207373 a 74.429611,74.429611 0 0 1 -0.182934,-1.548226 z m 29.850892,0.312642 59.063578,6.20944 a 74.429611,74.429611 0 0 1 -0.18293,1.546676 l -58.915788,-7.44399 a 15,15 0 0 0 0.03514,-0.312126 z m -29.631783,1.241268 a 15,15 0 0 0 0.05839,0.308508 L 11.746746,99.962558 a 74.429611,74.429611 0 0 1 -0.303858,-1.527556 z m 29.389937,0.309025 58.087414,12.348083 a 74.429611,74.429611 0 0 1 -0.30438,1.528589 L 99.101104,87.924533 a 15,15 0 0 0 0.06511,-0.307475 z m -29.023035,1.21698 a 15,15 0 0 0 0.09715,0.29869 L 13.712517,107.49853 a 74.429611,74.429611 0 0 1 -0.422713,-1.50017 z m 28.616858,0.299206 56.527301,18.367876 a 74.429611,74.429611 0 0 1 -0.54002,1.46296 L 98.656169,89.42935 a 15,15 0 0 0 0.10387,-0.296106 z m -28.079423,1.175639 a 15,15 0 0 0 0.125574,0.287838 L 16.551104,114.75132 a 74.429611,74.429611 0 0 1 -0.652157,-1.41542 z m 27.513566,0.288355 54.253538,24.156662 a 74.429611,74.429611 0 0 1 -0.65216,1.41439 L 98.068608,90.885075 a 15,15 0 0 0 0.125574,-0.287837 z m -26.831437,1.124479 a 15,15 0 0 0 0.147278,0.278019 L 20.085772,121.68836 a 74.429611,74.429611 0 0 1 -0.761194,-1.3596 z m 26.127604,0.278019 51.423221,29.691214 a 74.429611,74.429611 0 0 1 -0.76171,1.3596 L 97.323434,92.26587 a 15,15 0 0 0 0.166915,-0.266134 z m -25.303882,1.058333 a 15,15 0 0 0 0.186552,0.252698 L 24.284998,128.24714 a 74.429611,74.429611 0 0 1 -0.866097,-1.29605 z m 24.441402,0.252698 48.086991,34.938953 a 74.429611,74.429611 0 0 1 -0.96532,1.22421 L 96.441318,93.563465 a 15,15 0 0 0 0.186551,-0.252698 z M 73.152817,94.29417 a 15,15 0 0 0 0.205155,0.238228 L 29.225265,134.26744 a 74.429611,74.429611 0 0 1 -1.057299,-1.14463 z m 22.4901,0.238228 44.130643,39.737112 a 74.429611,74.429611 0 0 1 -1.0573,1.14411 L 95.43311,94.765976 a 15,15 0 0 0 0.209807,-0.233578 z m -21.408513,0.899687 a 15,15 0 0 0 0.233578,0.209806 L 34.730356,139.77305 a 74.429611,74.429611 0 0 1 -1.144117,-1.05782 z m 20.298503,0.209806 39.735043,44.132709 a 74.429611,74.429611 0 0 1 -1.14463,1.05781 L 94.294679,95.847046 a 15,15 0 0 0 0.238228,-0.205155 z m -19.095992,0.798401 a 15,15 0 0 0 0.252698,0.186552 L 40.75066,144.71383 a 74.429611,74.429611 0 0 1 -1.224215,-0.9648 z m 17.874361,0.186552 34.936364,48.089056 a 74.429611,74.429611 0 0 1 -1.29604,0.86558 L 93.058578,96.813396 a 15,15 0 0 0 0.252698,-0.186552 z M 76.73451,97.322925 a 15,15 0 0 0 0.265617,0.166915 l -29.690177,51.4227 a 74.429611,74.429611 0 0 1 -1.360124,-0.76119 z m 15.265735,0.167432 29.688115,51.424253 a 74.429611,74.429611 0 0 1 -1.35909,0.76119 L 91.722743,97.637118 a 15,15 0 0 0 0.277502,-0.146761 z M 78.115304,98.0681 a 15,15 0 0 0 0.287838,0.125573 L 54.246477,152.44721 a 74.429611,74.429611 0 0 1 -1.414384,-0.65216 z m 12.482443,0.12609 24.154083,54.25405 a 74.429611,74.429611 0 0 1 -1.41542,0.65268 L 90.309909,98.319764 a 15,15 0 0 0 0.287838,-0.125574 z m -11.026718,0.460954 a 15,15 0 0 0 0.296106,0.103869 L 61.499264,155.28631 a 74.429611,74.429611 0 0 1 -1.462443,-0.54002 z m 9.562724,0.104386 18.365287,56.5273 a 74.429611,74.429611 0 0 1 -1.50017,0.42323 L 88.835064,98.856682 a 15,15 0 0 0 0.298689,-0.09715 z m -8.057906,0.340548 a 15,15 0 0 0 0.307475,0.06511 L 69.035238,157.2526 a 74.429611,74.429611 0 0 1 -1.529105,-0.30386 z m 6.54172,0.06511 12.345499,58.087932 a 74.429611,74.429611 0 0 1 -1.527555,0.30385 L 87.309058,99.223585 a 15,15 0 0 0 0.308509,-0.0584 z m -4.996078,0.207223 a 15,15 0 0 0 0.312126,0.03514 l -6.20944,59.063059 a 74.429611,74.429611 0 0 1 -1.546159,-0.18293 z m 3.445785,0.03514 6.206856,59.063579 a 74.429611,74.429611 0 0 1 -1.547709,0.18242 L 85.755148,99.442693 a 15,15 0 0 0 0.312126,-0.03514 z m -1.881022,0.0801 a 15,15 0 0 0 0.314192,0.01189 l -0.001,59.429439 a 74.429611,74.429611 0 0 1 -1.558045,-0.061 z"
       transform="translate(-1.9998625,-2.0001286)" />
  </g>
  <g
     inkscape:groupmode="layer"
     id="layer3"
     inkscape:label="CutContour">
    <circle
       style="display:inline;fill:none;stroke:#03ffff;stroke-width:0.17631;stroke-dasharray:none;stroke-opacity:1"
       id="path45725"
       cx="81.5"
       cy="81.5"
       r="79.411842"
       inkscape:label="Konturschnitt" />
  </g>
</svg>
