<?xml version="1.0" encoding="UTF-8" standalone="no"?>
<!-- Created with Inkscape (http://www.inkscape.org/) -->

<svg
   width="210mm"
   height="297mm"
   viewBox="0 0 210 297"
   version="1.1"
   id="svg5"
   inkscape:version="1.2.1 (9c6d41e410, 2022-07-14)"
   sodipodi:docname="moire magnification wheel 1-12_export.svg"
   xmlns:inkscape="http://www.inkscape.org/namespaces/inkscape"
   xmlns:sodipodi="http://sodipodi.sourceforge.net/DTD/sodipodi-0.dtd"
   xmlns:xlink="http://www.w3.org/1999/xlink"
   xmlns="http://www.w3.org/2000/svg"
   xmlns:svg="http://www.w3.org/2000/svg">
  <sodipodi:namedview
     id="namedview7"
     pagecolor="#ffffff"
     bordercolor="#000000"
     borderopacity="0.25"
     inkscape:showpageshadow="2"
     inkscape:pageopacity="0.0"
     inkscape:pagecheckerboard="0"
     inkscape:deskcolor="#d1d1d1"
     inkscape:document-units="mm"
     showgrid="false"
     inkscape:zoom="1.75"
     inkscape:cx="378.85714"
     inkscape:cy="499.42857"
     inkscape:window-width="2560"
     inkscape:window-height="1494"
     inkscape:window-x="-11"
     inkscape:window-y="-11"
     inkscape:window-maximized="1"
     inkscape:current-layer="layer1" />
  <defs
     id="defs2">
    <pattern
       patternUnits="userSpaceOnUse"
       width="63.512023"
       height="41.224884"
       patternTransform="translate(16.092397,15.939375)"
       id="pattern15132">
      <g
         id="g9779"
         transform="matrix(3.7795276,0,0,3.7795276,-16.092397,-14.282108)">
        <text
           xml:space="preserve"
           style="font-style:normal;font-variant:normal;font-weight:bold;font-stretch:normal;font-size:5.00605px;font-family:Arial;-inkscape-font-specification:'Arial, Bold';font-variant-ligatures:normal;font-variant-caps:normal;font-variant-numeric:normal;font-variant-east-asian:normal;fill:#000000;stroke-width:0.0735842"
           x="0.78816056"
           y="17.185375"
           id="text9545"
           transform="scale(3.5956517,0.2781137)"
           inkscape:tile-x0="4.2577799"
           inkscape:tile-y0="3.7788077"
           inkscape:tile-cx="7.0878599"
           inkscape:tile-cy="4.2791479"
           inkscape:tile-w="5.6601601"
           inkscape:tile-h="1.0006805"><tspan
             sodipodi:role="line"
             id="tspan9543"
             x="0.78816056"
             y="17.185375">1</tspan></text>
        <use
           x="0"
           y="0"
           inkscape:tiled-clone-of="#text9545"
           xlink:href="#text9545"
           id="use9547"
           style="display:inline" />
        <use
           x="0"
           y="0"
           inkscape:tiled-clone-of="#text9545"
           xlink:href="#text9545"
           transform="translate(0,1.1007485)"
           id="use9549"
           style="display:inline" />
        <use
           x="0"
           y="0"
           inkscape:tiled-clone-of="#text9545"
           xlink:href="#text9545"
           transform="translate(0,2.201497)"
           id="use9551"
           style="display:inline" />
        <use
           x="0"
           y="0"
           inkscape:tiled-clone-of="#text9545"
           xlink:href="#text9545"
           transform="translate(0,3.3022455)"
           id="use9553"
           style="display:inline" />
        <use
           x="0"
           y="0"
           inkscape:tiled-clone-of="#text9545"
           xlink:href="#text9545"
           transform="translate(0,4.4029941)"
           id="use9555"
           style="display:inline" />
        <use
           x="0"
           y="0"
           inkscape:tiled-clone-of="#text9545"
           xlink:href="#text9545"
           transform="translate(0,5.5037426)"
           id="use9557"
           style="display:inline" />
        <use
           x="0"
           y="0"
           inkscape:tiled-clone-of="#text9545"
           xlink:href="#text9545"
           transform="translate(0,6.6044911)"
           id="use9559"
           style="display:inline" />
        <use
           x="0"
           y="0"
           inkscape:tiled-clone-of="#text9545"
           xlink:href="#text9545"
           transform="translate(0,7.7052396)"
           id="use9561"
           style="display:inline" />
        <use
           x="0"
           y="0"
           inkscape:tiled-clone-of="#text9545"
           xlink:href="#text9545"
           transform="translate(0,8.8059881)"
           id="use9563"
           style="display:inline" />
        <use
           x="0"
           y="0"
           inkscape:tiled-clone-of="#text9545"
           xlink:href="#text9545"
           transform="translate(0,9.9067366)"
           id="use9565"
           style="display:inline" />
      </g>
      <g
         id="g9793"
         transform="matrix(3.7795276,0,0,3.7795276,-20.829052,-14.772305)">
        <text
           xml:space="preserve"
           style="font-style:normal;font-variant:normal;font-weight:bold;font-stretch:normal;font-size:5.00605px;font-family:Arial;-inkscape-font-specification:'Arial, Bold';font-variant-ligatures:normal;font-variant-caps:normal;font-variant-numeric:normal;font-variant-east-asian:normal;fill:#000000;stroke-width:0.0735842"
           x="3.6738174"
           y="17.651724"
           id="text9541"
           transform="scale(3.5956517,0.2781137)"
           inkscape:tile-x0="13.65801"
           inkscape:tile-y0="3.9085057"
           inkscape:tile-cx="17.986626"
           inkscape:tile-cy="4.4088459"
           inkscape:tile-w="8.6572324"
           inkscape:tile-h="1.0006805"><tspan
             sodipodi:role="line"
             id="tspan9539"
             x="3.6738174"
             y="17.651724">2</tspan></text>
        <use
           x="0"
           y="0"
           inkscape:tiled-clone-of="#text9541"
           xlink:href="#text9541"
           id="use9567"
           style="display:inline" />
        <use
           x="0"
           y="0"
           inkscape:tiled-clone-of="#text9541"
           xlink:href="#text9541"
           transform="translate(0,1.1007485)"
           id="use9569"
           style="display:inline" />
        <use
           x="0"
           y="0"
           inkscape:tiled-clone-of="#text9541"
           xlink:href="#text9541"
           transform="translate(0,2.201497)"
           id="use9571"
           style="display:inline" />
        <use
           x="0"
           y="0"
           inkscape:tiled-clone-of="#text9541"
           xlink:href="#text9541"
           transform="translate(0,3.3022455)"
           id="use9573"
           style="display:inline" />
        <use
           x="0"
           y="0"
           inkscape:tiled-clone-of="#text9541"
           xlink:href="#text9541"
           transform="translate(0,4.4029941)"
           id="use9575"
           style="display:inline" />
        <use
           x="0"
           y="0"
           inkscape:tiled-clone-of="#text9541"
           xlink:href="#text9541"
           transform="translate(0,5.5037426)"
           id="use9577"
           style="display:inline" />
        <use
           x="0"
           y="0"
           inkscape:tiled-clone-of="#text9541"
           xlink:href="#text9541"
           transform="translate(0,6.6044911)"
           id="use9579"
           style="display:inline" />
        <use
           x="0"
           y="0"
           inkscape:tiled-clone-of="#text9541"
           xlink:href="#text9541"
           transform="translate(0,7.7052396)"
           id="use9581"
           style="display:inline" />
        <use
           x="0"
           y="0"
           inkscape:tiled-clone-of="#text9541"
           xlink:href="#text9541"
           transform="translate(0,8.8059881)"
           id="use9583"
           style="display:inline" />
        <use
           x="0"
           y="0"
           inkscape:tiled-clone-of="#text9541"
           xlink:href="#text9541"
           transform="translate(0,9.9067366)"
           id="use9585"
           style="display:inline" />
      </g>
    </pattern>
  </defs>
  <g
     inkscape:label="Ebene 1"
     inkscape:groupmode="layer"
     id="layer1">
    <path
       id="rect4239"
       style="display:inline;stroke-width:0.304145"
       d="M 94.631371,-31.90256 A 45.816528,45.816528 0 0 0 48.814923,13.914125 45.816528,45.816528 0 0 0 94.631371,59.730573 45.816528,45.816528 0 0 0 140.44782,13.914125 45.816528,45.816528 0 0 0 94.631371,-31.90256 Z m 5.705369,2.668003 a 43.525703,43.525703 0 0 1 0.006,7.11e-4 13.228747,13.228814 0 0 1 0.0206,0.01185 13.228747,13.228814 0 0 0 -0.0268,-0.01256 z m -11.4911,0.04978 h 11.58355 a 13.228747,13.228814 0 0 1 0.35229,0.200088 H 88.4943 a 13.228747,13.228814 0 0 1 0.35134,-0.200088 z m 15.00189,0.560437 A 43.525703,43.525703 0 0 1 138.157,13.914125 43.525703,43.525703 0 0 1 94.631371,57.43975 43.525703,43.525703 0 0 1 51.105746,13.914125 a 43.525703,43.525703 0 0 1 34.311128,-42.535141 14.599675,14.599749 0 0 0 -5.38508,11.31827 14.599675,14.599749 0 0 0 14.599577,14.5998144 14.599675,14.599749 0 0 0 14.599819,-14.5998144 14.599675,14.599749 0 0 0 -5.38366,-11.321589 z m -1.89847,0.302977 a 13.228747,13.228814 0 0 1 0.0242,0.01683 13.228747,13.228814 0 0 0 -0.0242,-0.01683 z m -14.625419,0.0036 a 13.228747,13.228814 0 0 0 -0.07705,0.05358 13.228747,13.228814 0 0 1 0.07705,-0.05358 z m -0.43882,0.333085 h 15.502819 a 13.228747,13.228814 0 0 1 0.25912,0.200088 H 86.626176 a 13.228747,13.228814 0 0 1 0.258645,-0.200088 z m 16.533129,0.795138 a 13.228747,13.228814 0 0 1 0.0171,0.0147 13.228747,13.228814 0 0 0 -0.0171,-0.0147 z m -17.572688,0.0088 a 13.228747,13.228814 0 0 0 -0.03011,0.02608 13.228747,13.228814 0 0 1 0.03011,-0.02608 z m -0.390694,0.396146 h 18.360952 a 13.228747,13.228814 0 0 1 0.19511,0.199852 H 85.259933 a 13.228747,13.228814 0 0 1 0.194635,-0.199852 z m 19.229352,0.890204 a 13.228747,13.228814 0 0 1 0.078,0.09222 13.228747,13.228814 0 0 0 -0.078,-0.09222 z m -20.134254,0.03864 a 13.228747,13.228814 0 0 0 -0.03034,0.03556 13.228747,13.228814 0 0 1 0.03034,-0.03556 z m -0.202933,0.271209 h 20.574727 a 13.228747,13.228814 0 0 1 0.14651,0.199852 H 84.20046 a 13.228747,13.228814 0 0 1 0.146273,-0.199852 z m -0.874083,1.193893 a 13.228747,13.228814 0 0 0 -0.004,0.0059 h 22.33214 a 13.228747,13.228814 0 0 1 0.11356,0.200088 H 83.352455 a 13.228747,13.228814 0 0 1 0.120195,-0.206015 z m -0.65574,1.205983 h 23.63343 a 13.228747,13.228814 0 0 1 0.10715,0.200088 H 82.709517 a 13.228747,13.228814 0 0 1 0.107393,-0.200088 z m 23.86386,0.430048 a 13.228747,13.228814 0 0 1 0.0346,0.07657 13.228747,13.228814 0 0 0 -0.0346,-0.07657 z m -24.105673,0.02134 a 13.228747,13.228814 0 0 0 -0.02465,0.055 13.228747,13.228814 0 0 1 0.02465,-0.055 z m -0.279033,0.748672 h 24.673456 a 13.228747,13.228814 0 0 1 0.0735,0.200088 H 82.222572 a 13.228747,13.228814 0 0 1 0.07349,-0.200088 z m -0.32621,0.889492 a 13.228747,13.228814 0 0 0 -0.07278,0.247266 13.228747,13.228814 0 0 1 0.07278,-0.247266 z m 25.354086,0.07705 a 13.228747,13.228814 0 0 1 0.0256,0.08724 13.228747,13.228814 0 0 0 -0.0256,-0.08724 z m -25.44038,0.233515 h 25.49728 a 13.228747,13.228814 0 0 1 0.0429,0.199851 H 81.840887 a 13.228747,13.228814 0 0 1 0.04267,-0.199851 z m -0.256986,1.199819 h 26.011256 a 13.228747,13.228814 0 0 1 0.0427,0.200089 H 81.583664 a 13.228747,13.228814 0 0 1 0.04291,-0.200089 z m -0.07871,0.366987 a 13.228747,13.228814 0 0 0 -0.01896,0.134183 13.228747,13.228814 0 0 1 0.01896,-0.134183 z m 26.173416,0.02371 a 13.228747,13.228814 0 0 1 0.0111,0.07966 13.228747,13.228814 0 0 0 -0.0111,-0.07966 z m -26.241929,0.809362 h 26.304509 a 13.228747,13.228814 0 0 1 0.0142,0.200089 H 81.465128 a 13.228747,13.228814 0 0 1 0.01422,-0.200089 z m 26.380849,1.081995 a 13.228747,13.228814 0 0 1 -0.59695,3.918082 H 82.009682 a 13.228747,13.228814 0 0 1 -0.09578,-0.302978 13.228747,13.228814 0 0 0 0.02797,0.102889 H 107.3211 a 13.228747,13.228814 0 0 0 0.25011,-0.999968 H 81.718795 a 13.228747,13.228814 0 0 1 -0.04338,-0.200088 h 25.933725 a 13.228747,13.228814 0 0 0 0.15457,-0.999968 H 81.51112 a 13.228747,13.228814 0 0 1 -0.01422,-0.199851 h 26.2891 a 13.228747,13.228814 0 0 0 0.0623,-0.999968 h -26.423 a 13.228747,13.228814 0 0 1 -0.01422,-0.200088 h 26.44462 a 13.228747,13.228814 0 0 0 0.005,-0.118062 z m -26.335806,1.70407 a 13.228747,13.228814 0 0 0 0.04267,0.315305 13.228747,13.228814 0 0 1 -0.04267,-0.315305 z m 25.686226,2.378539 a 13.228747,13.228814 0 0 1 -1.69814,3.435404 H 83.776576 a 13.228747,13.228814 0 0 1 -0.149592,-0.1998513 h 22.018736 a 13.228747,13.228814 0 0 0 0.59884,-1.0002047 H 83.047107 a 13.228747,13.228814 0 0 1 -0.109053,-0.199851 h 23.411996 a 13.228747,13.228814 0 0 0 0.47107,-0.999968 H 82.457273 a 13.228747,13.228814 0 0 1 -0.07468,-0.200089 h 24.525767 a 13.228747,13.228814 0 0 0 0.30226,-0.83544 z m -24.672745,1.251738 a 13.228747,13.228814 0 0 0 0.123752,0.277611 13.228747,13.228814 0 0 1 -0.123752,-0.277611 z m 0.898501,1.696484 a 13.228747,13.228814 0 0 0 0.12873,0.20483 13.228747,13.228814 0 0 1 -0.12873,-0.20483 z m 22.070414,0.4954796 a 13.228747,13.228814 0 0 1 -1.56846,1.8697833 13.228747,13.228814 0 0 1 -0.28236,0.2728693 13.228747,13.228814 0 0 0 0.28236,-0.2728693 13.228747,13.228814 0 0 0 0.63108,-0.6780247 H 84.693332 a 13.228747,13.228814 0 0 0 0.0422,0.04694 13.228747,13.228814 0 0 1 -0.210519,-0.2470286 h 20.216747 a 13.228747,13.228814 0 0 0 0.76503,-0.99167 z M 85.688558,-7.584709 h 17.913602 a 13.228747,13.228814 0 0 1 -1.05236,0.874557 13.228747,13.228814 0 0 0 0.82287,-0.6744686 H 85.890069 a 13.228747,13.228814 0 0 0 0.200088,0.1709286 13.228747,13.228814 0 0 1 -0.401599,-0.371017 z m 16.832322,0.8961305 a 13.228747,13.228814 0 0 1 -0.34423,0.248451 13.228747,13.228814 0 0 0 0.34423,-0.248451 z m -15.323124,0.3039257 h 14.896864 a 13.228747,13.228814 0 0 1 -2.645244,1.3999075 h -9.550427 a 13.228747,13.228814 0 0 1 -0.535545,-0.1998513 h 10.55087 a 13.228747,13.228814 0 0 0 1.870256,-1.0002049 H 87.478211 a 13.228747,13.228814 0 0 0 0.148407,0.091273 13.228747,13.228814 0 0 1 -0.428862,-0.2911243 z m 1.788942,1.033632 a 13.228747,13.228814 0 0 0 0.297761,0.1370273 13.228747,13.228814 0 0 1 -0.297761,-0.1370273 z m 10.255478,0.4435609 a 13.228747,13.228814 0 0 1 -0.335456,0.1223289 13.228747,13.228814 0 0 0 0.335456,-0.1223289 z m -0.589123,0.2034074 a 13.228747,13.228814 0 0 1 -0.337353,0.1057339 13.228747,13.228814 0 0 0 0.337353,-0.1057339 z m -7.780925,0.082264 a 13.228747,13.228814 0 0 0 0.05239,0.016595 13.228747,13.228814 0 0 1 -0.05239,-0.016595 z m 7.169754,0.096725 a 13.228747,13.228814 0 0 1 -0.328344,0.086294 13.228747,13.228814 0 0 0 0.328344,-0.086294 z m -0.604295,0.1462731 a 13.228747,13.228814 0 0 1 -0.3319,0.070884 13.228747,13.228814 0 0 0 0.3319,-0.070884 z m -0.632981,0.1213807 a 13.228747,13.228814 0 0 1 -0.311749,0.051445 13.228747,13.228814 0 0 0 0.311749,-0.051445 z m -4.073837,0.044806 a 13.228747,13.228814 0 0 0 0.02821,0.00474 13.228747,13.228814 0 0 1 -0.02821,-0.00474 z m 3.414778,0.048126 a 13.228747,13.228814 0 0 1 -0.269313,0.03153 13.228747,13.228814 0 0 0 0.269313,-0.03153 z m -0.633218,0.057608 a 13.228747,13.228814 0 0 1 -0.260305,0.018254 13.228747,13.228814 0 0 0 0.260305,-0.018254 z"
       transform="matrix(2.1797821,0,0,2.1797821,-101.25944,116.38945)"
       inkscape:label="reveal layer" />
  </g>
</svg>
