  0
SECTION
  2
HEADER
  9
$ACADVER
  1
AC1014
  9
$HANDSEED
  5
FFFF
  9
$MEASUREMENT
 70
     1
  0
ENDSEC
  0
SECTION
  2
TABLES
  0
TABLE
  2
VPORT
  5
8
330
0
100
AcDbSymbolTable
 70
     4
  0
VPORT
  5
2E
330
8
100
AcDbSymbolTableRecord
100
AcDbViewportTableRecord
  2
*ACTIVE
 70
     0
 10
0.0
 20
0.0
 11
1.0
 21
1.0
 12
210.0
 22
148.5
 13
0.0
 23
0.0
 14
10.0
 24
10.0
 15
10.0
 25
10.0
 16
0.0
 26
0.0
 36
1.0
 17
0.0
 27
0.0
 37
0.0
 40
341.0
 41
1.24
 42
50.0
 43
0.0
 44
0.0
 50
0.0
 51
0.0
 71
     0
 72
   100
 73
     1
 74
     3
 75
     0
 76
     0
 77
     0
 78
     0
  0
ENDTAB
  0
TABLE
  2
LTYPE
  5
5
330
0
100
AcDbSymbolTable
 70
     1
  0
LTYPE
  5
14
330
5
100
AcDbSymbolTableRecord
100
AcDbLinetypeTableRecord
  2
BYBLOCK
 70
     0
  3

 72
    65
 73
     0
 40
0.0
  0
LTYPE
  5
15
330
5
100
AcDbSymbolTableRecord
100
AcDbLinetypeTableRecord
  2
BYLAYER
 70
     0
  3

 72
    65
 73
     0
 40
0.0
  0
LTYPE
  5
16
330
5
100
AcDbSymbolTableRecord
100
AcDbLinetypeTableRecord
  2
CONTINUOUS
 70
     0
  3
Solid line
 72
    65
 73
     0
 40
0.0
  0
ENDTAB
  0
TABLE
  2
LAYER
  5
2
100
AcDbSymbolTable
 70
3
  0
LAYER
  5
50
100
AcDbSymbolTableRecord
100
AcDbLayerTableRecord
  2
0
 70
0
  6
CONTINUOUS
  0
LAYER
  5
51
100
AcDbSymbolTableRecord
100
AcDbLayerTableRecord
  2
Ebene1
 70
0
  6
CONTINUOUS
  0
LAYER
  5
52
100
AcDbSymbolTableRecord
100
AcDbLayerTableRecord
  2
min_wheel
 70
0
  6
CONTINUOUS
  0
ENDTAB
  0
TABLE
  2
STYLE
  5
3
330
0
100
AcDbSymbolTable
 70
     1
  0
STYLE
  5
11
330
3
100
AcDbSymbolTableRecord
100
AcDbTextStyleTableRecord
  2
STANDARD
 70
     0
 40
0.0
 41
1.0
 50
0.0
 71
     0
 42
2.5
  3
txt
  4

  0
ENDTAB
  0
TABLE
  2
VIEW
  5
6
330
0
100
AcDbSymbolTable
 70
     0
  0
ENDTAB
  0
TABLE
  2
UCS
  5
7
330
0
100
AcDbSymbolTable
 70
     0
  0
ENDTAB
  0
TABLE
  2
APPID
  5
9
330
0
100
AcDbSymbolTable
 70
     2
  0
APPID
  5
12
330
9
100
AcDbSymbolTableRecord
100
AcDbRegAppTableRecord
  2
ACAD
 70
     0
  0
ENDTAB
  0
TABLE
  2
DIMSTYLE
  5
A
330
0
100
AcDbSymbolTable
 70
     1
  0
DIMSTYLE
105
27
330
A
100
AcDbSymbolTableRecord
100
AcDbDimStyleTableRecord
  2
ISO-25
 70
     0
  3

  4

  5

  6

  7

 40
1.0
 41
2.5
 42
0.625
 43
3.75
 44
1.25
 45
0.0
 46
0.0
 47
0.0
 48
0.0
140
2.5
141
2.5
142
0.0
143
0.03937007874016
144
1.0
145
0.0
146
1.0
147
0.625
 71
     0
 72
     0
 73
     0
 74
     0
 75
     0
 76
     0
 77
     1
 78
     8
170
     0
171
     3
172
     1
173
     0
174
     0
175
     0
176
     0
177
     0
178
     0
270
     2
271
     2
272
     2
273
     2
274
     3
340
11
275
     0
280
     0
281
     0
282
     0
283
     0
284
     8
285
     0
286
     0
287
     3
288
     0
  0
ENDTAB
  0
TABLE
  2
BLOCK_RECORD
  5
1
330
0
100
AcDbSymbolTable
 70
     1
  0
BLOCK_RECORD
  5
1F
330
1
100
AcDbSymbolTableRecord
100
AcDbBlockTableRecord
  2
*MODEL_SPACE
  0
BLOCK_RECORD
  5
1B
330
1
100
AcDbSymbolTableRecord
100
AcDbBlockTableRecord
  2
*PAPER_SPACE
  0
ENDTAB
  0
ENDSEC
  0
SECTION
  2
BLOCKS
  0
BLOCK
  5
20
330
1F
100
AcDbEntity
  8
0
100
AcDbBlockBegin
  2
*MODEL_SPACE
 70
     0
 10
0.0
 20
0.0
 30
0.0
  3
*MODEL_SPACE
  1

  0
ENDBLK
  5
21
330
1F
100
AcDbEntity
  8
0
100
AcDbBlockEnd
  0
BLOCK
  5
1C
330
1B
100
AcDbEntity
 67
     1
  8
0
100
AcDbBlockBegin
  2
*PAPER_SPACE
  1

  0
ENDBLK
  5
1D
330
1B
100
AcDbEntity
 67
     1
  8
0
100
AcDbBlockEnd
  0
ENDSEC
  0
SECTION
  2
ENTITIES
  0
SPLINE
  5
100
100
AcDbEntity
  8
min_wheel
 62
7
100
AcDbSpline
 70
8
 71
3
 72
8
 73
4
 74
0
 40
0
 40
0
 40
0
 40
0
 40
1
 40
1
 40
1
 40
1
 10
317.458390
 20
198.292045
 30
0.0
 10
297.735889
 20
206.060554
 30
0.0
 10
275.735139
 20
205.676129
 30
0.0
 10
256.296076
 20
197.223341
 30
0.0
  0
SPLINE
  5
101
100
AcDbEntity
  8
min_wheel
 62
7
100
AcDbSpline
 70
8
 71
3
 72
8
 73
4
 74
0
 40
0
 40
0
 40
0
 40
0
 40
1
 40
1
 40
1
 40
1
 10
256.296076
 20
197.223341
 30
0.0
 10
236.857014
 20
188.770553
 30
0.0
 10
221.571996
 20
172.941812
 30
0.0
 10
213.803567
 20
153.219280
 30
0.0
  0
SPLINE
  5
102
100
AcDbEntity
  8
min_wheel
 62
7
100
AcDbSpline
 70
8
 71
3
 72
8
 73
4
 74
0
 40
0
 40
0
 40
0
 40
0
 40
1
 40
1
 40
1
 40
1
 10
213.803567
 20
153.219280
 30
0.0
 10
206.035023
 20
133.496695
 30
0.0
 10
206.419484
 20
111.495843
 30
0.0
 10
214.872371
 20
92.056725
 30
0.0
  0
SPLINE
  5
103
100
AcDbEntity
  8
min_wheel
 62
7
100
AcDbSpline
 70
8
 71
3
 72
8
 73
4
 74
0
 40
0
 40
0
 40
0
 40
0
 40
1
 40
1
 40
1
 40
1
 10
214.872371
 20
92.056725
 30
0.0
 10
223.325258
 20
72.617606
 30
0.0
 10
239.154146
 20
57.332594
 30
0.0
 10
258.876814
 20
49.564260
 30
0.0
  0
SPLINE
  5
104
100
AcDbEntity
  8
min_wheel
 62
7
100
AcDbSpline
 70
8
 71
3
 72
8
 73
4
 74
0
 40
0
 40
0
 40
0
 40
0
 40
1
 40
1
 40
1
 40
1
 10
258.876814
 20
49.564260
 30
0.0
 10
278.599366
 20
41.795878
 30
0.0
 10
300.600116
 20
42.180444
 30
0.0
 10
320.039125
 20
50.633359
 30
0.0
  0
SPLINE
  5
105
100
AcDbEntity
  8
min_wheel
 62
7
100
AcDbSpline
 70
8
 71
3
 72
8
 73
4
 74
0
 40
0
 40
0
 40
0
 40
0
 40
1
 40
1
 40
1
 40
1
 10
320.039125
 20
50.633359
 30
0.0
 10
339.478133
 20
59.086274
 30
0.0
 10
354.763050
 20
74.915115
 30
0.0
 10
362.531350
 20
94.637700
 30
0.0
  0
SPLINE
  5
106
100
AcDbEntity
  8
min_wheel
 62
7
100
AcDbSpline
 70
8
 71
3
 72
8
 73
4
 74
0
 40
0
 40
0
 40
0
 40
0
 40
1
 40
1
 40
1
 40
1
 10
362.531350
 20
94.637700
 30
0.0
 10
378.708097
 20
135.707610
 30
0.0
 10
358.528263
 20
182.115202
 30
0.0
 10
317.458390
 20
198.292045
 30
0.0
  0
LINE
  5
107
100
AcDbEntity
  8
min_wheel
 62
7
100
AcDbLine
 10
317.458390
 20
198.292045
 30
0.0
 11
317.458390
 21
198.292045
 31
0.0
  0
SPLINE
  5
108
100
AcDbEntity
  8
min_wheel
 62
7
100
AcDbSpline
 70
8
 71
3
 72
8
 73
4
 74
0
 40
0
 40
0
 40
0
 40
0
 40
1
 40
1
 40
1
 40
1
 10
315.444670
 20
193.179583
 30
0.0
 10
353.691029
 20
178.114909
 30
0.0
 10
372.483520
 20
134.897797
 30
0.0
 10
357.418890
 20
96.651420
 30
0.0
  0
SPLINE
  5
109
100
AcDbEntity
  8
min_wheel
 62
7
100
AcDbSpline
 70
8
 71
3
 72
8
 73
4
 74
0
 40
0
 40
0
 40
0
 40
0
 40
1
 40
1
 40
1
 40
1
 10
357.418890
 20
96.651420
 30
0.0
 10
357.214629
 20
96.173478
 30
0.0
 10
357.005368
 20
95.697688
 30
0.0
 10
356.791140
 20
95.224130
 30
0.0
  0
LINE
  5
10a
100
AcDbEntity
  8
min_wheel
 62
7
100
AcDbLine
 10
356.791140
 20
95.224130
 30
0.0
 11
301.997500
 21
118.143370
 31
0.0
  0
SPLINE
  5
10b
100
AcDbEntity
  8
min_wheel
 62
7
100
AcDbSpline
 70
8
 71
3
 72
8
 73
4
 74
0
 40
0
 40
0
 40
0
 40
0
 40
1
 40
1
 40
1
 40
1
 10
301.997500
 20
118.143370
 30
0.0
 10
302.040575
 20
118.238916
 30
0.0
 10
302.082647
 20
118.334912
 30
0.0
 10
302.123710
 20
118.431340
 30
0.0
  0
SPLINE
  5
10c
100
AcDbEntity
  8
min_wheel
 62
7
100
AcDbSpline
 70
8
 71
3
 72
8
 73
4
 74
0
 40
0
 40
0
 40
0
 40
0
 40
1
 40
1
 40
1
 40
1
 10
302.123710
 20
118.431340
 30
0.0
 10
305.159411
 20
126.139027
 30
0.0
 10
301.372284
 20
134.848294
 30
0.0
 10
293.664760
 20
137.884410
 30
0.0
  0
SPLINE
  5
10d
100
AcDbEntity
  8
min_wheel
 62
7
100
AcDbSpline
 70
8
 71
3
 72
8
 73
4
 74
0
 40
0
 40
0
 40
0
 40
0
 40
1
 40
1
 40
1
 40
1
 10
293.664760
 20
137.884410
 30
0.0
 10
285.956987
 20
140.920456
 30
0.0
 10
277.247391
 20
137.133366
 30
0.0
 10
274.211201
 20
129.425650
 30
0.0
  0
LINE
  5
10e
100
AcDbEntity
  8
min_wheel
 62
7
100
AcDbLine
 10
274.211201
 20
129.425650
 30
0.0
 11
218.916029
 21
151.205560
 31
0.0
  0
SPLINE
  5
10f
100
AcDbEntity
  8
min_wheel
 62
7
100
AcDbSpline
 70
8
 71
3
 72
8
 73
4
 74
0
 40
0
 40
0
 40
0
 40
0
 40
1
 40
1
 40
1
 40
1
 10
218.916029
 20
151.205560
 30
0.0
 10
226.150375
 20
169.572192
 30
0.0
 10
240.384562
 20
184.312725
 30
0.0
 10
258.487210
 20
192.184388
 30
0.0
  0
SPLINE
  5
110
100
AcDbEntity
  8
min_wheel
 62
7
100
AcDbSpline
 70
8
 71
3
 72
8
 73
4
 74
0
 40
0
 40
0
 40
0
 40
0
 40
1
 40
1
 40
1
 40
1
 10
258.487210
 20
192.184388
 30
0.0
 10
276.589857
 20
200.056051
 30
0.0
 10
297.078079
 20
200.414034
 30
0.0
 10
315.444670
 20
193.179583
 30
0.0
  0
LINE
  5
111
100
AcDbEntity
  8
min_wheel
 62
7
100
AcDbLine
 10
315.444670
 20
193.179583
 30
0.0
 11
315.444670
 21
193.179583
 31
0.0
  0
SPLINE
  5
112
100
AcDbEntity
  8
min_wheel
 62
7
100
AcDbSpline
 70
8
 71
3
 72
8
 73
4
 74
0
 40
0
 40
0
 40
0
 40
0
 40
1
 40
1
 40
1
 40
1
 10
273.804263
 20
128.237400
 30
0.0
 10
273.775975
 20
128.136595
 30
0.0
 10
273.748744
 20
128.035496
 30
0.0
 10
273.722573
 20
127.934120
 30
0.0
  0
LINE
  5
113
100
AcDbEntity
  8
min_wheel
 62
7
100
AcDbLine
 10
273.722573
 20
127.934120
 30
0.0
 11
216.493035
 21
143.803290
 31
0.0
  0
SPLINE
  5
114
100
AcDbEntity
  8
min_wheel
 62
7
100
AcDbSpline
 70
8
 71
3
 72
8
 73
4
 74
0
 40
0
 40
0
 40
0
 40
0
 40
1
 40
1
 40
1
 40
1
 10
216.493035
 20
143.803290
 30
0.0
 10
216.620165
 20
144.307183
 30
0.0
 10
216.752568
 20
144.809730
 30
0.0
 10
216.890224
 20
145.310850
 30
0.0
  0
LINE
  5
115
100
AcDbEntity
  8
min_wheel
 62
7
100
AcDbLine
 10
216.890224
 20
145.310850
 30
0.0
 11
273.804263
 21
128.237400
 31
0.0
  0
LINE
  5
116
100
AcDbEntity
  8
min_wheel
 62
7
100
AcDbLine
 10
301.463920
 20
117.007230
 30
0.0
 11
354.142940
 21
89.585120
 31
0.0
  0
SPLINE
  5
117
100
AcDbEntity
  8
min_wheel
 62
7
100
AcDbSpline
 70
8
 71
3
 72
8
 73
4
 74
0
 40
0
 40
0
 40
0
 40
0
 40
1
 40
1
 40
1
 40
1
 10
354.142940
 20
89.585120
 30
0.0
 10
353.902052
 20
89.125222
 30
0.0
 10
353.656358
 20
88.667857
 30
0.0
 10
353.405900
 20
88.213100
 30
0.0
  0
LINE
  5
118
100
AcDbEntity
  8
min_wheel
 62
7
100
AcDbLine
 10
353.405900
 20
88.213100
 30
0.0
 11
301.316830
 21
116.729690
 31
0.0
  0
SPLINE
  5
119
100
AcDbEntity
  8
min_wheel
 62
7
100
AcDbSpline
 70
8
 71
3
 72
8
 73
4
 74
0
 40
0
 40
0
 40
0
 40
0
 40
1
 40
1
 40
1
 40
1
 10
301.316830
 20
116.729690
 30
0.0
 10
301.366814
 20
116.821691
 30
0.0
 10
301.415833
 20
116.914213
 30
0.0
 10
301.463880
 20
117.007240
 30
0.0
  0
LINE
  5
11a
100
AcDbEntity
  8
min_wheel
 62
7
100
AcDbLine
 10
301.463880
 20
117.007240
 30
0.0
 11
301.463920
 21
117.007230
 31
0.0
  0
SPLINE
  5
11b
100
AcDbEntity
  8
min_wheel
 62
7
100
AcDbSpline
 70
8
 71
3
 72
8
 73
4
 74
0
 40
0
 40
0
 40
0
 40
0
 40
1
 40
1
 40
1
 40
1
 10
273.438650
 20
126.711300
 30
0.0
 10
273.417998
 20
126.608698
 30
0.0
 10
273.398420
 20
126.505882
 30
0.0
 10
273.379920
 20
126.402870
 30
0.0
  0
LINE
  5
11c
100
AcDbEntity
  8
min_wheel
 62
7
100
AcDbLine
 10
273.379920
 20
126.402870
 30
0.0
 11
214.808463
 21
136.202940
 31
0.0
  0
SPLINE
  5
11d
100
AcDbEntity
  8
min_wheel
 62
7
100
AcDbSpline
 70
8
 71
3
 72
8
 73
4
 74
0
 40
0
 40
0
 40
0
 40
0
 40
1
 40
1
 40
1
 40
1
 10
214.808463
 20
136.202940
 30
0.0
 10
214.895482
 20
136.714769
 30
0.0
 10
214.987854
 20
137.225674
 30
0.0
 10
215.085564
 20
137.735570
 30
0.0
  0
LINE
  5
11e
100
AcDbEntity
  8
min_wheel
 62
7
100
AcDbLine
 10
215.085564
 20
137.735570
 30
0.0
 11
273.438650
 21
126.711300
 31
0.0
  0
LINE
  5
11f
100
AcDbEntity
  8
min_wheel
 62
7
100
AcDbLine
 10
300.670740
 20
115.653430
 30
0.0
 11
350.191820
 21
82.877520
 31
0.0
  0
SPLINE
  5
120
100
AcDbEntity
  8
min_wheel
 62
7
100
AcDbSpline
 70
8
 71
3
 72
8
 73
4
 74
0
 40
0
 40
0
 40
0
 40
0
 40
1
 40
1
 40
1
 40
1
 10
350.191820
 20
82.877520
 30
0.0
 10
349.915272
 20
82.437692
 30
0.0
 10
349.634127
 20
82.000771
 30
0.0
 10
349.348430
 20
81.566830
 30
0.0
  0
LINE
  5
121
100
AcDbEntity
  8
min_wheel
 62
7
100
AcDbLine
 10
349.348430
 20
81.566830
 30
0.0
 11
300.497480
 21
115.391210
 31
0.0
  0
SPLINE
  5
122
100
AcDbEntity
  8
min_wheel
 62
7
100
AcDbSpline
 70
8
 71
3
 72
8
 73
4
 74
0
 40
0
 40
0
 40
0
 40
0
 40
1
 40
1
 40
1
 40
1
 10
300.497480
 20
115.391210
 30
0.0
 10
300.556148
 20
115.478013
 30
0.0
 10
300.613904
 20
115.565427
 30
0.0
 10
300.670740
 20
115.653440
 30
0.0
  0
LINE
  5
123
100
AcDbEntity
  8
min_wheel
 62
7
100
AcDbLine
 10
300.670740
 20
115.653440
 30
0.0
 11
300.670740
 21
115.653430
 31
0.0
  0
SPLINE
  5
124
100
AcDbEntity
  8
min_wheel
 62
7
100
AcDbSpline
 70
8
 71
3
 72
8
 73
4
 74
0
 40
0
 40
0
 40
0
 40
0
 40
1
 40
1
 40
1
 40
1
 10
273.220777
 20
125.157010
 30
0.0
 10
273.213326
 20
125.052576
 30
0.0
 10
273.206969
 20
124.948067
 30
0.0
 10
273.201707
 20
124.843500
 30
0.0
  0
LINE
  5
125
100
AcDbEntity
  8
min_wheel
 62
7
100
AcDbLine
 10
273.201707
 20
124.843500
 30
0.0
 11
213.876165
 21
128.470660
 31
0.0
  0
SPLINE
  5
126
100
AcDbEntity
  8
min_wheel
 62
7
100
AcDbSpline
 70
8
 71
3
 72
8
 73
4
 74
0
 40
0
 40
0
 40
0
 40
0
 40
1
 40
1
 40
1
 40
1
 10
213.876165
 20
128.470660
 30
0.0
 10
213.922750
 20
128.988157
 30
0.0
 10
213.974752
 20
129.505152
 30
0.0
 10
214.032163
 20
130.021560
 30
0.0
  0
LINE
  5
127
100
AcDbEntity
  8
min_wheel
 62
7
100
AcDbLine
 10
214.032163
 20
130.021560
 30
0.0
 11
273.220777
 21
125.157010
 31
0.0
  0
LINE
  5
128
100
AcDbEntity
  8
min_wheel
 62
7
100
AcDbLine
 10
299.737170
 20
114.391590
 30
0.0
 11
345.600540
 21
76.586460
 31
0.0
  0
SPLINE
  5
129
100
AcDbEntity
  8
min_wheel
 62
7
100
AcDbSpline
 70
8
 71
3
 72
8
 73
4
 74
0
 40
0
 40
0
 40
0
 40
0
 40
1
 40
1
 40
1
 40
1
 10
345.600540
 20
76.586460
 30
0.0
 10
345.258575
 20
76.195026
 30
0.0
 10
344.912520
 20
75.807185
 30
0.0
 10
344.562430
 20
75.423000
 30
0.0
  0
LINE
  5
12a
100
AcDbEntity
  8
min_wheel
 62
7
100
AcDbLine
 10
344.562430
 20
75.423000
 30
0.0
 11
299.532010
 21
114.154140
 31
0.0
  0
SPLINE
  5
12b
100
AcDbEntity
  8
min_wheel
 62
7
100
AcDbSpline
 70
8
 71
3
 72
8
 73
4
 74
0
 40
0
 40
0
 40
0
 40
0
 40
1
 40
1
 40
1
 40
1
 10
299.532010
 20
114.154140
 30
0.0
 10
299.601223
 20
114.232572
 30
0.0
 10
299.669613
 20
114.311727
 30
0.0
 10
299.737170
 20
114.391590
 30
0.0
  0
LINE
  5
12c
100
AcDbEntity
  8
min_wheel
 62
7
100
AcDbLine
 10
299.737170
 20
114.391590
 30
0.0
 11
299.737170
 21
114.391590
 31
0.0
  0
SPLINE
  5
12d
100
AcDbEntity
  8
min_wheel
 62
7
100
AcDbSpline
 70
8
 71
3
 72
8
 73
4
 74
0
 40
0
 40
0
 40
0
 40
0
 40
1
 40
1
 40
1
 40
1
 10
273.180316
 20
123.587810
 30
0.0
 10
273.183004
 20
123.483167
 30
0.0
 10
273.186788
 20
123.378554
 30
0.0
 10
273.191666
 20
123.273990
 30
0.0
  0
LINE
  5
12e
100
AcDbEntity
  8
min_wheel
 62
7
100
AcDbLine
 10
273.191666
 20
123.273990
 30
0.0
 11
213.859248
 21
120.682190
 31
0.0
  0
SPLINE
  5
12f
100
AcDbEntity
  8
min_wheel
 62
7
100
AcDbSpline
 70
8
 71
3
 72
8
 73
4
 74
0
 40
0
 40
0
 40
0
 40
0
 40
1
 40
1
 40
1
 40
1
 10
213.859248
 20
120.682190
 30
0.0
 10
213.824465
 20
121.200518
 30
0.0
 10
213.795111
 20
121.719197
 30
0.0
 10
213.771188
 20
122.238140
 30
0.0
  0
LINE
  5
130
100
AcDbEntity
  8
min_wheel
 62
7
100
AcDbLine
 10
213.771188
 20
122.238140
 30
0.0
 11
273.180316
 21
123.587810
 31
0.0
  0
LINE
  5
131
100
AcDbEntity
  8
min_wheel
 62
7
100
AcDbLine
 10
298.674170
 20
113.236830
 30
0.0
 11
340.300970
 21
70.878750
 31
0.0
  0
SPLINE
  5
132
100
AcDbEntity
  8
min_wheel
 62
7
100
AcDbSpline
 70
8
 71
3
 72
8
 73
4
 74
0
 40
0
 40
0
 40
0
 40
0
 40
1
 40
1
 40
1
 40
1
 10
340.300970
 20
70.878750
 30
0.0
 10
339.929693
 20
70.515846
 30
0.0
 10
339.554629
 20
70.156836
 30
0.0
 10
339.175840
 20
69.801780
 30
0.0
  0
LINE
  5
133
100
AcDbEntity
  8
min_wheel
 62
7
100
AcDbLine
 10
339.175840
 20
69.801780
 30
0.0
 11
298.451840
 21
113.015030
 31
0.0
  0
SPLINE
  5
134
100
AcDbEntity
  8
min_wheel
 62
7
100
AcDbSpline
 70
8
 71
3
 72
8
 73
4
 74
0
 40
0
 40
0
 40
0
 40
0
 40
1
 40
1
 40
1
 40
1
 10
298.451840
 20
113.015030
 30
0.0
 10
298.526722
 20
113.088185
 30
0.0
 10
298.600836
 20
113.162123
 30
0.0
 10
298.674170
 20
113.236830
 30
0.0
  0
LINE
  5
135
100
AcDbEntity
  8
min_wheel
 62
7
100
AcDbLine
 10
298.674170
 20
113.236830
 30
0.0
 11
298.674170
 21
113.236830
 31
0.0
  0
SPLINE
  5
136
100
AcDbEntity
  8
min_wheel
 62
7
100
AcDbSpline
 70
8
 71
3
 72
8
 73
4
 74
0
 40
0
 40
0
 40
0
 40
0
 40
1
 40
1
 40
1
 40
1
 10
273.297212
 20
122.023290
 30
0.0
 10
273.307832
 20
121.918953
 30
0.0
 10
273.319546
 20
121.814731
 30
0.0
 10
273.332352
 20
121.710640
 30
0.0
  0
LINE
  5
137
100
AcDbEntity
  8
min_wheel
 62
7
100
AcDbLine
 10
273.332352
 20
121.710640
 30
0.0
 11
214.605707
 21
112.932400
 31
0.0
  0
SPLINE
  5
138
100
AcDbEntity
  8
min_wheel
 62
7
100
AcDbSpline
 70
8
 71
3
 72
8
 73
4
 74
0
 40
0
 40
0
 40
0
 40
0
 40
1
 40
1
 40
1
 40
1
 10
214.605707
 20
112.932400
 30
0.0
 10
214.530333
 20
113.446313
 30
0.0
 10
214.460341
 20
113.961001
 30
0.0
 10
214.395742
 20
114.476380
 30
0.0
  0
LINE
  5
139
100
AcDbEntity
  8
min_wheel
 62
7
100
AcDbLine
 10
214.395742
 20
114.476380
 30
0.0
 11
273.297212
 21
122.023290
 31
0.0
  0
LINE
  5
13a
100
AcDbEntity
  8
min_wheel
 62
7
100
AcDbLine
 10
297.505310
 20
112.189850
 30
0.0
 11
334.470410
 21
65.719550
 31
0.0
  0
SPLINE
  5
13b
100
AcDbEntity
  8
min_wheel
 62
7
100
AcDbSpline
 70
8
 71
3
 72
8
 73
4
 74
0
 40
0
 40
0
 40
0
 40
0
 40
1
 40
1
 40
1
 40
1
 10
334.470410
 20
65.719550
 30
0.0
 10
334.071535
 20
65.386724
 30
0.0
 10
333.669186
 20
65.058082
 30
0.0
 10
333.263430
 20
64.733680
 30
0.0
  0
LINE
  5
13c
100
AcDbEntity
  8
min_wheel
 62
7
100
AcDbLine
 10
333.263430
 20
64.733680
 30
0.0
 11
297.252470
 21
112.003390
 31
0.0
  0
SPLINE
  5
13d
100
AcDbEntity
  8
min_wheel
 62
7
100
AcDbSpline
 70
8
 71
3
 72
8
 73
4
 74
0
 40
0
 40
0
 40
0
 40
0
 40
1
 40
1
 40
1
 40
1
 10
297.252470
 20
112.003390
 30
0.0
 10
297.337399
 20
112.064659
 30
0.0
 10
297.421683
 20
112.126816
 30
0.0
 10
297.505310
 20
112.189850
 30
0.0
  0
LINE
  5
13e
100
AcDbEntity
  8
min_wheel
 62
7
100
AcDbLine
 10
297.505310
 20
112.189850
 30
0.0
 11
297.505310
 21
112.189850
 31
0.0
  0
SPLINE
  5
13f
100
AcDbEntity
  8
min_wheel
 62
7
100
AcDbSpline
 70
8
 71
3
 72
8
 73
4
 74
0
 40
0
 40
0
 40
0
 40
0
 40
1
 40
1
 40
1
 40
1
 10
273.573879
 20
120.478040
 30
0.0
 10
273.599806
 20
120.376597
 30
0.0
 10
273.626794
 20
120.275428
 30
0.0
 10
273.654839
 20
120.174550
 30
0.0
  0
LINE
  5
140
100
AcDbEntity
  8
min_wheel
 62
7
100
AcDbLine
 10
273.654839
 20
120.174550
 30
0.0
 11
216.109114
 21
105.291020
 31
0.0
  0
SPLINE
  5
141
100
AcDbEntity
  8
min_wheel
 62
7
100
AcDbSpline
 70
8
 71
3
 72
8
 73
4
 74
0
 40
0
 40
0
 40
0
 40
0
 40
1
 40
1
 40
1
 40
1
 10
216.109114
 20
105.291020
 30
0.0
 10
215.993511
 20
105.797611
 30
0.0
 10
215.883217
 20
106.305399
 30
0.0
 10
215.778249
 20
106.814300
 30
0.0
  0
LINE
  5
142
100
AcDbEntity
  8
min_wheel
 62
7
100
AcDbLine
 10
215.778249
 20
106.814300
 30
0.0
 11
273.573879
 21
120.478040
 31
0.0
  0
LINE
  5
143
100
AcDbEntity
  8
min_wheel
 62
7
100
AcDbLine
 10
296.222370
 20
111.286110
 30
0.0
 11
328.160160
 21
61.155840
 31
0.0
  0
SPLINE
  5
144
100
AcDbEntity
  8
min_wheel
 62
7
100
AcDbSpline
 70
8
 71
3
 72
8
 73
4
 74
0
 40
0
 40
0
 40
0
 40
0
 40
1
 40
1
 40
1
 40
1
 10
328.160160
 20
61.155840
 30
0.0
 10
327.713977
 20
60.889389
 30
0.0
 10
327.265016
 20
60.627618
 30
0.0
 10
326.813350
 20
60.370570
 30
0.0
  0
LINE
  5
145
100
AcDbEntity
  8
min_wheel
 62
7
100
AcDbLine
 10
326.813350
 20
60.370570
 30
0.0
 11
295.956190
 21
111.119360
 31
0.0
  0
SPLINE
  5
146
100
AcDbEntity
  8
min_wheel
 62
7
100
AcDbSpline
 70
8
 71
3
 72
8
 73
4
 74
0
 40
0
 40
0
 40
0
 40
0
 40
1
 40
1
 40
1
 40
1
 10
295.956190
 20
111.119360
 30
0.0
 10
296.045496
 20
111.174013
 30
0.0
 10
296.134228
 20
111.229599
 30
0.0
 10
296.222370
 20
111.286110
 30
0.0
  0
LINE
  5
147
100
AcDbEntity
  8
min_wheel
 62
7
100
AcDbLine
 10
296.222370
 20
111.286110
 30
0.0
 11
296.222370
 21
111.286110
 31
0.0
  0
SPLINE
  5
148
100
AcDbEntity
  8
min_wheel
 62
7
100
AcDbSpline
 70
8
 71
3
 72
8
 73
4
 74
0
 40
0
 40
0
 40
0
 40
0
 40
1
 40
1
 40
1
 40
1
 10
274.019988
 20
118.973790
 30
0.0
 10
274.053475
 20
118.874484
 30
0.0
 10
274.088002
 20
118.775532
 30
0.0
 10
274.123563
 20
118.676950
 30
0.0
  0
LINE
  5
149
100
AcDbEntity
  8
min_wheel
 62
7
100
AcDbLine
 10
274.123563
 20
118.676950
 30
0.0
 11
218.499824
 21
97.878870
 31
0.0
  0
SPLINE
  5
14a
100
AcDbEntity
  8
min_wheel
 62
7
100
AcDbSpline
 70
8
 71
3
 72
8
 73
4
 74
0
 40
0
 40
0
 40
0
 40
0
 40
1
 40
1
 40
1
 40
1
 10
218.499824
 20
97.878870
 30
0.0
 10
218.306515
 20
98.361109
 30
0.0
 10
218.118261
 20
98.845359
 30
0.0
 10
217.935093
 20
99.331540
 30
0.0
  0
LINE
  5
14b
100
AcDbEntity
  8
min_wheel
 62
7
100
AcDbLine
 10
217.935093
 20
99.331540
 30
0.0
 11
274.019988
 21
118.973790
 31
0.0
  0
LINE
  5
14c
100
AcDbEntity
  8
min_wheel
 62
7
100
AcDbLine
 10
294.858240
 20
110.510440
 30
0.0
 11
321.356330
 21
57.365280
 31
0.0
  0
SPLINE
  5
14d
100
AcDbEntity
  8
min_wheel
 62
7
100
AcDbSpline
 70
8
 71
3
 72
8
 73
4
 74
0
 40
0
 40
0
 40
0
 40
0
 40
1
 40
1
 40
1
 40
1
 10
321.356330
 20
57.365280
 30
0.0
 10
320.891188
 20
57.134654
 30
0.0
 10
320.423646
 20
56.908902
 30
0.0
 10
319.953780
 20
56.688060
 30
0.0
  0
LINE
  5
14e
100
AcDbEntity
  8
min_wheel
 62
7
100
AcDbLine
 10
319.953780
 20
56.688060
 30
0.0
 11
294.577430
 21
110.370000
 31
0.0
  0
SPLINE
  5
14f
100
AcDbEntity
  8
min_wheel
 62
7
100
AcDbSpline
 70
8
 71
3
 72
8
 73
4
 74
0
 40
0
 40
0
 40
0
 40
0
 40
1
 40
1
 40
1
 40
1
 10
294.577430
 20
110.370000
 30
0.0
 10
294.671521
 20
110.415832
 30
0.0
 10
294.765129
 20
110.462648
 30
0.0
 10
294.858240
 20
110.510440
 30
0.0
  0
LINE
  5
150
100
AcDbEntity
  8
min_wheel
 62
7
100
AcDbLine
 10
294.858240
 20
110.510440
 30
0.0
 11
294.858240
 21
110.510440
 31
0.0
  0
SPLINE
  5
151
100
AcDbEntity
  8
min_wheel
 62
7
100
AcDbSpline
 70
8
 71
3
 72
8
 73
4
 74
0
 40
0
 40
0
 40
0
 40
0
 40
1
 40
1
 40
1
 40
1
 10
274.609300
 20
117.518660
 30
0.0
 10
274.655132
 20
117.424573
 30
0.0
 10
274.701948
 20
117.330968
 30
0.0
 10
274.749739
 20
117.237860
 30
0.0
  0
LINE
  5
152
100
AcDbEntity
  8
min_wheel
 62
7
100
AcDbLine
 10
274.749739
 20
117.237860
 30
0.0
 11
221.604208
 21
90.738810
 31
0.0
  0
SPLINE
  5
153
100
AcDbEntity
  8
min_wheel
 62
7
100
AcDbSpline
 70
8
 71
3
 72
8
 73
4
 74
0
 40
0
 40
0
 40
0
 40
0
 40
1
 40
1
 40
1
 40
1
 10
221.604208
 20
90.738810
 30
0.0
 10
221.373701
 20
91.204272
 30
0.0
 10
221.148072
 20
91.672134
 30
0.0
 10
220.927359
 20
92.142320
 30
0.0
  0
LINE
  5
154
100
AcDbEntity
  8
min_wheel
 62
7
100
AcDbLine
 10
220.927359
 20
92.142320
 30
0.0
 11
274.609300
 21
117.518660
 31
0.0
  0
LINE
  5
155
100
AcDbEntity
  8
min_wheel
 62
7
100
AcDbLine
 10
293.418850
 20
109.884930
 30
0.0
 11
314.216740
 21
54.260710
 31
0.0
  0
SPLINE
  5
156
100
AcDbEntity
  8
min_wheel
 62
7
100
AcDbSpline
 70
8
 71
3
 72
8
 73
4
 74
0
 40
0
 40
0
 40
0
 40
0
 40
1
 40
1
 40
1
 40
1
 10
314.216740
 20
54.260710
 30
0.0
 10
313.734504
 20
54.067402
 30
0.0
 10
313.250258
 20
53.879148
 30
0.0
 10
312.764080
 20
53.695980
 30
0.0
  0
LINE
  5
157
100
AcDbEntity
  8
min_wheel
 62
7
100
AcDbLine
 10
312.764080
 20
53.695980
 30
0.0
 11
293.122010
 21
109.781360
 31
0.0
  0
SPLINE
  5
158
100
AcDbEntity
  8
min_wheel
 62
7
100
AcDbSpline
 70
8
 71
3
 72
8
 73
4
 74
0
 40
0
 40
0
 40
0
 40
0
 40
1
 40
1
 40
1
 40
1
 10
293.122010
 20
109.781360
 30
0.0
 10
293.221316
 20
109.814845
 30
0.0
 10
293.320268
 20
109.849371
 30
0.0
 10
293.418850
 20
109.884930
 30
0.0
  0
LINE
  5
159
100
AcDbEntity
  8
min_wheel
 62
7
100
AcDbLine
 10
293.418850
 20
109.884930
 30
0.0
 11
293.418850
 21
109.884930
 31
0.0
  0
SPLINE
  5
15a
100
AcDbEntity
  8
min_wheel
 62
7
100
AcDbSpline
 70
8
 71
3
 72
8
 73
4
 74
0
 40
0
 40
0
 40
0
 40
0
 40
1
 40
1
 40
1
 40
1
 10
275.358661
 20
116.139910
 30
0.0
 10
275.413312
 20
116.050600
 30
0.0
 10
275.468897
 20
115.961866
 30
0.0
 10
275.525407
 20
115.873720
 30
0.0
  0
LINE
  5
15b
100
AcDbEntity
  8
min_wheel
 62
7
100
AcDbLine
 10
275.525407
 20
115.873720
 30
0.0
 11
225.395143
 21
83.935930
 31
0.0
  0
SPLINE
  5
15c
100
AcDbEntity
  8
min_wheel
 62
7
100
AcDbSpline
 70
8
 71
3
 72
8
 73
4
 74
0
 40
0
 40
0
 40
0
 40
0
 40
1
 40
1
 40
1
 40
1
 10
225.395143
 20
83.935930
 30
0.0
 10
225.128631
 20
84.381953
 30
0.0
 10
224.866796
 20
84.830754
 30
0.0
 10
224.609682
 20
85.282260
 30
0.0
  0
LINE
  5
15d
100
AcDbEntity
  8
min_wheel
 62
7
100
AcDbLine
 10
224.609682
 20
85.282260
 30
0.0
 11
275.358661
 21
116.139910
 31
0.0
  0
LINE
  5
15e
100
AcDbEntity
  8
min_wheel
 62
7
100
AcDbLine
 10
291.921250
 20
109.416210
 30
0.0
 11
306.804400
 21
51.869520
 31
0.0
  0
SPLINE
  5
15f
100
AcDbEntity
  8
min_wheel
 62
7
100
AcDbSpline
 70
8
 71
3
 72
8
 73
4
 74
0
 40
0
 40
0
 40
0
 40
0
 40
1
 40
1
 40
1
 40
1
 10
306.804400
 20
51.869520
 30
0.0
 10
306.297870
 20
51.754081
 30
0.0
 10
305.790146
 20
51.643948
 30
0.0
 10
305.281310
 20
51.539140
 30
0.0
  0
LINE
  5
160
100
AcDbEntity
  8
min_wheel
 62
7
100
AcDbLine
 10
305.281310
 20
51.539140
 30
0.0
 11
291.617760
 21
109.335250
 31
0.0
  0
SPLINE
  5
161
100
AcDbEntity
  8
min_wheel
 62
7
100
AcDbSpline
 70
8
 71
3
 72
8
 73
4
 74
0
 40
0
 40
0
 40
0
 40
0
 40
1
 40
1
 40
1
 40
1
 10
291.617760
 20
109.335250
 30
0.0
 10
291.719203
 20
109.361190
 30
0.0
 10
291.820372
 20
109.388191
 30
0.0
 10
291.921250
 20
109.416250
 30
0.0
  0
LINE
  5
162
100
AcDbEntity
  8
min_wheel
 62
7
100
AcDbLine
 10
291.921250
 20
109.416250
 30
0.0
 11
291.921250
 21
109.416210
 31
0.0
  0
SPLINE
  5
163
100
AcDbEntity
  8
min_wheel
 62
7
100
AcDbSpline
 70
8
 71
3
 72
8
 73
4
 74
0
 40
0
 40
0
 40
0
 40
0
 40
1
 40
1
 40
1
 40
1
 10
276.242507
 20
114.843140
 30
0.0
 10
276.303614
 20
114.758277
 30
0.0
 10
276.365607
 20
114.674056
 30
0.0
 10
276.428475
 20
114.590490
 30
0.0
  0
LINE
  5
164
100
AcDbEntity
  8
min_wheel
 62
7
100
AcDbLine
 10
276.428475
 20
114.590490
 30
0.0
 11
229.959330
 21
77.625490
 31
0.0
  0
SPLINE
  5
165
100
AcDbEntity
  8
min_wheel
 62
7
100
AcDbSpline
 70
8
 71
3
 72
8
 73
4
 74
0
 40
0
 40
0
 40
0
 40
0
 40
1
 40
1
 40
1
 40
1
 10
229.959330
 20
77.625490
 30
0.0
 10
229.626283
 20
78.024266
 30
0.0
 10
229.297421
 20
78.426518
 30
0.0
 10
228.972797
 20
78.832180
 30
0.0
  0
LINE
  5
166
100
AcDbEntity
  8
min_wheel
 62
7
100
AcDbLine
 10
228.972797
 20
78.832180
 30
0.0
 11
276.242507
 21
114.843140
 31
0.0
  0
LINE
  5
167
100
AcDbEntity
  8
min_wheel
 62
7
100
AcDbLine
 10
290.384970
 20
109.093250
 30
0.0
 11
299.162720
 21
50.366790
 31
0.0
  0
SPLINE
  5
168
100
AcDbEntity
  8
min_wheel
 62
7
100
AcDbSpline
 70
8
 71
3
 72
8
 73
4
 74
0
 40
0
 40
0
 40
0
 40
0
 40
1
 40
1
 40
1
 40
1
 10
299.162720
 20
50.366790
 30
0.0
 10
298.648971
 20
50.291355
 30
0.0
 10
298.134446
 20
50.221297
 30
0.0
 10
297.619230
 20
50.156630
 30
0.0
  0
LINE
  5
169
100
AcDbEntity
  8
min_wheel
 62
7
100
AcDbLine
 10
297.619230
 20
50.156630
 30
0.0
 11
290.072990
 21
109.058390
 31
0.0
  0
SPLINE
  5
16a
100
AcDbEntity
  8
min_wheel
 62
7
100
AcDbSpline
 70
8
 71
3
 72
8
 73
4
 74
0
 40
0
 40
0
 40
0
 40
0
 40
1
 40
1
 40
1
 40
1
 10
290.072990
 20
109.058390
 30
0.0
 10
290.177102
 20
109.068935
 30
0.0
 10
290.281101
 20
109.080569
 30
0.0
 10
290.384970
 20
109.093290
 30
0.0
  0
LINE
  5
16b
100
AcDbEntity
  8
min_wheel
 62
7
100
AcDbLine
 10
290.384970
 20
109.093290
 30
0.0
 11
290.384970
 21
109.093250
 31
0.0
  0
SPLINE
  5
16c
100
AcDbEntity
  8
min_wheel
 62
7
100
AcDbSpline
 70
8
 71
3
 72
8
 73
4
 74
0
 40
0
 40
0
 40
0
 40
0
 40
1
 40
1
 40
1
 40
1
 10
277.254144
 20
113.643780
 30
0.0
 10
277.327296
 20
113.568898
 30
0.0
 10
277.401229
 20
113.494784
 30
0.0
 10
277.475932
 20
113.421450
 30
0.0
  0
LINE
  5
16d
100
AcDbEntity
  8
min_wheel
 62
7
100
AcDbLine
 10
277.475932
 20
113.421450
 30
0.0
 11
235.117867
 21
71.794640
 31
0.0
  0
SPLINE
  5
16e
100
AcDbEntity
  8
min_wheel
 62
7
100
AcDbSpline
 70
8
 71
3
 72
8
 73
4
 74
0
 40
0
 40
0
 40
0
 40
0
 40
1
 40
1
 40
1
 40
1
 10
235.117867
 20
71.794640
 30
0.0
 10
234.754961
 20
72.165917
 30
0.0
 10
234.395950
 20
72.540981
 30
0.0
 10
234.040892
 20
72.919770
 30
0.0
  0
LINE
  5
16f
100
AcDbEntity
  8
min_wheel
 62
7
100
AcDbLine
 10
234.040892
 20
72.919770
 30
0.0
 11
277.254144
 21
113.643780
 31
0.0
  0
LINE
  5
170
100
AcDbEntity
  8
min_wheel
 62
7
100
AcDbLine
 10
288.822110
 20
108.952360
 30
0.0
 11
291.413610
 21
49.620620
 31
0.0
  0
SPLINE
  5
171
100
AcDbEntity
  8
min_wheel
 62
7
100
AcDbSpline
 70
8
 71
3
 72
8
 73
4
 74
0
 40
0
 40
0
 40
0
 40
0
 40
1
 40
1
 40
1
 40
1
 10
291.413610
 20
49.620620
 30
0.0
 10
290.895282
 20
49.585824
 30
0.0
 10
290.376603
 20
49.556456
 30
0.0
 10
289.857660
 20
49.532520
 30
0.0
  0
LINE
  5
172
100
AcDbEntity
  8
min_wheel
 62
7
100
AcDbLine
 10
289.857660
 20
49.532520
 30
0.0
 11
288.508270
 21
108.940980
 31
0.0
  0
SPLINE
  5
173
100
AcDbEntity
  8
min_wheel
 62
7
100
AcDbSpline
 70
8
 71
3
 72
8
 73
4
 74
0
 40
0
 40
0
 40
0
 40
0
 40
1
 40
1
 40
1
 40
1
 10
288.508270
 20
108.940980
 30
0.0
 10
288.612920
 20
108.943651
 30
0.0
 10
288.717539
 20
108.947418
 30
0.0
 10
288.822110
 20
108.952280
 30
0.0
  0
LINE
  5
174
100
AcDbEntity
  8
min_wheel
 62
7
100
AcDbLine
 10
288.822110
 20
108.952280
 30
0.0
 11
288.822110
 21
108.952360
 31
0.0
  0
SPLINE
  5
175
100
AcDbEntity
  8
min_wheel
 62
7
100
AcDbSpline
 70
8
 71
3
 72
8
 73
4
 74
0
 40
0
 40
0
 40
0
 40
0
 40
1
 40
1
 40
1
 40
1
 10
278.393441
 20
112.564080
 30
0.0
 10
278.471871
 20
112.494864
 30
0.0
 10
278.551022
 20
112.426470
 30
0.0
 10
278.630883
 20
112.358910
 30
0.0
  0
LINE
  5
176
100
AcDbEntity
  8
min_wheel
 62
7
100
AcDbLine
 10
278.630883
 20
112.358910
 30
0.0
 11
240.825760
 21
66.495540
 31
0.0
  0
SPLINE
  5
177
100
AcDbEntity
  8
min_wheel
 62
7
100
AcDbSpline
 70
8
 71
3
 72
8
 73
4
 74
0
 40
0
 40
0
 40
0
 40
0
 40
1
 40
1
 40
1
 40
1
 10
240.825760
 20
66.495540
 30
0.0
 10
240.434489
 20
66.837448
 30
0.0
 10
240.046810
 20
67.183443
 30
0.0
 10
239.662785
 20
67.533470
 30
0.0
  0
LINE
  5
178
100
AcDbEntity
  8
min_wheel
 62
7
100
AcDbLine
 10
239.662785
 20
67.533470
 30
0.0
 11
278.393441
 21
112.564080
 31
0.0
  0
LINE
  5
179
100
AcDbEntity
  8
min_wheel
 62
7
100
AcDbLine
 10
287.252790
 20
108.962880
 30
0.0
 11
283.625140
 21
49.637530
 31
0.0
  0
SPLINE
  5
17a
100
AcDbEntity
  8
min_wheel
 62
7
100
AcDbSpline
 70
8
 71
3
 72
8
 73
4
 74
0
 40
0
 40
0
 40
0
 40
0
 40
1
 40
1
 40
1
 40
1
 10
283.625140
 20
49.637530
 30
0.0
 10
283.107642
 20
49.684115
 30
0.0
 10
282.590645
 20
49.736118
 30
0.0
 10
282.074236
 20
49.793530
 30
0.0
  0
LINE
  5
17b
100
AcDbEntity
  8
min_wheel
 62
7
100
AcDbLine
 10
282.074236
 20
49.793530
 30
0.0
 11
286.939270
 21
108.981950
 31
0.0
  0
SPLINE
  5
17c
100
AcDbEntity
  8
min_wheel
 62
7
100
AcDbSpline
 70
8
 71
3
 72
8
 73
4
 74
0
 40
0
 40
0
 40
0
 40
0
 40
1
 40
1
 40
1
 40
1
 10
286.939270
 20
108.981950
 30
0.0
 10
287.043700
 20
108.974489
 30
0.0
 10
287.148206
 20
108.968122
 30
0.0
 10
287.252770
 20
108.962850
 30
0.0
  0
LINE
  5
17d
100
AcDbEntity
  8
min_wheel
 62
7
100
AcDbLine
 10
287.252770
 20
108.962850
 30
0.0
 11
287.252790
 21
108.962880
 31
0.0
  0
SPLINE
  5
17e
100
AcDbEntity
  8
min_wheel
 62
7
100
AcDbSpline
 70
8
 71
3
 72
8
 73
4
 74
0
 40
0
 40
0
 40
0
 40
0
 40
1
 40
1
 40
1
 40
1
 10
279.630506
 20
111.598610
 30
0.0
 10
279.717309
 20
111.539946
 30
0.0
 10
279.804723
 20
111.482193
 30
0.0
 10
279.892736
 20
111.425360
 30
0.0
  0
LINE
  5
17f
100
AcDbEntity
  8
min_wheel
 62
7
100
AcDbLine
 10
279.892736
 20
111.425360
 30
0.0
 11
247.116821
 21
61.904280
 31
0.0
  0
SPLINE
  5
180
100
AcDbEntity
  8
min_wheel
 62
7
100
AcDbSpline
 70
8
 71
3
 72
8
 73
4
 74
0
 40
0
 40
0
 40
0
 40
0
 40
1
 40
1
 40
1
 40
1
 10
247.116821
 20
61.904280
 30
0.0
 10
246.676769
 20
62.180724
 30
0.0
 10
246.239624
 20
62.461770
 30
0.0
 10
245.805458
 20
62.747370
 30
0.0
  0
LINE
  5
181
100
AcDbEntity
  8
min_wheel
 62
7
100
AcDbLine
 10
245.805458
 20
62.747370
 30
0.0
 11
279.630506
 21
111.598610
 31
0.0
  0
LINE
  5
182
100
AcDbEntity
  8
min_wheel
 62
7
100
AcDbLine
 10
285.693230
 20
109.140630
 30
0.0
 11
275.892879
 21
50.569840
 31
0.0
  0
SPLINE
  5
183
100
AcDbEntity
  8
min_wheel
 62
7
100
AcDbSpline
 70
8
 71
3
 72
8
 73
4
 74
0
 40
0
 40
0
 40
0
 40
0
 40
1
 40
1
 40
1
 40
1
 10
275.892879
 20
50.569840
 30
0.0
 10
275.381047
 20
50.656862
 30
0.0
 10
274.870139
 20
50.749237
 30
0.0
 10
274.360239
 20
50.846950
 30
0.0
  0
LINE
  5
184
100
AcDbEntity
  8
min_wheel
 62
7
100
AcDbLine
 10
274.360239
 20
50.846950
 30
0.0
 11
285.384790
 21
109.199360
 31
0.0
  0
SPLINE
  5
185
100
AcDbEntity
  8
min_wheel
 62
7
100
AcDbSpline
 70
8
 71
3
 72
8
 73
4
 74
0
 40
0
 40
0
 40
0
 40
0
 40
1
 40
1
 40
1
 40
1
 10
285.384790
 20
109.199360
 30
0.0
 10
285.487396
 20
109.178718
 30
0.0
 10
285.590215
 20
109.159150
 30
0.0
 10
285.693230
 20
109.140660
 30
0.0
  0
LINE
  5
186
100
AcDbEntity
  8
min_wheel
 62
7
100
AcDbLine
 10
285.693230
 20
109.140660
 30
0.0
 11
285.693230
 21
109.140630
 31
0.0
  0
SPLINE
  5
187
100
AcDbEntity
  8
min_wheel
 62
7
100
AcDbSpline
 70
8
 71
3
 72
8
 73
4
 74
0
 40
0
 40
0
 40
0
 40
0
 40
1
 40
1
 40
1
 40
1
 10
280.968806
 20
110.778790
 30
0.0
 10
281.060807
 20
110.728806
 30
0.0
 10
281.153329
 20
110.679787
 30
0.0
 10
281.246356
 20
110.631740
 30
0.0
  0
LINE
  5
188
100
AcDbEntity
  8
min_wheel
 62
7
100
AcDbLine
 10
281.246356
 20
110.631740
 30
0.0
 11
253.824445
 21
57.953200
 31
0.0
  0
SPLINE
  5
189
100
AcDbEntity
  8
min_wheel
 62
7
100
AcDbSpline
 70
8
 71
3
 72
8
 73
4
 74
0
 40
0
 40
0
 40
0
 40
0
 40
1
 40
1
 40
1
 40
1
 10
253.824445
 20
57.953200
 30
0.0
 10
253.364707
 20
58.194028
 30
0.0
 10
252.907501
 20
58.439658
 30
0.0
 10
252.452902
 20
58.690050
 30
0.0
  0
LINE
  5
18a
100
AcDbEntity
  8
min_wheel
 62
7
100
AcDbLine
 10
252.452902
 20
58.690050
 30
0.0
 11
280.968806
 21
110.778790
 31
0.0
  0
LINE
  5
18b
100
AcDbEntity
  8
min_wheel
 62
7
100
AcDbLine
 10
284.161990
 20
109.483310
 30
0.0
 11
268.292525
 21
52.254450
 31
0.0
  0
SPLINE
  5
18c
100
AcDbEntity
  8
min_wheel
 62
7
100
AcDbSpline
 70
8
 71
3
 72
8
 73
4
 74
0
 40
0
 40
0
 40
0
 40
0
 40
1
 40
1
 40
1
 40
1
 10
268.292525
 20
52.254450
 30
0.0
 10
267.788797
 20
52.381520
 30
0.0
 10
267.286412
 20
52.513861
 30
0.0
 10
266.785455
 20
52.651450
 30
0.0
  0
LINE
  5
18d
100
AcDbEntity
  8
min_wheel
 62
7
100
AcDbLine
 10
266.785455
 20
52.651450
 30
0.0
 11
283.858700
 21
109.565010
 31
0.0
  0
SPLINE
  5
18e
100
AcDbEntity
  8
min_wheel
 62
7
100
AcDbSpline
 70
8
 71
3
 72
8
 73
4
 74
0
 40
0
 40
0
 40
0
 40
0
 40
1
 40
1
 40
1
 40
1
 10
283.858700
 20
109.565010
 30
0.0
 10
283.959505
 20
109.536719
 30
0.0
 10
284.060604
 20
109.509484
 30
0.0
 10
284.161980
 20
109.483310
 30
0.0
  0
LINE
  5
18f
100
AcDbEntity
  8
min_wheel
 62
7
100
AcDbLine
 10
284.161980
 20
109.483310
 30
0.0
 11
284.161990
 21
109.483310
 31
0.0
  0
SPLINE
  5
190
100
AcDbEntity
  8
min_wheel
 62
7
100
AcDbSpline
 70
8
 71
3
 72
8
 73
4
 74
0
 40
0
 40
0
 40
0
 40
0
 40
1
 40
1
 40
1
 40
1
 10
282.382490
 20
110.098140
 30
0.0
 10
282.478036
 20
110.055065
 30
0.0
 10
282.574032
 20
110.012993
 30
0.0
 10
282.670460
 20
109.971930
 30
0.0
  0
LINE
  5
191
100
AcDbEntity
  8
min_wheel
 62
7
100
AcDbLine
 10
282.670460
 20
109.971930
 30
0.0
 11
260.890734
 21
54.677230
 31
0.0
  0
SPLINE
  5
192
100
AcDbEntity
  8
min_wheel
 62
7
100
AcDbSpline
 70
8
 71
3
 72
8
 73
4
 74
0
 40
0
 40
0
 40
0
 40
0
 40
1
 40
1
 40
1
 40
1
 10
260.890734
 20
54.677230
 30
0.0
 10
260.412794
 20
54.881491
 30
0.0
 10
259.937006
 20
55.090752
 30
0.0
 10
259.463449
 20
55.304980
 30
0.0
  0
LINE
  5
193
100
AcDbEntity
  8
min_wheel
 62
7
100
AcDbLine
 10
259.463449
 20
55.304980
 30
0.0
 11
282.382490
 21
110.098140
 31
0.0
  0
ENDSEC
  0
SECTION
  2
OBJECTS
  0
DICTIONARY
  5
C
330
0
100
AcDbDictionary
  3
ACAD_GROUP
350
D
  3
ACAD_MLINESTYLE
350
17
  0
DICTIONARY
  5
D
330
C
100
AcDbDictionary
  0
DICTIONARY
  5
1A
330
C
100
AcDbDictionary
  0
DICTIONARY
  5
17
330
C
100
AcDbDictionary
  3
STANDARD
350
18
  0
DICTIONARY
  5
19
330
C
100
AcDbDictionary
  0
ENDSEC
  0
EOF
