  0
SECTION
  2
HEADER
  9
$ACADVER
  1
AC1014
  9
$HANDSEED
  5
FFFF
  9
$MEASUREMENT
 70
     1
  0
ENDSEC
  0
SECTION
  2
TABLES
  0
TABLE
  2
VPORT
  5
8
330
0
100
AcDbSymbolTable
 70
     4
  0
VPORT
  5
2E
330
8
100
AcDbSymbolTableRecord
100
AcDbViewportTableRecord
  2
*ACTIVE
 70
     0
 10
0.0
 20
0.0
 11
1.0
 21
1.0
 12
210.0
 22
148.5
 13
0.0
 23
0.0
 14
10.0
 24
10.0
 15
10.0
 25
10.0
 16
0.0
 26
0.0
 36
1.0
 17
0.0
 27
0.0
 37
0.0
 40
341.0
 41
1.24
 42
50.0
 43
0.0
 44
0.0
 50
0.0
 51
0.0
 71
     0
 72
   100
 73
     1
 74
     3
 75
     0
 76
     0
 77
     0
 78
     0
  0
ENDTAB
  0
TABLE
  2
LTYPE
  5
5
330
0
100
AcDbSymbolTable
 70
     1
  0
LTYPE
  5
14
330
5
100
AcDbSymbolTableRecord
100
AcDbLinetypeTableRecord
  2
BYBLOCK
 70
     0
  3

 72
    65
 73
     0
 40
0.0
  0
LTYPE
  5
15
330
5
100
AcDbSymbolTableRecord
100
AcDbLinetypeTableRecord
  2
BYLAYER
 70
     0
  3

 72
    65
 73
     0
 40
0.0
  0
LTYPE
  5
16
330
5
100
AcDbSymbolTableRecord
100
AcDbLinetypeTableRecord
  2
CONTINUOUS
 70
     0
  3
Solid line
 72
    65
 73
     0
 40
0.0
  0
ENDTAB
  0
TABLE
  2
LAYER
  5
2
100
AcDbSymbolTable
 70
3
  0
LAYER
  5
50
100
AcDbSymbolTableRecord
100
AcDbLayerTableRecord
  2
0
 70
0
  6
CONTINUOUS
  0
LAYER
  5
51
100
AcDbSymbolTableRecord
100
AcDbLayerTableRecord
  2
Ebene1
 70
0
  6
CONTINUOUS
  0
LAYER
  5
52
100
AcDbSymbolTableRecord
100
AcDbLayerTableRecord
  2
hour_wheel
 70
0
  6
CONTINUOUS
  0
ENDTAB
  0
TABLE
  2
STYLE
  5
3
330
0
100
AcDbSymbolTable
 70
     1
  0
STYLE
  5
11
330
3
100
AcDbSymbolTableRecord
100
AcDbTextStyleTableRecord
  2
STANDARD
 70
     0
 40
0.0
 41
1.0
 50
0.0
 71
     0
 42
2.5
  3
txt
  4

  0
ENDTAB
  0
TABLE
  2
VIEW
  5
6
330
0
100
AcDbSymbolTable
 70
     0
  0
ENDTAB
  0
TABLE
  2
UCS
  5
7
330
0
100
AcDbSymbolTable
 70
     0
  0
ENDTAB
  0
TABLE
  2
APPID
  5
9
330
0
100
AcDbSymbolTable
 70
     2
  0
APPID
  5
12
330
9
100
AcDbSymbolTableRecord
100
AcDbRegAppTableRecord
  2
ACAD
 70
     0
  0
ENDTAB
  0
TABLE
  2
DIMSTYLE
  5
A
330
0
100
AcDbSymbolTable
 70
     1
  0
DIMSTYLE
105
27
330
A
100
AcDbSymbolTableRecord
100
AcDbDimStyleTableRecord
  2
ISO-25
 70
     0
  3

  4

  5

  6

  7

 40
1.0
 41
2.5
 42
0.625
 43
3.75
 44
1.25
 45
0.0
 46
0.0
 47
0.0
 48
0.0
140
2.5
141
2.5
142
0.0
143
0.03937007874016
144
1.0
145
0.0
146
1.0
147
0.625
 71
     0
 72
     0
 73
     0
 74
     0
 75
     0
 76
     0
 77
     1
 78
     8
170
     0
171
     3
172
     1
173
     0
174
     0
175
     0
176
     0
177
     0
178
     0
270
     2
271
     2
272
     2
273
     2
274
     3
340
11
275
     0
280
     0
281
     0
282
     0
283
     0
284
     8
285
     0
286
     0
287
     3
288
     0
  0
ENDTAB
  0
TABLE
  2
BLOCK_RECORD
  5
1
330
0
100
AcDbSymbolTable
 70
     1
  0
BLOCK_RECORD
  5
1F
330
1
100
AcDbSymbolTableRecord
100
AcDbBlockTableRecord
  2
*MODEL_SPACE
  0
BLOCK_RECORD
  5
1B
330
1
100
AcDbSymbolTableRecord
100
AcDbBlockTableRecord
  2
*PAPER_SPACE
  0
ENDTAB
  0
ENDSEC
  0
SECTION
  2
BLOCKS
  0
BLOCK
  5
20
330
1F
100
AcDbEntity
  8
0
100
AcDbBlockBegin
  2
*MODEL_SPACE
 70
     0
 10
0.0
 20
0.0
 30
0.0
  3
*MODEL_SPACE
  1

  0
ENDBLK
  5
21
330
1F
100
AcDbEntity
  8
0
100
AcDbBlockEnd
  0
BLOCK
  5
1C
330
1B
100
AcDbEntity
 67
     1
  8
0
100
AcDbBlockBegin
  2
*PAPER_SPACE
  1

  0
ENDBLK
  5
1D
330
1B
100
AcDbEntity
 67
     1
  8
0
100
AcDbBlockEnd
  0
ENDSEC
  0
SECTION
  2
ENTITIES
  0
SPLINE
  5
100
100
AcDbEntity
  8
hour_wheel
 62
7
100
AcDbSpline
 70
8
 71
3
 72
8
 73
4
 74
0
 40
0
 40
0
 40
0
 40
0
 40
1
 40
1
 40
1
 40
1
 10
158.324678
 20
188.196763
 30
0.0
 10
152.042513
 20
191.978502
 30
0.0
 10
144.515327
 20
193.109677
 30
0.0
 10
137.399118
 20
191.341427
 30
0.0
  0
SPLINE
  5
101
100
AcDbEntity
  8
hour_wheel
 62
7
100
AcDbSpline
 70
8
 71
3
 72
8
 73
4
 74
0
 40
0
 40
0
 40
0
 40
0
 40
1
 40
1
 40
1
 40
1
 10
137.399118
 20
191.341427
 30
0.0
 10
130.282908
 20
189.573177
 30
0.0
 10
124.160638
 20
185.050358
 30
0.0
 10
120.379220
 20
178.768000
 30
0.0
  0
SPLINE
  5
102
100
AcDbEntity
  8
hour_wheel
 62
7
100
AcDbSpline
 70
8
 71
3
 72
8
 73
4
 74
0
 40
0
 40
0
 40
0
 40
0
 40
1
 40
1
 40
1
 40
1
 10
120.379220
 20
178.768000
 30
0.0
 10
113.268020
 20
166.944054
 30
0.0
 10
115.963254
 20
151.687117
 30
0.0
 10
126.695165
 20
143.015268
 30
0.0
  0
LINE
  5
103
100
AcDbEntity
  8
hour_wheel
 62
7
100
AcDbLine
 10
126.695165
 20
143.015268
 30
0.0
 11
116.788409
 21
126.558678
 31
0.0
  0
SPLINE
  5
104
100
AcDbEntity
  8
hour_wheel
 62
7
100
AcDbSpline
 70
8
 71
3
 72
8
 73
4
 74
0
 40
0
 40
0
 40
0
 40
0
 40
1
 40
1
 40
1
 40
1
 10
116.788409
 20
126.558678
 30
0.0
 10
106.476498
 20
130.580680
 30
0.0
 10
94.771793
 20
126.489371
 30
0.0
 10
89.210963
 20
116.919148
 30
0.0
  0
SPLINE
  5
105
100
AcDbEntity
  8
hour_wheel
 62
7
100
AcDbSpline
 70
8
 71
3
 72
8
 73
4
 74
0
 40
0
 40
0
 40
0
 40
0
 40
1
 40
1
 40
1
 40
1
 10
89.210963
 20
116.919148
 30
0.0
 10
82.980566
 20
106.194937
 30
0.0
 10
86.623517
 20
92.450512
 30
0.0
 10
97.347724
 20
86.220108
 30
0.0
  0
SPLINE
  5
106
100
AcDbEntity
  8
hour_wheel
 62
7
100
AcDbSpline
 70
8
 71
3
 72
8
 73
4
 74
0
 40
0
 40
0
 40
0
 40
0
 40
1
 40
1
 40
1
 40
1
 10
97.347724
 20
86.220108
 30
0.0
 10
108.071929
 20
79.989709
 30
0.0
 10
121.816350
 20
83.632650
 30
0.0
 10
128.046761
 20
94.356847
 30
0.0
  0
SPLINE
  5
107
100
AcDbEntity
  8
hour_wheel
 62
7
100
AcDbSpline
 70
8
 71
3
 72
8
 73
4
 74
0
 40
0
 40
0
 40
0
 40
0
 40
1
 40
1
 40
1
 40
1
 10
128.046761
 20
94.356847
 30
0.0
 10
133.475283
 20
103.701273
 30
0.0
 10
131.478460
 20
115.586978
 30
0.0
 10
123.294383
 20
122.644459
 30
0.0
  0
LINE
  5
108
100
AcDbEntity
  8
hour_wheel
 62
7
100
AcDbLine
 10
123.294383
 20
122.644459
 30
0.0
 11
133.199205
 21
139.099779
 31
0.0
  0
SPLINE
  5
109
100
AcDbEntity
  8
hour_wheel
 62
7
100
AcDbSpline
 70
8
 71
3
 72
8
 73
4
 74
0
 40
0
 40
0
 40
0
 40
0
 40
1
 40
1
 40
1
 40
1
 10
133.199205
 20
139.099779
 30
0.0
 10
145.886108
 20
133.673314
 30
0.0
 10
160.631715
 20
138.432440
 30
0.0
 10
167.752542
 20
150.251823
 30
0.0
  0
SPLINE
  5
10a
100
AcDbEntity
  8
hour_wheel
 62
7
100
AcDbSpline
 70
8
 71
3
 72
8
 73
4
 74
0
 40
0
 40
0
 40
0
 40
0
 40
1
 40
1
 40
1
 40
1
 10
167.752542
 20
150.251823
 30
0.0
 10
171.534194
 20
156.533834
 30
0.0
 10
172.665415
 20
164.060815
 30
0.0
 10
170.897344
 20
171.176887
 30
0.0
  0
SPLINE
  5
10b
100
AcDbEntity
  8
hour_wheel
 62
7
100
AcDbSpline
 70
8
 71
3
 72
8
 73
4
 74
0
 40
0
 40
0
 40
0
 40
0
 40
1
 40
1
 40
1
 40
1
 10
170.897344
 20
171.176887
 30
0.0
 10
169.129272
 20
178.292960
 30
0.0
 10
164.606743
 20
184.415200
 30
0.0
 10
158.324678
 20
188.196763
 30
0.0
  0
LINE
  5
10c
100
AcDbEntity
  8
hour_wheel
 62
7
100
AcDbLine
 10
158.324678
 20
188.196763
 30
0.0
 11
158.324678
 21
188.196763
 31
0.0
  0
LINE
  5
10d
100
AcDbEntity
  8
hour_wheel
 62
7
100
AcDbLine
 10
149.168669
 20
188.241873
 30
0.0
 11
162.884560
 21
179.985341
 31
0.0
  0
SPLINE
  5
10e
100
AcDbEntity
  8
hour_wheel
 62
7
100
AcDbSpline
 70
8
 71
3
 72
8
 73
4
 74
0
 40
0
 40
0
 40
0
 40
0
 40
1
 40
1
 40
1
 40
1
 10
162.884560
 20
179.985341
 30
0.0
 10
163.143680
 20
179.667999
 30
0.0
 10
163.394758
 20
179.344175
 30
0.0
 10
163.637556
 20
179.014178
 30
0.0
  0
LINE
  5
10f
100
AcDbEntity
  8
hour_wheel
 62
7
100
AcDbLine
 10
163.637556
 20
179.014178
 30
0.0
 11
147.781419
 21
188.559544
 31
0.0
  0
SPLINE
  5
110
100
AcDbEntity
  8
hour_wheel
 62
7
100
AcDbSpline
 70
8
 71
3
 72
8
 73
4
 74
0
 40
0
 40
0
 40
0
 40
0
 40
1
 40
1
 40
1
 40
1
 10
147.781419
 20
188.559544
 30
0.0
 10
148.246829
 20
188.467178
 30
0.0
 10
148.709442
 20
188.361243
 30
0.0
 10
149.168669
 20
188.241873
 30
0.0
  0
LINE
  5
111
100
AcDbEntity
  8
hour_wheel
 62
7
100
AcDbLine
 10
149.168669
 20
188.241873
 30
0.0
 11
149.168669
 21
188.241873
 31
0.0
  0
LINE
  5
112
100
AcDbEntity
  8
hour_wheel
 62
7
100
AcDbLine
 10
142.991304
 20
188.849658
 30
0.0
 11
166.081885
 21
174.950721
 31
0.0
  0
SPLINE
  5
113
100
AcDbEntity
  8
hour_wheel
 62
7
100
AcDbSpline
 70
8
 71
3
 72
8
 73
4
 74
0
 40
0
 40
0
 40
0
 40
0
 40
1
 40
1
 40
1
 40
1
 10
166.081885
 20
174.950721
 30
0.0
 10
166.191618
 20
174.716146
 30
0.0
 10
166.297606
 20
174.479838
 30
0.0
 10
166.399808
 20
174.241886
 30
0.0
  0
LINE
  5
114
100
AcDbEntity
  8
hour_wheel
 62
7
100
AcDbLine
 10
166.399808
 20
174.241886
 30
0.0
 11
142.273691
 21
188.764549
 31
0.0
  0
SPLINE
  5
115
100
AcDbEntity
  8
hour_wheel
 62
7
100
AcDbSpline
 70
8
 71
3
 72
8
 73
4
 74
0
 40
0
 40
0
 40
0
 40
0
 40
1
 40
1
 40
1
 40
1
 10
142.273691
 20
188.764549
 30
0.0
 10
142.512461
 20
188.796463
 30
0.0
 10
142.751692
 20
188.824836
 30
0.0
 10
142.991304
 20
188.849658
 30
0.0
  0
LINE
  5
116
100
AcDbEntity
  8
hour_wheel
 62
7
100
AcDbLine
 10
142.991304
 20
188.849658
 30
0.0
 11
142.991304
 21
188.849658
 31
0.0
  0
LINE
  5
117
100
AcDbEntity
  8
hour_wheel
 62
7
100
AcDbLine
 10
138.809703
 20
188.257333
 30
0.0
 11
167.560653
 21
170.950387
 31
0.0
  0
SPLINE
  5
118
100
AcDbEntity
  8
hour_wheel
 62
7
100
AcDbSpline
 70
8
 71
3
 72
8
 73
4
 74
0
 40
0
 40
0
 40
0
 40
0
 40
1
 40
1
 40
1
 40
1
 10
167.560653
 20
170.950387
 30
0.0
 10
167.621545
 20
170.743672
 30
0.0
 10
167.679694
 20
170.536159
 30
0.0
 10
167.735084
 20
170.327903
 30
0.0
  0
LINE
  5
119
100
AcDbEntity
  8
hour_wheel
 62
7
100
AcDbLine
 10
167.735084
 20
170.327903
 30
0.0
 11
138.162542
 21
188.128899
 31
0.0
  0
SPLINE
  5
11a
100
AcDbEntity
  8
hour_wheel
 62
7
100
AcDbSpline
 70
8
 71
3
 72
8
 73
4
 74
0
 40
0
 40
0
 40
0
 40
0
 40
1
 40
1
 40
1
 40
1
 10
138.162542
 20
188.128899
 30
0.0
 10
138.377673
 20
188.174628
 30
0.0
 10
138.593413
 20
188.217443
 30
0.0
 10
138.809703
 20
188.257333
 30
0.0
  0
LINE
  5
11b
100
AcDbEntity
  8
hour_wheel
 62
7
100
AcDbLine
 10
138.809703
 20
188.257333
 30
0.0
 11
138.809703
 21
188.257333
 31
0.0
  0
LINE
  5
11c
100
AcDbEntity
  8
hour_wheel
 62
7
100
AcDbLine
 10
135.425949
 20
187.183556
 30
0.0
 11
168.255350
 21
167.422302
 31
0.0
  0
SPLINE
  5
11d
100
AcDbEntity
  8
hour_wheel
 62
7
100
AcDbSpline
 70
8
 71
3
 72
8
 73
4
 74
0
 40
0
 40
0
 40
0
 40
0
 40
1
 40
1
 40
1
 40
1
 10
168.255350
 20
167.422302
 30
0.0
 10
168.280761
 20
167.235951
 30
0.0
 10
168.304014
 20
167.049312
 30
0.0
 10
168.325105
 20
166.862422
 30
0.0
  0
LINE
  5
11e
100
AcDbEntity
  8
hour_wheel
 62
7
100
AcDbLine
 10
168.325105
 20
166.862422
 30
0.0
 11
134.885250
 21
186.991479
 31
0.0
  0
SPLINE
  5
11f
100
AcDbEntity
  8
hour_wheel
 62
7
100
AcDbSpline
 70
8
 71
3
 72
8
 73
4
 74
0
 40
0
 40
0
 40
0
 40
0
 40
1
 40
1
 40
1
 40
1
 10
134.885250
 20
186.991479
 30
0.0
 10
135.064723
 20
187.057624
 30
0.0
 10
135.244968
 20
187.121654
 30
0.0
 10
135.425949
 20
187.183556
 30
0.0
  0
LINE
  5
120
100
AcDbEntity
  8
hour_wheel
 62
7
100
AcDbLine
 10
135.425949
 20
187.183556
 30
0.0
 11
135.425949
 21
187.183556
 31
0.0
  0
LINE
  5
121
100
AcDbEntity
  8
hour_wheel
 62
7
100
AcDbLine
 10
132.480666
 20
185.846081
 30
0.0
 11
168.424763
 21
164.210146
 31
0.0
  0
SPLINE
  5
122
100
AcDbEntity
  8
hour_wheel
 62
7
100
AcDbSpline
 70
8
 71
3
 72
8
 73
4
 74
0
 40
0
 40
0
 40
0
 40
0
 40
1
 40
1
 40
1
 40
1
 10
168.424763
 20
164.210146
 30
0.0
 10
168.425505
 20
164.037851
 30
0.0
 10
168.424421
 20
163.865553
 30
0.0
 10
168.421510
 20
163.693280
 30
0.0
  0
LINE
  5
123
100
AcDbEntity
  8
hour_wheel
 62
7
100
AcDbLine
 10
168.421510
 20
163.693280
 30
0.0
 11
132.048325
 21
185.587462
 31
0.0
  0
SPLINE
  5
124
100
AcDbEntity
  8
hour_wheel
 62
7
100
AcDbSpline
 70
8
 71
3
 72
8
 73
4
 74
0
 40
0
 40
0
 40
0
 40
0
 40
1
 40
1
 40
1
 40
1
 10
132.048325
 20
185.587462
 30
0.0
 10
132.191544
 20
185.675155
 30
0.0
 10
132.335666
 20
185.761366
 30
0.0
 10
132.480666
 20
185.846081
 30
0.0
  0
LINE
  5
125
100
AcDbEntity
  8
hour_wheel
 62
7
100
AcDbLine
 10
132.480666
 20
185.846081
 30
0.0
 11
132.480666
 21
185.846081
 31
0.0
  0
LINE
  5
126
100
AcDbEntity
  8
hour_wheel
 62
7
100
AcDbLine
 10
129.887307
 20
184.297571
 30
0.0
 11
168.207484
 21
161.230419
 31
0.0
  0
SPLINE
  5
127
100
AcDbEntity
  8
hour_wheel
 62
7
100
AcDbSpline
 70
8
 71
3
 72
8
 73
4
 74
0
 40
0
 40
0
 40
0
 40
0
 40
1
 40
1
 40
1
 40
1
 10
168.207484
 20
161.230419
 30
0.0
 10
168.185344
 20
161.071836
 30
0.0
 10
168.161643
 20
160.913475
 30
0.0
 10
168.136383
 20
160.755359
 30
0.0
  0
LINE
  5
128
100
AcDbEntity
  8
hour_wheel
 62
7
100
AcDbLine
 10
168.136383
 20
160.755359
 30
0.0
 11
129.480809
 21
184.023941
 31
0.0
  0
SPLINE
  5
129
100
AcDbEntity
  8
hour_wheel
 62
7
100
AcDbSpline
 70
8
 71
3
 72
8
 73
4
 74
0
 40
0
 40
0
 40
0
 40
0
 40
1
 40
1
 40
1
 40
1
 10
129.480809
 20
184.023941
 30
0.0
 10
129.615362
 20
184.116526
 30
0.0
 10
129.750842
 20
184.207756
 30
0.0
 10
129.887229
 20
184.297617
 30
0.0
  0
LINE
  5
12a
100
AcDbEntity
  8
hour_wheel
 62
7
100
AcDbLine
 10
129.887229
 20
184.297617
 30
0.0
 11
129.887307
 21
184.297571
 31
0.0
  0
LINE
  5
12b
100
AcDbEntity
  8
hour_wheel
 62
7
100
AcDbLine
 10
127.758447
 20
182.468446
 30
0.0
 11
167.670969
 21
158.443920
 31
0.0
  0
SPLINE
  5
12c
100
AcDbEntity
  8
hour_wheel
 62
7
100
AcDbSpline
 70
8
 71
3
 72
8
 73
4
 74
0
 40
0
 40
0
 40
0
 40
0
 40
1
 40
1
 40
1
 40
1
 10
167.670969
 20
158.443920
 30
0.0
 10
167.630894
 20
158.295704
 30
0.0
 10
167.589419
 20
158.147870
 30
0.0
 10
167.546551
 20
158.000437
 30
0.0
  0
LINE
  5
12d
100
AcDbEntity
  8
hour_wheel
 62
7
100
AcDbLine
 10
167.546551
 20
158.000437
 30
0.0
 11
127.413339
 21
182.157358
 31
0.0
  0
SPLINE
  5
12e
100
AcDbEntity
  8
hour_wheel
 62
7
100
AcDbSpline
 70
8
 71
3
 72
8
 73
4
 74
0
 40
0
 40
0
 40
0
 40
0
 40
1
 40
1
 40
1
 40
1
 10
127.413339
 20
182.157358
 30
0.0
 10
127.527381
 20
182.262150
 30
0.0
 10
127.642419
 20
182.365852
 30
0.0
 10
127.758438
 20
182.468452
 30
0.0
  0
LINE
  5
12f
100
AcDbEntity
  8
hour_wheel
 62
7
100
AcDbLine
 10
127.758438
 20
182.468452
 30
0.0
 11
127.758447
 21
182.468446
 31
0.0
  0
LINE
  5
130
100
AcDbEntity
  8
hour_wheel
 62
7
100
AcDbLine
 10
125.769563
 20
180.556209
 30
0.0
 11
166.831592
 21
155.838757
 31
0.0
  0
SPLINE
  5
131
100
AcDbEntity
  8
hour_wheel
 62
7
100
AcDbSpline
 70
8
 71
3
 72
8
 73
4
 74
0
 40
0
 40
0
 40
0
 40
0
 40
1
 40
1
 40
1
 40
1
 10
166.831592
 20
155.838757
 30
0.0
 10
166.779066
 20
155.697613
 30
0.0
 10
166.725232
 20
155.556958
 30
0.0
 10
166.670099
 20
155.416811
 30
0.0
  0
LINE
  5
132
100
AcDbEntity
  8
hour_wheel
 62
7
100
AcDbLine
 10
166.670099
 20
155.416811
 30
0.0
 11
125.503489
 21
180.198009
 31
0.0
  0
SPLINE
  5
133
100
AcDbEntity
  8
hour_wheel
 62
7
100
AcDbSpline
 70
8
 71
3
 72
8
 73
4
 74
0
 40
0
 40
0
 40
0
 40
0
 40
1
 40
1
 40
1
 40
1
 10
125.503489
 20
180.198009
 30
0.0
 10
125.591088
 20
180.318217
 30
0.0
 10
125.679786
 20
180.437620
 30
0.0
 10
125.769571
 20
180.556204
 30
0.0
  0
LINE
  5
134
100
AcDbEntity
  8
hour_wheel
 62
7
100
AcDbLine
 10
125.769571
 20
180.556204
 30
0.0
 11
125.769563
 21
180.556209
 31
0.0
  0
LINE
  5
135
100
AcDbEntity
  8
hour_wheel
 62
7
100
AcDbLine
 10
124.170442
 20
178.408567
 30
0.0
 11
124.170887
 21
178.408308
 31
0.0
  0
LINE
  5
136
100
AcDbEntity
  8
hour_wheel
 62
7
100
AcDbLine
 10
124.170887
 20
178.408308
 30
0.0
 11
165.748800
 21
153.380388
 31
0.0
  0
SPLINE
  5
137
100
AcDbEntity
  8
hour_wheel
 62
7
100
AcDbSpline
 70
8
 71
3
 72
8
 73
4
 74
0
 40
0
 40
0
 40
0
 40
0
 40
1
 40
1
 40
1
 40
1
 10
165.748800
 20
153.380388
 30
0.0
 10
165.678138
 20
153.250349
 30
0.0
 10
165.606292
 20
153.120957
 30
0.0
 10
165.533273
 20
152.992228
 30
0.0
  0
LINE
  5
138
100
AcDbEntity
  8
hour_wheel
 62
7
100
AcDbLine
 10
165.533273
 20
152.992228
 30
0.0
 11
123.904422
 21
178.051534
 31
0.0
  0
SPLINE
  5
139
100
AcDbEntity
  8
hour_wheel
 62
7
100
AcDbSpline
 70
8
 71
3
 72
8
 73
4
 74
0
 40
0
 40
0
 40
0
 40
0
 40
1
 40
1
 40
1
 40
1
 10
123.904422
 20
178.051534
 30
0.0
 10
123.991998
 20
178.171358
 30
0.0
 10
124.080667
 20
178.290379
 30
0.0
 10
124.170417
 20
178.408582
 30
0.0
  0
LINE
  5
13a
100
AcDbEntity
  8
hour_wheel
 62
7
100
AcDbLine
 10
124.170417
 20
178.408582
 30
0.0
 11
124.170442
 21
178.408567
 31
0.0
  0
LINE
  5
13b
100
AcDbEntity
  8
hour_wheel
 62
7
100
AcDbLine
 10
122.743201
 20
176.158678
 30
0.0
 11
164.340241
 21
151.118451
 31
0.0
  0
SPLINE
  5
13c
100
AcDbEntity
  8
hour_wheel
 62
7
100
AcDbSpline
 70
8
 71
3
 72
8
 73
4
 74
0
 40
0
 40
0
 40
0
 40
0
 40
1
 40
1
 40
1
 40
1
 10
164.340241
 20
151.118451
 30
0.0
 10
164.252359
 20
150.998404
 30
0.0
 10
164.163379
 20
150.879164
 30
0.0
 10
164.073314
 20
150.760747
 30
0.0
  0
LINE
  5
13d
100
AcDbEntity
  8
hour_wheel
 62
7
100
AcDbLine
 10
164.073314
 20
150.760747
 30
0.0
 11
122.552867
 21
175.755876
 31
0.0
  0
SPLINE
  5
13e
100
AcDbEntity
  8
hour_wheel
 62
7
100
AcDbSpline
 70
8
 71
3
 72
8
 73
4
 74
0
 40
0
 40
0
 40
0
 40
0
 40
1
 40
1
 40
1
 40
1
 10
122.552867
 20
175.755876
 30
0.0
 10
122.615100
 20
175.890710
 30
0.0
 10
122.678564
 20
176.024972
 30
0.0
 10
122.743252
 20
176.158647
 30
0.0
  0
LINE
  5
13f
100
AcDbEntity
  8
hour_wheel
 62
7
100
AcDbLine
 10
122.743252
 20
176.158647
 30
0.0
 11
122.743201
 21
176.158678
 31
0.0
  0
LINE
  5
140
100
AcDbEntity
  8
hour_wheel
 62
7
100
AcDbLine
 10
121.594354
 20
173.739882
 30
0.0
 11
162.741578
 21
148.970542
 31
0.0
  0
SPLINE
  5
141
100
AcDbEntity
  8
hour_wheel
 62
7
100
AcDbSpline
 70
8
 71
3
 72
8
 73
4
 74
0
 40
0
 40
0
 40
0
 40
0
 40
1
 40
1
 40
1
 40
1
 10
162.741578
 20
148.970542
 30
0.0
 10
162.653503
 20
148.850606
 30
0.0
 10
162.564332
 20
148.731478
 30
0.0
 10
162.474076
 20
148.613174
 30
0.0
  0
LINE
  5
142
100
AcDbEntity
  8
hour_wheel
 62
7
100
AcDbLine
 10
162.474076
 20
148.613174
 30
0.0
 11
121.401783
 21
173.336588
 31
0.0
  0
SPLINE
  5
143
100
AcDbEntity
  8
hour_wheel
 62
7
100
AcDbSpline
 70
8
 71
3
 72
8
 73
4
 74
0
 40
0
 40
0
 40
0
 40
0
 40
1
 40
1
 40
1
 40
1
 10
121.401783
 20
173.336588
 30
0.0
 10
121.464713
 20
173.471620
 30
0.0
 10
121.528880
 20
173.606072
 30
0.0
 10
121.594275
 20
173.739928
 30
0.0
  0
LINE
  5
144
100
AcDbEntity
  8
hour_wheel
 62
7
100
AcDbLine
 10
121.594275
 20
173.739928
 30
0.0
 11
121.594354
 21
173.739882
 31
0.0
  0
LINE
  5
145
100
AcDbEntity
  8
hour_wheel
 62
7
100
AcDbLine
 10
120.723962
 20
171.153331
 30
0.0
 11
160.862137
 21
146.990539
 31
0.0
  0
SPLINE
  5
146
100
AcDbEntity
  8
hour_wheel
 62
7
100
AcDbSpline
 70
8
 71
3
 72
8
 73
4
 74
0
 40
0
 40
0
 40
0
 40
0
 40
1
 40
1
 40
1
 40
1
 10
160.862137
 20
146.990539
 30
0.0
 10
160.748565
 20
146.886275
 30
0.0
 10
160.634008
 20
146.783092
 30
0.0
 10
160.518479
 20
146.681002
 30
0.0
  0
LINE
  5
147
100
AcDbEntity
  8
hour_wheel
 62
7
100
AcDbLine
 10
160.518479
 20
146.681002
 30
0.0
 11
120.609986
 21
170.703186
 31
0.0
  0
SPLINE
  5
148
100
AcDbEntity
  8
hour_wheel
 62
7
100
AcDbSpline
 70
8
 71
3
 72
8
 73
4
 74
0
 40
0
 40
0
 40
0
 40
0
 40
1
 40
1
 40
1
 40
1
 10
120.609986
 20
170.703186
 30
0.0
 10
120.646528
 20
170.853605
 30
0.0
 10
120.684501
 20
171.003672
 30
0.0
 10
120.723902
 20
171.153368
 30
0.0
  0
LINE
  5
149
100
AcDbEntity
  8
hour_wheel
 62
7
100
AcDbLine
 10
120.723902
 20
171.153368
 30
0.0
 11
120.723962
 21
171.153331
 31
0.0
  0
LINE
  5
14a
100
AcDbEntity
  8
hour_wheel
 62
7
100
AcDbLine
 10
120.043073
 20
168.453702
 30
0.0
 11
158.796091
 21
145.125520
 31
0.0
  0
SPLINE
  5
14b
100
AcDbEntity
  8
hour_wheel
 62
7
100
AcDbSpline
 70
8
 71
3
 72
8
 73
4
 74
0
 40
0
 40
0
 40
0
 40
0
 40
1
 40
1
 40
1
 40
1
 10
158.796091
 20
145.125520
 30
0.0
 10
158.673092
 20
145.026200
 30
0.0
 10
158.549131
 20
144.928080
 30
0.0
 10
158.424223
 20
144.831172
 30
0.0
  0
LINE
  5
14c
100
AcDbEntity
  8
hour_wheel
 62
7
100
AcDbLine
 10
158.424223
 20
144.831172
 30
0.0
 11
119.957712
 21
167.986931
 31
0.0
  0
SPLINE
  5
14d
100
AcDbEntity
  8
hour_wheel
 62
7
100
AcDbSpline
 70
8
 71
3
 72
8
 73
4
 74
0
 40
0
 40
0
 40
0
 40
0
 40
1
 40
1
 40
1
 40
1
 10
119.957712
 20
167.986931
 30
0.0
 10
119.984641
 20
168.142800
 30
0.0
 10
120.013087
 20
168.298404
 30
0.0
 10
120.043045
 20
168.453720
 30
0.0
  0
LINE
  5
14e
100
AcDbEntity
  8
hour_wheel
 62
7
100
AcDbLine
 10
120.043045
 20
168.453720
 30
0.0
 11
120.043073
 21
168.453702
 31
0.0
  0
LINE
  5
14f
100
AcDbEntity
  8
hour_wheel
 62
7
100
AcDbLine
 10
119.825341
 20
165.474234
 30
0.0
 11
156.265472
 21
143.539964
 31
0.0
  0
SPLINE
  5
150
100
AcDbEntity
  8
hour_wheel
 62
7
100
AcDbSpline
 70
8
 71
3
 72
8
 73
4
 74
0
 40
0
 40
0
 40
0
 40
0
 40
1
 40
1
 40
1
 40
1
 10
156.265472
 20
143.539964
 30
0.0
 10
156.122191
 20
143.452506
 30
0.0
 10
155.978010
 20
143.366530
 30
0.0
 10
155.832952
 20
143.282050
 30
0.0
  0
LINE
  5
151
100
AcDbEntity
  8
hour_wheel
 62
7
100
AcDbLine
 10
155.832952
 20
143.282050
 30
0.0
 11
119.799747
 21
164.970348
 31
0.0
  0
SPLINE
  5
152
100
AcDbEntity
  8
hour_wheel
 62
7
100
AcDbSpline
 70
8
 71
3
 72
8
 73
4
 74
0
 40
0
 40
0
 40
0
 40
0
 40
1
 40
1
 40
1
 40
1
 10
119.799747
 20
164.970348
 30
0.0
 10
119.806540
 20
165.138394
 30
0.0
 10
119.815071
 20
165.306364
 30
0.0
 10
119.825341
 20
165.474234
 30
0.0
  0
LINE
  5
153
100
AcDbEntity
  8
hour_wheel
 62
7
100
AcDbLine
 10
119.825341
 20
165.474234
 30
0.0
 11
119.825341
 21
165.474234
 31
0.0
  0
LINE
  5
154
100
AcDbEntity
  8
hour_wheel
 62
7
100
AcDbLine
 10
119.867374
 20
162.339072
 30
0.0
 11
153.474514
 21
142.108048
 31
0.0
  0
SPLINE
  5
155
100
AcDbEntity
  8
hour_wheel
 62
7
100
AcDbSpline
 70
8
 71
3
 72
8
 73
4
 74
0
 40
0
 40
0
 40
0
 40
0
 40
1
 40
1
 40
1
 40
1
 10
153.474514
 20
142.108048
 30
0.0
 10
153.295205
 20
142.042208
 30
0.0
 10
153.115127
 20
141.978478
 30
0.0
 10
152.934320
 20
141.916870
 30
0.0
  0
LINE
  5
156
100
AcDbEntity
  8
hour_wheel
 62
7
100
AcDbLine
 10
152.934320
 20
141.916870
 30
0.0
 11
119.949769
 21
161.770058
 31
0.0
  0
SPLINE
  5
157
100
AcDbEntity
  8
hour_wheel
 62
7
100
AcDbSpline
 70
8
 71
3
 72
8
 73
4
 74
0
 40
0
 40
0
 40
0
 40
0
 40
1
 40
1
 40
1
 40
1
 10
119.949769
 20
161.770058
 30
0.0
 10
119.920068
 20
161.959399
 30
0.0
 10
119.892601
 20
162.149083
 30
0.0
 10
119.867374
 20
162.339072
 30
0.0
  0
LINE
  5
158
100
AcDbEntity
  8
hour_wheel
 62
7
100
AcDbLine
 10
119.867374
 20
162.339072
 30
0.0
 11
119.867374
 21
162.339072
 31
0.0
  0
LINE
  5
159
100
AcDbEntity
  8
hour_wheel
 62
7
100
AcDbLine
 10
120.365937
 20
158.929117
 30
0.0
 11
150.226956
 21
140.953948
 31
0.0
  0
SPLINE
  5
15a
100
AcDbEntity
  8
hour_wheel
 62
7
100
AcDbSpline
 70
8
 71
3
 72
8
 73
4
 74
0
 40
0
 40
0
 40
0
 40
0
 40
1
 40
1
 40
1
 40
1
 10
150.226956
 20
140.953948
 30
0.0
 10
150.022956
 20
140.901460
 30
0.0
 10
149.818284
 20
140.851618
 30
0.0
 10
149.612993
 20
140.804436
 30
0.0
  0
LINE
  5
15b
100
AcDbEntity
  8
hour_wheel
 62
7
100
AcDbLine
 10
149.612993
 20
140.804436
 30
0.0
 11
120.521987
 21
158.316118
 31
0.0
  0
SPLINE
  5
15c
100
AcDbEntity
  8
hour_wheel
 62
7
100
AcDbSpline
 70
8
 71
3
 72
8
 73
4
 74
0
 40
0
 40
0
 40
0
 40
0
 40
1
 40
1
 40
1
 40
1
 10
120.521987
 20
158.316118
 30
0.0
 10
120.467321
 20
158.519767
 30
0.0
 10
120.415300
 20
158.724118
 30
0.0
 10
120.365937
 20
158.929117
 30
0.0
  0
LINE
  5
15d
100
AcDbEntity
  8
hour_wheel
 62
7
100
AcDbLine
 10
120.365937
 20
158.929117
 30
0.0
 11
120.365937
 21
158.929117
 31
0.0
  0
LINE
  5
15e
100
AcDbEntity
  8
hour_wheel
 62
7
100
AcDbLine
 10
121.693999
 20
155.018129
 30
0.0
 11
146.150660
 21
140.298055
 31
0.0
  0
SPLINE
  5
15f
100
AcDbEntity
  8
hour_wheel
 62
7
100
AcDbSpline
 70
8
 71
3
 72
8
 73
4
 74
0
 40
0
 40
0
 40
0
 40
0
 40
1
 40
1
 40
1
 40
1
 10
146.150660
 20
140.298055
 30
0.0
 10
145.920018
 20
140.260683
 30
0.0
 10
145.688851
 20
140.226629
 30
0.0
 10
145.457230
 20
140.195903
 30
0.0
  0
LINE
  5
160
100
AcDbEntity
  8
hour_wheel
 62
7
100
AcDbLine
 10
145.457230
 20
140.195903
 30
0.0
 11
121.929771
 21
154.358213
 31
0.0
  0
SPLINE
  5
161
100
AcDbEntity
  8
hour_wheel
 62
7
100
AcDbSpline
 70
8
 71
3
 72
8
 73
4
 74
0
 40
0
 40
0
 40
0
 40
0
 40
1
 40
1
 40
1
 40
1
 10
121.929771
 20
154.358213
 30
0.0
 10
121.848022
 20
154.577044
 30
0.0
 10
121.769423
 20
154.797039
 30
0.0
 10
121.693999
 20
155.018129
 30
0.0
  0
LINE
  5
162
100
AcDbEntity
  8
hour_wheel
 62
7
100
AcDbLine
 10
121.693999
 20
155.018129
 30
0.0
 11
121.693999
 21
155.018129
 31
0.0
  0
LINE
  5
163
100
AcDbEntity
  8
hour_wheel
 62
7
100
AcDbLine
 10
124.256359
 20
150.366746
 30
0.0
 11
140.840597
 21
140.383440
 31
0.0
  0
SPLINE
  5
164
100
AcDbEntity
  8
hour_wheel
 62
7
100
AcDbSpline
 70
8
 71
3
 72
8
 73
4
 74
0
 40
0
 40
0
 40
0
 40
0
 40
1
 40
1
 40
1
 40
1
 10
140.840597
 20
140.383440
 30
0.0
 10
140.419738
 20
140.451820
 30
0.0
 10
140.000744
 20
140.531230
 30
0.0
 10
139.584051
 20
140.621589
 30
0.0
  0
LINE
  5
165
100
AcDbEntity
  8
hour_wheel
 62
7
100
AcDbLine
 10
139.584051
 20
140.621589
 30
0.0
 11
125.053262
 21
149.368283
 31
0.0
  0
SPLINE
  5
166
100
AcDbEntity
  8
hour_wheel
 62
7
100
AcDbSpline
 70
8
 71
3
 72
8
 73
4
 74
0
 40
0
 40
0
 40
0
 40
0
 40
1
 40
1
 40
1
 40
1
 10
125.053262
 20
149.368283
 30
0.0
 10
124.778950
 20
149.694085
 30
0.0
 10
124.513225
 20
150.027020
 30
0.0
 10
124.256359
 20
150.366746
 30
0.0
  0
LINE
  5
167
100
AcDbEntity
  8
hour_wheel
 62
7
100
AcDbLine
 10
124.256359
 20
150.366746
 30
0.0
 11
124.256359
 21
150.366746
 31
0.0
  0
ENDSEC
  0
SECTION
  2
OBJECTS
  0
DICTIONARY
  5
C
330
0
100
AcDbDictionary
  3
ACAD_GROUP
350
D
  3
ACAD_MLINESTYLE
350
17
  0
DICTIONARY
  5
D
330
C
100
AcDbDictionary
  0
DICTIONARY
  5
1A
330
C
100
AcDbDictionary
  0
DICTIONARY
  5
17
330
C
100
AcDbDictionary
  3
STANDARD
350
18
  0
DICTIONARY
  5
19
330
C
100
AcDbDictionary
  0
ENDSEC
  0
EOF
