<?xml version="1.0" encoding="UTF-8" standalone="no"?>
<!-- Created with Inkscape (http://www.inkscape.org/) -->

<svg
   width="163mm"
   height="163mm"
   viewBox="0 0 163 163"
   version="1.1"
   id="svg2083"
   inkscape:version="1.2.1 (9c6d41e410, 2022-07-14)"
   sodipodi:docname="moire clock - tom wheel printed.svg"
   inkscape:export-filename="moire clock - tom wheel printed.pdf"
   inkscape:export-xdpi="300"
   inkscape:export-ydpi="300"
   xmlns:inkscape="http://www.inkscape.org/namespaces/inkscape"
   xmlns:sodipodi="http://sodipodi.sourceforge.net/DTD/sodipodi-0.dtd"
   xmlns="http://www.w3.org/2000/svg"
   xmlns:svg="http://www.w3.org/2000/svg">
  <sodipodi:namedview
     id="namedview2085"
     pagecolor="#ffffff"
     bordercolor="#000000"
     borderopacity="0.25"
     inkscape:showpageshadow="2"
     inkscape:pageopacity="0.0"
     inkscape:pagecheckerboard="0"
     inkscape:deskcolor="#d1d1d1"
     inkscape:document-units="mm"
     showgrid="false"
     inkscape:zoom="1"
     inkscape:cx="224.5"
     inkscape:cy="313"
     inkscape:window-width="2560"
     inkscape:window-height="1494"
     inkscape:window-x="-11"
     inkscape:window-y="-11"
     inkscape:window-maximized="1"
     inkscape:current-layer="layer3" />
  <defs
     id="defs2080">
    <inkscape:path-effect
       effect="copy_rotate"
       starting_point="95.484834,36.4134"
       origin="105.93768,135.86559"
       id="path-effect1241"
       is_visible="true"
       lpeversion="1.2"
       lpesatellites=""
       method="normal"
       num_copies="30"
       starting_angle="96"
       rotation_angle="6"
       gap="-0.01"
       copies_to_360="false"
       mirror_copies="false"
       split_items="false"
       link_styles="false" />
    <inkscape:path-effect
       effect="copy_rotate"
       starting_point="107.56143,135.86559"
       origin="105.93768,135.86559"
       id="path-effect1229"
       is_visible="true"
       lpeversion="1.2"
       lpesatellites=""
       method="normal"
       num_copies="30"
       starting_angle="96"
       rotation_angle="6"
       gap="-0.01"
       copies_to_360="false"
       mirror_copies="false"
       split_items="false"
       link_styles="false" />
    <inkscape:path-effect
       effect="copy_rotate"
       starting_point="107.56143,135.86559"
       origin="105.93768,135.86559"
       id="path-effect1223"
       is_visible="true"
       lpeversion="1.2"
       lpesatellites=""
       method="normal"
       num_copies="30"
       starting_angle="96"
       rotation_angle="6"
       gap="-0.01"
       copies_to_360="false"
       mirror_copies="false"
       split_items="false"
       link_styles="false" />
    <inkscape:path-effect
       effect="copy_rotate"
       starting_point="107.56143,135.86559"
       origin="105.93768,135.86559"
       id="path-effect1217"
       is_visible="true"
       lpeversion="1.2"
       lpesatellites=""
       method="normal"
       num_copies="30"
       starting_angle="96"
       rotation_angle="6"
       gap="-0.01"
       copies_to_360="false"
       mirror_copies="false"
       split_items="false"
       link_styles="false" />
    <inkscape:path-effect
       effect="copy_rotate"
       starting_point="107.56143,135.86559"
       origin="105.93768,135.86559"
       id="path-effect1211"
       is_visible="true"
       lpeversion="1.2"
       lpesatellites=""
       method="normal"
       num_copies="30"
       starting_angle="96"
       rotation_angle="6"
       gap="-0.01"
       copies_to_360="false"
       mirror_copies="false"
       split_items="false"
       link_styles="false" />
    <inkscape:path-effect
       effect="copy_rotate"
       starting_point="107.56143,135.86559"
       origin="105.93768,135.86559"
       id="path-effect1205"
       is_visible="true"
       lpeversion="1.2"
       lpesatellites=""
       method="normal"
       num_copies="30"
       starting_angle="96"
       rotation_angle="6"
       gap="-0.01"
       copies_to_360="false"
       mirror_copies="false"
       split_items="false"
       link_styles="false" />
    <inkscape:path-effect
       effect="copy_rotate"
       starting_point="107.56143,135.86559"
       origin="105.93768,135.86559"
       id="path-effect1199"
       is_visible="false"
       lpeversion="1.2"
       lpesatellites=""
       method="normal"
       num_copies="30"
       starting_angle="0"
       rotation_angle="6"
       gap="-0.01"
       copies_to_360="false"
       mirror_copies="false"
       split_items="false"
       link_styles="false" />
    <inkscape:path-effect
       effect="copy_rotate"
       starting_point="107.56143,135.86559"
       origin="105.93768,135.86559"
       id="path-effect1193"
       is_visible="true"
       lpeversion="1.2"
       lpesatellites=""
       method="normal"
       num_copies="30"
       starting_angle="96"
       rotation_angle="6"
       gap="-0.01"
       copies_to_360="false"
       mirror_copies="false"
       split_items="false"
       link_styles="false" />
    <inkscape:path-effect
       effect="copy_rotate"
       starting_point="109.39309,148.30427"
       origin="105,148.30427"
       id="path-effect717"
       is_visible="true"
       lpeversion="1.2"
       lpesatellites=""
       method="normal"
       num_copies="30"
       starting_angle="-85.2"
       rotation_angle="6"
       gap="-0.01"
       copies_to_360="false"
       mirror_copies="false"
       split_items="false"
       link_styles="false" />
    <inkscape:path-effect
       effect="copy_rotate"
       starting_point="109.39309,148.30427"
       origin="105,148.30427"
       id="path-effect710"
       is_visible="true"
       lpeversion="1.2"
       lpesatellites=""
       method="normal"
       num_copies="30"
       starting_angle="-85.2"
       rotation_angle="6"
       gap="-0.01"
       copies_to_360="false"
       mirror_copies="false"
       split_items="false"
       link_styles="false" />
    <inkscape:path-effect
       effect="copy_rotate"
       starting_point="109.39309,148.30427"
       origin="105,148.30427"
       id="path-effect703"
       is_visible="true"
       lpeversion="1.2"
       lpesatellites=""
       method="normal"
       num_copies="30"
       starting_angle="-85.2"
       rotation_angle="6"
       gap="-0.01"
       copies_to_360="false"
       mirror_copies="false"
       split_items="false"
       link_styles="false" />
    <inkscape:path-effect
       effect="copy_rotate"
       starting_point="109.39309,148.30427"
       origin="105,148.30427"
       id="path-effect696"
       is_visible="true"
       lpeversion="1.2"
       lpesatellites=""
       method="normal"
       num_copies="30"
       starting_angle="-85.2"
       rotation_angle="6"
       gap="-0.01"
       copies_to_360="false"
       mirror_copies="false"
       split_items="false"
       link_styles="false" />
    <inkscape:path-effect
       effect="copy_rotate"
       starting_point="109.39309,148.30427"
       origin="105,148.30427"
       id="path-effect689"
       is_visible="true"
       lpeversion="1.2"
       lpesatellites=""
       method="normal"
       num_copies="30"
       starting_angle="-85.2"
       rotation_angle="6"
       gap="-0.01"
       copies_to_360="false"
       mirror_copies="false"
       split_items="false"
       link_styles="false" />
    <inkscape:path-effect
       effect="copy_rotate"
       starting_point="109.39309,148.30427"
       origin="105,148.30427"
       id="path-effect615"
       is_visible="true"
       lpeversion="1.2"
       lpesatellites=""
       method="normal"
       num_copies="60"
       starting_angle="-85.2"
       rotation_angle="6"
       gap="-0.01"
       copies_to_360="true"
       mirror_copies="false"
       split_items="false"
       link_styles="false" />
    <inkscape:path-effect
       effect="copy_rotate"
       starting_point="109.39309,148.30427"
       origin="105,148.30427"
       id="path-effect609"
       is_visible="true"
       lpeversion="1.2"
       lpesatellites=""
       method="normal"
       num_copies="60"
       starting_angle="-85.2"
       rotation_angle="6"
       gap="-0.01"
       copies_to_360="true"
       mirror_copies="false"
       split_items="false"
       link_styles="false" />
    <inkscape:path-effect
       effect="copy_rotate"
       starting_point="109.39309,148.30427"
       origin="105,148.30427"
       id="path-effect603"
       is_visible="true"
       lpeversion="1.2"
       lpesatellites=""
       method="normal"
       num_copies="60"
       starting_angle="-85.2"
       rotation_angle="6"
       gap="-0.01"
       copies_to_360="true"
       mirror_copies="false"
       split_items="false"
       link_styles="false" />
    <inkscape:path-effect
       effect="copy_rotate"
       starting_point="109.39309,148.30427"
       origin="105,148.30427"
       id="path-effect597"
       is_visible="true"
       lpeversion="1.2"
       lpesatellites=""
       method="normal"
       num_copies="60"
       starting_angle="-85.2"
       rotation_angle="6"
       gap="-0.01"
       copies_to_360="true"
       mirror_copies="false"
       split_items="false"
       link_styles="false" />
    <inkscape:path-effect
       effect="copy_rotate"
       starting_point="109.39309,148.30427"
       origin="105,148.30427"
       id="path-effect587"
       is_visible="true"
       lpeversion="1.2"
       lpesatellites=""
       method="normal"
       num_copies="60"
       starting_angle="-85.2"
       rotation_angle="12"
       gap="-0.01"
       copies_to_360="true"
       mirror_copies="false"
       split_items="false"
       link_styles="false" />
    <inkscape:path-effect
       effect="copy_rotate"
       starting_point="109.39309,148.30427"
       origin="105,148.30427"
       id="path-effect581"
       is_visible="true"
       lpeversion="1.2"
       lpesatellites=""
       method="normal"
       num_copies="30"
       starting_angle="-85.2"
       rotation_angle="6"
       gap="-0.01"
       copies_to_360="false"
       mirror_copies="false"
       split_items="false"
       link_styles="false" />
    <inkscape:path-effect
       effect="copy_rotate"
       starting_point="109.39309,148.30427"
       origin="105,148.30427"
       id="path-effect575"
       is_visible="true"
       lpeversion="1.2"
       lpesatellites=""
       method="normal"
       num_copies="30"
       starting_angle="-85.2"
       rotation_angle="6"
       gap="-0.01"
       copies_to_360="false"
       mirror_copies="false"
       split_items="false"
       link_styles="false" />
    <inkscape:path-effect
       effect="copy_rotate"
       starting_point="109.39309,148.30427"
       origin="105,148.30427"
       id="path-effect569"
       is_visible="true"
       lpeversion="1.2"
       lpesatellites=""
       method="normal"
       num_copies="30"
       starting_angle="-85.2"
       rotation_angle="6"
       gap="-0.01"
       copies_to_360="false"
       mirror_copies="false"
       split_items="false"
       link_styles="false" />
    <inkscape:path-effect
       effect="copy_rotate"
       starting_point="109.39309,148.30427"
       origin="105,148.30427"
       id="path-effect562"
       is_visible="true"
       lpeversion="1.2"
       lpesatellites=""
       method="normal"
       num_copies="30"
       starting_angle="-85.2"
       rotation_angle="6"
       gap="-0.01"
       copies_to_360="false"
       mirror_copies="false"
       split_items="false"
       link_styles="false" />
    <inkscape:path-effect
       effect="copy_rotate"
       starting_point="109.39309,148.30427"
       origin="105,148.30427"
       id="path-effect1284"
       is_visible="true"
       lpeversion="1.2"
       lpesatellites=""
       method="normal"
       num_copies="30"
       starting_angle="-85.2"
       rotation_angle="6"
       gap="-0.01"
       copies_to_360="false"
       mirror_copies="false"
       split_items="false"
       link_styles="false" />
    <inkscape:path-effect
       effect="copy_rotate"
       starting_point="109.94069,148.30428"
       origin="105,148.30428"
       id="path-effect2022"
       is_visible="true"
       lpeversion="1.2"
       lpesatellites=""
       method="normal"
       num_copies="60"
       starting_angle="0"
       rotation_angle="6"
       gap="-0.01"
       copies_to_360="true"
       mirror_copies="false"
       split_items="false"
       link_styles="false" />
    <inkscape:path-effect
       effect="copy_rotate"
       starting_point="109.94069,148.30428"
       origin="105,148.30428"
       id="path-effect2015"
       is_visible="true"
       lpeversion="1.2"
       lpesatellites=""
       method="normal"
       num_copies="60"
       starting_angle="0"
       rotation_angle="6"
       gap="-0.01"
       copies_to_360="true"
       mirror_copies="false"
       split_items="false"
       link_styles="false" />
    <inkscape:path-effect
       effect="copy_rotate"
       starting_point="109.94069,148.30428"
       origin="105,148.30428"
       id="path-effect2008"
       is_visible="true"
       lpeversion="1.2"
       lpesatellites=""
       method="normal"
       num_copies="60"
       starting_angle="0"
       rotation_angle="6"
       gap="-0.01"
       copies_to_360="true"
       mirror_copies="false"
       split_items="false"
       link_styles="false" />
    <inkscape:path-effect
       effect="copy_rotate"
       starting_point="109.94069,148.30428"
       origin="105,148.30428"
       id="path-effect2001"
       is_visible="true"
       lpeversion="1.2"
       lpesatellites=""
       method="normal"
       num_copies="60"
       starting_angle="0"
       rotation_angle="6"
       gap="-0.01"
       copies_to_360="true"
       mirror_copies="false"
       split_items="false"
       link_styles="false" />
    <inkscape:path-effect
       effect="copy_rotate"
       starting_point="109.94069,148.30428"
       origin="105,148.30428"
       id="path-effect1994"
       is_visible="true"
       lpeversion="1.2"
       lpesatellites=""
       method="normal"
       num_copies="60"
       starting_angle="0"
       rotation_angle="6"
       gap="-0.01"
       copies_to_360="true"
       mirror_copies="false"
       split_items="false"
       link_styles="false" />
    <inkscape:path-effect
       effect="copy_rotate"
       starting_point="109.94069,148.30428"
       origin="105,148.30428"
       id="path-effect1987"
       is_visible="true"
       lpeversion="1.2"
       lpesatellites=""
       method="normal"
       num_copies="60"
       starting_angle="0"
       rotation_angle="6"
       gap="-0.01"
       copies_to_360="true"
       mirror_copies="false"
       split_items="false"
       link_styles="false" />
    <inkscape:path-effect
       effect="copy_rotate"
       starting_point="109.94069,148.30428"
       origin="105,148.30428"
       id="path-effect1980"
       is_visible="true"
       lpeversion="1.2"
       lpesatellites=""
       method="normal"
       num_copies="60"
       starting_angle="0"
       rotation_angle="6"
       gap="-0.01"
       copies_to_360="true"
       mirror_copies="false"
       split_items="false"
       link_styles="false" />
    <inkscape:path-effect
       effect="copy_rotate"
       starting_point="109.94069,148.30428"
       origin="105,148.30428"
       id="path-effect1973"
       is_visible="true"
       lpeversion="1.2"
       lpesatellites=""
       method="normal"
       num_copies="60"
       starting_angle="0"
       rotation_angle="6"
       gap="-0.01"
       copies_to_360="true"
       mirror_copies="false"
       split_items="false"
       link_styles="false" />
    <inkscape:path-effect
       effect="copy_rotate"
       starting_point="109.94069,148.30428"
       origin="105,148.30428"
       id="path-effect1925"
       is_visible="true"
       lpeversion="1.2"
       lpesatellites=""
       method="normal"
       num_copies="60"
       starting_angle="0"
       rotation_angle="6"
       gap="-0.01"
       copies_to_360="true"
       mirror_copies="false"
       split_items="false"
       link_styles="false" />
    <inkscape:path-effect
       effect="copy_rotate"
       starting_point="109.94069,148.30428"
       origin="105,148.30428"
       id="path-effect1918"
       is_visible="true"
       lpeversion="1.2"
       lpesatellites=""
       method="normal"
       num_copies="60"
       starting_angle="0"
       rotation_angle="6"
       gap="-0.01"
       copies_to_360="true"
       mirror_copies="false"
       split_items="false"
       link_styles="false" />
    <inkscape:path-effect
       effect="copy_rotate"
       starting_point="109.94069,148.30428"
       origin="105,148.30428"
       id="path-effect1822"
       is_visible="true"
       lpeversion="1.2"
       lpesatellites=""
       method="normal"
       num_copies="60"
       starting_angle="0"
       rotation_angle="6"
       gap="-0.01"
       copies_to_360="true"
       mirror_copies="false"
       split_items="false"
       link_styles="false" />
    <inkscape:path-effect
       effect="copy_rotate"
       starting_point="109.94069,148.30428"
       origin="105,148.30428"
       id="path-effect1546"
       is_visible="true"
       lpeversion="1.2"
       lpesatellites=""
       method="normal"
       num_copies="60"
       starting_angle="0"
       rotation_angle="60"
       gap="-0.01"
       copies_to_360="true"
       mirror_copies="false"
       split_items="false"
       link_styles="false" />
    <inkscape:path-effect
       effect="copy_rotate"
       starting_point="107.47309,148.30428"
       origin="105,148.30428"
       id="path-effect1542"
       is_visible="true"
       lpeversion="1.2"
       lpesatellites=""
       method="normal"
       num_copies="120"
       starting_angle="0"
       rotation_angle="360"
       gap="-0.01"
       copies_to_360="true"
       mirror_copies="false"
       split_items="false"
       link_styles="false" />
    <inkscape:path-effect
       effect="copy_rotate"
       starting_point="108.49799,148.30428"
       origin="105,148.30428"
       id="path-effect998"
       is_visible="true"
       lpeversion="1.2"
       lpesatellites=""
       method="normal"
       num_copies="60"
       starting_angle="0"
       rotation_angle="60"
       gap="-0.01"
       copies_to_360="true"
       mirror_copies="false"
       split_items="false"
       link_styles="false" />
    <inkscape:path-effect
       effect="copy_rotate"
       starting_point="114.6624,121.32478"
       origin="111.67686,121.32478"
       id="path-effect996"
       is_visible="true"
       lpeversion="1.2"
       lpesatellites=""
       method="normal"
       num_copies="6"
       starting_angle="0"
       rotation_angle="60"
       gap="-0.01"
       copies_to_360="true"
       mirror_copies="false"
       split_items="false"
       link_styles="false" />
    <inkscape:path-effect
       effect="copy_rotate"
       starting_point="106.64906,148.30428"
       origin="105,148.30428"
       id="path-effect993"
       is_visible="false"
       lpeversion="1.2"
       lpesatellites=""
       method="normal"
       num_copies="60"
       starting_angle="0"
       rotation_angle="6"
       gap="-0.01"
       copies_to_360="true"
       mirror_copies="false"
       split_items="false"
       link_styles="false" />
    <inkscape:path-effect
       effect="bend_path"
       id="path-effect1196"
       is_visible="true"
       lpeversion="1"
       bendpath="#path989"
       prop_scale="1.4"
       scale_y_rel="false"
       vertical="false"
       hide_knot="false" />
    <inkscape:path-effect
       effect="bend_path"
       id="path-effect1054"
       is_visible="true"
       lpeversion="1"
       bendpath="M 0,0 H 1"
       prop_scale="1.4"
       scale_y_rel="false"
       vertical="false"
       hide_knot="false" />
    <inkscape:path-effect
       effect="copy_rotate"
       starting_point="205,148.30428"
       origin="105,148.30428"
       id="path-effect4657"
       is_visible="true"
       lpeversion="1.2"
       lpesatellites=""
       method="normal"
       num_copies="59"
       starting_angle="0"
       rotation_angle="6.1016949"
       gap="-0.01"
       copies_to_360="true"
       mirror_copies="false"
       split_items="false"
       link_styles="false" />
    <inkscape:path-effect
       effect="copy_rotate"
       starting_point="107.70906,148.30428"
       origin="105,148.30428"
       id="path-effect4651"
       is_visible="false"
       lpeversion="1.2"
       lpesatellites=""
       method="normal"
       num_copies="60"
       starting_angle="0"
       rotation_angle="60"
       gap="-0.01"
       copies_to_360="true"
       mirror_copies="false"
       split_items="false"
       link_styles="false" />
    <clipPath
       clipPathUnits="userSpaceOnUse"
       id="clipPath1221">
      <path
         style="display:inline;fill:#000000;fill-opacity:1;stroke:#000000;stroke-width:0.1"
         d="M 105,148.30427 110.41811,43.444159 105,43.304274 M 105,148.30427 99.241468,43.462303 93.839183,43.89912 M 105,148.30427 88.130072,44.668348 82.804823,45.676918 M 105,148.30427 77.209819,47.04863 72.021943,48.617525 M 105,148.30427 66.60444,50.576178 61.612718,52.687623 m 43.387272,95.616647 -48.565892,-93.093244 -4.73901,2.63007 M 104.99999,148.30427 46.814027,60.900657 42.381424,64.019553 M 104.99999,148.30427 37.853226,67.580605 33.777253,71.15299 m 71.222737,77.15128 -75.346765,-73.129084 -3.67316,3.985395 M 104.99999,148.30427 22.306933,83.598348 19.078204,87.951598 M 104.99999,148.30428 15.897587,92.754654 13.149871,97.426436 M 104.99999,148.30428 10.497807,102.54036 8.2622368,107.47774 M 104.99999,148.30428 6.1687739,112.84459 4.4706802,117.99162 M 104.99999,148.30428 2.9595385,123.55059 1.818161,128.84896 M 104.99999,148.30428 0.90646222,134.53706 0.33473328,139.92674 M 104.99999,148.30428 0.03280735,145.67952 l 0.0043975,5.41991 M 104.99999,148.30428 0.3484727,156.85172 0.9289468,162.24046 M 104.99999,148.30428 1.8498817,167.92707 2.9998554,173.22358 M 104.99999,148.30428 4.5200227,178.78009 l 1.7064437,5.14427 m 98.7735236,-35.62008 -96.671348,40.98353 2.243579,4.93374 m 94.427769,-45.91726 -91.767404,51.02687 2.755294,4.66732 m 89.01211,-55.69419 -85.823698,60.49207 3.23579,4.34801 m 82.587908,-64.84008 -78.907575,69.27187 3.679623,3.97943 m 75.227952,-73.2513 -71.097398,77.2668 4.081765,3.56576 m 67.015633,-80.83256 -62.481658,84.38626 4.437658,3.1117 M 105,148.30429 l -53.157987,90.54959 4.743272,2.62237 M 105,148.30429 l -43.232004,95.68695 4.995141,2.10334 M 105,148.30429 l -32.816185,99.74015 5.190414,1.56047 M 105,148.30429 82.971454,250.96754 l 5.326878,0.99992 M 105,148.30429 94.008685,252.72742 l 5.402986,0.42805 M 105,148.30429 l 0.17045,104.99986 5.41788,-0.14868 M 105,148.30429 l 11.33029,104.38689 5.37138,-0.72372 M 105,148.30429 l 22.36175,102.59118 5.26402,-1.29056 M 105,148.30429 l 33.13984,99.63308 5.09702,-1.84279 M 105,148.30429 l 43.54244,95.54609 4.87228,-2.37413 m -48.41471,-93.17196 53.45169,90.37652 4.59231,-2.87856 m -58.044,-87.49796 62.75531,84.18295 4.26032,-3.35039 m -67.01563,-80.83256 71.34789,77.03556 3.88006,-3.78426 m -75.22795,-73.2513 79.13207,69.01532 3.45584,-4.17524 m -82.58791,-64.84008 86.01965,60.21311 2.99246,-4.51892 m -89.01211,-55.6942 91.93259,50.72867 2.49518,-4.8114 m -94.42777,-45.91727 96.8039,40.66945 1.96962,-5.04937 m -98.77352,-35.62008 100.57838,30.14942 1.42175,-5.23012 m -102.00013,-24.9193 103.21327,19.28779 0.85777,-5.35161 m -104.07104,-13.93618 104.67872,8.20762 0.28407,-5.41247 m -104.96279,-2.79515 104.95811,-2.96554 -0.29285,-5.412 m -104.66526,8.37754 104.04828,-14.10511 -0.86645,-5.35021 m -103.18183,19.45532 101.95955,-25.08485 -1.43024,-5.22781 m -100.52931,30.31266 98.71557,-35.78038 -1.97782,-5.04616 m -96.73775,40.82654 94.3531,-46.0705 -2.50298,-4.807344 m -91.85012,50.877834 88.92158,-55.838613 -2.99979,-4.514059 m -85.92179,60.352672 82.48254,-64.974062 -3.46261,-4.169627 m -79.01993,69.143689 75.10894,-73.373328 -3.8862,-3.777952 m -71.22274,77.15128 66.88432,-80.941246 -4.26575,-3.343471 m -62.61857,84.284717 57.90188,-87.592066 -4.59698,-2.871108 M 105,148.30427 153.2634,55.053837 148.38728,52.687623 M 105,148.30427 l 38.07806,-97.852236 -5.1,-1.834509 M 105,148.30427 132.46129,46.958937 127.19518,45.676918 M 105,148.30427 121.53336,44.614122 116.16082,43.89912"
         id="path1223"
         transform="rotate(-32.629983,104.99775,148.30491)"
         inkscape:label="base layer"
         inkscape:original-d="M 105,148.30427 110.41811,43.444159 105,43.304274"
         inkscape:path-effect="#path-effect4657"
         class="UnoptimicedTransforms" />
    </clipPath>
  </defs>
  <g
     inkscape:label="Ebene 1"
     inkscape:groupmode="layer"
     id="layer1"
     transform="translate(-3.0609,-2.907623)"
     style="display:inline"
     inkscape:transform-center-x="0.54248825"
     inkscape:transform-center-y="-0.4471856">
    <path
       id="circle103258"
       style="display:inline;fill:#000000;fill-opacity:1;stroke:none;stroke-width:0.180744;stroke-dasharray:none;stroke-opacity:1"
       inkscape:label="reveal layer"
       d="M 78.79604 2.7777858 A 81.408768 81.408768 0 0 0 -2.6127541 84.18654 A 81.408768 81.408768 0 0 0 -1.7317031 96.067429 A 81.408768 81.408768 0 0 0 -1.7081832 96.278645 A 81.408768 81.408768 0 0 0 15.035565 134.79143 A 81.408768 81.408768 0 0 0 18.982318 139.39908 A 81.408768 81.408768 0 0 0 23.260828 143.69971 A 81.408768 81.408768 0 0 0 27.772151 147.60527 A 81.408768 81.408768 0 0 0 27.847556 147.67032 A 81.40963 81.40963 0 0 0 27.851086 147.67302 A 81.408768 81.408768 0 0 0 30.104449 149.35919 A 81.40963 81.40963 0 0 0 30.107479 149.36136 A 81.408768 81.408768 0 0 0 32.101652 150.83316 A 81.408768 81.408768 0 0 0 78.796 165.59533 A 81.408768 81.408768 0 0 0 160.20479 84.18658 A 81.408768 81.408768 0 0 0 127.30639 18.880229 A 81.40963 81.40963 0 0 0 127.29834 18.873757 A 81.408768 81.408768 0 0 0 127.28621 18.865084 A 81.408768 81.408768 0 0 0 122.62798 15.649581 A 81.408768 81.408768 0 0 0 122.41271 15.514234 A 81.408768 81.408768 0 0 0 117.70741 12.736664 A 81.408768 81.408768 0 0 0 117.29834 12.520452 A 81.408768 81.408768 0 0 0 112.57234 10.165659 A 81.408768 81.408768 0 0 0 111.96632 9.9010526 A 81.408768 81.408768 0 0 0 107.24498 7.9528126 A 81.408768 81.408768 0 0 0 106.4471 7.6735874 A 81.408768 81.408768 0 0 0 101.76135 6.1184464 A 81.408768 81.408768 0 0 0 100.73788 5.844169 A 81.408768 81.408768 0 0 0 96.140257 4.6730062 A 81.408768 81.408768 0 0 0 94.877769 4.4342554 A 81.408768 81.408768 0 0 0 90.417468 3.6290502 A 81.408768 81.408768 0 0 0 88.709823 3.4365877 A 81.408768 81.408768 0 0 0 84.627833 2.9960038 A 81.408768 81.408768 0 0 0 78.79604 2.7777858 z M 81.823457 10.356482 A 73.951065 73.951065 0 0 1 152.5833 87.366661 L 93.684617 84.87521 A 14.999861 14.999861 0 0 0 79.332022 69.254653 A 14.999861 14.999861 0 0 0 63.711964 83.607781 A 14.999861 14.999861 0 0 0 63.710552 83.86936 L 4.8093761 82.40675 A 73.951065 73.951065 0 0 1 4.8132774 81.11633 A 73.951065 73.951065 0 0 1 81.823457 10.356482 z M 63.738143 85.17685 A 14.999861 14.999861 0 0 0 63.75639 85.438045 L 5.039126 90.139546 A 73.951065 73.951065 0 0 1 4.9420742 88.853026 L 63.738143 85.17685 z M 93.566543 86.178399 L 152.00732 93.791566 A 73.951065 73.951065 0 0 1 151.80182 95.064977 L 93.526463 86.436631 A 14.999861 14.999861 0 0 0 93.566543 86.178399 z M 63.913546 86.736377 A 14.999861 14.999861 0 0 0 63.955155 86.994726 L 6.0262575 97.812597 A 73.951065 73.951065 0 0 1 5.8279963 96.537723 L 63.913546 86.736377 z M 93.278714 87.721054 L 150.57443 101.39388 A 73.951065 73.951065 0 0 1 150.26982 102.64644 L 93.219109 87.975538 A 14.999861 14.999861 0 0 0 93.278714 87.721054 z M 64.255334 88.2678 A 14.999861 14.999861 0 0 0 64.331837 88.518512 L 7.8587363 105.33006 A 73.951065 73.951065 0 0 1 7.4635367 104.10037 L 64.255334 88.2678 z M 92.843644 89.22885 L 148.40441 108.81877 A 73.951065 73.951065 0 0 1 148.00141 110.04481 L 92.749226 89.472876 A 14.999861 14.999861 0 0 0 92.843644 89.22885 z M 64.759421 89.753919 A 14.999861 14.999861 0 0 0 64.853208 89.997965 L 10.4668 112.61257 A 73.951065 73.951065 0 0 1 9.976802 111.41957 L 64.759421 89.753919 z M 92.236848 90.67616 L 145.46864 115.97791 A 73.951065 73.951065 0 0 1 144.87898 117.1259 L 92.122027 90.911755 A 14.999861 14.999861 0 0 0 92.236848 90.67616 z M 65.402841 91.185704 A 14.999861 14.999861 0 0 0 65.532346 91.412834 L 13.776235 119.60599 A 73.951065 73.951065 0 0 1 13.194383 118.45442 L 65.402841 91.185704 z M 91.492634 92.057396 L 141.75613 122.76597 A 73.951065 73.951065 0 0 1 141.07974 123.86301 L 91.360044 92.283097 A 14.999861 14.999861 0 0 0 91.492634 92.057396 z M 66.209892 92.5319 A 14.999861 14.999861 0 0 0 66.356301 92.748215 L 17.842787 126.18807 A 73.951065 73.951065 0 0 1 17.086824 125.1419 A 73.951065 73.951065 0 0 1 17.086841 125.14138 L 66.209892 92.5319 z M 90.60647 93.353278 L 137.39702 129.15624 A 73.951065 73.951065 0 0 1 136.63613 130.19774 L 90.442042 93.556727 A 14.999861 14.999861 0 0 0 90.60647 93.353278 z M 67.142271 93.793827 A 14.999861 14.999861 0 0 0 67.306667 93.99781 L 22.573497 132.30867 A 73.951065 73.951065 0 0 1 21.738942 131.32505 L 67.142271 93.793827 z M 89.585702 94.544918 L 132.39383 135.05727 A 73.951065 73.951065 0 0 1 131.47858 135.96647 L 89.406689 94.735992 A 14.999861 14.999861 0 0 0 89.585702 94.544918 z M 68.203794 94.949894 A 14.999861 14.999861 0 0 0 68.394868 95.128907 L 27.882534 137.93652 A 73.951065 73.951065 0 0 1 26.972798 137.02176 L 68.203794 94.949894 z M 88.454588 95.633635 L 126.76546 140.36629 A 73.951065 73.951065 0 0 1 125.78236 141.20086 L 88.250622 95.797515 A 14.999861 14.999861 0 0 0 88.454588 95.633635 z M 69.383059 95.985246 A 14.999861 14.999861 0 0 0 69.586508 96.149675 L 33.783551 142.94023 A 73.951065 73.951065 0 0 1 32.74155 142.1788 L 69.383059 95.985246 z M 87.20551 96.584019 L 120.64488 145.09648 A 73.951065 73.951065 0 0 1 119.59869 145.85296 L 119.59819 145.85243 L 86.988696 96.729894 A 14.999861 14.999861 0 0 0 87.20551 96.584019 z M 70.656173 96.903231 A 14.999861 14.999861 0 0 0 70.882407 97.035322 L 40.174331 147.29935 A 73.951065 73.951065 0 0 1 39.076779 146.62294 L 70.656173 96.903231 z M 85.869647 97.406924 L 114.06281 149.16304 A 73.951065 73.951065 0 0 1 112.91121 149.7454 L 85.642482 97.537462 A 14.999861 14.999861 0 0 0 85.869647 97.406924 z M 72.028031 97.665231 A 14.999861 14.999861 0 0 0 72.263626 97.780052 L 46.962391 151.01186 A 73.951065 73.951065 0 0 1 45.814402 150.4222 L 72.028031 97.665231 z M 84.454761 98.086578 L 107.06939 152.47247 A 73.951065 73.951065 0 0 1 105.87688 152.963 L 84.210715 98.180365 A 14.999861 14.999861 0 0 0 84.454761 98.086578 z M 73.466394 98.292414 A 14.999861 14.999861 0 0 0 73.710953 98.386332 L 54.121546 153.94711 A 73.951065 73.951065 0 0 1 52.894463 153.54459 L 73.466394 98.292414 z M 82.975824 98.607966 L 99.786334 155.08103 A 73.951065 73.951065 0 0 1 98.557702 155.47575 L 82.725129 98.683953 A 14.999861 14.999861 0 0 0 82.975824 98.607966 z M 74.964248 98.762314 A 14.999861 14.999861 0 0 0 75.218732 98.821918 L 61.545387 156.11761 A 73.951065 73.951065 0 0 1 60.292833 155.81301 L 74.964248 98.762314 z M 81.451504 98.985148 L 92.269909 156.91355 A 73.951065 73.951065 0 0 1 90.994536 157.11127 L 81.19319 99.025724 A 14.999861 14.999861 0 0 0 81.451504 98.985148 z M 76.503155 99.069667 A 14.999861 14.999861 0 0 0 76.761387 99.109748 L 69.14822 157.55053 A 73.951065 73.951065 0 0 1 67.874292 157.345 L 76.503155 99.069667 z M 79.894841 99.183396 L 84.596359 157.90014 A 73.951065 73.951065 0 0 1 83.309804 157.99823 L 79.633629 99.20216 A 14.999861 14.999861 0 0 0 79.894841 99.183396 z M 78.326138 99.229751 L 76.864062 158.13043 A 73.951065 73.951065 0 0 1 75.573625 158.12704 L 78.064559 99.228338 A 14.999861 14.999861 0 0 0 78.326138 99.229751 z "
       transform="rotate(-1.8943294,89.466254,-91.117552)" />
    <g
       id="g2741"
       style="display:inline;stroke-width:0.1;stroke-dasharray:none"
       transform="translate(-24.28786,-50.425598)">
      <circle
         style="fill:none;stroke:#ffffff;stroke-width:0.0881051;stroke-dasharray:none;stroke-opacity:1"
         id="ellipse68049"
         cx="108.78786"
         cy="58.925598"
         inkscape:label="Bohrungen"
         r="1.9559474" />
      <path
         style="fill:#ffffff;stroke:#ffffff;stroke-width:0.1;stroke-opacity:1"
         d="m 106.83191,58.925598 h 3.91189"
         id="path2729" />
      <path
         style="fill:#ffffff;stroke:#ffffff;stroke-width:0.1;stroke-opacity:1"
         d="m 108.78786,56.969651 v 3.911894"
         id="path2731" />
    </g>
    <g
       id="g2736"
       style="stroke-width:0.1;stroke-dasharray:none"
       transform="translate(-21.437698,-51.3656)">
      <circle
         style="fill:none;stroke:#ffffff;stroke-width:0.1;stroke-dasharray:none;stroke-opacity:1"
         id="path68045"
         cx="105.9377"
         cy="135.8656"
         inkscape:label="Bohrungen"
         r="4.4400339" />
      <path
         style="fill:#ffffff;stroke:#ffffff;stroke-width:0.1;stroke-opacity:1"
         d="m 106.13074,131.31206 -0.19304,8.99357 v 0"
         id="path2725" />
      <path
         style="fill:#ffffff;stroke:#ffffff;stroke-width:0.1;stroke-opacity:1"
         d="m 101.49766,135.8656 h 8.88007"
         id="path2727" />
    </g>
    <g
       aria-label="T"
       id="text1588"
       style="font-size:4.11834px;font-family:Arial;-inkscape-font-specification:'Arial, Normal';fill:#ffffff;stroke-width:0.0228797"
       transform="translate(0,-1.5875)">
      <path
         d="M 84.30293,79.946465 V 77.34636 h -0.971268 v -0.347887 h 2.336675 v 0.347887 h -0.975291 v 2.600105 z"
         id="path1953" />
    </g>
  </g>
  <g
     inkscape:groupmode="layer"
     id="layer3"
     inkscape:label="weiss"
     style="display:inline">
    <path
       id="path103268"
       style="display:inline;fill:#fffffc;fill-opacity:1;stroke:none;stroke-width:0.180744;stroke-dasharray:none;stroke-opacity:1"
       inkscape:label="reveal layer"
       d="M 78.79604,2.7777858 A 81.408768,81.408768 0 0 0 -2.6127541,84.18654 a 81.408768,81.408768 0 0 0 0.881051,11.880889 81.408768,81.408768 0 0 0 0.02352,0.211216 81.408768,81.408768 0 0 0 16.7437481,38.512785 81.408768,81.408768 0 0 0 3.946753,4.60765 81.408768,81.408768 0 0 0 4.27851,4.30063 81.408768,81.408768 0 0 0 4.511323,3.90556 81.408768,81.408768 0 0 0 0.0754,0.0651 81.40963,81.40963 0 0 0 0.0035,0.003 81.408768,81.408768 0 0 0 2.253363,1.68617 81.40963,81.40963 0 0 0 0.003,0.002 81.408768,81.408768 0 0 0 1.994173,1.4718 81.408768,81.408768 0 0 0 46.694348,14.76217 81.408768,81.408768 0 0 0 81.408795,-81.40875 81.408768,81.408768 0 0 0 -32.8984,-65.306351 81.40963,81.40963 0 0 0 -0.008,-0.0065 81.408768,81.408768 0 0 0 -0.0121,-0.0087 81.408768,81.408768 0 0 0 -4.65823,-3.215503 81.408768,81.408768 0 0 0 -0.21527,-0.135347 81.408768,81.408768 0 0 0 -4.7053,-2.77757 81.408768,81.408768 0 0 0 -0.40907,-0.216212 81.408768,81.408768 0 0 0 -4.726,-2.354793 81.408768,81.408768 0 0 0 -0.60602,-0.2646064 81.408768,81.408768 0 0 0 -4.72134,-1.94824 81.408768,81.408768 0 0 0 -0.7979,-0.2793502 81.408768,81.408768 0 0 0 -4.68575,-1.555141 A 81.408768,81.408768 0 0 0 100.73788,5.844169 81.408768,81.408768 0 0 0 96.140257,4.6730062 81.408768,81.408768 0 0 0 94.877769,4.4342554 81.408768,81.408768 0 0 0 90.417468,3.6290502 81.408768,81.408768 0 0 0 88.709823,3.4365877 81.408768,81.408768 0 0 0 84.627833,2.9960038 81.408768,81.408768 0 0 0 78.79604,2.7777858 Z m 3.027417,7.5786962 A 73.951065,73.951065 0 0 1 152.5833,87.366661 L 93.684617,84.87521 A 14.999861,14.999861 0 0 0 79.332022,69.254653 14.999861,14.999861 0 0 0 63.711964,83.607781 14.999861,14.999861 0 0 0 63.710552,83.86936 L 4.8093761,82.40675 a 73.951065,73.951065 0 0 1 0.0039,-1.29042 A 73.951065,73.951065 0 0 1 81.823457,10.356482 Z M 63.738143,85.17685 a 14.999861,14.999861 0 0 0 0.01825,0.261195 L 5.039126,90.139546 a 73.951065,73.951065 0 0 1 -0.097052,-1.28652 z m 29.8284,1.001549 58.440777,7.613167 a 73.951065,73.951065 0 0 1 -0.2055,1.273411 L 93.526463,86.436631 a 14.999861,14.999861 0 0 0 0.04008,-0.258232 z m -29.652997,0.557978 a 14.999861,14.999861 0 0 0 0.04161,0.258349 L 6.0262575,97.812597 A 73.951065,73.951065 0 0 1 5.8279963,96.537723 Z m 29.365168,0.984677 57.295716,13.672826 a 73.951065,73.951065 0 0 1 -0.30461,1.25256 L 93.219109,87.975538 a 14.999861,14.999861 0 0 0 0.0596,-0.254484 z M 64.255334,88.2678 a 14.999861,14.999861 0 0 0 0.0765,0.250712 L 7.8587363,105.33006 a 73.951065,73.951065 0 0 1 -0.3951996,-1.22969 z m 28.58831,0.96105 55.560766,19.58992 a 73.951065,73.951065 0 0 1 -0.403,1.22604 L 92.749226,89.472876 a 14.999861,14.999861 0 0 0 0.09442,-0.244026 z m -28.084223,0.525069 a 14.999861,14.999861 0 0 0 0.09379,0.244046 L 10.4668,112.61257 a 73.951065,73.951065 0 0 1 -0.489998,-1.193 z m 27.477427,0.922241 53.231792,25.30175 a 73.951065,73.951065 0 0 1 -0.58966,1.14799 L 92.122027,90.911755 a 14.999861,14.999861 0 0 0 0.114821,-0.235595 z m -26.834007,0.509544 a 14.999861,14.999861 0 0 0 0.129505,0.22713 L 13.776235,119.60599 a 73.951065,73.951065 0 0 1 -0.581852,-1.15157 z m 26.089793,0.871692 50.263496,30.708574 a 73.951065,73.951065 0 0 1 -0.67639,1.09704 L 91.360044,92.283097 a 14.999861,14.999861 0 0 0 0.13259,-0.225701 z M 66.209892,92.5319 a 14.999861,14.999861 0 0 0 0.146409,0.216315 L 17.842787,126.18807 a 73.951065,73.951065 0 0 1 -0.755963,-1.04617 73.951065,73.951065 0 0 1 1.7e-5,-5.2e-4 z m 24.396578,0.821378 46.79055,35.802962 a 73.951065,73.951065 0 0 1 -0.76089,1.0415 L 90.442042,93.556727 a 14.999861,14.999861 0 0 0 0.164428,-0.203449 z m -23.464199,0.440549 a 14.999861,14.999861 0 0 0 0.164396,0.203983 l -44.73317,38.31086 a 73.951065,73.951065 0 0 1 -0.834555,-0.98362 z m 22.443431,0.751091 42.808128,40.512352 a 73.951065,73.951065 0 0 1 -0.91525,0.9092 L 89.406689,94.735992 a 14.999861,14.999861 0 0 0 0.179013,-0.191074 z m -21.381908,0.404976 a 14.999861,14.999861 0 0 0 0.191074,0.179013 L 27.882534,137.93652 a 73.951065,73.951065 0 0 1 -0.909736,-0.91476 z m 20.250794,0.683741 38.310872,44.732655 a 73.951065,73.951065 0 0 1 -0.9831,0.83457 L 88.250622,95.797515 a 14.999861,14.999861 0 0 0 0.203966,-0.16388 z m -19.071529,0.351611 a 14.999861,14.999861 0 0 0 0.203449,0.164429 L 33.783551,142.94023 A 73.951065,73.951065 0 0 1 32.74155,142.1788 Z m 17.822451,0.598773 33.43937,48.512461 a 73.951065,73.951065 0 0 1 -1.04619,0.75648 l -5e-4,-5.3e-4 -32.609494,-49.122536 a 14.999861,14.999861 0 0 0 0.216814,-0.145875 z m -16.549337,0.319212 a 14.999861,14.999861 0 0 0 0.226234,0.132091 L 40.174331,147.29935 a 73.951065,73.951065 0 0 1 -1.097552,-0.67641 z m 15.213474,0.503693 28.193163,51.756116 a 73.951065,73.951065 0 0 1 -1.1516,0.58236 L 85.642482,97.537462 a 14.999861,14.999861 0 0 0 0.227165,-0.130538 z m -13.841616,0.258307 a 14.999861,14.999861 0 0 0 0.235595,0.114821 L 46.962391,151.01186 a 73.951065,73.951065 0 0 1 -1.147989,-0.58966 z m 12.42673,0.421347 22.614629,54.385892 a 73.951065,73.951065 0 0 1 -1.19251,0.49053 L 84.210715,98.180365 a 14.999861,14.999861 0 0 0 0.244046,-0.09379 z m -10.988367,0.205836 a 14.999861,14.999861 0 0 0 0.244559,0.09392 L 54.121546,153.94711 a 73.951065,73.951065 0 0 1 -1.227083,-0.40252 z m 9.50943,0.315552 16.81051,56.473064 a 73.951065,73.951065 0 0 1 -1.228632,0.39472 L 82.725129,98.683953 a 14.999861,14.999861 0 0 0 0.250695,-0.07599 z m -8.011576,0.154348 a 14.999861,14.999861 0 0 0 0.254484,0.0596 L 61.545387,156.11761 a 73.951065,73.951065 0 0 1 -1.252554,-0.3046 z m 6.487256,0.222834 10.818405,57.928402 a 73.951065,73.951065 0 0 1 -1.275373,0.19772 L 81.19319,99.025724 a 14.999861,14.999861 0 0 0 0.258314,-0.04058 z m -4.948349,0.08452 a 14.999861,14.999861 0 0 0 0.258232,0.04008 L 69.14822,157.55053 A 73.951065,73.951065 0 0 1 67.874292,157.345 Z m 3.391686,0.113729 4.701518,58.716743 a 73.951065,73.951065 0 0 1 -1.286555,0.0981 L 79.633629,99.20216 a 14.999861,14.999861 0 0 0 0.261212,-0.01876 z m -1.568703,0.04635 -1.462076,58.900683 a 73.951065,73.951065 0 0 1 -1.290437,-0.003 l 2.490934,-58.898706 a 14.999861,14.999861 0 0 0 0.261579,0.0014 z"
       transform="rotate(-1.8943294)" />
  </g>
  <g
     inkscape:groupmode="layer"
     id="layer2"
     inkscape:label="CutContour">
    <circle
       style="display:inline;fill:none;stroke:#03ffff;stroke-width:0.176389;stroke-dasharray:none;stroke-opacity:1"
       id="path45725"
       cx="78.795799"
       cy="84.186325"
       r="79.447426"
       inkscape:label="Konturschnitt"
       transform="rotate(-1.8943294)" />
  </g>
</svg>
