<?xml version="1.0" encoding="UTF-8" standalone="no"?>
<!-- Created with Inkscape (http://www.inkscape.org/) -->

<svg
   width="197mm"
   height="197mm"
   viewBox="0 0 197 197"
   version="1.1"
   id="svg5"
   inkscape:version="1.2.1 (9c6d41e410, 2022-07-14)"
   sodipodi:docname="moire clock - hour wheel printed.svg"
   inkscape:export-filename="moire clock - hour wheel printed.pdf"
   inkscape:export-xdpi="96"
   inkscape:export-ydpi="96"
   xmlns:inkscape="http://www.inkscape.org/namespaces/inkscape"
   xmlns:sodipodi="http://sodipodi.sourceforge.net/DTD/sodipodi-0.dtd"
   xmlns:xlink="http://www.w3.org/1999/xlink"
   xmlns="http://www.w3.org/2000/svg"
   xmlns:svg="http://www.w3.org/2000/svg">
  <sodipodi:namedview
     id="namedview7"
     pagecolor="#ffffff"
     bordercolor="#000000"
     borderopacity="0.25"
     inkscape:showpageshadow="2"
     inkscape:pageopacity="0.0"
     inkscape:pagecheckerboard="0"
     inkscape:deskcolor="#d1d1d1"
     inkscape:document-units="mm"
     showgrid="false"
     inkscape:zoom="4.33"
     inkscape:cx="330.48499"
     inkscape:cy="202.30947"
     inkscape:window-width="2560"
     inkscape:window-height="1494"
     inkscape:window-x="-11"
     inkscape:window-y="-11"
     inkscape:window-maximized="1"
     inkscape:current-layer="svg5" />
  <defs
     id="defs2">
    <pattern
       patternUnits="userSpaceOnUse"
       width="63.512023"
       height="41.224884"
       patternTransform="translate(16.092397,15.939375)"
       id="pattern15132">
      <g
         id="g9779"
         transform="matrix(3.7795276,0,0,3.7795276,-16.092397,-14.282108)">
        <text
           xml:space="preserve"
           style="font-style:normal;font-variant:normal;font-weight:bold;font-stretch:normal;font-size:5.00605px;font-family:Arial;-inkscape-font-specification:'Arial, Bold';font-variant-ligatures:normal;font-variant-caps:normal;font-variant-numeric:normal;font-variant-east-asian:normal;fill:#000000;stroke-width:0.0735842"
           x="0.78816056"
           y="17.185375"
           id="text9545"
           transform="scale(3.5956517,0.2781137)"
           inkscape:tile-x0="4.2577799"
           inkscape:tile-y0="3.7788077"
           inkscape:tile-cx="7.0878599"
           inkscape:tile-cy="4.2791479"
           inkscape:tile-w="5.6601601"
           inkscape:tile-h="1.0006805"><tspan
             sodipodi:role="line"
             id="tspan9543"
             x="0.78816056"
             y="17.185375">1</tspan></text>
        <use
           x="0"
           y="0"
           inkscape:tiled-clone-of="#text9545"
           xlink:href="#text9545"
           id="use9547"
           style="display:inline" />
        <use
           x="0"
           y="0"
           inkscape:tiled-clone-of="#text9545"
           xlink:href="#text9545"
           transform="translate(0,1.1007485)"
           id="use9549"
           style="display:inline" />
        <use
           x="0"
           y="0"
           inkscape:tiled-clone-of="#text9545"
           xlink:href="#text9545"
           transform="translate(0,2.201497)"
           id="use9551"
           style="display:inline" />
        <use
           x="0"
           y="0"
           inkscape:tiled-clone-of="#text9545"
           xlink:href="#text9545"
           transform="translate(0,3.3022455)"
           id="use9553"
           style="display:inline" />
        <use
           x="0"
           y="0"
           inkscape:tiled-clone-of="#text9545"
           xlink:href="#text9545"
           transform="translate(0,4.4029941)"
           id="use9555"
           style="display:inline" />
        <use
           x="0"
           y="0"
           inkscape:tiled-clone-of="#text9545"
           xlink:href="#text9545"
           transform="translate(0,5.5037426)"
           id="use9557"
           style="display:inline" />
        <use
           x="0"
           y="0"
           inkscape:tiled-clone-of="#text9545"
           xlink:href="#text9545"
           transform="translate(0,6.6044911)"
           id="use9559"
           style="display:inline" />
        <use
           x="0"
           y="0"
           inkscape:tiled-clone-of="#text9545"
           xlink:href="#text9545"
           transform="translate(0,7.7052396)"
           id="use9561"
           style="display:inline" />
        <use
           x="0"
           y="0"
           inkscape:tiled-clone-of="#text9545"
           xlink:href="#text9545"
           transform="translate(0,8.8059881)"
           id="use9563"
           style="display:inline" />
        <use
           x="0"
           y="0"
           inkscape:tiled-clone-of="#text9545"
           xlink:href="#text9545"
           transform="translate(0,9.9067366)"
           id="use9565"
           style="display:inline" />
      </g>
      <g
         id="g9793"
         transform="matrix(3.7795276,0,0,3.7795276,-20.829052,-14.772305)">
        <text
           xml:space="preserve"
           style="font-style:normal;font-variant:normal;font-weight:bold;font-stretch:normal;font-size:5.00605px;font-family:Arial;-inkscape-font-specification:'Arial, Bold';font-variant-ligatures:normal;font-variant-caps:normal;font-variant-numeric:normal;font-variant-east-asian:normal;fill:#000000;stroke-width:0.0735842"
           x="3.6738174"
           y="17.651724"
           id="text9541"
           transform="scale(3.5956517,0.2781137)"
           inkscape:tile-x0="13.65801"
           inkscape:tile-y0="3.9085057"
           inkscape:tile-cx="17.986626"
           inkscape:tile-cy="4.4088459"
           inkscape:tile-w="8.6572324"
           inkscape:tile-h="1.0006805"><tspan
             sodipodi:role="line"
             id="tspan9539"
             x="3.6738174"
             y="17.651724">2</tspan></text>
        <use
           x="0"
           y="0"
           inkscape:tiled-clone-of="#text9541"
           xlink:href="#text9541"
           id="use9567"
           style="display:inline" />
        <use
           x="0"
           y="0"
           inkscape:tiled-clone-of="#text9541"
           xlink:href="#text9541"
           transform="translate(0,1.1007485)"
           id="use9569"
           style="display:inline" />
        <use
           x="0"
           y="0"
           inkscape:tiled-clone-of="#text9541"
           xlink:href="#text9541"
           transform="translate(0,2.201497)"
           id="use9571"
           style="display:inline" />
        <use
           x="0"
           y="0"
           inkscape:tiled-clone-of="#text9541"
           xlink:href="#text9541"
           transform="translate(0,3.3022455)"
           id="use9573"
           style="display:inline" />
        <use
           x="0"
           y="0"
           inkscape:tiled-clone-of="#text9541"
           xlink:href="#text9541"
           transform="translate(0,4.4029941)"
           id="use9575"
           style="display:inline" />
        <use
           x="0"
           y="0"
           inkscape:tiled-clone-of="#text9541"
           xlink:href="#text9541"
           transform="translate(0,5.5037426)"
           id="use9577"
           style="display:inline" />
        <use
           x="0"
           y="0"
           inkscape:tiled-clone-of="#text9541"
           xlink:href="#text9541"
           transform="translate(0,6.6044911)"
           id="use9579"
           style="display:inline" />
        <use
           x="0"
           y="0"
           inkscape:tiled-clone-of="#text9541"
           xlink:href="#text9541"
           transform="translate(0,7.7052396)"
           id="use9581"
           style="display:inline" />
        <use
           x="0"
           y="0"
           inkscape:tiled-clone-of="#text9541"
           xlink:href="#text9541"
           transform="translate(0,8.8059881)"
           id="use9583"
           style="display:inline" />
        <use
           x="0"
           y="0"
           inkscape:tiled-clone-of="#text9541"
           xlink:href="#text9541"
           transform="translate(0,9.9067366)"
           id="use9585"
           style="display:inline" />
      </g>
    </pattern>
    <clipPath
       clipPathUnits="userSpaceOnUse"
       id="clipPath3220">
      <circle
         style="fill:none;stroke:#fe1616;stroke-width:0.0868516;stroke-dasharray:none;stroke-opacity:1"
         id="circle3222"
         cx="94.631393"
         cy="78.357193"
         r="10.977794" />
    </clipPath>
    <clipPath
       clipPathUnits="userSpaceOnUse"
       id="clipPath3220-75">
      <circle
         style="fill:none;stroke:#fe1616;stroke-width:0.0868516;stroke-dasharray:none;stroke-opacity:1"
         id="circle3222-67"
         cx="94.631393"
         cy="78.357193"
         r="10.977794" />
    </clipPath>
  </defs>
  <g
     inkscape:label="Ebene 1"
     inkscape:groupmode="layer"
     id="layer1"
     transform="translate(-2.7885047,-2.7885137)"
     style="display:inline">
    <g
       id="g15213"
       transform="matrix(2.2192524,0.07393557,-0.07393557,2.2192524,-99.54134,-136.1585)"
       inkscape:transform-center-x="-1.2535892"
       inkscape:transform-center-y="-36.946701"
       inkscape:label="reveal layer"
       style="display:inline;stroke-width:0.1;stroke-dasharray:none;stroke:none;fill:#000000;fill-opacity:1">
      <path
         id="use14928"
         style="display:inline;fill:#000000;fill-opacity:1;stroke:none;stroke-width:0.287777"
         inkscape:transform-center-x="-1.2535918"
         inkscape:transform-center-y="-36.946697"
         d="m 93.301435,60.472134 a 12.450747,12.450747 0 0 0 -12.262237,12.637072 12.450747,12.450747 0 0 0 10.925084,12.16492 l 0.129907,8.649569 a 10.113576,10.113576 0 0 0 -8.248352,10.249675 10.113576,10.113576 0 0 0 10.418219,9.79946 10.113576,10.113576 0 0 0 9.799464,-10.41821 10.113576,10.113576 0 0 0 -8.550352,-9.683175 L 95.382824,85.222822 A 12.450747,12.450747 0 0 0 105.93804,72.734387 12.450747,12.450747 0 0 0 93.301435,60.472134 Z m -3.511101,2.162226 7.208979,-0.108403 a 10.977794,10.977794 0 0 1 0.519045,0.192037 l -8.33399,0.125137 a 10.977794,10.977794 0 0 1 0.605966,-0.208771 z m -2.506296,1.238086 12.136047,-0.182825 a 10.977794,10.977794 0 0 1 0.290272,0.195312 l -12.680405,0.190869 a 10.977794,10.977794 0 0 1 0.254086,-0.203356 z m -1.45764,1.221824 15.111252,-0.227314 a 10.977794,10.977794 0 0 1 0.21486,0.196456 l -15.542951,0.234007 a 10.977794,10.977794 0 0 1 0.216839,-0.203149 z m -1.038018,1.215967 17.25467,-0.25985 a 10.977794,10.977794 0 0 1 0.15994,0.197439 l -17.575599,0.264549 a 10.977794,10.977794 0 0 1 0.160989,-0.202138 z m -0.807619,1.212407 18.891669,-0.284569 a 10.977794,10.977794 0 0 1 0.12179,0.198373 l -19.117183,0.28798 a 10.977794,10.977794 0 0 1 0.103724,-0.201784 z m -0.622844,1.209315 20.140733,-0.303007 a 10.977794,10.977794 0 0 1 0.0859,0.198541 L 83.267646,68.93333 a 10.977794,10.977794 0 0 1 0.09023,-0.20137 z m -0.378468,1.206027 20.977381,-0.316039 a 10.977794,10.977794 0 0 1 0.058,0.199161 l -21.093266,0.317956 a 10.977794,10.977794 0 0 1 0.05788,-0.201078 z m -0.305171,1.204481 21.581782,-0.324757 a 10.977794,10.977794 0 0 1 0.0387,0.199752 l -21.636938,0.325281 a 10.977794,10.977794 0 0 1 0.01646,-0.200276 z m -0.100129,1.201699 2.32e-4,-7e-6 21.852909,-0.328864 a 10.977794,10.977794 0 0 1 0.01,0.199698 l -21.879854,0.32899 a 10.977794,10.977794 0 0 1 0.0167,-0.199817 z m -0.01008,1.199874 21.863151,-0.328712 a 10.977794,10.977794 0 0 1 -0.0169,0.20029 l -21.823134,0.327721 a 10.977794,10.977794 0 0 1 -0.02309,-0.199299 z m 0.136557,1.19818 21.626704,-0.3252 a 10.977794,10.977794 0 0 1 -0.0172,0.200298 l -21.587125,0.324921 a 10.977794,10.977794 0 0 1 -0.02242,-0.200018 z m 0.282943,1.19603 21.096561,-0.316893 a 10.977794,10.977794 0 0 1 -0.0577,0.20014 l -20.975283,0.315975 a 10.977794,10.977794 0 0 1 -0.06361,-0.199222 z m 0.382307,1.194151 20.368344,-0.306247 a 10.977794,10.977794 0 0 1 -0.0721,0.201048 l -20.217769,0.303966 a 10.977794,10.977794 0 0 1 -0.07849,-0.198767 z m 0.625985,1.190886 19.152319,-0.28859 a 10.977794,10.977794 0 0 1 -0.10396,0.201557 l -18.9382,0.285762 a 10.977794,10.977794 0 0 1 -0.110159,-0.198729 z m 0.762355,1.188574 17.663824,-0.265387 a 10.977794,10.977794 0 0 1 -0.16101,0.201674 l -17.335868,0.261635 a 10.977794,10.977794 0 0 1 -0.166946,-0.197922 z m 1.002298,1.184957 15.694696,-0.236089 a 10.977794,10.977794 0 0 1 -0.19913,0.203305 l -15.289991,0.229989 a 10.977794,10.977794 0 0 1 -0.205575,-0.197205 z m 1.438682,1.179051 12.853764,-0.19408 a 10.977794,10.977794 0 0 1 -0.240784,0.204115 l -12.365759,0.18613 a 10.977794,10.977794 0 0 1 -0.247221,-0.196165 z m 2.086799,1.168297 8.716591,-0.131027 a 10.977794,10.977794 0 0 1 -0.537069,0.20806 l -7.637193,0.114989 a 10.977794,10.977794 0 0 1 -0.542329,-0.192022 z" />
    </g>
    <g
       id="g1980"
       style="stroke-width:0.1;stroke-dasharray:none">
      <circle
         style="fill:none;stroke:#000000;stroke-width:0.0890936;stroke-dasharray:none;stroke-opacity:1"
         id="circle41849"
         cx="101.31306"
         cy="192.57114"
         r="1.9554532"
         inkscape:label="Bohrungen" />
      <path
         style="fill:#ffffff;stroke:#000000;stroke-width:0.1;stroke-opacity:1"
         d="m 101.31305,190.61568 v 3.91091"
         id="path946"
         inkscape:label="path946" />
      <path
         style="fill:#ffffff;stroke:#000000;stroke-width:0.1;stroke-opacity:1"
         d="m 99.357604,192.57114 h 3.910906"
         id="path1974" />
    </g>
    <g
       id="g1985"
       style="stroke-width:0.1;stroke-dasharray:none">
      <circle
         style="fill:none;stroke:#ffffff;stroke-width:0.1;stroke-dasharray:none;stroke-opacity:1"
         id="path41846"
         cx="101.2885"
         cy="101.28851"
         inkscape:label="Bohrungen"
         r="4.3896589" />
      <path
         style="fill:#ffffff;stroke:#ffffff;stroke-width:0.1;stroke-opacity:1"
         d="m 101.2885,96.898854 v 8.779316"
         id="path942" />
      <path
         style="fill:#ffffff;stroke:#ffffff;stroke-width:0.1;stroke-opacity:1"
         d="m 105.67816,101.28851 h -8.779321 v 0"
         id="path944" />
    </g>
  </g>
  <g
     inkscape:groupmode="layer"
     id="layer4"
     inkscape:label="weiss"
     style="display:inline;stroke-width:0.1;stroke-dasharray:none;stroke:none;fill:#000000;fill-opacity:1"
     transform="translate(-0.78837536,-0.86138441)">
    <path
       id="path102528"
       style="display:inline;stroke-width:0.287777;stroke-dasharray:none;stroke:none;fill:#fffffc;fill-opacity:1"
       inkscape:transform-center-x="-1.2535918"
       inkscape:transform-center-y="-36.946697"
       d="m 93.301435,60.472134 a 12.450747,12.450747 0 0 0 -12.262237,12.637072 12.450747,12.450747 0 0 0 10.925084,12.16492 l 0.129907,8.649569 a 10.113576,10.113576 0 0 0 -8.248352,10.249675 10.113576,10.113576 0 0 0 10.418219,9.79946 10.113576,10.113576 0 0 0 9.799464,-10.41821 10.113576,10.113576 0 0 0 -8.550352,-9.683175 L 95.382824,85.222822 A 12.450747,12.450747 0 0 0 105.93804,72.734387 12.450747,12.450747 0 0 0 93.301435,60.472134 Z m -3.511101,2.162226 7.208979,-0.108403 a 10.977794,10.977794 0 0 1 0.519045,0.192037 l -8.33399,0.125137 a 10.977794,10.977794 0 0 1 0.605966,-0.208771 z m -2.506296,1.238086 12.136047,-0.182825 a 10.977794,10.977794 0 0 1 0.290272,0.195312 l -12.680405,0.190869 a 10.977794,10.977794 0 0 1 0.254086,-0.203356 z m -1.45764,1.221824 15.111252,-0.227314 a 10.977794,10.977794 0 0 1 0.21486,0.196456 l -15.542951,0.234007 a 10.977794,10.977794 0 0 1 0.216839,-0.203149 z m -1.038018,1.215967 17.25467,-0.25985 a 10.977794,10.977794 0 0 1 0.15994,0.197439 l -17.575599,0.264549 a 10.977794,10.977794 0 0 1 0.160989,-0.202138 z m -0.807619,1.212407 18.891669,-0.284569 a 10.977794,10.977794 0 0 1 0.12179,0.198373 l -19.117183,0.28798 a 10.977794,10.977794 0 0 1 0.103724,-0.201784 z m -0.622844,1.209315 20.140733,-0.303007 a 10.977794,10.977794 0 0 1 0.0859,0.198541 L 83.267646,68.93333 a 10.977794,10.977794 0 0 1 0.09023,-0.20137 z m -0.378468,1.206027 20.977381,-0.316039 a 10.977794,10.977794 0 0 1 0.058,0.199161 l -21.093266,0.317956 a 10.977794,10.977794 0 0 1 0.05788,-0.201078 z m -0.305171,1.204481 21.581782,-0.324757 a 10.977794,10.977794 0 0 1 0.0387,0.199752 l -21.636938,0.325281 a 10.977794,10.977794 0 0 1 0.01646,-0.200276 z m -0.100129,1.201699 2.32e-4,-7e-6 21.852909,-0.328864 a 10.977794,10.977794 0 0 1 0.01,0.199698 l -21.879854,0.32899 a 10.977794,10.977794 0 0 1 0.0167,-0.199817 z m -0.01008,1.199874 21.863151,-0.328712 a 10.977794,10.977794 0 0 1 -0.0169,0.20029 l -21.823134,0.327721 a 10.977794,10.977794 0 0 1 -0.02309,-0.199299 z m 0.136557,1.19818 21.626704,-0.3252 a 10.977794,10.977794 0 0 1 -0.0172,0.200298 l -21.587125,0.324921 a 10.977794,10.977794 0 0 1 -0.02242,-0.200018 z m 0.282943,1.19603 21.096561,-0.316893 a 10.977794,10.977794 0 0 1 -0.0577,0.20014 l -20.975283,0.315975 a 10.977794,10.977794 0 0 1 -0.06361,-0.199222 z m 0.382307,1.194151 20.368344,-0.306247 a 10.977794,10.977794 0 0 1 -0.0721,0.201048 l -20.217769,0.303966 a 10.977794,10.977794 0 0 1 -0.07849,-0.198767 z m 0.625985,1.190886 19.152319,-0.28859 a 10.977794,10.977794 0 0 1 -0.10396,0.201557 l -18.9382,0.285762 a 10.977794,10.977794 0 0 1 -0.110159,-0.198729 z m 0.762355,1.188574 17.663824,-0.265387 a 10.977794,10.977794 0 0 1 -0.16101,0.201674 l -17.335868,0.261635 a 10.977794,10.977794 0 0 1 -0.166946,-0.197922 z m 1.002298,1.184957 15.694696,-0.236089 a 10.977794,10.977794 0 0 1 -0.19913,0.203305 l -15.289991,0.229989 a 10.977794,10.977794 0 0 1 -0.205575,-0.197205 z m 1.438682,1.179051 12.853764,-0.19408 a 10.977794,10.977794 0 0 1 -0.240784,0.204115 l -12.365759,0.18613 a 10.977794,10.977794 0 0 1 -0.247221,-0.196165 z m 2.086799,1.168297 8.716591,-0.131027 a 10.977794,10.977794 0 0 1 -0.537069,0.20806 l -7.637193,0.114989 a 10.977794,10.977794 0 0 1 -0.542329,-0.192022 z"
       transform="matrix(2.2192524,0.07393557,-0.07393557,2.2192524,-101.54147,-138.08563)" />
  </g>
  <g
     inkscape:groupmode="layer"
     id="layer2"
     inkscape:label="CutContour">
    <circle
       style="display:inline;fill:none;stroke:#03ffff;stroke-width:0.176707;stroke-dasharray:none;stroke-opacity:1"
       id="circle41482"
       cx="98.474861"
       cy="98.525124"
       r="96.411644"
       inkscape:label="Konturschnitt"
       transform="rotate(-0.01461796)" />
  </g>
</svg>
