  0
SECTION
  2
HEADER
  9
$ACADVER
  1
AC1014
  9
$HANDSEED
  5
FFFF
  9
$MEASUREMENT
 70
     1
  0
ENDSEC
  0
SECTION
  2
TABLES
  0
TABLE
  2
VPORT
  5
8
330
0
100
AcDbSymbolTable
 70
     4
  0
VPORT
  5
2E
330
8
100
AcDbSymbolTableRecord
100
AcDbViewportTableRecord
  2
*ACTIVE
 70
     0
 10
0.0
 20
0.0
 11
1.0
 21
1.0
 12
210.0
 22
148.5
 13
0.0
 23
0.0
 14
10.0
 24
10.0
 15
10.0
 25
10.0
 16
0.0
 26
0.0
 36
1.0
 17
0.0
 27
0.0
 37
0.0
 40
341.0
 41
1.24
 42
50.0
 43
0.0
 44
0.0
 50
0.0
 51
0.0
 71
     0
 72
   100
 73
     1
 74
     3
 75
     0
 76
     0
 77
     0
 78
     0
  0
ENDTAB
  0
TABLE
  2
LTYPE
  5
5
330
0
100
AcDbSymbolTable
 70
     1
  0
LTYPE
  5
14
330
5
100
AcDbSymbolTableRecord
100
AcDbLinetypeTableRecord
  2
BYBLOCK
 70
     0
  3

 72
    65
 73
     0
 40
0.0
  0
LTYPE
  5
15
330
5
100
AcDbSymbolTableRecord
100
AcDbLinetypeTableRecord
  2
BYLAYER
 70
     0
  3

 72
    65
 73
     0
 40
0.0
  0
LTYPE
  5
16
330
5
100
AcDbSymbolTableRecord
100
AcDbLinetypeTableRecord
  2
CONTINUOUS
 70
     0
  3
Solid line
 72
    65
 73
     0
 40
0.0
  0
ENDTAB
  0
TABLE
  2
LAYER
  5
2
100
AcDbSymbolTable
 70
2
  0
LAYER
  5
50
100
AcDbSymbolTableRecord
100
AcDbLayerTableRecord
  2
0
 70
0
  6
CONTINUOUS
  0
LAYER
  5
51
100
AcDbSymbolTableRecord
100
AcDbLayerTableRecord
  2
Ebene_1
 70
0
  6
CONTINUOUS
  0
ENDTAB
  0
TABLE
  2
STYLE
  5
3
330
0
100
AcDbSymbolTable
 70
     1
  0
STYLE
  5
11
330
3
100
AcDbSymbolTableRecord
100
AcDbTextStyleTableRecord
  2
STANDARD
 70
     0
 40
0.0
 41
1.0
 50
0.0
 71
     0
 42
2.5
  3
txt
  4

  0
ENDTAB
  0
TABLE
  2
VIEW
  5
6
330
0
100
AcDbSymbolTable
 70
     0
  0
ENDTAB
  0
TABLE
  2
UCS
  5
7
330
0
100
AcDbSymbolTable
 70
     0
  0
ENDTAB
  0
TABLE
  2
APPID
  5
9
330
0
100
AcDbSymbolTable
 70
     2
  0
APPID
  5
12
330
9
100
AcDbSymbolTableRecord
100
AcDbRegAppTableRecord
  2
ACAD
 70
     0
  0
ENDTAB
  0
TABLE
  2
DIMSTYLE
  5
A
330
0
100
AcDbSymbolTable
 70
     1
  0
DIMSTYLE
105
27
330
A
100
AcDbSymbolTableRecord
100
AcDbDimStyleTableRecord
  2
ISO-25
 70
     0
  3

  4

  5

  6

  7

 40
1.0
 41
2.5
 42
0.625
 43
3.75
 44
1.25
 45
0.0
 46
0.0
 47
0.0
 48
0.0
140
2.5
141
2.5
142
0.0
143
0.03937007874016
144
1.0
145
0.0
146
1.0
147
0.625
 71
     0
 72
     0
 73
     0
 74
     0
 75
     0
 76
     0
 77
     1
 78
     8
170
     0
171
     3
172
     1
173
     0
174
     0
175
     0
176
     0
177
     0
178
     0
270
     2
271
     2
272
     2
273
     2
274
     3
340
11
275
     0
280
     0
281
     0
282
     0
283
     0
284
     8
285
     0
286
     0
287
     3
288
     0
  0
ENDTAB
  0
TABLE
  2
BLOCK_RECORD
  5
1
330
0
100
AcDbSymbolTable
 70
     1
  0
BLOCK_RECORD
  5
1F
330
1
100
AcDbSymbolTableRecord
100
AcDbBlockTableRecord
  2
*MODEL_SPACE
  0
BLOCK_RECORD
  5
1B
330
1
100
AcDbSymbolTableRecord
100
AcDbBlockTableRecord
  2
*PAPER_SPACE
  0
ENDTAB
  0
ENDSEC
  0
SECTION
  2
BLOCKS
  0
BLOCK
  5
20
330
1F
100
AcDbEntity
  8
0
100
AcDbBlockBegin
  2
*MODEL_SPACE
 70
     0
 10
0.0
 20
0.0
 30
0.0
  3
*MODEL_SPACE
  1

  0
ENDBLK
  5
21
330
1F
100
AcDbEntity
  8
0
100
AcDbBlockEnd
  0
BLOCK
  5
1C
330
1B
100
AcDbEntity
 67
     1
  8
0
100
AcDbBlockBegin
  2
*PAPER_SPACE
  1

  0
ENDBLK
  5
1D
330
1B
100
AcDbEntity
 67
     1
  8
0
100
AcDbBlockEnd
  0
ENDSEC
  0
SECTION
  2
ENTITIES
  0
LINE
  5
100
100
AcDbEntity
  8
Ebene_1
 62
7
100
AcDbLine
 10
4.257780
 20
292.782707
 30
0.0
 11
21.062003
 21
292.782707
 31
0.0
  0
LINE
  5
101
100
AcDbEntity
  8
Ebene_1
 62
7
100
AcDbLine
 10
21.062003
 20
292.782707
 30
0.0
 11
21.062003
 21
281.875290
 31
0.0
  0
LINE
  5
102
100
AcDbEntity
  8
Ebene_1
 62
7
100
AcDbLine
 10
21.062003
 20
281.875290
 30
0.0
 11
4.257780
 21
281.875290
 31
0.0
  0
LINE
  5
103
100
AcDbEntity
  8
Ebene_1
 62
7
100
AcDbLine
 10
4.257780
 20
281.875290
 30
0.0
 11
4.257780
 21
292.782707
 31
0.0
  0
SPLINE
  5
104
100
AcDbEntity
  8
Ebene_1
 62
7
100
AcDbSpline
 70
8
 71
3
 72
8
 73
4
 74
0
 40
0
 40
0
 40
0
 40
0
 40
1
 40
1
 40
1
 40
1
 10
105.016329
 20
250.151179
 30
0.0
 10
78.529116
 20
250.151133
 30
0.0
 10
53.126772
 20
239.629073
 30
0.0
 10
34.397532
 20
220.899737
 30
0.0
  0
SPLINE
  5
105
100
AcDbEntity
  8
Ebene_1
 62
7
100
AcDbSpline
 70
8
 71
3
 72
8
 73
4
 74
0
 40
0
 40
0
 40
0
 40
0
 40
1
 40
1
 40
1
 40
1
 10
34.397532
 20
220.899737
 30
0.0
 10
15.668293
 20
202.170401
 30
0.0
 10
5.146365
 20
176.768002
 30
0.0
 10
5.146455
 20
150.280789
 30
0.0
  0
SPLINE
  5
106
100
AcDbEntity
  8
Ebene_1
 62
7
100
AcDbSpline
 70
8
 71
3
 72
8
 73
4
 74
0
 40
0
 40
0
 40
0
 40
0
 40
1
 40
1
 40
1
 40
1
 10
5.146455
 20
150.280789
 30
0.0
 10
5.146552
 20
95.124221
 30
0.0
 10
49.859761
 20
50.411012
 30
0.0
 10
105.016329
 20
50.410916
 30
0.0
  0
SPLINE
  5
107
100
AcDbEntity
  8
Ebene_1
 62
7
100
AcDbSpline
 70
8
 71
3
 72
8
 73
4
 74
0
 40
0
 40
0
 40
0
 40
0
 40
1
 40
1
 40
1
 40
1
 10
105.016329
 20
50.410916
 30
0.0
 10
160.172898
 20
50.411011
 30
0.0
 10
204.886108
 20
95.124220
 30
0.0
 10
204.886204
 20
150.280789
 30
0.0
  0
SPLINE
  5
108
100
AcDbEntity
  8
Ebene_1
 62
7
100
AcDbSpline
 70
8
 71
3
 72
8
 73
4
 74
0
 40
0
 40
0
 40
0
 40
0
 40
1
 40
1
 40
1
 40
1
 10
204.886204
 20
150.280789
 30
0.0
 10
204.886295
 20
176.768002
 30
0.0
 10
194.364366
 20
202.170402
 30
0.0
 10
175.635126
 20
220.899738
 30
0.0
  0
SPLINE
  5
109
100
AcDbEntity
  8
Ebene_1
 62
7
100
AcDbSpline
 70
8
 71
3
 72
8
 73
4
 74
0
 40
0
 40
0
 40
0
 40
0
 40
1
 40
1
 40
1
 40
1
 10
175.635126
 20
220.899738
 30
0.0
 10
156.905887
 20
239.629074
 30
0.0
 10
131.503542
 20
250.151134
 30
0.0
 10
105.016329
 20
250.151179
 30
0.0
  0
LINE
  5
10a
100
AcDbEntity
  8
Ebene_1
 62
7
100
AcDbLine
 10
105.016329
 20
250.151179
 30
0.0
 11
105.016329
 21
250.151179
 31
0.0
  0
LINE
  5
10b
100
AcDbEntity
  8
Ebene_1
 62
7
100
AcDbLine
 10
92.404696
 20
244.226994
 30
0.0
 11
117.654311
 21
244.226994
 31
0.0
  0
SPLINE
  5
10c
100
AcDbEntity
  8
Ebene_1
 62
7
100
AcDbSpline
 70
8
 71
3
 72
8
 73
4
 74
0
 40
0
 40
0
 40
0
 40
0
 40
1
 40
1
 40
1
 40
1
 10
117.654311
 20
244.226994
 30
0.0
 10
117.912494
 20
244.085539
 30
0.0
 10
118.168496
 20
243.940140
 30
0.0
 10
118.422226
 20
243.790845
 30
0.0
  0
LINE
  5
10d
100
AcDbEntity
  8
Ebene_1
 62
7
100
AcDbLine
 10
118.422226
 20
243.790845
 30
0.0
 11
91.638851
 21
243.790845
 31
0.0
  0
SPLINE
  5
10e
100
AcDbEntity
  8
Ebene_1
 62
7
100
AcDbSpline
 70
8
 71
3
 72
8
 73
4
 74
0
 40
0
 40
0
 40
0
 40
0
 40
1
 40
1
 40
1
 40
1
 10
91.638851
 20
243.790845
 30
0.0
 10
91.891896
 20
243.940121
 30
0.0
 10
92.147207
 20
244.085521
 30
0.0
 10
92.404696
 20
244.226994
 30
0.0
  0
LINE
  5
10f
100
AcDbEntity
  8
Ebene_1
 62
7
100
AcDbLine
 10
92.404696
 20
244.226994
 30
0.0
 11
92.404696
 21
244.226994
 31
0.0
  0
SPLINE
  5
110
100
AcDbEntity
  8
Ebene_1
 62
7
100
AcDbSpline
 70
8
 71
3
 72
8
 73
4
 74
0
 40
0
 40
0
 40
0
 40
0
 40
1
 40
1
 40
1
 40
1
 10
125.105547
 20
243.005363
 30
0.0
 10
168.750047
 20
233.549571
 30
0.0
 10
199.892386
 20
194.937865
 30
0.0
 10
199.892716
 20
150.280789
 30
0.0
  0
SPLINE
  5
111
100
AcDbEntity
  8
Ebene_1
 62
7
100
AcDbSpline
 70
8
 71
3
 72
8
 73
4
 74
0
 40
0
 40
0
 40
0
 40
0
 40
1
 40
1
 40
1
 40
1
 10
199.892716
 20
150.280789
 30
0.0
 10
199.892622
 20
97.882048
 30
0.0
 10
157.415070
 20
55.404500
 30
0.0
 10
105.016329
 20
55.404411
 30
0.0
  0
SPLINE
  5
112
100
AcDbEntity
  8
Ebene_1
 62
7
100
AcDbSpline
 70
8
 71
3
 72
8
 73
4
 74
0
 40
0
 40
0
 40
0
 40
0
 40
1
 40
1
 40
1
 40
1
 10
105.016329
 20
55.404411
 30
0.0
 10
52.617591
 20
55.404505
 30
0.0
 10
10.140044
 20
97.882051
 30
0.0
 10
10.139950
 20
150.280789
 30
0.0
  0
SPLINE
  5
113
100
AcDbEntity
  8
Ebene_1
 62
7
100
AcDbSpline
 70
8
 71
3
 72
8
 73
4
 74
0
 40
0
 40
0
 40
0
 40
0
 40
1
 40
1
 40
1
 40
1
 10
10.139950
 20
150.280789
 30
0.0
 10
10.144053
 20
194.936245
 30
0.0
 10
41.287447
 20
233.544380
 30
0.0
 10
84.930733
 20
242.998128
 30
0.0
  0
SPLINE
  5
114
100
AcDbEntity
  8
Ebene_1
 62
7
100
AcDbSpline
 70
8
 71
3
 72
8
 73
4
 74
0
 40
0
 40
0
 40
0
 40
0
 40
1
 40
1
 40
1
 40
1
 10
84.930733
 20
242.998128
 30
0.0
 10
77.507341
 20
236.957724
 30
0.0
 10
73.196480
 20
227.897229
 30
0.0
 10
73.192432
 20
218.326766
 30
0.0
  0
SPLINE
  5
115
100
AcDbEntity
  8
Ebene_1
 62
7
100
AcDbSpline
 70
8
 71
3
 72
8
 73
4
 74
0
 40
0
 40
0
 40
0
 40
0
 40
1
 40
1
 40
1
 40
1
 10
73.192432
 20
218.326766
 30
0.0
 10
73.192353
 20
200.750734
 30
0.0
 10
87.440386
 20
186.502470
 30
0.0
 10
105.016329
 20
186.502352
 30
0.0
  0
SPLINE
  5
116
100
AcDbEntity
  8
Ebene_1
 62
7
100
AcDbSpline
 70
8
 71
3
 72
8
 73
4
 74
0
 40
0
 40
0
 40
0
 40
0
 40
1
 40
1
 40
1
 40
1
 10
105.016329
 20
186.502352
 30
0.0
 10
113.456686
 20
186.502269
 30
0.0
 10
121.551376
 20
189.855156
 30
0.0
 10
127.519626
 20
195.823405
 30
0.0
  0
SPLINE
  5
117
100
AcDbEntity
  8
Ebene_1
 62
7
100
AcDbSpline
 70
8
 71
3
 72
8
 73
4
 74
0
 40
0
 40
0
 40
0
 40
0
 40
1
 40
1
 40
1
 40
1
 10
127.519626
 20
195.823405
 30
0.0
 10
133.487876
 20
201.791653
 30
0.0
 10
136.840791
 20
209.886365
 30
0.0
 10
136.840753
 20
218.326766
 30
0.0
  0
SPLINE
  5
118
100
AcDbEntity
  8
Ebene_1
 62
7
100
AcDbSpline
 70
8
 71
3
 72
8
 73
4
 74
0
 40
0
 40
0
 40
0
 40
0
 40
1
 40
1
 40
1
 40
1
 10
136.840753
 20
218.326766
 30
0.0
 10
136.839638
 20
227.899249
 30
0.0
 10
132.529746
 20
236.962753
 30
0.0
 10
125.105547
 20
243.005363
 30
0.0
  0
LINE
  5
119
100
AcDbEntity
  8
Ebene_1
 62
7
100
AcDbLine
 10
125.105547
 20
243.005363
 30
0.0
 11
125.105547
 21
243.005363
 31
0.0
  0
LINE
  5
11a
100
AcDbEntity
  8
Ebene_1
 62
7
100
AcDbLine
 10
88.130538
 20
241.611133
 30
0.0
 11
121.923305
 21
241.611133
 31
0.0
  0
SPLINE
  5
11b
100
AcDbEntity
  8
Ebene_1
 62
7
100
AcDbSpline
 70
8
 71
3
 72
8
 73
4
 74
0
 40
0
 40
0
 40
0
 40
0
 40
1
 40
1
 40
1
 40
1
 10
121.923305
 20
241.611133
 30
0.0
 10
122.113372
 20
241.468086
 30
0.0
 10
122.301661
 20
241.322692
 30
0.0
 10
122.488130
 20
241.174985
 30
0.0
  0
LINE
  5
11c
100
AcDbEntity
  8
Ebene_1
 62
7
100
AcDbLine
 10
122.488130
 20
241.174985
 30
0.0
 11
87.566748
 21
241.174985
 31
0.0
  0
SPLINE
  5
11d
100
AcDbEntity
  8
Ebene_1
 62
7
100
AcDbSpline
 70
8
 71
3
 72
8
 73
4
 74
0
 40
0
 40
0
 40
0
 40
0
 40
1
 40
1
 40
1
 40
1
 10
87.566748
 20
241.174985
 30
0.0
 10
87.752874
 20
241.322685
 30
0.0
 10
87.940818
 20
241.468079
 30
0.0
 10
88.130538
 20
241.611133
 30
0.0
  0
LINE
  5
11e
100
AcDbEntity
  8
Ebene_1
 62
7
100
AcDbLine
 10
88.130538
 20
241.611133
 30
0.0
 11
88.130538
 21
241.611133
 31
0.0
  0
LINE
  5
11f
100
AcDbEntity
  8
Ebene_1
 62
7
100
AcDbLine
 10
85.012898
 20
238.995272
 30
0.0
 11
125.035772
 21
238.995272
 31
0.0
  0
SPLINE
  5
120
100
AcDbEntity
  8
Ebene_1
 62
7
100
AcDbSpline
 70
8
 71
3
 72
8
 73
4
 74
0
 40
0
 40
0
 40
0
 40
0
 40
1
 40
1
 40
1
 40
1
 10
125.035772
 20
238.995272
 30
0.0
 10
125.179067
 20
238.851562
 30
0.0
 10
125.320841
 20
238.706342
 30
0.0
 10
125.461069
 20
238.559639
 30
0.0
  0
LINE
  5
121
100
AcDbEntity
  8
Ebene_1
 62
7
100
AcDbLine
 10
125.461069
 20
238.559639
 30
0.0
 11
84.588636
 21
238.559639
 31
0.0
  0
SPLINE
  5
122
100
AcDbEntity
  8
Ebene_1
 62
7
100
AcDbSpline
 70
8
 71
3
 72
8
 73
4
 74
0
 40
0
 40
0
 40
0
 40
0
 40
1
 40
1
 40
1
 40
1
 10
84.588636
 20
238.559639
 30
0.0
 10
84.728521
 20
238.706337
 30
0.0
 10
84.869950
 20
238.851556
 30
0.0
 10
85.012898
 20
238.995272
 30
0.0
  0
LINE
  5
123
100
AcDbEntity
  8
Ebene_1
 62
7
100
AcDbLine
 10
85.012898
 20
238.995272
 30
0.0
 11
85.012898
 21
238.995272
 31
0.0
  0
LINE
  5
124
100
AcDbEntity
  8
Ebene_1
 62
7
100
AcDbLine
 10
82.598059
 20
236.379412
 30
0.0
 11
127.446480
 21
236.379412
 31
0.0
  0
SPLINE
  5
125
100
AcDbEntity
  8
Ebene_1
 62
7
100
AcDbSpline
 70
8
 71
3
 72
8
 73
4
 74
0
 40
0
 40
0
 40
0
 40
0
 40
1
 40
1
 40
1
 40
1
 10
127.446480
 20
236.379412
 30
0.0
 10
127.554291
 20
236.235201
 30
0.0
 10
127.660749
 20
236.089983
 30
0.0
 10
127.765840
 20
235.943778
 30
0.0
  0
LINE
  5
126
100
AcDbEntity
  8
Ebene_1
 62
7
100
AcDbLine
 10
127.765840
 20
235.943778
 30
0.0
 11
82.279216
 21
235.943778
 31
0.0
  0
SPLINE
  5
127
100
AcDbEntity
  8
Ebene_1
 62
7
100
AcDbSpline
 70
8
 71
3
 72
8
 73
4
 74
0
 40
0
 40
0
 40
0
 40
0
 40
1
 40
1
 40
1
 40
1
 10
82.279216
 20
235.943778
 30
0.0
 10
82.384135
 20
236.089981
 30
0.0
 10
82.490421
 20
236.235199
 30
0.0
 10
82.598059
 20
236.379412
 30
0.0
  0
LINE
  5
128
100
AcDbEntity
  8
Ebene_1
 62
7
100
AcDbLine
 10
82.598059
 20
236.379412
 30
0.0
 11
82.598059
 21
236.379412
 31
0.0
  0
LINE
  5
129
100
AcDbEntity
  8
Ebene_1
 62
7
100
AcDbLine
 10
80.682931
 20
233.764066
 30
0.0
 11
129.363163
 21
233.764066
 31
0.0
  0
SPLINE
  5
12a
100
AcDbEntity
  8
Ebene_1
 62
7
100
AcDbSpline
 70
8
 71
3
 72
8
 73
4
 74
0
 40
0
 40
0
 40
0
 40
0
 40
1
 40
1
 40
1
 40
1
 10
129.363163
 20
233.764066
 30
0.0
 10
129.446937
 20
233.619403
 30
0.0
 10
129.529453
 20
233.474015
 30
0.0
 10
129.610699
 20
233.327917
 30
0.0
  0
LINE
  5
12b
100
AcDbEntity
  8
Ebene_1
 62
7
100
AcDbLine
 10
129.610699
 20
233.327917
 30
0.0
 11
80.430749
 21
233.327917
 31
0.0
  0
SPLINE
  5
12c
100
AcDbEntity
  8
Ebene_1
 62
7
100
AcDbSpline
 70
8
 71
3
 72
8
 73
4
 74
0
 40
0
 40
0
 40
0
 40
0
 40
1
 40
1
 40
1
 40
1
 10
80.430749
 20
233.327917
 30
0.0
 10
80.513538
 20
233.474032
 30
0.0
 10
80.597602
 20
233.619420
 30
0.0
 10
80.682931
 20
233.764066
 30
0.0
  0
LINE
  5
12d
100
AcDbEntity
  8
Ebene_1
 62
7
100
AcDbLine
 10
80.682931
 20
233.764066
 30
0.0
 11
80.682931
 21
233.764066
 31
0.0
  0
LINE
  5
12e
100
AcDbEntity
  8
Ebene_1
 62
7
100
AcDbLine
 10
79.263378
 20
231.148205
 30
0.0
 11
130.779106
 21
231.148205
 31
0.0
  0
SPLINE
  5
12f
100
AcDbEntity
  8
Ebene_1
 62
7
100
AcDbSpline
 70
8
 71
3
 72
8
 73
4
 74
0
 40
0
 40
0
 40
0
 40
0
 40
1
 40
1
 40
1
 40
1
 10
130.779106
 20
231.148205
 30
0.0
 10
130.858206
 20
231.003493
 30
0.0
 10
130.936063
 20
230.858105
 30
0.0
 10
131.012669
 20
230.712057
 30
0.0
  0
LINE
  5
130
100
AcDbEntity
  8
Ebene_1
 62
7
100
AcDbLine
 10
131.012669
 20
230.712057
 30
0.0
 11
79.029285
 21
230.712057
 31
0.0
  0
SPLINE
  5
131
100
AcDbEntity
  8
Ebene_1
 62
7
100
AcDbSpline
 70
8
 71
3
 72
8
 73
4
 74
0
 40
0
 40
0
 40
0
 40
0
 40
1
 40
1
 40
1
 40
1
 10
79.029285
 20
230.712057
 30
0.0
 10
79.106066
 20
230.858107
 30
0.0
 10
79.184100
 20
231.003495
 30
0.0
 10
79.263378
 20
231.148205
 30
0.0
  0
LINE
  5
132
100
AcDbEntity
  8
Ebene_1
 62
7
100
AcDbLine
 10
79.263378
 20
231.148205
 30
0.0
 11
79.263378
 21
231.148205
 31
0.0
  0
LINE
  5
133
100
AcDbEntity
  8
Ebene_1
 62
7
100
AcDbLine
 10
78.128047
 20
228.532344
 30
0.0
 11
131.910805
 21
228.532344
 31
0.0
  0
SPLINE
  5
134
100
AcDbEntity
  8
Ebene_1
 62
7
100
AcDbSpline
 70
8
 71
3
 72
8
 73
4
 74
0
 40
0
 40
0
 40
0
 40
0
 40
1
 40
1
 40
1
 40
1
 10
131.910805
 20
228.532344
 30
0.0
 10
131.965380
 20
228.387394
 30
0.0
 10
132.018786
 20
228.242007
 30
0.0
 10
132.071019
 20
228.096196
 30
0.0
  0
LINE
  5
135
100
AcDbEntity
  8
Ebene_1
 62
7
100
AcDbLine
 10
132.071019
 20
228.096196
 30
0.0
 11
77.967851
 21
228.096196
 31
0.0
  0
SPLINE
  5
136
100
AcDbEntity
  8
Ebene_1
 62
7
100
AcDbSpline
 70
8
 71
3
 72
8
 73
4
 74
0
 40
0
 40
0
 40
0
 40
0
 40
1
 40
1
 40
1
 40
1
 10
77.967851
 20
228.096196
 30
0.0
 10
78.020077
 20
228.242007
 30
0.0
 10
78.073478
 20
228.387394
 30
0.0
 10
78.128047
 20
228.532344
 30
0.0
  0
LINE
  5
137
100
AcDbEntity
  8
Ebene_1
 62
7
100
AcDbLine
 10
78.128047
 20
228.532344
 30
0.0
 11
78.128047
 21
228.532344
 31
0.0
  0
LINE
  5
138
100
AcDbEntity
  8
Ebene_1
 62
7
100
AcDbLine
 10
77.228878
 20
225.916484
 30
0.0
 11
132.807393
 21
225.916484
 31
0.0
  0
SPLINE
  5
139
100
AcDbEntity
  8
Ebene_1
 62
7
100
AcDbSpline
 70
8
 71
3
 72
8
 73
4
 74
0
 40
0
 40
0
 40
0
 40
0
 40
1
 40
1
 40
1
 40
1
 10
132.807393
 20
225.916484
 30
0.0
 10
132.839692
 20
225.771516
 30
0.0
 10
132.870872
 20
225.626302
 30
0.0
 10
132.900927
 20
225.480852
 30
0.0
  0
LINE
  5
13a
100
AcDbEntity
  8
Ebene_1
 62
7
100
AcDbLine
 10
132.900927
 20
225.480852
 30
0.0
 11
77.135861
 21
225.480852
 31
0.0
  0
SPLINE
  5
13b
100
AcDbEntity
  8
Ebene_1
 62
7
100
AcDbSpline
 70
8
 71
3
 72
8
 73
4
 74
0
 40
0
 40
0
 40
0
 40
0
 40
1
 40
1
 40
1
 40
1
 10
77.135861
 20
225.480852
 30
0.0
 10
77.165744
 20
225.626300
 30
0.0
 10
77.196751
 20
225.771515
 30
0.0
 10
77.228878
 20
225.916484
 30
0.0
  0
LINE
  5
13c
100
AcDbEntity
  8
Ebene_1
 62
7
100
AcDbLine
 10
77.228878
 20
225.916484
 30
0.0
 11
77.228878
 21
225.916484
 31
0.0
  0
LINE
  5
13d
100
AcDbEntity
  8
Ebene_1
 62
7
100
AcDbLine
 10
76.668705
 20
223.301140
 30
0.0
 11
133.367575
 21
223.301140
 31
0.0
  0
SPLINE
  5
13e
100
AcDbEntity
  8
Ebene_1
 62
7
100
AcDbSpline
 70
8
 71
3
 72
8
 73
4
 74
0
 40
0
 40
0
 40
0
 40
0
 40
1
 40
1
 40
1
 40
1
 10
133.367575
 20
223.301140
 30
0.0
 10
133.399703
 20
223.155998
 30
0.0
 10
133.430707
 20
223.010611
 30
0.0
 10
133.460586
 20
222.864990
 30
0.0
  0
LINE
  5
13f
100
AcDbEntity
  8
Ebene_1
 62
7
100
AcDbLine
 10
133.460586
 20
222.864990
 30
0.0
 11
76.575170
 21
222.864990
 31
0.0
  0
SPLINE
  5
140
100
AcDbEntity
  8
Ebene_1
 62
7
100
AcDbSpline
 70
8
 71
3
 72
8
 73
4
 74
0
 40
0
 40
0
 40
0
 40
0
 40
1
 40
1
 40
1
 40
1
 10
76.575170
 20
222.864990
 30
0.0
 10
76.605224
 20
223.010612
 30
0.0
 10
76.636403
 20
223.156000
 30
0.0
 10
76.668705
 20
223.301140
 30
0.0
  0
LINE
  5
141
100
AcDbEntity
  8
Ebene_1
 62
7
100
AcDbLine
 10
76.668705
 20
223.301140
 30
0.0
 11
76.668705
 21
223.301140
 31
0.0
  0
LINE
  5
142
100
AcDbEntity
  8
Ebene_1
 62
7
100
AcDbLine
 10
76.347795
 20
220.685279
 30
0.0
 11
133.685889
 21
220.685279
 31
0.0
  0
SPLINE
  5
143
100
AcDbEntity
  8
Ebene_1
 62
7
100
AcDbSpline
 70
8
 71
3
 72
8
 73
4
 74
0
 40
0
 40
0
 40
0
 40
0
 40
1
 40
1
 40
1
 40
1
 10
133.685889
 20
220.685279
 30
0.0
 10
133.697330
 20
220.539976
 30
0.0
 10
133.707670
 20
220.394589
 30
0.0
 10
133.716907
 20
220.249129
 30
0.0
  0
LINE
  5
144
100
AcDbEntity
  8
Ebene_1
 62
7
100
AcDbLine
 10
133.716907
 20
220.249129
 30
0.0
 11
76.316788
 21
220.249129
 31
0.0
  0
SPLINE
  5
145
100
AcDbEntity
  8
Ebene_1
 62
7
100
AcDbSpline
 70
8
 71
3
 72
8
 73
4
 74
0
 40
0
 40
0
 40
0
 40
0
 40
1
 40
1
 40
1
 40
1
 10
76.316788
 20
220.249129
 30
0.0
 10
76.326021
 20
220.394589
 30
0.0
 10
76.336357
 20
220.539976
 30
0.0
 10
76.347795
 20
220.685279
 30
0.0
  0
LINE
  5
146
100
AcDbEntity
  8
Ebene_1
 62
7
100
AcDbLine
 10
76.347795
 20
220.685279
 30
0.0
 11
76.347795
 21
220.685279
 31
0.0
  0
LINE
  5
147
100
AcDbEntity
  8
Ebene_1
 62
7
100
AcDbLine
 10
76.198966
 20
218.069417
 30
0.0
 11
133.846103
 21
218.069417
 31
0.0
  0
SPLINE
  5
148
100
AcDbEntity
  8
Ebene_1
 62
7
100
AcDbSpline
 70
8
 71
3
 72
8
 73
4
 74
0
 40
0
 40
0
 40
0
 40
0
 40
1
 40
1
 40
1
 40
1
 10
133.846103
 20
218.069417
 30
0.0
 10
133.843751
 20
217.924010
 30
0.0
 10
133.840300
 20
217.778623
 30
0.0
 10
133.835749
 20
217.633268
 30
0.0
  0
LINE
  5
149
100
AcDbEntity
  8
Ebene_1
 62
7
100
AcDbLine
 10
133.835749
 20
217.633268
 30
0.0
 11
76.229971
 21
217.633268
 31
0.0
  0
SPLINE
  5
14a
100
AcDbEntity
  8
Ebene_1
 62
7
100
AcDbSpline
 70
8
 71
3
 72
8
 73
4
 74
0
 40
0
 40
0
 40
0
 40
0
 40
1
 40
1
 40
1
 40
1
 10
76.229971
 20
217.633268
 30
0.0
 10
76.218534
 20
217.778571
 30
0.0
 10
76.208199
 20
217.923958
 30
0.0
 10
76.198966
 20
218.069417
 30
0.0
  0
LINE
  5
14b
100
AcDbEntity
  8
Ebene_1
 62
7
100
AcDbLine
 10
76.198966
 20
218.069417
 30
0.0
 11
76.198966
 21
218.069417
 31
0.0
  0
LINE
  5
14c
100
AcDbEntity
  8
Ebene_1
 62
7
100
AcDbLine
 10
76.386035
 20
215.453556
 30
0.0
 11
133.705529
 21
215.453556
 31
0.0
  0
SPLINE
  5
14d
100
AcDbEntity
  8
Ebene_1
 62
7
100
AcDbSpline
 70
8
 71
3
 72
8
 73
4
 74
0
 40
0
 40
0
 40
0
 40
0
 40
1
 40
1
 40
1
 40
1
 10
133.705529
 20
215.453556
 30
0.0
 10
133.689413
 20
215.308217
 30
0.0
 10
133.672192
 20
215.163002
 30
0.0
 10
133.653868
 20
215.017924
 30
0.0
  0
LINE
  5
14e
100
AcDbEntity
  8
Ebene_1
 62
7
100
AcDbLine
 10
133.653868
 20
215.017924
 30
0.0
 11
76.417040
 21
215.017924
 31
0.0
  0
SPLINE
  5
14f
100
AcDbEntity
  8
Ebene_1
 62
7
100
AcDbSpline
 70
8
 71
3
 72
8
 73
4
 74
0
 40
0
 40
0
 40
0
 40
0
 40
1
 40
1
 40
1
 40
1
 10
76.417040
 20
215.017924
 30
0.0
 10
76.405606
 20
215.163055
 30
0.0
 10
76.395270
 20
215.308269
 30
0.0
 10
76.386035
 20
215.453556
 30
0.0
  0
LINE
  5
150
100
AcDbEntity
  8
Ebene_1
 62
7
100
AcDbLine
 10
76.386035
 20
215.453556
 30
0.0
 11
76.386035
 21
215.453556
 31
0.0
  0
LINE
  5
151
100
AcDbEntity
  8
Ebene_1
 62
7
100
AcDbLine
 10
76.775159
 20
212.838212
 30
0.0
 11
133.324677
 21
212.838212
 31
0.0
  0
SPLINE
  5
152
100
AcDbEntity
  8
Ebene_1
 62
7
100
AcDbSpline
 70
8
 71
3
 72
8
 73
4
 74
0
 40
0
 40
0
 40
0
 40
0
 40
1
 40
1
 40
1
 40
1
 10
133.324677
 20
212.838212
 30
0.0
 10
133.294109
 20
212.692586
 30
0.0
 10
133.262414
 20
212.547199
 30
0.0
 10
133.229595
 20
212.402064
 30
0.0
  0
LINE
  5
153
100
AcDbEntity
  8
Ebene_1
 62
7
100
AcDbLine
 10
133.229595
 20
212.402064
 30
0.0
 11
76.869727
 21
212.402064
 31
0.0
  0
SPLINE
  5
154
100
AcDbEntity
  8
Ebene_1
 62
7
100
AcDbSpline
 70
8
 71
3
 72
8
 73
4
 74
0
 40
0
 40
0
 40
0
 40
0
 40
1
 40
1
 40
1
 40
1
 10
76.869727
 20
212.402064
 30
0.0
 10
76.837079
 20
212.547200
 30
0.0
 10
76.805556
 20
212.692588
 30
0.0
 10
76.775159
 20
212.838212
 30
0.0
  0
LINE
  5
155
100
AcDbEntity
  8
Ebene_1
 62
7
100
AcDbLine
 10
76.775159
 20
212.838212
 30
0.0
 11
76.775159
 21
212.838212
 31
0.0
  0
LINE
  5
156
100
AcDbEntity
  8
Ebene_1
 62
7
100
AcDbLine
 10
77.344117
 20
210.222351
 30
0.0
 11
132.689576
 21
210.222351
 31
0.0
  0
SPLINE
  5
157
100
AcDbEntity
  8
Ebene_1
 62
7
100
AcDbSpline
 70
8
 71
3
 72
8
 73
4
 74
0
 40
0
 40
0
 40
0
 40
0
 40
1
 40
1
 40
1
 40
1
 10
132.689576
 20
210.222351
 30
0.0
 10
132.644562
 20
210.076604
 30
0.0
 10
132.598393
 20
209.931216
 30
0.0
 10
132.551072
 20
209.786201
 30
0.0
  0
LINE
  5
158
100
AcDbEntity
  8
Ebene_1
 62
7
100
AcDbLine
 10
132.551072
 20
209.786201
 30
0.0
 11
77.503797
 21
209.786201
 31
0.0
  0
SPLINE
  5
159
100
AcDbEntity
  8
Ebene_1
 62
7
100
AcDbSpline
 70
8
 71
3
 72
8
 73
4
 74
0
 40
0
 40
0
 40
0
 40
0
 40
1
 40
1
 40
1
 40
1
 10
77.503797
 20
209.786201
 30
0.0
 10
77.449400
 20
209.931153
 30
0.0
 10
77.396172
 20
210.076542
 30
0.0
 10
77.344117
 20
210.222351
 30
0.0
  0
LINE
  5
15a
100
AcDbEntity
  8
Ebene_1
 62
7
100
AcDbLine
 10
77.344117
 20
210.222351
 30
0.0
 11
77.344117
 21
210.222351
 31
0.0
  0
LINE
  5
15b
100
AcDbEntity
  8
Ebene_1
 62
7
100
AcDbLine
 10
78.316666
 20
207.606491
 30
0.0
 11
131.785228
 21
207.606491
 31
0.0
  0
SPLINE
  5
15c
100
AcDbEntity
  8
Ebene_1
 62
7
100
AcDbSpline
 70
8
 71
3
 72
8
 73
4
 74
0
 40
0
 40
0
 40
0
 40
0
 40
1
 40
1
 40
1
 40
1
 10
131.785228
 20
207.606491
 30
0.0
 10
131.724243
 20
207.460598
 30
0.0
 10
131.662059
 20
207.315210
 30
0.0
 10
131.598682
 20
207.170340
 30
0.0
  0
LINE
  5
15d
100
AcDbEntity
  8
Ebene_1
 62
7
100
AcDbLine
 10
131.598682
 20
207.170340
 30
0.0
 11
78.479448
 21
207.170340
 31
0.0
  0
SPLINE
  5
15e
100
AcDbEntity
  8
Ebene_1
 62
7
100
AcDbSpline
 70
8
 71
3
 72
8
 73
4
 74
0
 40
0
 40
0
 40
0
 40
0
 40
1
 40
1
 40
1
 40
1
 10
78.479448
 20
207.170340
 30
0.0
 10
78.424014
 20
207.315284
 30
0.0
 10
78.369752
 20
207.460672
 30
0.0
 10
78.316666
 20
207.606491
 30
0.0
  0
LINE
  5
15f
100
AcDbEntity
  8
Ebene_1
 62
7
100
AcDbLine
 10
78.316666
 20
207.606491
 30
0.0
 11
78.316666
 21
207.606491
 31
0.0
  0
LINE
  5
160
100
AcDbEntity
  8
Ebene_1
 62
7
100
AcDbLine
 10
79.527446
 20
204.990628
 30
0.0
 11
130.580135
 21
204.990628
 31
0.0
  0
SPLINE
  5
161
100
AcDbEntity
  8
Ebene_1
 62
7
100
AcDbSpline
 70
8
 71
3
 72
8
 73
4
 74
0
 40
0
 40
0
 40
0
 40
0
 40
1
 40
1
 40
1
 40
1
 10
130.580135
 20
204.990628
 30
0.0
 10
130.501977
 20
204.844737
 30
0.0
 10
130.422565
 20
204.699521
 30
0.0
 10
130.341907
 20
204.554996
 30
0.0
  0
LINE
  5
162
100
AcDbEntity
  8
Ebene_1
 62
7
100
AcDbLine
 10
130.341907
 20
204.554996
 30
0.0
 11
79.765157
 21
204.554996
 31
0.0
  0
SPLINE
  5
163
100
AcDbEntity
  8
Ebene_1
 62
7
100
AcDbSpline
 70
8
 71
3
 72
8
 73
4
 74
0
 40
0
 40
0
 40
0
 40
0
 40
1
 40
1
 40
1
 40
1
 10
79.765157
 20
204.554996
 30
0.0
 10
79.684672
 20
204.699522
 30
0.0
 10
79.605432
 20
204.844738
 30
0.0
 10
79.527446
 20
204.990628
 30
0.0
  0
LINE
  5
164
100
AcDbEntity
  8
Ebene_1
 62
7
100
AcDbLine
 10
79.527446
 20
204.990628
 30
0.0
 11
79.527446
 21
204.990628
 31
0.0
  0
LINE
  5
165
100
AcDbEntity
  8
Ebene_1
 62
7
100
AcDbLine
 10
81.029163
 20
202.374768
 30
0.0
 11
129.029852
 21
202.374768
 31
0.0
  0
SPLINE
  5
166
100
AcDbEntity
  8
Ebene_1
 62
7
100
AcDbSpline
 70
8
 71
3
 72
8
 73
4
 74
0
 40
0
 40
0
 40
0
 40
0
 40
1
 40
1
 40
1
 40
1
 10
129.029852
 20
202.374768
 30
0.0
 10
128.932820
 20
202.228663
 30
0.0
 10
128.834457
 20
202.083446
 30
0.0
 10
128.734775
 20
201.939136
 30
0.0
  0
LINE
  5
167
100
AcDbEntity
  8
Ebene_1
 62
7
100
AcDbLine
 10
128.734775
 20
201.939136
 30
0.0
 11
81.355241
 21
201.939136
 31
0.0
  0
SPLINE
  5
168
100
AcDbEntity
  8
Ebene_1
 62
7
100
AcDbSpline
 70
8
 71
3
 72
8
 73
4
 74
0
 40
0
 40
0
 40
0
 40
0
 40
1
 40
1
 40
1
 40
1
 10
81.355241
 20
201.939136
 30
0.0
 10
81.245180
 20
202.083318
 30
0.0
 10
81.136483
 20
202.228535
 30
0.0
 10
81.029163
 20
202.374768
 30
0.0
  0
LINE
  5
169
100
AcDbEntity
  8
Ebene_1
 62
7
100
AcDbLine
 10
81.029163
 20
202.374768
 30
0.0
 11
81.029163
 21
202.374768
 31
0.0
  0
LINE
  5
16a
100
AcDbEntity
  8
Ebene_1
 62
7
100
AcDbLine
 10
82.986666
 20
199.759424
 30
0.0
 11
127.070272
 21
199.759424
 31
0.0
  0
SPLINE
  5
16b
100
AcDbEntity
  8
Ebene_1
 62
7
100
AcDbSpline
 70
8
 71
3
 72
8
 73
4
 74
0
 40
0
 40
0
 40
0
 40
0
 40
1
 40
1
 40
1
 40
1
 10
127.070272
 20
199.759424
 30
0.0
 10
126.948385
 20
199.612821
 30
0.0
 10
126.825046
 20
199.467431
 30
0.0
 10
126.700276
 20
199.323275
 30
0.0
  0
LINE
  5
16c
100
AcDbEntity
  8
Ebene_1
 62
7
100
AcDbLine
 10
126.700276
 20
199.323275
 30
0.0
 11
83.343233
 21
199.323275
 31
0.0
  0
SPLINE
  5
16d
100
AcDbEntity
  8
Ebene_1
 62
7
100
AcDbSpline
 70
8
 71
3
 72
8
 73
4
 74
0
 40
0
 40
0
 40
0
 40
0
 40
1
 40
1
 40
1
 40
1
 10
83.343233
 20
199.323275
 30
0.0
 10
83.222960
 20
199.467493
 30
0.0
 10
83.104099
 20
199.612883
 30
0.0
 10
82.986666
 20
199.759424
 30
0.0
  0
LINE
  5
16e
100
AcDbEntity
  8
Ebene_1
 62
7
100
AcDbLine
 10
82.986666
 20
199.759424
 30
0.0
 11
82.986666
 21
199.759424
 31
0.0
  0
LINE
  5
16f
100
AcDbEntity
  8
Ebene_1
 62
7
100
AcDbLine
 10
85.522945
 20
197.143563
 30
0.0
 11
124.570694
 21
197.143563
 31
0.0
  0
SPLINE
  5
170
100
AcDbEntity
  8
Ebene_1
 62
7
100
AcDbSpline
 70
8
 71
3
 72
8
 73
4
 74
0
 40
0
 40
0
 40
0
 40
0
 40
1
 40
1
 40
1
 40
1
 10
124.570694
 20
197.143563
 30
0.0
 10
124.412309
 20
196.996385
 30
0.0
 10
124.252274
 20
196.850992
 30
0.0
 10
124.090619
 20
196.707414
 30
0.0
  0
LINE
  5
171
100
AcDbEntity
  8
Ebene_1
 62
7
100
AcDbLine
 10
124.090619
 20
196.707414
 30
0.0
 11
85.959095
 21
196.707414
 31
0.0
  0
SPLINE
  5
172
100
AcDbEntity
  8
Ebene_1
 62
7
100
AcDbSpline
 70
8
 71
3
 72
8
 73
4
 74
0
 40
0
 40
0
 40
0
 40
0
 40
1
 40
1
 40
1
 40
1
 10
85.959095
 20
196.707414
 30
0.0
 10
85.812161
 20
196.851238
 30
0.0
 10
85.666769
 20
196.996629
 30
0.0
 10
85.522945
 20
197.143563
 30
0.0
  0
LINE
  5
173
100
AcDbEntity
  8
Ebene_1
 62
7
100
AcDbLine
 10
85.522945
 20
197.143563
 30
0.0
 11
85.522945
 21
197.143563
 31
0.0
  0
LINE
  5
174
100
AcDbEntity
  8
Ebene_1
 62
7
100
AcDbLine
 10
88.812668
 20
194.527702
 30
0.0
 11
121.284585
 21
194.527702
 31
0.0
  0
SPLINE
  5
175
100
AcDbEntity
  8
Ebene_1
 62
7
100
AcDbSpline
 70
8
 71
3
 72
8
 73
4
 74
0
 40
0
 40
0
 40
0
 40
0
 40
1
 40
1
 40
1
 40
1
 10
121.284585
 20
194.527702
 30
0.0
 10
121.072097
 20
194.379608
 30
0.0
 10
120.857623
 20
194.234384
 30
0.0
 10
120.641222
 20
194.092070
 30
0.0
  0
LINE
  5
176
100
AcDbEntity
  8
Ebene_1
 62
7
100
AcDbLine
 10
120.641222
 20
194.092070
 30
0.0
 11
89.395060
 21
194.092070
 31
0.0
  0
SPLINE
  5
177
100
AcDbEntity
  8
Ebene_1
 62
7
100
AcDbSpline
 70
8
 71
3
 72
8
 73
4
 74
0
 40
0
 40
0
 40
0
 40
0
 40
1
 40
1
 40
1
 40
1
 10
89.395060
 20
194.092070
 30
0.0
 10
89.199105
 20
194.234826
 30
0.0
 10
89.004959
 20
194.380049
 30
0.0
 10
88.812668
 20
194.527702
 30
0.0
  0
LINE
  5
178
100
AcDbEntity
  8
Ebene_1
 62
7
100
AcDbLine
 10
88.812668
 20
194.527702
 30
0.0
 11
88.812668
 21
194.527702
 31
0.0
  0
LINE
  5
179
100
AcDbEntity
  8
Ebene_1
 62
7
100
AcDbLine
 10
93.533308
 20
191.911841
 30
0.0
 11
116.563428
 21
191.911841
 31
0.0
  0
SPLINE
  5
17a
100
AcDbEntity
  8
Ebene_1
 62
7
100
AcDbSpline
 70
8
 71
3
 72
8
 73
4
 74
0
 40
0
 40
0
 40
0
 40
0
 40
1
 40
1
 40
1
 40
1
 10
116.563428
 20
191.911841
 30
0.0
 10
116.218013
 20
191.759806
 30
0.0
 10
115.869646
 20
191.614568
 30
0.0
 10
115.518530
 20
191.476209
 30
0.0
  0
LINE
  5
17b
100
AcDbEntity
  8
Ebene_1
 62
7
100
AcDbLine
 10
115.518530
 20
191.476209
 30
0.0
 11
94.700680
 21
191.476209
 31
0.0
  0
SPLINE
  5
17c
100
AcDbEntity
  8
Ebene_1
 62
7
100
AcDbSpline
 70
8
 71
3
 72
8
 73
4
 74
0
 40
0
 40
0
 40
0
 40
0
 40
1
 40
1
 40
1
 40
1
 10
94.700680
 20
191.476209
 30
0.0
 10
94.308464
 20
191.612994
 30
0.0
 10
93.919249
 20
191.758239
 30
0.0
 10
93.533308
 20
191.911841
 30
0.0
  0
LINE
  5
17d
100
AcDbEntity
  8
Ebene_1
 62
7
100
AcDbLine
 10
93.533308
 20
191.911841
 30
0.0
 11
93.533308
 21
191.911841
 31
0.0
  0
ENDSEC
  0
SECTION
  2
OBJECTS
  0
DICTIONARY
  5
C
330
0
100
AcDbDictionary
  3
ACAD_GROUP
350
D
  3
ACAD_MLINESTYLE
350
17
  0
DICTIONARY
  5
D
330
C
100
AcDbDictionary
  0
DICTIONARY
  5
1A
330
C
100
AcDbDictionary
  0
DICTIONARY
  5
17
330
C
100
AcDbDictionary
  3
STANDARD
350
18
  0
DICTIONARY
  5
19
330
C
100
AcDbDictionary
  0
ENDSEC
  0
EOF
