  0
SECTION
  2
HEADER
  9
$ACADVER
  1
AC1014
  9
$HANDSEED
  5
FFFF
  9
$MEASUREMENT
 70
     1
  0
ENDSEC
  0
SECTION
  2
TABLES
  0
TABLE
  2
VPORT
  5
8
330
0
100
AcDbSymbolTable
 70
     4
  0
VPORT
  5
2E
330
8
100
AcDbSymbolTableRecord
100
AcDbViewportTableRecord
  2
*ACTIVE
 70
     0
 10
0.0
 20
0.0
 11
1.0
 21
1.0
 12
210.0
 22
148.5
 13
0.0
 23
0.0
 14
10.0
 24
10.0
 15
10.0
 25
10.0
 16
0.0
 26
0.0
 36
1.0
 17
0.0
 27
0.0
 37
0.0
 40
341.0
 41
1.24
 42
50.0
 43
0.0
 44
0.0
 50
0.0
 51
0.0
 71
     0
 72
   100
 73
     1
 74
     3
 75
     0
 76
     0
 77
     0
 78
     0
  0
ENDTAB
  0
TABLE
  2
LTYPE
  5
5
330
0
100
AcDbSymbolTable
 70
     1
  0
LTYPE
  5
14
330
5
100
AcDbSymbolTableRecord
100
AcDbLinetypeTableRecord
  2
BYBLOCK
 70
     0
  3

 72
    65
 73
     0
 40
0.0
  0
LTYPE
  5
15
330
5
100
AcDbSymbolTableRecord
100
AcDbLinetypeTableRecord
  2
BYLAYER
 70
     0
  3

 72
    65
 73
     0
 40
0.0
  0
LTYPE
  5
16
330
5
100
AcDbSymbolTableRecord
100
AcDbLinetypeTableRecord
  2
CONTINUOUS
 70
     0
  3
Solid line
 72
    65
 73
     0
 40
0.0
  0
ENDTAB
  0
TABLE
  2
LAYER
  5
2
100
AcDbSymbolTable
 70
3
  0
LAYER
  5
50
100
AcDbSymbolTableRecord
100
AcDbLayerTableRecord
  2
0
 70
0
  6
CONTINUOUS
  0
LAYER
  5
51
100
AcDbSymbolTableRecord
100
AcDbLayerTableRecord
  2
Ebene1
 70
0
  6
CONTINUOUS
  0
LAYER
  5
52
100
AcDbSymbolTableRecord
100
AcDbLayerTableRecord
  2
ten_min_wheel
 70
0
  6
CONTINUOUS
  0
ENDTAB
  0
TABLE
  2
STYLE
  5
3
330
0
100
AcDbSymbolTable
 70
     1
  0
STYLE
  5
11
330
3
100
AcDbSymbolTableRecord
100
AcDbTextStyleTableRecord
  2
STANDARD
 70
     0
 40
0.0
 41
1.0
 50
0.0
 71
     0
 42
2.5
  3
txt
  4

  0
ENDTAB
  0
TABLE
  2
VIEW
  5
6
330
0
100
AcDbSymbolTable
 70
     0
  0
ENDTAB
  0
TABLE
  2
UCS
  5
7
330
0
100
AcDbSymbolTable
 70
     0
  0
ENDTAB
  0
TABLE
  2
APPID
  5
9
330
0
100
AcDbSymbolTable
 70
     2
  0
APPID
  5
12
330
9
100
AcDbSymbolTableRecord
100
AcDbRegAppTableRecord
  2
ACAD
 70
     0
  0
ENDTAB
  0
TABLE
  2
DIMSTYLE
  5
A
330
0
100
AcDbSymbolTable
 70
     1
  0
DIMSTYLE
105
27
330
A
100
AcDbSymbolTableRecord
100
AcDbDimStyleTableRecord
  2
ISO-25
 70
     0
  3

  4

  5

  6

  7

 40
1.0
 41
2.5
 42
0.625
 43
3.75
 44
1.25
 45
0.0
 46
0.0
 47
0.0
 48
0.0
140
2.5
141
2.5
142
0.0
143
0.03937007874016
144
1.0
145
0.0
146
1.0
147
0.625
 71
     0
 72
     0
 73
     0
 74
     0
 75
     0
 76
     0
 77
     1
 78
     8
170
     0
171
     3
172
     1
173
     0
174
     0
175
     0
176
     0
177
     0
178
     0
270
     2
271
     2
272
     2
273
     2
274
     3
340
11
275
     0
280
     0
281
     0
282
     0
283
     0
284
     8
285
     0
286
     0
287
     3
288
     0
  0
ENDTAB
  0
TABLE
  2
BLOCK_RECORD
  5
1
330
0
100
AcDbSymbolTable
 70
     1
  0
BLOCK_RECORD
  5
1F
330
1
100
AcDbSymbolTableRecord
100
AcDbBlockTableRecord
  2
*MODEL_SPACE
  0
BLOCK_RECORD
  5
1B
330
1
100
AcDbSymbolTableRecord
100
AcDbBlockTableRecord
  2
*PAPER_SPACE
  0
ENDTAB
  0
ENDSEC
  0
SECTION
  2
BLOCKS
  0
BLOCK
  5
20
330
1F
100
AcDbEntity
  8
0
100
AcDbBlockBegin
  2
*MODEL_SPACE
 70
     0
 10
0.0
 20
0.0
 30
0.0
  3
*MODEL_SPACE
  1

  0
ENDBLK
  5
21
330
1F
100
AcDbEntity
  8
0
100
AcDbBlockEnd
  0
BLOCK
  5
1C
330
1B
100
AcDbEntity
 67
     1
  8
0
100
AcDbBlockBegin
  2
*PAPER_SPACE
  1

  0
ENDBLK
  5
1D
330
1B
100
AcDbEntity
 67
     1
  8
0
100
AcDbBlockEnd
  0
ENDSEC
  0
SECTION
  2
ENTITIES
  0
SPLINE
  5
100
100
AcDbEntity
  8
ten_min_wheel
 62
7
100
AcDbSpline
 70
8
 71
3
 72
8
 73
4
 74
0
 40
0
 40
0
 40
0
 40
0
 40
1
 40
1
 40
1
 40
1
 10
205.012790
 20
340.689158
 30
0.0
 10
160.887325
 20
342.263241
 30
0.0
 10
123.840509
 20
307.768554
 30
0.0
 10
122.266383
 20
263.643090
 30
0.0
  0
SPLINE
  5
101
100
AcDbEntity
  8
ten_min_wheel
 62
7
100
AcDbSpline
 70
8
 71
3
 72
8
 73
4
 74
0
 40
0
 40
0
 40
0
 40
0
 40
1
 40
1
 40
1
 40
1
 10
122.266383
 20
263.643090
 30
0.0
 10
120.692298
 20
219.517624
 30
0.0
 10
155.186985
 20
182.470807
 30
0.0
 10
199.312450
 20
180.896680
 30
0.0
  0
SPLINE
  5
102
100
AcDbEntity
  8
ten_min_wheel
 62
7
100
AcDbSpline
 70
8
 71
3
 72
8
 73
4
 74
0
 40
0
 40
0
 40
0
 40
0
 40
1
 40
1
 40
1
 40
1
 10
199.312450
 20
180.896680
 30
0.0
 10
243.437917
 20
179.322595
 30
0.0
 10
280.484735
 20
213.817284
 30
0.0
 10
282.058860
 20
257.942750
 30
0.0
  0
SPLINE
  5
103
100
AcDbEntity
  8
ten_min_wheel
 62
7
100
AcDbSpline
 70
8
 71
3
 72
8
 73
4
 74
0
 40
0
 40
0
 40
0
 40
0
 40
1
 40
1
 40
1
 40
1
 10
282.058860
 20
257.942750
 30
0.0
 10
283.632944
 20
302.068217
 30
0.0
 10
249.138255
 20
339.115033
 30
0.0
 10
205.012790
 20
340.689158
 30
0.0
  0
LINE
  5
104
100
AcDbEntity
  8
ten_min_wheel
 62
7
100
AcDbLine
 10
205.012790
 20
340.689158
 30
0.0
 11
205.012790
 21
340.689158
 31
0.0
  0
SPLINE
  5
105
100
AcDbEntity
  8
ten_min_wheel
 62
7
100
AcDbSpline
 70
8
 71
3
 72
8
 73
4
 74
0
 40
0
 40
0
 40
0
 40
0
 40
1
 40
1
 40
1
 40
1
 10
204.799030
 20
334.696953
 30
0.0
 10
245.615094
 20
333.240890
 30
0.0
 10
277.522687
 20
298.972575
 30
0.0
 10
276.066650
 20
258.156510
 30
0.0
  0
LINE
  5
106
100
AcDbEntity
  8
ten_min_wheel
 62
7
100
AcDbLine
 10
276.066650
 20
258.156510
 30
0.0
 11
217.152680
 21
260.258170
 31
0.0
  0
SPLINE
  5
107
100
AcDbEntity
  8
ten_min_wheel
 62
7
100
AcDbSpline
 70
8
 71
3
 72
8
 73
4
 74
0
 40
0
 40
0
 40
0
 40
0
 40
1
 40
1
 40
1
 40
1
 10
217.152680
 20
260.258170
 30
0.0
 10
217.448160
 20
268.537092
 30
0.0
 10
210.976302
 20
275.488019
 30
0.0
 10
202.697380
 20
275.783500
 30
0.0
  0
SPLINE
  5
108
100
AcDbEntity
  8
ten_min_wheel
 62
7
100
AcDbSpline
 70
8
 71
3
 72
8
 73
4
 74
0
 40
0
 40
0
 40
0
 40
0
 40
1
 40
1
 40
1
 40
1
 10
202.697380
 20
275.783500
 30
0.0
 10
198.721612
 20
275.925396
 30
0.0
 10
194.852320
 20
274.482078
 30
0.0
 10
191.940738
 20
271.771071
 30
0.0
  0
SPLINE
  5
109
100
AcDbEntity
  8
ten_min_wheel
 62
7
100
AcDbSpline
 70
8
 71
3
 72
8
 73
4
 74
0
 40
0
 40
0
 40
0
 40
0
 40
1
 40
1
 40
1
 40
1
 10
191.940738
 20
271.771071
 30
0.0
 10
189.029156
 20
269.060065
 30
0.0
 10
187.313798
 20
265.303453
 30
0.0
 10
187.172037
 20
261.327680
 30
0.0
  0
SPLINE
  5
10a
100
AcDbEntity
  8
ten_min_wheel
 62
7
100
AcDbSpline
 70
8
 71
3
 72
8
 73
4
 74
0
 40
0
 40
0
 40
0
 40
0
 40
1
 40
1
 40
1
 40
1
 10
187.172037
 20
261.327680
 30
0.0
 10
187.171434
 20
261.240460
 30
0.0
 10
187.171591
 20
261.153237
 30
0.0
 10
187.172509
 20
261.066020
 30
0.0
  0
LINE
  5
10b
100
AcDbEntity
  8
ten_min_wheel
 62
7
100
AcDbLine
 10
187.172509
 20
261.066020
 30
0.0
 11
128.263197
 21
262.138500
 31
0.0
  0
SPLINE
  5
10c
100
AcDbEntity
  8
ten_min_wheel
 62
7
100
AcDbSpline
 70
8
 71
3
 72
8
 73
4
 74
0
 40
0
 40
0
 40
0
 40
0
 40
1
 40
1
 40
1
 40
1
 10
128.263197
 20
262.138500
 30
0.0
 10
128.257908
 20
262.568755
 30
0.0
 10
128.256375
 20
262.999048
 30
0.0
 10
128.258597
 20
263.429330
 30
0.0
  0
SPLINE
  5
10d
100
AcDbEntity
  8
ten_min_wheel
 62
7
100
AcDbSpline
 70
8
 71
3
 72
8
 73
4
 74
0
 40
0
 40
0
 40
0
 40
0
 40
1
 40
1
 40
1
 40
1
 10
128.258597
 20
263.429330
 30
0.0
 10
129.714658
 20
304.245391
 30
0.0
 10
163.982968
 20
336.152985
 30
0.0
 10
204.799030
 20
334.696954
 30
0.0
  0
LINE
  5
10e
100
AcDbEntity
  8
ten_min_wheel
 62
7
100
AcDbLine
 10
204.799030
 20
334.696954
 30
0.0
 11
204.799030
 21
334.696953
 31
0.0
  0
LINE
  5
10f
100
AcDbEntity
  8
ten_min_wheel
 62
7
100
AcDbLine
 10
217.043090
 20
258.954350
 30
0.0
 11
275.533270
 21
251.727910
 31
0.0
  0
SPLINE
  5
110
100
AcDbEntity
  8
ten_min_wheel
 62
7
100
AcDbSpline
 70
8
 71
3
 72
8
 73
4
 74
0
 40
0
 40
0
 40
0
 40
0
 40
1
 40
1
 40
1
 40
1
 10
275.533270
 20
251.727910
 30
0.0
 10
275.471314
 20
251.302395
 30
0.0
 10
275.405649
 20
250.877429
 30
0.0
 10
275.336280
 20
250.453060
 30
0.0
  0
LINE
  5
111
100
AcDbEntity
  8
ten_min_wheel
 62
7
100
AcDbLine
 10
275.336280
 20
250.453060
 30
0.0
 11
217.004900
 21
258.695620
 31
0.0
  0
SPLINE
  5
112
100
AcDbEntity
  8
ten_min_wheel
 62
7
100
AcDbSpline
 70
8
 71
3
 72
8
 73
4
 74
0
 40
0
 40
0
 40
0
 40
0
 40
1
 40
1
 40
1
 40
1
 10
217.004900
 20
258.695620
 30
0.0
 10
217.018385
 20
258.781751
 30
0.0
 10
217.031119
 20
258.867997
 30
0.0
 10
217.043100
 20
258.954350
 30
0.0
  0
LINE
  5
113
100
AcDbEntity
  8
ten_min_wheel
 62
7
100
AcDbLine
 10
217.043100
 20
258.954350
 30
0.0
 11
217.043090
 21
258.954350
 31
0.0
  0
SPLINE
  5
114
100
AcDbEntity
  8
ten_min_wheel
 62
7
100
AcDbSpline
 70
8
 71
3
 72
8
 73
4
 74
0
 40
0
 40
0
 40
0
 40
0
 40
1
 40
1
 40
1
 40
1
 10
187.208621
 20
259.758550
 30
0.0
 10
187.214583
 20
259.671556
 30
0.0
 10
187.221303
 20
259.584616
 30
0.0
 10
187.228781
 20
259.497740
 30
0.0
  0
LINE
  5
115
100
AcDbEntity
  8
ten_min_wheel
 62
7
100
AcDbLine
 10
187.228781
 20
259.497740
 30
0.0
 11
128.544332
 21
254.407750
 31
0.0
  0
SPLINE
  5
116
100
AcDbEntity
  8
ten_min_wheel
 62
7
100
AcDbSpline
 70
8
 71
3
 72
8
 73
4
 74
0
 40
0
 40
0
 40
0
 40
0
 40
1
 40
1
 40
1
 40
1
 10
128.544332
 20
254.407750
 30
0.0
 10
128.505207
 20
254.835990
 30
0.0
 10
128.469819
 20
255.264563
 30
0.0
 10
128.438170
 20
255.693420
 30
0.0
  0
LINE
  5
117
100
AcDbEntity
  8
ten_min_wheel
 62
7
100
AcDbLine
 10
128.438170
 20
255.693420
 30
0.0
 11
187.208621
 21
259.758550
 31
0.0
  0
LINE
  5
118
100
AcDbEntity
  8
ten_min_wheel
 62
7
100
AcDbLine
 10
216.765640
 20
257.409870
 30
0.0
 11
274.151010
 21
244.115970
 31
0.0
  0
SPLINE
  5
119
100
AcDbEntity
  8
ten_min_wheel
 62
7
100
AcDbSpline
 70
8
 71
3
 72
8
 73
4
 74
0
 40
0
 40
0
 40
0
 40
0
 40
1
 40
1
 40
1
 40
1
 10
274.151010
 20
244.115970
 30
0.0
 10
274.055798
 20
243.696866
 30
0.0
 10
273.956934
 20
243.278600
 30
0.0
 10
273.854430
 20
242.861220
 30
0.0
  0
LINE
  5
11a
100
AcDbEntity
  8
ten_min_wheel
 62
7
100
AcDbLine
 10
273.854430
 20
242.861220
 30
0.0
 11
216.707940
 21
257.154940
 31
0.0
  0
SPLINE
  5
11b
100
AcDbEntity
  8
ten_min_wheel
 62
7
100
AcDbSpline
 70
8
 71
3
 72
8
 73
4
 74
0
 40
0
 40
0
 40
0
 40
0
 40
1
 40
1
 40
1
 40
1
 10
216.707940
 20
257.154940
 30
0.0
 10
216.727913
 20
257.239747
 30
0.0
 10
216.747147
 20
257.324727
 30
0.0
 10
216.765640
 20
257.409870
 30
0.0
  0
LINE
  5
11c
100
AcDbEntity
  8
ten_min_wheel
 62
7
100
AcDbLine
 10
216.765640
 20
257.409870
 30
0.0
 11
216.765640
 21
257.409870
 31
0.0
  0
SPLINE
  5
11d
100
AcDbEntity
  8
ten_min_wheel
 62
7
100
AcDbSpline
 70
8
 71
3
 72
8
 73
4
 74
0
 40
0
 40
0
 40
0
 40
0
 40
1
 40
1
 40
1
 40
1
 10
187.395043
 20
258.200630
 30
0.0
 10
187.408454
 20
258.114338
 30
0.0
 10
187.422617
 20
258.028165
 30
0.0
 10
187.437533
 20
257.942120
 30
0.0
  0
LINE
  5
11e
100
AcDbEntity
  8
ten_min_wheel
 62
7
100
AcDbLine
 10
187.437533
 20
257.942120
 30
0.0
 11
129.581678
 21
246.741040
 31
0.0
  0
SPLINE
  5
11f
100
AcDbEntity
  8
ten_min_wheel
 62
7
100
AcDbSpline
 70
8
 71
3
 72
8
 73
4
 74
0
 40
0
 40
0
 40
0
 40
0
 40
1
 40
1
 40
1
 40
1
 10
129.581678
 20
246.741040
 30
0.0
 10
129.509183
 20
247.165178
 30
0.0
 10
129.440390
 20
247.589941
 30
0.0
 10
129.375309
 20
248.015280
 30
0.0
  0
LINE
  5
120
100
AcDbEntity
  8
ten_min_wheel
 62
7
100
AcDbLine
 10
129.375309
 20
248.015280
 30
0.0
 11
187.395043
 21
258.200630
 31
0.0
  0
LINE
  5
121
100
AcDbEntity
  8
ten_min_wheel
 62
7
100
AcDbLine
 10
216.340470
 20
255.899100
 30
0.0
 11
272.029280
 21
236.677260
 31
0.0
  0
SPLINE
  5
122
100
AcDbEntity
  8
ten_min_wheel
 62
7
100
AcDbSpline
 70
8
 71
3
 72
8
 73
4
 74
0
 40
0
 40
0
 40
0
 40
0
 40
1
 40
1
 40
1
 40
1
 10
272.029280
 20
236.677260
 30
0.0
 10
271.901381
 20
236.266450
 30
0.0
 10
271.769899
 20
235.856765
 30
0.0
 10
271.634850
 20
235.448250
 30
0.0
  0
LINE
  5
123
100
AcDbEntity
  8
ten_min_wheel
 62
7
100
AcDbLine
 10
271.634850
 20
235.448250
 30
0.0
 11
216.247960
 21
255.654190
 31
0.0
  0
SPLINE
  5
124
100
AcDbEntity
  8
ten_min_wheel
 62
7
100
AcDbSpline
 70
8
 71
3
 72
8
 73
4
 74
0
 40
0
 40
0
 40
0
 40
0
 40
1
 40
1
 40
1
 40
1
 10
216.247960
 20
255.654190
 30
0.0
 10
216.279505
 20
255.735556
 30
0.0
 10
216.310340
 20
255.817196
 30
0.0
 10
216.340460
 20
255.899100
 30
0.0
  0
LINE
  5
125
100
AcDbEntity
  8
ten_min_wheel
 62
7
100
AcDbLine
 10
216.340460
 20
255.899100
 30
0.0
 11
216.340470
 21
255.899100
 31
0.0
  0
SPLINE
  5
126
100
AcDbEntity
  8
ten_min_wheel
 62
7
100
AcDbSpline
 70
8
 71
3
 72
8
 73
4
 74
0
 40
0
 40
0
 40
0
 40
0
 40
1
 40
1
 40
1
 40
1
 10
187.746909
 20
256.670920
 30
0.0
 10
187.772168
 20
256.587378
 30
0.0
 10
187.798156
 20
256.504058
 30
0.0
 10
187.824869
 20
256.420970
 30
0.0
  0
LINE
  5
127
100
AcDbEntity
  8
ten_min_wheel
 62
7
100
AcDbLine
 10
187.824869
 20
256.420970
 30
0.0
 11
131.464039
 21
239.236540
 31
0.0
  0
SPLINE
  5
128
100
AcDbEntity
  8
ten_min_wheel
 62
7
100
AcDbSpline
 70
8
 71
3
 72
8
 73
4
 74
0
 40
0
 40
0
 40
0
 40
0
 40
1
 40
1
 40
1
 40
1
 10
131.464039
 20
239.236540
 30
0.0
 10
131.326134
 20
239.644176
 30
0.0
 10
131.191789
 20
240.053009
 30
0.0
 10
131.061021
 20
240.462990
 30
0.0
  0
LINE
  5
129
100
AcDbEntity
  8
ten_min_wheel
 62
7
100
AcDbLine
 10
131.061021
 20
240.462990
 30
0.0
 11
187.746909
 21
256.670920
 31
0.0
  0
LINE
  5
12a
100
AcDbEntity
  8
ten_min_wheel
 62
7
100
AcDbLine
 10
215.743680
 20
254.447700
 30
0.0
 11
269.141210
 21
229.499100
 31
0.0
  0
SPLINE
  5
12b
100
AcDbEntity
  8
ten_min_wheel
 62
7
100
AcDbSpline
 70
8
 71
3
 72
8
 73
4
 74
0
 40
0
 40
0
 40
0
 40
0
 40
1
 40
1
 40
1
 40
1
 10
269.141210
 20
229.499100
 30
0.0
 10
268.950571
 20
229.113414
 30
0.0
 10
268.756571
 20
228.729400
 30
0.0
 10
268.559230
 20
228.347100
 30
0.0
  0
LINE
  5
12c
100
AcDbEntity
  8
ten_min_wheel
 62
7
100
AcDbLine
 10
268.559230
 20
228.347100
 30
0.0
 11
215.630300
 21
254.211820
 31
0.0
  0
SPLINE
  5
12d
100
AcDbEntity
  8
ten_min_wheel
 62
7
100
AcDbSpline
 70
8
 71
3
 72
8
 73
4
 74
0
 40
0
 40
0
 40
0
 40
0
 40
1
 40
1
 40
1
 40
1
 10
215.630300
 20
254.211820
 30
0.0
 10
215.668779
 20
254.290115
 30
0.0
 10
215.706573
 20
254.368745
 30
0.0
 10
215.743680
 20
254.447700
 30
0.0
  0
LINE
  5
12e
100
AcDbEntity
  8
ten_min_wheel
 62
7
100
AcDbLine
 10
215.743680
 20
254.447700
 30
0.0
 11
215.743680
 21
254.447700
 31
0.0
  0
SPLINE
  5
12f
100
AcDbEntity
  8
ten_min_wheel
 62
7
100
AcDbSpline
 70
8
 71
3
 72
8
 73
4
 74
0
 40
0
 40
0
 40
0
 40
0
 40
1
 40
1
 40
1
 40
1
 10
188.260232
 20
255.188210
 30
0.0
 10
188.291448
 20
255.106817
 30
0.0
 10
188.323372
 20
255.025697
 30
0.0
 10
188.356002
 20
254.944860
 30
0.0
  0
LINE
  5
130
100
AcDbEntity
  8
ten_min_wheel
 62
7
100
AcDbLine
 10
188.356002
 20
254.944860
 30
0.0
 11
134.120229
 21
231.971260
 31
0.0
  0
SPLINE
  5
131
100
AcDbEntity
  8
ten_min_wheel
 62
7
100
AcDbSpline
 70
8
 71
3
 72
8
 73
4
 74
0
 40
0
 40
0
 40
0
 40
0
 40
1
 40
1
 40
1
 40
1
 10
134.120229
 20
231.971260
 30
0.0
 10
133.950799
 20
232.366302
 30
0.0
 10
133.784816
 20
232.762814
 30
0.0
 10
133.622300
 20
233.160750
 30
0.0
  0
LINE
  5
132
100
AcDbEntity
  8
ten_min_wheel
 62
7
100
AcDbLine
 10
133.622300
 20
233.160750
 30
0.0
 11
188.260232
 21
255.188210
 31
0.0
  0
LINE
  5
133
100
AcDbEntity
  8
ten_min_wheel
 62
7
100
AcDbLine
 10
215.008050
 20
253.061770
 30
0.0
 11
265.473990
 21
222.686400
 31
0.0
  0
SPLINE
  5
134
100
AcDbEntity
  8
ten_min_wheel
 62
7
100
AcDbSpline
 70
8
 71
3
 72
8
 73
4
 74
0
 40
0
 40
0
 40
0
 40
0
 40
1
 40
1
 40
1
 40
1
 10
265.473990
 20
222.686400
 30
0.0
 10
265.253983
 20
222.317184
 30
0.0
 10
265.030761
 20
221.949894
 30
0.0
 10
264.804350
 20
221.584570
 30
0.0
  0
LINE
  5
135
100
AcDbEntity
  8
ten_min_wheel
 62
7
100
AcDbLine
 10
264.804350
 20
221.584570
 30
0.0
 11
214.877410
 21
252.834770
 31
0.0
  0
SPLINE
  5
136
100
AcDbEntity
  8
ten_min_wheel
 62
7
100
AcDbSpline
 70
8
 71
3
 72
8
 73
4
 74
0
 40
0
 40
0
 40
0
 40
0
 40
1
 40
1
 40
1
 40
1
 10
214.877410
 20
252.834770
 30
0.0
 10
214.921616
 20
252.910055
 30
0.0
 10
214.965165
 20
252.985725
 30
0.0
 10
215.008050
 20
253.061770
 30
0.0
  0
LINE
  5
137
100
AcDbEntity
  8
ten_min_wheel
 62
7
100
AcDbLine
 10
215.008050
 20
253.061770
 30
0.0
 11
215.008050
 21
253.061770
 31
0.0
  0
SPLINE
  5
138
100
AcDbEntity
  8
ten_min_wheel
 62
7
100
AcDbSpline
 70
8
 71
3
 72
8
 73
4
 74
0
 40
0
 40
0
 40
0
 40
0
 40
1
 40
1
 40
1
 40
1
 10
188.913083
 20
253.761010
 30
0.0
 10
188.956268
 20
253.685119
 30
0.0
 10
189.000114
 20
253.609606
 30
0.0
 10
189.044618
 20
253.534480
 30
0.0
  0
LINE
  5
139
100
AcDbEntity
  8
ten_min_wheel
 62
7
100
AcDbLine
 10
189.044618
 20
253.534480
 30
0.0
 11
137.476200
 21
225.000050
 31
0.0
  0
SPLINE
  5
13a
100
AcDbEntity
  8
ten_min_wheel
 62
7
100
AcDbSpline
 70
8
 71
3
 72
8
 73
4
 74
0
 40
0
 40
0
 40
0
 40
0
 40
1
 40
1
 40
1
 40
1
 10
137.476200
 20
225.000050
 30
0.0
 10
137.276229
 20
225.380924
 30
0.0
 10
137.079586
 20
225.763535
 30
0.0
 10
136.886292
 20
226.147840
 30
0.0
  0
LINE
  5
13b
100
AcDbEntity
  8
ten_min_wheel
 62
7
100
AcDbLine
 10
136.886292
 20
226.147840
 30
0.0
 11
188.913083
 21
253.761010
 31
0.0
  0
LINE
  5
13c
100
AcDbEntity
  8
ten_min_wheel
 62
7
100
AcDbLine
 10
214.130650
 20
251.760000
 30
0.0
 11
261.157370
 21
216.267100
 31
0.0
  0
SPLINE
  5
13d
100
AcDbEntity
  8
ten_min_wheel
 62
7
100
AcDbSpline
 70
8
 71
3
 72
8
 73
4
 74
0
 40
0
 40
0
 40
0
 40
0
 40
1
 40
1
 40
1
 40
1
 10
261.157370
 20
216.267100
 30
0.0
 10
260.908905
 20
215.916059
 30
0.0
 10
260.657382
 20
215.567193
 30
0.0
 10
260.402830
 20
215.220540
 30
0.0
  0
LINE
  5
13e
100
AcDbEntity
  8
ten_min_wheel
 62
7
100
AcDbLine
 10
260.402830
 20
215.220540
 30
0.0
 11
213.967710
 21
251.555360
 31
0.0
  0
SPLINE
  5
13f
100
AcDbEntity
  8
ten_min_wheel
 62
7
100
AcDbSpline
 70
8
 71
3
 72
8
 73
4
 74
0
 40
0
 40
0
 40
0
 40
0
 40
1
 40
1
 40
1
 40
1
 10
213.967710
 20
251.555360
 30
0.0
 10
214.022617
 20
251.623098
 30
0.0
 10
214.076933
 20
251.691314
 30
0.0
 10
214.130650
 20
251.760000
 30
0.0
  0
LINE
  5
140
100
AcDbEntity
  8
ten_min_wheel
 62
7
100
AcDbLine
 10
214.130650
 20
251.760000
 30
0.0
 11
214.130650
 21
251.760000
 31
0.0
  0
SPLINE
  5
141
100
AcDbEntity
  8
ten_min_wheel
 62
7
100
AcDbSpline
 70
8
 71
3
 72
8
 73
4
 74
0
 40
0
 40
0
 40
0
 40
0
 40
1
 40
1
 40
1
 40
1
 10
189.729308
 20
252.420020
 30
0.0
 10
189.777825
 20
252.347690
 30
0.0
 10
189.826971
 20
252.275784
 30
0.0
 10
189.876741
 20
252.204310
 30
0.0
  0
LINE
  5
142
100
AcDbEntity
  8
ten_min_wheel
 62
7
100
AcDbLine
 10
189.876741
 20
252.204310
 30
0.0
 11
141.585926
 21
218.444600
 31
0.0
  0
SPLINE
  5
143
100
AcDbEntity
  8
ten_min_wheel
 62
7
100
AcDbSpline
 70
8
 71
3
 72
8
 73
4
 74
0
 40
0
 40
0
 40
0
 40
0
 40
1
 40
1
 40
1
 40
1
 10
141.585926
 20
218.444600
 30
0.0
 10
141.328636
 20
218.789451
 30
0.0
 10
141.074359
 20
219.136541
 30
0.0
 10
140.823127
 20
219.485830
 30
0.0
  0
LINE
  5
144
100
AcDbEntity
  8
ten_min_wheel
 62
7
100
AcDbLine
 10
140.823127
 20
219.485830
 30
0.0
 11
140.823146
 21
219.486350
 31
0.0
  0
LINE
  5
145
100
AcDbEntity
  8
ten_min_wheel
 62
7
100
AcDbLine
 10
140.823146
 20
219.486350
 30
0.0
 11
189.729308
 21
252.420020
 31
0.0
  0
LINE
  5
146
100
AcDbEntity
  8
ten_min_wheel
 62
7
100
AcDbLine
 10
213.117840
 20
250.561840
 30
0.0
 11
256.192570
 21
210.333210
 31
0.0
  0
SPLINE
  5
147
100
AcDbEntity
  8
ten_min_wheel
 62
7
100
AcDbSpline
 70
8
 71
3
 72
8
 73
4
 74
0
 40
0
 40
0
 40
0
 40
0
 40
1
 40
1
 40
1
 40
1
 10
256.192570
 20
210.333210
 30
0.0
 10
255.892367
 20
210.025435
 30
0.0
 10
255.589485
 20
209.720283
 30
0.0
 10
255.283960
 20
209.417790
 30
0.0
  0
LINE
  5
148
100
AcDbEntity
  8
ten_min_wheel
 62
7
100
AcDbLine
 10
255.283960
 20
209.417790
 30
0.0
 11
212.939830
 21
250.369620
 31
0.0
  0
SPLINE
  5
149
100
AcDbEntity
  8
ten_min_wheel
 62
7
100
AcDbSpline
 70
8
 71
3
 72
8
 73
4
 74
0
 40
0
 40
0
 40
0
 40
0
 40
1
 40
1
 40
1
 40
1
 10
212.939830
 20
250.369620
 30
0.0
 10
212.999725
 20
250.433174
 30
0.0
 10
213.059064
 20
250.497250
 30
0.0
 10
213.117840
 20
250.561840
 30
0.0
  0
LINE
  5
14a
100
AcDbEntity
  8
ten_min_wheel
 62
7
100
AcDbLine
 10
213.117840
 20
250.561840
 30
0.0
 11
213.117840
 21
250.561840
 31
0.0
  0
SPLINE
  5
14b
100
AcDbEntity
  8
ten_min_wheel
 62
7
100
AcDbSpline
 70
8
 71
3
 72
8
 73
4
 74
0
 40
0
 40
0
 40
0
 40
0
 40
1
 40
1
 40
1
 40
1
 10
190.670083
 20
251.164060
 30
0.0
 10
190.724657
 20
251.096114
 30
0.0
 10
190.779821
 20
251.028645
 30
0.0
 10
190.835571
 20
250.961660
 30
0.0
  0
LINE
  5
14c
100
AcDbEntity
  8
ten_min_wheel
 62
7
100
AcDbLine
 10
190.835571
 20
250.961660
 30
0.0
 11
146.357113
 21
212.355740
 31
0.0
  0
SPLINE
  5
14d
100
AcDbEntity
  8
ten_min_wheel
 62
7
100
AcDbSpline
 70
8
 71
3
 72
8
 73
4
 74
0
 40
0
 40
0
 40
0
 40
0
 40
1
 40
1
 40
1
 40
1
 10
146.357113
 20
212.355740
 30
0.0
 10
146.073745
 20
212.679240
 30
0.0
 10
145.793204
 20
213.005206
 30
0.0
 10
145.515523
 20
213.333600
 30
0.0
  0
LINE
  5
14e
100
AcDbEntity
  8
ten_min_wheel
 62
7
100
AcDbLine
 10
145.515523
 20
213.333600
 30
0.0
 11
190.670083
 21
251.164060
 31
0.0
  0
LINE
  5
14f
100
AcDbEntity
  8
ten_min_wheel
 62
7
100
AcDbLine
 10
211.993880
 20
249.465870
 30
0.0
 11
250.599800
 21
204.987420
 31
0.0
  0
SPLINE
  5
150
100
AcDbEntity
  8
ten_min_wheel
 62
7
100
AcDbSpline
 70
8
 71
3
 72
8
 73
4
 74
0
 40
0
 40
0
 40
0
 40
0
 40
1
 40
1
 40
1
 40
1
 10
250.599800
 20
204.987420
 30
0.0
 10
250.276300
 20
204.704049
 30
0.0
 10
249.950334
 20
204.423505
 30
0.0
 10
249.621940
 20
204.145820
 30
0.0
  0
LINE
  5
151
100
AcDbEntity
  8
ten_min_wheel
 62
7
100
AcDbLine
 10
249.621940
 20
204.145820
 30
0.0
 11
211.791480
 21
249.300390
 31
0.0
  0
SPLINE
  5
152
100
AcDbEntity
  8
ten_min_wheel
 62
7
100
AcDbSpline
 70
8
 71
3
 72
8
 73
4
 74
0
 40
0
 40
0
 40
0
 40
0
 40
1
 40
1
 40
1
 40
1
 10
211.791480
 20
249.300390
 30
0.0
 10
211.859426
 20
249.354961
 30
0.0
 10
211.926895
 20
249.410123
 30
0.0
 10
211.993880
 20
249.465870
 30
0.0
  0
LINE
  5
153
100
AcDbEntity
  8
ten_min_wheel
 62
7
100
AcDbLine
 10
211.993880
 20
249.465870
 30
0.0
 11
211.993880
 21
249.465870
 31
0.0
  0
SPLINE
  5
154
100
AcDbEntity
  8
ten_min_wheel
 62
7
100
AcDbSpline
 70
8
 71
3
 72
8
 73
4
 74
0
 40
0
 40
0
 40
0
 40
0
 40
1
 40
1
 40
1
 40
1
 10
191.739316
 20
250.015720
 30
0.0
 10
191.802868
 20
249.955822
 30
0.0
 10
191.866942
 20
249.896479
 30
0.0
 10
191.931530
 20
249.837700
 30
0.0
  0
LINE
  5
155
100
AcDbEntity
  8
ten_min_wheel
 62
7
100
AcDbLine
 10
191.931530
 20
249.837700
 30
0.0
 11
151.702905
 21
206.762970
 31
0.0
  0
SPLINE
  5
156
100
AcDbEntity
  8
ten_min_wheel
 62
7
100
AcDbSpline
 70
8
 71
3
 72
8
 73
4
 74
0
 40
0
 40
0
 40
0
 40
0
 40
1
 40
1
 40
1
 40
1
 10
151.702905
 20
206.762970
 30
0.0
 10
151.395130
 20
207.063173
 30
0.0
 10
151.089979
 20
207.366055
 30
0.0
 10
150.787487
 20
207.671580
 30
0.0
  0
LINE
  5
157
100
AcDbEntity
  8
ten_min_wheel
 62
7
100
AcDbLine
 10
150.787487
 20
207.671580
 30
0.0
 11
191.739316
 21
250.015720
 31
0.0
  0
LINE
  5
158
100
AcDbEntity
  8
ten_min_wheel
 62
7
100
AcDbLine
 10
210.751230
 20
248.507040
 30
0.0
 11
244.510950
 21
200.216220
 31
0.0
  0
SPLINE
  5
159
100
AcDbEntity
  8
ten_min_wheel
 62
7
100
AcDbSpline
 70
8
 71
3
 72
8
 73
4
 74
0
 40
0
 40
0
 40
0
 40
0
 40
1
 40
1
 40
1
 40
1
 10
244.510950
 20
200.216220
 30
0.0
 10
244.166096
 20
199.958932
 30
0.0
 10
243.819002
 20
199.704659
 30
0.0
 10
243.469710
 20
199.453430
 30
0.0
  0
LINE
  5
15a
100
AcDbEntity
  8
ten_min_wheel
 62
7
100
AcDbLine
 10
243.469710
 20
199.453430
 30
0.0
 11
243.469190
 21
199.453450
 31
0.0
  0
LINE
  5
15b
100
AcDbEntity
  8
ten_min_wheel
 62
7
100
AcDbLine
 10
243.469190
 20
199.453450
 30
0.0
 11
210.535520
 21
248.359610
 31
0.0
  0
SPLINE
  5
15c
100
AcDbEntity
  8
ten_min_wheel
 62
7
100
AcDbSpline
 70
8
 71
3
 72
8
 73
4
 74
0
 40
0
 40
0
 40
0
 40
0
 40
1
 40
1
 40
1
 40
1
 10
210.535520
 20
248.359610
 30
0.0
 10
210.607850
 20
248.408126
 30
0.0
 10
210.679756
 20
248.457271
 30
0.0
 10
210.751230
 20
248.507040
 30
0.0
  0
LINE
  5
15d
100
AcDbEntity
  8
ten_min_wheel
 62
7
100
AcDbLine
 10
210.751230
 20
248.507040
 30
0.0
 11
210.751230
 21
248.507040
 31
0.0
  0
SPLINE
  5
15e
100
AcDbEntity
  8
ten_min_wheel
 62
7
100
AcDbSpline
 70
8
 71
3
 72
8
 73
4
 74
0
 40
0
 40
0
 40
0
 40
0
 40
1
 40
1
 40
1
 40
1
 10
192.925056
 20
248.987830
 30
0.0
 10
192.992796
 20
248.932923
 30
0.0
 10
193.061013
 20
248.878607
 30
0.0
 10
193.129700
 20
248.824890
 30
0.0
  0
LINE
  5
15f
100
AcDbEntity
  8
ten_min_wheel
 62
7
100
AcDbLine
 10
193.129700
 20
248.824890
 30
0.0
 11
157.636800
 21
201.798170
 31
0.0
  0
SPLINE
  5
160
100
AcDbEntity
  8
ten_min_wheel
 62
7
100
AcDbSpline
 70
8
 71
3
 72
8
 73
4
 74
0
 40
0
 40
0
 40
0
 40
0
 40
1
 40
1
 40
1
 40
1
 10
157.636800
 20
201.798170
 30
0.0
 10
157.285756
 20
202.046635
 30
0.0
 10
156.936887
 20
202.298158
 30
0.0
 10
156.590231
 20
202.552710
 30
0.0
  0
LINE
  5
161
100
AcDbEntity
  8
ten_min_wheel
 62
7
100
AcDbLine
 10
156.590231
 20
202.552710
 30
0.0
 11
192.925056
 21
248.987830
 31
0.0
  0
LINE
  5
162
100
AcDbEntity
  8
ten_min_wheel
 62
7
100
AcDbLine
 10
209.421060
 20
247.674920
 30
0.0
 11
237.955490
 21
196.106500
 31
0.0
  0
SPLINE
  5
163
100
AcDbEntity
  8
ten_min_wheel
 62
7
100
AcDbSpline
 70
8
 71
3
 72
8
 73
4
 74
0
 40
0
 40
0
 40
0
 40
0
 40
1
 40
1
 40
1
 40
1
 10
237.955490
 20
196.106500
 30
0.0
 10
237.574616
 20
195.906529
 30
0.0
 10
237.192005
 20
195.709885
 30
0.0
 10
236.807700
 20
195.516590
 30
0.0
  0
LINE
  5
164
100
AcDbEntity
  8
ten_min_wheel
 62
7
100
AcDbLine
 10
236.807700
 20
195.516590
 30
0.0
 11
209.194530
 21
247.543380
 31
0.0
  0
SPLINE
  5
165
100
AcDbEntity
  8
ten_min_wheel
 62
7
100
AcDbSpline
 70
8
 71
3
 72
8
 73
4
 74
0
 40
0
 40
0
 40
0
 40
0
 40
1
 40
1
 40
1
 40
1
 10
209.194530
 20
247.543380
 30
0.0
 10
209.270421
 20
247.586566
 30
0.0
 10
209.345934
 20
247.630415
 30
0.0
 10
209.421060
 20
247.674920
 30
0.0
  0
LINE
  5
166
100
AcDbEntity
  8
ten_min_wheel
 62
7
100
AcDbLine
 10
209.421060
 20
247.674920
 30
0.0
 11
209.421060
 21
247.674920
 31
0.0
  0
SPLINE
  5
167
100
AcDbEntity
  8
ten_min_wheel
 62
7
100
AcDbSpline
 70
8
 71
3
 72
8
 73
4
 74
0
 40
0
 40
0
 40
0
 40
0
 40
1
 40
1
 40
1
 40
1
 10
194.204469
 20
248.078130
 30
0.0
 10
194.279753
 20
248.033924
 30
0.0
 10
194.355422
 20
247.990375
 30
0.0
 10
194.431467
 20
247.947490
 30
0.0
  0
LINE
  5
168
100
AcDbEntity
  8
ten_min_wheel
 62
7
100
AcDbLine
 10
194.431467
 20
247.947490
 30
0.0
 11
164.056097
 21
197.481550
 31
0.0
  0
SPLINE
  5
169
100
AcDbEntity
  8
ten_min_wheel
 62
7
100
AcDbSpline
 70
8
 71
3
 72
8
 73
4
 74
0
 40
0
 40
0
 40
0
 40
0
 40
1
 40
1
 40
1
 40
1
 10
164.056097
 20
197.481550
 30
0.0
 10
163.686884
 20
197.701557
 30
0.0
 10
163.319595
 20
197.924779
 30
0.0
 10
162.954274
 20
198.151190
 30
0.0
  0
LINE
  5
16a
100
AcDbEntity
  8
ten_min_wheel
 62
7
100
AcDbLine
 10
162.954274
 20
198.151190
 30
0.0
 11
194.204469
 21
248.078130
 31
0.0
  0
LINE
  5
16b
100
AcDbEntity
  8
ten_min_wheel
 62
7
100
AcDbLine
 10
208.010680
 20
246.986310
 30
0.0
 11
230.984280
 21
192.750530
 31
0.0
  0
SPLINE
  5
16c
100
AcDbEntity
  8
ten_min_wheel
 62
7
100
AcDbSpline
 70
8
 71
3
 72
8
 73
4
 74
0
 40
0
 40
0
 40
0
 40
0
 40
1
 40
1
 40
1
 40
1
 10
230.984280
 20
192.750530
 30
0.0
 10
230.589238
 20
192.581100
 30
0.0
 10
230.192726
 20
192.415117
 30
0.0
 10
229.794790
 20
192.252600
 30
0.0
  0
LINE
  5
16d
100
AcDbEntity
  8
ten_min_wheel
 62
7
100
AcDbLine
 10
229.794790
 20
192.252600
 30
0.0
 11
207.767340
 21
246.890530
 31
0.0
  0
SPLINE
  5
16e
100
AcDbEntity
  8
ten_min_wheel
 62
7
100
AcDbSpline
 70
8
 71
3
 72
8
 73
4
 74
0
 40
0
 40
0
 40
0
 40
0
 40
1
 40
1
 40
1
 40
1
 10
207.767340
 20
246.890530
 30
0.0
 10
207.848730
 20
246.921756
 30
0.0
 10
207.929847
 20
246.953690
 30
0.0
 10
208.010680
 20
246.986330
 30
0.0
  0
LINE
  5
16f
100
AcDbEntity
  8
ten_min_wheel
 62
7
100
AcDbLine
 10
208.010680
 20
246.986330
 30
0.0
 11
208.010680
 21
246.986310
 31
0.0
  0
SPLINE
  5
170
100
AcDbEntity
  8
ten_min_wheel
 62
7
100
AcDbSpline
 70
8
 71
3
 72
8
 73
4
 74
0
 40
0
 40
0
 40
0
 40
0
 40
1
 40
1
 40
1
 40
1
 10
195.581518
 20
247.325240
 30
0.0
 10
195.659815
 20
247.286761
 30
0.0
 10
195.738446
 20
247.248967
 30
0.0
 10
195.817402
 20
247.211860
 30
0.0
  0
LINE
  5
171
100
AcDbEntity
  8
ten_min_wheel
 62
7
100
AcDbLine
 10
195.817402
 20
247.211860
 30
0.0
 11
170.868801
 21
193.814330
 31
0.0
  0
SPLINE
  5
172
100
AcDbEntity
  8
ten_min_wheel
 62
7
100
AcDbSpline
 70
8
 71
3
 72
8
 73
4
 74
0
 40
0
 40
0
 40
0
 40
0
 40
1
 40
1
 40
1
 40
1
 10
170.868801
 20
193.814330
 30
0.0
 10
170.483113
 20
194.004969
 30
0.0
 10
170.099097
 20
194.198969
 30
0.0
 10
169.716795
 20
194.396310
 30
0.0
  0
LINE
  5
173
100
AcDbEntity
  8
ten_min_wheel
 62
7
100
AcDbLine
 10
169.716795
 20
194.396310
 30
0.0
 11
195.581518
 21
247.325240
 31
0.0
  0
LINE
  5
174
100
AcDbEntity
  8
ten_min_wheel
 62
7
100
AcDbLine
 10
206.534570
 20
246.455160
 30
0.0
 11
223.719000
 21
190.094340
 31
0.0
  0
SPLINE
  5
175
100
AcDbEntity
  8
ten_min_wheel
 62
7
100
AcDbSpline
 70
8
 71
3
 72
8
 73
4
 74
0
 40
0
 40
0
 40
0
 40
0
 40
1
 40
1
 40
1
 40
1
 10
223.719000
 20
190.094340
 30
0.0
 10
223.311364
 20
189.956437
 30
0.0
 10
222.902531
 20
189.822096
 30
0.0
 10
222.492550
 20
189.691330
 30
0.0
  0
LINE
  5
176
100
AcDbEntity
  8
ten_min_wheel
 62
7
100
AcDbLine
 10
222.492550
 20
189.691330
 30
0.0
 11
206.284620
 21
246.377210
 31
0.0
  0
SPLINE
  5
177
100
AcDbEntity
  8
ten_min_wheel
 62
7
100
AcDbSpline
 70
8
 71
3
 72
8
 73
4
 74
0
 40
0
 40
0
 40
0
 40
0
 40
1
 40
1
 40
1
 40
1
 10
206.284620
 20
246.377210
 30
0.0
 10
206.368162
 20
246.402449
 30
0.0
 10
206.451482
 20
246.428417
 30
0.0
 10
206.534570
 20
246.455110
 30
0.0
  0
LINE
  5
178
100
AcDbEntity
  8
ten_min_wheel
 62
7
100
AcDbLine
 10
206.534570
 20
246.455110
 30
0.0
 11
206.534570
 21
246.455160
 31
0.0
  0
SPLINE
  5
179
100
AcDbEntity
  8
ten_min_wheel
 62
7
100
AcDbSpline
 70
8
 71
3
 72
8
 73
4
 74
0
 40
0
 40
0
 40
0
 40
0
 40
1
 40
1
 40
1
 40
1
 10
197.023890
 20
246.707590
 30
0.0
 10
197.105256
 20
246.676045
 30
0.0
 10
197.186896
 20
246.645210
 30
0.0
 10
197.268800
 20
246.615090
 30
0.0
  0
LINE
  5
17a
100
AcDbEntity
  8
ten_min_wheel
 62
7
100
AcDbLine
 10
197.268800
 20
246.615090
 30
0.0
 11
178.046961
 21
190.926250
 31
0.0
  0
SPLINE
  5
17b
100
AcDbEntity
  8
ten_min_wheel
 62
7
100
AcDbSpline
 70
8
 71
3
 72
8
 73
4
 74
0
 40
0
 40
0
 40
0
 40
0
 40
1
 40
1
 40
1
 40
1
 10
178.046961
 20
190.926250
 30
0.0
 10
177.636148
 20
191.054149
 30
0.0
 10
177.226458
 20
191.185630
 30
0.0
 10
176.817940
 20
191.320680
 30
0.0
  0
LINE
  5
17c
100
AcDbEntity
  8
ten_min_wheel
 62
7
100
AcDbLine
 10
176.817940
 20
191.320680
 30
0.0
 11
197.023890
 21
246.707590
 31
0.0
  0
LINE
  5
17d
100
AcDbEntity
  8
ten_min_wheel
 62
7
100
AcDbLine
 10
205.013420
 20
246.067850
 30
0.0
 11
216.214500
 21
188.211990
 31
0.0
  0
SPLINE
  5
17e
100
AcDbEntity
  8
ten_min_wheel
 62
7
100
AcDbSpline
 70
8
 71
3
 72
8
 73
4
 74
0
 40
0
 40
0
 40
0
 40
0
 40
1
 40
1
 40
1
 40
1
 10
216.214500
 20
188.211990
 30
0.0
 10
215.790362
 20
188.139494
 30
0.0
 10
215.365599
 20
188.070702
 30
0.0
 10
214.940260
 20
188.005620
 30
0.0
  0
LINE
  5
17f
100
AcDbEntity
  8
ten_min_wheel
 62
7
100
AcDbLine
 10
214.940260
 20
188.005620
 30
0.0
 11
204.754910
 21
246.025360
 31
0.0
  0
SPLINE
  5
180
100
AcDbEntity
  8
ten_min_wheel
 62
7
100
AcDbSpline
 70
8
 71
3
 72
8
 73
4
 74
0
 40
0
 40
0
 40
0
 40
0
 40
1
 40
1
 40
1
 40
1
 10
204.754910
 20
246.025360
 30
0.0
 10
204.841202
 20
246.038774
 30
0.0
 10
204.927375
 20
246.052941
 30
0.0
 10
205.013420
 20
246.067860
 30
0.0
  0
LINE
  5
181
100
AcDbEntity
  8
ten_min_wheel
 62
7
100
AcDbLine
 10
205.013420
 20
246.067860
 30
0.0
 11
205.013420
 21
246.067850
 31
0.0
  0
SPLINE
  5
182
100
AcDbEntity
  8
ten_min_wheel
 62
7
100
AcDbSpline
 70
8
 71
3
 72
8
 73
4
 74
0
 40
0
 40
0
 40
0
 40
0
 40
1
 40
1
 40
1
 40
1
 10
198.524640
 20
246.247590
 30
0.0
 10
198.609447
 20
246.227617
 30
0.0
 10
198.694427
 20
246.208383
 30
0.0
 10
198.779570
 20
246.189890
 30
0.0
  0
LINE
  5
183
100
AcDbEntity
  8
ten_min_wheel
 62
7
100
AcDbLine
 10
198.779570
 20
246.189890
 30
0.0
 11
185.485666
 21
188.804520
 31
0.0
  0
SPLINE
  5
184
100
AcDbEntity
  8
ten_min_wheel
 62
7
100
AcDbSpline
 70
8
 71
3
 72
8
 73
4
 74
0
 40
0
 40
0
 40
0
 40
0
 40
1
 40
1
 40
1
 40
1
 10
185.485666
 20
188.804520
 30
0.0
 10
185.066563
 20
188.899732
 30
0.0
 10
184.648299
 20
188.998596
 30
0.0
 10
184.230920
 20
189.101100
 30
0.0
  0
LINE
  5
185
100
AcDbEntity
  8
ten_min_wheel
 62
7
100
AcDbLine
 10
184.230920
 20
189.101100
 30
0.0
 11
198.524640
 21
246.247590
 31
0.0
  0
LINE
  5
186
100
AcDbEntity
  8
ten_min_wheel
 62
7
100
AcDbLine
 10
203.457800
 20
245.859080
 30
0.0
 11
208.547790
 21
187.174640
 31
0.0
  0
SPLINE
  5
187
100
AcDbEntity
  8
ten_min_wheel
 62
7
100
AcDbSpline
 70
8
 71
3
 72
8
 73
4
 74
0
 40
0
 40
0
 40
0
 40
0
 40
1
 40
1
 40
1
 40
1
 10
208.547790
 20
187.174640
 30
0.0
 10
208.119550
 20
187.135513
 30
0.0
 10
207.690977
 20
187.100121
 30
0.0
 10
207.262120
 20
187.068470
 30
0.0
  0
LINE
  5
188
100
AcDbEntity
  8
ten_min_wheel
 62
7
100
AcDbLine
 10
207.262120
 20
187.068470
 30
0.0
 11
203.196990
 21
245.838910
 31
0.0
  0
SPLINE
  5
189
100
AcDbEntity
  8
ten_min_wheel
 62
7
100
AcDbSpline
 70
8
 71
3
 72
8
 73
4
 74
0
 40
0
 40
0
 40
0
 40
0
 40
1
 40
1
 40
1
 40
1
 10
203.196990
 20
245.838910
 30
0.0
 10
203.283984
 20
245.844885
 30
0.0
 10
203.370924
 20
245.851619
 30
0.0
 10
203.457800
 20
245.859110
 30
0.0
  0
LINE
  5
18a
100
AcDbEntity
  8
ten_min_wheel
 62
7
100
AcDbLine
 10
203.457800
 20
245.859110
 30
0.0
 11
203.457800
 21
245.859080
 31
0.0
  0
SPLINE
  5
18b
100
AcDbEntity
  8
ten_min_wheel
 62
7
100
AcDbSpline
 70
8
 71
3
 72
8
 73
4
 74
0
 40
0
 40
0
 40
0
 40
0
 40
1
 40
1
 40
1
 40
1
 10
200.065320
 20
245.950580
 30
0.0
 10
200.151451
 20
245.937095
 30
0.0
 10
200.237697
 20
245.924361
 30
0.0
 10
200.324050
 20
245.912380
 30
0.0
  0
LINE
  5
18c
100
AcDbEntity
  8
ten_min_wheel
 62
7
100
AcDbLine
 10
200.324050
 20
245.912380
 30
0.0
 11
193.097607
 21
187.422190
 31
0.0
  0
SPLINE
  5
18d
100
AcDbEntity
  8
ten_min_wheel
 62
7
100
AcDbSpline
 70
8
 71
3
 72
8
 73
4
 74
0
 40
0
 40
0
 40
0
 40
0
 40
1
 40
1
 40
1
 40
1
 10
193.097607
 20
187.422190
 30
0.0
 10
192.671921
 20
187.484149
 30
0.0
 10
192.246784
 20
187.549822
 30
0.0
 10
191.822244
 20
187.619200
 30
0.0
  0
LINE
  5
18e
100
AcDbEntity
  8
ten_min_wheel
 62
7
100
AcDbLine
 10
191.822244
 20
187.619200
 30
0.0
 11
200.065320
 21
245.950580
 31
0.0
  0
LINE
  5
18f
100
AcDbEntity
  8
ten_min_wheel
 62
7
100
AcDbLine
 10
201.889530
 20
245.803250
 30
0.0
 11
200.817040
 21
186.893410
 31
0.0
  0
SPLINE
  5
190
100
AcDbEntity
  8
ten_min_wheel
 62
7
100
AcDbSpline
 70
8
 71
3
 72
8
 73
4
 74
0
 40
0
 40
0
 40
0
 40
0
 40
1
 40
1
 40
1
 40
1
 10
200.817040
 20
186.893410
 30
0.0
 10
200.386786
 20
186.887988
 30
0.0
 10
199.956493
 20
186.886321
 30
0.0
 10
199.526210
 20
186.888410
 30
0.0
  0
LINE
  5
191
100
AcDbEntity
  8
ten_min_wheel
 62
7
100
AcDbLine
 10
199.526210
 20
186.888410
 30
0.0
 11
201.627870
 21
245.802380
 31
0.0
  0
SPLINE
  5
192
100
AcDbEntity
  8
ten_min_wheel
 62
7
100
AcDbSpline
 70
8
 71
3
 72
8
 73
4
 74
0
 40
0
 40
0
 40
0
 40
0
 40
1
 40
1
 40
1
 40
1
 10
201.627870
 20
245.802380
 30
0.0
 10
201.715094
 20
245.801843
 30
0.0
 10
201.802320
 20
245.802066
 30
0.0
 10
201.889540
 20
245.803050
 30
0.0
  0
LINE
  5
193
100
AcDbEntity
  8
ten_min_wheel
 62
7
100
AcDbLine
 10
201.889540
 20
245.803050
 30
0.0
 11
201.889530
 21
245.803250
 31
0.0
  0
ENDSEC
  0
SECTION
  2
OBJECTS
  0
DICTIONARY
  5
C
330
0
100
AcDbDictionary
  3
ACAD_GROUP
350
D
  3
ACAD_MLINESTYLE
350
17
  0
DICTIONARY
  5
D
330
C
100
AcDbDictionary
  0
DICTIONARY
  5
1A
330
C
100
AcDbDictionary
  0
DICTIONARY
  5
17
330
C
100
AcDbDictionary
  3
STANDARD
350
18
  0
DICTIONARY
  5
19
330
C
100
AcDbDictionary
  0
ENDSEC
  0
EOF
