  0
SECTION
  2
HEADER
  9
$ACADVER
  1
AC1014
  9
$HANDSEED
  5
FFFF
  9
$MEASUREMENT
 70
     1
  0
ENDSEC
  0
SECTION
  2
TABLES
  0
TABLE
  2
VPORT
  5
8
330
0
100
AcDbSymbolTable
 70
     4
  0
VPORT
  5
2E
330
8
100
AcDbSymbolTableRecord
100
AcDbViewportTableRecord
  2
*ACTIVE
 70
     0
 10
0.0
 20
0.0
 11
1.0
 21
1.0
 12
210.0
 22
148.5
 13
0.0
 23
0.0
 14
10.0
 24
10.0
 15
10.0
 25
10.0
 16
0.0
 26
0.0
 36
1.0
 17
0.0
 27
0.0
 37
0.0
 40
341.0
 41
1.24
 42
50.0
 43
0.0
 44
0.0
 50
0.0
 51
0.0
 71
     0
 72
   100
 73
     1
 74
     3
 75
     0
 76
     0
 77
     0
 78
     0
  0
ENDTAB
  0
TABLE
  2
LTYPE
  5
5
330
0
100
AcDbSymbolTable
 70
     1
  0
LTYPE
  5
14
330
5
100
AcDbSymbolTableRecord
100
AcDbLinetypeTableRecord
  2
BYBLOCK
 70
     0
  3

 72
    65
 73
     0
 40
0.0
  0
LTYPE
  5
15
330
5
100
AcDbSymbolTableRecord
100
AcDbLinetypeTableRecord
  2
BYLAYER
 70
     0
  3

 72
    65
 73
     0
 40
0.0
  0
LTYPE
  5
16
330
5
100
AcDbSymbolTableRecord
100
AcDbLinetypeTableRecord
  2
CONTINUOUS
 70
     0
  3
Solid line
 72
    65
 73
     0
 40
0.0
  0
ENDTAB
  0
TABLE
  2
LAYER
  5
2
100
AcDbSymbolTable
 70
2
  0
LAYER
  5
50
100
AcDbSymbolTableRecord
100
AcDbLayerTableRecord
  2
0
 70
0
  6
CONTINUOUS
  0
LAYER
  5
51
100
AcDbSymbolTableRecord
100
AcDbLayerTableRecord
  2
Ebene_1
 70
0
  6
CONTINUOUS
  0
ENDTAB
  0
TABLE
  2
STYLE
  5
3
330
0
100
AcDbSymbolTable
 70
     1
  0
STYLE
  5
11
330
3
100
AcDbSymbolTableRecord
100
AcDbTextStyleTableRecord
  2
STANDARD
 70
     0
 40
0.0
 41
1.0
 50
0.0
 71
     0
 42
2.5
  3
txt
  4

  0
ENDTAB
  0
TABLE
  2
VIEW
  5
6
330
0
100
AcDbSymbolTable
 70
     0
  0
ENDTAB
  0
TABLE
  2
UCS
  5
7
330
0
100
AcDbSymbolTable
 70
     0
  0
ENDTAB
  0
TABLE
  2
APPID
  5
9
330
0
100
AcDbSymbolTable
 70
     2
  0
APPID
  5
12
330
9
100
AcDbSymbolTableRecord
100
AcDbRegAppTableRecord
  2
ACAD
 70
     0
  0
ENDTAB
  0
TABLE
  2
DIMSTYLE
  5
A
330
0
100
AcDbSymbolTable
 70
     1
  0
DIMSTYLE
105
27
330
A
100
AcDbSymbolTableRecord
100
AcDbDimStyleTableRecord
  2
ISO-25
 70
     0
  3

  4

  5

  6

  7

 40
1.0
 41
2.5
 42
0.625
 43
3.75
 44
1.25
 45
0.0
 46
0.0
 47
0.0
 48
0.0
140
2.5
141
2.5
142
0.0
143
0.03937007874016
144
1.0
145
0.0
146
1.0
147
0.625
 71
     0
 72
     0
 73
     0
 74
     0
 75
     0
 76
     0
 77
     1
 78
     8
170
     0
171
     3
172
     1
173
     0
174
     0
175
     0
176
     0
177
     0
178
     0
270
     2
271
     2
272
     2
273
     2
274
     3
340
11
275
     0
280
     0
281
     0
282
     0
283
     0
284
     8
285
     0
286
     0
287
     3
288
     0
  0
ENDTAB
  0
TABLE
  2
BLOCK_RECORD
  5
1
330
0
100
AcDbSymbolTable
 70
     1
  0
BLOCK_RECORD
  5
1F
330
1
100
AcDbSymbolTableRecord
100
AcDbBlockTableRecord
  2
*MODEL_SPACE
  0
BLOCK_RECORD
  5
1B
330
1
100
AcDbSymbolTableRecord
100
AcDbBlockTableRecord
  2
*PAPER_SPACE
  0
ENDTAB
  0
ENDSEC
  0
SECTION
  2
BLOCKS
  0
BLOCK
  5
20
330
1F
100
AcDbEntity
  8
0
100
AcDbBlockBegin
  2
*MODEL_SPACE
 70
     0
 10
0.0
 20
0.0
 30
0.0
  3
*MODEL_SPACE
  1

  0
ENDBLK
  5
21
330
1F
100
AcDbEntity
  8
0
100
AcDbBlockEnd
  0
BLOCK
  5
1C
330
1B
100
AcDbEntity
 67
     1
  8
0
100
AcDbBlockBegin
  2
*PAPER_SPACE
  1

  0
ENDBLK
  5
1D
330
1B
100
AcDbEntity
 67
     1
  8
0
100
AcDbBlockEnd
  0
ENDSEC
  0
SECTION
  2
ENTITIES
  0
LWPOLYLINE
  5
100
100
AcDbEntity
  8
Ebene_1
 62
7
100
AcDbPolyline
 90
20
 70
1
 10
5.007370
 20
290.967737
 30
0.0
 10
155.007320
 20
290.967737
 30
0.0
 10
155.007320
 20
289.604192
 30
0.0
 10
5.007370
 20
289.604192
 30
0.0
 10
5.007370
 20
290.967737
 30
0.0
 10
155.007278
 20
290.967737
 30
0.0
 10
155.007278
 20
289.604192
 30
0.0
 10
5.007328
 20
289.604192
 30
0.0
 10
5.007328
 20
290.967737
 30
0.0
 10
155.007320
 20
290.967737
 30
0.0
 10
155.007320
 20
289.604192
 30
0.0
 10
5.007370
 20
289.604192
 30
0.0
 10
5.007370
 20
290.967737
 30
0.0
 10
165.007328
 20
290.967737
 30
0.0
 10
165.007328
 20
289.604192
 30
0.0
 10
5.007328
 20
289.604192
 30
0.0
 10
5.007328
 20
290.967737
 30
0.0
 10
165.007328
 20
290.967737
 30
0.0
 10
165.007328
 20
289.604192
 30
0.0
 10
5.007328
 20
289.604192
 30
0.0
  0
LWPOLYLINE
  5
101
100
AcDbEntity
  8
Ebene_1
 62
7
100
AcDbPolyline
 90
4
 70
1
 10
5.007328
 20
289.331487
 30
0.0
 10
165.007328
 20
289.331487
 30
0.0
 10
165.007328
 20
287.967942
 30
0.0
 10
5.007328
 20
287.967942
 30
0.0
  0
LWPOLYLINE
  5
102
100
AcDbEntity
  8
Ebene_1
 62
7
100
AcDbPolyline
 90
4
 70
1
 10
5.007328
 20
287.695227
 30
0.0
 10
165.007328
 20
287.695227
 30
0.0
 10
165.007328
 20
286.331682
 30
0.0
 10
5.007328
 20
286.331682
 30
0.0
  0
LWPOLYLINE
  5
103
100
AcDbEntity
  8
Ebene_1
 62
7
100
AcDbPolyline
 90
4
 70
1
 10
5.007328
 20
286.058977
 30
0.0
 10
165.007328
 20
286.058977
 30
0.0
 10
165.007328
 20
284.695432
 30
0.0
 10
5.007328
 20
284.695432
 30
0.0
  0
LWPOLYLINE
  5
104
100
AcDbEntity
  8
Ebene_1
 62
7
100
AcDbPolyline
 90
4
 70
1
 10
5.007328
 20
284.422717
 30
0.0
 10
165.007328
 20
284.422717
 30
0.0
 10
165.007328
 20
283.059172
 30
0.0
 10
5.007328
 20
283.059172
 30
0.0
  0
LWPOLYLINE
  5
105
100
AcDbEntity
  8
Ebene_1
 62
7
100
AcDbPolyline
 90
4
 70
1
 10
5.007328
 20
282.786467
 30
0.0
 10
165.007328
 20
282.786467
 30
0.0
 10
165.007328
 20
281.422922
 30
0.0
 10
5.007328
 20
281.422922
 30
0.0
  0
LWPOLYLINE
  5
106
100
AcDbEntity
  8
Ebene_1
 62
7
100
AcDbPolyline
 90
4
 70
1
 10
5.007328
 20
281.150217
 30
0.0
 10
165.007328
 20
281.150217
 30
0.0
 10
165.007328
 20
279.786672
 30
0.0
 10
5.007328
 20
279.786672
 30
0.0
  0
LWPOLYLINE
  5
107
100
AcDbEntity
  8
Ebene_1
 62
7
100
AcDbPolyline
 90
4
 70
1
 10
5.007328
 20
279.513937
 30
0.0
 10
165.007328
 20
279.513937
 30
0.0
 10
165.007328
 20
278.150392
 30
0.0
 10
5.007328
 20
278.150392
 30
0.0
  0
LWPOLYLINE
  5
108
100
AcDbEntity
  8
Ebene_1
 62
7
100
AcDbPolyline
 90
4
 70
1
 10
5.007328
 20
277.877737
 30
0.0
 10
165.007328
 20
277.877737
 30
0.0
 10
165.007328
 20
276.514192
 30
0.0
 10
5.007328
 20
276.514192
 30
0.0
  0
LWPOLYLINE
  5
109
100
AcDbEntity
  8
Ebene_1
 62
7
100
AcDbPolyline
 90
4
 70
1
 10
5.007328
 20
276.241437
 30
0.0
 10
165.007328
 20
276.241437
 30
0.0
 10
165.007328
 20
274.877892
 30
0.0
 10
5.007328
 20
274.877892
 30
0.0
  0
LWPOLYLINE
  5
10a
100
AcDbEntity
  8
Ebene_1
 62
7
100
AcDbPolyline
 90
4
 70
1
 10
5.007328
 20
274.605237
 30
0.0
 10
165.007328
 20
274.605237
 30
0.0
 10
165.007328
 20
273.241692
 30
0.0
 10
5.007328
 20
273.241692
 30
0.0
  0
LWPOLYLINE
  5
10b
100
AcDbEntity
  8
Ebene_1
 62
7
100
AcDbPolyline
 90
4
 70
1
 10
5.007328
 20
272.968937
 30
0.0
 10
165.007328
 20
272.968937
 30
0.0
 10
165.007328
 20
271.605392
 30
0.0
 10
5.007328
 20
271.605392
 30
0.0
  0
LWPOLYLINE
  5
10c
100
AcDbEntity
  8
Ebene_1
 62
7
100
AcDbPolyline
 90
4
 70
1
 10
5.007328
 20
271.332737
 30
0.0
 10
165.007328
 20
271.332737
 30
0.0
 10
165.007328
 20
269.969192
 30
0.0
 10
5.007328
 20
269.969192
 30
0.0
  0
LWPOLYLINE
  5
10d
100
AcDbEntity
  8
Ebene_1
 62
7
100
AcDbPolyline
 90
4
 70
1
 10
5.007328
 20
269.696437
 30
0.0
 10
165.007328
 20
269.696437
 30
0.0
 10
165.007328
 20
268.332892
 30
0.0
 10
5.007328
 20
268.332892
 30
0.0
  0
LWPOLYLINE
  5
10e
100
AcDbEntity
  8
Ebene_1
 62
7
100
AcDbPolyline
 90
4
 70
1
 10
5.007328
 20
268.060137
 30
0.0
 10
165.007328
 20
268.060137
 30
0.0
 10
165.007328
 20
266.696592
 30
0.0
 10
5.007328
 20
266.696592
 30
0.0
  0
LWPOLYLINE
  5
10f
100
AcDbEntity
  8
Ebene_1
 62
7
100
AcDbPolyline
 90
4
 70
1
 10
5.007328
 20
266.423937
 30
0.0
 10
165.007328
 20
266.423937
 30
0.0
 10
165.007328
 20
265.060392
 30
0.0
 10
5.007328
 20
265.060392
 30
0.0
  0
LWPOLYLINE
  5
110
100
AcDbEntity
  8
Ebene_1
 62
7
100
AcDbPolyline
 90
4
 70
1
 10
5.007328
 20
264.787637
 30
0.0
 10
165.007328
 20
264.787637
 30
0.0
 10
165.007328
 20
263.424092
 30
0.0
 10
5.007328
 20
263.424092
 30
0.0
  0
LWPOLYLINE
  5
111
100
AcDbEntity
  8
Ebene_1
 62
7
100
AcDbPolyline
 90
4
 70
1
 10
5.007328
 20
263.151437
 30
0.0
 10
165.007328
 20
263.151437
 30
0.0
 10
165.007328
 20
261.787892
 30
0.0
 10
5.007328
 20
261.787892
 30
0.0
  0
LWPOLYLINE
  5
112
100
AcDbEntity
  8
Ebene_1
 62
7
100
AcDbPolyline
 90
4
 70
1
 10
5.007328
 20
261.515137
 30
0.0
 10
165.007328
 20
261.515137
 30
0.0
 10
165.007328
 20
260.151592
 30
0.0
 10
5.007328
 20
260.151592
 30
0.0
  0
LWPOLYLINE
  5
113
100
AcDbEntity
  8
Ebene_1
 62
7
100
AcDbPolyline
 90
4
 70
1
 10
5.007328
 20
259.878937
 30
0.0
 10
165.007328
 20
259.878937
 30
0.0
 10
165.007328
 20
258.515392
 30
0.0
 10
5.007328
 20
258.515392
 30
0.0
  0
LWPOLYLINE
  5
114
100
AcDbEntity
  8
Ebene_1
 62
7
100
AcDbPolyline
 90
4
 70
1
 10
5.007328
 20
258.242637
 30
0.0
 10
165.007328
 20
258.242637
 30
0.0
 10
165.007328
 20
256.879092
 30
0.0
 10
5.007328
 20
256.879092
 30
0.0
  0
LWPOLYLINE
  5
115
100
AcDbEntity
  8
Ebene_1
 62
7
100
AcDbPolyline
 90
4
 70
1
 10
5.007328
 20
256.606437
 30
0.0
 10
165.007328
 20
256.606437
 30
0.0
 10
165.007328
 20
255.242892
 30
0.0
 10
5.007328
 20
255.242892
 30
0.0
  0
LWPOLYLINE
  5
116
100
AcDbEntity
  8
Ebene_1
 62
7
100
AcDbPolyline
 90
4
 70
1
 10
5.007328
 20
254.970137
 30
0.0
 10
165.007328
 20
254.970137
 30
0.0
 10
165.007328
 20
253.606592
 30
0.0
 10
5.007328
 20
253.606592
 30
0.0
  0
LWPOLYLINE
  5
117
100
AcDbEntity
  8
Ebene_1
 62
7
100
AcDbPolyline
 90
4
 70
1
 10
5.007328
 20
253.333937
 30
0.0
 10
165.007328
 20
253.333937
 30
0.0
 10
165.007328
 20
251.970392
 30
0.0
 10
5.007328
 20
251.970392
 30
0.0
  0
LWPOLYLINE
  5
118
100
AcDbEntity
  8
Ebene_1
 62
7
100
AcDbPolyline
 90
4
 70
1
 10
5.007328
 20
251.697637
 30
0.0
 10
165.007328
 20
251.697637
 30
0.0
 10
165.007328
 20
250.334092
 30
0.0
 10
5.007328
 20
250.334092
 30
0.0
  0
LWPOLYLINE
  5
119
100
AcDbEntity
  8
Ebene_1
 62
7
100
AcDbPolyline
 90
4
 70
1
 10
5.007328
 20
250.061337
 30
0.0
 10
165.007328
 20
250.061337
 30
0.0
 10
165.007328
 20
248.697792
 30
0.0
 10
5.007328
 20
248.697792
 30
0.0
  0
LWPOLYLINE
  5
11a
100
AcDbEntity
  8
Ebene_1
 62
7
100
AcDbPolyline
 90
4
 70
1
 10
5.007328
 20
248.425137
 30
0.0
 10
165.007328
 20
248.425137
 30
0.0
 10
165.007328
 20
247.061592
 30
0.0
 10
5.007328
 20
247.061592
 30
0.0
  0
LWPOLYLINE
  5
11b
100
AcDbEntity
  8
Ebene_1
 62
7
100
AcDbPolyline
 90
4
 70
1
 10
5.007328
 20
246.788837
 30
0.0
 10
165.007328
 20
246.788837
 30
0.0
 10
165.007328
 20
245.425292
 30
0.0
 10
5.007328
 20
245.425292
 30
0.0
  0
LWPOLYLINE
  5
11c
100
AcDbEntity
  8
Ebene_1
 62
7
100
AcDbPolyline
 90
4
 70
1
 10
5.007328
 20
245.152637
 30
0.0
 10
165.007328
 20
245.152637
 30
0.0
 10
165.007328
 20
243.789092
 30
0.0
 10
5.007328
 20
243.789092
 30
0.0
  0
LWPOLYLINE
  5
11d
100
AcDbEntity
  8
Ebene_1
 62
7
100
AcDbPolyline
 90
4
 70
1
 10
5.007328
 20
243.516337
 30
0.0
 10
165.007328
 20
243.516337
 30
0.0
 10
165.007328
 20
242.152792
 30
0.0
 10
5.007328
 20
242.152792
 30
0.0
  0
LWPOLYLINE
  5
11e
100
AcDbEntity
  8
Ebene_1
 62
7
100
AcDbPolyline
 90
4
 70
1
 10
5.007328
 20
241.880137
 30
0.0
 10
165.007328
 20
241.880137
 30
0.0
 10
165.007328
 20
240.516592
 30
0.0
 10
5.007328
 20
240.516592
 30
0.0
  0
LWPOLYLINE
  5
11f
100
AcDbEntity
  8
Ebene_1
 62
7
100
AcDbPolyline
 90
4
 70
1
 10
5.007328
 20
240.243837
 30
0.0
 10
165.007328
 20
240.243837
 30
0.0
 10
165.007328
 20
238.880292
 30
0.0
 10
5.007328
 20
238.880292
 30
0.0
  0
LWPOLYLINE
  5
120
100
AcDbEntity
  8
Ebene_1
 62
7
100
AcDbPolyline
 90
4
 70
1
 10
5.007328
 20
238.607637
 30
0.0
 10
165.007328
 20
238.607637
 30
0.0
 10
165.007328
 20
237.244092
 30
0.0
 10
5.007328
 20
237.244092
 30
0.0
  0
LWPOLYLINE
  5
121
100
AcDbEntity
  8
Ebene_1
 62
7
100
AcDbPolyline
 90
4
 70
1
 10
5.007328
 20
236.971337
 30
0.0
 10
165.007328
 20
236.971337
 30
0.0
 10
165.007328
 20
235.607792
 30
0.0
 10
5.007328
 20
235.607792
 30
0.0
  0
LWPOLYLINE
  5
122
100
AcDbEntity
  8
Ebene_1
 62
7
100
AcDbPolyline
 90
4
 70
1
 10
5.007328
 20
235.335137
 30
0.0
 10
165.007328
 20
235.335137
 30
0.0
 10
165.007328
 20
233.971592
 30
0.0
 10
5.007328
 20
233.971592
 30
0.0
  0
LWPOLYLINE
  5
123
100
AcDbEntity
  8
Ebene_1
 62
7
100
AcDbPolyline
 90
4
 70
1
 10
5.007328
 20
233.698837
 30
0.0
 10
165.007328
 20
233.698837
 30
0.0
 10
165.007328
 20
232.335292
 30
0.0
 10
5.007328
 20
232.335292
 30
0.0
  0
LWPOLYLINE
  5
124
100
AcDbEntity
  8
Ebene_1
 62
7
100
AcDbPolyline
 90
4
 70
1
 10
5.007328
 20
232.062637
 30
0.0
 10
165.007328
 20
232.062637
 30
0.0
 10
165.007328
 20
230.699092
 30
0.0
 10
5.007328
 20
230.699092
 30
0.0
  0
LWPOLYLINE
  5
125
100
AcDbEntity
  8
Ebene_1
 62
7
100
AcDbPolyline
 90
4
 70
1
 10
5.007328
 20
230.426337
 30
0.0
 10
165.007328
 20
230.426337
 30
0.0
 10
165.007328
 20
229.062792
 30
0.0
 10
5.007328
 20
229.062792
 30
0.0
  0
LWPOLYLINE
  5
126
100
AcDbEntity
  8
Ebene_1
 62
7
100
AcDbPolyline
 90
4
 70
1
 10
5.007328
 20
228.790037
 30
0.0
 10
165.007328
 20
228.790037
 30
0.0
 10
165.007328
 20
227.426492
 30
0.0
 10
5.007328
 20
227.426492
 30
0.0
  0
LWPOLYLINE
  5
127
100
AcDbEntity
  8
Ebene_1
 62
7
100
AcDbPolyline
 90
4
 70
1
 10
5.007328
 20
227.153837
 30
0.0
 10
165.007328
 20
227.153837
 30
0.0
 10
165.007328
 20
225.790292
 30
0.0
 10
5.007328
 20
225.790292
 30
0.0
  0
LWPOLYLINE
  5
128
100
AcDbEntity
  8
Ebene_1
 62
7
100
AcDbPolyline
 90
4
 70
1
 10
5.007328
 20
225.517537
 30
0.0
 10
165.007328
 20
225.517537
 30
0.0
 10
165.007328
 20
224.153992
 30
0.0
 10
5.007328
 20
224.153992
 30
0.0
  0
LWPOLYLINE
  5
129
100
AcDbEntity
  8
Ebene_1
 62
7
100
AcDbPolyline
 90
4
 70
1
 10
5.007328
 20
223.881337
 30
0.0
 10
165.007328
 20
223.881337
 30
0.0
 10
165.007328
 20
222.517792
 30
0.0
 10
5.007328
 20
222.517792
 30
0.0
  0
LWPOLYLINE
  5
12a
100
AcDbEntity
  8
Ebene_1
 62
7
100
AcDbPolyline
 90
4
 70
1
 10
5.007328
 20
222.245037
 30
0.0
 10
165.007328
 20
222.245037
 30
0.0
 10
165.007328
 20
220.881492
 30
0.0
 10
5.007328
 20
220.881492
 30
0.0
  0
LWPOLYLINE
  5
12b
100
AcDbEntity
  8
Ebene_1
 62
7
100
AcDbPolyline
 90
4
 70
1
 10
5.007328
 20
220.608837
 30
0.0
 10
165.007328
 20
220.608837
 30
0.0
 10
165.007328
 20
219.245292
 30
0.0
 10
5.007328
 20
219.245292
 30
0.0
  0
LWPOLYLINE
  5
12c
100
AcDbEntity
  8
Ebene_1
 62
7
100
AcDbPolyline
 90
4
 70
1
 10
5.007328
 20
218.972537
 30
0.0
 10
165.007328
 20
218.972537
 30
0.0
 10
165.007328
 20
217.608992
 30
0.0
 10
5.007328
 20
217.608992
 30
0.0
  0
LWPOLYLINE
  5
12d
100
AcDbEntity
  8
Ebene_1
 62
7
100
AcDbPolyline
 90
4
 70
1
 10
5.007328
 20
217.336337
 30
0.0
 10
165.007328
 20
217.336337
 30
0.0
 10
165.007328
 20
215.972792
 30
0.0
 10
5.007328
 20
215.972792
 30
0.0
  0
LWPOLYLINE
  5
12e
100
AcDbEntity
  8
Ebene_1
 62
7
100
AcDbPolyline
 90
4
 70
1
 10
5.007328
 20
215.700037
 30
0.0
 10
165.007328
 20
215.700037
 30
0.0
 10
165.007328
 20
214.336492
 30
0.0
 10
5.007328
 20
214.336492
 30
0.0
  0
LWPOLYLINE
  5
12f
100
AcDbEntity
  8
Ebene_1
 62
7
100
AcDbPolyline
 90
4
 70
1
 10
5.007328
 20
214.063837
 30
0.0
 10
165.007328
 20
214.063837
 30
0.0
 10
165.007328
 20
212.700292
 30
0.0
 10
5.007328
 20
212.700292
 30
0.0
  0
LWPOLYLINE
  5
130
100
AcDbEntity
  8
Ebene_1
 62
7
100
AcDbPolyline
 90
4
 70
1
 10
5.007328
 20
212.427537
 30
0.0
 10
165.007328
 20
212.427537
 30
0.0
 10
165.007328
 20
211.063992
 30
0.0
 10
5.007328
 20
211.063992
 30
0.0
  0
LWPOLYLINE
  5
131
100
AcDbEntity
  8
Ebene_1
 62
7
100
AcDbPolyline
 90
4
 70
1
 10
5.007328
 20
210.791337
 30
0.0
 10
165.007328
 20
210.791337
 30
0.0
 10
165.007328
 20
209.427792
 30
0.0
 10
5.007328
 20
209.427792
 30
0.0
  0
LWPOLYLINE
  5
132
100
AcDbEntity
  8
Ebene_1
 62
7
100
AcDbPolyline
 90
4
 70
1
 10
5.007328
 20
209.155037
 30
0.0
 10
165.007328
 20
209.155037
 30
0.0
 10
165.007328
 20
207.791492
 30
0.0
 10
5.007328
 20
207.791492
 30
0.0
  0
LWPOLYLINE
  5
133
100
AcDbEntity
  8
Ebene_1
 62
7
100
AcDbPolyline
 90
4
 70
1
 10
5.007328
 20
207.518737
 30
0.0
 10
165.007328
 20
207.518737
 30
0.0
 10
165.007328
 20
206.155192
 30
0.0
 10
5.007328
 20
206.155192
 30
0.0
  0
LWPOLYLINE
  5
134
100
AcDbEntity
  8
Ebene_1
 62
7
100
AcDbPolyline
 90
4
 70
1
 10
5.007328
 20
205.882537
 30
0.0
 10
165.007328
 20
205.882537
 30
0.0
 10
165.007328
 20
204.518992
 30
0.0
 10
5.007328
 20
204.518992
 30
0.0
  0
LWPOLYLINE
  5
135
100
AcDbEntity
  8
Ebene_1
 62
7
100
AcDbPolyline
 90
4
 70
1
 10
5.007328
 20
204.246237
 30
0.0
 10
165.007328
 20
204.246237
 30
0.0
 10
165.007328
 20
202.882692
 30
0.0
 10
5.007328
 20
202.882692
 30
0.0
  0
LWPOLYLINE
  5
136
100
AcDbEntity
  8
Ebene_1
 62
7
100
AcDbPolyline
 90
4
 70
1
 10
5.007328
 20
202.610037
 30
0.0
 10
165.007328
 20
202.610037
 30
0.0
 10
165.007328
 20
201.246492
 30
0.0
 10
5.007328
 20
201.246492
 30
0.0
  0
LWPOLYLINE
  5
137
100
AcDbEntity
  8
Ebene_1
 62
7
100
AcDbPolyline
 90
4
 70
1
 10
5.007328
 20
200.973737
 30
0.0
 10
165.007328
 20
200.973737
 30
0.0
 10
165.007328
 20
199.610192
 30
0.0
 10
5.007328
 20
199.610192
 30
0.0
  0
LWPOLYLINE
  5
138
100
AcDbEntity
  8
Ebene_1
 62
7
100
AcDbPolyline
 90
4
 70
1
 10
5.007328
 20
199.337537
 30
0.0
 10
165.007328
 20
199.337537
 30
0.0
 10
165.007328
 20
197.973992
 30
0.0
 10
5.007328
 20
197.973992
 30
0.0
  0
LWPOLYLINE
  5
139
100
AcDbEntity
  8
Ebene_1
 62
7
100
AcDbPolyline
 90
4
 70
1
 10
5.007328
 20
197.701237
 30
0.0
 10
165.007328
 20
197.701237
 30
0.0
 10
165.007328
 20
196.337692
 30
0.0
 10
5.007328
 20
196.337692
 30
0.0
  0
LWPOLYLINE
  5
13a
100
AcDbEntity
  8
Ebene_1
 62
7
100
AcDbPolyline
 90
4
 70
1
 10
5.007328
 20
196.065037
 30
0.0
 10
165.007328
 20
196.065037
 30
0.0
 10
165.007328
 20
194.701492
 30
0.0
 10
5.007328
 20
194.701492
 30
0.0
  0
LWPOLYLINE
  5
13b
100
AcDbEntity
  8
Ebene_1
 62
7
100
AcDbPolyline
 90
4
 70
1
 10
5.007328
 20
194.428737
 30
0.0
 10
165.007328
 20
194.428737
 30
0.0
 10
165.007328
 20
193.065192
 30
0.0
 10
5.007328
 20
193.065192
 30
0.0
  0
LWPOLYLINE
  5
13c
100
AcDbEntity
  8
Ebene_1
 62
7
100
AcDbPolyline
 90
4
 70
1
 10
5.007328
 20
192.792537
 30
0.0
 10
165.007328
 20
192.792537
 30
0.0
 10
165.007328
 20
191.428992
 30
0.0
 10
5.007328
 20
191.428992
 30
0.0
  0
LWPOLYLINE
  5
13d
100
AcDbEntity
  8
Ebene_1
 62
7
100
AcDbPolyline
 90
4
 70
1
 10
5.007328
 20
191.156237
 30
0.0
 10
165.007328
 20
191.156237
 30
0.0
 10
165.007328
 20
189.792692
 30
0.0
 10
5.007328
 20
189.792692
 30
0.0
  0
LWPOLYLINE
  5
13e
100
AcDbEntity
  8
Ebene_1
 62
7
100
AcDbPolyline
 90
4
 70
1
 10
5.007328
 20
189.519737
 30
0.0
 10
165.007328
 20
189.519737
 30
0.0
 10
165.007328
 20
188.156192
 30
0.0
 10
5.007328
 20
188.156192
 30
0.0
  0
LWPOLYLINE
  5
13f
100
AcDbEntity
  8
Ebene_1
 62
7
100
AcDbPolyline
 90
4
 70
1
 10
5.007328
 20
187.883737
 30
0.0
 10
165.007328
 20
187.883737
 30
0.0
 10
165.007328
 20
186.520192
 30
0.0
 10
5.007328
 20
186.520192
 30
0.0
  0
LWPOLYLINE
  5
140
100
AcDbEntity
  8
Ebene_1
 62
7
100
AcDbPolyline
 90
4
 70
1
 10
5.007328
 20
186.247737
 30
0.0
 10
165.007328
 20
186.247737
 30
0.0
 10
165.007328
 20
184.884192
 30
0.0
 10
5.007328
 20
184.884192
 30
0.0
  0
LWPOLYLINE
  5
141
100
AcDbEntity
  8
Ebene_1
 62
7
100
AcDbPolyline
 90
4
 70
1
 10
5.007328
 20
184.610737
 30
0.0
 10
165.007328
 20
184.610737
 30
0.0
 10
165.007328
 20
183.247192
 30
0.0
 10
5.007328
 20
183.247192
 30
0.0
  0
LWPOLYLINE
  5
142
100
AcDbEntity
  8
Ebene_1
 62
7
100
AcDbPolyline
 90
4
 70
1
 10
5.007328
 20
182.974737
 30
0.0
 10
165.007328
 20
182.974737
 30
0.0
 10
165.007328
 20
181.611192
 30
0.0
 10
5.007328
 20
181.611192
 30
0.0
  0
LWPOLYLINE
  5
143
100
AcDbEntity
  8
Ebene_1
 62
7
100
AcDbPolyline
 90
4
 70
1
 10
5.007328
 20
181.338737
 30
0.0
 10
165.007328
 20
181.338737
 30
0.0
 10
165.007328
 20
179.975192
 30
0.0
 10
5.007328
 20
179.975192
 30
0.0
  0
ENDSEC
  0
SECTION
  2
OBJECTS
  0
DICTIONARY
  5
C
330
0
100
AcDbDictionary
  3
ACAD_GROUP
350
D
  3
ACAD_MLINESTYLE
350
17
  0
DICTIONARY
  5
D
330
C
100
AcDbDictionary
  0
DICTIONARY
  5
1A
330
C
100
AcDbDictionary
  0
DICTIONARY
  5
17
330
C
100
AcDbDictionary
  3
STANDARD
350
18
  0
DICTIONARY
  5
19
330
C
100
AcDbDictionary
  0
ENDSEC
  0
EOF
